<svg width="38" height="38" viewBox="0 0 38 38" fill="none" xmlns="http://www.w3.org/2000/svg">
<g clip-path="url(#clip0)">
<path d="M34.7815 8.42841L34.2131 8.60864L31.1855 8.87838L30.3303 10.244L29.7098 10.0468L27.3003 7.87443L26.9508 6.74469L26.4827 5.53995L24.9683 4.1816L23.1817 3.83203L23.1406 4.6497L24.8909 6.35762L25.7472 7.36641L24.7844 7.86959L24.0006 7.63856L22.8261 7.14868L22.866 6.20159L21.325 5.56777L20.8134 7.7946L19.2603 8.14658L19.4139 9.38882L21.4375 9.7783L21.7871 7.79339L23.4575 8.04014L24.2341 8.49494H25.4799L26.3327 10.2029L28.5934 12.4962L28.4277 13.3877L26.6048 13.1554L23.4551 14.746L21.1871 17.4664L20.892 18.6711H20.078L18.5612 17.972L17.0879 18.6711L17.4544 20.2254L18.0955 19.4863L19.2228 19.4513L19.1442 20.8471L20.078 21.1205L21.0105 22.168L22.5334 21.7398L24.2728 22.0144L26.2928 22.5575L27.3015 22.676L29.0119 24.6174L32.3128 26.5587L30.1779 30.6374L27.9245 31.6849L27.0693 34.0158L23.8083 36.193L23.4611 37.4485C31.7975 35.4406 37.999 27.9522 37.999 18.9989C37.9966 15.0883 36.8112 11.4487 34.7815 8.42841Z" fill="white"/>
<path d="M21.1857 28.9297L19.802 26.3642L21.072 23.7177L19.802 23.3379L18.3759 21.9057L15.2165 21.1969L14.1678 19.0027V20.3055H13.7057L10.983 16.6138V13.5814L8.98718 10.3361L5.8181 10.901H3.6832L2.6091 10.197L3.97955 9.11084L2.61273 9.42654C0.965285 12.24 0.00488281 15.5047 0.00488281 19.0015C0.00488281 29.4922 8.5094 38.0003 19.0013 38.0003C19.8092 38.0003 20.6015 37.929 21.3853 37.8346L21.187 35.5328C21.187 35.5328 22.0591 32.1145 22.0591 31.9984C22.0578 31.8811 21.1857 28.9297 21.1857 28.9297Z" fill="white"/>
<path d="M7.0639 6.1265L10.4386 5.65597L11.9941 4.80322L13.7444 5.30761L16.5409 5.15279L17.4989 3.64687L18.896 3.87669L22.2888 3.55857L23.2238 2.52801L24.5422 1.64744L26.4074 1.92806L27.0872 1.82525C24.6305 0.668895 21.8969 0 19 0C13.1033 0 7.83077 2.68767 4.34961 6.90788H4.35929L7.0639 6.1265ZM19.8031 1.88936L21.7433 0.821301L22.9892 1.541L21.1857 2.91387L19.4632 3.08683L18.6879 2.58365L19.8031 1.88936ZM14.0564 2.04539L14.9128 2.40222L16.0341 2.04539L16.6449 3.10377L14.0564 3.78355L12.8118 3.05539C12.8106 3.05539 14.0286 2.27158 14.0564 2.04539Z" fill="white"/>
</g>
<defs>
<clipPath id="clip0">
<rect width="38" height="38" fill="white"/>
</clipPath>
</defs>
</svg>
