<svg width="28" height="28" viewBox="0 0 28 28" fill="none" xmlns="http://www.w3.org/2000/svg">
<path d="M26.6 1.4H22.4V0H5.6V1.4H1.4C0.56 1.4 0 1.96 0 2.8V6.16C0 9.38 2.38 12.04 5.6 12.46V12.6C5.6 16.66 8.4 20.02 12.18 20.86L11.2 23.8H7.98C7.42 23.8 6.86 24.22 6.72 24.78L5.6 28H22.4L21.28 24.78C21.14 24.22 20.58 23.8 20.02 23.8H16.8L15.82 20.86C19.6 20.02 22.4 16.66 22.4 12.6V12.46C25.62 12.04 28 9.38 28 6.16V2.8C28 1.96 27.44 1.4 26.6 1.4ZM5.6 9.66C4.06 9.24 2.8 7.84 2.8 6.16V4.2H5.6V9.66ZM16.8 14L14 12.46L11.2 14L11.9 11.2L9.8 8.4H12.74L14 5.6L15.26 8.4H18.2L16.1 11.2L16.8 14ZM25.2 6.16C25.2 7.84 23.94 9.38 22.4 9.66V4.2H25.2V6.16Z" fill="white"/>
</svg>
