<svg width="71" height="71" viewBox="0 0 71 71" fill="none" xmlns="http://www.w3.org/2000/svg">
<circle cx="35.5" cy="35.5" r="35.5" fill="#43DBC4"/>
<path d="M44.0163 37.046C44.0163 37.4719 43.987 37.8977 43.9319 38.3199C43.9466 38.2208 43.9576 38.1253 43.9723 38.0262C43.8585 38.8485 43.6419 39.6488 43.3225 40.4124C43.3592 40.3243 43.3959 40.2362 43.4326 40.1481C43.2454 40.5887 43.0288 41.0182 42.7792 41.4257C42.658 41.6239 42.5259 41.8221 42.39 42.013C42.357 42.0608 42.3239 42.1048 42.2909 42.1489C42.2726 42.1746 42.2505 42.2003 42.2322 42.226C42.1661 42.3177 42.3386 42.0754 42.3313 42.0975C42.2909 42.2003 42.1587 42.3141 42.089 42.3985C41.788 42.7546 41.4576 43.0887 41.1088 43.397C41.0244 43.4705 40.9399 43.5439 40.8518 43.6173C40.8004 43.6577 40.7527 43.6981 40.7013 43.7385C40.6683 43.7642 40.5912 43.8229 40.738 43.7128C40.8959 43.5916 40.7711 43.6871 40.7344 43.7164C40.5471 43.8559 40.3526 43.9918 40.158 44.1166C39.6991 44.4103 39.2145 44.6636 38.7153 44.8728C38.8034 44.8361 38.8915 44.7994 38.9796 44.7627C38.216 45.0821 37.412 45.3023 36.5934 45.4125C36.6925 45.3978 36.7879 45.3868 36.887 45.3721C36.039 45.4859 35.1836 45.4859 34.3393 45.3721C34.4384 45.3868 34.5339 45.3978 34.633 45.4125C33.8107 45.2987 33.0104 45.0821 32.2468 44.7627C32.3349 44.7994 32.423 44.8361 32.5111 44.8728C32.0705 44.6856 31.641 44.469 31.2335 44.2194C31.0353 44.0982 30.8371 43.9661 30.6462 43.8302C30.5984 43.7972 30.5544 43.7642 30.5103 43.7311C30.4846 43.7128 30.4589 43.6907 30.4332 43.6724C30.3415 43.6063 30.5838 43.7788 30.5617 43.7715C30.4589 43.7311 30.3451 43.599 30.2607 43.5292C29.9046 43.2282 29.5705 42.8978 29.2622 42.549C29.1887 42.4646 29.1153 42.3801 29.0419 42.292C29.0015 42.2406 28.9611 42.1929 28.9207 42.1415C28.895 42.1085 28.8363 42.0314 28.9464 42.1782C29.0676 42.3361 28.9721 42.2113 28.9428 42.1746C28.8033 41.9873 28.6674 41.7928 28.5426 41.5982C28.2489 41.1393 27.9956 40.6547 27.7864 40.1555C27.8231 40.2436 27.8598 40.3317 27.8965 40.4198C27.5771 39.6562 27.3568 38.8522 27.2467 38.0336C27.2614 38.1327 27.2724 38.2281 27.2871 38.3272C27.232 37.9051 27.2027 37.4792 27.2027 37.0534C27.2027 36.477 26.6961 35.9263 26.1013 35.952C25.5066 35.9777 25 36.4366 25 37.0534C25.0073 39.2083 25.6718 41.3779 26.931 43.1364C28.2196 44.9316 29.978 46.2862 32.0522 47.0498C34.0897 47.8024 36.3951 47.8685 38.484 47.2774C40.5068 46.7047 42.379 45.5116 43.7226 43.8926C45.1617 42.1599 46.0244 40.071 46.208 37.8206C46.23 37.5637 46.2373 37.3067 46.2373 37.0497C46.2373 36.4733 45.7307 35.9227 45.136 35.9484C44.5193 35.9741 44.0163 36.4293 44.0163 37.046Z" fill="white"/>
<path d="M35.5992 40.5335C35.3605 40.5335 35.1219 40.5152 34.8833 40.4858C34.9824 40.5005 35.0779 40.5115 35.177 40.5262C34.6998 40.4601 34.2335 40.3353 33.7893 40.1481C33.8774 40.1848 33.9655 40.2215 34.0536 40.2582C33.7379 40.1224 33.4369 39.9645 33.1542 39.7736C33.0808 39.7259 33.0074 39.6708 32.9376 39.6194C32.7834 39.5093 33 39.6855 33.0257 39.6892C33 39.6855 32.9303 39.6121 32.9119 39.5974C32.7834 39.491 32.6549 39.3735 32.5375 39.256C32.4163 39.1349 32.3025 39.01 32.1961 38.8815C32.1704 38.8522 32.1447 38.8191 32.119 38.7861C32.0382 38.687 32.2878 39.0137 32.1887 38.8742C32.1373 38.8008 32.0859 38.731 32.0345 38.6576C31.84 38.3676 31.6748 38.0592 31.5353 37.7362C31.572 37.8243 31.6087 37.9124 31.6454 38.0005C31.4582 37.5563 31.3333 37.09 31.2673 36.6128C31.282 36.7119 31.293 36.8074 31.3076 36.9065C31.2379 36.3485 31.2599 35.7758 31.2599 35.2141C31.2599 34.2633 31.2599 33.3125 31.2599 32.3617C31.2599 30.17 31.2599 27.9747 31.2599 25.783C31.2599 25.1333 31.2232 24.4651 31.3076 23.819C31.293 23.9181 31.282 24.0136 31.2673 24.1127C31.3333 23.6354 31.4582 23.1692 31.6454 22.725C31.6087 22.8131 31.572 22.9012 31.5353 22.9893C31.6711 22.6736 31.8289 22.3726 32.0198 22.0899C32.0676 22.0165 32.1226 21.9431 32.174 21.8733C32.2842 21.7191 32.1079 21.9357 32.1043 21.9614C32.1079 21.9357 32.1814 21.866 32.1961 21.8476C32.3025 21.7191 32.42 21.5906 32.5375 21.4732C32.6586 21.352 32.7834 21.2382 32.9119 21.1317C32.9413 21.106 32.9743 21.0804 33.0074 21.0547C33.1065 20.9739 32.7798 21.2235 32.9193 21.1244C32.9927 21.073 33.0624 21.0216 33.1359 20.9702C33.4259 20.7756 33.7342 20.6104 34.0573 20.4709C33.9692 20.5077 33.8811 20.5444 33.793 20.5811C34.2372 20.3939 34.7034 20.269 35.1807 20.203C35.0815 20.2176 34.9861 20.2287 34.887 20.2433C35.3642 20.1809 35.8415 20.1809 36.3187 20.2433C36.2196 20.2287 36.1241 20.2176 36.025 20.203C36.5023 20.269 36.9685 20.3939 37.4127 20.5811C37.3246 20.5444 37.2365 20.5077 37.1484 20.4709C37.4641 20.6068 37.7651 20.7646 38.0478 20.9555C38.1212 21.0033 38.1946 21.0583 38.2644 21.1097C38.4186 21.2199 38.202 21.0436 38.1763 21.04C38.202 21.0436 38.2717 21.1171 38.2901 21.1317C38.4186 21.2382 38.5471 21.3557 38.6645 21.4732C38.7857 21.5943 38.8995 21.7191 39.006 21.8476C39.0317 21.877 39.0574 21.91 39.0831 21.9431C39.1638 22.0422 38.9142 21.7155 39.0133 21.855C39.0647 21.9284 39.1161 21.9981 39.1675 22.0715C39.3621 22.3616 39.5273 22.6699 39.6668 22.993C39.63 22.9049 39.5933 22.8168 39.5566 22.7287C39.7439 23.1729 39.8687 23.6391 39.9347 24.1164C39.9201 24.0172 39.9091 23.9218 39.8944 23.8227C39.9641 24.3807 39.9421 24.9534 39.9421 25.515C39.9421 26.4659 39.9421 27.4167 39.9421 28.3675C39.9421 30.5591 39.9421 32.7545 39.9421 34.9461C39.9421 35.5959 39.9788 36.264 39.8944 36.9102C39.9091 36.811 39.9201 36.7156 39.9347 36.6165C39.8687 37.0937 39.7439 37.5599 39.5566 38.0042C39.5933 37.916 39.63 37.8279 39.6668 37.7398C39.5309 38.0555 39.3731 38.3566 39.1822 38.6393C39.1344 38.7127 39.0794 38.7861 39.028 38.8559C38.9179 39.01 39.0941 38.7934 39.0977 38.7677C39.0941 38.7934 39.0206 38.8632 39.006 38.8815C38.8995 39.01 38.782 39.1385 38.6645 39.256C38.5434 39.3771 38.4186 39.491 38.2901 39.5974C38.2607 39.6231 38.2277 39.6488 38.1946 39.6745C38.0955 39.7553 38.4223 39.5056 38.2827 39.6048C38.2093 39.6562 38.1396 39.7075 38.0662 39.7589C37.7761 39.9535 37.4678 40.1187 37.1447 40.2582C37.2328 40.2215 37.3209 40.1848 37.409 40.1481C36.9648 40.3353 36.4986 40.4601 36.0213 40.5262C36.1205 40.5115 36.2159 40.5005 36.315 40.4858C36.0764 40.5152 35.8378 40.5299 35.5992 40.5335C35.0228 40.5372 34.4721 41.0365 34.4978 41.6349C34.5235 42.2296 34.9824 42.7399 35.5992 42.7362C37.2145 42.7289 38.7453 42.1231 39.9568 41.0622C41.0618 40.093 41.8474 38.6833 42.053 37.2259C42.1301 36.6715 42.1411 36.1392 42.1411 35.5849C42.1411 34.8984 42.1411 34.2082 42.1411 33.5217C42.1411 31.6091 42.1411 29.6964 42.1411 27.7838C42.1411 26.7008 42.1448 25.6142 42.1411 24.5312C42.1337 22.96 41.561 21.4842 40.5625 20.2837C39.6337 19.1604 38.2424 18.3454 36.807 18.1031C35.221 17.8314 33.5837 18.0921 32.2034 18.9401C30.8671 19.7624 29.8686 21.04 29.3693 22.5268C28.9361 23.819 29.0536 25.2544 29.0536 26.598C29.0536 28.485 29.0536 30.3683 29.0536 32.2552C29.0536 33.5401 29.0536 34.8286 29.0536 36.1135C29.0536 37.2846 29.3436 38.4447 29.9347 39.4616C30.7203 40.8162 31.9721 41.8221 33.4332 42.3618C34.1197 42.6151 34.8686 42.7362 35.5992 42.7362C36.1755 42.7362 36.7262 42.2296 36.7005 41.6349C36.6748 41.0365 36.2159 40.5335 35.5992 40.5335Z" fill="white"/>
<path d="M34.4961 46.5651C34.4961 47.2773 34.4961 47.9895 34.4961 48.7017C34.4961 49.8397 34.4961 50.9741 34.4961 52.1121C34.4961 52.3728 34.4961 52.6371 34.4961 52.8978C34.4961 53.4741 35.0027 54.0248 35.5974 53.9991C36.1958 53.9734 36.6988 53.5145 36.6988 52.8978C36.6988 52.1856 36.6988 51.4734 36.6988 50.7612C36.6988 49.6231 36.6988 48.4888 36.6988 47.3507C36.6988 47.0901 36.6988 46.8257 36.6988 46.5651C36.6988 45.9887 36.1921 45.4381 35.5974 45.4638C34.999 45.4931 34.4961 45.9483 34.4961 46.5651Z" fill="white"/>
</svg>
