<svg width="138" height="138" viewBox="0 0 138 138" fill="none" xmlns="http://www.w3.org/2000/svg">
<path d="M69 138C107.108 138 138 107.108 138 69C138 30.8924 107.108 0 69 0C30.8924 0 0 30.8924 0 69C0 107.108 30.8924 138 69 138Z" fill="#EFF3FB"/>
<path d="M88.8517 61.2792C88.8514 57.8338 87.9542 54.4477 86.2485 51.4541C84.5428 48.4605 82.0873 45.9623 79.1234 44.2054C76.1595 42.4485 72.7894 41.4932 69.3445 41.4336C65.8995 41.374 62.4984 42.2121 59.4755 43.8655C56.4526 45.5188 53.9122 47.9305 52.1039 50.8633C50.2957 53.7961 49.2819 57.1491 49.1623 60.5925C49.0428 64.0359 49.8215 67.4511 51.422 70.5023C53.0225 73.5535 55.3896 76.1356 58.2905 77.9946C59.194 78.5548 59.9417 79.3337 60.4644 80.2593C60.9872 81.1849 61.2681 82.2274 61.2814 83.2903V87.7468C61.2814 88.6242 61.6299 89.4658 62.2504 90.0862C62.8708 90.7067 63.7123 91.0552 64.5898 91.0552H73.4123C74.2898 91.0552 75.1313 90.7067 75.7517 90.0862C76.3722 89.4658 76.7208 88.6242 76.7208 87.7468V83.3819C76.7346 82.2936 77.0215 81.2263 77.5553 80.2779C78.089 79.3294 78.8525 78.5303 79.7756 77.9538C82.562 76.155 84.8528 73.6861 86.4384 70.773C88.024 67.86 88.8538 64.5958 88.8517 61.2792Z" fill="#FBBC05"/>
<path d="M95.6814 49.6127L99.1486 47.0123L95.1785 41.7188L91.7112 44.3192C91.3622 44.5806 90.9435 44.7327 90.5081 44.7563C90.0727 44.7798 89.6401 44.6738 89.2649 44.4516C88.8897 44.2294 88.5888 43.9009 88.4002 43.5077C88.2116 43.1145 88.1438 42.6743 88.2054 42.2426L88.8174 37.9537L82.2667 37.0175L81.6547 41.3063C81.5931 41.7383 81.4049 42.1422 81.1137 42.4672C80.8225 42.7921 80.4416 43.0234 80.0189 43.1318C79.5963 43.2402 79.151 43.2208 78.7394 43.076C78.3278 42.9313 77.9684 42.6677 77.7066 42.3187L75.1072 38.8514L69.8137 42.8216L72.4131 46.2888C72.6745 46.6378 72.8266 47.0565 72.8502 47.4919C72.8737 47.9274 72.7677 48.36 72.5455 48.7352C72.3232 49.1104 71.9948 49.4113 71.6016 49.5998C71.2084 49.7884 70.7682 49.8562 70.3365 49.7947L66.0476 49.1826L65.1113 55.7333L69.4013 56.3454C69.8331 56.4071 70.237 56.5955 70.5618 56.8867C70.8866 57.1779 71.1177 57.559 71.226 57.9816C71.3342 58.4042 71.3147 58.8494 71.1699 59.2609C71.0252 59.6724 70.7616 60.0317 70.4126 60.2935L66.9464 62.8939L70.9165 68.1874L74.3827 65.5881C74.7317 65.3263 75.1505 65.1739 75.5861 65.1501C76.0217 65.1264 76.4546 65.2323 76.83 65.4546C77.2054 65.6769 77.5065 66.0055 77.6951 66.3989C77.8837 66.7923 77.9514 67.2328 77.8896 67.6647L77.2721 71.9524L83.8228 72.8887L84.4404 68.5988C84.5021 68.1669 84.6904 67.763 84.9817 67.4382C85.2729 67.1134 85.6539 66.8823 86.0765 66.7741C86.4991 66.6658 86.9443 66.6853 87.3559 66.8301C87.7674 66.9749 88.1267 67.2385 88.3884 67.5875L90.9889 71.0536L96.2824 67.0835L93.6809 63.6174C93.4191 63.2684 93.2666 62.8496 93.2429 62.4139C93.2191 61.9783 93.3251 61.5454 93.5474 61.17C93.7697 60.7946 94.0983 60.4936 94.4917 60.305C94.8851 60.1164 95.3256 60.0486 95.7575 60.1104L100.046 60.7236L100.983 54.1728L96.6937 53.5597C96.2621 53.4979 95.8584 53.3096 95.5337 53.0185C95.209 52.7275 94.9779 52.3467 94.8695 51.9243C94.7612 51.5019 94.7805 51.0568 94.925 50.6454C95.0695 50.234 95.3327 49.8746 95.6814 49.6127ZM83.0475 62.6722C81.5207 62.6722 80.0282 62.2195 78.7587 61.3712C77.4892 60.523 76.4997 59.3173 75.9154 57.9067C75.3311 56.4961 75.1783 54.944 75.4761 53.4465C75.774 51.949 76.5092 50.5735 77.5889 49.4939C78.6685 48.4143 80.044 47.679 81.5415 47.3812C83.0389 47.0833 84.5911 47.2362 86.0017 47.8205C87.4123 48.4047 88.618 49.3942 89.4662 50.6637C90.3145 51.9332 90.7672 53.4257 90.7672 54.9525C90.7672 56.9999 89.9539 58.9635 88.5062 60.4112C87.0584 61.8589 85.0949 62.6722 83.0475 62.6722Z" fill="#01C3FF"/>
<path d="M58.2896 77.9947C57.3249 77.3729 56.4157 76.6689 55.5723 75.8905C55.3131 76.8869 54.7796 77.7906 54.0325 78.499C53.2854 79.2075 52.3547 79.6922 51.3459 79.8982C50.3372 80.1042 49.2909 80.0232 48.3258 79.6644C47.3608 79.3055 46.5158 78.6833 45.8866 77.8683C45.2575 77.0534 44.8695 76.0783 44.7667 75.0539C44.6639 74.0294 44.8505 72.9967 45.3051 72.073C45.7598 71.1493 46.4644 70.3715 47.3389 69.8282C48.2134 69.2848 49.2228 68.9975 50.2523 68.999C50.4211 68.999 50.5832 69.0343 50.7442 69.0486C49.6988 66.5918 49.1601 63.9493 49.1605 61.2793H47.7567L46.9946 64.9042C46.9573 65.0821 46.8766 65.2479 46.7597 65.387C46.6428 65.5261 46.4934 65.6342 46.3247 65.7017C46.156 65.7691 45.9732 65.7938 45.7926 65.7736C45.6121 65.7534 45.4393 65.6889 45.2897 65.5858L42.2426 63.4849L38.9341 66.7934L41.0295 69.8404C41.1326 69.9901 41.1971 70.1628 41.2173 70.3434C41.2375 70.524 41.2128 70.7067 41.1454 70.8755C41.0779 71.0442 40.9698 71.1936 40.8307 71.3105C40.6916 71.4274 40.5258 71.5081 40.348 71.5454L36.7285 72.3074V76.7187L40.3524 77.4808C40.5302 77.5181 40.696 77.5988 40.8351 77.7157C40.9743 77.8325 41.0823 77.982 41.1498 78.1507C41.2172 78.3194 41.2419 78.5022 41.2217 78.6827C41.2015 78.8633 41.137 79.0361 41.0339 79.1857L38.9341 82.2328L42.2426 85.5412L45.2897 83.4459C45.4393 83.3425 45.6122 83.2778 45.7929 83.2575C45.9736 83.2371 46.1565 83.2618 46.3254 83.3292C46.4943 83.3967 46.6439 83.5049 46.7608 83.6441C46.8778 83.7834 46.9585 83.9494 46.9957 84.1274L47.7567 87.7469H52.1679L52.9289 84.1219C52.9661 83.9439 53.0468 83.7779 53.1638 83.6386C53.2807 83.4994 53.4303 83.3912 53.5992 83.3237C53.768 83.2563 53.951 83.2316 54.1317 83.252C54.3124 83.2723 54.4853 83.337 54.6349 83.4404L57.682 85.5412L61.1437 82.0795C60.9642 81.2428 60.6193 80.4504 60.1291 79.7489C59.639 79.0474 59.0136 78.451 58.2896 77.9947Z" fill="#21D885"/>
<path d="M101.139 53.0808L96.8489 52.4687C96.6329 52.4379 96.4309 52.3438 96.2684 52.1982C96.106 52.0527 95.9903 51.8622 95.9361 51.6508C95.8819 51.4395 95.8916 51.2169 95.964 51.0111C96.0364 50.8053 96.1682 50.6256 96.3427 50.4947L99.8099 47.8942C100.044 47.7187 100.199 47.4575 100.24 47.1679C100.281 46.8784 100.206 46.5843 100.03 46.3503L96.0604 41.0568C95.8849 40.8228 95.6236 40.6681 95.3341 40.6267C95.0445 40.5854 94.7504 40.6607 94.5164 40.8362L91.0503 43.4367C90.8759 43.569 90.666 43.6464 90.4475 43.6591C90.2289 43.6718 90.0115 43.6191 89.823 43.5078C89.6345 43.3965 89.4833 43.2316 89.3888 43.0341C89.2943 42.8367 89.2608 42.6155 89.2924 42.3989L89.9055 38.109C89.9261 37.9655 89.9182 37.8194 89.8823 37.679C89.8464 37.5386 89.7831 37.4066 89.6962 37.2907C89.6092 37.1748 89.5002 37.0771 89.3755 37.0033C89.2508 36.9295 89.1127 36.881 88.9693 36.8606L82.4229 35.9254C82.2796 35.9048 82.1335 35.9127 81.9932 35.9485C81.8529 35.9844 81.721 36.0475 81.605 36.1344C81.4891 36.2212 81.3914 36.33 81.3176 36.4546C81.2437 36.5793 81.1951 36.7172 81.1746 36.8606L80.5614 41.1505C80.5306 41.3665 80.4365 41.5685 80.2909 41.731C80.1453 41.8934 79.9548 42.0091 79.7435 42.0633C79.5322 42.1174 79.3096 42.1077 79.1038 42.0354C78.898 41.963 78.7183 41.8312 78.5874 41.6567L75.988 38.1895C75.8125 37.9555 75.5513 37.8008 75.2617 37.7594C74.9722 37.7181 74.6781 37.7934 74.4441 37.9689L71.1301 40.4557C69.6308 40.2964 68.1189 40.2964 66.6196 40.4557C61.8549 41.0004 57.4212 43.1629 54.0588 46.5824C50.6963 50.0018 48.6086 54.4712 48.1442 59.2444C48.1144 59.5565 48.1034 59.8664 48.0879 60.1763H47.7571C47.5032 60.1767 47.2573 60.2648 47.0608 60.4255C46.8643 60.5862 46.7293 60.8098 46.6785 61.0585L45.9165 64.6824L42.8639 62.5771C42.6515 62.4306 42.3946 62.3632 42.1377 62.3866C41.8808 62.4099 41.6402 62.5226 41.4578 62.705L38.1493 66.0135C37.9672 66.1958 37.8547 66.4362 37.8313 66.6928C37.808 66.9495 37.8752 67.2062 38.0214 67.4185L40.1168 70.4655L36.4918 71.2276C36.2458 71.2815 36.0256 71.418 35.8679 71.6144C35.7102 71.8109 35.6245 72.0554 35.625 72.3073V76.7185C35.6249 76.9716 35.7119 77.2171 35.8713 77.4137C36.0307 77.6103 36.2529 77.746 36.5006 77.7982L40.1256 78.5602L38.0302 81.6073C37.884 81.8195 37.8168 82.0763 37.8402 82.3329C37.8635 82.5896 37.976 82.8299 38.1582 83.0123L41.4666 86.3207C41.649 86.5031 41.8896 86.6158 42.1465 86.6392C42.4034 86.6626 42.6604 86.5951 42.8727 86.4486L45.9198 84.3478L46.6818 87.9727C46.7326 88.2215 46.8676 88.4451 47.0641 88.6058C47.2606 88.7665 47.5065 88.8545 47.7604 88.855H52.1716C52.4248 88.8551 52.6702 88.7681 52.8668 88.6087C53.0634 88.4493 53.1991 88.227 53.2513 87.9794L54.0133 84.3544L57.0604 86.4498C57.2726 86.596 57.5294 86.6632 57.786 86.6398C58.0427 86.6165 58.2831 86.504 58.4654 86.3218L60.1781 84.6036V87.7467C60.1805 88.5175 60.3856 89.2742 60.7727 89.9408C61.1598 90.6075 61.7154 91.1606 62.3837 91.5448V97.672C62.3837 98.8419 62.8485 99.964 63.6757 100.791C64.503 101.618 65.625 102.083 66.795 102.083H71.2062C72.3762 102.083 73.4982 101.618 74.3255 100.791C75.1527 99.964 75.6175 98.8419 75.6175 97.672V91.5448C76.2858 91.1606 76.8414 90.6075 77.2285 89.9408C77.6156 89.2742 77.8207 88.5175 77.8231 87.7467V83.3817C77.8378 82.4779 78.0791 81.5922 78.5247 80.8057C78.9703 80.0193 79.6061 79.3572 80.3739 78.88C81.2891 78.2863 82.1571 77.6226 82.9699 76.895L81.4988 75.2518C80.7716 75.9035 79.9947 76.4975 79.1752 77.0284C78.0975 77.7047 77.2071 78.6409 76.5854 79.751C75.9638 80.8611 75.631 82.1095 75.6175 83.3817V87.7467C75.6175 88.3316 75.3851 88.8926 74.9715 89.3063C74.5578 89.7199 73.9968 89.9523 73.4118 89.9523H64.5893C64.0044 89.9523 63.4433 89.7199 63.0297 89.3063C62.6161 88.8926 62.3837 88.3316 62.3837 87.7467V83.2902C62.3711 82.0422 62.044 80.8176 61.4325 79.7296C60.8211 78.6416 59.9451 77.7255 58.8856 77.0659C55.4571 74.9116 52.8208 71.7023 51.3735 67.9206C49.9261 64.139 49.7459 59.9897 50.8599 56.0968C51.9739 52.2039 54.3219 48.7781 57.5507 46.3346C60.7794 43.8911 64.7144 42.5622 68.7635 42.5478C68.747 42.5871 68.7327 42.6272 68.7205 42.668C68.6796 42.9575 68.7553 43.2515 68.9311 43.4852L71.5304 46.9513C71.6643 47.1246 71.7423 47.3345 71.7541 47.5531C71.7659 47.7717 71.711 47.9888 71.5966 48.1754C71.4864 48.3635 71.3226 48.5144 71.1261 48.6089C70.9297 48.7034 70.7095 48.7372 70.4938 48.7059L66.2038 48.0927C66.0604 48.0722 65.9143 48.0801 65.7739 48.116C65.6335 48.1519 65.5015 48.2152 65.3856 48.3021C65.2696 48.3891 65.172 48.498 65.0982 48.6228C65.0244 48.7475 64.9759 48.8855 64.9555 49.029L64.0192 55.5786C63.9986 55.7221 64.0065 55.8682 64.0424 56.0086C64.0784 56.149 64.1416 56.281 64.2286 56.3969C64.3155 56.5128 64.4245 56.6105 64.5492 56.6843C64.6739 56.7581 64.812 56.8066 64.9555 56.827L69.2454 57.4402C69.4614 57.471 69.6634 57.5651 69.8259 57.7107C69.9883 57.8563 70.104 58.0468 70.1582 58.2581C70.2123 58.4694 70.2026 58.692 70.1303 58.8978C70.0579 59.1036 69.9261 59.2833 69.7516 59.4142L66.2855 62.0136C66.1696 62.1005 66.072 62.2093 65.9982 62.3339C65.9244 62.4586 65.8759 62.5965 65.8554 62.7399C65.8349 62.8832 65.8429 63.0292 65.8788 63.1695C65.9148 63.3098 65.978 63.4417 66.0649 63.5575L70.035 68.851C70.2105 69.085 70.4718 69.2397 70.7613 69.2811C71.0509 69.3224 71.345 69.2471 71.579 69.0716L75.0462 66.4723C75.2207 66.3418 75.4299 66.2659 75.6475 66.2542C75.865 66.2425 76.0811 66.2955 76.2686 66.4065C76.4561 66.5175 76.6064 66.6816 76.7008 66.878C76.7951 67.0744 76.8291 67.2943 76.7986 67.51L76.1865 71.8C76.1659 71.9433 76.1738 72.0894 76.2097 72.2297C76.2455 72.37 76.3087 72.5019 76.3955 72.6179C76.4824 72.7338 76.5912 72.8315 76.7158 72.9053C76.8404 72.9792 76.9783 73.0278 77.1217 73.0483L83.6724 73.9846C83.724 73.9912 83.7759 73.9945 83.8279 73.9946C84.0935 73.9949 84.3503 73.8993 84.551 73.7255C84.7518 73.5517 84.8831 73.3112 84.9208 73.0483L85.5329 68.7584C85.5636 68.5424 85.6578 68.3404 85.8034 68.1779C85.9489 68.0155 86.1394 67.8998 86.3508 67.8456C86.5621 67.7915 86.7847 67.8012 86.9905 67.8735C87.1963 67.9459 87.376 68.0777 87.5069 68.2522L90.1074 71.7183C90.2829 71.9523 90.5441 72.107 90.8336 72.1484C91.1232 72.1898 91.4173 72.1144 91.6513 71.9389L96.9448 67.9688C97.1788 67.7933 97.3335 67.532 97.3749 67.2425C97.4162 66.9529 97.3409 66.6588 97.1654 66.4248L94.566 62.9587C94.4328 62.7852 94.3551 62.5754 94.3433 62.3569C94.3315 62.1384 94.3861 61.9214 94.4999 61.7346C94.6077 61.5443 94.7711 61.3915 94.9683 61.2969C95.1654 61.2023 95.3868 61.1703 95.6027 61.2052L99.8926 61.8173C100.036 61.8379 100.182 61.83 100.322 61.7941C100.463 61.7583 100.595 61.6951 100.711 61.6083C100.826 61.5214 100.924 61.4126 100.998 61.288C101.072 61.1634 101.12 61.0255 101.141 60.8821L102.076 54.3314C102.097 54.188 102.089 54.042 102.053 53.9016C102.017 53.7613 101.954 53.6294 101.867 53.5135C101.78 53.3975 101.672 53.2998 101.547 53.226C101.422 53.1521 101.284 53.1035 101.141 53.083L101.139 53.0808ZM50.0035 70.1016C51.0176 72.2884 52.4026 74.283 54.0971 75.9973C53.824 76.7565 53.3476 77.4261 52.7198 77.9331C52.0921 78.44 51.3372 78.7647 50.5374 78.8719C49.7377 78.979 48.9239 78.8645 48.1849 78.5406C47.4458 78.2168 46.81 77.6962 46.3466 77.0357C45.8832 76.3751 45.6102 75.6 45.5574 74.7948C45.5045 73.9897 45.6738 73.1855 46.0468 72.47C46.4198 71.7546 46.9822 71.1553 47.6725 70.7376C48.3629 70.32 49.1547 70.1 49.9616 70.1016H50.0035ZM71.2062 99.8776H66.795C66.21 99.8776 65.649 99.6453 65.2353 99.2316C64.8217 98.818 64.5893 98.257 64.5893 97.672V96.5692H73.4118V97.672C73.4118 98.257 73.1795 98.818 72.7658 99.2316C72.3522 99.6453 71.7912 99.8776 71.2062 99.8776ZM73.4118 92.1579V94.3636H64.5893V92.1579H73.4118ZM59.9167 81.7462L57.5512 84.1074L55.2606 82.5281C54.9614 82.322 54.616 82.1929 54.2549 82.1524C53.8938 82.1119 53.5284 82.1612 53.191 82.296C52.8535 82.4308 52.5546 82.6468 52.3208 82.9249C52.087 83.203 51.9255 83.5346 51.8507 83.8901L51.2728 86.6438H48.6515L48.0736 83.8945C47.9988 83.539 47.8373 83.2074 47.6035 82.9293C47.3696 82.6512 47.0707 82.4352 46.7333 82.3004C46.3959 82.1657 46.0304 82.1163 45.6694 82.1568C45.3083 82.1973 44.9628 82.3264 44.6637 82.5326L42.372 84.1074L40.3627 82.1025L41.9408 79.813C42.1472 79.5139 42.2765 79.1684 42.3172 78.8073C42.3579 78.4461 42.3087 78.0805 42.1741 77.743C42.0394 77.4054 41.8234 77.1064 41.5453 76.8724C41.2672 76.6385 40.9356 76.4769 40.5799 76.402L37.8306 75.823V73.2027L40.5799 72.6238C40.9346 72.5486 41.2653 72.3871 41.5427 72.1536C41.8201 71.9202 42.0356 71.622 42.1703 71.2854C42.305 70.9487 42.3546 70.5841 42.3147 70.2238C42.2749 69.8634 42.1469 69.5184 41.9419 69.2194L40.3627 66.9233L42.372 64.9184L44.6648 66.4976C44.964 66.7035 45.3095 66.8324 45.6705 66.8727C46.0314 66.913 46.3968 66.8635 46.7341 66.7286C47.0713 66.5938 47.3701 66.3777 47.6038 66.0996C47.8374 65.8215 47.9988 65.49 48.0736 65.1345L48.2666 64.217C48.4432 65.4876 48.736 66.7394 49.1411 67.9566C48.0072 68.0918 46.9275 68.5182 46.0072 69.1942C45.0869 69.8703 44.3571 70.773 43.889 71.8146C43.4209 72.8562 43.2303 74.0012 43.3358 75.1383C43.4413 76.2754 43.8393 77.3658 44.4911 78.3035C45.1428 79.2412 46.0262 79.9943 47.0552 80.4894C48.0842 80.9846 49.2238 81.2051 50.3633 81.1293C51.5027 81.0536 52.6032 80.6842 53.5576 80.0572C54.512 79.4302 55.2879 78.5669 55.8098 77.5511C56.4119 78.0436 57.0412 78.502 57.6945 78.9241C58.7365 79.5827 59.521 80.5789 59.9167 81.7462ZM99.1074 59.4749L95.9093 59.0183C95.2615 58.9258 94.6008 59.0275 94.0108 59.3105C93.4208 59.5934 92.928 60.045 92.5946 60.6081C92.2613 61.1711 92.1024 61.8204 92.138 62.4738C92.1737 63.1272 92.4023 63.7553 92.7949 64.2788L94.7326 66.8626L91.2036 69.5094L89.2648 66.9266C88.8723 66.4031 88.3333 66.0077 87.7161 65.7905C87.0988 65.5733 86.431 65.544 85.7972 65.7063C85.1633 65.8686 84.5917 66.2153 84.1549 66.7024C83.718 67.1895 83.4353 67.7952 83.3427 68.443L82.896 71.6456L78.53 71.0214L78.9866 67.8232C79.0793 67.1753 78.9779 66.5145 78.695 65.9243C78.4121 65.3341 77.9606 64.8411 77.3975 64.5076C76.8343 64.1741 76.1849 64.0151 75.5314 64.0507C74.8779 64.0864 74.2497 64.315 73.7262 64.7078L71.1423 66.6454L68.4955 63.1164L71.0783 61.1776C71.6018 60.7851 71.9972 60.2461 72.2144 59.6289C72.4316 59.0117 72.4609 58.3439 72.2986 57.71C72.1363 57.0761 71.7896 56.5046 71.3025 56.0677C70.8154 55.6308 70.2097 55.3482 69.5619 55.2555L66.3638 54.799L66.988 50.4329L70.1861 50.8895C70.834 50.9822 71.4948 50.8808 72.085 50.5979C72.6752 50.315 73.1682 49.8635 73.5017 49.3004C73.8352 48.7372 73.9942 48.0878 73.9586 47.4343C73.923 46.7808 73.6943 46.1526 73.3016 45.629L71.3573 43.0429L74.8863 40.3962L76.8251 42.9801C77.2176 43.5036 77.7566 43.899 78.3738 44.1162C78.991 44.3334 79.6588 44.3627 80.2927 44.2004C80.9266 44.0381 81.4981 43.6914 81.935 43.2043C82.3719 42.7172 82.6545 42.1115 82.7472 41.4637L83.2037 38.2656L87.5698 38.8886L87.1132 42.0868C87.0207 42.7346 87.1224 43.3952 87.4053 43.9852C87.6883 44.5752 88.1399 45.0681 88.703 45.4014C89.266 45.7348 89.9153 45.8937 90.5687 45.858C91.2221 45.8224 91.8502 45.5938 92.3736 45.2012L94.9575 43.2635L97.6043 46.7925L95.0204 48.7313C94.4969 49.1238 94.1015 49.6628 93.8843 50.28C93.6671 50.8972 93.6378 51.565 93.8001 52.1989C93.9624 52.8328 94.309 53.4043 94.7962 53.8412C95.2833 54.2781 95.889 54.5607 96.5368 54.6534L99.7349 55.1099L99.1074 59.4749Z" fill="#2C3E50"/>
<path d="M83.0471 46.131C81.3022 46.131 79.5965 46.6484 78.1456 47.6178C76.6948 48.5873 75.5639 49.9652 74.8962 51.5773C74.2284 53.1894 74.0537 54.9633 74.3941 56.6747C74.7346 58.3861 75.5748 59.9581 76.8087 61.192C78.0425 62.4258 79.6145 63.2661 81.3259 63.6065C83.0374 63.9469 84.8113 63.7722 86.4234 63.1044C88.0355 62.4367 89.4134 61.3059 90.3828 59.855C91.3522 58.4042 91.8697 56.6984 91.8697 54.9535C91.867 52.6144 90.9367 50.3719 89.2827 48.7179C87.6287 47.064 85.3862 46.1336 83.0471 46.131ZM83.0471 61.5704C81.7384 61.5704 80.4591 61.1823 79.371 60.4552C78.2828 59.7282 77.4347 58.6948 76.9339 57.4857C76.4331 56.2766 76.3021 54.9462 76.5574 53.6626C76.8127 52.3791 77.4429 51.2 78.3683 50.2747C79.2937 49.3493 80.4727 48.7191 81.7562 48.4638C83.0398 48.2084 84.3702 48.3395 85.5793 48.8403C86.7884 49.3411 87.8218 50.1892 88.5489 51.2774C89.276 52.3655 89.664 53.6448 89.664 54.9535C89.662 56.7078 88.9642 58.3896 87.7237 59.6301C86.4833 60.8706 84.8014 61.5683 83.0471 61.5704Z" fill="#2C3E50"/>
<path d="M67.8984 84.4385H70.1041V87.7469H67.8984V84.4385Z" fill="black"/>
<path d="M89.9551 76.7188H97.6748V78.9244H89.9551V76.7188Z" fill="black"/>
<path d="M88.1465 84.1837L89.5583 82.4892L96.1755 88.0024L94.7637 89.697L88.1465 84.1837Z" fill="black"/>
<path d="M83.3379 85.5413H85.5435V93.261H83.3379V85.5413Z" fill="black"/>
<path d="M65.7656 84.7812L68.0782 85.2015L67.4478 88.6712L65.1352 88.251L65.7656 84.7812Z" fill="#FFAA00"/>
<path d="M68.4994 82.888L66.1868 82.4677C66.7413 79.4095 65.3542 76.3258 62.6984 74.7126C57.4122 71.453 54.4111 65.4939 54.9397 59.3047C55.4683 53.1154 59.4356 47.7512 65.1979 45.4345L66.0693 47.6142C61.129 49.599 57.7266 54.1973 57.2733 59.5035C56.8195 64.8092 59.3919 69.9179 63.924 72.7121C67.4113 74.8269 69.2315 78.875 68.4994 82.888Z" fill="white"/>
</svg>
