<svg width="138" height="138" viewBox="0 0 138 138" fill="none" xmlns="http://www.w3.org/2000/svg">
<path d="M69 138C107.108 138 138 107.108 138 69C138 30.8923 107.108 0 69 0C30.8923 0 0 30.8923 0 69C0 107.108 30.8923 138 69 138Z" fill="#EFF3FB"/>
<path d="M46.35 50.1568H47H54.9743C57.9866 50.1568 60.4089 52.6625 60.4089 55.7102V59.9637H91.6562H92.3063V60.6137V72.795C92.3063 77.334 88.8529 81.203 84.406 81.5857L60.4089 84.1384V85.349C60.4089 85.9069 60.8478 86.3335 61.3538 86.3335H91.6562H92.3063V86.9835V90.2524V90.9024H91.6562H89.0209C89.0816 91.2181 89.1165 91.5465 89.1165 91.8869C89.1165 94.9347 86.6942 97.4404 83.6819 97.4404C80.6697 97.4404 78.2473 94.9347 78.2473 91.8869C78.2473 91.5465 78.2823 91.2181 78.3429 90.9024H73.0723C73.1329 91.2181 73.1679 91.5465 73.1679 91.8869C73.1679 94.9347 70.7455 97.4404 67.7333 97.4404C64.721 97.4404 62.2987 94.9347 62.2987 91.8869C62.2987 91.5465 62.3336 91.2181 62.3943 90.9024H61.3538C58.3431 90.9024 55.9216 88.3993 55.9192 85.3536L46.35 50.1568ZM46.35 50.1568V50.8068V54.0757V54.7257H47H54.9743C55.4803 54.7257 55.9192 55.1523 55.9192 55.7102V55.7147V55.7199V55.7257V55.7322V55.7393V55.747V55.7554V55.7644V55.7741V55.7844V55.7953V55.8068V55.819V55.8318V55.8452V55.8592V55.8739V55.8891V55.905V55.9214V55.9385V55.9562V55.9744V55.9933V56.0128V56.0328V56.0534V56.0747V56.0965V56.1188V56.1418V56.1653V56.1894V56.2141V56.2394V56.2652V56.2915V56.3184V56.3459V56.374V56.4026V56.4317V56.4614V56.4916V56.5224V56.5537V56.5855V56.6179V56.6508V56.6842V56.7182V56.7526V56.7876V56.8231V56.8592V56.8957V56.9328V56.9703V57.0084V57.0469V57.086V57.1255V57.1656V57.2061V57.2472V57.2887V57.3307V57.3732V57.4161V57.4595V57.5034V57.5478V57.5927V57.638V57.6837V57.73V57.7767V57.8238V57.8714V57.9194V57.9679V58.0168V58.0662V58.116V58.1663V58.217V58.2681V58.3196V58.3716V58.424V58.4768V58.53V58.5837V58.6377V58.6922V58.7471V58.8023V58.858V58.9141V58.9706V59.0274V59.0847V59.1424V59.2004V59.2588V59.3176V59.3768V59.4364V59.4963V59.5566V59.6173V59.6783V59.7397V59.8015V59.8636V59.9261V59.9889V60.0521V60.1156V60.1795V60.2437V60.3082V60.3731V60.4383V60.5039V60.5698V60.636V60.7025V60.7694V60.8365V60.904V60.9718V61.0399V61.1084V61.1771V61.2461V61.3154V61.3851V61.455V61.5252V61.5957V61.6665V61.7376V61.8089V61.8806V61.9525V62.0247V62.0971V62.1699V62.2429V62.3161V62.3896V62.4634V62.5375V62.6117V62.6863V62.7611V62.8361V62.9114V62.9869V63.0627V63.1386V63.2149V63.2913V63.368V63.4449V63.522V63.5994V63.6769V63.7547V63.8327V63.9109V63.9893V64.0679V64.1467V64.2257V64.3049V64.3843V64.4639V64.5437V64.6236V64.7038V64.7841V64.8646V64.9453V65.0261V65.1071V65.1883V65.2697V65.3512V65.4328V65.5147V65.5967V65.6788V65.7611V65.8435V65.9261V66.0088V66.0916V66.1746V66.2577V66.341V66.4244V66.5079V66.5915V66.6752V66.7591V66.8431V66.9272V67.0114V67.0957V67.1801V67.2646V67.3492V67.4339V67.5187V67.6036V67.6886V67.7737V67.8588V67.9441V68.0294V68.1148V68.2002V68.2857V68.3713V68.457V68.5427V68.6285V68.7144V68.8003V68.8862V68.9722V69.0583V69.1444V69.2305V69.3167V69.4029V69.4891V69.5754V69.6617V69.7481V69.8344V69.9208V70.0072V70.0936V70.18V70.2664V70.3529V70.4393V70.5258V70.6122V70.6987V70.7851V70.8715V70.958V71.0444V71.1308V71.2171V71.3035V71.3898V71.4761V71.5624V71.6487V71.7349V71.821V71.9072V71.9933V72.0793V72.1653V72.2513V72.3372V72.423V72.5088V72.5945V72.6802V72.7658V72.8513V72.9368V73.0222V73.1075V73.1927V73.2779V73.3629V73.4479V73.5328V73.6176V73.7023V73.7869V73.8714V73.9559V74.0402V74.1244V74.2085V74.2924V74.3763V74.46V74.5437V74.6272V74.7105V74.7938V74.8769V74.9599V75.0427V75.1254V75.208V75.2904V75.3727V75.4549V75.5368V75.6187V75.7003V75.7818V75.8632V75.9444V76.0254V76.1062V76.1869V76.2674V76.3477V76.4279V76.5078V76.5876V76.6672V76.7466V76.8258V76.9048V76.9836V77.0622V77.1406V77.2188V77.2967V77.3745V77.4521V77.5294V77.6065V77.6834V77.7601V77.8366V77.9128V77.9888V78.0645V78.14V78.2153V78.2903V78.3651V78.4397V78.514V78.588V78.6618V78.7353V78.8085V78.8815V78.9543V79.0267V79.0989V79.1708V79.2425V79.3138V79.3849V79.4557V79.5262V79.5964V79.6663V79.7359V79.8053V79.8743V79.943V80.0114V80.0795V80.1473V80.2148V80.282V80.3488V80.4154V80.4816V80.5475V80.613V80.6782V80.7431V80.8077V80.8719V80.9357V80.9992V81.0624V81.1252V81.1877V81.2498V81.3116V81.373V81.434V81.4947V81.555V81.6149V81.6745V81.7336V81.7924V81.8509V81.9089V81.9665V82.0238V82.0807V82.1371V82.1932V82.2489V82.3042V82.359V82.4135V82.4676V82.5212V82.5744V82.6272V82.6796V82.7316V82.7831V82.8342V82.8849V82.9351V82.9849V83.0343V83.0832V83.1317V83.1798V83.2274V83.2745V83.3212V83.3674V83.4132V83.4585V83.5033V83.5477V83.5916V83.635V83.6779V83.7204V83.7624V83.8039V83.8449V83.8855V83.9255V83.9651V84.0041V84.0427V84.0807V84.1183V84.1553V84.1919V84.2279V84.2634V84.2984V84.3329V84.3668V84.4002V84.4331V84.4655V84.4973V84.5286V84.5594V84.5896V84.6193V84.6484V84.677V84.705V84.7325V84.7594V84.7858V84.8116V84.8368V84.8615V84.8856V84.9091V84.932V84.9544V84.9762V84.9974V85.0181V85.0381V85.0576V85.0764V85.0947V85.1123V85.1294V85.1459V85.1617V85.177V85.1916V85.2056V85.219V85.2318V85.244V85.2555V85.2664V85.2767V85.2863V85.2954V85.3037V85.3115V85.3186V85.325V85.3308V85.336V85.3405V85.3443V85.3475V85.349L46.35 50.1568ZM68.6781 91.8869C68.6781 92.4449 68.2393 92.8714 67.7333 92.8714C67.2272 92.8714 66.7884 92.4449 66.7884 91.8869C66.7884 91.329 67.2272 90.9024 67.7333 90.9024C68.2393 90.9024 68.6781 91.329 68.6781 91.8869ZM84.6268 91.8869C84.6268 92.4449 84.1879 92.8714 83.6819 92.8714C83.1759 92.8714 82.7371 92.4449 82.7371 91.8869C82.7371 91.329 83.1759 90.9024 83.6819 90.9024C84.1879 90.9024 84.6268 91.329 84.6268 91.8869Z" fill="#FBBC05" stroke="black" stroke-width="1.3"/>
<path d="M85.2759 54.4257C89.0006 54.4257 92.0054 51.3337 92.0054 47.5378C92.0054 43.7418 89.0006 40.6499 85.2759 40.6499C81.5513 40.6499 78.5465 43.7418 78.5465 47.5378C78.5465 51.3337 81.5513 54.4257 85.2759 54.4257Z" fill="#21D885" stroke="black" stroke-width="0.7"/>
<path d="M69.3287 57.6946C73.0534 57.6946 76.0583 54.6026 76.0583 50.8067C76.0583 47.0108 73.0534 43.9188 69.3287 43.9188C65.6041 43.9188 62.5992 47.0108 62.5992 50.8067C62.5992 54.6026 65.6041 57.6946 69.3287 57.6946Z" stroke="black" stroke-width="0.7"/>
</svg>
