<svg width="138" height="138" viewBox="0 0 138 138" fill="none" xmlns="http://www.w3.org/2000/svg">
<path d="M69 138C107.108 138 138 107.108 138 69C138 30.8924 107.108 0 69 0C30.8924 0 0 30.8924 0 69C0 107.108 30.8924 138 69 138Z" fill="#EFF3FB"/>
<path d="M92.6857 42.1538V77.0324H40.0469V42.1538H92.6857Z" fill="#01C3FF"/>
<path d="M66.3664 48.8938L49.248 56.3831L57.8072 60.1277V68.1519C57.8072 68.1519 62.6292 70.2917 66.3664 70.2917C70.1035 70.2917 74.9255 68.1519 74.9255 68.1519V60.1277L83.4847 56.3831L66.3664 48.8938Z" fill="#21D885"/>
<path d="M51.387 66.0121V70.2917H47.1074V66.0121C47.1074 64.8299 48.065 63.8723 49.2472 63.8723C50.4294 63.8723 51.387 64.8299 51.387 66.0121Z" fill="#FFEE80"/>
<path d="M66.3648 88.8013C66.9557 88.8013 67.4347 88.3223 67.4347 87.7314C67.4347 87.1405 66.9557 86.6615 66.3648 86.6615C65.7739 86.6615 65.2949 87.1405 65.2949 87.7314C65.2949 88.3223 65.7739 88.8013 66.3648 88.8013Z" fill="#2C3E50"/>
<path d="M83.9123 55.4033L66.7939 47.9141C66.5206 47.7944 66.2097 47.7944 65.9363 47.9141C55.439 52.5066 48.8364 55.3953 48.8255 55.4C48.8149 55.4093 48.1769 55.6594 48.1769 56.3836V62.9869C46.9316 63.4286 46.0371 64.6178 46.0371 66.0126V70.2922C46.0371 70.8831 46.5162 71.3621 47.107 71.3621H51.3866C51.9774 71.3621 52.4565 70.8831 52.4565 70.2922V66.0126C52.4565 64.6179 51.5619 63.4286 50.3167 62.9869V58.0194L56.7361 60.8279V68.1524C56.7361 68.5754 56.9853 68.9588 57.372 69.1304C57.5773 69.2214 62.4463 71.3621 66.3651 71.3621C70.2839 71.3621 75.1529 69.2214 75.3582 69.1304C75.7449 68.9588 75.9942 68.5754 75.9942 68.1524V60.8279L83.9123 57.3638C84.3018 57.1935 84.5533 56.8087 84.5533 56.3836C84.5533 55.9584 84.3017 55.5738 83.9123 55.4033ZM50.3167 69.2223H48.1769V66.0126C48.1769 65.4227 48.6569 64.9427 49.2468 64.9427C49.8367 64.9427 50.3167 65.4227 50.3167 66.0126V69.2223ZM73.8544 67.4379C72.4653 67.9911 69.0694 69.2223 66.3651 69.2223C63.6669 69.2223 60.2662 67.9904 58.8758 67.4375V61.7641L65.9363 64.8531C66.2094 64.9726 66.5206 64.9727 66.7939 64.8531L73.8544 61.7641V67.4379ZM66.3651 62.705C64.3188 61.8097 53.9642 57.2796 51.9161 56.3836L66.3651 50.0621L80.8142 56.3836C78.9332 57.2064 67.4609 62.2256 66.3651 62.705Z" fill="#2C3E50"/>
<path d="M88.4058 62.8029H79.2047C78.6139 62.8029 78.1348 63.2818 78.1348 63.8728C78.1348 64.4637 78.6139 64.9426 79.2047 64.9426H88.4058C88.9966 64.9426 89.4757 64.4637 89.4757 63.8728C89.4757 63.2818 88.9966 62.8029 88.4058 62.8029Z" fill="white"/>
<path d="M88.4058 67.0824H79.2047C78.6139 67.0824 78.1348 67.5614 78.1348 68.1523C78.1348 68.7432 78.6139 69.2222 79.2047 69.2222H88.4058C88.9966 69.2222 89.4757 68.7432 89.4757 68.1523C89.4757 67.5614 88.9966 67.0824 88.4058 67.0824Z" fill="white"/>
<path d="M66.3648 43.2238C66.9557 43.2238 67.4347 42.7448 67.4347 42.1539C67.4347 41.563 66.9557 41.084 66.3648 41.084C65.7739 41.084 65.2949 41.563 65.2949 42.1539C65.2949 42.7448 65.7739 43.2238 66.3648 43.2238Z" fill="#2C3E50"/>
<path d="M92.6853 41.084H71.1804C70.5896 41.084 70.1105 41.563 70.1105 42.1539C70.1105 42.7448 70.5896 43.2238 71.1804 43.2238H91.6154V75.9626H41.1164V43.2238H61.5513C62.1421 43.2238 62.6212 42.7448 62.6212 42.1539C62.6212 41.563 62.1421 41.084 61.5513 41.084H40.0465C39.4557 41.084 38.9766 41.563 38.9766 42.1539V83.4518C38.9766 84.0427 39.4557 84.5217 40.0465 84.5217H60.7957L59.0597 93.7228H55.6669C55.0761 93.7228 54.597 94.2018 54.597 94.7927C54.597 95.3836 55.0761 95.8626 55.6669 95.8626H77.0648C77.6556 95.8626 78.1347 95.3836 78.1347 94.7927C78.1347 94.2018 77.6556 93.7228 77.0648 93.7228H73.6721L71.9361 84.5217H92.6853C93.2761 84.5217 93.7552 84.0427 93.7552 83.4518V42.1539C93.7552 41.563 93.2761 41.084 92.6853 41.084ZM61.2371 93.7228L62.9731 84.5217H69.7585L71.4945 93.7228H61.2371ZM91.6154 82.3819C90.4846 82.3819 41.236 82.3819 41.1164 82.3819V78.1024H91.6154V82.3819Z" fill="#2C3E50"/>
</svg>
