<svg width="64" height="52" viewBox="0 0 64 52" fill="none" xmlns="http://www.w3.org/2000/svg">
<path d="M42.2549 42.2074V47.1163L47.3753 50.1982H59.6763L62.6092 47.1163L61.6248 42.9972L58.2029 44.4408H52.0645L44.5829 42.9972L42.2549 42.2074Z" fill="#01C3FF"/>
<path d="M1.66113 42.2074V47.1163L6.78154 50.1982H19.0825L22.0154 47.1163L21.031 42.9972L17.6092 44.4408H11.4707L3.98919 42.9972L1.66113 42.2074Z" fill="#FBBC05"/>
<path d="M21.5986 12.8206V17.7294L26.719 20.8113H39.02L41.9529 17.7294L40.9685 13.6104L37.5467 15.0539H31.4082L23.9267 13.6104L21.5986 12.8206Z" fill="#21D885"/>
<path d="M59.8079 30.4589C57.399 29.6298 54.8626 29.2282 52.3142 29.2724C52.0804 29.2724 51.8492 29.2724 51.6179 29.2822C51.6684 28.7054 51.6967 28.1263 51.6967 27.5483C51.7051 24.285 50.9004 21.0705 49.3548 18.1925C47.8092 15.3146 45.5708 12.8631 42.8399 11.0574V4.70374C42.8416 4.67192 42.8416 4.64005 42.8399 4.60823C42.7366 1.84465 38.1569 0.30306 33.6142 0.000620986C33.3738 -0.0081672 33.1394 0.0766048 32.9608 0.236955C32.7821 0.397305 32.6733 0.620623 32.6573 0.859541C32.6413 1.09846 32.7194 1.33418 32.8751 1.51672C33.0307 1.69926 33.2517 1.81424 33.4912 1.8373C38.3218 2.15933 40.9948 3.7352 40.9948 4.70129C40.9948 5.14332 40.3797 5.89391 38.6232 6.55756C36.4249 7.30697 34.1119 7.6675 31.7887 7.62283C29.4656 7.66753 27.1525 7.30699 24.9543 6.55756C23.1879 5.89635 22.5728 5.14577 22.5728 4.70374C22.5728 3.74254 25.097 2.2181 29.8378 1.85566C30.0825 1.83699 30.3097 1.72233 30.4694 1.53691C30.6292 1.35148 30.7084 1.11048 30.6896 0.866921C30.6709 0.623362 30.5557 0.397197 30.3694 0.238179C30.1831 0.0791607 29.941 0.000314201 29.6963 0.018987C25.2815 0.356936 20.8298 1.90587 20.7277 4.60946C20.7261 4.64086 20.7261 4.67233 20.7277 4.70374V11.0574C17.9998 12.8661 15.7636 15.3183 14.2184 18.1955C12.6731 21.0727 11.8667 24.2857 11.8709 27.5483C11.8709 28.1263 11.8992 28.7067 11.9497 29.2822C11.7184 29.2822 11.4872 29.2724 11.2534 29.2724C8.705 29.2282 6.16857 29.6298 3.75967 30.4589C1.46185 31.3307 0.192383 32.6016 0.192383 34.0367V46.8677C0.192383 48.304 1.45816 49.575 3.75967 50.4456C6.16857 51.2746 8.705 51.6762 11.2534 51.6321C13.8019 51.6762 16.3383 51.2746 18.7472 50.4456C21.045 49.5738 22.3145 48.3028 22.3145 46.8677V44.9882C24.493 46.1683 26.8763 46.9274 29.3384 47.2253C29.3763 47.23 29.4145 47.2325 29.4528 47.2326C29.6879 47.2314 29.9138 47.1413 30.0846 46.9804C30.2554 46.8196 30.3584 46.6001 30.3727 46.3664C30.3869 46.1328 30.3113 45.9025 30.1613 45.7223C30.0113 45.5421 29.798 45.4254 29.5647 45.3959C26.9915 45.0847 24.5173 44.2189 22.3145 42.8589V34.0428C22.3145 32.6065 21.0487 31.3368 18.7472 30.465C17.158 29.8955 15.5003 29.5369 13.817 29.3985C13.752 28.7839 13.7183 28.1663 13.7161 27.5483C13.713 24.8018 14.3437 22.0913 15.5593 19.6257C16.775 17.1601 18.5432 15.0054 20.7277 13.3276V17.5348C20.7277 18.971 21.9934 20.2408 24.295 21.1126C26.7039 21.9417 29.2403 22.3433 31.7887 22.2991C34.3372 22.3433 36.8736 21.9417 39.2825 21.1126C41.5803 20.2408 42.8498 18.9698 42.8498 17.5348V13.3239C45.0373 15 46.8077 17.1551 48.0237 19.6221C49.2396 22.0891 49.8684 24.8017 49.8613 27.5496C49.861 28.1654 49.8294 28.7809 49.7666 29.3936C48.0833 29.5321 46.4256 29.8906 44.8364 30.4601C42.5386 31.3319 41.2691 32.6029 41.2691 34.0379V42.854C38.813 44.3626 36.0295 45.2633 33.1517 45.4804C32.9176 45.5037 32.7012 45.6149 32.5466 45.7914C32.392 45.9679 32.3107 46.1964 32.3194 46.4304C32.328 46.6644 32.4258 46.8863 32.593 47.051C32.7602 47.2158 32.9842 47.3109 33.2193 47.3171H33.2894C36.0816 47.1077 38.798 46.315 41.2617 44.9906V46.8702C41.2617 48.3065 42.5275 49.5774 44.829 50.448C47.2379 51.2771 49.7743 51.6787 52.3228 51.6345C54.8712 51.6787 57.4076 51.2771 59.8165 50.448C62.1144 49.5762 63.3838 48.3052 63.3838 46.8702V34.0367C63.3715 32.6016 62.1058 31.3307 59.8079 30.4589ZM20.4447 46.8665C20.4447 47.3085 19.8297 48.0591 18.0731 48.7228C15.8749 49.4722 13.5618 49.8327 11.2387 49.788C8.91553 49.8327 6.60247 49.4722 4.40424 48.7228C2.6575 48.0616 2.03015 47.3085 2.03015 46.8677V43.6376C2.57039 43.9755 3.14419 44.2569 3.74245 44.4776C6.15135 45.3067 8.68778 45.7083 11.2362 45.6641C13.7847 45.7083 16.3211 45.3067 18.73 44.4776C19.3283 44.257 19.9021 43.9755 20.4423 43.6376V46.8665H20.4447ZM18.0768 32.1804C19.826 32.8441 20.4472 33.5947 20.4484 34.0355C20.4484 34.4775 19.826 35.2269 18.0768 35.8905C15.8786 36.6399 13.5655 37.0005 11.2424 36.9558C10.3169 36.9565 9.39202 36.9058 8.47218 36.804C8.2275 36.7767 7.98196 36.8473 7.78956 37.0002C7.59717 37.1531 7.47368 37.3759 7.44628 37.6194C7.41888 37.863 7.48979 38.1074 7.64343 38.2989C7.79707 38.4904 8.02084 38.6134 8.26553 38.6406C9.25438 38.7504 10.2486 38.8052 11.2436 38.8047C13.792 38.8489 16.3285 38.4473 18.7374 37.6182C19.3356 37.3976 19.9094 37.1161 20.4497 36.7782V40.9034C20.4497 41.3454 19.8346 42.096 18.078 42.7597C15.8798 43.5091 13.5667 43.8696 11.2436 43.825C8.92046 43.8696 6.6074 43.5091 4.40916 42.7597C2.6575 42.0924 2.03015 41.3418 2.03015 40.8997V36.7758C2.73862 37.2116 3.49841 37.5587 4.2923 37.8092C4.52508 37.887 4.77936 37.8696 4.9992 37.7607C5.21905 37.6519 5.38645 37.4605 5.46459 37.2288C5.54273 36.9971 5.52519 36.744 5.41584 36.5252C5.3065 36.3064 5.1143 36.1397 4.88152 36.0619C2.91582 35.4105 2.03015 34.5755 2.03015 34.0367C2.03015 33.5959 2.6452 32.8441 4.40178 32.1804C6.60001 31.431 8.91308 31.0705 11.2362 31.1152C13.5614 31.0698 15.8766 31.4303 18.0768 32.1804ZM40.9849 17.5348C40.9849 17.9756 40.3637 18.7274 38.6133 19.391C36.4151 20.1405 34.102 20.501 31.7789 20.4563C29.4557 20.501 27.1427 20.1404 24.9444 19.391C23.1879 18.7274 22.5728 17.9756 22.5728 17.5348V14.3047C23.1131 14.6425 23.6869 14.924 24.2851 15.1446C26.694 15.9737 29.2304 16.3753 31.7789 16.3311C34.3273 16.3753 36.8638 15.9737 39.2726 15.1446C39.8709 14.924 40.4447 14.6425 40.9849 14.3047V17.5335V17.5348ZM40.9849 11.5668C40.9849 12.0088 40.3699 12.7594 38.6133 13.4231C36.4151 14.1725 34.102 14.533 31.7789 14.4883C29.4557 14.533 27.1427 14.1725 24.9444 13.4231C23.1879 12.7594 22.5728 12.0076 22.5728 11.5668V7.44161C23.1131 7.77946 23.6869 8.06094 24.2851 8.28159C26.694 9.11065 29.2304 9.51225 31.7789 9.46808C34.3273 9.51225 36.8638 9.11065 39.2726 8.28159C39.8709 8.06093 40.4447 7.77945 40.9849 7.44161V11.5668ZM61.5202 46.8677C61.5202 47.3098 60.9052 48.0603 59.1486 48.724C56.9504 49.4734 54.6373 49.8339 52.3142 49.7893C49.991 49.8339 47.678 49.4734 45.4797 48.724C43.7293 48.0603 43.1081 47.3085 43.1081 46.8677V43.6376C43.6483 43.9755 44.2221 44.257 44.8204 44.4776C47.2293 45.3067 49.7657 45.7083 52.3142 45.6641C54.8626 45.7083 57.399 45.3067 59.8079 44.4776C60.4062 44.257 60.98 43.9755 61.5202 43.6376V46.8677ZM61.5202 40.8997C61.5202 41.3418 60.9052 42.0924 59.1486 42.756C56.9504 43.5054 54.6373 43.866 52.3142 43.8213C49.991 43.866 47.678 43.5054 45.4797 42.756C43.7293 42.0924 43.1081 41.3405 43.1081 40.8997V36.7758C43.6483 37.1137 44.2221 37.3952 44.8204 37.6158C47.2293 38.4448 49.7657 38.8464 52.3142 38.8023C54.8626 38.8464 57.399 38.4448 59.8079 37.6158C60.4062 37.3951 60.98 37.1136 61.5202 36.7758V40.8997ZM59.1486 35.893C56.9504 36.6424 54.6373 37.0029 52.3142 36.9582C49.991 37.0029 47.678 36.6424 45.4797 35.893C43.7293 35.2293 43.1081 34.4775 43.1081 34.0367C43.1081 33.5959 43.7231 32.8441 45.4797 32.1804C47.678 31.431 49.991 31.0705 52.3142 31.1152C54.6373 31.0705 56.9504 31.431 59.1486 32.1804C60.899 32.8441 61.5202 33.5959 61.5202 34.0367C61.5202 34.4775 60.899 35.2293 59.1486 35.8942V35.893Z" fill="white"/>
</svg>
