<svg width="40" height="40" viewBox="0 0 40 40" fill="none" xmlns="http://www.w3.org/2000/svg">
<path d="M12.7441 16.8359H15.7643V32.0703H12.7441V16.8359Z" fill="#01C3FF" stroke="white" stroke-width="0.5"/>
<path d="M18.5402 16.8859H21.4604V32.0203H18.5402V16.8859Z" fill="#C4C4C4" stroke="white" stroke-width="0.6"/>
<path d="M24.2363 16.8359H27.2564V32.0703H24.2363V16.8359Z" fill="#01C3FF" stroke="white" stroke-width="0.5"/>
<path d="M7.04805 16.8859H9.96809V32.0203H7.04805V16.8859Z" fill="#C4C4C4" stroke="white" stroke-width="0.6"/>
<path d="M30.0324 16.8859H32.9525V32.0203H30.0324V16.8859Z" fill="#C4C4C4" stroke="white" stroke-width="0.6"/>
<path d="M1.15 12.2828H38.85V14.2094H1.15V12.2828Z" fill="#FBBC05" stroke="white" stroke-width="0.3"/>
<path d="M38.144 10.2552L38.2982 9.59101L20.1529 0.6858L19.9987 0.610121L19.8445 0.6858L1.69931 9.59101L1.85352 10.2552H38.144Z" fill="#21D885" stroke="white" stroke-width="0.7"/>
<path d="M35.7285 16.8359H38.7486V32.0703H35.7285V16.8359Z" fill="#01C3FF" stroke="white" stroke-width="0.5"/>
<path d="M1 34.2469H0.7V34.5469V39V39.3H1H39H39.3V39V34.5469V34.2469H39H1Z" fill="#01C3FF" stroke="white" stroke-width="0.6"/>
<path d="M1.25 16.8359H4.27012V32.0703H1.25V16.8359Z" fill="#01C3FF" stroke="white" stroke-width="0.5"/>
</svg>
