<svg width="66" height="52" viewBox="0 0 66 52" fill="none" xmlns="http://www.w3.org/2000/svg">
<path d="M23.3532 14.5316L17.1825 16.7527L12.7254 21.5663L11.9824 27.1378L13.7963 32.3527L20.1638 36.9125H23.347L23.3532 14.5316Z" fill="#56DCE8"/>
<path d="M18.8014 16.9198C19.9929 16.434 21.2674 16.1843 22.5541 16.1843C22.7598 16.1729 22.9533 16.0832 23.0949 15.9335C23.2365 15.7838 23.3154 15.5856 23.3154 15.3796C23.3154 15.1736 23.2365 14.9753 23.0949 14.8257C22.9533 14.676 22.7598 14.5862 22.5541 14.5748C19.4986 14.6064 16.5789 15.8423 14.4294 18.0142C12.2799 20.186 11.0742 23.1182 11.0742 26.1739C11.0742 29.2296 12.2799 32.1619 14.4294 34.3337C16.5789 36.5055 19.4986 37.7415 22.5541 37.773C22.7598 37.7616 22.9533 37.6718 23.0949 37.5222C23.2365 37.3725 23.3154 37.1743 23.3154 36.9683C23.3154 36.7622 23.2365 36.564 23.0949 36.4143C22.9533 36.2647 22.7598 36.1749 22.5541 36.1635C20.238 36.1629 17.9942 35.3573 16.2067 33.8845C14.4192 32.4117 13.1994 30.3633 12.7559 28.09C12.3125 25.8168 12.6731 23.4601 13.7759 21.4235C14.8788 19.3869 16.6554 17.797 18.8014 16.926V16.9198Z" fill="white"/>
<path d="M0.655062 30.4509L3.5584 31.434C4.05438 33.1738 4.78099 34.8394 5.71887 36.3864L4.45725 39.2117C4.38962 39.3625 4.36997 39.5304 4.40098 39.6928C4.43198 39.8551 4.51214 40.004 4.63059 40.1192L9.16201 44.5454C9.28147 44.6618 9.43405 44.7384 9.59877 44.7645C9.7635 44.7907 9.93228 44.7652 10.0819 44.6915L12.8614 43.3185C14.4303 44.2254 16.1258 44.8931 17.8918 45.2994L18.969 48.1953C19.0264 48.3496 19.1296 48.4826 19.2649 48.5765C19.4001 48.6703 19.5608 48.7205 19.7254 48.7203H19.7391L22.5619 48.672C22.6713 48.6759 22.7803 48.6575 22.8823 48.618C22.9843 48.5784 23.0772 48.5185 23.1553 48.4418C23.2334 48.3652 23.2951 48.2734 23.3366 48.1722C23.3781 48.0709 23.3986 47.9623 23.3967 47.8529C23.3949 47.7435 23.3707 47.6356 23.3258 47.5358C23.2809 47.436 23.2162 47.3464 23.1355 47.2724C23.0549 47.1985 22.96 47.1417 22.8567 47.1056C22.7534 47.0695 22.6438 47.0548 22.5347 47.0625L20.2826 47.1008L19.2525 44.3275C19.2049 44.1994 19.1255 44.0854 19.0218 43.9964C18.918 43.9074 18.7933 43.8462 18.6594 43.8187C16.7713 43.4319 14.9649 42.7197 13.3208 41.7139C13.2046 41.6431 13.0724 41.6027 12.9365 41.5967C12.8005 41.5906 12.6653 41.619 12.5433 41.6792L9.88506 42.9941L6.15592 39.3578L7.36554 36.6575C7.42013 36.5357 7.44361 36.4023 7.43389 36.2691C7.42416 36.136 7.38153 36.0074 7.30982 35.8948C6.27111 34.2618 5.49293 32.4769 5.00325 30.6045C4.96939 30.4752 4.90391 30.3563 4.8127 30.2587C4.7215 30.161 4.60743 30.0875 4.48078 30.0448L1.70992 29.1064L1.62201 23.9064L4.39535 22.875C4.5235 22.8274 4.63744 22.748 4.72645 22.6443C4.81547 22.5406 4.87664 22.4159 4.9042 22.282C5.29088 20.3931 6.00308 18.5858 7.00897 16.9408C7.07992 16.8247 7.12031 16.6925 7.12637 16.5565C7.13243 16.4206 7.10397 16.2853 7.04363 16.1633L5.73001 13.5014L9.36878 9.77351L12.0691 10.9831C12.1909 11.0377 12.3243 11.0612 12.4574 11.0515C12.5905 11.0418 12.7192 10.9991 12.8317 10.9274C14.4649 9.8886 16.2497 9.11003 18.1221 8.61961C18.2513 8.58586 18.37 8.52056 18.4677 8.42958C18.5654 8.33861 18.6389 8.2248 18.6817 8.09837L19.6202 5.32751L22.5681 5.27799C22.6775 5.28191 22.7865 5.26352 22.8885 5.22395C22.9905 5.18438 23.0834 5.12445 23.1615 5.04781C23.2396 4.97117 23.3013 4.87943 23.3428 4.77817C23.3843 4.67692 23.4047 4.56828 23.4029 4.45887C23.401 4.34945 23.3769 4.24157 23.332 4.14178C23.2871 4.04199 23.2224 3.95238 23.1417 3.87843C23.0611 3.80448 22.9662 3.74772 22.8629 3.71162C22.7596 3.67553 22.65 3.66084 22.5409 3.66846L19.0247 3.72789C18.8585 3.73077 18.6973 3.78487 18.563 3.88282C18.4287 3.98076 18.3279 4.11777 18.2744 4.27513L17.2913 7.17846C15.5515 7.67432 13.8859 8.40094 12.339 9.33894L9.51611 8.07361C9.36543 8.00643 9.19779 7.98703 9.03576 8.01802C8.87372 8.04901 8.72508 8.1289 8.60982 8.24694L4.17744 12.7846C4.06078 12.9041 3.98407 13.0569 3.9579 13.2219C3.93174 13.3869 3.9574 13.5559 4.03135 13.7057L5.40439 16.4852C4.49768 18.0547 3.83002 19.7505 3.42344 21.5168L0.528776 22.5927C0.371599 22.6503 0.236247 22.7554 0.141511 22.8934C0.046774 23.0314 -0.00264681 23.1955 0.000109316 23.3628L0.107824 29.7019C0.110612 29.8683 0.164829 30.0297 0.263032 30.164C0.361235 30.2984 0.49861 30.399 0.6563 30.4522L0.655062 30.4509Z" fill="white"/>
<path d="M24.1748 25.3649V26.9745H56.3529C56.5531 28.015 57.134 28.9435 57.9821 29.5787C58.8302 30.2139 59.8846 30.5101 60.9394 30.4095C61.9942 30.309 62.9737 29.8188 63.6865 29.0348C64.3993 28.2508 64.7943 27.2293 64.7943 26.1697C64.7943 25.1101 64.3993 24.0886 63.6865 23.3046C62.9737 22.5206 61.9942 22.0304 60.9394 21.9299C59.8846 21.8293 58.8302 22.1256 57.9821 22.7607C57.134 23.3959 56.5531 24.3244 56.3529 25.3649H24.1748ZM58.6619 24.3039C59.0314 23.9342 59.5022 23.6824 60.0147 23.5804C60.5273 23.4783 61.0586 23.5305 61.5415 23.7304C62.0243 23.9304 62.4371 24.269 62.7275 24.7035C63.0179 25.138 63.1729 25.6489 63.1729 26.1716C63.1729 26.6942 63.0179 27.2051 62.7275 27.6396C62.4371 28.0741 62.0243 28.4128 61.5415 28.6127C61.0586 28.8126 60.5273 28.8648 60.0147 28.7628C59.5022 28.6607 59.0314 28.4089 58.6619 28.0392C58.1668 27.5438 57.8887 26.872 57.8887 26.1716C57.8887 25.4711 58.1668 24.7993 58.6619 24.3039Z" fill="white"/>
<path d="M49.5025 10.4645C48.514 10.4646 47.5563 10.8088 46.7939 11.438C46.0314 12.0671 45.5117 12.9421 45.3239 13.9126H38.5293C37.3843 13.9139 36.2867 14.3693 35.4771 15.1789C34.6675 15.9885 34.2121 17.0862 34.2108 18.2311C34.2102 18.9485 33.925 19.6363 33.4178 20.1437C32.9107 20.6511 32.223 20.9366 31.5056 20.9376H24.1748V22.5471H31.5056C32.6505 22.5458 33.7482 22.0904 34.5577 21.2808C35.3673 20.4712 35.8227 19.3735 35.824 18.2286C35.825 17.5114 36.1104 16.8239 36.6175 16.3168C37.1246 15.8097 37.8121 15.5243 38.5293 15.5234H45.3239C45.4768 16.3159 45.8519 17.0486 46.4055 17.6359C46.9591 18.2233 47.6682 18.6411 48.4503 18.8406C49.2324 19.0402 50.055 19.0131 50.8223 18.7628C51.5896 18.5124 52.2699 18.0489 52.7837 17.4265C53.2976 16.8041 53.6238 16.0484 53.7244 15.2476C53.825 14.4468 53.6957 13.6339 53.3517 12.9037C53.0077 12.1736 52.4632 11.5563 51.7817 11.124C51.1001 10.6917 50.3096 10.4621 49.5025 10.462V10.4645ZM51.3708 16.5869C51.0014 16.956 50.5308 17.2072 50.0186 17.3089C49.5064 17.4106 48.9756 17.3581 48.4931 17.1582C48.0107 16.9582 47.5985 16.6197 47.3084 16.1855C47.0183 15.7513 46.8635 15.2408 46.8635 14.7186C46.8635 14.1964 47.0183 13.6859 47.3084 13.2517C47.5985 12.8175 48.0107 12.479 48.4931 12.279C48.9756 12.0791 49.5064 12.0266 50.0186 12.1283C50.5308 12.23 51.0014 12.4813 51.3708 12.8503C51.6163 13.0956 51.8111 13.3868 51.9439 13.7074C52.0768 14.028 52.1452 14.3716 52.1452 14.7186C52.1452 15.0656 52.0768 15.4092 51.9439 15.7298C51.8111 16.0504 51.6163 16.3416 51.3708 16.5869Z" fill="white"/>
<path d="M49.5025 41.8787C50.3093 41.8784 51.0993 41.6487 51.7804 41.2164C52.4616 40.784 53.0057 40.1669 53.3494 39.4371C53.6932 38.7072 53.8222 37.8947 53.7217 37.0942C53.6211 36.2938 53.2949 35.5384 52.7813 34.9163C52.2677 34.2941 51.5877 33.8309 50.8208 33.5806C50.0539 33.3302 49.2316 33.3031 48.4498 33.5024C47.6681 33.7017 46.9591 34.1192 46.4057 34.7061C45.8522 35.2931 45.477 36.0253 45.3239 36.8174H38.5293C37.8121 36.8164 37.1246 36.5311 36.6175 36.024C36.1104 35.5169 35.825 34.8293 35.824 34.1122C35.8227 32.9672 35.3673 31.8696 34.5577 31.06C33.7482 30.2504 32.6505 29.795 31.5056 29.7937H24.1748V31.4032H31.5056C32.223 31.4042 32.9107 31.6897 33.4178 32.1971C33.925 32.7045 34.2102 33.3923 34.2108 34.1097C34.2121 35.2546 34.6675 36.3523 35.4771 37.1619C36.2867 37.9715 37.3843 38.4269 38.5293 38.4282H45.3239C45.5112 39.3992 46.0307 40.2747 46.7932 40.9043C47.5557 41.534 48.5136 41.8785 49.5025 41.8787ZM47.6342 35.7564C48.0662 35.3273 48.6335 35.0611 49.2397 35.0032C49.8458 34.9453 50.4532 35.0992 50.9587 35.4387C51.4641 35.7783 51.8362 36.2825 52.0118 36.8655C52.1873 37.4485 52.1554 38.0744 51.9214 38.6365C51.6875 39.1986 51.266 39.6623 50.7286 39.9487C50.1913 40.235 49.5713 40.3264 48.9742 40.2071C48.3771 40.0878 47.8398 39.7653 47.4538 39.2944C47.0677 38.8236 46.8567 38.2335 46.8567 37.6247C46.8573 37.2773 46.9264 36.9335 47.06 36.6129C47.1936 36.2923 47.3892 36.0013 47.6355 35.7564H47.6342Z" fill="white"/>
<path d="M39.1236 43.8472C38.4233 44.5438 37.9891 45.4638 37.8966 46.4472H36.9829C36.2446 46.4452 35.5245 46.2181 34.9186 45.7963C34.3127 45.3744 33.8499 44.7779 33.5918 44.0862L31.3075 37.9179C30.9339 36.9179 30.2645 36.0555 29.3883 35.4457C28.5121 34.8358 27.4709 34.5075 26.4034 34.5045H24.1748V36.114H26.4034C27.1415 36.1161 27.8614 36.3431 28.4672 36.7647C29.0731 37.1863 29.5361 37.7825 29.7945 38.4739L32.08 44.642C32.4535 45.6419 33.1228 46.5042 33.9987 47.114C34.8746 47.7238 35.9156 48.0522 36.9829 48.0555H38.0501C38.3131 48.9503 38.8627 49.734 39.6145 50.2861C40.3662 50.8381 41.2785 51.128 42.211 51.1111C43.1435 51.0942 44.0447 50.7716 44.7759 50.1927C45.5072 49.6138 46.0281 48.8108 46.2586 47.907C46.489 47.0033 46.4163 46.0488 46.0515 45.1904C45.6867 44.3321 45.0501 43.6173 44.2395 43.1559C43.429 42.6945 42.4893 42.5122 41.565 42.6369C40.6407 42.7615 39.7829 43.1863 39.1236 43.846V43.8472ZM44.7742 46.8558C44.774 47.4664 44.562 48.058 44.1745 48.5299C43.787 49.0017 43.2479 49.3247 42.649 49.4437C42.0501 49.5627 41.4285 49.4703 40.89 49.1824C40.3516 48.8945 39.9296 48.4289 39.6959 47.8647C39.4623 47.3006 39.4314 46.6729 39.6086 46.0886C39.7858 45.5043 40.1601 44.9995 40.6678 44.6601C41.1754 44.3208 41.785 44.168 42.3926 44.2277C43.0003 44.2874 43.5685 44.5559 44.0004 44.9875C44.4952 45.4819 44.7735 46.1525 44.7742 46.852V46.8558Z" fill="white"/>
<path d="M31.3077 14.425L33.592 8.26181C33.8501 7.57011 34.313 6.97355 34.9189 6.5517C35.5248 6.12985 36.2449 5.90278 36.9832 5.90076H37.8969C37.9994 6.95111 38.4896 7.92558 39.2717 8.63406C40.0539 9.34255 41.072 9.73421 42.1273 9.73265C43.1826 9.73109 44.1995 9.3364 44.9796 8.62561C45.7596 7.91481 46.2469 6.93889 46.3463 5.88824C46.4457 4.8376 46.1501 3.78761 45.5172 2.94312C44.8843 2.09864 43.9595 1.52024 42.9232 1.32077C41.8869 1.12131 40.8134 1.31508 39.9123 1.8643C39.0111 2.41351 38.3469 3.27876 38.0492 4.29124H36.9819C35.9146 4.29449 34.8737 4.6229 33.9978 5.23273C33.1218 5.84256 32.4525 6.70484 32.0791 7.70467L29.7935 13.8729C29.5351 14.5642 29.0721 15.1604 28.4663 15.582C27.8604 16.0036 27.1405 16.2306 26.4024 16.2327H24.1738V17.8422H26.4024C27.4706 17.8392 28.5124 17.5104 29.3889 16.8999C30.2653 16.2893 30.9347 15.426 31.3077 14.425ZM40.2641 3.61895C40.6962 3.18704 41.2646 2.91828 41.8726 2.85847C42.4806 2.79866 43.0906 2.9515 43.5985 3.29096C44.1065 3.63041 44.481 4.13547 44.6583 4.7201C44.8357 5.30473 44.8048 5.93275 44.571 6.49719C44.3372 7.06162 43.915 7.52754 43.3762 7.81557C42.8375 8.10361 42.2155 8.19593 41.6163 8.07682C41.0171 7.95771 40.4777 7.63453 40.09 7.16234C39.7024 6.69016 39.4904 6.09817 39.4903 5.48724C39.4902 5.14026 39.5585 4.79667 39.6913 4.4761C39.8241 4.15553 40.0187 3.86426 40.2641 3.61895Z" fill="white"/>
<path d="M42.094 9.90476C44.8291 9.90476 47.0464 7.68751 47.0464 4.95238C47.0464 2.21726 44.8291 0 42.094 0C39.3589 0 37.1416 2.21726 37.1416 4.95238C37.1416 7.68751 39.3589 9.90476 42.094 9.90476Z" fill="#21D885"/>
<path d="M60.6653 30.9524C63.4004 30.9524 65.6177 28.7351 65.6177 26C65.6177 23.2649 63.4004 21.0476 60.6653 21.0476C57.9301 21.0476 55.7129 23.2649 55.7129 26C55.7129 28.7351 57.9301 30.9524 60.6653 30.9524Z" fill="#FBBC05"/>
<path d="M42.094 52C44.8291 52 47.0464 49.7827 47.0464 47.0476C47.0464 44.3125 44.8291 42.0952 42.094 42.0952C39.3589 42.0952 37.1416 44.3125 37.1416 47.0476C37.1416 49.7827 39.3589 52 42.094 52Z" fill="#01C3FF"/>
</svg>
