<svg width="46" height="46" viewBox="0 0 46 46" fill="none" xmlns="http://www.w3.org/2000/svg">
<path d="M37.0863 4.30943V4.30935H18.757H18.257V3.80935V1.79605V1.78732L18.2571 1.78732C18.2584 1.71226 18.2446 1.63771 18.2164 1.56812C18.1883 1.49852 18.1464 1.43531 18.0933 1.38225M37.0863 4.30943L18.0933 1.38225M37.0863 4.30943L37.0955 4.30926M37.0863 4.30943L37.0955 4.30926M18.0933 1.38225C18.0402 1.3292 17.977 1.28738 17.9074 1.25931L18.0944 0.795596M18.0933 1.38225L18.0944 0.795596M18.0944 0.795596L17.9074 1.25931C17.8377 1.23123 17.7632 1.21747 17.6881 1.21884L17.679 1.21901V1.21893H9.0538H9.04464L9.04464 1.21884C8.96954 1.21747 8.89494 1.23124 8.82529 1.25935C8.75564 1.28746 8.69237 1.32932 8.63926 1.38242C8.58615 1.43553 8.5443 1.4988 8.51619 1.56845C8.48808 1.63811 8.4743 1.71271 8.47568 1.7878L8.47585 1.79696H8.47576V21.6997C8.48085 21.8531 8.54409 21.999 8.65278 22.1077C8.76146 22.2164 8.90736 22.2796 9.06084 22.2847H37.0793C37.2327 22.2796 37.3786 22.2164 37.4873 22.1077C37.596 21.999 37.6592 21.8531 37.6643 21.6997V4.88738V4.87822L37.6644 4.87822C37.6658 4.80312 37.652 4.72852 37.6239 4.65887C37.5958 4.58923 37.554 4.52596 37.5008 4.47284C37.4477 4.41973 37.3845 4.37788 37.3148 4.34977L37.5019 3.8861L37.3148 4.34977C37.2452 4.32167 37.1706 4.30789 37.0955 4.30926M18.0944 0.795596L37.0955 4.30926" stroke="white"/>
<path d="M39.3858 9.63124H18.1107V7.33149C18.1114 7.16144 18.0785 6.99292 18.0137 6.83566C17.949 6.67839 17.8538 6.5355 17.7336 6.4152C17.6134 6.29491 17.4706 6.1996 17.3133 6.13477C17.1561 6.06995 16.9876 6.03688 16.8176 6.03749H6.75106C6.58093 6.03676 6.41233 6.06974 6.25501 6.13451C6.09768 6.19928 5.95475 6.29457 5.83444 6.41488C5.71414 6.53518 5.61885 6.67812 5.55408 6.83544C5.4893 6.99276 5.45633 7.16136 5.45706 7.33149V28.5343C5.45597 28.7047 5.48867 28.8736 5.55328 29.0312C5.61789 29.1889 5.71312 29.3321 5.83346 29.4527C5.9538 29.5733 6.09686 29.6689 6.25437 29.7338C6.41187 29.7987 6.58069 29.8318 6.75106 29.8311H39.3858C39.5559 29.8318 39.7245 29.7988 39.8818 29.7341C40.0392 29.6693 40.1821 29.574 40.3024 29.4537C40.4227 29.3334 40.518 29.1904 40.5828 29.0331C40.6476 28.8758 40.6805 28.7072 40.6798 28.5371V10.9252C40.6805 10.7551 40.6476 10.5865 40.5828 10.4292C40.518 10.2719 40.4227 10.1289 40.3024 10.0086C40.1821 9.88832 40.0392 9.79303 39.8818 9.72826C39.7245 9.66348 39.5559 9.63051 39.3858 9.63124Z" fill="white" fill-opacity="0.92"/>
<path d="M8.04785 12.65H38.1632V27.3124H8.04785V12.65Z" fill="#56DCE8"/>
<path d="M35.5041 15.4531H34.0664V16.8908H35.5041V15.4531Z" fill="white"/>
<path d="M35.5041 19.1906H34.0664V20.6283H35.5041V19.1906Z" fill="white"/>
<path d="M35.5041 22.9281H34.0664V24.3658H35.5041V22.9281Z" fill="white"/>
<path d="M24.0031 16.4594H10.6348V18.8314H24.0031V16.4594Z" fill="white"/>
<path d="M24.0031 21.3472H10.6348V23.7193H24.0031V21.3472Z" fill="white"/>
<path d="M41.2543 45.2817C41.7924 45.2819 42.3253 45.1761 42.8225 44.9703C43.3197 44.7645 43.7714 44.4627 44.1519 44.0822C44.5324 43.7017 44.8342 43.25 45.04 42.7528C45.2458 42.2556 45.3516 41.7227 45.3514 41.1846C45.3516 40.6465 45.2458 40.1136 45.04 39.6164C44.8342 39.1193 44.5324 38.6675 44.1519 38.287C43.7714 37.9065 43.3197 37.6047 42.8225 37.3989C42.3253 37.1931 41.7924 37.0873 41.2543 37.0875C40.7162 37.0873 40.1833 37.1931 39.6861 37.3989C39.189 37.6047 38.7372 37.9065 38.3567 38.287C37.9762 38.6675 37.6744 39.1193 37.4686 39.6164C37.2628 40.1136 37.157 40.6465 37.1572 41.1846C37.157 41.7227 37.2628 42.2556 37.4686 42.7528C37.6744 43.25 37.9762 43.7017 38.3567 44.0822C38.7372 44.4627 39.189 44.7645 39.6861 44.9703C40.1833 45.1761 40.7162 45.2819 41.2543 45.2817Z" fill="#21D885"/>
<path d="M23.0697 45.2817C23.6078 45.2819 24.1407 45.1761 24.6379 44.9703C25.1351 44.7645 25.5868 44.4627 25.9673 44.0822C26.3478 43.7017 26.6496 43.25 26.8554 42.7528C27.0612 42.2556 27.1671 41.7227 27.1668 41.1846C27.1671 40.6465 27.0612 40.1136 26.8554 39.6164C26.6496 39.1193 26.3478 38.6675 25.9673 38.287C25.5868 37.9065 25.1351 37.6047 24.6379 37.3989C24.1407 37.1931 23.6078 37.0873 23.0697 37.0875C22.5316 37.0873 21.9988 37.1931 21.5016 37.3989C21.0044 37.6047 20.5526 37.9065 20.1721 38.287C19.7916 38.6675 19.4898 39.1193 19.284 39.6164C19.0782 40.1136 18.9724 40.6465 18.9727 41.1846C18.9724 41.7227 19.0782 42.2556 19.284 42.7528C19.4898 43.25 19.7916 43.7017 20.1721 44.0822C20.5526 44.4627 21.0044 44.7645 21.5016 44.9703C21.9988 45.1761 22.5316 45.2819 23.0697 45.2817Z" fill="#FBBC05"/>
<path d="M4.88516 45.2817C5.42326 45.2819 5.95614 45.1761 6.45332 44.9703C6.95051 44.7645 7.40227 44.4627 7.78276 44.0822C8.16326 43.7017 8.46504 43.25 8.67085 42.7528C8.87666 42.2556 8.98247 41.7227 8.98223 41.1846C8.98247 40.6465 8.87666 40.1136 8.67085 39.6164C8.46504 39.1193 8.16326 38.6675 7.78276 38.287C7.40227 37.9065 6.95051 37.6047 6.45332 37.3989C5.95614 37.1931 5.42326 37.0873 4.88516 37.0875C4.34706 37.0873 3.81418 37.1931 3.31699 37.3989C2.8198 37.6047 2.36805 37.9065 1.98755 38.287C1.60706 38.6675 1.30528 39.1193 1.09947 39.6164C0.893655 40.1136 0.787846 40.6465 0.788086 41.1846C0.799749 42.2676 1.23515 43.3029 2.00098 44.0688C2.76682 44.8346 3.80216 45.27 4.88516 45.2817Z" fill="#01C3FF"/>
<path d="M41.2534 36.3686C40.5525 36.3653 39.8597 36.5185 39.2255 36.8169C38.5912 37.1153 38.0316 37.5515 37.5873 38.0937L25.5853 30.5474H39.3856C39.9196 30.5474 40.4316 30.3353 40.8092 29.9578C41.1868 29.5802 41.3989 29.0681 41.3989 28.5341V10.9251C41.3989 10.6607 41.3468 10.3989 41.2456 10.1546C41.1445 9.91033 40.9962 9.68839 40.8092 9.50143C40.6223 9.31448 40.4003 9.16618 40.1561 9.065C39.9118 8.96383 39.65 8.91175 39.3856 8.91175H38.8804V4.88514C38.8829 4.64843 38.8381 4.41362 38.7486 4.19445C38.6591 3.97528 38.5269 3.77617 38.3595 3.60878C38.1921 3.4414 37.993 3.3091 37.7738 3.21964C37.5546 3.13018 37.3198 3.08536 37.0831 3.08781H19.4795V1.79747C19.482 1.56045 19.437 1.32533 19.3474 1.10591C19.2577 0.886501 19.125 0.687224 18.9573 0.519786C18.7895 0.352349 18.5899 0.220128 18.3703 0.13089C18.1507 0.0416526 17.9155 -0.0028023 17.6785 0.000136775H9.05426C8.81755 -0.00231129 8.58273 0.0425063 8.36356 0.131964C8.1444 0.221421 7.94528 0.353719 7.7779 0.521107C7.61051 0.688495 7.47821 0.887605 7.38875 1.10677C7.2993 1.32594 7.25448 1.56076 7.25693 1.79747V5.31892H6.7536C6.21964 5.31892 5.70755 5.53103 5.32998 5.9086C4.95241 6.28617 4.7403 6.79826 4.7403 7.33222V28.5341C4.7403 29.0681 4.95241 29.5802 5.32998 29.9578C5.70755 30.3353 6.21964 30.5474 6.7536 30.5474H20.5539L8.55093 38.0223C8.09607 37.4925 7.53428 37.0649 6.90245 36.7676C6.27062 36.4703 5.58305 36.31 4.88489 36.2973C3.9256 36.2904 2.98582 36.5682 2.1844 37.0954C1.38298 37.6227 0.755922 38.3758 0.382516 39.2594C0.00910934 40.1431 -0.0938682 41.1176 0.086606 42.0598C0.26708 43.002 0.7229 43.8695 1.39642 44.5526C2.06994 45.2358 2.93091 45.7038 3.87045 45.8976C4.80998 46.0914 5.78589 46.0022 6.67474 45.6413C7.56359 45.2805 8.32547 44.6641 8.86403 43.8703C9.40258 43.0764 9.69362 42.1406 9.70035 41.1813C9.71106 40.5095 9.5634 39.8445 9.26932 39.2403L22.3503 31.1185V36.4409C21.4407 36.5802 20.5902 36.9776 19.8998 37.5859C19.2094 38.1943 18.7081 38.988 18.4554 39.8728C18.2027 40.7576 18.2093 41.6963 18.4744 42.5775C18.7395 43.4587 19.2519 44.2453 19.9507 44.8439C20.6496 45.4425 21.5056 45.8279 22.4171 45.9544C23.3285 46.0808 24.2571 45.9431 25.0926 45.5574C25.9281 45.1718 26.6353 44.5544 27.1303 43.7787C27.6253 43.003 27.8872 42.1015 27.8851 41.1813C27.8952 40.0278 27.485 38.91 26.731 38.0369C25.9769 37.1638 24.9308 36.5951 23.788 36.4373V31.1221L36.7976 39.244C36.5041 39.8471 36.3564 40.5107 36.3666 41.1813C36.3666 41.8137 36.4911 42.4399 36.7331 43.0241C36.9751 43.6084 37.3298 44.1392 37.777 44.5864C38.2241 45.0335 38.755 45.3882 39.3392 45.6302C39.9235 45.8722 40.5496 45.9968 41.182 45.9968C41.8144 45.9968 42.4406 45.8722 43.0248 45.6302C43.609 45.3882 44.1399 45.0335 44.5871 44.5864C45.0342 44.1392 45.3889 43.6084 45.6309 43.0241C45.8729 42.4399 45.9975 41.8137 45.9975 41.1813C46.0112 40.5514 45.8984 39.925 45.6657 39.3394C45.433 38.7538 45.0852 38.2209 44.6428 37.7721C44.2005 37.3233 43.6726 36.9679 43.0904 36.7268C42.5082 36.4858 41.8835 36.364 41.2534 36.3686ZM4.88489 44.5628C4.21702 44.5626 3.5642 44.3644 3.00893 43.9933C2.45366 43.6222 2.02086 43.0948 1.76524 42.4778C1.50961 41.8608 1.44264 41.1819 1.57278 40.5268C1.70292 39.8718 2.02433 39.27 2.49639 38.7975C2.96845 38.3251 3.56997 38.0032 4.22493 37.8725C4.87989 37.7418 5.55888 37.8083 6.1761 38.0634C6.79332 38.3185 7.32105 38.7509 7.69261 39.3058C8.06416 39.8608 8.26286 40.5135 8.26358 41.1813C8.26454 41.6254 8.17783 42.0654 8.00841 42.4759C7.83899 42.8864 7.5902 43.2594 7.2763 43.5736C6.9624 43.8877 6.58958 44.1368 6.17921 44.3066C5.76883 44.4763 5.32899 44.5634 4.88489 44.5628ZM8.69461 1.79747C8.69167 1.74947 8.69895 1.7014 8.71599 1.65643C8.73302 1.61146 8.75941 1.57063 8.79342 1.53662C8.82742 1.50262 8.86825 1.47623 8.91322 1.4592C8.95819 1.44216 9.00626 1.43488 9.05426 1.43782H17.6794C17.7274 1.43488 17.7755 1.44216 17.8205 1.4592C17.8654 1.47623 17.9063 1.50262 17.9403 1.53662C17.9743 1.57063 18.0007 1.61146 18.0177 1.65643C18.0347 1.7014 18.042 1.74947 18.0391 1.79747V4.52824H37.0849C37.1329 4.5253 37.181 4.53259 37.226 4.54962C37.2709 4.56665 37.3118 4.59304 37.3458 4.62705C37.3798 4.66105 37.4062 4.70188 37.4232 4.74685C37.4402 4.79182 37.4475 4.83989 37.4446 4.88789V8.9145H18.7566V7.33131C18.7566 6.79735 18.5444 6.28525 18.1669 5.90769C17.7893 5.53012 17.2772 5.318 16.7432 5.318H8.69003V1.79747H8.69461ZM26.4474 41.1813C26.4474 41.8494 26.2493 42.5025 25.8781 43.0579C25.507 43.6134 24.9794 44.0463 24.3622 44.302C23.745 44.5577 23.0659 44.6245 22.4106 44.4942C21.7554 44.3639 21.1535 44.0422 20.6812 43.5698C20.2088 43.0974 19.8871 42.4955 19.7567 41.8403C19.6264 41.1851 19.6933 40.5059 19.9489 39.8887C20.2046 39.2715 20.6375 38.744 21.193 38.3728C21.7485 38.0017 22.4015 37.8036 23.0696 37.8036C23.5133 37.8031 23.9528 37.8901 24.3628 38.0597C24.7728 38.2293 25.1454 38.4781 25.4591 38.7918C25.7729 39.1056 26.0217 39.4781 26.1912 39.8882C26.3608 40.2982 26.4479 40.7376 26.4474 41.1813ZM6.7536 29.1098C6.67782 29.1109 6.60259 29.0968 6.53236 29.0683C6.46214 29.0398 6.39834 28.9975 6.34475 28.9439C6.29116 28.8903 6.24887 28.8265 6.22038 28.7563C6.19189 28.6861 6.17778 28.6108 6.17889 28.5351V7.33131C6.17778 7.25553 6.19189 7.1803 6.22038 7.11007C6.24887 7.03984 6.29116 6.97604 6.34475 6.92246C6.39834 6.86887 6.46214 6.82657 6.53236 6.79809C6.60259 6.7696 6.67782 6.75549 6.7536 6.7566H16.8201C16.8959 6.75549 16.9711 6.7696 17.0414 6.79809C17.1116 6.82657 17.1754 6.86887 17.229 6.92246C17.2826 6.97604 17.3249 7.03984 17.3533 7.11007C17.3818 7.1803 17.3959 7.25553 17.3948 7.33131V10.3513H39.3847C39.4605 10.3502 39.5357 10.3643 39.6059 10.3927C39.6761 10.4212 39.7399 10.4635 39.7935 10.5171C39.8471 10.5707 39.8894 10.6345 39.9179 10.7047C39.9464 10.775 39.9605 10.8502 39.9594 10.926V28.5341C39.9605 28.6099 39.9464 28.6851 39.9179 28.7554C39.8894 28.8256 39.8471 28.8894 39.7935 28.943C39.7399 28.9966 39.6761 29.0389 39.6059 29.0674C39.5357 29.0958 39.4605 29.11 39.3847 29.1088L6.7536 29.1098ZM41.2543 44.5628C40.5864 44.5628 39.9335 44.3648 39.3781 43.9938C38.8227 43.6228 38.3898 43.0955 38.134 42.4785C37.8782 41.8615 37.8111 41.1825 37.9412 40.5274C38.0712 39.8723 38.3925 39.2704 38.8646 38.7979C39.3366 38.3253 39.9381 38.0033 40.5931 37.8726C41.2481 37.7418 41.9271 37.8082 42.5444 38.0633C43.1617 38.3184 43.6894 38.7508 44.061 39.3058C44.4326 39.8607 44.6314 40.5134 44.6321 41.1813C44.633 41.6254 44.5463 42.0654 44.3769 42.4759C44.2075 42.8864 43.9587 43.2594 43.6448 43.5736C43.3309 43.8877 42.9581 44.1368 42.5477 44.3066C42.1373 44.4763 41.6975 44.5634 41.2534 44.5628H41.2543Z" fill="white"/>
</svg>
