<svg width="42" height="43" viewBox="0 0 42 43" fill="none" xmlns="http://www.w3.org/2000/svg">
<path d="M3.81878 40.3026L10.3496 33.7717L11.6241 35.0462L5.09331 41.5771L3.81878 40.3026Z" fill="#C4C4C4" stroke="white" stroke-width="0.6"/>
<path d="M0.424254 36.9056L6.95508 30.3747L8.2296 31.6492L1.69878 38.1802L0.424254 36.9056Z" fill="#C4C4C4" stroke="white" stroke-width="0.6"/>
<path d="M9.59124 21.8647L9.35511 21.8175L9.18482 21.9878L5.78727 25.3852L5.34579 25.8267L5.90422 26.1059L12.5651 29.4364L15.8955 36.0973L16.1748 36.6557L16.6162 36.2142L20.0137 32.8167L20.184 32.6464L20.1368 32.4102L19.0557 27.003L39.4959 9.1386C39.4965 9.13803 39.4972 9.13747 39.4979 9.13691C41.5021 7.42325 41.7893 4.37534 39.7078 2.29366L39.3896 2.61184L39.7078 2.29365C37.618 0.203874 34.5705 0.508373 32.8645 2.50354C32.864 2.5042 32.8634 2.50487 32.8628 2.50553L14.9984 22.9458L9.59124 21.8647Z" fill="#01C3FF" stroke="white" stroke-width="0.9"/>
<path d="M37.747 36.0341L25.8422 24.1293L32.5065 18.3043L39.9585 31.7182L39.9589 31.7187C40.4016 32.5122 40.2609 33.5202 39.6156 34.1657C39.6156 34.1657 39.6156 34.1657 39.6155 34.1657L37.747 36.0341Z" fill="#FBBC05" stroke="white" stroke-width="0.7"/>
<path d="M17.8723 16.1569L5.96762 4.25223L7.83599 2.38364C7.836 2.38363 7.83602 2.38362 7.83603 2.3836C8.48143 1.73837 9.48939 1.59762 10.2838 2.04116L10.2845 2.04153L23.6972 9.49274L17.8723 16.1569Z" fill="#FBBC05" stroke="white" stroke-width="0.7"/>
<path d="M39.3875 23.9889L37.4774 20.5504C38.2215 20.0068 39.2711 20.0711 39.9429 20.743L39.943 20.743C40.686 21.4861 40.686 22.6906 39.943 23.4334L39.943 23.4335L39.3875 23.9889Z" stroke="white"/>
<path d="M18.5676 2.05725L18.5675 2.05728L18.0118 2.61305L21.4505 4.52299C21.9941 3.77893 21.9299 2.72928 21.258 2.05728M18.5676 2.05725L21.258 2.05728M18.5676 2.05725C19.3104 1.31427 20.5149 1.31422 21.258 2.05728M18.5676 2.05725L21.6115 1.70372L21.258 2.05728" stroke="white"/>
</svg>
