<svg width="54" height="45" viewBox="0 0 54 45" fill="none" xmlns="http://www.w3.org/2000/svg">
<path d="M42.4928 19.6554C42.3056 19.6625 42.1284 19.7418 41.9985 19.8767C41.8685 20.0117 41.7959 20.1917 41.7959 20.379C41.7959 20.5664 41.8685 20.7464 41.9985 20.8814C42.1284 21.0163 42.3056 21.0956 42.4928 21.1027H48.2305C48.3278 21.1063 48.4249 21.0903 48.5159 21.0556C48.6069 21.0209 48.6899 20.9682 48.7601 20.9006C48.8302 20.8331 48.886 20.7521 48.9241 20.6624C48.9623 20.5728 48.9819 20.4764 48.9819 20.379C48.9819 20.2817 48.9623 20.1853 48.9241 20.0957C48.886 20.006 48.8302 19.925 48.7601 19.8575C48.6899 19.7899 48.6069 19.7372 48.5159 19.7025C48.4249 19.6678 48.3278 19.6518 48.2305 19.6554H42.4928Z" fill="#607880"/>
<path d="M10.753 19.6554H5.01525C4.82805 19.6625 4.65086 19.7418 4.52091 19.8767C4.39096 20.0117 4.31836 20.1917 4.31836 20.379C4.31836 20.5664 4.39096 20.7464 4.52091 20.8814C4.65086 21.0163 4.82805 21.0956 5.01525 21.1027H10.753C10.8503 21.1063 10.9474 21.0903 11.0383 21.0556C11.1293 21.0209 11.2124 20.9682 11.2825 20.9006C11.3527 20.8331 11.4085 20.7521 11.4466 20.6624C11.4847 20.5728 11.5044 20.4764 11.5044 20.379C11.5044 20.2817 11.4847 20.1853 11.4466 20.0957C11.4085 20.006 11.3527 19.925 11.2825 19.8575C11.2124 19.7899 11.1293 19.7372 11.0383 19.7025C10.9474 19.6678 10.8503 19.6518 10.753 19.6554Z" fill="#607880"/>
<path d="M41.7676 15.4248C41.7676 15.5199 41.7863 15.6141 41.8227 15.7019C41.8591 15.7898 41.9124 15.8696 41.9797 15.9369C42.0469 16.0041 42.1267 16.0574 42.2146 16.0938C42.3025 16.1302 42.3966 16.149 42.4917 16.149H46.4724C46.5875 16.149 46.701 16.1215 46.8034 16.0689C46.9058 16.0163 46.9942 15.94 47.0612 15.8464L49.6828 12.1836C49.7416 12.1065 49.7842 12.0184 49.8083 11.9245C49.8323 11.8306 49.8372 11.7328 49.8228 11.637C49.8084 11.5412 49.7748 11.4492 49.7242 11.3665C49.6735 11.2839 49.6068 11.2123 49.528 11.1559C49.4492 11.0995 49.3598 11.0595 49.2652 11.0383C49.1706 11.0171 49.0728 11.0151 48.9774 11.0324C48.882 11.0497 48.7911 11.086 48.71 11.1391C48.6289 11.1922 48.5593 11.261 48.5054 11.3415L46.1001 14.7027H42.4907C42.2999 14.703 42.1169 14.7786 41.9815 14.913C41.8461 15.0474 41.7692 15.2299 41.7676 15.4207V15.4248Z" fill="#607880"/>
<path d="M50.0176 31.2815L47.4288 26.1233C47.3685 26.0033 47.276 25.9025 47.1617 25.832C47.0475 25.7615 46.9158 25.7242 46.7816 25.7243H42.4408C42.3435 25.7206 42.2465 25.7366 42.1555 25.7713C42.0645 25.806 41.9814 25.8587 41.9113 25.9263C41.8411 25.9939 41.7853 26.0749 41.7472 26.1645C41.7091 26.2541 41.6895 26.3505 41.6895 26.4479C41.6895 26.5453 41.7091 26.6417 41.7472 26.7313C41.7853 26.8209 41.8411 26.9019 41.9113 26.9695C41.9814 27.037 42.0645 27.0898 42.1555 27.1245C42.2465 27.1592 42.3435 27.1752 42.4408 27.1715H46.3385L48.7263 31.9307C48.7666 32.0194 48.8244 32.0991 48.8963 32.1649C48.9681 32.2307 49.0525 32.2813 49.1444 32.3138C49.2363 32.3462 49.3338 32.3598 49.431 32.3536C49.5282 32.3475 49.6232 32.3218 49.7103 32.2781C49.7974 32.2344 49.8748 32.1736 49.9378 32.0992C50.0008 32.0249 50.0481 31.9387 50.077 31.8456C50.1059 31.7525 50.1157 31.6546 50.1059 31.5577C50.096 31.4608 50.0667 31.3668 50.0197 31.2815H50.0176Z" fill="#607880"/>
<path d="M38.2009 35.3431C38.1292 35.2778 38.0451 35.2276 37.9537 35.1954C37.8622 35.1633 37.7652 35.1498 37.6685 35.1558C37.5717 35.1618 37.4772 35.1872 37.3904 35.2304C37.3036 35.2737 37.2264 35.3339 37.1634 35.4075C37.1003 35.4812 37.0527 35.5667 37.0233 35.6591C36.9939 35.7515 36.9834 35.8488 36.9923 35.9454C37.0013 36.0419 37.0295 36.1357 37.0754 36.2211C37.1212 36.3065 37.1838 36.3818 37.2593 36.4426L43.037 41.3854C43.1085 41.4521 43.1927 41.5036 43.2846 41.5368C43.3764 41.5701 43.4741 41.5843 43.5717 41.5788C43.6692 41.5733 43.7647 41.5482 43.8522 41.5048C43.9398 41.4615 44.0177 41.4008 44.0812 41.3266C44.1447 41.2523 44.1925 41.166 44.2218 41.0728C44.2511 40.9795 44.2612 40.8813 44.2515 40.7841C44.2418 40.6869 44.2126 40.5926 44.1655 40.507C44.1184 40.4214 44.0545 40.3462 43.9776 40.2859L38.2009 35.3431Z" fill="#607880"/>
<path d="M37.9 10.953C38.0487 11.0744 38.2395 11.1317 38.4305 11.1125C38.6215 11.0933 38.797 10.999 38.9185 10.8504L43.7608 4.87575C43.8205 4.80167 43.8651 4.71654 43.8919 4.62524C43.9188 4.53393 43.9274 4.43824 43.9172 4.34361C43.9071 4.24899 43.8784 4.15729 43.8328 4.07375C43.7872 3.99021 43.7256 3.91646 43.6516 3.85672C43.5775 3.79699 43.4923 3.75243 43.401 3.72559C43.3097 3.69875 43.214 3.69015 43.1194 3.70029C43.0248 3.71044 42.9331 3.73912 42.8495 3.7847C42.766 3.83029 42.6923 3.89188 42.6325 3.96596L37.7882 9.93446C37.6668 10.0832 37.6094 10.274 37.6286 10.4649C37.6479 10.6559 37.7422 10.8315 37.8908 10.953H37.9Z" fill="#607880"/>
<path d="M6.18388 15.8474C6.25089 15.941 6.33926 16.0173 6.44165 16.0699C6.54404 16.1225 6.6575 16.15 6.77262 16.15H10.7533C10.8507 16.1536 10.9477 16.1376 11.0387 16.1029C11.1297 16.0682 11.2128 16.0155 11.2829 15.9479C11.353 15.8804 11.4088 15.7994 11.447 15.7098C11.4851 15.6201 11.5047 15.5237 11.5047 15.4264C11.5047 15.329 11.4851 15.2326 11.447 15.143C11.4088 15.0533 11.353 14.9723 11.2829 14.9048C11.2128 14.8372 11.1297 14.7845 11.0387 14.7498C10.9477 14.7151 10.8507 14.6991 10.7533 14.7027H7.1429L4.73765 11.3415C4.68366 11.261 4.61406 11.1922 4.53297 11.1391C4.45189 11.086 4.36097 11.0497 4.2656 11.0324C4.17023 11.0151 4.07236 11.0171 3.97778 11.0383C3.88321 11.0595 3.79385 11.0995 3.71501 11.1559C3.63617 11.2123 3.56945 11.2839 3.51881 11.3665C3.46817 11.4492 3.43463 11.5412 3.42019 11.637C3.40575 11.7328 3.4107 11.8306 3.43474 11.9245C3.45878 12.0184 3.50143 12.1065 3.56015 12.1836L6.18388 15.8474Z" fill="#607880"/>
<path d="M11.5307 26.4479C11.5307 26.2558 11.4544 26.0716 11.3186 25.9358C11.1828 25.8 10.9986 25.7238 10.8065 25.7238H6.46068C6.32641 25.7237 6.19478 25.761 6.08049 25.8315C5.9662 25.9019 5.87375 26.0028 5.81347 26.1227L3.22564 31.281C3.17862 31.3663 3.14931 31.4602 3.13946 31.5572C3.1296 31.6541 3.13941 31.752 3.16829 31.8451C3.19718 31.9381 3.24455 32.0244 3.30756 32.0987C3.37057 32.173 3.44793 32.2339 3.53501 32.2776C3.62209 32.3213 3.71709 32.347 3.81433 32.3531C3.91157 32.3592 4.00905 32.3457 4.10093 32.3133C4.19281 32.2808 4.27719 32.2302 4.34904 32.1644C4.42088 32.0985 4.4787 32.0189 4.51904 31.9302L6.90685 27.169H10.8045C10.9956 27.1692 11.179 27.0939 11.3147 26.9593C11.4503 26.8248 11.5273 26.642 11.5286 26.451L11.5307 26.4479Z" fill="#607880"/>
<path d="M15.0454 35.3431L9.26771 40.2859C9.1908 40.3462 9.12688 40.4214 9.07981 40.507C9.03273 40.5926 9.00348 40.6869 8.9938 40.7841C8.98412 40.8813 8.99422 40.9795 9.02348 41.0728C9.05275 41.166 9.10058 41.2523 9.1641 41.3266C9.22761 41.4008 9.3055 41.4615 9.39306 41.5048C9.48063 41.5482 9.57606 41.5733 9.67362 41.5788C9.77118 41.5843 9.86883 41.5701 9.96072 41.5368C10.0526 41.5036 10.1368 41.4521 10.2083 41.3854L15.987 36.4426C16.0625 36.3818 16.1251 36.3065 16.1709 36.2211C16.2168 36.1357 16.245 36.0419 16.254 35.9454C16.2629 35.8488 16.2524 35.7515 16.223 35.6591C16.1936 35.5667 16.146 35.4812 16.0829 35.4075C16.0199 35.3339 15.9427 35.2737 15.8559 35.2304C15.7691 35.1872 15.6746 35.1618 15.5778 35.1558C15.4811 35.1498 15.3841 35.1633 15.2926 35.1954C15.2012 35.2276 15.1171 35.2778 15.0454 35.3431Z" fill="#607880"/>
<path d="M14.3252 10.8473C14.4461 10.9969 14.6215 11.0923 14.8128 11.1126C15.0041 11.1329 15.1956 11.0764 15.3453 10.9555C15.4949 10.8345 15.5903 10.6592 15.6106 10.4679C15.6309 10.2766 15.5744 10.085 15.4535 9.93542L10.6091 3.96486C10.5494 3.89078 10.4756 3.82919 10.3921 3.78361C10.3086 3.73802 10.2169 3.70934 10.1222 3.6992C10.0276 3.68905 9.93192 3.69765 9.84062 3.72449C9.74931 3.75133 9.66419 3.79589 9.59011 3.85563C9.51602 3.91536 9.45443 3.98911 9.40885 4.07265C9.36327 4.15619 9.33458 4.24789 9.32444 4.34252C9.3143 4.43714 9.32289 4.53284 9.34973 4.62414C9.37657 4.71544 9.42113 4.80057 9.48087 4.87465L14.3252 10.8473Z" fill="#607880"/>
<path d="M36.419 5.94683H16.8221C16.8222 6.74427 16.6653 7.53392 16.3602 8.27068C16.0551 9.00744 15.6078 9.67688 15.0439 10.2407C14.48 10.8046 13.8106 11.2519 13.0738 11.557C12.3371 11.8621 11.5474 12.0191 10.75 12.0189V25.1816C10.75 27.5305 11.3235 29.8439 12.4206 31.9208C13.5178 33.9977 15.1055 35.7753 17.0457 37.0992L26.6205 43.6328L36.1954 37.0992C38.1355 35.7752 39.7232 33.9976 40.8203 31.9207C41.9175 29.8438 42.491 27.5305 42.4911 25.1816V12.0179C41.6937 12.0179 40.9042 11.8608 40.1675 11.5557C39.4309 11.2505 38.7616 10.8032 38.1978 10.2394C37.634 9.6755 37.1869 9.00611 36.8818 8.26942C36.5768 7.53272 36.4199 6.74315 36.42 5.9458L36.419 5.94683Z" fill="#56DCE8"/>
<path d="M19.3731 33.6833C17.989 32.7387 16.8566 31.4701 16.0746 29.988C15.2925 28.5059 14.8844 26.8551 14.8857 25.1793V15.2783C17.1993 14.2463 19.0499 12.3957 20.0819 10.0822H33.1595C34.1915 12.3957 36.0421 14.2463 38.3556 15.2783V25.1793C38.3562 26.8549 37.9474 28.5052 37.1647 29.9867C36.3821 31.4683 35.2494 32.7362 33.8652 33.6803L26.6217 38.622L19.3731 33.6833Z" fill="#01C3FF" fill-opacity="0.36"/>
<path d="M50.2973 22.4465C51.4393 22.4465 52.3651 21.5207 52.3651 20.3787C52.3651 19.2367 51.4393 18.3109 50.2973 18.3109C49.1553 18.3109 48.2295 19.2367 48.2295 20.3787C48.2295 21.5207 49.1553 22.4465 50.2973 22.4465Z" fill="#56DCE8"/>
<path d="M50.2973 31.3846C50.7063 31.3846 51.106 31.5059 51.4461 31.7331C51.7861 31.9603 52.0512 32.2833 52.2077 32.6611C52.3642 33.039 52.4051 33.4547 52.3254 33.8558C52.2456 34.257 52.0486 34.6254 51.7594 34.9146C51.4703 35.2038 51.1018 35.4007 50.7007 35.4805C50.2996 35.5603 49.8838 35.5193 49.506 35.3628C49.1281 35.2063 48.8052 34.9413 48.578 34.6012C48.3508 34.2612 48.2295 33.8614 48.2295 33.4524C48.2295 32.904 48.4473 32.3781 48.8351 31.9903C49.2229 31.6025 49.7489 31.3846 50.2973 31.3846V31.3846Z" fill="#F87306"/>
<path d="M45.0766 44.2467C46.2186 44.2467 47.1444 43.3209 47.1444 42.1789C47.1444 41.0369 46.2186 40.1111 45.0766 40.1111C43.9346 40.1111 43.0088 41.0369 43.0088 42.1789C43.0088 43.3209 43.9346 44.2467 45.0766 44.2467Z" fill="#21D885"/>
<path d="M50.2973 8.01453C50.7063 8.01453 51.106 8.1358 51.4461 8.36301C51.7861 8.59023 52.0512 8.91317 52.2077 9.29101C52.3642 9.66885 52.4051 10.0846 52.3254 10.4857C52.2456 10.8868 52.0486 11.2553 51.7594 11.5445C51.4703 11.8337 51.1018 12.0306 50.7007 12.1104C50.2996 12.1902 49.8838 12.1492 49.506 11.9927C49.1281 11.8362 48.8052 11.5712 48.578 11.2311C48.3508 10.8911 48.2295 10.4913 48.2295 10.0823C48.2295 9.53391 48.4473 9.00796 48.8351 8.62017C49.2229 8.23238 49.7489 8.01453 50.2973 8.01453V8.01453Z" fill="#FABC05"/>
<path d="M44.5024 4.88266C45.6444 4.88266 46.5702 3.95688 46.5702 2.81487C46.5702 1.67285 45.6444 0.74707 44.5024 0.74707C43.3604 0.74707 42.4346 1.67285 42.4346 2.81487C42.4346 3.95688 43.3604 4.88266 44.5024 4.88266Z" fill="#21D885"/>
<path d="M2.94475 18.3109C3.35372 18.3109 3.75351 18.4322 4.09355 18.6594C4.4336 18.8866 4.69864 19.2096 4.85514 19.5874C5.01165 19.9652 5.0526 20.381 4.97281 20.7821C4.89303 21.1832 4.69609 21.5517 4.4069 21.8409C4.11771 22.13 3.74927 22.327 3.34816 22.4068C2.94704 22.4866 2.53128 22.4456 2.15344 22.2891C1.7756 22.1326 1.45265 21.8676 1.22544 21.5275C0.998227 21.1875 0.876953 20.7877 0.876953 20.3787C0.876953 19.8303 1.09481 19.3043 1.4826 18.9166C1.87038 18.5288 2.39634 18.3109 2.94475 18.3109V18.3109Z" fill="#56DCE8"/>
<path d="M2.94475 31.3846C3.35372 31.3846 3.75351 31.5059 4.09355 31.7331C4.4336 31.9603 4.69864 32.2833 4.85514 32.6611C5.01165 33.039 5.0526 33.4547 4.97281 33.8558C4.89303 34.257 4.69609 34.6254 4.4069 34.9146C4.11771 35.2038 3.74927 35.4007 3.34816 35.4805C2.94704 35.5603 2.53128 35.5193 2.15344 35.3628C1.7756 35.2063 1.45265 34.9413 1.22544 34.6012C0.998227 34.2612 0.876953 33.8614 0.876953 33.4524C0.876953 32.904 1.09481 32.3781 1.4826 31.9903C1.87038 31.6025 2.39634 31.3846 2.94475 31.3846V31.3846Z" fill="#21D885"/>
<path d="M8.16643 40.1111C8.5754 40.1111 8.97519 40.2324 9.31523 40.4596C9.65528 40.6868 9.92032 41.0097 10.0768 41.3876C10.2333 41.7654 10.2743 42.1812 10.1945 42.5823C10.1147 42.9834 9.91777 43.3518 9.62858 43.641C9.33939 43.9302 8.97095 44.1272 8.56984 44.2069C8.16872 44.2867 7.75296 44.2458 7.37512 44.0893C6.99728 43.9328 6.67433 43.6677 6.44712 43.3277C6.21991 42.9876 6.09863 42.5879 6.09863 42.1789C6.09863 41.6305 6.31649 41.1045 6.70428 40.7167C7.09206 40.3289 7.61801 40.1111 8.16643 40.1111V40.1111Z" fill="#FABC05"/>
<path d="M2.94475 12.1501C4.08676 12.1501 5.01254 11.2243 5.01254 10.0823C5.01254 8.94031 4.08676 8.01453 2.94475 8.01453C1.80274 8.01453 0.876953 8.94031 0.876953 10.0823C0.876953 11.2243 1.80274 12.1501 2.94475 12.1501Z" fill="#F87306"/>
<path d="M8.73869 0.74707C9.14767 0.74707 9.54745 0.868344 9.8875 1.09556C10.2275 1.32277 10.4926 1.64571 10.6491 2.02355C10.8056 2.40139 10.8465 2.81716 10.7668 3.21827C10.687 3.61939 10.49 3.98783 10.2008 4.27702C9.91166 4.5662 9.54321 4.76314 9.1421 4.84293C8.74099 4.92272 8.32522 4.88177 7.94738 4.72526C7.56954 4.56875 7.2466 4.30372 7.01938 3.96367C6.79217 3.62362 6.6709 3.22384 6.6709 2.81487C6.6709 2.26645 6.88875 1.7405 7.27654 1.35271C7.66433 0.964927 8.19028 0.74707 8.73869 0.74707V0.74707Z" fill="#FABC05"/>
<path d="M43.215 21.1025H47.5989C47.7744 21.7566 48.1817 22.3246 48.7449 22.7007C49.3082 23.0769 49.9889 23.2354 50.6603 23.1469C51.3318 23.0584 51.9481 22.7288 52.3946 22.2196C52.8411 21.7103 53.0873 21.0562 53.0873 20.3789C53.0873 19.7016 52.8411 19.0475 52.3946 18.5382C51.9481 18.029 51.3318 17.6994 50.6603 17.6109C49.9889 17.5224 49.3082 17.681 48.7449 18.0571C48.1817 18.4332 47.7744 19.0012 47.5989 19.6553H43.215V16.1505H46.4706C46.5857 16.1505 46.6992 16.123 46.8016 16.0704C46.904 16.0178 46.9923 15.9415 47.0593 15.8479L49.3159 12.6939C49.9492 12.9307 50.6471 12.9291 51.2794 12.6897C51.9118 12.4502 52.4355 11.989 52.7531 11.3921C53.0707 10.7951 53.1606 10.1031 53.0059 9.44486C52.8512 8.78661 52.4626 8.20701 51.9124 7.81399C51.3622 7.42097 50.6878 7.24133 50.015 7.30851C49.3422 7.37569 48.7167 7.68511 48.255 8.17916C47.7934 8.67321 47.527 9.31821 47.5056 9.99405C47.4841 10.6699 47.709 11.3305 48.1384 11.8528L46.0972 14.7022H43.214V12.019C43.214 11.8269 43.1377 11.6428 43.0019 11.507C42.8661 11.3712 42.6819 11.2949 42.4899 11.2949C41.3707 11.2948 40.2802 10.9412 39.3738 10.2846L43.3658 5.36123C43.9866 5.63946 44.6873 5.68248 45.3374 5.48227C45.9875 5.28206 46.5427 4.85228 46.8994 4.27304C47.256 3.6938 47.3899 3.00462 47.2761 2.33397C47.1622 1.66332 46.8083 1.05696 46.2804 0.627906C45.7526 0.198855 45.0867 -0.0236069 44.4069 0.00198614C43.7272 0.0275792 43.0799 0.299481 42.5858 0.76701C42.0916 1.23454 41.7844 1.86579 41.7213 2.54311C41.6581 3.22042 41.8435 3.89758 42.2427 4.44836L38.3194 9.2886C37.5566 8.34126 37.1414 7.16114 37.1429 5.94485C37.1466 5.84753 37.1306 5.75047 37.0959 5.65948C37.0612 5.56848 37.0085 5.48543 36.9409 5.41528C36.8734 5.34513 36.7923 5.28933 36.7027 5.25122C36.6131 5.2131 36.5167 5.19346 36.4193 5.19346C36.3219 5.19346 36.2255 5.2131 36.1359 5.25122C36.0463 5.28933 35.9653 5.34513 35.8977 5.41528C35.8302 5.48543 35.7775 5.56848 35.7428 5.65948C35.708 5.75047 35.692 5.84753 35.6957 5.94485C35.6957 6.86057 35.8815 7.76676 36.2419 8.6086C36.6023 9.45043 37.1297 10.2104 37.7922 10.8425C37.8226 10.8822 37.857 10.9186 37.8948 10.9513C37.8978 10.9506 37.901 10.9506 37.904 10.9513C38.9707 11.9301 40.3231 12.5413 41.7627 12.6949V25.1827C41.7635 27.4138 41.2193 29.6113 40.1773 31.5841C39.1353 33.5569 37.6271 35.2452 35.7839 36.5023L26.6173 42.759L17.4507 36.5023C15.6073 35.2453 14.0989 33.557 13.0567 31.5842C12.0146 29.6114 11.4702 27.4139 11.4709 25.1827V12.7042C12.9046 12.5506 14.2518 11.9433 15.3162 10.9707C15.3244 10.9646 15.3337 10.9625 15.3419 10.9564C15.3796 10.9241 15.414 10.888 15.4444 10.8487C16.6019 9.74379 17.3311 8.26501 17.503 6.67411H32.0268C32.1241 6.67778 32.2212 6.66177 32.3122 6.62706C32.4032 6.59235 32.4862 6.53963 32.5564 6.47208C32.6265 6.40452 32.6823 6.32351 32.7204 6.23389C32.7585 6.14427 32.7782 6.04788 32.7782 5.95049C32.7782 5.8531 32.7585 5.75671 32.7204 5.66709C32.6823 5.57747 32.6265 5.49646 32.5564 5.4289C32.4862 5.36134 32.4032 5.30863 32.3122 5.27392C32.2212 5.2392 32.1241 5.2232 32.0268 5.22686H16.8219C16.6299 5.22686 16.4457 5.30315 16.3099 5.43896C16.1741 5.57476 16.0978 5.75895 16.0978 5.951C16.0982 7.16554 15.6831 8.34366 14.9213 9.28963L10.997 4.45349C11.3945 3.90416 11.5788 3.22906 11.5155 2.55395C11.4522 1.87884 11.1456 1.24977 10.6529 0.783936C10.1602 0.318099 9.5149 0.0472633 8.8373 0.0218852C8.15971 -0.00349292 7.49599 0.218318 6.9698 0.645994C6.44362 1.07367 6.09085 1.67805 5.97721 2.34653C5.86357 3.015 5.99682 3.702 6.35213 4.27952C6.70744 4.85705 7.26058 5.28572 7.90849 5.48567C8.55641 5.68562 9.25492 5.64321 9.8739 5.36636L13.8669 10.2897C12.9606 10.9462 11.87 11.2998 10.7509 11.3C10.5588 11.3 10.3746 11.3763 10.2388 11.5121C10.103 11.6479 10.0267 11.8321 10.0267 12.0241V14.7073H7.14248L5.10238 11.8528C5.53827 11.3256 5.76746 10.6578 5.7472 9.97404C5.72694 9.29026 5.45861 8.63721 4.99227 8.13672C4.52592 7.63624 3.89343 7.3225 3.21278 7.25406C2.53214 7.18561 1.84984 7.36712 1.29318 7.76474C0.736522 8.16235 0.343532 8.7489 0.18753 9.41495C0.0315269 10.081 0.123168 10.7811 0.445355 11.3845C0.767543 11.988 1.29827 12.4536 1.93851 12.6945C2.57876 12.9355 3.28479 12.9352 3.92488 12.6939L6.18141 15.8479C6.24777 15.9423 6.33573 16.0195 6.43796 16.073C6.54019 16.1265 6.65373 16.1549 6.76913 16.1556H10.0267V19.6604H5.63779C5.46226 19.0063 5.05494 18.4383 4.49172 18.0622C3.92849 17.6861 3.24776 17.5275 2.57632 17.616C1.90487 17.7046 1.2885 18.0341 0.842001 18.5434C0.395504 19.0526 0.149328 19.7068 0.149328 20.384C0.149328 21.0613 0.395504 21.7155 0.842001 22.2247C1.2885 22.7339 1.90487 23.0635 2.57632 23.152C3.24776 23.2405 3.92849 23.082 4.49172 22.7059C5.05494 22.3298 5.46226 21.7618 5.63779 21.1077H10.0267V25.1879C10.0267 25.3694 10.037 25.5489 10.0431 25.7304H6.46039C6.32613 25.7304 6.1945 25.7677 6.08021 25.8382C5.96592 25.9086 5.87347 26.0095 5.81318 26.1294L3.50743 30.7245C2.84047 30.5839 2.14514 30.6907 1.55108 31.0249C0.957021 31.3591 0.504785 31.8979 0.278697 32.541C0.0526082 33.184 0.0681004 33.8873 0.322285 34.5197C0.576469 35.1522 1.05199 35.6706 1.66019 35.9783C2.26839 36.2861 2.96775 36.3621 3.62787 36.1922C4.28798 36.0224 4.86379 35.6182 5.24793 35.0552C5.63207 34.4921 5.79832 33.8086 5.71568 33.132C5.63304 32.4554 5.30715 31.832 4.79877 31.3779L6.90657 27.1726H10.1611C10.5945 30.4599 12.0954 33.5139 14.4331 35.8653L9.74158 39.8778C9.18022 39.4907 8.49722 39.321 7.81995 39.4003C7.14268 39.4796 6.51738 39.8026 6.06065 40.3089C5.60392 40.8153 5.34694 41.4704 5.33763 42.1523C5.32833 42.8341 5.56732 43.496 6.01006 44.0147C6.4528 44.5333 7.06905 44.8732 7.7439 44.971C8.41875 45.0687 9.10612 44.9177 9.67785 44.5461C10.2496 44.1745 10.6666 43.6076 10.8512 42.9511C11.0358 42.2947 10.9754 41.5935 10.6811 40.9784L15.5142 36.8428C15.8752 37.1423 16.2465 37.4305 16.6424 37.6972L26.2173 44.2309C26.3377 44.3147 26.4809 44.3596 26.6276 44.3596C26.7743 44.3596 26.9174 44.3147 27.0378 44.2309L36.6127 37.6972C37.0035 37.4305 37.3748 37.1423 37.7409 36.8428L42.574 40.9784C42.2829 41.5896 42.224 42.2858 42.4081 42.9373C42.5923 43.5888 43.0069 44.1511 43.5748 44.5196C44.1428 44.888 44.8253 45.0375 45.4952 44.9401C46.1652 44.8427 46.7769 44.5052 47.2165 43.9903C47.656 43.4754 47.8934 42.8183 47.8845 42.1413C47.8756 41.4644 47.6209 40.8138 47.1679 40.3107C46.7149 39.8076 46.0944 39.4863 45.4221 39.4067C44.7498 39.327 44.0715 39.4945 43.5135 39.8778L38.821 35.8633C41.1587 33.5118 42.6595 30.4578 43.093 27.1705H46.3475L48.4563 31.3707C47.9574 31.8198 47.6385 32.4347 47.559 33.1013C47.4795 33.7678 47.6447 34.4405 48.0241 34.9943C48.4034 35.5481 48.971 35.9453 49.6213 36.1119C50.2715 36.2786 50.9601 36.2034 51.5591 35.9004C52.1581 35.5973 52.6266 35.087 52.8775 34.4644C53.1284 33.8418 53.1446 33.1493 52.9231 32.5156C52.7017 31.8819 52.2576 31.3503 51.6735 31.0195C51.0894 30.6887 50.405 30.5813 49.7477 30.7174L47.4419 26.1223C47.3816 26.0023 47.2892 25.9015 47.1749 25.831C47.0606 25.7605 46.929 25.7232 46.7947 25.7233H43.1986C43.2048 25.5427 43.215 25.3622 43.215 25.1807V21.1025ZM50.2923 19.0347C50.5581 19.0347 50.8179 19.1135 51.0388 19.2612C51.2598 19.4088 51.432 19.6187 51.5337 19.8642C51.6354 20.1097 51.662 20.3799 51.6102 20.6405C51.5583 20.9012 51.4303 21.1406 51.2424 21.3285C51.0545 21.5164 50.8151 21.6444 50.5545 21.6962C50.2938 21.7481 50.0236 21.7215 49.7781 21.6198C49.5326 21.5181 49.3228 21.3458 49.1751 21.1249C49.0275 20.9039 48.9487 20.6441 48.9487 20.3784C48.9487 20.2016 48.9836 20.0265 49.0513 19.8632C49.1191 19.7 49.2185 19.5516 49.3437 19.4268C49.4689 19.302 49.6175 19.2031 49.781 19.1358C49.9445 19.0685 50.1196 19.0342 50.2964 19.0347H50.2923ZM50.2923 8.73678C50.5581 8.73678 50.8179 8.81559 51.0388 8.96323C51.2598 9.11087 51.432 9.32072 51.5337 9.56624C51.6354 9.81176 51.662 10.0819 51.6102 10.3426C51.5583 10.6032 51.4303 10.8426 51.2424 11.0305C51.0545 11.2185 50.8151 11.3464 50.5545 11.3983C50.2938 11.4501 50.0236 11.4235 49.7781 11.3218C49.5326 11.2201 49.3228 11.0479 49.1751 10.8269C49.0275 10.606 48.9487 10.3462 48.9487 10.0804C48.9487 9.72408 49.0902 9.38231 49.3422 9.13033C49.5942 8.87834 49.936 8.73678 50.2923 8.73678ZM44.4982 1.47078C44.7639 1.47078 45.0237 1.54958 45.2447 1.69722C45.4656 1.84487 45.6379 2.05472 45.7396 2.30024C45.8413 2.54576 45.8679 2.81592 45.816 3.07657C45.7642 3.33721 45.6362 3.57663 45.4483 3.76454C45.2604 3.95246 45.021 4.08043 44.7603 4.13227C44.4997 4.18412 44.2295 4.15751 43.984 4.05581C43.7385 3.95411 43.5286 3.78189 43.381 3.56093C43.2333 3.33997 43.1545 3.08018 43.1545 2.81443C43.1547 2.63772 43.1897 2.46277 43.2575 2.29961C43.3253 2.13644 43.4247 1.98825 43.5499 1.86354C43.6751 1.73882 43.8236 1.64002 43.9871 1.57281C44.1505 1.50559 44.3256 1.47126 44.5023 1.4718L44.4982 1.47078ZM7.39172 2.81546C7.39172 2.54971 7.47053 2.28993 7.61817 2.06896C7.76581 1.848 7.97566 1.67578 8.22118 1.57408C8.46671 1.47238 8.73687 1.44578 8.99751 1.49762C9.25816 1.54947 9.49757 1.67744 9.68549 1.86535C9.8734 2.05327 10.0014 2.29268 10.0532 2.55333C10.1051 2.81397 10.0785 3.08413 9.97676 3.32966C9.87506 3.57518 9.70284 3.78503 9.48188 3.93267C9.26091 4.08031 9.00113 4.15912 8.73538 4.15912C8.37902 4.15912 8.03726 4.01755 7.78527 3.76557C7.53329 3.51358 7.39172 3.17182 7.39172 2.81546ZM1.60067 10.0825C1.60067 9.81674 1.67947 9.55696 1.82711 9.33599C1.97476 9.11503 2.18461 8.94281 2.43013 8.84111C2.67565 8.73942 2.94581 8.71281 3.20646 8.76465C3.4671 8.8165 3.70652 8.94447 3.89443 9.13238C4.08234 9.32029 4.21032 9.55971 4.26216 9.82035C4.31401 10.081 4.2874 10.3512 4.1857 10.5967C4.084 10.8422 3.91178 11.0521 3.69082 11.1997C3.46985 11.3473 3.21007 11.4261 2.94432 11.4261C2.58796 11.4261 2.2462 11.2846 1.99421 11.0326C1.74223 10.7806 1.60067 10.4388 1.60067 10.0825ZM2.94432 21.7231C2.67857 21.7231 2.41879 21.6443 2.19783 21.4966C1.97686 21.349 1.80464 21.1391 1.70295 20.8936C1.60125 20.6481 1.57464 20.3779 1.62648 20.1173C1.67833 19.8566 1.8063 19.6172 1.99421 19.4293C2.18213 19.2414 2.42154 19.1134 2.68219 19.0616C2.94283 19.0097 3.213 19.0363 3.45852 19.138C3.70404 19.2397 3.91389 19.412 4.06153 19.6329C4.20917 19.8539 4.28798 20.1137 4.28798 20.3794C4.28798 20.7358 4.14642 21.0775 3.89443 21.3295C3.64245 21.5815 3.30068 21.7231 2.94432 21.7231ZM2.94432 34.7976C2.67857 34.7976 2.41879 34.7188 2.19783 34.5711C1.97686 34.4235 1.80464 34.2136 1.70295 33.9681C1.60125 33.7226 1.57464 33.4524 1.62648 33.1918C1.67833 32.9311 1.8063 32.6917 1.99421 32.5038C2.18213 32.3159 2.42154 32.1879 2.68219 32.1361C2.94283 32.0842 3.213 32.1108 3.45852 32.2125C3.70404 32.3142 3.91389 32.4865 4.06153 32.7074C4.20917 32.9284 4.28798 33.1882 4.28798 33.4539C4.28798 33.8101 4.14656 34.1517 3.89479 34.4037C3.64303 34.6556 3.3005 34.7973 2.94432 34.7976ZM8.1651 43.5231C7.89934 43.5231 7.63956 43.4443 7.4186 43.2967C7.19764 43.149 7.02542 42.9392 6.92372 42.6937C6.82202 42.4481 6.79541 42.178 6.84726 41.9173C6.8991 41.6567 7.02707 41.4173 7.21499 41.2294C7.4029 41.0415 7.64232 40.9135 7.90296 40.8616C8.1636 40.8098 8.43377 40.8364 8.67929 40.9381C8.92481 41.0398 9.13466 41.212 9.28231 41.433C9.42995 41.6539 9.50875 41.9137 9.50875 42.1795C9.50875 42.5358 9.36719 42.8776 9.1152 43.1296C8.86322 43.3816 8.52145 43.5231 8.1651 43.5231ZM51.6411 33.4529C51.6411 33.7186 51.5623 33.9784 51.4147 34.1994C51.267 34.4203 51.0572 34.5926 50.8116 34.6943C50.5661 34.796 50.296 34.8226 50.0353 34.7707C49.7747 34.7189 49.5353 34.5909 49.3473 34.403C49.1594 34.2151 49.0315 33.9757 48.9796 33.715C48.9278 33.4544 48.9544 33.1842 49.0561 32.9387C49.1578 32.6932 49.33 32.4833 49.551 32.3357C49.7719 32.188 50.0317 32.1092 50.2975 32.1092C50.6538 32.1092 50.9956 32.2508 51.2476 32.5028C51.4995 32.7548 51.6411 33.0965 51.6411 33.4529ZM46.4203 42.1784C46.4203 42.4442 46.3415 42.704 46.1939 42.9249C46.0462 43.1459 45.8364 43.3181 45.5909 43.4198C45.3454 43.5215 45.0752 43.5481 44.8145 43.4963C44.5539 43.4444 44.3145 43.3165 44.1266 43.1286C43.9387 42.9406 43.8107 42.7012 43.7588 42.4406C43.707 42.1799 43.7336 41.9098 43.8353 41.6643C43.937 41.4187 44.1092 41.2089 44.3302 41.0612C44.5511 40.9136 44.8109 40.8348 45.0767 40.8348C45.2531 40.8348 45.4279 40.8695 45.5909 40.9371C45.7539 41.0046 45.902 41.1036 46.0268 41.2283C46.1516 41.3531 46.2505 41.5012 46.3181 41.6643C46.3856 41.8273 46.4203 42.002 46.4203 42.1784Z" fill="white"/>
<path d="M22.8165 35.1551C22.7382 35.0966 22.6488 35.0546 22.5538 35.0316C22.4588 35.0086 22.3602 35.005 22.2638 35.0212C22.1674 35.0373 22.0752 35.0728 21.9929 35.1255C21.9106 35.1782 21.8398 35.247 21.7848 35.3278C21.7298 35.4086 21.6917 35.4997 21.6728 35.5956C21.6539 35.6915 21.6547 35.7902 21.675 35.8858C21.6953 35.9814 21.7347 36.0719 21.7909 36.1519C21.8472 36.2318 21.919 36.2996 22.0021 36.351L23.1816 37.1562C23.3402 37.265 23.5355 37.3064 23.7246 37.2712C23.9137 37.236 24.0811 37.1271 24.1899 36.9685C24.2987 36.8099 24.3401 36.6146 24.3049 36.4255C24.2697 36.2364 24.1608 36.0691 24.0022 35.9602L22.8165 35.1551Z" fill="white"/>
<path d="M19.4189 9.78887C18.463 11.9412 16.7422 13.662 14.5899 14.6178C14.462 14.6748 14.3533 14.7675 14.277 14.885C14.2008 15.0024 14.1602 15.1394 14.1602 15.2794V25.1825C14.1593 26.9763 14.5968 28.7433 15.4346 30.3294C16.2725 31.9156 17.4853 33.273 18.9676 34.2834C19.1266 34.3836 19.3184 34.4181 19.5024 34.3796C19.6864 34.3412 19.8483 34.2327 19.9539 34.0772C20.0595 33.9217 20.1006 33.7313 20.0685 33.5461C20.0365 33.3609 19.9337 33.1953 19.782 33.0844C18.4957 32.2073 17.4432 31.0294 16.7156 29.653C15.9881 28.2766 15.6077 26.7434 15.6074 25.1866V15.7379C17.745 14.6757 19.4767 12.9439 20.5389 10.8064H32.6995C33.7617 12.9439 35.4935 14.6757 37.6311 15.7379V25.1825C37.6306 26.7395 37.2498 28.2728 36.5219 29.6492C35.7941 31.0256 34.7411 32.2034 33.4545 33.0803L26.2131 38.0231C26.1345 38.077 26.0674 38.1458 26.0155 38.2256C25.9635 38.3055 25.9278 38.3947 25.9104 38.4884C25.893 38.582 25.8942 38.6781 25.9139 38.7713C25.9336 38.8645 25.9715 38.9528 26.0254 39.0314C26.0792 39.1099 26.1481 39.177 26.2279 39.229C26.3077 39.2809 26.397 39.3166 26.4906 39.334C26.5842 39.3515 26.6804 39.3503 26.7736 39.3305C26.8667 39.3108 26.9551 39.2729 27.0336 39.2191L34.276 34.2783C35.7577 33.268 36.97 31.9111 37.8077 30.3255C38.6453 28.7399 39.083 26.9737 39.0824 25.1804V15.2763C39.0824 15.1363 39.0418 14.9993 38.9655 14.8819C38.8893 14.7645 38.7806 14.6717 38.6527 14.6148C36.5009 13.6589 34.7805 11.9385 33.8247 9.78682C33.7678 9.65889 33.675 9.55021 33.5576 9.47394C33.4402 9.39766 33.3032 9.35706 33.1632 9.35706H20.0815C19.9411 9.35704 19.8037 9.39785 19.686 9.47452C19.5684 9.55119 19.4756 9.6604 19.4189 9.78887Z" fill="white"/>
</svg>
