<svg width="40" height="49" viewBox="0 0 40 49" fill="none" xmlns="http://www.w3.org/2000/svg">
<path d="M7.14286 11.0787H0.35V8.92153H7.14286C9.3128 8.92153 11.0786 10.6873 11.0786 12.8572V17.143V17.493H11.4286H39.65V27.7896C39.65 31.2934 36.9129 34.2681 33.4211 34.5585L33.4211 34.5585L33.414 34.5592L11.3924 36.8449L11.0786 36.8775V37.1931V38.762C11.0786 39.7435 11.8757 40.5406 12.8571 40.5406H39.65V42.6977H36.8797H36.3834L36.55 43.1653C36.6998 43.5854 36.7929 44.0215 36.7929 44.4763C36.7929 46.6462 35.0271 48.412 32.8571 48.412C30.6872 48.412 28.9214 46.6462 28.9214 44.4763C28.9214 44.0215 29.0145 43.5854 29.1642 43.1653L29.3309 42.6977H28.8346H22.594H22.0976L22.2643 43.1653C22.4141 43.5854 22.5071 44.0215 22.5071 44.4763C22.5071 46.6462 20.7414 48.412 18.5714 48.412C16.4015 48.412 14.6357 46.6462 14.6357 44.4763C14.6357 44.0215 14.7288 43.5854 14.8785 43.1653L15.0452 42.6977H14.5489H12.8571C10.6872 42.6977 8.92143 40.9319 8.92143 38.762V38.7607V38.7579V38.7546V38.7506V38.7461V38.7411V38.7354V38.7292V38.7225V38.7151V38.7073V38.6988V38.6898V38.6803V38.6702V38.6596V38.6484V38.6367V38.6244V38.6117V38.5983V38.5845V38.5701V38.5552V38.5397V38.5238V38.5073V38.4903V38.4728V38.4548V38.4362V38.4172V38.3976V38.3775V38.357V38.3359V38.3144V38.2923V38.2698V38.2467V38.2232V38.1992V38.1747V38.1497V38.1242V38.0983V38.0719V38.045V38.0176V37.9898V37.9615V37.9328V37.9036V37.8739V37.8438V37.8132V37.7822V37.7507V37.7187V37.6864V37.6535V37.6203V37.5866V37.5525V37.5179V37.4829V37.4475V37.4116V37.3753V37.3386V37.3015V37.264V37.226V37.1876V37.1489V37.1097V37.0701V37.0301V36.9897V36.9489V36.9077V36.8661V36.8241V36.7817V36.739V36.6958V36.6523V36.6084V36.5641V36.5194V36.4744V36.4289V36.3832V36.337V36.2905V36.2436V36.1964V36.1488V36.1008V36.0525V36.0038V35.9548V35.9055V35.8558V35.8057V35.7553V35.7046V35.6535V35.6021V35.5504V35.4984V35.446V35.3933V35.3403V35.2869V35.2333V35.1793V35.125V35.0704V35.0155V34.9603V34.9048V34.8489V34.7928V34.7364V34.6797V34.6227V34.5654V34.5078V34.45V34.3918V34.3334V34.2747V34.2157V34.1564V34.0969V34.0371V33.977V33.9167V33.8561V33.7953V33.7342V33.6728V33.6112V33.5493V33.4872V33.4248V33.3622V33.2993V33.2363V33.1729V33.1094V33.0456V32.9815V32.9173V32.8528V32.7881V32.7232V32.658V32.5927V32.5271V32.4613V32.3953V32.3291V32.2627V32.196V32.1292V32.0622V31.995V31.9276V31.86V31.7922V31.7242V31.6561V31.5877V31.5192V31.4505V31.3816V31.3126V31.2433V31.174V31.1044V31.0347V30.9648V30.8948V30.8246V30.7542V30.6837V30.613V30.5422V30.4713V30.4002V30.3289V30.2575V30.186V30.1144V30.0426V29.9707V29.8986V29.8265V29.7542V29.6818V29.6092V29.5366V29.4638V29.391V29.318V29.2449V29.1717V29.0984V29.025V28.9515V28.8779V28.8042V28.7305V28.6566V28.5826V28.5086V28.4345V28.3603V28.286V28.2117V28.1372V28.0627V27.9882V27.9135V27.8388V27.7641V27.6893V27.6144V27.5395V27.4645V27.3895V27.3144V27.2393V27.1641V27.0889V27.0136V26.9384V26.863V26.7877V26.7123V26.6369V26.5615V26.486V26.4105V26.3351V26.2595V26.184V26.1085V26.0329V25.9574V25.8818V25.8063V25.7307V25.6552V25.5796V25.5041V25.4285V25.353V25.2775V25.202V25.1265V25.0511V24.9757V24.9002V24.8249V24.7495V24.6742V24.5989V24.5237V24.4485V24.3733V24.2982V24.2231V24.1481V24.0731V23.9981V23.9233V23.8485V23.7737V23.699V23.6244V23.5498V23.4753V23.4009V23.3265V23.2523V23.1781V23.1039V23.0299V22.956V22.8821V22.8083V22.7346V22.661V22.5875V22.5141V22.4408V22.3676V22.2946V22.2216V22.1487V22.0759V22.0033V21.9308V21.8583V21.7861V21.7139V21.6418V21.5699V21.4981V21.4265V21.355V21.2836V21.2124V21.1413V21.0703V20.9995V20.9288V20.8583V20.788V20.7178V20.6477V20.5778V20.5081V20.4385V20.3691V20.2999V20.2309V20.162V20.0933V20.0248V19.9564V19.8883V19.8203V19.7525V19.6849V19.6175V19.5503V19.4832V19.4164V19.3498V19.2834V19.2172V19.1512V19.0854V19.0198V18.9544V18.8893V18.8244V18.7597V18.6952V18.6309V18.5669V18.5031V18.4395V18.3762V18.3131V18.2502V18.1876V18.1252V18.0631V18.0013V17.9396V17.8783V17.8171V17.7563V17.6957V17.6354V17.5753V17.5155V17.456V17.3967V17.3377V17.279V17.2206V17.1624V17.1046V17.047V16.9897V16.9327V16.876V16.8195V16.7634V16.7076V16.6521V16.5969V16.542V16.4874V16.4331V16.3791V16.3254V16.2721V16.219V16.1663V16.1139V16.0619V16.0102V15.9588V15.9077V15.857V15.8066V15.7565V15.7068V15.6575V15.6085V15.5598V15.5115V15.4635V15.4159V15.3687V15.3218V15.2753V15.2291V15.1833V15.1379V15.0928V15.0482V15.0039V14.96V14.9164V14.8733V14.8305V14.7881V14.7461V14.7045V14.6633V14.6225V14.5821V14.5421V14.5025V14.4633V14.4245V14.3862V14.3482V14.3107V14.2735V14.2368V14.2006V14.1647V14.1293V14.0943V14.0597V14.0255V13.9918V13.9586V13.9258V13.8934V13.8614V13.8299V13.7989V13.7683V13.7382V13.7085V13.6793V13.6505V13.6222V13.5944V13.5671V13.5402V13.5138V13.4878V13.4623V13.4374V13.4129V13.3888V13.3653V13.3423V13.3197V13.2976V13.2761V13.255V13.2344V13.2144V13.1948V13.1758V13.1572V13.1392V13.1217V13.1047V13.0882V13.0722V13.0568V13.0418V13.0275V13.0136V13.0003V12.9875V12.9752V12.9635V12.9523V12.9417V12.9316V12.922V12.913V12.9046V12.8967V12.8894V12.8826V12.8764V12.8708V12.8657V12.8612V12.8572C8.92143 11.8758 8.12435 11.0787 7.14286 11.0787ZM18.5714 46.2549C19.5529 46.2549 20.35 45.4578 20.35 44.4763C20.35 43.4948 19.5529 42.6977 18.5714 42.6977C17.5899 42.6977 16.7929 43.4948 16.7929 44.4763C16.7929 45.4578 17.5899 46.2549 18.5714 46.2549ZM32.8571 46.2549C33.8386 46.2549 34.6357 45.4578 34.6357 44.4763C34.6357 43.4948 33.8386 42.6977 32.8571 42.6977C31.8757 42.6977 31.0786 43.4948 31.0786 44.4763C31.0786 45.4578 31.8757 46.2549 32.8571 46.2549Z" fill="#FBBC05" stroke="white" stroke-width="0.7"/>
<path d="M39.7499 5.71429C39.7499 8.73213 37.3034 11.1786 34.2856 11.1786C31.2677 11.1786 28.8213 8.73213 28.8213 5.71429C28.8213 2.69644 31.2677 0.25 34.2856 0.25C37.3034 0.25 39.7499 2.69644 39.7499 5.71429Z" fill="#21D885" stroke="white" stroke-width="0.5"/>
<path d="M25.4647 8.57146C25.4647 11.5893 23.0183 14.0357 20.0004 14.0357C16.9826 14.0357 14.5361 11.5893 14.5361 8.57146C14.5361 5.55362 16.9826 3.10718 20.0004 3.10718C23.0183 3.10718 25.4647 5.55362 25.4647 8.57146Z" fill="white" stroke="white" stroke-width="0.5"/>
</svg>
