<svg width="52" height="52" viewBox="0 0 52 52" fill="none" xmlns="http://www.w3.org/2000/svg">
<path d="M13.9287 41.3281V47.8496L20.9043 50.2559L28.0122 51.4317L33.609 49.5281L37.6686 47.8496V41.3281L30.4729 43.792L20.9043 42.923L16.4299 41.3292L13.9287 41.3281Z" fill="#01C3FF"/>
<path d="M13.9287 34.2627V40.7842L20.9043 43.1905L28.0122 44.3663L33.609 42.4627L37.6686 40.7842V34.2627L30.4729 36.7266L20.9043 35.8575L16.4299 34.2638L13.9287 34.2627Z" fill="#FBBC05"/>
<path d="M8.81997 9.53161C9.05517 9.53187 9.28318 9.45055 9.46514 9.30152C9.6471 9.15249 9.77174 8.94497 9.81782 8.71433C9.8639 8.48369 9.82857 8.24421 9.71785 8.03671C9.60713 7.8292 9.42786 7.66652 9.21062 7.57638C8.99338 7.48625 8.75161 7.47424 8.52651 7.54241C8.30141 7.61058 8.10691 7.75471 7.97618 7.95022C7.84544 8.14574 7.78656 8.38054 7.80956 8.61461C7.83257 8.84868 7.93603 9.06752 8.10233 9.23385C8.29305 9.42366 8.5509 9.53065 8.81997 9.53161Z" fill="white"/>
<path d="M48.7185 13.1491C46.8261 11.2217 44.3053 10.0367 41.6137 9.80918C41.0552 7.4486 39.8346 5.29646 38.0952 3.60566C36.3558 1.91486 34.17 0.755641 31.7945 0.264228C29.4191 -0.227186 26.9527 -0.0303807 24.6852 0.831518C22.4178 1.69342 20.4434 3.1846 18.9942 5.12984C16.8451 4.43351 14.5308 4.43563 12.383 5.13589C12.2562 5.17771 12.139 5.24408 12.0379 5.33121C11.9369 5.41834 11.854 5.52452 11.7939 5.6437C11.7339 5.76287 11.6979 5.8927 11.6881 6.02578C11.6782 6.15885 11.6947 6.29256 11.7365 6.41928C11.7783 6.546 11.8447 6.66324 11.9318 6.76431C12.0189 6.86537 12.1251 6.94829 12.2443 7.00832C12.3635 7.06836 12.4933 7.10433 12.6264 7.11418C12.7594 7.12404 12.8931 7.10759 13.0199 7.06577C14.9749 6.42884 17.0929 6.50899 18.9942 7.29186C19.2132 7.3825 19.457 7.39367 19.6834 7.32344C19.9098 7.2532 20.1044 7.10599 20.2337 6.9073C21.4086 5.10013 23.1015 3.6895 25.091 2.85982C27.0805 2.03014 29.274 1.82002 31.3848 2.25692C33.4956 2.69382 35.4255 3.75742 36.9221 5.30868C38.4188 6.85993 39.4126 8.82666 39.7737 10.9518C39.8131 11.1861 39.9335 11.3992 40.1139 11.554C40.2942 11.7087 40.5232 11.7953 40.7608 11.7986C43.237 11.816 45.6049 12.8164 47.3435 14.5796C49.0821 16.3428 50.0491 18.7245 50.0317 21.2007C50.0143 23.6769 49.0139 26.0447 47.2507 27.7834C45.4875 29.522 43.1058 30.489 40.6296 30.4716H39.5042V24.5982C39.5042 23.4273 38.7522 21.7629 35.172 20.482C32.21 19.5236 29.1099 19.0614 25.9971 19.1144C22.8843 19.0614 19.7841 19.5236 16.8221 20.482C13.2419 21.7629 12.49 23.4273 12.49 24.5982V30.4675H8.54542C6.99727 30.4657 5.50033 29.9128 4.32284 28.9076C3.14534 27.9025 2.36424 26.5109 2.11948 24.9822C1.87472 23.4536 2.1823 21.8877 2.98711 20.5652C3.79193 19.2426 5.04138 18.2499 6.51158 17.7649C6.74119 17.6894 6.93634 17.5345 7.06196 17.328C7.18759 17.1215 7.23544 16.877 7.19693 16.6384C7.1232 16.1812 7.08607 15.7188 7.0859 15.2556C7.08508 14.4048 7.21025 13.5585 7.45734 12.7444C7.53578 12.4867 7.50865 12.2084 7.38192 11.9708C7.25519 11.7331 7.03924 11.5556 6.78158 11.4771C6.52393 11.3987 6.24566 11.4258 6.00801 11.5526C5.77036 11.6793 5.59278 11.8952 5.51435 12.1529C5.20893 13.1588 5.05417 14.2044 5.05509 15.2556C5.05509 15.5483 5.0672 15.8431 5.09143 16.1368C3.29876 16.9293 1.83291 18.3138 0.939522 20.0583C0.0461331 21.8029 -0.220515 23.8015 0.18426 25.7193C0.589034 27.6371 1.64064 29.3575 3.16285 30.5922C4.68506 31.8269 6.5854 32.501 8.54542 32.5014H12.49V46.5121C12.49 47.683 13.2419 49.3474 16.8221 50.6283C19.7841 51.5867 22.8843 52.0488 25.9971 51.9959C29.1099 52.0488 32.21 51.5867 35.172 50.6283C38.7522 49.3474 39.5042 47.683 39.5042 46.5121V32.5014H40.6296C42.8714 32.5016 45.0631 31.8389 46.9292 30.5966C48.7952 29.3543 50.2522 27.5878 51.1168 25.5195C51.9814 23.4512 52.2151 21.1734 51.7883 18.9726C51.3616 16.7718 50.2935 14.7464 48.7185 13.1511V13.1491ZM37.4734 31.9028C37.4734 32.4267 36.6911 33.3159 34.4887 34.1062C31.7464 34.9867 28.8777 35.4089 25.9981 35.3558C23.1184 35.4089 20.2497 34.9867 17.5074 34.1062C15.304 33.3179 14.5228 32.4267 14.5228 31.9028V27.6222C15.2463 28.0714 16.0183 28.4374 16.8241 28.7133C19.7861 29.6717 22.8863 30.1339 25.9991 30.0809C29.1119 30.1339 32.212 29.6717 35.1741 28.7133C35.9798 28.4374 36.7518 28.0714 37.4754 27.6222L37.4734 31.9028ZM14.5218 34.9309C15.2453 35.3801 16.0173 35.7461 16.8231 36.022C19.7851 36.9804 22.8853 37.4426 25.9981 37.3896C29.1109 37.4426 32.211 36.9804 35.173 36.022C35.9788 35.7461 36.7508 35.3801 37.4744 34.9309V39.2115C37.4744 39.7354 36.6921 40.6246 34.4897 41.4149C31.7474 42.2954 28.8787 42.7176 25.9991 42.6645C23.1194 42.7176 20.2507 42.2954 17.5084 41.4149C15.305 40.6266 14.5238 39.7354 14.5238 39.2115L14.5218 34.9309ZM17.5064 22.3988C20.2487 21.5183 23.1174 21.0961 25.9971 21.1492C28.8767 21.0961 31.7454 21.5183 34.4877 22.3988C36.6911 23.1871 37.4723 24.0783 37.4723 24.6022C37.4723 25.126 36.6901 26.0153 34.4877 26.8056C31.7454 27.6861 28.8767 28.1082 25.9971 28.0552C23.1174 28.1082 20.2487 27.6861 17.5064 26.8056C15.303 26.0173 14.5218 25.126 14.5218 24.6022C14.5218 24.0783 15.303 23.1831 17.5064 22.3948V22.3988ZM34.4877 48.7155C31.7453 49.5953 28.8766 50.0168 25.9971 49.9631C23.1174 50.0162 20.2487 49.594 17.5064 48.7135C15.303 47.9252 14.5218 47.034 14.5218 46.5101V42.2315C15.2453 42.6807 16.0173 43.0467 16.8231 43.3226C19.7851 44.281 22.8853 44.7432 25.9981 44.6903C29.1109 44.7432 32.211 44.2811 35.173 43.3226C35.9788 43.0467 36.7508 42.6807 37.4744 42.2315V46.5121C37.4744 47.036 36.6921 47.9252 34.4897 48.7155H34.4877Z" fill="white"/>
</svg>
