<svg width="63" height="42" viewBox="0 0 63 42" fill="none" xmlns="http://www.w3.org/2000/svg">
<path d="M32.1111 31.9693V31.7263C30.8691 31.7128 29.681 31.6453 28.5335 31.5508C27.9125 33.1573 27.0349 34.6559 25.9414 35.9924C28.007 36.3299 30.0995 36.519 32.1921 36.546L32.1111 31.9693Z" fill="white"/>
<path d="M4.39391 15.7957C-1.10078 20.7909 -1.4923 29.3097 3.50288 34.8043C8.49805 40.299 17.0168 40.6905 22.5115 35.6954C25.3196 33.1438 26.9262 29.5392 26.9127 25.7455C26.9127 24.841 26.8182 23.923 26.6427 23.0319M4.39391 15.7957L4.56187 15.9809M4.39391 15.7957C6.86449 13.5546 10.1046 12.3126 13.4527 12.2991M4.39391 15.7957L4.56207 15.9807C4.56201 15.9807 4.56194 15.9808 4.56187 15.9809M4.56187 15.9809C-0.830103 20.8829 -1.2147 29.2434 3.68786 34.6362C8.58983 40.0283 16.9505 40.413 22.3434 35.5104L22.3434 35.5103C25.0998 33.0058 26.6759 29.4684 26.6627 25.7464L26.6627 25.7455C26.6627 24.8586 26.57 23.9573 26.3977 23.0817M4.56187 15.9809C6.98591 13.782 10.1661 12.5624 13.4532 12.5491M26.3977 23.0817C26.3978 23.0822 26.3979 23.0826 26.398 23.0831L26.6427 23.0319M26.3977 23.0817C26.3976 23.0812 26.3975 23.0807 26.3974 23.0803L26.6427 23.0319M26.3977 23.0817C25.4169 18.3925 21.9592 14.5767 17.3618 13.132M26.6427 23.0319C25.6436 18.2528 22.12 14.3646 17.4354 12.8931M17.4354 12.8931L17.3631 13.1324C17.3626 13.1323 17.3622 13.1321 17.3618 13.132M17.4354 12.8931L17.3604 13.1316C17.3609 13.1317 17.3613 13.1319 17.3618 13.132M17.4354 12.8931C16.1393 12.5016 14.8028 12.2991 13.4527 12.2991M17.3618 13.132C16.0891 12.7477 14.7775 12.5491 13.4532 12.5491M13.4527 12.2991L13.4537 12.5491C13.4536 12.5491 13.4534 12.5491 13.4532 12.5491M13.4527 12.2991V12.5491C13.4529 12.5491 13.4531 12.5491 13.4532 12.5491M18.6077 27.582L18.6075 27.5812C17.9559 25.2723 15.8456 23.6865 13.4527 23.6865C12.2663 23.6865 11.3003 22.7307 11.2996 21.5482C11.3124 20.3469 12.2695 19.3938 13.4527 19.3938C14.6377 19.3938 15.6058 20.3619 15.6058 21.5469C15.6058 22.4275 16.3253 23.1469 17.2058 23.1469C18.0864 23.1469 18.8059 22.4275 18.8059 21.5469C18.8059 19.2175 17.3031 17.1558 15.0933 16.447V16.0252C15.0933 15.1446 14.3738 14.4252 13.4932 14.4252C12.6126 14.4252 11.8932 15.1446 11.8932 16.0252V16.4176C9.15865 17.2578 7.54897 20.1356 8.28339 22.907L8.28349 22.9074C8.90658 25.2439 11.0169 26.8731 13.4392 26.8731C14.626 26.8731 15.5923 27.8295 15.5923 29.0126C15.5923 30.1995 14.6359 31.1657 13.4527 31.1657C12.2659 31.1657 11.2996 30.2093 11.2996 29.0261C11.2996 28.1455 10.5802 27.4261 9.69959 27.4261C8.81899 27.4261 8.09954 28.1455 8.09954 29.0261L8.09955 29.0276C8.11333 31.3837 9.64317 33.4458 11.8797 34.1413V35.1284C11.8797 36.009 12.5991 36.7284 13.4797 36.7284C14.3603 36.7284 15.0798 36.009 15.0798 35.1284V34.1261C17.827 33.2477 19.3836 30.3669 18.6077 27.582Z" fill="#01C3FF" stroke="white" stroke-width="0.5"/>
<path d="M32.0703 29.0143L31.9893 24.2351C31.1523 24.2216 30.3288 24.1946 29.5457 24.1406C29.5862 24.6806 29.6132 25.2072 29.6132 25.7337C29.6132 26.7867 29.5052 27.8533 29.3027 28.8928C30.1938 28.9738 31.1253 29.0143 32.0703 29.0143Z" fill="white"/>
<path d="M32.745 9.56201C36.923 9.56201 40.9359 9.06058 44.009 8.13199C44.8816 7.87597 45.7352 7.55077 46.553 7.15612V10.1138C46.4134 10.3425 46.4159 10.5644 46.4177 10.7157C46.4177 10.7181 46.4177 10.7204 46.4177 10.7228C46.4059 10.7441 46.3827 10.7796 46.3419 10.8278C46.2561 10.9292 46.1047 11.0729 45.8569 11.2447C45.3615 11.5882 44.4979 12.0321 43.0535 12.4715C40.3482 13.2843 36.5853 13.7682 32.745 13.7682C29.4323 13.7682 26.1947 13.4196 23.634 12.7672C23.6119 12.7603 23.5923 12.7556 23.5771 12.7523C22.3384 11.7823 20.9758 10.9963 19.5125 10.4301L19.4352 7.31802C20.2463 7.69827 21.0875 8.00895 21.9587 8.24149C24.9222 9.1014 28.7441 9.56201 32.745 9.56201ZM46.4264 10.7047C46.4265 10.7047 46.4261 10.7059 46.425 10.7084C46.4258 10.706 46.4263 10.7048 46.4264 10.7047Z" fill="#21D885" stroke="white" stroke-width="0.6"/>
<path d="M43.0395 1.59646L43.0398 1.59656C44.4849 2.03609 45.349 2.47694 45.8447 2.81743C46.0927 2.98778 46.244 3.12994 46.3296 3.23017C46.352 3.25631 46.369 3.27862 46.3817 3.29687C46.3685 3.31643 46.3505 3.34058 46.3264 3.36907C46.2397 3.47172 46.087 3.61608 45.8376 3.7879C45.339 4.13134 44.4722 4.57206 43.0275 5.0048L43.0273 5.00487C40.3225 5.81765 36.5731 6.28823 32.7318 6.28823C29.0253 6.28823 25.5179 5.85812 22.8659 5.08517L22.865 5.08493C21.4329 4.67194 20.5339 4.24362 19.9917 3.89277C19.7205 3.71733 19.5428 3.56395 19.4326 3.44526C19.3564 3.36314 19.3206 3.30644 19.3051 3.27733C19.3173 3.2546 19.3379 3.2217 19.3722 3.17866C19.4539 3.07617 19.5979 2.93671 19.8372 2.77142C20.316 2.44067 21.1518 2.0233 22.5585 1.59663L22.5594 1.59634C25.2503 0.770428 28.8642 0.3 32.7318 0.3C36.5733 0.3 40.3356 0.770641 43.0395 1.59646ZM46.4135 3.35086C46.4134 3.35082 46.4128 3.3496 46.412 3.34727C46.4131 3.34973 46.4135 3.3509 46.4135 3.35086ZM46.4109 3.24661C46.4115 3.2447 46.4119 3.2437 46.412 3.24367C46.412 3.24363 46.4117 3.24459 46.4109 3.24661Z" fill="#C4C4C4" stroke="white" stroke-width="0.6"/>
<path d="M62.0502 38.6589C62.0373 38.6806 62.0175 38.7099 61.9883 38.7462C61.9062 38.8483 61.761 38.9924 61.5219 39.1644C61.0441 39.5082 60.2083 39.9515 58.8048 40.3906C56.1148 41.2295 52.4881 41.7 48.6203 41.7C44.7383 41.7 41.1247 41.2429 38.4614 40.4306C37.0572 39.998 36.2288 39.5647 35.7585 39.2281C35.5233 39.0597 35.3824 38.919 35.3036 38.8192C35.2642 38.7691 35.2429 38.7327 35.2328 38.7114C35.232 38.7098 35.2314 38.7084 35.2308 38.7071V38.7071V38.707V38.707V38.7069V38.7068V38.7067V38.7067V38.7066V38.7065V38.7064V38.7063V38.7063V38.7062V38.7061V38.706V38.706V38.7059H35.2308L35.2307 38.7007L35.1715 35.2672C36.134 35.7035 37.1268 36.048 38.1497 36.3097C41.0145 37.0599 44.6451 37.4803 48.3637 37.4803C52.5556 37.4803 56.5421 36.9788 59.602 36.0499C60.4487 35.7947 61.2648 35.4715 62.0502 35.0972V38.6589ZM62.0696 38.6205C62.0697 38.6204 62.0694 38.6213 62.0688 38.623C62.0692 38.6214 62.0696 38.6205 62.0696 38.6205ZM35.2265 38.6963C35.2265 38.6963 35.2267 38.6969 35.227 38.698L35.2265 38.6963Z" fill="#FBBC05" stroke="#2C3E50" stroke-width="0.6"/>
<path d="M32.7173 17.0807C36.9087 17.0807 40.9216 16.5793 43.9948 15.6507C44.8685 15.3944 45.712 15.0691 46.5253 14.6835V17.4484C43.7081 17.5443 40.8621 17.8882 38.4305 18.5014C35.9925 19.1163 33.9217 20.0139 32.7358 21.2464H32.7356H32.7353H32.7351H32.7349H32.7346H32.7344H32.7341H32.7339H32.7336H32.7334H32.7332H32.7329H32.7327H32.7324H32.7322H32.732H32.7317H32.7315H32.7312H32.731H32.7308C31.5201 21.2464 30.3442 21.199 29.2478 21.1263C28.7876 19.5768 28.1113 18.1067 27.2268 16.7664C29.0457 16.9727 30.8759 17.0807 32.7173 17.0807Z" fill="#DFDFDF" stroke="white" stroke-width="0.6"/>
<path d="M62.0776 27.6296V30.428H62.0641V30.728C62.0641 30.7479 62.0573 30.7802 62.0338 30.8684L62.0316 30.8763C62.0149 30.939 61.9891 31.0357 61.984 31.1387C61.9838 31.1392 61.9835 31.1397 61.9832 31.1402C61.9724 31.1612 61.9497 31.1979 61.9076 31.2486C61.8237 31.3496 61.675 31.4924 61.4299 31.6632C60.9399 32.0046 60.0833 32.4451 58.6453 32.8846C55.914 33.7106 52.2595 34.1676 48.3777 34.1676C44.6595 34.1676 41.5556 33.7481 39.2571 33.1693C38.1075 32.8798 37.1643 32.5517 36.4485 32.2192C35.789 31.9128 35.3477 31.6141 35.1084 31.3572L35.0962 30.3329L35.0961 30.3313L35.0506 27.7129C35.8763 28.0957 36.7299 28.4094 37.603 28.6539C40.5668 29.5142 44.3894 29.975 48.3912 29.975C52.5136 29.975 56.457 29.4874 59.5018 28.5869C60.3939 28.3518 61.2528 28.018 62.0776 27.6296ZM61.9897 31.1257C61.9898 31.1257 61.9895 31.1266 61.9888 31.1284C61.9893 31.1267 61.9897 31.1257 61.9897 31.1257Z" fill="#01C3FF" stroke="white" stroke-width="0.6"/>
<path d="M58.7 22.0354L58.7009 22.0357C60.1196 22.4619 60.9775 22.8897 61.4753 23.2242C61.7243 23.3916 61.8786 23.5325 61.9677 23.634C61.9957 23.666 62.0162 23.6927 62.0306 23.7139C62.0156 23.7364 61.9941 23.7653 61.9642 23.7999C61.8732 23.9053 61.7153 24.0517 61.4591 24.2255C60.9468 24.5728 60.0593 25.0172 58.5803 25.4569L58.5802 25.457C55.8482 26.2699 52.2336 26.7135 48.4054 26.7135C44.6994 26.7135 41.1918 26.2836 38.539 25.5238C37.1075 25.1043 36.2117 24.6728 35.6707 24.3217C35.4002 24.1461 35.2219 23.993 35.1102 23.8746C35.0544 23.8155 35.017 23.7669 34.9932 23.7306C34.9838 23.7162 34.9772 23.7047 34.9727 23.6961C34.9993 23.6536 35.0487 23.5888 35.1352 23.5044C35.2657 23.377 35.4649 23.2204 35.7524 23.0461C36.3271 22.6977 37.2386 22.2886 38.6175 21.9022L38.6184 21.902C41.2038 21.169 44.5905 20.7658 48.1624 20.7658H48.3919C52.235 20.7658 55.9835 21.2098 58.7 22.0354ZM62.0587 23.7622C62.0587 23.7622 62.0585 23.7617 62.0581 23.7606L62.0587 23.7622ZM62.0576 23.6664C62.0579 23.6655 62.0581 23.665 62.0581 23.665L62.0576 23.6664Z" fill="white" stroke="white" stroke-width="0.6"/>
</svg>
