<svg width="40" height="56" viewBox="0 0 40 56" fill="none" xmlns="http://www.w3.org/2000/svg">
<path d="M34.7514 53.7414L34.7515 53.7415L35.492 55.7994H4.11854L4.85906 53.7421L4.85913 53.7419L11.2664 35.8877L11.2668 35.8866L11.3942 35.5386L11.3945 35.5377L11.567 35.0591L11.5671 35.0587L11.9568 33.9715L11.9568 33.9714L14.0203 28.2224L14.0203 28.2223L14.7868 26.0828L14.7869 26.0826L14.9524 25.6226L14.9646 25.5904L14.9646 25.5904L14.9658 25.587L15.5598 23.9263L15.56 23.9259L17.1058 19.6356L17.106 19.6351L17.8107 17.6632C18.441 17.8232 19.1125 17.9097 19.8053 17.9097C20.4981 17.9097 21.1696 17.8232 21.8005 17.6631L22.5045 19.6351L22.5047 19.6356L23.2777 21.7804L23.2777 21.7804L24.0506 23.9253L24.0507 23.9258L24.6447 25.5864L24.6447 25.5864L24.646 25.5898L24.6577 25.6208L24.6587 25.6236L24.8243 26.082L24.8244 26.0825L25.5902 28.2217L25.5903 28.2219L27.6538 33.9709L27.6538 33.9709L28.0435 35.0582L28.0436 35.0585L28.2161 35.5371L28.2164 35.5381L28.3437 35.886L28.3442 35.8872L34.7514 53.7414ZM26.6823 37.547L26.5827 37.2699L26.3618 37.4646L21.4746 41.7722L21.3044 41.9223L21.4746 42.0723L30.8913 50.3727L31.2117 50.1551L26.6823 37.547ZM22.996 27.2818L22.8962 27.0052L22.6756 27.1996L21.4746 28.2582L21.3044 28.4082L21.4746 28.5583L23.7936 30.6023L24.114 30.3845L23.4816 28.6277L23.4815 28.6275L22.996 27.2818ZM19.2658 19.8885L19.2657 19.8888L18.4735 22.096L18.4735 22.0961L17.6878 24.2807L17.6877 24.2807L17.4769 24.8663L17.4309 24.9942L17.5329 25.0841L19.673 26.9704L19.8056 27.0873L19.9379 26.97L20.0583 26.8634L20.0587 26.8631L22.077 25.0841L22.179 24.9942L22.133 24.8663L21.9222 24.2808L21.9221 24.2807L21.1371 22.0961L21.137 22.096L20.3449 19.8888L20.3448 19.8885L19.9934 18.9144L19.8053 18.3928L19.6171 18.9144L19.2658 19.8885ZM16.129 28.6275L16.129 28.6277L15.4965 30.3845L15.8169 30.6023L17.6313 29.0031L18.136 28.5583L18.3062 28.4082L18.136 28.2582L16.9349 27.1996L16.7143 27.0052L16.6145 27.2818L16.129 28.6275ZM19.9375 29.8461L19.8053 29.7295L19.673 29.8461L13.885 34.9476L13.8084 35.0152L13.6381 35.1653L13.8084 35.3153L13.8467 35.3491L19.673 40.4844L19.8053 40.601L19.9375 40.4844L25.8022 35.3153L25.9724 35.1653L25.8022 35.0152L19.9375 29.8461ZM13.2487 37.4646L13.0278 37.2699L12.9283 37.547L8.39882 50.1545L8.71928 50.3722L18.136 42.0723L18.3062 41.9223L18.136 41.7722L13.2487 37.4646ZM8.05871 53.597L7.66157 53.947H8.19095H31.4196H31.949L31.5518 53.597L19.9375 43.3601L19.8053 43.2436L19.673 43.3601L8.05871 53.597Z" fill="#01C3FF" stroke="white" stroke-width="0.4"/>
<path d="M27.0328 11.5165C27.0328 10.2271 26.6004 9.02957 25.8651 8.03006L27.3996 6.67751C28.5253 8.04196 29.1882 9.71203 29.1882 11.5165C29.1882 13.321 28.5253 14.9911 27.3996 16.3555L25.8651 15.003C26.6004 14.0035 27.0328 12.8059 27.0328 11.5165ZM12.2113 16.3555C11.0855 14.9911 10.4227 13.321 10.4227 11.5165C10.4227 9.71203 11.0855 8.04196 12.2113 6.67751L13.7458 8.03006C13.0104 9.02957 12.5781 10.2271 12.5781 11.5165C12.5781 12.8059 13.0104 14.0035 13.7458 15.003L12.2113 16.3555Z" fill="#FBBC05" stroke="white" stroke-width="0.4"/>
<path d="M5.31133 11.5166C5.31133 8.47361 6.53199 5.67084 8.57401 3.47217L10.085 4.80399C8.44981 6.64963 7.46673 8.98075 7.46673 11.5166C7.46673 14.0524 8.44981 16.3836 10.085 18.2292L8.57402 19.561C6.53199 17.3623 5.31133 14.5596 5.31133 11.5166ZM29.5248 18.2292C31.16 16.3836 32.1431 14.0524 32.1431 11.5166C32.1431 8.98075 31.16 6.64963 29.5248 4.80399L31.0358 3.47217C33.0778 5.67084 34.2985 8.47361 34.2985 11.5166C34.2985 14.5596 33.0778 17.3623 31.0358 19.561L29.5248 18.2292Z" fill="#01C3FF" stroke="white" stroke-width="0.4"/>
<path d="M0.15 11.5151C0.15 7.2032 1.95653 3.24266 4.94523 0.206039L6.52883 1.60182C3.951 4.27507 2.40541 7.73049 2.40541 11.5151C2.40541 15.2996 3.951 18.755 6.52883 21.4283L4.94523 22.8241C1.95653 19.7875 0.15 15.8269 0.15 11.5151ZM33.08 21.4283C35.6578 18.7551 37.2034 15.2996 37.2034 11.5151C37.2034 7.73049 35.6578 4.27507 33.08 1.60182L34.6636 0.206039C37.6523 3.24266 39.4588 7.2032 39.4588 11.5151C39.4588 15.8269 37.6523 19.7875 34.663 22.8241L33.08 21.4283Z" fill="#21D885" stroke="white" stroke-width="0.3"/>
<mask id="path-5-inside-1" fill="white">
<path d="M24.276 11.5148C24.276 11.6106 24.2696 11.7119 24.2568 11.8076C24.2568 11.8302 24.2568 11.8527 24.2504 11.8752V11.9034C24.2504 11.909 24.2504 11.909 24.2504 11.9146C24.2504 11.9484 24.244 11.9822 24.2376 12.016C24.2242 12.1173 24.205 12.2131 24.1865 12.3088C24.161 12.4158 24.1284 12.5227 24.0964 12.6241C24.0837 12.6635 24.0709 12.6973 24.0581 12.7367C24.0191 12.8437 23.9751 12.9507 23.9239 13.052C23.8665 13.1703 23.8026 13.2829 23.7387 13.3955C23.6742 13.4913 23.6109 13.5926 23.54 13.6827C23.5336 13.6883 23.5272 13.6996 23.5215 13.7052C23.5144 13.7165 23.5081 13.7277 23.4959 13.739C23.4256 13.8347 23.3426 13.9305 23.2532 14.0206C23.1631 14.1163 23.0679 14.212 22.9657 14.3021C22.8635 14.3922 22.7548 14.4766 22.6462 14.5555C22.544 14.6343 22.4354 14.7075 22.3268 14.7695C22.3134 14.7807 22.3013 14.7863 22.2878 14.792C22.2815 14.7976 22.2693 14.8032 22.2623 14.8089C22.1607 14.8708 22.0451 14.9271 21.9365 14.9834C21.6873 15.1017 21.4254 15.1974 21.1513 15.2762C21.1322 15.2819 21.1124 15.2875 21.0932 15.2931C20.9846 15.3213 20.8696 15.3438 20.7552 15.3663C20.7418 15.3663 20.7361 15.372 20.7233 15.372C20.7041 15.3776 20.6907 15.3832 20.6722 15.3832C20.538 15.4057 20.4039 15.4226 20.2633 15.4339C20.117 15.4508 19.9573 15.4564 19.804 15.4564C19.6507 15.4564 19.491 15.4508 19.344 15.4339C19.2035 15.4226 19.0693 15.4057 18.9352 15.3832C18.916 15.3832 18.9032 15.3776 18.884 15.372C18.8713 15.372 18.8649 15.3663 18.8521 15.3663C18.7371 15.3438 18.6221 15.3213 18.5135 15.2931C18.4943 15.2875 18.4752 15.2819 18.456 15.2762C18.1813 15.1974 17.9194 15.1017 17.6702 14.9834C17.5616 14.9271 17.4466 14.8708 17.3444 14.8089C17.338 14.8032 17.3252 14.7976 17.3189 14.792C17.3061 14.7863 17.2933 14.7807 17.2805 14.7695C17.1719 14.7075 17.0633 14.6343 16.9611 14.5555C16.8525 14.4766 16.7439 14.3922 16.6417 14.3021C16.5395 14.212 16.4436 14.1163 16.3542 14.0206C16.2648 13.9305 16.1817 13.8347 16.1114 13.739C16.0987 13.7277 16.0923 13.7165 16.0859 13.7052C16.0795 13.6996 16.0731 13.6883 16.0667 13.6827C15.9964 13.5926 15.9326 13.4913 15.8687 13.3955C15.8048 13.2829 15.7409 13.1703 15.6834 13.052C15.6323 12.9507 15.5876 12.8437 15.5492 12.7367C15.5365 12.6973 15.5237 12.6635 15.5109 12.6241C15.479 12.5227 15.447 12.4158 15.4215 12.3088C15.4023 12.2131 15.3831 12.1173 15.3704 12.016C15.364 11.9822 15.3576 11.9484 15.3576 11.9146C15.3576 11.909 15.3576 11.909 15.3576 11.9034V11.8752C15.3512 11.8527 15.3512 11.8302 15.3512 11.8076C15.3384 11.7119 15.332 11.6106 15.332 11.5148C15.332 11.4191 15.3384 11.3177 15.3512 11.222C15.3512 11.1995 15.3512 11.177 15.3576 11.1545V11.1263C15.3576 11.1207 15.3576 11.1207 15.3576 11.115C15.3576 11.0813 15.364 11.0475 15.3704 11.0137C15.3831 10.9123 15.4023 10.8166 15.4215 10.7209C15.4406 10.6308 15.4662 10.5463 15.4981 10.4562C15.4981 10.445 15.5045 10.4281 15.5109 10.4168C15.5173 10.3774 15.5301 10.3324 15.5492 10.2929C15.5876 10.186 15.6323 10.079 15.6834 9.97761C15.7409 9.85936 15.8048 9.74675 15.8687 9.63413C15.9326 9.5384 15.9964 9.43705 16.0667 9.34696C16.0731 9.34133 16.0795 9.33006 16.0859 9.32443C16.0923 9.31317 16.0987 9.30191 16.1114 9.29065C16.1817 9.19492 16.2648 9.0992 16.3542 9.00911C16.4436 8.91338 16.5395 8.81766 16.6417 8.72756C16.7439 8.63747 16.8525 8.55301 16.9611 8.47418C17.0633 8.39534 17.1719 8.32214 17.2805 8.2602C17.2933 8.24894 17.3061 8.24331 17.3189 8.23768C17.3252 8.23205 17.338 8.22642 17.3444 8.22079C17.4466 8.15885 17.5616 8.10254 17.6702 8.04623C17.798 7.98992 17.9258 7.93362 18.0599 7.88294C18.1749 7.83789 18.2963 7.79848 18.4177 7.76469C18.4624 7.7478 18.5135 7.73654 18.5582 7.73091C18.571 7.72528 18.5902 7.71964 18.603 7.71964C18.7052 7.69149 18.801 7.66897 18.9032 7.65207C19.0118 7.63518 19.1204 7.61829 19.2354 7.60703C19.2737 7.6014 19.3121 7.59577 19.3504 7.59577C19.3568 7.59577 19.3568 7.59577 19.3632 7.59577H19.3951C19.4207 7.59014 19.4462 7.59014 19.4718 7.59014C19.5804 7.57887 19.6954 7.57324 19.804 7.57324C19.9126 7.57324 20.0276 7.57887 20.1362 7.59014C20.1617 7.59014 20.1873 7.59014 20.2129 7.59577H20.2448C20.2512 7.59577 20.2512 7.59577 20.2576 7.59577C20.2959 7.59577 20.3342 7.6014 20.3726 7.60703C20.4876 7.61829 20.5962 7.63518 20.7048 7.65207C20.807 7.66897 20.9028 7.69149 21.005 7.71964C21.0184 7.71964 21.037 7.72528 21.0498 7.73091C21.0938 7.73654 21.1449 7.7478 21.1903 7.76469C21.3117 7.79848 21.4331 7.83789 21.5487 7.88294C21.6829 7.93362 21.81 7.98992 21.9378 8.04623C22.0464 8.10254 22.162 8.15885 22.2636 8.22079C22.2706 8.22642 22.2827 8.23205 22.2891 8.23768C22.3025 8.24331 22.3147 8.24894 22.3281 8.2602C22.4367 8.32214 22.5453 8.39534 22.6475 8.47418C22.7561 8.55301 22.8647 8.63747 22.9669 8.72756C23.0692 8.81766 23.165 8.91338 23.2544 9.00911C23.3439 9.0992 23.4269 9.19492 23.4972 9.29065C23.51 9.30191 23.5157 9.31317 23.5227 9.32443C23.5291 9.33006 23.5355 9.34133 23.5413 9.34696C23.6115 9.43705 23.6754 9.5384 23.74 9.63413C23.8038 9.74675 23.8677 9.85936 23.9252 9.97761C23.9763 10.079 24.0204 10.186 24.0594 10.2929C24.0785 10.3324 24.0913 10.3774 24.0977 10.4168C24.1047 10.4281 24.1111 10.445 24.1111 10.4562C24.1431 10.5463 24.1686 10.6308 24.1878 10.7209C24.2063 10.8166 24.2261 10.9123 24.2389 11.0137C24.2453 11.0475 24.2517 11.0813 24.2517 11.115C24.2517 11.1207 24.2517 11.1207 24.2517 11.1263V11.1545C24.2581 11.177 24.2581 11.1995 24.2581 11.222C24.2696 11.3177 24.276 11.4191 24.276 11.5148Z"/>
</mask>
<path d="M24.276 11.5148C24.276 11.6106 24.2696 11.7119 24.2568 11.8076C24.2568 11.8302 24.2568 11.8527 24.2504 11.8752V11.9034C24.2504 11.909 24.2504 11.909 24.2504 11.9146C24.2504 11.9484 24.244 11.9822 24.2376 12.016C24.2242 12.1173 24.205 12.2131 24.1865 12.3088C24.161 12.4158 24.1284 12.5227 24.0964 12.6241C24.0837 12.6635 24.0709 12.6973 24.0581 12.7367C24.0191 12.8437 23.9751 12.9507 23.9239 13.052C23.8665 13.1703 23.8026 13.2829 23.7387 13.3955C23.6742 13.4913 23.6109 13.5926 23.54 13.6827C23.5336 13.6883 23.5272 13.6996 23.5215 13.7052C23.5144 13.7165 23.5081 13.7277 23.4959 13.739C23.4256 13.8347 23.3426 13.9305 23.2532 14.0206C23.1631 14.1163 23.0679 14.212 22.9657 14.3021C22.8635 14.3922 22.7548 14.4766 22.6462 14.5555C22.544 14.6343 22.4354 14.7075 22.3268 14.7695C22.3134 14.7807 22.3013 14.7863 22.2878 14.792C22.2815 14.7976 22.2693 14.8032 22.2623 14.8089C22.1607 14.8708 22.0451 14.9271 21.9365 14.9834C21.6873 15.1017 21.4254 15.1974 21.1513 15.2762C21.1322 15.2819 21.1124 15.2875 21.0932 15.2931C20.9846 15.3213 20.8696 15.3438 20.7552 15.3663C20.7418 15.3663 20.7361 15.372 20.7233 15.372C20.7041 15.3776 20.6907 15.3832 20.6722 15.3832C20.538 15.4057 20.4039 15.4226 20.2633 15.4339C20.117 15.4508 19.9573 15.4564 19.804 15.4564C19.6507 15.4564 19.491 15.4508 19.344 15.4339C19.2035 15.4226 19.0693 15.4057 18.9352 15.3832C18.916 15.3832 18.9032 15.3776 18.884 15.372C18.8713 15.372 18.8649 15.3663 18.8521 15.3663C18.7371 15.3438 18.6221 15.3213 18.5135 15.2931C18.4943 15.2875 18.4752 15.2819 18.456 15.2762C18.1813 15.1974 17.9194 15.1017 17.6702 14.9834C17.5616 14.9271 17.4466 14.8708 17.3444 14.8089C17.338 14.8032 17.3252 14.7976 17.3189 14.792C17.3061 14.7863 17.2933 14.7807 17.2805 14.7695C17.1719 14.7075 17.0633 14.6343 16.9611 14.5555C16.8525 14.4766 16.7439 14.3922 16.6417 14.3021C16.5395 14.212 16.4436 14.1163 16.3542 14.0206C16.2648 13.9305 16.1817 13.8347 16.1114 13.739C16.0987 13.7277 16.0923 13.7165 16.0859 13.7052C16.0795 13.6996 16.0731 13.6883 16.0667 13.6827C15.9964 13.5926 15.9326 13.4913 15.8687 13.3955C15.8048 13.2829 15.7409 13.1703 15.6834 13.052C15.6323 12.9507 15.5876 12.8437 15.5492 12.7367C15.5365 12.6973 15.5237 12.6635 15.5109 12.6241C15.479 12.5227 15.447 12.4158 15.4215 12.3088C15.4023 12.2131 15.3831 12.1173 15.3704 12.016C15.364 11.9822 15.3576 11.9484 15.3576 11.9146C15.3576 11.909 15.3576 11.909 15.3576 11.9034V11.8752C15.3512 11.8527 15.3512 11.8302 15.3512 11.8076C15.3384 11.7119 15.332 11.6106 15.332 11.5148C15.332 11.4191 15.3384 11.3177 15.3512 11.222C15.3512 11.1995 15.3512 11.177 15.3576 11.1545V11.1263C15.3576 11.1207 15.3576 11.1207 15.3576 11.115C15.3576 11.0813 15.364 11.0475 15.3704 11.0137C15.3831 10.9123 15.4023 10.8166 15.4215 10.7209C15.4406 10.6308 15.4662 10.5463 15.4981 10.4562C15.4981 10.445 15.5045 10.4281 15.5109 10.4168C15.5173 10.3774 15.5301 10.3324 15.5492 10.2929C15.5876 10.186 15.6323 10.079 15.6834 9.97761C15.7409 9.85936 15.8048 9.74675 15.8687 9.63413C15.9326 9.5384 15.9964 9.43705 16.0667 9.34696C16.0731 9.34133 16.0795 9.33006 16.0859 9.32443C16.0923 9.31317 16.0987 9.30191 16.1114 9.29065C16.1817 9.19492 16.2648 9.0992 16.3542 9.00911C16.4436 8.91338 16.5395 8.81766 16.6417 8.72756C16.7439 8.63747 16.8525 8.55301 16.9611 8.47418C17.0633 8.39534 17.1719 8.32214 17.2805 8.2602C17.2933 8.24894 17.3061 8.24331 17.3189 8.23768C17.3252 8.23205 17.338 8.22642 17.3444 8.22079C17.4466 8.15885 17.5616 8.10254 17.6702 8.04623C17.798 7.98992 17.9258 7.93362 18.0599 7.88294C18.1749 7.83789 18.2963 7.79848 18.4177 7.76469C18.4624 7.7478 18.5135 7.73654 18.5582 7.73091C18.571 7.72528 18.5902 7.71964 18.603 7.71964C18.7052 7.69149 18.801 7.66897 18.9032 7.65207C19.0118 7.63518 19.1204 7.61829 19.2354 7.60703C19.2737 7.6014 19.3121 7.59577 19.3504 7.59577C19.3568 7.59577 19.3568 7.59577 19.3632 7.59577H19.3951C19.4207 7.59014 19.4462 7.59014 19.4718 7.59014C19.5804 7.57887 19.6954 7.57324 19.804 7.57324C19.9126 7.57324 20.0276 7.57887 20.1362 7.59014C20.1617 7.59014 20.1873 7.59014 20.2129 7.59577H20.2448C20.2512 7.59577 20.2512 7.59577 20.2576 7.59577C20.2959 7.59577 20.3342 7.6014 20.3726 7.60703C20.4876 7.61829 20.5962 7.63518 20.7048 7.65207C20.807 7.66897 20.9028 7.69149 21.005 7.71964C21.0184 7.71964 21.037 7.72528 21.0498 7.73091C21.0938 7.73654 21.1449 7.7478 21.1903 7.76469C21.3117 7.79848 21.4331 7.83789 21.5487 7.88294C21.6829 7.93362 21.81 7.98992 21.9378 8.04623C22.0464 8.10254 22.162 8.15885 22.2636 8.22079C22.2706 8.22642 22.2827 8.23205 22.2891 8.23768C22.3025 8.24331 22.3147 8.24894 22.3281 8.2602C22.4367 8.32214 22.5453 8.39534 22.6475 8.47418C22.7561 8.55301 22.8647 8.63747 22.9669 8.72756C23.0692 8.81766 23.165 8.91338 23.2544 9.00911C23.3439 9.0992 23.4269 9.19492 23.4972 9.29065C23.51 9.30191 23.5157 9.31317 23.5227 9.32443C23.5291 9.33006 23.5355 9.34133 23.5413 9.34696C23.6115 9.43705 23.6754 9.5384 23.74 9.63413C23.8038 9.74675 23.8677 9.85936 23.9252 9.97761C23.9763 10.079 24.0204 10.186 24.0594 10.2929C24.0785 10.3324 24.0913 10.3774 24.0977 10.4168C24.1047 10.4281 24.1111 10.445 24.1111 10.4562C24.1431 10.5463 24.1686 10.6308 24.1878 10.7209C24.2063 10.8166 24.2261 10.9123 24.2389 11.0137C24.2453 11.0475 24.2517 11.0813 24.2517 11.115C24.2517 11.1207 24.2517 11.1207 24.2517 11.1263V11.1545C24.2581 11.177 24.2581 11.1995 24.2581 11.222C24.2696 11.3177 24.276 11.4191 24.276 11.5148Z" fill="#C4C4C4" stroke="white" stroke-width="1.2" mask="url(#path-5-inside-1)"/>
</svg>
