<svg width="44" height="44" viewBox="0 0 44 44" fill="none" xmlns="http://www.w3.org/2000/svg">
<path d="M39.8909 18.5154L39.891 18.5154C40.7625 19.3868 40.7625 20.7945 39.8909 21.6661C39.0221 22.5349 37.6091 22.5348 36.7403 21.6661L36.4928 21.9135L36.7403 21.6661L19.5772 4.50421C18.7093 3.63524 18.709 2.22149 19.5771 1.35088C20.4402 0.490213 21.8559 0.480212 22.7304 1.35233C22.7304 1.35238 22.7305 1.35243 22.7305 1.35248L39.8909 18.5154Z" fill="#21D885" stroke="white" stroke-width="0.7"/>
<path d="M18.2714 7.84044L18.2725 7.83467L33.4107 22.9716L33.4041 22.9729L33.4038 22.973C28.8923 23.876 24.6682 26.093 21.1733 29.0128L12.2913 20.1308C15.2117 16.6298 17.3702 12.3483 18.2713 7.84058L18.2714 7.84044Z" fill="#01C3FF" stroke="white" stroke-width="0.7"/>
<path d="M3.97052 33.6874C2.59352 32.3104 2.59905 30.0841 3.97052 28.7127L10.1041 22.5803L18.7239 31.2L12.5909 37.333C11.2139 38.7099 8.98762 38.7045 7.61617 37.333L3.97052 33.6874ZM8.9453 32.3596C9.5855 32.9998 10.6229 32.9998 11.2631 32.3596L13.0859 30.5368C13.7261 29.8966 13.7261 28.8592 13.0859 28.219C12.4457 27.5788 11.4083 27.5788 10.7681 28.219L8.9453 30.0418C8.30511 30.682 8.30511 31.7194 8.9453 32.3596Z" stroke="white" stroke-width="0.7"/>
<path d="M24.3893 38.0536L24.1738 38.2691L24.3927 38.4812L25.7669 39.8127C26.6539 40.7016 26.6534 42.1456 25.7653 43.0337L25.7653 43.0337C24.8751 43.924 23.4265 43.9186 22.5454 43.0353L22.5455 43.0352L22.5418 43.0317L16.912 37.5764L20.1335 34.3549L22.541 36.6874L22.7531 36.8929L22.9619 36.6841L24.7444 34.9016L24.745 34.901C25.367 34.2757 25.3641 33.2728 24.7442 32.6556C24.7441 32.6555 24.744 32.6554 24.7438 32.6552L23.4216 31.331C23.9394 30.9069 24.4688 30.505 25.016 30.1282L26.1429 31.2559L26.1431 31.2562C27.535 32.6457 27.5397 34.9035 26.1429 36.3L26.1429 36.3001L24.3893 38.0536Z" fill="#01C3FF" stroke="white" stroke-width="0.6"/>
<path d="M28.7695 1.28907C28.7695 0.714626 29.2342 0.25 29.8086 0.25C30.383 0.25 30.8477 0.714626 30.8477 1.28907V3.86719C30.8477 4.44163 30.383 4.90626 29.8086 4.90626C29.2342 4.90626 28.7695 4.44163 28.7695 3.86719V1.28907Z" stroke="white" stroke-width="0.5"/>
<path d="M37.543 10.5626H40.1211C40.6955 10.5626 41.1602 11.0272 41.1602 11.6017C41.1602 12.1761 40.6955 12.6407 40.1211 12.6407H37.543C36.9685 12.6407 36.5039 12.1761 36.5039 11.6017C36.5039 11.0272 36.9685 10.5626 37.543 10.5626Z" stroke="white" stroke-width="0.5"/>
<path d="M35.6995 7.17969L35.6994 7.17971C35.2936 7.58563 34.6361 7.58559 34.2302 7.17969C33.8243 6.77381 33.8243 6.1163 34.2302 5.71042L36.8083 3.13229C37.2142 2.72641 37.8717 2.72641 38.2776 3.13229C38.6835 3.53817 38.6835 4.19568 38.2776 4.60156L35.6995 7.17969Z" stroke="white" stroke-width="0.5"/>
</svg>
