<svg width="52" height="52" viewBox="0 0 52 52" fill="none" xmlns="http://www.w3.org/2000/svg">
<path d="M38.0039 9.66443H27.8691V47.668H38.0039V9.66443Z" fill="#01C3FF"/>
<path d="M50.6719 23.5994H40.5371V47.668H50.6719V23.5994Z" fill="#21D885"/>
<path d="M11.4014 40.0677H1.2666V47.6681H11.4014V40.0677Z" fill="#FBBC05"/>
<path d="M51.2324 50.4763H0.761824C0.559776 50.4763 0.366003 50.5566 0.223133 50.6994C0.0802634 50.8423 0 51.0361 0 51.2382C0 51.4402 0.0802634 51.634 0.223133 51.7768C0.366003 51.9197 0.559776 52 0.761824 52H51.2324C51.4345 52 51.6283 51.9197 51.7711 51.7768C51.914 51.634 51.9943 51.4402 51.9943 51.2382C51.9943 51.0361 51.914 50.8423 51.7711 50.6994C51.6283 50.5566 51.4345 50.4763 51.2324 50.4763Z" fill="white"/>
<path d="M0.761824 48.9527H11.0948C11.1948 48.9527 11.2939 48.933 11.3863 48.8947C11.4787 48.8564 11.5627 48.8003 11.6334 48.7296C11.7042 48.6588 11.7603 48.5748 11.7986 48.4824C11.8369 48.39 11.8566 48.2909 11.8566 48.1909V39.7789C11.8566 39.5769 11.7763 39.3831 11.6334 39.2403C11.4906 39.0974 11.2968 39.0171 11.0948 39.0171H0.761824C0.559776 39.0171 0.366003 39.0974 0.223133 39.2403C0.0802634 39.3831 0 39.5769 0 39.7789L0 48.1909C0 48.3929 0.0802634 48.5867 0.223133 48.7296C0.366003 48.8724 0.559776 48.9527 0.761824 48.9527ZM1.52365 40.5447H10.3329V47.433H1.52365V40.5447Z" fill="white"/>
<path d="M24.4737 23.7178C24.6757 23.7178 24.8695 23.6375 25.0123 23.4947C25.1552 23.3518 25.2355 23.158 25.2355 22.956V14.5441C25.2355 14.342 25.1552 14.1482 25.0123 14.0054C24.8695 13.8625 24.6757 13.7822 24.4737 13.7822H14.1407C13.9387 13.7822 13.7449 13.8625 13.602 14.0054C13.4592 14.1482 13.3789 14.342 13.3789 14.5441V48.1918C13.3789 48.3938 13.4592 48.5876 13.602 48.7305C13.7449 48.8733 13.9387 48.9536 14.1407 48.9536H24.4737C24.6757 48.9536 24.8695 48.8733 25.0123 48.7305C25.1552 48.5876 25.2355 48.3938 25.2355 48.1918V26.0033C25.2355 25.8012 25.1552 25.6075 25.0123 25.4646C24.8695 25.3217 24.6757 25.2415 24.4737 25.2415C24.2716 25.2415 24.0778 25.3217 23.935 25.4646C23.7921 25.6075 23.7118 25.8012 23.7118 26.0033V47.431H14.9026V15.3099H23.7118V22.96C23.7129 23.1613 23.7936 23.3541 23.9364 23.4961C24.0791 23.6381 24.2723 23.7178 24.4737 23.7178Z" fill="white"/>
<path d="M51.2324 22.1942H40.8995C40.6975 22.1942 40.5037 22.2745 40.3608 22.4173C40.218 22.5602 40.1377 22.754 40.1377 22.956V48.1918C40.1377 48.3939 40.218 48.5877 40.3608 48.7305C40.5037 48.8734 40.6975 48.9537 40.8995 48.9537H51.2324C51.4345 48.9537 51.6283 48.8734 51.7711 48.7305C51.914 48.5877 51.9943 48.3939 51.9943 48.1918V22.956C51.9943 22.754 51.914 22.5602 51.7711 22.4173C51.6283 22.2745 51.4345 22.1942 51.2324 22.1942ZM50.4706 47.43H41.6613V23.7179H50.4706V47.43Z" fill="white"/>
<path d="M27.5206 9.57678C27.3186 9.57678 27.1248 9.65704 26.9819 9.79991C26.839 9.94278 26.7588 10.1366 26.7588 10.3386V48.1918C26.7588 48.3939 26.839 48.5876 26.9819 48.7305C27.1248 48.8734 27.3186 48.9536 27.5206 48.9536H37.8535C38.0556 48.9536 38.2494 48.8734 38.3922 48.7305C38.5351 48.5876 38.6154 48.3939 38.6154 48.1918V10.3386C38.6154 10.1366 38.5351 9.94278 38.3922 9.79991C38.2494 9.65704 38.0556 9.57678 37.8535 9.57678H27.5206ZM37.0917 47.43H28.2824V11.1004H37.0917V47.43Z" fill="white"/>
<path d="M5.92843 12.2546C6.52137 12.2539 7.09809 12.061 7.57209 11.7047C8.0461 11.3485 8.39184 10.8482 8.55747 10.2789H16.6786C16.8769 10.9508 17.3254 11.5211 17.9316 11.8722C18.5377 12.2234 19.2555 12.3287 19.937 12.1664C20.6186 12.0042 21.2119 11.5868 21.5948 11.0001C21.9778 10.4135 22.1212 9.70234 21.9955 9.01315L30.6852 4.6105C30.9409 4.8852 31.2504 5.10427 31.5944 5.25407C31.9384 5.40388 32.3097 5.48119 32.6849 5.48119C33.0601 5.48119 33.4313 5.40388 33.7754 5.25407C34.1194 5.10427 34.4289 4.8852 34.6846 4.6105L43.3743 9.01315C43.2503 9.66241 43.3649 10.3346 43.697 10.9061C44.029 11.4777 44.5563 11.9101 45.1817 12.1239C45.8072 12.3377 46.4888 12.3185 47.1012 12.0699C47.7137 11.8212 48.2158 11.3598 48.5152 10.7705C48.8146 10.1812 48.8912 9.50367 48.7308 8.86242C48.5705 8.22116 48.1841 7.65934 47.6426 7.28027C47.1011 6.9012 46.441 6.73036 45.7836 6.79917C45.1262 6.86799 44.5157 7.17182 44.0645 7.65481L35.3767 3.25216C35.4524 2.85624 35.4398 2.44846 35.3398 2.05796C35.2397 1.66747 35.0546 1.30389 34.7977 0.993213C34.5409 0.682531 34.2186 0.43241 33.8539 0.260718C33.4891 0.089026 33.091 0 32.6879 0C32.2848 0 31.8866 0.089026 31.5219 0.260718C31.1572 0.43241 30.8349 0.682531 30.578 0.993213C30.3211 1.30389 30.1361 1.66747 30.036 2.05796C29.9359 2.44846 29.9233 2.85624 29.9991 3.25216L21.3073 7.65481C20.9776 7.30071 20.5598 7.04043 20.0966 6.90054C19.6334 6.76066 19.1414 6.74617 18.6708 6.85856C18.2002 6.97095 17.7678 7.20619 17.4178 7.54027C17.0678 7.87436 16.8128 8.29532 16.6786 8.7602H8.55747C8.41593 8.27167 8.14108 7.83222 7.76376 7.49115C7.38643 7.15008 6.92155 6.92088 6.42124 6.82924C5.92094 6.7376 5.405 6.78715 4.93128 6.97234C4.45756 7.15753 4.0448 7.47103 3.73929 7.87768C3.43378 8.28433 3.2476 8.76806 3.20164 9.2746C3.15567 9.78115 3.25172 10.2905 3.47904 10.7455C3.70635 11.2005 4.05593 11.5832 4.48857 11.8506C4.92121 12.1181 5.4198 12.2597 5.92843 12.2596V12.2546ZM46.0671 8.30709C46.3072 8.30709 46.5419 8.37829 46.7415 8.51168C46.9412 8.64507 47.0968 8.83466 47.1886 9.05648C47.2805 9.2783 47.3046 9.52238 47.2577 9.75786C47.2109 9.99334 47.0953 10.2096 46.9255 10.3794C46.7557 10.5492 46.5394 10.6648 46.3039 10.7116C46.0685 10.7585 45.8244 10.7344 45.6026 10.6426C45.3807 10.5507 45.1911 10.3951 45.0578 10.1955C44.9244 9.99583 44.8532 9.76113 44.8532 9.52103C44.8537 9.19924 44.9818 8.89077 45.2093 8.66323C45.4368 8.43568 45.7453 8.30762 46.0671 8.30709ZM32.6869 1.52935C32.927 1.52935 33.1617 1.60054 33.3613 1.73393C33.5609 1.86732 33.7165 2.05691 33.8084 2.27873C33.9003 2.50055 33.9243 2.74463 33.8775 2.98011C33.8307 3.2156 33.715 3.4319 33.5453 3.60167C33.3755 3.77144 33.1592 3.88706 32.9237 3.9339C32.6882 3.98074 32.4441 3.9567 32.2223 3.86482C32.0005 3.77294 31.8109 3.61735 31.6775 3.41771C31.5441 3.21808 31.4729 2.98338 31.4729 2.74329C31.4735 2.42149 31.6015 2.11303 31.8291 1.88548C32.0566 1.65794 32.3651 1.52987 32.6869 1.52935ZM19.3067 8.30709C19.5468 8.30709 19.7815 8.37829 19.9811 8.51168C20.1807 8.64507 20.3363 8.83466 20.4282 9.05648C20.5201 9.2783 20.5441 9.52238 20.4973 9.75786C20.4504 9.99334 20.3348 10.2096 20.165 10.3794C19.9953 10.5492 19.779 10.6648 19.5435 10.7116C19.308 10.7585 19.0639 10.7344 18.8421 10.6426C18.6203 10.5507 18.4307 10.3951 18.2973 10.1955C18.1639 9.99583 18.0927 9.76113 18.0927 9.52103C18.0932 9.19924 18.2213 8.89077 18.4489 8.66323C18.6764 8.43568 18.9849 8.30762 19.3067 8.30709ZM5.92743 8.30709C6.16753 8.30709 6.40223 8.37829 6.60186 8.51168C6.80149 8.64507 6.95709 8.83466 7.04897 9.05648C7.14085 9.2783 7.16489 9.52238 7.11805 9.75786C7.07121 9.99334 6.95559 10.2096 6.78582 10.3794C6.61604 10.5492 6.39974 10.6648 6.16426 10.7116C5.92878 10.7585 5.6847 10.7344 5.46288 10.6426C5.24106 10.5507 5.05147 10.3951 4.91808 10.1955C4.78469 9.99583 4.71349 9.76113 4.71349 9.52103C4.71402 9.19907 4.84222 8.89045 5.06998 8.66288C5.29774 8.4353 5.60646 8.30736 5.92843 8.30709H5.92743Z" fill="white"/>
</svg>
