<svg width="18" height="18" viewBox="0 0 18 18" fill="none" xmlns="http://www.w3.org/2000/svg">
<path d="M9 18C13.9622 18 18 13.9622 18 9C18 4.03784 13.9622 0 9 0C4.03784 0 0 4.03784 0 9C0 13.9622 4.03784 18 9 18ZM5.13243 8.93676C5.42189 8.6473 5.88892 8.6473 6.17838 8.93676L7.90784 10.6662L12.3154 6.25865C12.6049 5.96919 13.0719 5.96919 13.3614 6.25865C13.6508 6.54811 13.6508 7.01513 13.3614 7.30459L8.42838 12.2351C8.28487 12.3786 8.09514 12.4516 7.90541 12.4516C7.71568 12.4516 7.52595 12.3786 7.38243 12.2351L5.13 9.9827C4.84297 9.69568 4.84297 9.22622 5.13243 8.93676Z" fill="#56DCE8"/>
</svg>
