<svg width="22" height="23" viewBox="0 0 22 23" fill="none" xmlns="http://www.w3.org/2000/svg">
<path d="M11 22.5465C17.0649 22.5465 22 17.4888 22 11.2733C22 5.05773 17.0649 0 11 0C4.93514 0 0 5.05773 0 11.2733C0 17.4888 4.93514 22.5465 11 22.5465ZM6.27297 11.194C6.62676 10.8315 7.19757 10.8315 7.55135 11.194L9.66513 13.3603L15.0522 7.83948C15.4059 7.47691 15.9768 7.47691 16.3305 7.83948C16.6843 8.20205 16.6843 8.78704 16.3305 9.14962L10.3014 15.3255C10.1259 15.5053 9.89405 15.5967 9.66216 15.5967C9.43027 15.5967 9.19838 15.5053 9.02297 15.3255L6.27 12.5042C5.91919 12.1446 5.91919 11.5566 6.27297 11.194Z" fill="#56DCE8"/>
</svg>
