<svg width="29" height="29" viewBox="0 0 29 29" fill="none" xmlns="http://www.w3.org/2000/svg">
<path d="M19.6648 17.0606L15.6214 14.0281V7.85072C15.6214 7.2296 15.1193 6.72754 14.4982 6.72754C13.8771 6.72754 13.375 7.2296 13.375 7.85072V14.5897C13.375 14.9435 13.5412 15.2771 13.8243 15.4883L18.3169 18.8577C18.519 19.0094 18.755 19.0824 18.9897 19.0824C19.3322 19.0824 19.6692 18.9285 19.8893 18.632C20.2623 18.1366 20.1612 17.4324 19.6648 17.0606Z" fill="white"/>
<path d="M14.5 0C6.50421 0 0 6.50421 0 14.5C0 22.4958 6.50421 29 14.5 29C22.4958 29 29 22.4958 29 14.5C29 6.50421 22.4958 0 14.5 0ZM14.5 26.7537C7.74419 26.7537 2.24631 21.2558 2.24631 14.5C2.24631 7.74419 7.74419 2.24631 14.5 2.24631C21.2569 2.24631 26.7537 7.74419 26.7537 14.5C26.7537 21.2558 21.2558 26.7537 14.5 26.7537Z" fill="white"/>
</svg>
