<svg width="238" height="85" viewBox="0 0 238 85" fill="none" xmlns="http://www.w3.org/2000/svg">
<rect width="238" height="85" fill="white"/>
<path d="M7 47.084V44.1975H57.3856L34.0143 57.0911L7 47.084Z" fill="#00CCCC"/>
<path d="M30.0915 59.259L7 72V50.7078L30.0915 59.259Z" fill="#00CCCC"/>
<path d="M7 37.91V40.8028H57.3856L34.0143 27.9092L7 37.91Z" fill="#00CCCC"/>
<path d="M30.0915 25.741L7 13V34.2923L30.0915 25.741Z" fill="#00CCCC"/>
<path d="M88.2783 20.9474C90.6902 20.8864 93.0935 21.2589 95.3737 22.0473C97.3306 22.7892 99.1521 23.8481 100.765 25.1817L97.1348 29.5304C95.957 28.5207 94.6036 27.7363 93.1421 27.2162C91.685 26.7091 90.1517 26.4553 88.609 26.4659C86.5947 26.4495 84.6149 26.9885 82.8869 28.0236C80.9949 29.2416 79.5302 31.0196 78.6971 33.1098C77.646 35.4495 77.1204 38.5733 77.1204 42.4812C77.1204 46.2959 77.6206 49.3795 78.6208 51.7318C79.4237 53.8173 80.8629 55.5969 82.7343 56.8181C84.5015 57.885 86.5322 58.4357 88.5962 58.4075C90.4976 58.4745 92.3887 58.1002 94.1212 57.314C95.501 56.6358 96.7999 55.804 97.9931 54.8345L101.356 59.1323C99.6269 60.7708 97.5893 62.0495 95.3618 62.8942C93.1342 63.739 90.7611 64.1329 88.3801 64.0533C85.0637 64.1033 81.7968 63.2458 78.9324 61.5737C76.067 59.8413 73.7708 57.3086 72.3266 54.2877C70.7117 51.0833 69.9043 47.1394 69.9043 42.4558C69.9043 37.7722 70.735 33.8516 72.3966 30.6939C73.8478 27.7284 76.1131 25.2371 78.9277 23.5112C81.7423 21.7853 84.9899 20.8961 88.2911 20.9474H88.2783Z" fill="#2C3E50" fill-opacity="0.77"/>
<path d="M131.613 30.935C130.775 30.774 129.923 30.6974 129.07 30.7061C126.639 30.6011 124.247 31.3401 122.299 32.7978C120.362 34.4374 118.852 36.5233 117.899 38.8759L116.666 31.5199H106.875V36.2946H111.529V58.4325H106.875V63.2263H124.677V58.4325H118.262V46.6579C119.22 43.5001 120.536 41.0566 122.21 39.3273C122.946 38.5435 123.832 37.9147 124.814 37.478C125.797 37.0413 126.857 36.8054 127.932 36.7842V43.2056H132.739L133.877 31.5199C133.134 31.281 132.378 31.0856 131.613 30.935Z" fill="#2C3E50"/>
<path d="M155.244 31.5205V58.3123H165.448V63.2269H139.025V58.3123H148.518V36.4478H139.324V31.5205H155.244ZM150.558 15.9948C151.142 15.9714 151.724 16.0658 152.27 16.2722C152.816 16.4786 153.315 16.793 153.737 17.1964C154.137 17.5852 154.452 18.0525 154.662 18.569C154.872 19.0855 154.973 19.6399 154.958 20.1973C154.971 20.7592 154.87 21.3178 154.66 21.8392C154.45 22.3606 154.136 22.8338 153.737 23.2299C152.87 24.0252 151.735 24.4664 150.558 24.4664C149.381 24.4664 148.247 24.0252 147.38 23.2299C146.978 22.8353 146.661 22.3627 146.449 21.8412C146.237 21.3196 146.134 20.7602 146.146 20.1973C146.132 19.6389 146.235 19.0837 146.447 18.567C146.659 18.0504 146.977 17.5836 147.38 17.1964C147.801 16.7921 148.3 16.4772 148.846 16.2706C149.392 16.0641 149.975 15.9703 150.558 15.9948Z" fill="#2C3E50"/>
<path d="M179.127 35.3032C180.165 33.9187 181.479 32.7647 182.986 31.9145C184.468 31.0881 186.14 30.6629 187.837 30.6811C190.622 30.6811 192.879 31.3656 194.608 32.7346C196.433 34.2408 197.762 36.2611 198.423 38.533C199.289 41.3838 199.701 44.3532 199.644 47.3322C199.691 50.2697 199.202 53.1913 198.2 55.9533C197.363 58.2949 195.879 60.3514 193.922 61.8852C191.926 63.3706 189.485 64.1349 186.998 64.0532C185.394 64.1165 183.799 63.7918 182.348 63.1066C180.897 62.4215 179.633 61.3961 178.663 60.1177L178.313 63.2267H172.4V18.7856L179.127 18.0354V35.3032ZM185.345 58.9161C186.396 58.9529 187.438 58.7141 188.369 58.2234C189.299 57.7326 190.084 57.007 190.647 56.1186C191.893 54.2579 192.519 51.3355 192.523 47.3512C192.579 45.1294 192.327 42.9106 191.773 40.7582C191.429 39.3263 190.66 38.032 189.566 37.0452C188.552 36.2533 187.293 35.8397 186.006 35.8754C184.567 35.8545 183.165 36.3331 182.039 37.2296C180.901 38.1232 179.918 39.197 179.127 40.4085V55.2476C179.816 56.3389 180.744 57.2587 181.842 57.937C182.893 58.5889 184.108 58.9285 185.345 58.9161Z" fill="#2C3E50"/>
<path d="M216.071 18.7854V54.5862C216.071 56.0485 216.516 57.0848 217.406 57.6952C218.442 58.3485 219.653 58.6701 220.877 58.617C221.758 58.6221 222.635 58.5196 223.49 58.3119C224.307 58.1138 225.11 57.8632 225.894 57.5616L227.617 62.2473C226.508 62.7936 225.344 63.2199 224.145 63.5189C222.608 63.897 221.03 64.0786 219.447 64.0593C216.264 64.0593 213.786 63.1629 212.015 61.37C210.243 59.5771 209.357 57.1187 209.357 53.9949V23.7381H201.34V18.7854H216.071Z" fill="#2C3E50"/>
<path d="M225.71 20.4199L225.023 19.1801H224.546V20.4199H223.98V17.241H225.074C225.71 17.241 226.244 17.4762 226.244 18.1883C226.255 18.3892 226.199 18.5881 226.083 18.753C225.968 18.9179 225.801 19.0393 225.608 19.0974L226.346 20.4199H225.71ZM224.553 18.7223H224.998C225.436 18.7223 225.665 18.538 225.665 18.1819C225.665 17.8259 225.436 17.6924 224.998 17.6924H224.553V18.7223Z" fill="white"/>
<path d="M225.074 21.602C226.63 21.602 227.891 20.341 227.891 18.7855C227.891 17.23 226.63 15.969 225.074 15.969C223.519 15.969 222.258 17.23 222.258 18.7855C222.258 20.341 223.519 21.602 225.074 21.602Z" stroke="white" stroke-miterlimit="10"/>
</svg>
