<svg width="238" height="85" viewBox="0 0 238 85" fill="none" xmlns="http://www.w3.org/2000/svg">
<path d="M7 34.084V31.1975H57.3856L34.0143 44.0911L7 34.084Z" fill="#00CCCC"/>
<path d="M30.0915 46.259L7 59V37.7078L30.0915 46.259Z" fill="#00CCCC"/>
<path d="M7 24.91V27.8028H57.3856L34.0143 14.9092L7 24.91Z" fill="#00CCCC"/>
<path d="M30.0915 12.741L7 0V21.2923L30.0915 12.741Z" fill="#00CCCC"/>
<path d="M88.2783 7.94736C90.6902 7.88635 93.0935 8.2589 95.3737 9.04726C97.3306 9.7892 99.1521 10.8481 100.765 12.1817L97.1348 16.5304C95.957 15.5207 94.6036 14.7363 93.1421 14.2162C91.685 13.7091 90.1517 13.4553 88.609 13.4659C86.5947 13.4495 84.6149 13.9885 82.8869 15.0236C80.9949 16.2416 79.5302 18.0196 78.6971 20.1098C77.646 22.4495 77.1204 25.5733 77.1204 29.4812C77.1204 33.2959 77.6206 36.3795 78.6208 38.7318C79.4237 40.8173 80.8629 42.5969 82.7343 43.8181C84.5015 44.885 86.5322 45.4357 88.5962 45.4075C90.4976 45.4745 92.3887 45.1002 94.1212 44.314C95.501 43.6358 96.7999 42.804 97.9931 41.8345L101.356 46.1323C99.6269 47.7708 97.5893 49.0495 95.3618 49.8942C93.1342 50.739 90.7611 51.1329 88.3801 51.0533C85.0637 51.1033 81.7968 50.2458 78.9324 48.5737C76.067 46.8413 73.7708 44.3086 72.3266 41.2877C70.7117 38.0833 69.9043 34.1394 69.9043 29.4558C69.9043 24.7722 70.735 20.8516 72.3966 17.6939C73.8478 14.7284 76.1131 12.2371 78.9277 10.5112C81.7423 8.78533 84.9899 7.89607 88.2911 7.94736H88.2783Z" fill="#2C3E50" fill-opacity="0.77"/>
<path d="M131.613 17.935C130.775 17.774 129.923 17.6974 129.07 17.7061C126.639 17.6011 124.247 18.3401 122.299 19.7978C120.362 21.4374 118.852 23.5233 117.899 25.8759L116.666 18.5199H106.875V23.2946H111.529V45.4325H106.875V50.2263H124.677V45.4325H118.262V33.6579C119.22 30.5001 120.536 28.0566 122.21 26.3273C122.946 25.5435 123.832 24.9147 124.814 24.478C125.797 24.0413 126.857 23.8054 127.932 23.7842V30.2056H132.739L133.877 18.5199C133.134 18.281 132.378 18.0856 131.613 17.935V17.935Z" fill="#2C3E50"/>
<path d="M155.244 18.5205V45.3123H165.448V50.2269H139.025V45.3123H148.518V23.4478H139.324V18.5205H155.244ZM150.558 2.99477C151.142 2.9714 151.724 3.06575 152.27 3.2722C152.816 3.47864 153.315 3.79296 153.737 4.19639C154.137 4.58518 154.452 5.05254 154.662 5.56902C154.872 6.0855 154.973 6.6399 154.958 7.19727C154.971 7.75917 154.87 8.31784 154.66 8.83924C154.45 9.36063 154.136 9.83382 153.737 10.2299C152.87 11.0252 151.735 11.4664 150.558 11.4664C149.381 11.4664 148.247 11.0252 147.38 10.2299C146.978 9.83535 146.661 9.36273 146.449 8.84117C146.237 8.31962 146.134 7.76018 146.146 7.19727C146.132 6.63887 146.235 6.08368 146.447 5.56703C146.659 5.05039 146.977 4.58361 147.38 4.19639C147.801 3.79205 148.3 3.47715 148.846 3.27065C149.392 3.06414 149.975 2.9703 150.558 2.99477V2.99477Z" fill="#2C3E50"/>
<path d="M179.127 22.3032C180.165 20.9187 181.479 19.7647 182.986 18.9145C184.468 18.0881 186.14 17.6629 187.837 17.6811C190.622 17.6811 192.879 18.3656 194.608 19.7346C196.433 21.2408 197.762 23.2611 198.423 25.533C199.289 28.3838 199.701 31.3532 199.644 34.3322C199.691 37.2697 199.202 40.1913 198.2 42.9533C197.363 45.2949 195.879 47.3514 193.922 48.8852C191.926 50.3706 189.485 51.1349 186.998 51.0532C185.394 51.1165 183.799 50.7918 182.348 50.1066C180.897 49.4215 179.633 48.3961 178.663 47.1177L178.313 50.2267H172.4V5.78562L179.127 5.0354V22.3032ZM185.345 45.9161C186.396 45.9529 187.438 45.7141 188.369 45.2234C189.299 44.7326 190.084 44.007 190.647 43.1186C191.893 41.2579 192.519 38.3355 192.523 34.3512C192.579 32.1294 192.327 29.9106 191.773 27.7582C191.429 26.3263 190.66 25.032 189.566 24.0452C188.552 23.2533 187.293 22.8397 186.006 22.8754C184.567 22.8545 183.165 23.3331 182.039 24.2296C180.901 25.1232 179.918 26.197 179.127 27.4085V42.2476C179.816 43.3389 180.744 44.2587 181.842 44.937C182.893 45.5889 184.108 45.9285 185.345 45.9161V45.9161Z" fill="#2C3E50"/>
<path d="M216.071 5.7854V41.5862C216.071 43.0485 216.516 44.0848 217.406 44.6952C218.442 45.3485 219.653 45.6701 220.877 45.617C221.758 45.6221 222.635 45.5196 223.49 45.3119C224.307 45.1138 225.11 44.8632 225.894 44.5616L227.617 49.2473C226.508 49.7936 225.344 50.2199 224.145 50.5189C222.608 50.897 221.03 51.0786 219.447 51.0593C216.264 51.0593 213.786 50.1629 212.015 48.37C210.243 46.5771 209.357 44.1187 209.357 40.9949V10.7381H201.34V5.7854H216.071Z" fill="#2C3E50"/>
<path d="M225.71 7.41987L225.023 6.1801H224.546V7.41987H223.98V4.24097H225.074C225.71 4.24097 226.244 4.47621 226.244 5.18828C226.255 5.38919 226.199 5.58811 226.083 5.75303C225.968 5.91794 225.801 6.03926 225.608 6.09745L226.346 7.41987H225.71ZM224.553 5.72233H224.998C225.436 5.72233 225.665 5.53796 225.665 5.18192C225.665 4.82588 225.436 4.69237 224.998 4.69237H224.553V5.72233Z" fill="white"/>
<path d="M225.074 8.60201C226.63 8.60201 227.891 7.34101 227.891 5.7855C227.891 4.22999 226.63 2.96899 225.074 2.96899C223.519 2.96899 222.258 4.22999 222.258 5.7855C222.258 7.34101 223.519 8.60201 225.074 8.60201Z" stroke="white" stroke-miterlimit="10"/>
</svg>
