<svg width="222" height="59" viewBox="0 0 222 59" fill="none" xmlns="http://www.w3.org/2000/svg">
<path d="M0 34.0837V31.1973H50.3856L27.0143 44.0909L0 34.0837Z" fill="#00CCCC"/>
<path d="M23.0915 46.2593L0 59.0003V37.708L23.0915 46.2593Z" fill="#00CCCC"/>
<path d="M0 24.91V27.8028H50.3856L27.0143 14.9092L0 24.91Z" fill="#00CCCC"/>
<path d="M23.092 12.741L0.000488281 0V21.2923L23.092 12.741Z" fill="#00CCCC"/>
<path d="M81.2783 7.94687C83.6902 7.88587 86.0935 8.25841 88.3737 9.04677C90.3306 9.78871 92.1521 10.8477 93.7651 12.1812L90.1348 16.5299C88.957 15.5202 87.6036 14.7358 86.1421 14.2157C84.685 13.7086 83.1517 13.4549 81.609 13.4654C79.5947 13.449 77.6149 13.988 75.8869 15.0231C73.9949 16.2411 72.5302 18.0191 71.6971 20.1094C70.646 22.449 70.1204 25.5728 70.1204 29.4808C70.1204 33.2954 70.6206 36.379 71.6208 38.7314C72.4237 40.8168 73.8629 42.5964 75.7343 43.8176C77.5015 44.8846 79.5322 45.4352 81.5962 45.407C83.4976 45.474 85.3887 45.0997 87.1212 44.3135C88.501 43.6353 89.7999 42.8036 90.9931 41.834L94.3564 46.1318C92.6269 47.7703 90.5893 49.049 88.3618 49.8938C86.1342 50.7385 83.7611 51.1325 81.3801 51.0528C78.0637 51.1028 74.7968 50.2454 71.9324 48.5732C69.067 46.8408 66.7708 44.3082 65.3266 41.2872C63.7117 38.0829 62.9043 34.1389 62.9043 29.4553C62.9043 24.7717 63.735 20.8511 65.3966 17.6934C66.8478 14.7279 69.1131 12.2366 71.9277 10.5107C74.7423 8.78484 77.9899 7.89558 81.2911 7.94687H81.2783Z" fill="#2C3E50" fill-opacity="0.77"/>
<path d="M124.613 17.935C123.775 17.774 122.923 17.6974 122.07 17.7061C119.639 17.6011 117.247 18.3401 115.299 19.7978C113.362 21.4374 111.852 23.5233 110.899 25.8759L109.666 18.5199H99.875V23.2946H104.529V45.4325H99.875V50.2263H117.677V45.4325H111.262V33.6579C112.22 30.5001 113.536 28.0566 115.21 26.3273C115.946 25.5435 116.832 24.9147 117.814 24.478C118.797 24.0413 119.857 23.8054 120.932 23.7842V30.2056H125.739L126.877 18.5199C126.134 18.281 125.378 18.0856 124.613 17.935Z" fill="#2C3E50"/>
<path d="M148.245 18.5208V45.3125H158.449V50.2271H132.026V45.3125H141.518V23.4481H132.325V18.5208H148.245ZM143.559 2.99501C144.142 2.97164 144.724 3.066 145.271 3.27244C145.817 3.47889 146.316 3.7932 146.738 4.19664C147.138 4.58543 147.452 5.05279 147.662 5.56926C147.872 6.08574 147.973 6.64014 147.959 7.19752C147.972 7.75941 147.87 8.31809 147.66 8.83948C147.45 9.36088 147.137 9.83406 146.738 10.2302C145.87 11.0255 144.736 11.4666 143.559 11.4666C142.382 11.4666 141.248 11.0255 140.38 10.2302C139.978 9.83559 139.662 9.36297 139.45 8.84142C139.238 8.31987 139.134 7.76042 139.147 7.19752C139.133 6.63911 139.235 6.08392 139.448 5.56728C139.66 5.05063 139.977 4.58385 140.38 4.19664C140.801 3.7923 141.3 3.4774 141.847 3.27089C142.393 3.06439 142.975 2.97055 143.559 2.99501Z" fill="#2C3E50"/>
<path d="M172.126 22.303C173.164 20.9184 174.478 19.7645 175.985 18.9142C177.467 18.0878 179.139 17.6627 180.836 17.6808C183.621 17.6808 185.878 18.3654 187.607 19.7344C189.432 21.2405 190.761 23.2609 191.422 25.5327C192.288 28.3835 192.7 31.353 192.643 34.3319C192.69 37.2695 192.201 40.191 191.199 42.9531C190.362 45.2946 188.878 47.3512 186.921 48.8849C184.925 50.3703 182.484 51.1346 179.997 51.0529C178.393 51.1163 176.798 50.7915 175.347 50.1064C173.896 49.4212 172.632 48.3959 171.662 47.1175L171.312 50.2264H165.399V5.78538L172.126 5.03516V22.303ZM178.344 45.9158C179.395 45.9527 180.437 45.7139 181.368 45.2231C182.298 44.7324 183.083 44.0068 183.646 43.1184C184.892 41.2577 185.518 38.3352 185.522 34.351C185.578 32.1292 185.326 29.9103 184.772 27.7579C184.428 26.3261 183.659 25.0317 182.565 24.045C181.551 23.2531 180.292 22.8395 179.005 22.8752C177.566 22.8543 176.164 23.3328 175.038 24.2294C173.9 25.1229 172.917 26.1968 172.126 27.4083V42.2474C172.815 43.3387 173.743 44.2585 174.841 44.9367C175.892 45.5887 177.107 45.9282 178.344 45.9158Z" fill="#2C3E50"/>
<path d="M209.07 5.78516V41.586C209.07 43.0482 209.515 44.0846 210.405 44.6949C211.441 45.3482 212.652 45.6698 213.876 45.6168C214.757 45.6219 215.634 45.5194 216.489 45.3116C217.306 45.1136 218.109 44.863 218.893 44.5614L220.616 49.2471C219.507 49.7934 218.343 50.2197 217.144 50.5187C215.607 50.8967 214.029 51.0783 212.446 51.0591C209.263 51.0591 206.785 50.1626 205.014 48.3697C203.242 46.5768 202.356 44.1185 202.356 40.9947V10.7379H194.339V5.78516H209.07Z" fill="#2C3E50"/>
<path d="M218.71 7.42011L218.023 6.18034H217.546V7.42011H216.98V4.24121H218.074C218.71 4.24121 219.244 4.47645 219.244 5.18852C219.255 5.38943 219.199 5.58836 219.083 5.75327C218.968 5.91818 218.801 6.0395 218.608 6.09769L219.346 7.42011H218.71ZM217.553 5.72258H217.998C218.436 5.72258 218.665 5.5382 218.665 5.18217C218.665 4.82613 218.436 4.69262 217.998 4.69262H217.553V5.72258Z" fill="white"/>
<path d="M218.073 8.60176C219.629 8.60176 220.89 7.34077 220.89 5.78526C220.89 4.22974 219.629 2.96875 218.073 2.96875C216.518 2.96875 215.257 4.22974 215.257 5.78526C215.257 7.34077 216.518 8.60176 218.073 8.60176Z" stroke="white" stroke-miterlimit="10"/>
</svg>
