<svg width="206" height="71" viewBox="0 0 206 71" fill="none" xmlns="http://www.w3.org/2000/svg">
<g clip-path="url(#clip0)">
<path d="M70.894 37.202C70.894 31.2376 67.2084 25.9962 61.6652 23.9779C61.9049 22.7128 62.0247 21.4476 62.0247 20.1523C62.0247 9.03692 53.0356 0 42.009 0C35.5369 0 29.5441 3.10268 25.7687 8.34409C23.911 6.89818 21.6337 6.11498 19.2666 6.11498C13.3937 6.11498 8.62953 10.9045 8.62953 16.8087C8.62953 18.104 8.86924 19.3691 9.28873 20.5439C3.77542 22.532 0 27.8638 0 33.7981C0 39.7925 3.71549 45.034 9.25876 47.0522C9.01905 48.2872 8.8992 49.5825 8.8992 50.8778C8.8992 61.9631 17.8583 70.9699 28.8849 70.9699C35.3571 70.9699 41.3498 67.8371 45.0953 62.5957C46.953 64.0717 49.2302 64.885 51.5974 64.885C57.4702 64.885 62.2345 60.0955 62.2345 54.1914C62.2345 52.8961 61.9948 51.6309 61.5753 50.4561C67.0886 48.468 70.894 43.1362 70.894 37.202Z" fill="white"/>
<path d="M27.8662 30.5753L43.3873 37.6844L59.0284 23.888C59.2681 22.7434 59.3579 21.6288 59.3579 20.4239C59.3579 10.7243 51.5075 2.83203 41.8592 2.83203C36.0762 2.83203 30.7127 5.69372 27.4467 10.4833L24.8398 24.0688L27.8662 30.5753Z" fill="#FED10A"/>
<path d="M11.8062 47.0822C11.5665 48.2268 11.4766 49.4016 11.4766 50.6066C11.4766 60.3363 19.357 68.2285 29.0353 68.2285C34.8482 68.2285 40.2716 65.3367 43.5377 60.5171L46.1145 46.9918L42.6687 40.3647L27.0876 33.2256L11.8062 47.0822Z" fill="#24BBB1"/>
<path d="M11.7164 20.0919L22.3535 22.6222L24.6907 10.4826C23.2524 9.36809 21.4546 8.76562 19.5969 8.76562C14.9825 8.76562 11.207 12.531 11.207 17.2001C11.207 18.1941 11.3868 19.1882 11.7164 20.0919Z" fill="#EF5098"/>
<path d="M10.7868 22.6523C6.05252 24.2187 2.72656 28.7974 2.72656 33.828C2.72656 38.738 5.75289 43.1059 10.2774 44.853L25.1993 31.2977L22.4726 25.4237L10.7868 22.6523Z" fill="#17A8E0"/>
<path d="M46.2344 60.5177C47.7026 61.6322 49.4704 62.2648 51.2982 62.2648C55.9126 62.2648 59.6881 58.4994 59.6881 53.8303C59.6881 52.8062 59.5083 51.8121 59.1787 50.9084L48.5715 48.4082L46.2344 60.5177Z" fill="#93C83E"/>
<path d="M48.3909 45.606L60.0768 48.3472C64.841 46.7808 68.137 42.2021 68.137 37.1414C68.137 32.2615 65.1106 27.8635 60.5861 26.1465L45.3047 39.6115L48.3909 45.606Z" fill="#0779A1"/>
<path d="M99.12 49.8539L100.528 49.7033L100.618 52.5951C96.9027 53.1072 93.7265 53.3783 91.0897 53.3783C87.584 53.3783 85.097 52.3541 83.6288 50.3058C82.1605 48.2574 81.4414 45.0643 81.4414 40.7568C81.4414 32.1416 84.8573 27.834 91.659 27.834C94.955 27.834 97.412 28.7678 99.0301 30.6053C100.648 32.4428 101.457 35.3647 101.457 39.3109L101.247 42.1123H85.1269C85.1269 44.8234 85.6064 46.8416 86.5952 48.1369C87.584 49.4322 89.2619 50.0949 91.689 50.0949C94.146 50.1551 96.603 50.0648 99.12 49.8539ZM97.8016 39.2205C97.8016 36.2082 97.3222 34.0694 96.3633 32.8344C95.4045 31.5994 93.8464 30.9668 91.689 30.9668C89.5316 30.9668 87.8836 31.6295 86.8049 32.9248C85.7262 34.2201 85.1569 36.3287 85.1269 39.2205H97.8016Z" fill="black"/>
<path d="M106.551 52.9266V17.6826H110.206V52.9266H106.551Z" fill="black"/>
<path d="M133.307 35.7866V47.866C133.307 49.101 136.334 49.342 136.334 49.342L136.154 52.5953C133.577 52.5953 131.45 52.8061 130.161 51.5711C127.225 52.8664 124.318 53.4086 121.382 53.4086C119.135 53.4086 117.427 52.776 116.258 51.4807C115.09 50.2156 114.49 48.3781 114.49 45.9682C114.49 43.5885 115.09 41.8112 116.288 40.6967C117.487 39.5821 119.374 38.8592 121.951 38.6182L129.622 37.8952V35.7866C129.622 34.1299 129.262 32.9249 128.543 32.202C127.824 31.479 126.835 31.1176 125.607 31.1176H115.988V27.8643H125.367C128.124 27.8643 130.131 28.4968 131.39 29.7921C132.678 31.0573 133.307 33.0755 133.307 35.7866ZM118.266 45.7875C118.266 48.7998 119.494 50.3059 121.981 50.3059C124.198 50.3059 126.386 49.9444 128.513 49.1914L129.622 48.7998V40.6967L122.401 41.3895C120.932 41.51 119.884 41.9317 119.224 42.6547C118.565 43.3776 118.266 44.4319 118.266 45.7875Z" fill="black"/>
<path d="M147.6 31.1468C144.065 31.1468 142.267 32.3819 142.267 34.8821C142.267 36.0268 142.686 36.8401 143.495 37.3221C144.304 37.804 146.162 38.286 149.069 38.7981C151.975 39.3102 154.013 40.003 155.211 40.9368C156.41 41.8405 157.009 43.5575 157.009 46.0879C157.009 48.6182 156.2 50.4557 154.582 51.6305C152.964 52.8053 150.627 53.4078 147.511 53.4078C145.503 53.4078 138.761 52.6547 138.761 52.6547L138.971 49.4616C142.836 49.8231 145.653 50.1244 147.541 50.1244C149.428 50.1244 150.866 49.8231 151.855 49.2207C152.844 48.6182 153.353 47.594 153.353 46.1782C153.353 44.7624 152.934 43.7985 152.095 43.2864C151.256 42.7743 149.398 42.2924 146.522 41.8405C143.645 41.3887 141.608 40.726 140.409 39.8223C139.211 38.9487 138.611 37.2919 138.611 34.9122C138.611 32.5325 139.45 30.7552 141.128 29.6106C142.806 28.4659 144.904 27.8936 147.391 27.8936C149.368 27.8936 156.26 28.4056 156.26 28.4056V31.6288C152.634 31.4179 149.668 31.1468 147.6 31.1468Z" fill="black"/>
<path d="M174.688 31.5685H166.928V43.3165C166.928 46.118 167.137 47.9856 167.527 48.8592C167.946 49.7327 168.905 50.1846 170.433 50.1846L174.778 49.8834L175.018 52.9258C172.83 53.2873 171.182 53.468 170.044 53.468C167.497 53.468 165.759 52.8354 164.77 51.6004C163.781 50.3653 163.302 47.9856 163.302 44.4913V31.5685H159.826V28.3755H163.302V20.8447H166.928V28.3454H174.688V31.5685Z" fill="black"/>
<path d="M179.781 22.803V18.5557H183.437V22.8331L179.781 22.803ZM179.781 52.9261V28.3758H183.437V52.9261H179.781Z" fill="black"/>
<path d="M199.319 27.8643C200.397 27.8643 202.225 28.0751 204.802 28.4667L205.97 28.6173L205.821 31.5995C203.214 31.2983 201.296 31.1477 200.068 31.1477C197.311 31.1477 195.423 31.8104 194.434 33.1358C193.446 34.4612 192.936 36.9313 192.936 40.5159C192.936 44.1006 193.386 46.6008 194.315 48.0166C195.243 49.4324 197.161 50.1252 200.098 50.1252L205.851 49.6733L206 52.7158C202.974 53.1676 200.697 53.4086 199.199 53.4086C195.393 53.4086 192.756 52.4145 191.318 50.4565C189.88 48.4985 189.131 45.185 189.131 40.5159C189.131 35.8469 189.91 32.5635 191.468 30.6958C193.056 28.8282 195.663 27.8643 199.319 27.8643Z" fill="black"/>
</g>
<defs>
<clipPath id="clip0">
<rect width="206" height="71" fill="white"/>
</clipPath>
</defs>
</svg>
