<svg width="685" height="503" viewBox="0 0 685 503" fill="none" xmlns="http://www.w3.org/2000/svg">
<path d="M367 490C449.843 490 517 422.843 517 340L517 48L68 48L68 490L367 490Z" fill="#F3F8FC"/>
<path d="M406 439L121 386L684 392L406 439Z" fill="#DAE2EA"/>
<g opacity="0.2">
<path opacity="0.2" d="M451.209 376.329C451.19 376.972 451.116 377.613 450.988 378.244C446.835 377.584 442.658 376.987 438.457 376.454C438.457 376.287 438.457 376.114 438.457 375.941C438.496 374.152 439.011 372.405 439.949 370.881C441.178 368.935 443.046 367.718 445.105 367.784C447.163 367.849 448.947 369.18 450.051 371.191C450.886 372.771 451.286 374.544 451.209 376.329Z" fill="#3F3D56"/>
<path opacity="0.2" d="M451.552 366.131C451.698 361.517 448.959 357.685 445.434 357.574C441.91 357.463 438.934 361.113 438.788 365.728C438.643 370.343 441.382 374.174 444.906 374.286C448.431 374.397 451.406 370.746 451.552 366.131Z" fill="#3F3D56"/>
<path opacity="0.2" d="M451.877 355.916C452.023 351.301 449.284 347.469 445.759 347.358C442.235 347.247 439.259 350.897 439.114 355.512C438.968 360.127 441.707 363.958 445.231 364.07C448.756 364.181 451.731 360.53 451.877 355.916Z" fill="#3F3D56"/>
<path opacity="0.2" d="M452.198 345.7C452.344 341.085 449.605 337.254 446.081 337.142C442.556 337.031 439.581 340.682 439.435 345.296C439.289 349.911 442.028 353.743 445.553 353.854C449.077 353.965 452.053 350.315 452.198 345.7Z" fill="#3F3D56"/>
<path opacity="0.2" d="M452.515 335.483C452.661 330.868 449.922 327.037 446.397 326.925C442.873 326.814 439.897 330.465 439.751 335.08C439.606 339.694 442.344 343.526 445.869 343.637C449.394 343.749 452.369 340.098 452.515 335.483Z" fill="#3F3D56"/>
<path d="M424.415 264.599C423.574 263.461 422.816 262.264 422.147 261.018L439.01 258.792L420.858 258.357C419.238 254.515 418.419 250.382 418.451 246.212C418.483 242.043 419.365 237.923 421.043 234.106L444.984 247.503L423.054 230.293C425.266 226.715 428.192 223.632 431.65 221.235C435.107 218.839 439.022 217.181 443.149 216.366C447.276 215.55 451.526 215.594 455.635 216.495C459.744 217.396 463.624 219.135 467.031 221.603C470.437 224.07 473.299 227.214 475.436 230.837C477.574 234.46 478.941 238.485 479.453 242.661C479.965 246.836 479.611 251.072 478.412 255.105C477.214 259.137 475.196 262.879 472.486 266.096C473.793 267.866 474.904 269.773 475.798 271.783L453.666 282.405L477.135 275.346C478.613 280.222 478.851 285.391 477.828 290.383C476.805 295.375 474.552 300.032 471.275 303.934C474.682 308.557 476.72 314.046 477.155 319.773C477.59 325.499 476.404 331.232 473.734 336.317C471.064 341.401 467.017 345.632 462.055 348.524C457.094 351.417 451.419 352.855 445.679 352.674C439.938 352.493 434.365 350.7 429.596 347.501C424.826 344.302 421.054 339.825 418.709 334.582C416.365 329.339 415.543 323.543 416.337 317.855C417.132 312.167 419.511 306.818 423.203 302.419C419.132 296.894 417.037 290.161 417.253 283.302C417.47 276.443 419.986 269.856 424.397 264.599H424.415Z" fill="#21D885"/>
<path opacity="0.1" d="M478.436 285.233C478.227 292.096 475.703 298.687 471.275 303.934C474.682 308.557 476.72 314.046 477.155 319.772C477.59 325.499 476.404 331.232 473.734 336.317C471.064 341.401 467.017 345.631 462.055 348.524C457.094 351.417 451.419 352.855 445.679 352.674C439.938 352.493 434.365 350.7 429.596 347.501C424.826 344.301 421.054 339.824 418.709 334.582C416.365 329.339 415.543 323.542 416.337 317.855C417.132 312.167 419.511 306.818 423.203 302.418C419.283 297.09 478.543 281.802 478.436 285.233Z" fill="#21D885"/>
</g>
<g opacity="0.2">
<path opacity="0.2" d="M360.508 376.329C360.489 376.972 360.415 377.613 360.287 378.244C356.134 377.584 351.957 376.987 347.756 376.454C347.756 376.287 347.756 376.114 347.756 375.941C347.795 374.152 348.31 372.405 349.248 370.881C350.477 368.935 352.345 367.718 354.403 367.784C356.462 367.849 358.246 369.18 359.35 371.191C360.185 372.771 360.585 374.544 360.508 376.329Z" fill="#3F3D56"/>
<path opacity="0.2" d="M360.842 366.134C360.988 361.52 358.249 357.688 354.724 357.577C351.2 357.465 348.224 361.116 348.079 365.731C347.933 370.346 350.672 374.177 354.196 374.289C357.721 374.4 360.696 370.749 360.842 366.134Z" fill="#3F3D56"/>
<path opacity="0.2" d="M361.168 355.919C361.314 351.304 358.575 347.472 355.05 347.361C351.526 347.25 348.551 350.9 348.405 355.515C348.259 360.13 350.998 363.961 354.522 364.073C358.047 364.184 361.022 360.533 361.168 355.919Z" fill="#3F3D56"/>
<path opacity="0.2" d="M361.488 345.702C361.634 341.087 358.895 337.256 355.371 337.144C351.846 337.033 348.871 340.684 348.725 345.298C348.579 349.913 351.318 353.745 354.843 353.856C358.367 353.967 361.343 350.317 361.488 345.702Z" fill="#3F3D56"/>
<path opacity="0.2" d="M361.807 335.486C361.953 330.871 359.214 327.04 355.689 326.928C352.165 326.817 349.189 330.468 349.043 335.083C348.898 339.697 351.636 343.529 355.161 343.64C358.686 343.752 361.661 340.101 361.807 335.486Z" fill="#3F3D56"/>
<path d="M333.713 264.599C332.873 263.461 332.115 262.264 331.446 261.018L348.309 258.792L330.157 258.357C328.537 254.515 327.718 250.382 327.75 246.212C327.782 242.043 328.664 237.923 330.342 234.106L354.282 247.503L332.353 230.293C334.565 226.715 337.491 223.632 340.949 221.235C344.406 218.839 348.321 217.181 352.448 216.366C356.574 215.55 360.825 215.594 364.934 216.495C369.043 217.396 372.922 219.135 376.329 221.603C379.736 224.07 382.598 227.214 384.735 230.837C386.873 234.46 388.24 238.485 388.752 242.661C389.264 246.836 388.91 251.072 387.711 255.105C386.512 259.137 384.495 262.879 381.785 266.096C383.092 267.866 384.203 269.773 385.097 271.783L362.965 282.405L386.434 275.346C387.912 280.222 388.15 285.391 387.127 290.383C386.103 295.375 383.851 300.032 380.574 303.934C383.981 308.557 386.019 314.046 386.454 319.773C386.889 325.499 385.703 331.232 383.033 336.317C380.363 341.401 376.315 345.632 371.354 348.524C366.393 351.417 360.718 352.855 354.977 352.674C349.237 352.493 343.664 350.7 338.895 347.501C334.125 344.302 330.353 339.825 328.008 334.582C325.663 329.339 324.841 323.543 325.636 317.855C326.431 312.167 328.81 306.818 332.502 302.419C328.431 296.894 326.336 290.161 326.552 283.302C326.769 276.443 329.284 269.856 333.696 264.599H333.713Z" fill="#21D885"/>
<path opacity="0.1" d="M387.735 285.234C387.526 292.097 385.002 298.688 380.574 303.935C383.981 308.558 386.019 314.047 386.454 319.773C386.889 325.5 385.703 331.233 383.033 336.317C380.363 341.402 376.315 345.632 371.354 348.525C366.393 351.418 360.718 352.856 354.977 352.675C349.237 352.494 343.664 350.701 338.895 347.502C334.125 344.302 330.353 339.825 328.008 334.583C325.663 329.34 324.841 323.543 325.636 317.856C326.431 312.168 328.81 306.819 332.502 302.419C328.582 297.091 387.842 281.803 387.735 285.234Z" fill="#21D885"/>
</g>
<g opacity="0.2">
<path opacity="0.2" d="M608.266 382.857C608.22 384.076 608.075 385.29 607.83 386.485C599.834 385.208 591.78 384.066 583.669 383.06C583.669 382.738 583.669 382.41 583.669 382.075C583.745 378.629 584.737 375.266 586.545 372.331C588.932 368.589 592.512 366.244 596.469 366.364C600.425 366.483 603.868 369.055 606.016 372.928C607.636 375.978 608.413 379.406 608.266 382.857Z" fill="#3F3D56"/>
<path opacity="0.2" d="M608.917 363.211C609.198 354.324 603.922 346.945 597.134 346.731C590.345 346.516 584.614 353.547 584.333 362.434C584.052 371.321 589.328 378.699 596.117 378.914C602.905 379.128 608.636 372.098 608.917 363.211Z" fill="#3F3D56"/>
<path opacity="0.2" d="M609.533 343.542C609.813 334.655 604.538 327.276 597.749 327.062C590.96 326.847 585.229 333.878 584.948 342.765C584.667 351.652 589.943 359.03 596.732 359.245C603.521 359.459 609.252 352.429 609.533 343.542Z" fill="#3F3D56"/>
<path opacity="0.2" d="M610.158 323.874C610.438 314.987 605.163 307.608 598.374 307.394C591.585 307.179 585.854 314.21 585.573 323.097C585.292 331.984 590.568 339.362 597.357 339.577C604.146 339.791 609.877 332.761 610.158 323.874Z" fill="#3F3D56"/>
<path opacity="0.2" d="M610.081 303.311C610.348 294.42 605.058 287.047 598.265 286.843C591.473 286.639 585.751 293.682 585.484 302.573C585.217 311.465 590.507 318.838 597.299 319.042C604.092 319.246 609.814 312.203 610.081 303.311Z" fill="#3F3D56"/>
<path d="M556.677 167.762C555.067 165.572 553.61 163.273 552.315 160.882L584.777 156.598L549.839 155.756C546.718 148.36 545.139 140.405 545.199 132.377C545.258 124.349 546.955 116.418 550.185 109.069L596.282 134.853L554.07 101.723C558.338 94.8514 563.975 88.9323 570.631 84.3348C577.287 79.7372 584.819 76.5599 592.757 75.0006C600.694 73.4414 608.868 73.5338 616.769 75.2719C624.669 77.0101 632.127 80.3569 638.677 85.1036C645.228 89.8503 650.73 95.8953 654.842 102.862C658.954 109.828 661.587 117.567 662.577 125.596C663.567 133.624 662.892 141.771 660.596 149.528C658.299 157.284 654.43 164.485 649.229 170.68C651.743 174.09 653.881 177.762 655.608 181.63L612.996 202.092L658.174 188.487C661.021 197.864 661.484 207.803 659.522 217.404C657.561 227.006 653.235 235.966 646.937 243.474C653.496 252.375 657.417 262.94 658.253 273.964C659.09 284.988 656.807 296.025 651.666 305.812C646.525 315.6 638.734 323.743 629.183 329.311C619.632 334.879 608.707 337.648 597.657 337.299C586.608 336.951 575.879 333.5 566.697 327.341C557.516 321.183 550.254 312.565 545.74 302.473C541.226 292.381 539.643 281.222 541.172 270.273C542.701 259.324 547.28 249.026 554.386 240.556C546.553 229.921 542.521 216.962 542.937 203.76C543.352 190.558 548.191 177.878 556.677 167.756V167.762Z" fill="#21D885"/>
<path opacity="0.1" d="M660.683 207.48C660.292 220.685 655.456 233.372 646.959 243.487C653.517 252.387 657.439 262.953 658.275 273.976C659.111 285 656.828 296.037 651.688 305.824C646.547 315.612 638.756 323.755 629.205 329.324C619.654 334.892 608.729 337.66 597.679 337.311C586.629 336.963 575.9 333.512 566.719 327.353C557.538 321.195 550.275 312.577 545.761 302.485C541.247 292.393 539.664 281.234 541.193 270.285C542.722 259.336 547.301 249.038 554.407 240.569C546.805 230.299 660.892 200.875 660.683 207.48Z" fill="#21D885"/>
</g>
<path d="M139.446 383.907L145.706 383.889H154.531L165.69 202.617L276.197 18.2119L271.393 13.0563V0L151.882 198.344L139.446 383.907Z" fill="#F1C0C0"/>
<path opacity="0.1" d="M146.375 383.889H154.532L165.691 202.617L276.198 18.2118L271.394 13.0562L157.408 199.854L146.375 383.889Z" fill="black"/>
<path d="M121 385.417L407.337 407.328L407.581 407.346L684.693 390.304L684.902 390.292V378.59L379.559 372.987L124.813 372.742H122.951L122.748 374.055L121 385.417Z" fill="#F1C0C0"/>
<path opacity="0.1" d="M121 385.417L407.337 407.328L407.581 407.346L684.693 390.304L684.902 390.077V378.835H684.657L407.337 388.096L124.813 372.742H124.771L124.27 373.07L122.748 374.055L121 385.417Z" fill="black"/>
<path opacity="0.1" d="M121 385.416L407.337 407.328V388.096L124.27 373.07L122.748 374.055L121 385.416Z" fill="black"/>
<path d="M271.357 12.8116L397.594 148.303L393.691 386.634L404.414 387.928L404.593 387.952H415.316L416.599 158.537L652.979 237.495L656.965 378.083L665.593 379.049L668.517 379.378L661.75 227.745L414.648 140.993L279.157 0.137207H271.357V12.8116Z" fill="#F1C0C0"/>
<path opacity="0.1" d="M415.626 154.151L416.599 158.537L652.978 237.495L656.964 378.082L665.593 379.049L658.826 234.571L415.626 154.151Z" fill="black"/>
<path opacity="0.1" d="M271.357 12.8116L397.594 148.303L393.691 386.634L404.414 387.928L407.338 140.504L271.357 0.137207V12.8116Z" fill="black"/>
<path d="M416.087 249.799L502.785 266.871L502.814 266.877L654.662 296.791L661.614 294.004L661.59 293.515L661.136 283.818L416.176 234.32L416.087 249.799Z" fill="#F1C0C0"/>
<path opacity="0.1" d="M502.812 266.878L654.659 296.792L661.611 294.005L661.587 293.516L502.812 266.878Z" fill="black"/>
<path d="M508.616 189.274L510.961 318.369L512.173 384.599L522.848 384.241L529.567 384.014L527.479 191.142L522.848 189.603L521.834 189.274H508.616Z" fill="#F1C0C0"/>
<path opacity="0.1" d="M508.714 189.244V189.274L510.963 318.369L512.175 384.599L522.85 384.241V189.244H508.714Z" fill="black"/>
<path d="M341.401 222.243C342.027 222.583 342.626 222.972 343.191 223.406C343.86 223.992 344.46 224.65 344.981 225.37C347.541 228.681 349.904 232.53 349.654 236.707C349.659 237.315 349.544 237.918 349.316 238.481C349.087 239.044 348.75 239.557 348.323 239.989C347.267 240.89 345.751 240.932 344.367 240.932C342.863 240.932 341.282 240.932 339.981 240.156C338.68 239.381 337.594 237.871 336.054 237.907C335.837 237.943 335.615 237.943 335.398 237.907C334.867 237.734 334.759 237.035 334.413 236.594C333.817 235.8 332.557 235.997 331.621 236.343C330.684 236.689 329.645 237.209 328.721 236.809C328.184 236.525 327.745 236.087 327.461 235.55C325.248 231.969 324.776 227.667 324.359 223.508C324.102 220.978 322.145 212.349 327.545 214.312C329.932 215.172 332.164 216.89 334.336 218.149L341.401 222.243Z" fill="#3F3D56"/>
<path d="M336.067 223.096C336.549 223.443 337.134 223.618 337.728 223.595C338.321 223.571 338.89 223.349 339.343 222.964C340.232 222.162 340.798 221.063 340.936 219.873C341.533 219.689 341.837 220.47 342.219 220.948C342.888 221.759 344.248 221.747 344.857 222.612C345.28 223.209 345.185 224.039 345.483 224.713C345.871 225.584 346.832 226.038 347.488 226.742C348.108 227.511 348.556 228.404 348.801 229.361L349.78 232.297C350.248 233.518 350.549 234.797 350.675 236.098C350.736 236.749 350.668 237.405 350.473 238.029C350.279 238.653 349.962 239.232 349.541 239.732C348.228 241.147 346.074 241.296 344.17 241.254C343.535 241.268 342.9 241.193 342.285 241.033C340.596 240.508 339.516 238.807 339.069 237.095C338.621 235.382 338.669 233.586 338.406 231.832C338.123 230.109 337.621 228.428 336.914 226.831C336.389 225.59 334.945 223.74 334.969 222.421C335.399 222.421 335.709 222.815 336.067 223.096Z" fill="#3F3D56"/>
<path d="M338.208 217.051C337.929 216.204 337.767 215.323 337.725 214.432C337.725 212.641 338.542 210.959 339.366 209.359L332.545 210.284C331.722 210.398 330.803 210.565 330.337 211.251C330.161 211.591 330.068 211.969 330.068 212.352C330.068 212.735 330.161 213.113 330.337 213.453C330.679 214.134 330.951 214.847 331.149 215.583C331.164 216.227 331.238 216.868 331.37 217.499C331.582 217.962 331.88 218.381 332.247 218.734C334.198 220.894 335.66 223.442 337.116 225.966C337.074 225.895 341.228 222.678 341.061 221.628C340.965 221.031 339.766 220.315 339.384 219.742C338.856 218.911 338.46 218.003 338.208 217.051Z" fill="#BE6F72"/>
<path d="M396.685 193.737V199.615L296.036 219.247L290.815 222.41H272.8V219.098L371.688 195.205L396.685 193.737Z" fill="#F1C0C0"/>
<path opacity="0.1" d="M396.685 199.615L296.036 219.247L290.815 222.41H272.8L372.422 201.089L396.685 199.615Z" fill="black"/>
<path d="M315.877 360.593C314.755 359.235 313.207 358.296 311.485 357.93C309.762 357.564 307.966 357.792 306.389 358.576C306.052 358.735 305.754 358.968 305.518 359.256C304.921 360.092 305.303 361.244 305.357 362.276C305.494 364.794 303.489 366.841 301.687 368.601C300.72 369.544 299.736 370.552 299.3 371.835C298.864 373.118 299.187 374.747 300.356 375.416C300.867 375.672 301.422 375.826 301.991 375.869C303.899 376.241 305.854 376.296 307.779 376.03C309.683 375.666 311.551 374.586 312.374 372.832C312.533 372.356 312.796 371.922 313.144 371.561C314.194 370.731 315.805 371.704 316.999 371.113C317.983 370.624 318.025 369.854 318.037 368.84C318.073 366.035 317.655 362.861 315.877 360.593Z" fill="#56DCE8"/>
<path d="M330.197 360.485C330.931 362.418 331.032 364.525 331.127 366.589C331.181 367.783 331.217 369.06 330.572 370.068C329.928 371.077 328.669 371.608 327.464 371.859C324.975 372.372 322.093 371.888 320.488 369.913C319.259 368.404 319.002 366.333 319.229 364.376C319.42 362.77 319.826 360.891 318.674 359.751C318.376 359.447 317.988 359.232 317.713 358.904C317.116 358.176 317.212 357.078 317.534 356.183C317.954 355.327 318.268 354.423 318.471 353.491C318.519 353.05 326.551 353.802 327.291 354.166C328.299 354.661 328.144 355.49 328.448 356.493C328.872 357.889 329.683 359.148 330.197 360.485Z" fill="#56DCE8"/>
<path d="M331.674 274.761C333.249 275.781 333.858 277.786 334.102 279.648C334.777 284.75 333.595 289.905 333.506 295.055C333.422 302.269 335.511 309.615 333.727 316.603C332.658 320.78 333.565 325.553 332.563 329.772C332.265 331.025 331.716 332.207 331.429 333.46C330.832 336.175 331.459 339.016 332.3 341.671C332.569 342.387 332.74 343.135 332.808 343.897C332.767 345.069 332.47 346.218 331.936 347.262L328.356 355.73C327.956 356.678 326.381 356.834 325.372 356.959C323.475 357.186 321.357 357.347 319.847 356.171C318.337 354.996 317.973 353.026 317.74 351.189C317.294 347.66 317.095 344.105 317.144 340.549C317.209 339.621 317.127 338.688 316.899 337.786C316.571 336.766 315.849 335.883 315.652 334.803C315.401 333.406 316.111 332.034 316.374 330.626C316.554 329.339 316.534 328.033 316.314 326.753C316.081 324.843 315.813 322.934 315.509 321.036C315.079 318.381 315.694 315.761 316.105 313.1C316.493 310.6 315.998 308.052 315.509 305.569C315.551 307.584 315.3 309.594 314.763 311.536C314.446 312.485 313.993 313.392 313.718 314.359C312.495 318.697 315.103 323.25 314.733 327.743C314.56 329.844 313.736 331.92 313.969 333.991C314.13 335.507 314.834 336.897 315.318 338.341C315.801 339.785 316.052 341.438 315.318 342.787C313.378 346.451 314.828 351.433 316.565 355.193C316.917 355.859 317.224 356.549 317.484 357.257C317.997 358.952 317.567 360.772 317.705 362.538C317.205 362.62 316.693 362.587 316.208 362.441C315.723 362.295 315.278 362.041 314.906 361.697C314.643 361.422 314.429 361.1 314.172 360.814C313.455 360.13 312.606 359.601 311.678 359.256C311.132 358.951 310.511 358.808 309.888 358.845C309.232 359.028 308.642 359.394 308.187 359.901C307.597 360.42 306.971 360.896 306.313 361.327C306.033 361.542 305.706 361.687 305.358 361.751C305.184 361.778 305.005 361.749 304.848 361.669C304.69 361.588 304.562 361.46 304.481 361.303C304.444 361.203 304.422 361.099 304.416 360.993C304.194 359.191 304.076 357.378 304.064 355.563C304.064 352.442 300.328 350.294 299.857 347.208C299.481 344.72 300.179 342.184 299.946 339.678C299.833 338.389 299.475 337.124 299.499 335.835C299.499 335 299.69 334.182 299.755 333.353C299.81 332.432 299.796 331.508 299.713 330.59L299.528 327.708C299.349 324.861 299.153 321.955 298.031 319.354C296.7 316.316 295.913 313.068 295.703 309.758C295.584 307.67 295.662 305.581 295.423 303.487C295.208 301.595 294.731 299.715 294.868 297.818C294.981 296.35 295.465 294.93 295.578 293.462C295.811 290.639 294.737 287.894 293.895 285.191C293.054 282.488 292.433 279.493 293.537 276.885C293.695 276.457 293.958 276.075 294.301 275.775C294.724 275.495 295.206 275.315 295.709 275.25C305.948 273.099 316.442 272.43 326.87 273.263C328.57 273.359 330.22 273.874 331.674 274.761Z" fill="#3F3D56"/>
<path d="M297.797 211.383C303.076 211.383 307.356 207.103 307.356 201.823C307.356 196.544 303.076 192.264 297.797 192.264C292.517 192.264 288.237 196.544 288.237 201.823C288.237 207.103 292.517 211.383 297.797 211.383Z" fill="#BE6F72"/>
<path d="M295.947 213.763C296.085 214.309 296.085 214.881 295.947 215.428C295.797 215.81 295.586 216.164 295.321 216.478C294.396 217.672 293.372 218.786 292.26 219.808C292.826 221.073 293.846 222.08 295.118 222.63C296.381 223.168 297.706 223.547 299.062 223.758C299.739 223.936 300.444 223.985 301.139 223.901C301.78 223.74 302.386 223.465 302.929 223.09L308.24 219.909C309.041 219.475 309.783 218.94 310.448 218.316C311.422 217.315 311.973 215.977 311.987 214.581C312.012 214.33 311.944 214.08 311.796 213.876C311.593 213.699 311.338 213.593 311.068 213.572C309.201 213.16 307.727 211.645 306.891 209.926C306.136 208.164 305.647 206.3 305.441 204.395L299.778 207.378C298.937 207.826 298.102 208.273 297.23 208.661C296.675 208.912 295.554 209.121 295.16 209.628C294.408 210.565 295.751 212.635 295.947 213.763Z" fill="#BE6F72"/>
<path d="M292.298 218.072C291.491 218.733 290.862 219.584 290.466 220.548C290.096 221.742 290.466 223.001 290.8 224.182C292.366 229.218 293.563 234.362 294.38 239.572C294.881 243.152 295.066 246.786 295.311 250.408C295.812 257.796 296.54 269.575 297.513 276.915C301.093 277.076 304.584 276.031 308.135 275.65C314.77 274.945 321.603 276.557 328.101 275.053C326.526 268.829 324.95 258.201 323.375 251.984C322.678 249.534 322.195 247.028 321.931 244.495C321.794 242.675 321.877 240.849 321.901 239.017C321.955 235.437 321.758 231.856 321.561 228.276C321.334 224.099 321.107 219.922 320.117 215.834C320.048 215.313 319.804 214.832 319.425 214.468C318.828 214.032 318.052 214.187 317.342 214.283C315.168 214.559 312.967 214.037 311.148 212.815C310.36 212.278 309.304 211.621 308.57 212.218C308.257 212.578 308.05 213.018 307.973 213.489C307.649 214.333 307.147 215.098 306.503 215.733C305.859 216.368 305.087 216.858 304.238 217.171C302.538 217.787 300.757 218.153 298.951 218.257C298.399 218.376 297.822 218.311 297.31 218.072C296.463 217.553 296.403 215.685 295.335 215.56C294.398 215.452 292.93 217.469 292.298 218.072Z" fill="#3F3D56"/>
<path d="M306.415 232.644C304.214 230.537 303.247 227.482 301.642 224.886C300.549 223.141 299.152 221.605 297.518 220.351C296.697 219.809 295.944 219.17 295.275 218.448C294.708 217.75 294.278 216.819 293.419 216.55C293.064 216.473 292.695 216.483 292.345 216.58C291.995 216.676 291.673 216.857 291.408 217.105C290.882 217.606 290.384 218.136 289.916 218.692C287.386 221.312 282.94 221.676 280.935 224.707C280.395 225.35 280.027 226.12 279.867 226.945C279.29 231.357 280.431 235.822 283.054 239.416C283.562 240.25 284.342 240.882 285.262 241.207C285.137 242.319 285.284 243.446 285.691 244.489C286.796 248.265 288.154 251.963 289.755 255.558C289.372 256.964 289.105 258.399 288.955 259.848C288.538 263.494 288.926 267.194 288.532 270.846C288.209 273.829 287.338 276.735 287.308 279.725C287.308 280.202 287.35 280.769 287.762 281.014C287.981 281.126 288.226 281.178 288.472 281.163L295.812 281.384C300.072 281.509 304.375 281.635 308.57 280.847C309.128 280.764 309.67 280.593 310.175 280.34C311.595 279.546 312.066 277.756 312.293 276.163C312.589 274.096 312.707 272.008 312.645 269.921C313.534 272.731 314.591 275.638 317.276 276.855C318.696 277.499 320.319 277.452 321.876 277.41C325.233 277.26 328.579 276.916 331.895 276.377C332.1 276.403 332.307 276.38 332.501 276.311C332.695 276.241 332.87 276.128 333.012 275.979C333.155 275.83 333.26 275.649 333.32 275.452C333.38 275.255 333.393 275.047 333.357 274.844L333.393 271.586C333.465 264.968 331.824 258.643 331.185 252.055C330.982 249.978 331 247.878 330.493 245.843C330.284 244.99 329.98 244.154 329.795 243.295C329.636 242.454 329.536 241.602 329.497 240.747L329.031 234.183C328.81 231.146 328.494 228.216 328.261 225.185C328.133 222.233 327.706 219.302 326.984 216.437C326.465 214.647 325.385 212.618 323.517 212.397C322.521 212.284 321.554 212.719 320.605 213.024C318.273 213.758 315.771 213.747 313.445 212.994C312.726 212.71 311.977 212.51 311.213 212.397C310.828 212.345 310.437 212.395 310.078 212.544C309.719 212.693 309.407 212.935 309.172 213.244C308.941 213.71 308.832 214.228 308.856 214.748C308.576 220.709 308.056 226.85 306.415 232.644Z" fill="#56DCE8"/>
<path d="M296.815 232.823C294.064 229.923 291.241 226.969 287.697 225.125C286.3 224.397 284.713 223.848 283.167 224.123C281.622 224.397 280.184 225.74 280.255 227.309C280.303 228.282 280.894 229.141 281.079 230.096C281.294 231.17 280.983 232.316 281.318 233.354C281.589 234.038 281.995 234.661 282.511 235.186L286.736 240.192C288.526 242.281 290.316 244.399 292.62 245.843C294.923 247.287 297.907 247.962 300.437 246.935C302.237 246.099 303.733 244.725 304.721 243.003C305.771 241.332 306.511 239.506 307.496 237.782C309.028 235.026 311.05 232.573 313.463 230.543C312.222 230.221 310.664 229.768 309.883 228.753C309.66 228.431 309.47 228.087 309.316 227.727L308.349 225.638C308.02 225.621 307.692 225.672 307.384 225.788C307.075 225.904 306.795 226.083 306.559 226.313C306.144 226.792 305.7 227.244 305.228 227.667C304.387 228.3 303.247 228.473 302.483 229.195C302.188 229.505 301.92 229.84 301.684 230.197C301.106 230.957 300.373 231.584 299.533 232.037C298.693 232.489 297.766 232.757 296.815 232.823Z" fill="#3F3D56"/>
<path d="M313.685 220.345C315.756 216.568 315.66 212.039 316.251 207.772C316.315 206.642 316.712 205.557 317.391 204.652C318.584 203.303 320.691 203.285 322.493 203.458C323.024 203.518 323.686 203.768 323.656 204.299C323.615 204.49 323.522 204.665 323.388 204.807C321.641 207.061 320.614 209.789 320.44 212.636C321.377 213.286 322.827 211.949 323.728 212.636C324.325 213.137 324.05 214.127 323.692 214.844C322.861 216.502 322.004 218.149 321.12 219.784C320.415 221.226 319.496 222.551 318.393 223.717C317.636 224.445 316.746 225.018 315.977 225.734C314.186 227.41 313.106 229.779 311.257 231.414C311.1 231.584 310.889 231.692 310.66 231.719C310.424 231.702 310.203 231.603 310.033 231.438C309.109 230.687 308.343 229.76 307.778 228.711C307.074 227.41 307.181 227.029 308.291 226.11C310.367 224.469 312.39 222.708 313.685 220.345Z" fill="#BE6F72"/>
<path d="M293.351 230.257C293.709 230.477 294.15 230.728 294.544 230.543C294.705 230.446 294.842 230.313 294.944 230.155C295.626 229.245 296.195 228.255 296.639 227.207C296.715 227.059 296.758 226.896 296.764 226.73C296.764 226.348 296.424 226.068 296.108 225.847C294.413 224.767 292.591 223.901 290.684 223.269C289.108 222.672 287.461 222.153 285.79 222.302C285.163 222.344 284.55 222.513 283.989 222.798C283.428 223.083 282.93 223.479 282.526 223.961C281.333 225.495 283.332 225.96 284.585 226.515C287.485 227.834 290.624 228.598 293.351 230.257Z" fill="#3AB5C0"/>
<path opacity="0.1" d="M291.47 240.401C291.45 240.537 291.462 240.676 291.506 240.807C291.549 240.938 291.623 241.056 291.721 241.153C291.894 240.306 291.667 239.411 291.846 238.557C292.109 237.274 293.356 236.308 293.463 235.019C291.178 234.571 291.488 239.017 291.47 240.401Z" fill="black"/>
<path opacity="0.2" d="M396.683 193.737V199.615L372.42 201.089L371.687 195.205L396.683 193.737Z" fill="black"/>
<path d="M289.19 203.243C290.706 202.008 289.829 199.418 290.855 197.759C291.452 196.852 292.46 196.375 293.451 195.969C294.646 195.41 295.927 195.055 297.24 194.919C297.897 194.856 298.561 194.942 299.18 195.17C299.8 195.398 300.361 195.763 300.82 196.238C301.208 196.679 301.471 197.216 301.835 197.676C302.285 198.212 302.873 198.616 303.535 198.845C304.197 199.074 304.908 199.12 305.594 198.977C306.388 198.798 307.211 198.195 307.157 197.383C307.068 196.89 306.816 196.44 306.441 196.107L304.735 194.215C302.795 192.067 300.641 189.787 297.795 189.25C295.814 188.874 293.785 189.405 291.875 190.044C291.106 190.3 290.24 190.682 290.025 191.464C289.882 192.001 290.097 192.586 289.972 193.129C289.727 194.209 288.343 194.573 287.698 195.48C287.054 196.387 287.251 197.461 287.066 198.464C286.881 199.466 286.344 200.445 286.278 201.483C286.236 202.11 286.553 203.273 287.257 203.5C287.961 203.727 288.754 202.497 289.19 203.243Z" fill="#3F3D56"/>
<path d="M306.579 196.524C306.076 193.899 304.992 191.419 303.405 189.268C301.994 187.258 300.031 185.699 297.754 184.781C296.615 184.336 295.391 184.155 294.173 184.251C292.954 184.347 291.773 184.718 290.719 185.336C289.153 186.453 287.935 187.99 287.204 189.769C285.658 193.099 285.086 197.169 286.882 200.367C287.598 199.496 288.827 199.89 289.913 199.573C291.274 199.185 292.425 198.278 293.72 197.712C297.629 195.987 302.402 197.383 306.579 196.524Z" fill="#FBBC05"/>
<path opacity="0.1" d="M287.797 196.339C287.66 195.265 287.57 194.018 288.334 193.254C288.372 193.207 288.42 193.17 288.475 193.145C288.53 193.12 288.59 193.108 288.65 193.111C288.704 193.128 288.753 193.156 288.795 193.193C288.837 193.23 288.871 193.275 288.895 193.325C289.336 194.021 289.711 194.756 290.017 195.521C289.572 195.419 289.107 195.452 288.681 195.617C288.256 195.782 287.889 196.071 287.63 196.446" fill="black"/>
<path opacity="0.1" d="M301.74 193.308L301.526 191.178C301.491 191.002 301.505 190.82 301.567 190.653C301.657 190.512 301.796 190.41 301.957 190.366C302.118 190.322 302.29 190.339 302.439 190.414C302.732 190.577 302.974 190.818 303.137 191.112C303.633 191.875 304.046 192.689 304.366 193.541C303.405 193.356 302.416 193.368 301.46 193.576" fill="black"/>
<path opacity="0.1" d="M307.082 279.767V284.636L302.971 284.91H281.346V279.767H307.082Z" fill="black"/>
<path d="M307.082 279.767V284.911H281.345L212.973 199.264V195.218H227.306L307.082 279.767Z" fill="#F1C0C0"/>
<path opacity="0.1" d="M307.082 279.767V284.911H281.345L212.973 199.264V195.218H227.306L307.082 279.767Z" fill="black"/>
<path opacity="0.1" d="M307.082 279.767V284.911H281.345L212.973 199.264V195.218L281.715 279.767H307.082Z" fill="black"/>
<path d="M221.934 365.611C221.979 365.853 221.973 366.102 221.918 366.342C221.862 366.582 221.758 366.808 221.611 367.005C221.464 367.203 221.279 367.368 221.065 367.491C220.852 367.613 220.615 367.691 220.37 367.718C218.711 368.279 216.951 368.833 215.776 370.105C214.6 371.376 214.367 373.733 215.776 374.765C216.495 375.199 217.322 375.424 218.162 375.415C220.866 375.6 223.682 375.565 226.135 374.419C227.889 373.607 229.542 372.223 231.469 372.348C232.466 372.408 233.528 372.873 234.417 372.42C235.306 371.966 235.557 370.701 235.563 369.645C235.585 367.44 235.253 365.246 234.578 363.147C234.489 362.86 230.694 362.64 230.24 362.55L225.639 361.953C224.768 361.84 222.889 361.184 222.202 361.912C221.516 362.64 221.934 364.746 221.934 365.611Z" fill="#56DCE8"/>
<path d="M249.389 350.717C249.584 351.791 249.9 352.84 250.332 353.844C250.97 355.467 251.788 357.191 253.351 357.979C254.771 358.689 256.514 358.432 257.958 357.758C258.561 357.508 259.089 357.108 259.492 356.594C259.957 355.782 260.165 354.848 260.088 353.915C260.088 351.606 259.951 349.219 258.895 347.166C257.988 345.376 256.406 343.837 256.383 341.855L250.946 342.906C250.655 342.934 250.378 343.043 250.147 343.222C249.975 343.403 249.855 343.628 249.801 343.872C249.22 346.105 249.081 348.43 249.389 350.717Z" fill="#56DCE8"/>
<path d="M184.476 294.029C184.249 295.95 184.345 298.009 185.347 299.668C186.35 301.327 188.462 302.425 190.288 301.762C190.381 301.738 190.469 301.696 190.546 301.638C190.623 301.579 190.687 301.506 190.735 301.422C190.784 301.221 190.756 301.008 190.658 300.826C189.852 298.674 189.918 296.293 190.843 294.19C190.962 293.915 191.219 293.593 191.499 293.701C191.617 293.76 191.711 293.857 191.768 293.975C192.057 294.475 192.201 295.045 192.186 295.622C192.101 296.145 192.085 296.676 192.138 297.203C192.251 297.717 192.8 298.2 193.278 297.979C193.416 297.894 193.535 297.782 193.628 297.65C193.722 297.518 193.787 297.368 193.821 297.209C195.151 293.361 194.549 289.154 193.94 285.126C193.945 285.033 193.93 284.941 193.895 284.855C193.861 284.769 193.807 284.692 193.74 284.628C193.672 284.565 193.591 284.518 193.503 284.489C193.415 284.461 193.322 284.452 193.23 284.463C190.413 284.183 188.874 283.509 187.263 286.128C185.878 288.336 184.476 291.373 184.476 294.029Z" fill="#56DCE8"/>
<path d="M217.4 284.236C216.565 287.709 215.724 291.224 215.67 294.792C215.685 297.015 215.852 299.234 216.171 301.434L216.798 306.601C217.013 308.344 217.221 310.08 217.526 311.805C217.72 312.693 217.826 313.598 217.842 314.508C217.783 315.404 217.642 316.293 217.418 317.163C217.043 318.99 216.833 320.848 216.792 322.713C216.726 325.696 217.096 328.68 217.329 331.663C217.793 337.609 217.724 343.584 217.12 349.517C216.879 351.119 217.227 352.753 218.099 354.118C218.452 354.548 218.744 355.026 218.964 355.538C219.411 356.905 218.367 358.271 218.099 359.674C217.927 360.767 218.196 361.884 218.847 362.779C219.498 363.674 220.478 364.274 221.572 364.447C226.345 365.014 231.25 364.758 235.553 366.942C236.006 365.617 235.016 364.113 235.469 362.765C235.756 361.929 236.543 361.386 237.08 360.682C237.802 359.609 238.161 358.334 238.107 357.042C238.128 355.356 237.828 353.681 237.223 352.107C236.716 350.794 235.988 349.499 236.03 348.091C236.03 347.399 236.275 346.671 235.994 346.032C235.802 345.666 235.541 345.339 235.224 345.072C233.441 343.118 232.345 340.635 232.104 338.001C231.871 335.386 231.955 332.754 232.354 330.16C232.647 327.689 233.04 325.082 234.61 323.154C233.882 317.31 234.31 311.379 235.869 305.7C236.024 305.175 236.269 304.566 236.806 304.441C237.019 304.419 237.235 304.449 237.434 304.528C237.633 304.607 237.811 304.733 237.951 304.895C238.888 305.772 239.336 307.043 239.742 308.26C240.189 309.579 240.643 310.987 240.303 312.336C240.159 312.932 239.873 313.457 239.706 314.03C239.343 315.181 239.406 316.425 239.885 317.533C240.118 317.938 240.264 318.387 240.315 318.852C240.259 319.251 240.138 319.638 239.956 319.998C239.735 320.704 239.665 321.448 239.75 322.183C239.836 322.919 240.075 323.627 240.452 324.264C241.212 325.531 242.151 326.683 243.238 327.683C242.719 329.974 242.853 332.364 243.626 334.581C243.682 334.681 243.718 334.791 243.731 334.905C243.744 335.018 243.735 335.134 243.704 335.244C243.596 335.471 243.322 335.554 243.107 335.715C242.51 336.204 242.88 337.129 243.28 337.768C244.376 339.52 245.586 341.199 246.902 342.792C248.096 344.218 247.988 346.969 249.767 347.483C250.514 347.644 251.287 347.644 252.034 347.483C253.788 347.214 255.746 346.707 256.605 345.155C256.957 344.517 257.1 343.741 257.649 343.264C258.198 342.786 258.908 342.703 259.213 342.13C259.517 341.557 259.177 340.805 259.278 340.143C259.38 339.48 259.959 338.949 260.144 338.251C260.585 336.64 258.705 335.315 258.449 333.668C258.079 331.282 261.086 329.491 260.961 327.104C260.699 321.919 260.531 316.71 260.263 311.524C259.926 306.879 259.878 302.218 260.12 297.567C260.329 294.673 260.716 291.641 259.654 288.95C258.127 285.155 253.914 283.025 249.838 282.619C245.763 282.213 241.699 283.18 237.659 283.812C230.954 284.846 224.142 284.988 217.4 284.236Z" fill="#3F3D56"/>
<path d="M229.512 227.202C234.791 227.202 239.071 222.922 239.071 217.642C239.071 212.363 234.791 208.083 229.512 208.083C224.232 208.083 219.952 212.363 219.952 217.642C219.952 222.922 224.232 227.202 229.512 227.202Z" fill="#FBBEBE"/>
<path d="M225.623 228.986C225.299 229.742 224.752 230.382 224.057 230.822C223.361 231.262 222.549 231.481 221.727 231.45C221.381 232.882 222.21 234.326 223.159 235.454C225.129 237.747 227.675 239.472 230.534 240.453C233.394 241.434 236.463 241.634 239.425 241.033C240.578 240.827 241.672 240.371 242.63 239.697C243.921 238.619 244.788 237.117 245.076 235.46C245.351 233.814 245.429 232.142 245.309 230.477C245.343 230.149 245.249 229.82 245.047 229.558C244.808 229.374 244.513 229.277 244.211 229.284C242.194 229.105 240.088 229.027 238.316 228.037C236.543 227.046 235.284 224.809 236.137 222.971C236 223.257 232.515 223.394 232.056 223.454C230.618 223.657 229.18 223.884 227.748 224.146C227.059 224.184 226.379 224.312 225.725 224.528C224.859 224.976 225.182 224.755 225.385 225.566C225.689 226.808 226.136 227.697 225.623 228.986Z" fill="#FBBEBE"/>
<path d="M232.898 234.798C231.611 234.812 230.326 234.67 229.073 234.374C227.808 234.078 226.693 233.334 225.934 232.279C225.493 231.611 225.206 230.77 224.502 230.394C223.351 229.797 222.038 230.806 221.119 231.73C220.282 232.643 219.313 233.423 218.243 234.046C216.966 234.72 215.474 234.959 214.269 235.752C213.327 236.464 212.519 237.337 211.882 238.33L203.426 249.847C200.031 254.477 197.077 259.448 194.052 264.335C191.432 268.566 190.06 273.435 188.084 278C187.928 278.28 187.863 278.601 187.899 278.919C187.971 279.229 188.347 279.48 188.61 279.301C187.72 280.184 188.502 281.688 188.293 282.929C188.056 283.798 187.561 284.574 186.873 285.155C188.186 284.984 189.52 285.046 190.811 285.34C192.146 285.718 193.406 286.324 194.535 287.13C195.257 287.017 195.191 285.734 195.728 285.256C196.051 284.976 196.528 285.012 196.952 284.928C198.545 284.618 199.177 282.702 200.401 281.622C201.421 280.721 202.865 280.429 203.945 279.582C205.7 278.203 206.076 275.751 206.994 273.716C207.776 271.991 209.005 270.488 209.692 268.721C210.139 267.576 210.354 266.334 210.993 265.278C212.013 263.572 213.934 262.664 215.766 261.847C216.924 261.328 218.153 260.791 219.4 260.874C219.335 263.649 218.983 266.382 219.585 269.091C219.794 270.046 220.087 270.977 220.337 271.926C221.477 276.198 221.745 280.65 221.799 285.053C224.541 284.426 227.341 284.09 230.153 284.051C232.367 283.985 234.575 284.272 236.789 284.23C239.414 284.182 242.01 283.675 244.636 283.496C247.261 283.317 250.006 283.496 252.327 284.689C252.139 280.908 252.245 277.117 252.644 273.352L253.276 267.42C253.419 265.697 253.684 263.986 254.07 262.301C254.416 260.94 254.917 259.627 255.299 258.273C256.642 253.499 256.397 248.403 256.14 243.432C256.009 240.878 255.025 238.366 253.867 236.093C253.448 235.248 252.969 234.434 252.435 233.658C251.036 231.73 249.172 230.189 247.016 229.177C244.86 228.164 242.483 227.715 240.107 227.87C239.803 227.879 239.504 227.944 239.223 228.061C238.72 228.383 238.326 228.851 238.096 229.403C236.861 231.622 235.07 233.481 232.898 234.798Z" fill="#3F3D56"/>
<path d="M221.105 220.81C221.373 220.214 222.095 219.993 222.537 219.515C223.384 218.608 223.002 217.158 223.134 215.935C223.349 214.145 224.834 212.647 226.535 212.009C228.269 211.452 230.115 211.335 231.906 211.669C232.768 211.731 233.6 212.008 234.328 212.474C234.639 212.701 234.925 212.993 235.217 213.202C235.75 213.524 236.388 213.625 236.995 213.484C237.601 213.342 238.128 212.969 238.464 212.444C236.351 209.902 234.012 207.217 230.802 206.435C229.7 206.21 228.578 206.104 227.454 206.119C225.968 206.089 224.435 206.065 223.062 206.632C221.194 207.402 219.882 209.174 219.207 211.084C218.618 213.019 218.302 215.028 218.27 217.051C218.148 218.401 218.148 219.759 218.27 221.109C218.501 222.952 219.186 224.709 220.264 226.223C220.409 226.458 220.615 226.649 220.86 226.778C223.581 227.971 220.884 221.306 221.105 220.81Z" fill="#3F3D56"/>
<path d="M238.156 210.971C237.828 208.16 235.823 205.839 233.693 203.971C231.976 202.352 229.93 201.121 227.696 200.361C225.446 199.699 222.856 199.842 220.929 201.185C219.377 202.265 218.393 203.983 217.635 205.714C216.639 207.756 216.146 210.006 216.197 212.278C216.346 214.533 217.444 216.819 219.401 217.958C220.105 216.92 221.329 216.383 222.504 215.959C227.628 214.015 232.853 212.35 238.156 210.971Z" fill="#FBBC05"/>
<path opacity="0.1" d="M220.059 209.801C220.25 209.801 220.375 209.998 220.471 210.159C220.957 210.916 221.374 211.715 221.718 212.546C221.02 212.695 219.82 212.862 219.474 212.248C219.289 211.937 219.51 209.771 220.059 209.801Z" fill="black"/>
<path opacity="0.1" d="M233.654 208.452C233.51 208.59 233.343 208.309 233.343 208.106V205.791C233.339 205.727 233.354 205.663 233.385 205.606C233.41 205.578 233.44 205.555 233.474 205.538C233.508 205.522 233.545 205.513 233.582 205.511C234.065 205.457 234.465 205.869 234.776 206.262C235.246 206.901 235.656 207.582 235.999 208.297L233.475 208.22" fill="black"/>
<path d="M265.155 246.792C265.705 246.271 266.291 245.79 266.91 245.354C268.563 244.25 270.562 243.814 272.418 243.11C274.273 242.406 276.159 241.266 276.881 239.416C277.243 238.26 277.36 237.041 277.227 235.836C277.244 235.332 277.155 234.83 276.965 234.362C276.737 233.949 276.414 233.597 276.022 233.336C273.504 231.474 270.126 231.325 266.999 231.516C260.106 231.943 253.349 233.63 247.063 236.493C246.73 236.602 246.439 236.81 246.227 237.089C246.105 237.348 246.05 237.633 246.066 237.919C245.955 239.678 246.184 241.443 246.741 243.116C247.564 245.24 249.259 246.953 249.969 249.119C250.291 250.092 250.399 251.124 250.679 252.103C250.909 253.113 251.507 254.002 252.356 254.597C254.713 256.005 256.939 254.114 258.574 252.646L265.155 246.792Z" fill="#3F3D56"/>
<path d="M234.289 255.056L231.263 248.457C230.82 247.542 230.437 246.599 230.118 245.634C229.771 244.482 229.604 243.289 229.282 242.131C228.22 238.276 225.541 235.066 224.234 231.289C224.151 230.948 223.983 230.634 223.745 230.376C223.554 230.241 223.336 230.15 223.106 230.108C222.876 230.067 222.64 230.077 222.414 230.137C220.588 230.453 219.162 231.844 217.491 232.631C216.715 232.99 215.88 233.228 215.104 233.64C214.716 233.824 214.373 234.089 214.097 234.417C213.821 234.746 213.619 235.13 213.505 235.543C213.32 236.456 213.773 237.334 214.155 238.223C215.778 241.887 216.148 245.98 216.22 249.99C216.274 252.687 216.136 255.581 214.543 257.747C211.482 261.925 213.439 268.059 214.585 273.113C214.722 273.71 214.883 274.354 214.979 274.987C215.08 275.778 215.126 276.576 215.116 277.374C215.116 280.053 214.967 282.816 213.845 285.244C214.952 285.834 216.173 286.18 217.425 286.259C220.89 286.7 224.369 287.011 227.862 287.19C228.956 287.293 230.06 287.236 231.138 287.023C232.418 286.677 233.547 285.914 234.346 284.855C235.144 283.796 235.567 282.501 235.548 281.175C235.739 282.828 236.091 284.624 237.29 285.77C238.49 286.915 240.238 287.088 241.867 287.178C246.465 287.422 251.075 287.292 255.651 286.79C255.943 286.777 256.231 286.71 256.499 286.593C257.382 286.151 257.429 284.934 257.358 283.955C257.227 282.124 257.089 280.292 256.869 278.472C256.681 277.311 256.586 276.138 256.582 274.963C256.673 273.754 256.873 272.556 257.179 271.383C257.978 267.659 258.611 263.858 258.342 260.045C258.236 259.116 258.198 258.181 258.229 257.246C258.384 255.14 259.494 253.135 259.285 251.04C258.689 244.882 258.205 238.563 256.487 232.62C256.176 231.557 255.783 230.418 254.858 229.809C253.664 229.009 251.987 229.427 250.621 228.92C249.98 228.621 249.37 228.26 248.801 227.84C247.564 227.066 246.147 226.63 244.689 226.575C243.591 226.533 242.368 226.778 241.706 227.661C241.399 228.158 241.196 228.712 241.109 229.29C240.244 232.93 239.229 236.528 238.215 240.126L237.242 243.575L234.635 252.836C234.378 253.821 234.551 254.125 234.289 255.056Z" fill="#56DCE8"/>
<path d="M249.543 218.925L307.264 279.582V284.725H281.527L238.151 228.114" fill="#F1C0C0"/>
<path opacity="0.1" d="M249.543 218.925L307.264 279.582V284.725H281.527L238.151 228.114" fill="black"/>
<path opacity="0.1" d="M239.07 227.315L239.255 227.381L281.897 279.582H307.264V284.726H281.527L238.151 228.115L239.07 227.315Z" fill="black"/>
<path d="M245.717 228.592C243.629 229.505 241.308 230.675 240.681 232.871C240.557 233.256 240.531 233.666 240.604 234.064C240.756 234.532 241.047 234.943 241.438 235.243C241.829 235.542 242.302 235.716 242.794 235.741C243.776 235.765 244.753 235.586 245.664 235.216L257.986 231.146C258.32 231.039 258.702 230.878 258.786 230.55C258.807 230.343 258.765 230.135 258.666 229.953C258.284 229.022 257.908 227.118 257.109 226.468C256.452 225.943 255.152 226.128 254.358 226.14C251.303 226.164 248.433 227.399 245.717 228.592Z" fill="#56DCE8"/>
<path d="M256.7 231.629C258.776 231.623 260.84 231.943 262.816 232.578C264.802 233.222 266.56 234.424 267.882 236.039C268.268 236.49 268.541 237.026 268.682 237.602C268.801 238.199 270.747 238.557 270.317 238.963C271.624 238.754 271.314 239.369 272.638 239.357C273.963 239.345 275.395 239.005 276.189 237.948C276.74 237.081 276.986 236.054 276.887 235.03C276.904 234.322 276.77 233.618 276.493 232.966C275.896 231.713 274.524 231.038 273.259 230.46L262.601 225.584C261.983 225.255 261.32 225.02 260.632 224.886C260.054 224.832 259.471 224.846 258.896 224.928L254.068 225.483C255.124 226.166 255.984 227.113 256.562 228.229C257.141 229.345 257.419 230.593 257.368 231.85" fill="#3F3D56"/>
<path d="M27 43C27 52.3888 19.3888 60 10 60H1.90735e-06V33H27V43Z" fill="#F87306"/>
<path d="M42 77C42 74.2386 44.2386 72 47 72H56V86H42V77Z" fill="#01C3FF"/>
<path d="M556 493C556 483.611 563.611 476 573 476H583V503H556V493Z" fill="#FBBC05"/>
<path d="M541 459C541 461.761 538.761 464 536 464H527V450H541V459Z" fill="#21D885"/>
</svg>
