<svg width="100" height="100" viewBox="0 0 100 100" fill="none" xmlns="http://www.w3.org/2000/svg">
<path d="M50 100C77.6142 100 100 77.6142 100 50C100 22.3858 77.6142 0 50 0C22.3858 0 0 22.3858 0 50C0 77.6142 22.3858 100 50 100Z" fill="#EFF3FC"/>
<path d="M40.7141 61.791V66.8075L46.08 68.6585L51.5475 69.563L55.8528 68.0987L58.9756 66.8075V61.791L53.4404 63.6863L46.08 63.0178L42.6381 61.7919L40.7141 61.791Z" fill="#01C3FF"/>
<path d="M40.7141 50.9209V55.9374L46.08 57.7884L51.5475 58.6929L55.8528 57.2286L58.9756 55.9374V50.9209L53.4404 52.8162L46.08 52.1477L42.6381 50.9218L40.7141 50.9209Z" fill="#F87306"/>
<path d="M40.7141 56.356V61.3725L46.08 63.2235L51.5475 64.128L55.8528 62.6636L58.9756 61.3725V56.356L53.4404 58.2512L46.08 57.5828L42.6381 56.3568L40.7141 56.356Z" fill="#FBBC05"/>
<path d="M36.7847 37.3323C36.9656 37.3325 37.141 37.2699 37.2809 37.1553C37.4209 37.0406 37.5168 36.881 37.5522 36.7036C37.5877 36.5262 37.5605 36.342 37.4753 36.1823C37.3902 36.0227 37.2523 35.8976 37.0852 35.8282C36.918 35.7589 36.7321 35.7497 36.5589 35.8021C36.3858 35.8546 36.2361 35.9654 36.1356 36.1158C36.035 36.2662 35.9897 36.4468 36.0074 36.6269C36.0251 36.8069 36.1047 36.9753 36.2326 37.1032C36.3793 37.2492 36.5777 37.3315 36.7847 37.3323Z" fill="black"/>
<path d="M67.4758 40.1147C66.02 38.6321 64.081 37.7205 62.0105 37.5455C61.5809 35.7297 60.642 34.0742 59.304 32.7736C57.966 31.473 56.2846 30.5813 54.4573 30.2033C52.6301 29.8252 50.7329 29.9766 48.9887 30.6396C47.2445 31.3026 45.7257 32.4497 44.6109 33.946C42.9578 33.4104 41.1775 33.412 39.5254 33.9507C39.4279 33.9829 39.3377 34.0339 39.26 34.1009C39.1822 34.168 39.1184 34.2496 39.0722 34.3413C39.0261 34.433 38.9984 34.5328 38.9908 34.6352C38.9832 34.7376 38.9959 34.8404 39.0281 34.9379C39.0602 35.0354 39.1113 35.1256 39.1783 35.2033C39.2453 35.2811 39.327 35.3448 39.4187 35.391C39.5103 35.4372 39.6102 35.4649 39.7126 35.4724C39.8149 35.48 39.9178 35.4674 40.0153 35.4352C41.5192 34.9453 43.1484 35.0069 44.6109 35.6091C44.7794 35.6788 44.9669 35.6874 45.1411 35.6334C45.3152 35.5794 45.465 35.4661 45.5644 35.3133C46.4682 33.9232 47.7704 32.8381 49.3008 32.1999C50.8311 31.5616 52.5184 31.4 54.1421 31.7361C55.7658 32.0722 57.2504 32.8903 58.4017 34.0836C59.5529 35.2769 60.3174 36.7897 60.5951 38.4244C60.6255 38.6047 60.7181 38.7686 60.8568 38.8877C60.9956 39.0067 61.1717 39.0733 61.3545 39.0759C63.2592 39.0892 65.0807 39.8587 66.4181 41.2151C67.7555 42.5714 68.4993 44.4035 68.4859 46.3082C68.4725 48.213 67.703 50.0344 66.3467 51.3718C64.9903 52.7092 63.1583 53.453 61.2535 53.4397H60.3878V48.9217C60.3878 48.021 59.8094 46.7407 57.0554 45.7554C54.7769 45.0181 52.3922 44.6627 49.9977 44.7034C47.6033 44.6627 45.2186 45.0181 42.9401 45.7554C40.1861 46.7407 39.6077 48.021 39.6077 48.9217V53.4366H36.5734C35.3825 53.4352 34.231 53.0098 33.3253 52.2366C32.4195 51.4635 31.8186 50.393 31.6304 49.2171C31.4421 48.0412 31.6787 46.8367 32.2978 45.8193C32.9169 44.802 33.878 44.0384 35.0089 43.6653C35.1855 43.6072 35.3356 43.4881 35.4323 43.3292C35.5289 43.1704 35.5657 42.9823 35.5361 42.7988C35.4794 42.4471 35.4508 42.0914 35.4507 41.7351C35.4501 41.0806 35.5463 40.4296 35.7364 39.8034C35.7968 39.6052 35.7759 39.3911 35.6784 39.2083C35.5809 39.0255 35.4148 38.8889 35.2166 38.8286C35.0184 38.7682 34.8044 38.7891 34.6215 38.8866C34.4387 38.9841 34.3021 39.1502 34.2418 39.3484C34.0069 40.1221 33.8878 40.9264 33.8885 41.7351C33.8885 41.9603 33.8978 42.187 33.9165 42.4129C32.5375 43.0225 31.4099 44.0875 30.7227 45.4295C30.0355 46.7715 29.8304 48.3089 30.1417 49.7841C30.4531 51.2593 31.262 52.5827 32.433 53.5325C33.6039 54.4822 35.0657 55.0007 36.5734 55.001H39.6077V65.7786C39.6077 66.6792 40.1861 67.9595 42.9401 68.9448C45.2186 69.6821 47.6033 70.0376 49.9977 69.9969C52.3922 70.0376 54.7769 69.6821 57.0554 68.9448C59.8094 67.9595 60.3878 66.6792 60.3878 65.7786V55.001H61.2535C62.978 55.0012 64.6639 54.4915 66.0994 53.5358C67.5348 52.5802 68.6555 51.2214 69.3206 49.6304C69.9857 48.0394 70.1654 46.2872 69.8372 44.5943C69.5089 42.9014 68.6873 41.3434 67.4758 40.1163V40.1147ZM58.8257 54.5406C58.8257 54.9436 58.2239 55.6276 56.5298 56.2356C54.4203 56.9128 52.2136 57.2376 49.9985 57.1968C47.7834 57.2376 45.5767 56.9128 43.4673 56.2356C41.7723 55.6292 41.1714 54.9436 41.1714 54.5406V51.2478C41.728 51.5934 42.3218 51.8749 42.9416 52.0871C45.2201 52.8244 47.6048 53.1799 49.9993 53.1392C52.3938 53.1799 54.7785 52.8244 57.057 52.0871C57.6768 51.8749 58.2706 51.5934 58.8272 51.2478L58.8257 54.5406ZM41.1706 56.8699C41.7272 57.2155 42.321 57.497 42.9408 57.7092C45.2193 58.4465 47.604 58.802 49.9985 58.7613C52.393 58.802 54.7777 58.4465 57.0562 57.7092C57.676 57.497 58.2699 57.2155 58.8264 56.8699V60.1627C58.8264 60.5657 58.2247 61.2497 56.5306 61.8576C54.4211 62.5349 52.2144 62.8597 49.9993 62.8188C47.7842 62.8597 45.5775 62.5349 43.468 61.8576C41.7731 61.2512 41.1721 60.5657 41.1721 60.1627L41.1706 56.8699ZM43.4665 47.2298C45.5759 46.5525 47.7826 46.2278 49.9977 46.2686C52.2129 46.2278 54.4196 46.5525 56.529 47.2298C58.2239 47.8362 58.8249 48.5218 58.8249 48.9248C58.8249 49.3277 58.2232 50.0118 56.529 50.6197C54.4196 51.297 52.2129 51.6217 49.9977 51.5809C47.7826 51.6217 45.5759 51.297 43.4665 50.6197C41.7715 50.0133 41.1706 49.3277 41.1706 48.9248C41.1706 48.5218 41.7715 47.8331 43.4665 47.2267V47.2298ZM56.529 67.4735C54.4195 68.1502 52.2128 68.4745 49.9977 68.4331C47.7826 68.474 45.5759 68.1492 43.4665 67.4719C41.7715 66.8656 41.1706 66.18 41.1706 65.777V62.4858C41.7272 62.8313 42.321 63.1129 42.9408 63.3251C45.2193 64.0623 47.6041 64.4178 49.9985 64.3771C52.393 64.4178 54.7777 64.0623 57.0562 63.3251C57.676 63.1129 58.2699 62.8313 58.8264 62.4858V65.7786C58.8264 66.1815 58.2247 66.8656 56.5306 67.4735H56.529Z" fill="#2C3E50"/>
</svg>
