<svg width="100" height="100" viewBox="0 0 100 100" fill="none" xmlns="http://www.w3.org/2000/svg">
<path d="M50 100C77.6142 100 100 77.6142 100 50C100 22.3858 77.6142 0 50 0C22.3858 0 0 22.3858 0 50C0 77.6142 22.3858 100 50 100Z" fill="#EFF3FC"/>
<path d="M42.964 41.1782L38.2174 42.8867L34.7888 46.5895L34.2173 50.8753L35.6126 54.8867L40.5107 58.3943H42.9593L42.964 41.1782Z" fill="#56DCE8"/>
<path d="M39.4631 43.0152C40.3796 42.6416 41.36 42.4495 42.3497 42.4495C42.508 42.4407 42.6568 42.3717 42.7658 42.2566C42.8747 42.1414 42.9354 41.989 42.9354 41.8305C42.9354 41.672 42.8747 41.5195 42.7658 41.4044C42.6568 41.2893 42.508 41.2202 42.3497 41.2114C39.9993 41.2357 37.7534 42.1864 36.1 43.8571C34.4465 45.5277 33.519 47.7833 33.519 50.1338C33.519 52.4843 34.4465 54.7399 36.1 56.4105C37.7534 58.0812 39.9993 59.0319 42.3497 59.0562C42.508 59.0474 42.6568 58.9784 42.7658 58.8632C42.8747 58.7481 42.9354 58.5956 42.9354 58.4371C42.9354 58.2787 42.8747 58.1262 42.7658 58.0111C42.6568 57.8959 42.508 57.8269 42.3497 57.8181C40.5681 57.8177 38.8421 57.1979 37.4671 56.065C36.0921 54.9321 35.1538 53.3564 34.8127 51.6078C34.4716 49.8591 34.7489 48.0463 35.5973 46.4796C36.4457 44.913 37.8122 43.69 39.4631 43.02V43.0152Z" fill="#2C3E51" stroke="#2C3E50" stroke-width="0.4"/>
<path d="M25.5039 53.4237L27.7372 54.1799C28.1188 55.5182 28.6777 56.7994 29.3991 57.9894L28.4287 60.1628C28.3766 60.2788 28.3615 60.408 28.3854 60.5328C28.4092 60.6577 28.4709 60.7722 28.562 60.8609L32.0477 64.2656C32.1396 64.3552 32.257 64.4141 32.3837 64.4342C32.5104 64.4543 32.6402 64.4347 32.7553 64.378L34.8934 63.3218C36.1002 64.0195 37.4045 64.5331 38.7629 64.8456L39.5915 67.0733C39.6357 67.1919 39.7151 67.2943 39.8191 67.3664C39.9232 67.4386 40.0468 67.4772 40.1734 67.4771H40.1839L42.3553 67.4399C42.4394 67.4429 42.5233 67.4288 42.6018 67.3984C42.6803 67.3679 42.7517 67.3218 42.8118 67.2629C42.8719 67.2039 42.9193 67.1333 42.9512 67.0555C42.9832 66.9776 42.9989 66.894 42.9975 66.8098C42.9961 66.7257 42.9775 66.6427 42.943 66.5659C42.9084 66.4892 42.8586 66.4202 42.7966 66.3633C42.7345 66.3065 42.6616 66.2628 42.5821 66.235C42.5026 66.2073 42.4183 66.196 42.3344 66.2018L40.602 66.2314L39.8096 64.098C39.773 63.9994 39.7119 63.9118 39.6321 63.8433C39.5523 63.7749 39.4564 63.7278 39.3534 63.7066C37.901 63.4091 36.5114 62.8612 35.2468 62.0875C35.1574 62.0331 35.0557 62.002 34.9511 61.9974C34.8466 61.9927 34.7425 62.0146 34.6487 62.0609L32.6039 63.0723L29.7353 60.2752L30.6658 58.198C30.7078 58.1043 30.7259 58.0017 30.7184 57.8993C30.7109 57.7969 30.6781 57.6979 30.6229 57.6114C29.8239 56.3551 29.2253 54.9822 28.8487 53.5418C28.8226 53.4424 28.7722 53.351 28.7021 53.2758C28.6319 53.2007 28.5442 53.1442 28.4468 53.1114L26.3153 52.3894L26.2477 48.3894L28.381 47.5961C28.4796 47.5595 28.5673 47.4984 28.6357 47.4186C28.7042 47.3388 28.7513 47.2429 28.7725 47.1399C29.0699 45.6869 29.6178 44.2967 30.3915 43.0313C30.4461 42.942 30.4772 42.8403 30.4818 42.7357C30.4865 42.6311 30.4646 42.5271 30.4182 42.4333L29.4077 40.3856L32.2068 37.518L34.2839 38.4485C34.3776 38.4905 34.4802 38.5085 34.5826 38.5011C34.685 38.4936 34.784 38.4608 34.8706 38.4056C36.1269 37.6065 37.4998 37.0076 38.9401 36.6304C39.0394 36.6044 39.1308 36.5542 39.2059 36.4842C39.281 36.4142 39.3376 36.3267 39.3706 36.2294L40.0925 34.098L42.3601 34.0599C42.4442 34.0629 42.5281 34.0488 42.6065 34.0183C42.685 33.9879 42.7565 33.9418 42.8166 33.8829C42.8766 33.8239 42.9241 33.7533 42.956 33.6754C42.9879 33.5976 43.0037 33.514 43.0022 33.4298C43.0008 33.3457 42.9823 33.2627 42.9477 33.1859C42.9132 33.1091 42.8634 33.0402 42.8013 32.9833C42.7393 32.9264 42.6663 32.8828 42.5869 32.855C42.5074 32.8273 42.4231 32.816 42.3391 32.8218L39.6344 32.8675C39.5065 32.8697 39.3825 32.9114 39.2792 32.9867C39.1759 33.062 39.0984 33.1674 39.0572 33.2885L38.301 35.5218C36.9627 35.9033 35.6815 36.4622 34.4915 37.1837L32.3201 36.2104C32.2042 36.1587 32.0752 36.1438 31.9506 36.1676C31.8259 36.1915 31.7116 36.2529 31.6229 36.3437L28.2134 39.8342C28.1237 39.9262 28.0647 40.0437 28.0445 40.1706C28.0244 40.2975 28.0442 40.4276 28.101 40.5428L29.1572 42.6809C28.4598 43.8881 27.9462 45.1926 27.6334 46.5513L25.4068 47.379C25.2858 47.4233 25.1817 47.5041 25.1089 47.6102C25.036 47.7164 24.998 47.8426 25.0001 47.9714L25.0829 52.8475C25.0851 52.9755 25.1268 53.0997 25.2023 53.203C25.2779 53.3064 25.3835 53.3838 25.5048 53.4247L25.5039 53.4237Z" fill="#2C3E51" stroke="#2C3E50" stroke-width="0.4"/>
<path d="M43.5964 49.5116V50.7497H68.3488C68.5028 51.5501 68.9497 52.2644 69.6021 52.753C70.2544 53.2416 71.0655 53.4695 71.8769 53.3921C72.6883 53.3147 73.4417 52.9377 73.9901 52.3346C74.5384 51.7316 74.8422 50.9458 74.8422 50.1307C74.8422 49.3156 74.5384 48.5298 73.9901 47.9268C73.4417 47.3237 72.6883 46.9466 71.8769 46.8693C71.0655 46.7919 70.2544 47.0198 69.6021 47.5084C68.9497 47.997 68.5028 48.7113 68.3488 49.5116H43.5964ZM70.125 48.6955C70.4092 48.4111 70.7713 48.2174 71.1656 48.1389C71.5599 48.0604 71.9686 48.1005 72.34 48.2543C72.7115 48.4081 73.029 48.6686 73.2523 49.0029C73.4757 49.3371 73.595 49.7301 73.595 50.1321C73.595 50.5341 73.4757 50.9271 73.2523 51.2614C73.029 51.5956 72.7115 51.8561 72.34 52.0099C71.9686 52.1637 71.5599 52.2039 71.1656 52.1254C70.7713 52.0468 70.4092 51.8532 70.125 51.5688C69.7441 51.1877 69.5302 50.6709 69.5302 50.1321C69.5302 49.5933 69.7441 49.0766 70.125 48.6955Z" fill="#2C3E51" stroke="#2C3E50" stroke-width="0.4"/>
<path d="M63.0793 38.0498C62.3189 38.0498 61.5822 38.3146 60.9957 38.7986C60.4092 39.2826 60.0094 39.9556 59.865 40.7021H54.6383C53.7576 40.7031 52.9133 41.0535 52.2905 41.6762C51.6678 42.299 51.3175 43.1433 51.3164 44.024C51.3159 44.5759 51.0966 45.105 50.7064 45.4953C50.3163 45.8856 49.7873 46.1052 49.2355 46.1059H43.5964V47.344H49.2355C50.1162 47.343 50.9606 46.9927 51.5833 46.37C52.2061 45.7472 52.5564 44.9029 52.5574 44.0221C52.5581 43.4705 52.7776 42.9416 53.1677 42.5515C53.5578 42.1614 54.0867 41.9419 54.6383 41.9412H59.865C59.9826 42.5508 60.2711 43.1144 60.697 43.5662C61.1228 44.018 61.6683 44.3394 62.2699 44.4929C62.8715 44.6464 63.5043 44.6256 64.0945 44.433C64.6848 44.2404 65.2081 43.8839 65.6033 43.4052C65.9986 42.9264 66.2495 42.3451 66.3269 41.7291C66.4043 41.113 66.3048 40.4877 66.0402 39.9261C65.7756 39.3644 65.3568 38.8896 64.8325 38.5571C64.3082 38.2245 63.7002 38.0479 63.0793 38.0479V38.0498ZM64.5164 42.7593C64.2323 43.0432 63.8703 43.2365 63.4763 43.3147C63.0823 43.3929 62.6739 43.3526 62.3029 43.1987C61.9318 43.0449 61.6146 42.7846 61.3915 42.4505C61.1684 42.1165 61.0493 41.7238 61.0493 41.3221C61.0493 40.9204 61.1684 40.5278 61.3915 40.1937C61.6146 39.8597 61.9318 39.5993 62.3029 39.4455C62.6739 39.2917 63.0823 39.2514 63.4763 39.3296C63.8703 39.4078 64.2323 39.6011 64.5164 39.885C64.7053 40.0737 64.8551 40.2977 64.9573 40.5443C65.0595 40.7909 65.1121 41.0552 65.1121 41.3221C65.1121 41.5891 65.0595 41.8534 64.9573 42.1C64.8551 42.3466 64.7053 42.5706 64.5164 42.7593Z" fill="#2C3E51" stroke="#2C3E50" stroke-width="0.4"/>
<path d="M63.0793 62.2142C63.6999 62.2139 64.3076 62.0372 64.8315 61.7046C65.3555 61.3721 65.7741 60.8974 66.0385 60.336C66.3029 59.7745 66.4022 59.1495 66.3248 58.5337C66.2474 57.918 65.9965 57.337 65.6014 56.8584C65.2063 56.3798 64.6833 56.0235 64.0934 55.8309C63.5034 55.6384 62.8709 55.6175 62.2696 55.7708C61.6682 55.9241 61.1228 56.2453 60.6971 56.6968C60.2714 57.1483 59.9828 57.7115 59.865 58.3208H54.6383C54.0867 58.3201 53.5578 58.1006 53.1677 57.7105C52.7776 57.3204 52.5581 56.7915 52.5574 56.2399C52.5564 55.3592 52.2061 54.5148 51.5833 53.892C50.9606 53.2693 50.1162 52.919 49.2355 52.918H43.5964V54.1561H49.2355C49.7873 54.1568 50.3163 54.3764 50.7064 54.7667C51.0966 55.157 51.3159 55.6861 51.3164 56.238C51.3175 57.1187 51.6678 57.963 52.2905 58.5858C52.9133 59.2086 53.7576 59.5589 54.6383 59.5599H59.865C60.0091 60.3068 60.4087 60.9803 60.9952 61.4646C61.5817 61.949 62.3186 62.214 63.0793 62.2142ZM61.6422 57.5046C61.9744 57.1745 62.4109 56.9698 62.8771 56.9253C63.3433 56.8807 63.8106 56.9991 64.1994 57.2603C64.5882 57.5215 64.8745 57.9093 65.0095 58.3578C65.1445 58.8063 65.12 59.2877 64.94 59.7201C64.76 60.1525 64.4358 60.5092 64.0225 60.7295C63.6091 60.9498 63.1322 61.02 62.6729 60.9283C62.2136 60.8365 61.8003 60.5884 61.5033 60.2262C61.2064 59.8641 61.0441 59.4101 61.0441 58.9418C61.0445 58.6746 61.0976 58.4101 61.2004 58.1635C61.3032 57.9169 61.4537 57.693 61.6431 57.5046H61.6422Z" fill="#2C3E51" stroke="#2C3E50" stroke-width="0.4"/>
<path d="M55.0955 63.7287C54.5568 64.2645 54.2228 64.9722 54.1517 65.7287H53.4488C52.8809 65.7271 52.327 65.5525 51.8609 65.228C51.3948 64.9035 51.0388 64.4446 50.8403 63.9125L49.0831 59.1677C48.7958 58.3985 48.2808 57.7351 47.6068 57.266C46.9328 56.7968 46.1319 56.5443 45.3107 56.542H43.5964V57.7801H45.3107C45.8785 57.7817 46.4323 57.9563 46.8983 58.2806C47.3643 58.6049 47.7205 59.0635 47.9193 59.5953L49.6774 64.3401C49.9647 65.1092 50.4795 65.7725 51.1533 66.2416C51.8271 66.7107 52.6278 66.9633 53.4488 66.9658H54.2698C54.4721 67.6541 54.8948 68.257 55.4731 68.6816C56.0514 69.1063 56.7531 69.3293 57.4704 69.3163C58.1877 69.3033 58.8809 69.0551 59.4435 68.6098C60.006 68.1645 60.4067 67.5468 60.584 66.8516C60.7612 66.1564 60.7053 65.4222 60.4247 64.7619C60.1441 64.1016 59.6544 63.5518 59.0309 63.1969C58.4073 62.842 57.6845 62.7017 56.9735 62.7976C56.2625 62.8935 55.6027 63.2203 55.0955 63.7277V63.7287ZM59.4422 66.0429C59.442 66.5126 59.2789 66.9677 58.9808 67.3307C58.6828 67.6937 58.268 67.9421 57.8074 68.0337C57.3467 68.1252 56.8685 68.0542 56.4543 67.8327C56.0401 67.6112 55.7155 67.253 55.5357 66.8191C55.356 66.3851 55.3323 65.9023 55.4686 65.4528C55.6049 65.0033 55.8928 64.615 56.2833 64.354C56.6738 64.093 57.1427 63.9754 57.6102 64.0213C58.0776 64.0673 58.5147 64.2738 58.8469 64.6058C59.2275 64.9862 59.4416 65.502 59.4422 66.0401V66.0429Z" fill="#2C3E51" stroke="#2C3E50" stroke-width="0.4"/>
<path d="M49.0828 41.0961L50.84 36.3551C51.0385 35.8231 51.3946 35.3642 51.8606 35.0397C52.3267 34.7152 52.8807 34.5405 53.4486 34.539H54.1514C54.2303 35.3469 54.6073 36.0965 55.209 36.6415C55.8107 37.1865 56.5938 37.4878 57.4056 37.4866C58.2174 37.4854 58.9996 37.1818 59.5996 36.635C60.1997 36.0882 60.5745 35.3375 60.651 34.5293C60.7275 33.7211 60.5001 32.9135 60.0132 32.2638C59.5264 31.6142 58.815 31.1693 58.0178 31.0159C57.2206 30.8624 56.3949 31.0115 55.7017 31.434C55.0085 31.8565 54.4976 32.522 54.2686 33.3009H53.4476C52.6266 33.3034 51.8259 33.556 51.1521 34.0251C50.4783 34.4942 49.9635 35.1575 49.6762 35.9266L47.9181 40.6713C47.7193 41.2032 47.3631 41.6618 46.8971 41.9861C46.4311 42.3104 45.8773 42.485 45.3095 42.4866H43.5952V43.7247H45.3095C46.1312 43.7223 46.9326 43.4695 47.6068 42.9998C48.281 42.5302 48.7959 41.866 49.0828 41.0961ZM55.9724 32.7837C56.3047 32.4515 56.742 32.2447 57.2097 32.1987C57.6774 32.1527 58.1466 32.2703 58.5373 32.5314C58.928 32.7925 59.2161 33.181 59.3525 33.6308C59.4889 34.0805 59.4652 34.5636 59.2854 34.9977C59.1055 35.4319 58.7808 35.7903 58.3663 36.0119C57.9519 36.2335 57.4734 36.3045 57.0125 36.2128C56.5516 36.1212 56.1367 35.8726 55.8385 35.5094C55.5403 35.1462 55.3772 34.6908 55.3771 34.2209C55.3771 33.954 55.4296 33.6897 55.5317 33.4431C55.6339 33.1965 55.7836 32.9724 55.9724 32.7837Z" fill="#2C3E51" stroke="#2C3E50" stroke-width="0.4"/>
<path d="M57.3798 37.6191C59.4838 37.6191 61.1894 35.9135 61.1894 33.8095C61.1894 31.7056 59.4838 30 57.3798 30C55.2759 30 53.5703 31.7056 53.5703 33.8095C53.5703 35.9135 55.2759 37.6191 57.3798 37.6191Z" fill="#21D885"/>
<path d="M71.666 53.8095C73.7699 53.8095 75.4755 52.1039 75.4755 50C75.4755 47.896 73.7699 46.1904 71.666 46.1904C69.562 46.1904 67.8564 47.896 67.8564 50C67.8564 52.1039 69.562 53.8095 71.666 53.8095Z" fill="#FBBC05"/>
<path d="M57.3798 69.9999C59.4838 69.9999 61.1894 68.2943 61.1894 66.1904C61.1894 64.0864 59.4838 62.3809 57.3798 62.3809C55.2759 62.3809 53.5703 64.0864 53.5703 66.1904C53.5703 68.2943 55.2759 69.9999 57.3798 69.9999Z" fill="#01C3FF"/>
</svg>
