<svg width="90" height="90" viewBox="0 0 90 90" fill="none" xmlns="http://www.w3.org/2000/svg">
<path d="M45 90C69.8528 90 90 69.8528 90 45C90 20.1472 69.8528 0 45 0C20.1472 0 0 20.1472 0 45C0 69.8528 20.1472 90 45 90Z" fill="#EFF3FC"/>
<path d="M56.4881 42.8723C56.3512 42.8775 56.2216 42.9355 56.1266 43.0341C56.0316 43.1328 55.9785 43.2645 55.9785 43.4014C55.9785 43.5384 56.0316 43.6701 56.1266 43.7688C56.2216 43.8674 56.3512 43.9254 56.4881 43.9306H60.6836C60.7548 43.9333 60.8257 43.9216 60.8923 43.8962C60.9588 43.8708 61.0195 43.8322 61.0708 43.7828C61.1221 43.7334 61.1629 43.6742 61.1908 43.6087C61.2187 43.5431 61.233 43.4727 61.233 43.4014C61.233 43.3302 61.2187 43.2598 61.1908 43.1942C61.1629 43.1287 61.1221 43.0695 61.0708 43.0201C61.0195 42.9707 60.9588 42.9321 60.8923 42.9067C60.8257 42.8813 60.7548 42.8696 60.6836 42.8723H56.4881Z" fill="#607880"/>
<path d="M33.2793 42.8723H29.0838C28.9469 42.8775 28.8173 42.9355 28.7223 43.0341C28.6273 43.1328 28.5742 43.2645 28.5742 43.4014C28.5742 43.5384 28.6273 43.6701 28.7223 43.7688C28.8173 43.8674 28.9469 43.9254 29.0838 43.9306H33.2793C33.3505 43.9333 33.4214 43.9216 33.488 43.8962C33.5545 43.8708 33.6152 43.8322 33.6665 43.7828C33.7178 43.7334 33.7586 43.6742 33.7865 43.6087C33.8144 43.5431 33.8287 43.4727 33.8287 43.4014C33.8287 43.3302 33.8144 43.2598 33.7865 43.1942C33.7586 43.1287 33.7178 43.0695 33.6665 43.0201C33.6152 42.9707 33.5545 42.9321 33.488 42.9067C33.4214 42.8813 33.3505 42.8696 33.2793 42.8723Z" fill="#607880"/>
<path d="M55.9585 39.7792C55.9585 39.8487 55.9722 39.9175 55.9988 39.9818C56.0254 40.046 56.0644 40.1044 56.1136 40.1536C56.1627 40.2027 56.2211 40.2417 56.2854 40.2683C56.3496 40.295 56.4185 40.3087 56.488 40.3087H59.3987C59.4829 40.3086 59.5659 40.2886 59.6408 40.2501C59.7156 40.2116 59.7802 40.1558 59.8292 40.0874L61.7462 37.4092C61.7892 37.3528 61.8204 37.2883 61.8379 37.2197C61.8555 37.151 61.8591 37.0795 61.8486 37.0094C61.838 36.9394 61.8135 36.8721 61.7765 36.8117C61.7394 36.7513 61.6907 36.6989 61.633 36.6576C61.5754 36.6164 61.51 36.5872 61.4409 36.5717C61.3717 36.5562 61.3001 36.5547 61.2304 36.5674C61.1607 36.58 61.0942 36.6065 61.0349 36.6454C60.9756 36.6842 60.9247 36.7345 60.8852 36.7934L59.1265 39.2512H56.4872C56.3477 39.2513 56.2139 39.3066 56.1149 39.4049C56.0159 39.5032 55.9597 39.6366 55.9585 39.7762V39.7792Z" fill="#607880"/>
<path d="M61.9905 51.3736L60.0976 47.6018C60.0535 47.5141 59.9859 47.4404 59.9023 47.3888C59.8187 47.3373 59.7225 47.31 59.6243 47.3101H56.4503C56.3791 47.3074 56.3082 47.3191 56.2416 47.3445C56.1751 47.3699 56.1144 47.4084 56.0631 47.4578C56.0118 47.5072 55.971 47.5664 55.9431 47.632C55.9152 47.6975 55.9009 47.768 55.9009 47.8392C55.9009 47.9104 55.9152 47.9809 55.9431 48.0464C55.971 48.1119 56.0118 48.1712 56.0631 48.2206C56.1144 48.27 56.1751 48.3085 56.2416 48.3339C56.3082 48.3593 56.3791 48.371 56.4503 48.3683H59.3003L61.0463 51.8483C61.0758 51.9132 61.1181 51.9714 61.1706 52.0195C61.2231 52.0677 61.2848 52.1047 61.352 52.1284C61.4192 52.1521 61.4905 52.162 61.5616 52.1575C61.6327 52.1531 61.7022 52.1343 61.7658 52.1023C61.8295 52.0704 61.8861 52.0259 61.9322 51.9715C61.9782 51.9172 62.0129 51.8541 62.034 51.7861C62.0551 51.718 62.0623 51.6464 62.0551 51.5755C62.0479 51.5047 62.0264 51.436 61.992 51.3736H61.9905Z" fill="#607880"/>
<path d="M53.3498 54.3434C53.2974 54.2957 53.2359 54.259 53.1691 54.2354C53.1022 54.2119 53.0313 54.2021 52.9605 54.2065C52.8898 54.2109 52.8206 54.2294 52.7572 54.261C52.6937 54.2927 52.6373 54.3367 52.5912 54.3905C52.5451 54.4444 52.5102 54.5069 52.4888 54.5745C52.4673 54.642 52.4596 54.7132 52.4661 54.7838C52.4727 54.8544 52.4933 54.9229 52.5268 54.9854C52.5604 55.0479 52.6061 55.1029 52.6613 55.1474L56.8861 58.7616C56.9383 58.8104 56.9999 58.848 57.0671 58.8723C57.1343 58.8966 57.2057 58.9071 57.277 58.9031C57.3483 58.8991 57.4181 58.8806 57.4822 58.8489C57.5462 58.8172 57.6031 58.7729 57.6496 58.7186C57.696 58.6643 57.731 58.6012 57.7524 58.533C57.7738 58.4648 57.7812 58.393 57.7741 58.322C57.767 58.2509 57.7456 58.1819 57.7112 58.1193C57.6768 58.0567 57.6301 58.0017 57.5738 57.9576L53.3498 54.3434Z" fill="#607880"/>
<path d="M53.1303 36.5093C53.239 36.598 53.3785 36.64 53.5182 36.6259C53.6578 36.6119 53.7862 36.5429 53.875 36.4343L57.4158 32.0655C57.4595 32.0114 57.492 31.9491 57.5117 31.8824C57.5313 31.8156 57.5376 31.7456 57.5302 31.6764C57.5227 31.6072 57.5018 31.5402 57.4684 31.4791C57.4351 31.418 57.3901 31.3641 57.3359 31.3204C57.2817 31.2767 57.2195 31.2441 57.1527 31.2245C57.086 31.2049 57.016 31.1986 56.9468 31.206C56.8776 31.2134 56.8105 31.2344 56.7495 31.2677C56.6884 31.3011 56.6345 31.3461 56.5908 31.4003L53.0485 35.7645C52.9598 35.8733 52.9178 36.0128 52.9319 36.1524C52.9459 36.2921 53.0149 36.4204 53.1235 36.5093H53.1303Z" fill="#607880"/>
<path d="M29.9389 40.0882C29.9879 40.1566 30.0525 40.2124 30.1274 40.2508C30.2022 40.2893 30.2852 40.3094 30.3694 40.3094H33.2801C33.3513 40.3121 33.4222 40.3004 33.4888 40.275C33.5553 40.2496 33.616 40.2111 33.6673 40.1617C33.7186 40.1123 33.7594 40.053 33.7873 39.9875C33.8152 39.922 33.8295 39.8515 33.8295 39.7803C33.8295 39.7091 33.8152 39.6386 33.7873 39.5731C33.7594 39.5075 33.7186 39.4483 33.6673 39.3989C33.616 39.3495 33.5553 39.3109 33.4888 39.2856C33.4222 39.2602 33.3513 39.2485 33.2801 39.2512H30.6401L28.8814 36.7934C28.8419 36.7345 28.791 36.6842 28.7317 36.6454C28.6724 36.6065 28.6059 36.58 28.5362 36.5674C28.4665 36.5547 28.3949 36.5562 28.3257 36.5717C28.2566 36.5872 28.1912 36.6164 28.1336 36.6576C28.0759 36.6989 28.0272 36.7513 27.9901 36.8117C27.9531 36.8721 27.9286 36.9394 27.918 37.0094C27.9075 37.0795 27.9111 37.151 27.9287 37.2197C27.9462 37.2883 27.9774 37.3528 28.0204 37.4092L29.9389 40.0882Z" fill="#607880"/>
<path d="M33.8484 47.8396C33.8484 47.6991 33.7927 47.5644 33.6934 47.4651C33.5941 47.3658 33.4594 47.3101 33.3189 47.3101H30.1412C30.043 47.31 29.9468 47.3373 29.8632 47.3888C29.7796 47.4403 29.712 47.5141 29.6679 47.6018L27.7757 51.3736C27.7413 51.436 27.7199 51.5047 27.7127 51.5755C27.7055 51.6464 27.7126 51.718 27.7338 51.7861C27.7549 51.8541 27.7895 51.9172 27.8356 51.9715C27.8817 52.0259 27.9382 52.0703 28.0019 52.1023C28.0656 52.1343 28.1351 52.1531 28.2062 52.1575C28.2773 52.162 28.3485 52.1521 28.4157 52.1284C28.4829 52.1047 28.5446 52.0676 28.5971 52.0195C28.6497 51.9714 28.692 51.9132 28.7214 51.8483L30.4674 48.3668H33.3174C33.4572 48.367 33.5913 48.3119 33.6905 48.2135C33.7897 48.1152 33.846 47.9815 33.8469 47.8418L33.8484 47.8396Z" fill="#607880"/>
<path d="M36.4189 54.3434L32.1941 57.9576C32.1379 58.0017 32.0911 58.0567 32.0567 58.1193C32.0223 58.1819 32.0009 58.2509 31.9938 58.322C31.9867 58.393 31.9941 58.4648 32.0155 58.533C32.0369 58.6012 32.0719 58.6643 32.1183 58.7186C32.1648 58.7729 32.2217 58.8172 32.2858 58.8489C32.3498 58.8806 32.4196 58.8991 32.4909 58.9031C32.5622 58.9071 32.6337 58.8966 32.7008 58.8723C32.768 58.848 32.8296 58.8104 32.8819 58.7616L37.1074 55.1474C37.1626 55.1029 37.2083 55.0479 37.2418 54.9854C37.2754 54.9229 37.296 54.8544 37.3025 54.7838C37.3091 54.7132 37.3014 54.642 37.2799 54.5745C37.2584 54.5069 37.2236 54.4444 37.1775 54.3905C37.1314 54.3367 37.0749 54.2927 37.0115 54.261C36.948 54.2294 36.8789 54.2109 36.8081 54.2065C36.7374 54.2021 36.6665 54.2119 36.5996 54.2354C36.5327 54.259 36.4713 54.2957 36.4189 54.3434Z" fill="#607880"/>
<path d="M35.8921 36.432C35.9805 36.5414 36.1087 36.6112 36.2486 36.6261C36.3885 36.6409 36.5285 36.5996 36.6379 36.5112C36.7474 36.4228 36.8171 36.2945 36.832 36.1546C36.8468 36.0147 36.8055 35.8747 36.7171 35.7653L33.1748 31.3995C33.1311 31.3454 33.0772 31.3003 33.0161 31.267C32.955 31.2337 32.888 31.2127 32.8188 31.2053C32.7496 31.1979 32.6796 31.2042 32.6129 31.2238C32.5461 31.2434 32.4839 31.276 32.4297 31.3197C32.3755 31.3634 32.3305 31.4173 32.2972 31.4784C32.2638 31.5394 32.2429 31.6065 32.2354 31.6757C32.228 31.7449 32.2343 31.8149 32.2539 31.8816C32.2736 31.9484 32.3061 32.0106 32.3498 32.0648L35.8921 36.432Z" fill="#607880"/>
<path d="M52.0478 32.8483H37.7183C37.7184 33.4314 37.6036 34.0088 37.3805 34.5475C37.1574 35.0862 36.8304 35.5757 36.4181 35.9881C36.0058 36.4004 35.5163 36.7274 34.9776 36.9505C34.4388 37.1736 33.8614 37.2884 33.2783 37.2883V46.913C33.2783 48.6306 33.6976 50.3221 34.4999 51.8408C35.3022 53.3594 36.4631 54.6592 37.8818 55.6273L44.8831 60.4048L51.8843 55.6273C53.303 54.6592 54.4639 53.3594 55.2661 51.8407C56.0684 50.3221 56.4878 48.6306 56.4878 46.913V37.2875C55.9048 37.2875 55.3275 37.1727 54.7888 36.9495C54.2502 36.7264 53.7608 36.3993 53.3485 35.987C52.9363 35.5747 52.6093 35.0853 52.3863 34.5466C52.1632 34.0079 52.0485 33.4306 52.0486 32.8475L52.0478 32.8483Z" fill="#F87306"/>
<path d="M39.5835 53.1299C38.5714 52.4392 37.7434 51.5116 37.1715 50.4278C36.5997 49.3441 36.3012 48.1371 36.3022 46.9117V39.6719C37.994 38.9173 39.3471 37.5642 40.1017 35.8724H49.6643C50.4189 37.5642 51.772 38.9173 53.4637 39.6719V46.9117C53.4641 48.1369 53.1652 49.3436 52.593 50.4269C52.0207 51.5103 51.1925 52.4374 50.1803 53.1277L44.8837 56.7412L39.5835 53.1299Z" fill="white"/>
<path d="M62.1953 44.9136C63.0304 44.9136 63.7073 44.2367 63.7073 43.4016C63.7073 42.5666 63.0304 41.8896 62.1953 41.8896C61.3603 41.8896 60.6833 42.5666 60.6833 43.4016C60.6833 44.2367 61.3603 44.9136 62.1953 44.9136Z" fill="#56DCE8"/>
<path d="M62.1953 51.4492C62.4944 51.4492 62.7867 51.5379 63.0354 51.704C63.284 51.8702 63.4778 52.1063 63.5923 52.3826C63.7067 52.6589 63.7366 52.9629 63.6783 53.2562C63.62 53.5495 63.476 53.8189 63.2645 54.0304C63.053 54.2418 62.7836 54.3858 62.4903 54.4442C62.197 54.5025 61.893 54.4726 61.6167 54.3581C61.3405 54.2437 61.1043 54.0499 60.9382 53.8012C60.772 53.5526 60.6833 53.2603 60.6833 52.9612C60.6833 52.5602 60.8426 52.1756 61.1262 51.8921C61.4098 51.6085 61.7943 51.4492 62.1953 51.4492V51.4492Z" fill="white"/>
<path d="M58.3777 60.8541C59.2128 60.8541 59.8897 60.1771 59.8897 59.3421C59.8897 58.507 59.2128 57.8301 58.3777 57.8301C57.5427 57.8301 56.8657 58.507 56.8657 59.3421C56.8657 60.1771 57.5427 60.8541 58.3777 60.8541Z" fill="#21D885"/>
<path d="M62.1953 34.3604C62.4944 34.3604 62.7867 34.449 63.0354 34.6152C63.284 34.7813 63.4778 35.0175 63.5923 35.2937C63.7067 35.57 63.7366 35.874 63.6783 36.1673C63.62 36.4606 63.476 36.73 63.2645 36.9415C63.053 37.153 62.7836 37.297 62.4903 37.3553C62.197 37.4136 61.893 37.3837 61.6167 37.2693C61.3405 37.1548 61.1043 36.961 60.9382 36.7124C60.772 36.4637 60.6833 36.1714 60.6833 35.8724C60.6833 35.4713 60.8426 35.0868 61.1262 34.8032C61.4098 34.5197 61.7943 34.3604 62.1953 34.3604V34.3604Z" fill="#FABC05"/>
<path d="M57.9588 32.0706C58.7938 32.0706 59.4708 31.3937 59.4708 30.5586C59.4708 29.7236 58.7938 29.0466 57.9588 29.0466C57.1237 29.0466 56.4468 29.7236 56.4468 30.5586C56.4468 31.3937 57.1237 32.0706 57.9588 32.0706Z" fill="white"/>
<path d="M27.5708 41.8896C27.8699 41.8896 28.1622 41.9783 28.4109 42.1445C28.6595 42.3106 28.8533 42.5467 28.9677 42.823C29.0822 43.0993 29.1121 43.4033 29.0538 43.6966C28.9954 43.9899 28.8514 44.2593 28.64 44.4708C28.4285 44.6823 28.1591 44.8263 27.8658 44.8846C27.5725 44.9429 27.2685 44.913 26.9922 44.7986C26.7159 44.6841 26.4798 44.4903 26.3137 44.2417C26.1475 43.993 26.0588 43.7007 26.0588 43.4016C26.0588 43.0006 26.2181 42.6161 26.5017 42.3325C26.7852 42.0489 27.1698 41.8896 27.5708 41.8896V41.8896Z" fill="#56DCE8"/>
<path d="M27.5708 51.4492C27.8699 51.4492 28.1622 51.5379 28.4109 51.704C28.6595 51.8702 28.8533 52.1063 28.9677 52.3826C29.0822 52.6589 29.1121 52.9629 29.0538 53.2562C28.9954 53.5495 28.8514 53.8189 28.64 54.0304C28.4285 54.2418 28.1591 54.3858 27.8658 54.4442C27.5725 54.5025 27.2685 54.4726 26.9922 54.3581C26.7159 54.2437 26.4798 54.0499 26.3137 53.8012C26.1475 53.5526 26.0588 53.2603 26.0588 52.9612C26.0588 52.5602 26.2181 52.1756 26.5017 51.8921C26.7852 51.6085 27.1698 51.4492 27.5708 51.4492V51.4492Z" fill="#21D885"/>
<path d="M31.3885 57.8301C31.6875 57.8301 31.9798 57.9188 32.2285 58.0849C32.4771 58.251 32.6709 58.4872 32.7854 58.7635C32.8998 59.0397 32.9298 59.3438 32.8714 59.6371C32.8131 59.9304 32.6691 60.1998 32.4576 60.4112C32.2462 60.6227 31.9767 60.7667 31.6834 60.825C31.3901 60.8834 31.0861 60.8534 30.8098 60.739C30.5336 60.6245 30.2974 60.4307 30.1313 60.1821C29.9651 59.9335 29.8765 59.6411 29.8765 59.3421C29.8765 58.9411 30.0358 58.5565 30.3193 58.2729C30.6029 57.9894 30.9875 57.8301 31.3885 57.8301V57.8301Z" fill="#FABC05"/>
<path d="M27.5708 37.3844C28.4059 37.3844 29.0828 36.7074 29.0828 35.8724C29.0828 35.0373 28.4059 34.3604 27.5708 34.3604C26.7358 34.3604 26.0588 35.0373 26.0588 35.8724C26.0588 36.7074 26.7358 37.3844 27.5708 37.3844Z" fill="white"/>
<path d="M31.8074 29.0466C32.1065 29.0466 32.3988 29.1353 32.6474 29.3014C32.8961 29.4676 33.0899 29.7037 33.2043 29.98C33.3188 30.2563 33.3487 30.5603 33.2904 30.8536C33.232 31.1469 33.088 31.4163 32.8766 31.6278C32.6651 31.8392 32.3957 31.9832 32.1024 32.0416C31.8091 32.0999 31.5051 32.07 31.2288 31.9555C30.9525 31.8411 30.7164 31.6473 30.5502 31.3987C30.3841 31.15 30.2954 30.8577 30.2954 30.5586C30.2954 30.1576 30.4547 29.773 30.7383 29.4895C31.0218 29.2059 31.4064 29.0466 31.8074 29.0466V29.0466Z" fill="#FABC05"/>
<path d="M57.0166 43.9305H60.2221C60.3504 44.4087 60.6483 44.8241 61.0601 45.0991C61.472 45.3741 61.9697 45.49 62.4607 45.4253C62.9517 45.3606 63.4024 45.1196 63.7288 44.7472C64.0553 44.3749 64.2353 43.8965 64.2353 43.4013C64.2353 42.9061 64.0553 42.4278 63.7288 42.0554C63.4024 41.6831 62.9517 41.4421 62.4607 41.3773C61.9697 41.3126 61.472 41.4285 61.0601 41.7036C60.6483 41.9786 60.3504 42.3939 60.2221 42.8722H57.0166V40.3095H59.3971C59.4813 40.3094 59.5642 40.2894 59.6391 40.2509C59.714 40.2124 59.7786 40.1566 59.8276 40.0882L61.4776 37.782C61.9407 37.9551 62.451 37.954 62.9134 37.7788C63.3757 37.6037 63.7587 37.2665 63.991 36.83C64.2232 36.3936 64.2889 35.8875 64.1758 35.4062C64.0627 34.9249 63.7785 34.5011 63.3762 34.2137C62.9739 33.9263 62.4808 33.795 61.9888 33.8441C61.4968 33.8932 61.0395 34.1195 60.7019 34.4807C60.3643 34.842 60.1696 35.3136 60.1539 35.8078C60.1382 36.302 60.3026 36.785 60.6166 37.167L59.1241 39.2505H57.0158V37.2885C57.0158 37.148 56.9601 37.0133 56.8608 36.914C56.7615 36.8147 56.6268 36.759 56.4863 36.759C55.668 36.7589 54.8706 36.5003 54.2078 36.0202L57.1268 32.4202C57.5807 32.6237 58.0931 32.6551 58.5685 32.5087C59.0439 32.3623 59.4498 32.0481 59.7106 31.6245C59.9714 31.201 60.0693 30.697 59.9861 30.2066C59.9028 29.7162 59.6441 29.2729 59.2581 28.9591C58.8721 28.6454 58.3852 28.4827 57.8881 28.5015C57.3911 28.5202 56.9178 28.719 56.5565 29.0608C56.1951 29.4027 55.9705 29.8643 55.9243 30.3596C55.8782 30.8548 56.0137 31.35 56.3056 31.7527L53.4368 35.292C52.879 34.5992 52.5754 33.7363 52.5766 32.847C52.5793 32.7758 52.5676 32.7048 52.5422 32.6383C52.5168 32.5718 52.4783 32.511 52.4289 32.4597C52.3795 32.4084 52.3202 32.3676 52.2547 32.3398C52.1892 32.3119 52.1187 32.2975 52.0475 32.2975C51.9763 32.2975 51.9058 32.3119 51.8402 32.3398C51.7747 32.3676 51.7155 32.4084 51.6661 32.4597C51.6167 32.511 51.5781 32.5718 51.5528 32.6383C51.5274 32.7048 51.5157 32.7758 51.5183 32.847C51.5184 33.5165 51.6542 34.1792 51.9177 34.7947C52.1812 35.4103 52.5669 35.966 53.0513 36.4282C53.0736 36.4572 53.0987 36.4838 53.1263 36.5077C53.1286 36.5072 53.1309 36.5072 53.1331 36.5077C53.9131 37.2235 54.902 37.6703 55.9546 37.7827V46.914C55.9552 48.5453 55.5573 50.1522 54.7954 51.5947C54.0334 53.0372 52.9306 54.2718 51.5828 55.191L44.8801 59.766L38.1773 55.191C36.8294 54.2719 35.7265 53.0374 34.9644 51.5948C34.2024 50.1523 33.8043 48.5454 33.8048 46.914V37.7895C34.8532 37.6772 35.8382 37.2331 36.6166 36.522C36.6226 36.5175 36.6293 36.516 36.6353 36.5115C36.663 36.4878 36.6881 36.4614 36.7103 36.4327C37.5567 35.6248 38.0899 34.5435 38.2156 33.3802H48.8356C48.9068 33.3829 48.9777 33.3712 49.0443 33.3458C49.1108 33.3204 49.1715 33.2819 49.2228 33.2325C49.2741 33.1831 49.3149 33.1238 49.3428 33.0583C49.3707 32.9928 49.385 32.9223 49.385 32.8511C49.385 32.7799 49.3707 32.7094 49.3428 32.6439C49.3149 32.5783 49.2741 32.5191 49.2228 32.4697C49.1715 32.4203 49.1108 32.3817 49.0443 32.3564C48.9777 32.331 48.9068 32.3193 48.8356 32.322H37.7176C37.5772 32.322 37.4425 32.3777 37.3432 32.477C37.2439 32.5763 37.1881 32.711 37.1881 32.8515C37.1884 33.7395 36.8848 34.601 36.3278 35.2927L33.4583 31.7565C33.749 31.3548 33.8837 30.8611 33.8375 30.3675C33.7912 29.8738 33.567 29.4139 33.2067 29.0732C32.8464 28.7326 32.3746 28.5346 31.8791 28.516C31.3837 28.4974 30.8983 28.6596 30.5136 28.9724C30.1288 29.2851 29.8709 29.727 29.7878 30.2158C29.7047 30.7046 29.8021 31.207 30.0619 31.6292C30.3217 32.0515 30.7262 32.365 31.2 32.5112C31.6737 32.6574 32.1845 32.6264 32.6371 32.424L35.5568 36.024C34.8941 36.504 34.0967 36.7626 33.2783 36.7627C33.1379 36.7627 33.0032 36.8185 32.9039 36.9178C32.8046 37.0171 32.7488 37.1518 32.7488 37.2922V39.2542H30.6398L29.1481 37.167C29.4668 36.7814 29.6344 36.2931 29.6196 35.7932C29.6048 35.2932 29.4086 34.8156 29.0676 34.4497C28.7266 34.0837 28.2641 33.8543 27.7664 33.8043C27.2687 33.7542 26.7698 33.8869 26.3628 34.1777C25.9557 34.4684 25.6684 34.8973 25.5543 35.3843C25.4402 35.8714 25.5072 36.3833 25.7428 36.8245C25.9784 37.2658 26.3665 37.6062 26.8346 37.7824C27.3028 37.9586 27.8191 37.9584 28.2871 37.782L29.9371 40.0882C29.9856 40.1572 30.0499 40.2137 30.1247 40.2528C30.1994 40.2919 30.2825 40.3127 30.3668 40.3132H32.7488V42.876H29.5396C29.4112 42.3977 29.1134 41.9823 28.7016 41.7073C28.2897 41.4323 27.792 41.3164 27.301 41.3811C26.81 41.4458 26.3593 41.6868 26.0328 42.0592C25.7064 42.4315 25.5264 42.9099 25.5264 43.4051C25.5264 43.9003 25.7064 44.3786 26.0328 44.751C26.3593 45.1233 26.81 45.3643 27.301 45.4291C27.792 45.4938 28.2897 45.3779 28.7016 45.1028C29.1134 44.8278 29.4112 44.4125 29.5396 43.9342H32.7488V46.9177C32.7488 47.0505 32.7563 47.1817 32.7608 47.3145H30.1411C30.0429 47.3144 29.9467 47.3417 29.8631 47.3932C29.7795 47.4447 29.7119 47.5185 29.6678 47.6062L27.9818 50.9662C27.4942 50.8634 26.9857 50.9414 26.5513 51.1858C26.117 51.4302 25.7863 51.8242 25.621 52.2944C25.4556 52.7646 25.467 53.2789 25.6528 53.7413C25.8387 54.2038 26.1864 54.5828 26.6311 54.8078C27.0758 55.0329 27.5872 55.0884 28.0699 54.9643C28.5526 54.8401 28.9736 54.5445 29.2545 54.1328C29.5354 53.7211 29.657 53.2213 29.5965 52.7266C29.5361 52.2318 29.2978 51.776 28.9261 51.444L30.4673 48.369H32.8471C33.164 50.7727 34.2615 53.0058 35.9708 54.7252L32.5403 57.6592C32.1299 57.3762 31.6304 57.2521 31.1352 57.3101C30.64 57.3681 30.1828 57.6042 29.8488 57.9744C29.5148 58.3447 29.3269 58.8237 29.3201 59.3223C29.3133 59.8209 29.4881 60.3049 29.8118 60.6841C30.1355 61.0633 30.5862 61.3119 31.0796 61.3834C31.5731 61.4549 32.0757 61.3445 32.4937 61.0727C32.9118 60.801 33.2167 60.3864 33.3517 59.9065C33.4867 59.4265 33.4425 58.9138 33.2273 58.464L36.7613 55.44C37.0253 55.659 37.2968 55.8697 37.5863 56.0647L44.5876 60.8422C44.6756 60.9035 44.7803 60.9364 44.8876 60.9364C44.9949 60.9364 45.0996 60.9035 45.1876 60.8422L52.1888 56.0647C52.4746 55.8697 52.7461 55.659 53.0138 55.44L56.5478 58.464C56.335 58.9109 56.2919 59.42 56.4266 59.8963C56.5612 60.3727 56.8644 60.7839 57.2797 61.0533C57.695 61.3227 58.194 61.432 58.6839 61.3608C59.1738 61.2896 59.6211 61.0428 59.9425 60.6663C60.2639 60.2898 60.4375 59.8093 60.431 59.3143C60.4244 58.8193 60.2382 58.3436 59.9069 57.9757C59.5757 57.6079 59.122 57.3729 58.6305 57.3147C58.1389 57.2565 57.6429 57.3789 57.2348 57.6592L53.8036 54.7237C55.5129 53.0043 56.6104 50.7712 56.9273 48.3675H59.3071L60.8491 51.4387C60.4842 51.767 60.2511 52.2167 60.1929 52.7041C60.1348 53.1915 60.2556 53.6834 60.533 54.0883C60.8104 54.4933 61.2254 54.7837 61.7009 54.9055C62.1764 55.0274 62.6799 54.9724 63.1179 54.7508C63.5558 54.5292 63.8984 54.1561 64.0819 53.7009C64.2654 53.2456 64.2772 52.7392 64.1153 52.2759C63.9533 51.8125 63.6286 51.4237 63.2015 51.1819C62.7744 50.94 62.274 50.8615 61.7933 50.961L60.1073 47.601C60.0633 47.5132 59.9957 47.4395 59.9121 47.388C59.8285 47.3365 59.7323 47.3092 59.6341 47.3092H57.0046C57.0091 47.1772 57.0166 47.0452 57.0166 46.9125V43.9305ZM62.1916 42.4185C62.3859 42.4185 62.5759 42.4761 62.7374 42.584C62.899 42.692 63.0249 42.8454 63.0993 43.025C63.1737 43.2045 63.1931 43.402 63.1552 43.5926C63.1173 43.7832 63.0237 43.9583 62.8863 44.0957C62.7489 44.2331 62.5739 44.3267 62.3833 44.3646C62.1927 44.4025 61.9951 44.383 61.8156 44.3087C61.6361 44.2343 61.4826 44.1084 61.3747 43.9468C61.2667 43.7852 61.2091 43.5953 61.2091 43.401C61.2091 43.2717 61.2346 43.1437 61.2842 43.0243C61.3337 42.9049 61.4064 42.7964 61.4979 42.7052C61.5895 42.6139 61.6981 42.5416 61.8177 42.4924C61.9372 42.4432 62.0653 42.4181 62.1946 42.4185H62.1916ZM62.1916 34.8885C62.3859 34.8885 62.5759 34.9461 62.7374 35.054C62.899 35.162 63.0249 35.3154 63.0993 35.495C63.1737 35.6745 63.1931 35.872 63.1552 36.0626C63.1173 36.2532 63.0237 36.4283 62.8863 36.5657C62.7489 36.7031 62.5739 36.7967 62.3833 36.8346C62.1927 36.8725 61.9951 36.853 61.8156 36.7787C61.6361 36.7043 61.4826 36.5784 61.3747 36.4168C61.2667 36.2552 61.2091 36.0653 61.2091 35.871C61.2091 35.6104 61.3126 35.3605 61.4969 35.1762C61.6811 34.992 61.931 34.8885 62.1916 34.8885ZM57.9548 29.5755C58.1492 29.5755 58.3391 29.6331 58.5007 29.741C58.6623 29.849 58.7882 30.0024 58.8626 30.182C58.9369 30.3615 58.9564 30.559 58.9185 30.7496C58.8806 30.9402 58.787 31.1153 58.6496 31.2527C58.5122 31.3901 58.3371 31.4837 58.1465 31.5216C57.9559 31.5595 57.7584 31.54 57.5789 31.4657C57.3993 31.3913 57.2459 31.2654 57.1379 31.1038C57.03 30.9422 56.9723 30.7523 56.9723 30.558C56.9724 30.4287 56.998 30.3008 57.0476 30.1815C57.0972 30.0622 57.1699 29.9538 57.2614 29.8626C57.353 29.7714 57.4616 29.6992 57.5811 29.6501C57.7006 29.6009 57.8286 29.5758 57.9578 29.5762L57.9548 29.5755ZM30.8221 30.5587C30.8221 30.3644 30.8797 30.1744 30.9877 30.0129C31.0956 29.8513 31.2491 29.7254 31.4286 29.651C31.6081 29.5766 31.8057 29.5572 31.9963 29.5951C32.1869 29.633 32.3619 29.7266 32.4993 29.864C32.6367 30.0014 32.7303 30.1764 32.7682 30.367C32.8061 30.5576 32.7867 30.7552 32.7123 30.9347C32.6379 31.1142 32.512 31.2677 32.3504 31.3756C32.1889 31.4836 31.9989 31.5412 31.8046 31.5412C31.544 31.5412 31.2941 31.4377 31.1099 31.2534C30.9256 31.0692 30.8221 30.8193 30.8221 30.5587ZM26.5876 35.8725C26.5876 35.6781 26.6452 35.4882 26.7532 35.3266C26.8611 35.165 27.0146 35.0391 27.1941 34.9647C27.3736 34.8904 27.5712 34.8709 27.7618 34.9088C27.9524 34.9467 28.1274 35.0403 28.2648 35.1777C28.4022 35.3151 28.4958 35.4902 28.5337 35.6808C28.5716 35.8714 28.5522 36.0689 28.4778 36.2484C28.4034 36.428 28.2775 36.5814 28.1159 36.6894C27.9544 36.7973 27.7644 36.855 27.5701 36.855C27.3095 36.855 27.0596 36.7514 26.8754 36.5672C26.6911 36.3829 26.5876 36.133 26.5876 35.8725ZM27.5701 44.3842C27.3758 44.3842 27.1858 44.3266 27.0242 44.2186C26.8627 44.1107 26.7367 43.9572 26.6624 43.7777C26.588 43.5982 26.5686 43.4006 26.6065 43.21C26.6444 43.0194 26.738 42.8444 26.8754 42.707C27.0128 42.5696 27.1878 42.476 27.3784 42.4381C27.569 42.4002 27.7666 42.4196 27.9461 42.494C28.1256 42.5684 28.2791 42.6943 28.387 42.8559C28.495 43.0174 28.5526 43.2074 28.5526 43.4017C28.5526 43.6623 28.4491 43.9122 28.2648 44.0964C28.0806 44.2807 27.8307 44.3842 27.5701 44.3842ZM27.5701 53.9445C27.3758 53.9445 27.1858 53.8868 27.0242 53.7789C26.8627 53.6709 26.7367 53.5175 26.6624 53.3379C26.588 53.1584 26.5686 52.9609 26.6065 52.7703C26.6444 52.5797 26.738 52.4046 26.8754 52.2672C27.0128 52.1298 27.1878 52.0362 27.3784 51.9983C27.569 51.9604 27.7666 51.9799 27.9461 52.0542C28.1256 52.1286 28.2791 52.2545 28.387 52.4161C28.495 52.5777 28.5526 52.7676 28.5526 52.962C28.5526 53.2224 28.4492 53.4722 28.2651 53.6564C28.081 53.8407 27.8313 53.9443 27.5708 53.9445H27.5701ZM31.3876 60.3247C31.1933 60.3247 31.0033 60.2671 30.8417 60.1591C30.6802 60.0512 30.5542 59.8977 30.4799 59.7182C30.4055 59.5387 30.3861 59.3411 30.424 59.1505C30.4619 58.9599 30.5555 58.7849 30.6929 58.6475C30.8303 58.5101 31.0053 58.4165 31.1959 58.3786C31.3865 58.3407 31.5841 58.3601 31.7636 58.4345C31.9431 58.5089 32.0966 58.6348 32.2045 58.7964C32.3125 58.9579 32.3701 59.1479 32.3701 59.3422C32.3701 59.6028 32.2666 59.8527 32.0823 60.0369C31.8981 60.2212 31.6482 60.3247 31.3876 60.3247ZM63.1778 52.9612C63.1778 53.1555 63.1202 53.3455 63.0123 53.5071C62.9043 53.6686 62.7509 53.7946 62.5713 53.8689C62.3918 53.9433 62.1943 53.9627 62.0037 53.9248C61.8131 53.8869 61.638 53.7933 61.5006 53.6559C61.3632 53.5185 61.2696 53.3435 61.2317 53.1529C61.1938 52.9623 61.2133 52.7647 61.2876 52.5852C61.362 52.4057 61.4879 52.2522 61.6495 52.1443C61.8111 52.0363 62.001 51.9787 62.1953 51.9787C62.4559 51.9787 62.7058 52.0822 62.8901 52.2665C63.0743 52.4507 63.1778 52.7006 63.1778 52.9612ZM59.3603 59.3415C59.3603 59.5358 59.3027 59.7257 59.1948 59.8873C59.0868 60.0489 58.9334 60.1748 58.7538 60.2492C58.5743 60.3235 58.3768 60.343 58.1862 60.3051C57.9956 60.2672 57.8205 60.1736 57.6831 60.0362C57.5457 59.8988 57.4521 59.7237 57.4142 59.5331C57.3763 59.3425 57.3958 59.145 57.4701 58.9655C57.5445 58.7859 57.6704 58.6325 57.832 58.5245C57.9936 58.4166 58.1835 58.359 58.3778 58.359C58.5069 58.359 58.6346 58.3844 58.7538 58.4337C58.873 58.4831 58.9813 58.5555 59.0726 58.6467C59.1638 58.738 59.2362 58.8463 59.2856 58.9655C59.3349 59.0847 59.3603 59.2124 59.3603 59.3415Z" fill="black"/>
<path d="M42.1006 54.2063C42.0434 54.1635 41.978 54.1328 41.9086 54.116C41.8391 54.0991 41.767 54.0965 41.6965 54.1083C41.626 54.1201 41.5586 54.1461 41.4984 54.1846C41.4382 54.2232 41.3865 54.2735 41.3462 54.3325C41.306 54.3916 41.2782 54.4582 41.2644 54.5283C41.2506 54.5985 41.2511 54.6707 41.2659 54.7406C41.2808 54.8105 41.3096 54.8767 41.3507 54.9351C41.3919 54.9936 41.4444 55.0431 41.5051 55.0808L42.3676 55.6695C42.4836 55.7491 42.6264 55.7793 42.7647 55.7536C42.9029 55.7278 43.0253 55.6482 43.1049 55.5323C43.1844 55.4163 43.2147 55.2735 43.1889 55.1352C43.1632 54.9969 43.0836 54.8746 42.9676 54.795L42.1006 54.2063Z" fill="black"/>
<path d="M39.6167 35.658C38.9178 37.2318 37.6595 38.4901 36.0857 39.189C35.9922 39.2307 35.9127 39.2985 35.8569 39.3844C35.8012 39.4702 35.7715 39.5704 35.7715 39.6728V46.914C35.7708 48.2257 36.0907 49.5177 36.7034 50.6776C37.3161 51.8374 38.2029 52.8299 39.2867 53.5688C39.403 53.642 39.5433 53.6672 39.6778 53.6391C39.8123 53.611 39.9307 53.5317 40.0079 53.418C40.0852 53.3043 40.1152 53.1651 40.0918 53.0296C40.0683 52.8942 39.9932 52.7732 39.8822 52.692C38.9417 52.0507 38.1721 51.1894 37.6401 50.1829C37.1081 49.1765 36.8299 48.0554 36.8297 46.917V40.008C38.3927 39.2313 39.659 37.965 40.4357 36.402H49.3277C50.1044 37.965 51.3707 39.2313 52.9337 40.008V46.914C52.9334 48.0525 52.655 49.1737 52.1227 50.1802C51.5905 51.1866 50.8205 52.0478 49.8797 52.689L44.5847 56.3033C44.5273 56.3427 44.4782 56.393 44.4402 56.4514C44.4023 56.5097 44.3762 56.575 44.3634 56.6435C44.3507 56.7119 44.3515 56.7822 44.366 56.8504C44.3804 56.9185 44.4081 56.9831 44.4475 57.0405C44.4869 57.098 44.5372 57.1471 44.5956 57.185C44.6539 57.223 44.7192 57.2491 44.7877 57.2618C44.8561 57.2746 44.9264 57.2737 44.9946 57.2593C45.0627 57.2449 45.1273 57.2172 45.1847 57.1778L50.4805 53.565C51.5639 52.8263 52.4504 51.8341 53.0629 50.6747C53.6754 49.5153 53.9954 48.2238 53.995 46.9125V39.6705C53.995 39.5682 53.9653 39.468 53.9095 39.3821C53.8537 39.2963 53.7743 39.2284 53.6807 39.1868C52.1074 38.4879 50.8494 37.2299 50.1505 35.6565C50.1089 35.563 50.041 35.4835 49.9552 35.4277C49.8693 35.372 49.7691 35.3423 49.6667 35.3423H40.1012C39.9986 35.3423 39.8981 35.3721 39.8121 35.4282C39.726 35.4842 39.6582 35.5641 39.6167 35.658Z" fill="black"/>
</svg>
