<svg width="208" height="58" viewBox="0 0 208 58" fill="none" xmlns="http://www.w3.org/2000/svg">
<g clip-path="url(#clip0)">
<path d="M81.8051 16.5371V21.4095H68.7011V26.7336H80.7651V31.6407H68.7011V41.8806H62.4004V16.5371H81.8051Z" fill="#0073FF"/>
<path d="M86.9531 16.502H92.3958V20.8012H86.9531V16.502ZM86.9531 23.1028H92.3958V41.8715H86.9531V23.1028Z" fill="#0073FF"/>
<path d="M96.2949 23.1375H102.102C104.398 31.4666 104.788 33.1689 105.395 36.7473C106.149 32.587 106.262 32.1267 107.371 27.7059L108.515 23.1201H114.174L108.108 41.8541H102.353L96.2949 23.1375Z" fill="#0073FF"/>
<path d="M135.061 37.0946C134.423 38.1176 133.663 39.0595 132.799 39.9C130.865 41.6445 128.346 42.5936 125.744 42.5576C120.189 42.5576 116.289 38.9707 116.289 32.8649C116.289 28.3399 118.508 22.5208 125.883 22.5208C127.13 22.4827 128.371 22.702 129.53 23.1652C130.688 23.6284 131.739 24.3255 132.617 25.2132C135.061 27.8188 135.217 31.5013 135.269 33.6119H121.922C121.922 35.9482 123.205 38.2758 126.204 38.2758C129.202 38.2758 130.251 36.2956 130.936 34.9754L135.061 37.0946ZM129.575 30.1465C129.53 29.17 129.164 28.2357 128.535 27.4888C127.807 26.809 126.844 26.4385 125.848 26.4552C125.324 26.4519 124.805 26.5584 124.325 26.7678C123.844 26.9772 123.413 27.2849 123.058 27.6712C122.462 28.3746 122.077 29.2329 121.948 30.1465H129.575Z" fill="#0073FF"/>
<path d="M140.729 17.7178H146.215V23.5716H149.829V26.9415H146.18V35.4183C146.18 36.5647 146.18 37.5635 147.61 37.5635L149.586 37.4941V41.7933C148.627 41.9665 147.657 42.0623 146.683 42.0798C144.776 42.0798 142.705 41.9756 141.483 40.2473C140.729 39.1356 140.694 37.8067 140.694 36.0176V26.9068H137.973V23.5282H140.694L140.729 17.7178Z" fill="#0073FF"/>
<path d="M159.744 25.074C161.246 23.756 163.156 22.9982 165.152 22.9287V27.8272L163.332 28.1138C160.68 28.5741 159.865 28.9823 159.865 31.3447V41.8712H154.379V23.1024H159.752L159.744 25.074Z" fill="#0073FF"/>
<path d="M169.138 28.4707C169.128 27.6718 169.3 26.8812 169.643 26.1598C169.985 25.4385 170.489 24.8057 171.114 24.3105C172.848 22.9556 175.049 22.6689 177.242 22.6689C179.434 22.6689 185.102 23.1987 185.102 28.0451V38.893C185.102 40.9079 185.206 41.1946 185.64 41.8373H180.266V40.1002C178.836 41.1425 177.294 42.3323 174.546 42.3323C170.265 42.3323 168.428 39.2404 168.428 36.6C168.428 33.5863 170.828 31.8666 172.362 31.2239C174.771 30.4494 177.237 29.8685 179.738 29.4868V28.4794C179.668 27.6108 179.599 26.1778 177.597 26.1778C175.162 26.1778 174.832 27.689 174.694 28.3752L169.138 28.4707ZM176.124 34.1161C175.196 34.4722 173.758 34.9846 173.758 36.4437C173.787 36.9737 174.024 37.4707 174.416 37.8269C174.809 38.183 175.326 38.3695 175.855 38.3458C176.532 38.3249 177.19 38.1143 177.753 37.7378C179.573 36.5914 179.651 34.8717 179.694 32.9262L176.124 34.1161Z" fill="#0073FF"/>
<path d="M196.925 24.8227C197.433 24.2006 198.072 23.6993 198.797 23.3549C199.874 22.9021 201.027 22.6604 202.194 22.6427C203.351 22.6145 204.496 22.871 205.531 23.3897C207.498 24.4319 208.001 26.1169 208.001 29.0264V41.8719H202.524V31.3193C202.618 30.3796 202.533 29.4304 202.272 28.5227C202.055 28.0602 201.702 27.6752 201.261 27.4191C200.82 27.163 200.311 27.048 199.802 27.0896C196.899 27.0896 196.899 29.4259 196.899 31.7536V41.8719H191.404V23.1726H196.96L196.925 24.8227Z" fill="#0073FF"/>
<path d="M28.7653 29.0082H34.5807C34.8105 29.0082 35.031 28.9166 35.1935 28.7538C35.356 28.5909 35.4473 28.37 35.4473 28.1396C35.4469 28.0204 35.4233 27.9024 35.378 27.7922L25.3767 0.511896C25.3149 0.351389 25.207 0.21288 25.0666 0.11392C24.9262 0.01496 24.7596 -0.0399793 24.588 -0.0439453H18.7553C18.5255 -0.0439453 18.3051 0.0475457 18.1425 0.210425C17.98 0.373305 17.8887 0.594232 17.8887 0.824578C17.8888 0.925288 17.9064 1.02521 17.9407 1.11987L27.9507 28.4697C28.0168 28.631 28.1299 28.7687 28.2752 28.8648C28.4205 28.9608 28.5913 29.0108 28.7653 29.0082Z" fill="#0073FF"/>
<path d="M27.7341 57.9997H33.5494C33.7793 57.9997 33.9997 57.9082 34.1622 57.7453C34.3248 57.5824 34.4161 57.3615 34.4161 57.1312C34.416 57.0305 34.3984 56.9305 34.3641 56.8359L13.746 0.529474C13.6837 0.367616 13.5745 0.228184 13.4324 0.129113C13.2903 0.0300415 13.1218 -0.0241145 12.9487 -0.0263672H7.14206C6.9122 -0.0263672 6.69178 0.0651238 6.52924 0.228004C6.36671 0.390883 6.27539 0.61181 6.27539 0.842157C6.27551 0.942866 6.2931 1.04278 6.32739 1.13745L26.9454 57.4525C27.0085 57.6114 27.117 57.7481 27.2573 57.8454C27.3976 57.9428 27.5634 57.9964 27.7341 57.9997Z" fill="#0073FF"/>
<path d="M16.2754 58H22.082C22.3003 58.0007 22.5109 57.9188 22.6716 57.7707C22.8323 57.6226 22.9312 57.4191 22.9487 57.201C22.9484 57.0861 22.9308 56.9719 22.8967 56.8623L12.8607 29.5559C12.799 29.3954 12.691 29.2568 12.5506 29.1579C12.4102 29.0589 12.2436 29.004 12.072 29H6.23069C6.00996 29.0133 5.80265 29.1106 5.6512 29.2721C5.49975 29.4336 5.41562 29.6469 5.41602 29.8685C5.41575 29.9636 5.43339 30.0579 5.46802 30.1465L15.4607 57.4615C15.5268 57.6229 15.6399 57.7606 15.7852 57.8566C15.9305 57.9527 16.1013 58.0026 16.2754 58Z" fill="#0073FF"/>
<path d="M29.4667 1.14614L34.1553 13.9221C34.2171 14.0826 34.325 14.2212 34.4654 14.3201C34.6058 14.4191 34.7724 14.474 34.944 14.478H40.7334C40.9632 14.478 41.1836 14.3865 41.3462 14.2236C41.5087 14.0607 41.6 13.8398 41.6 13.6095C41.5999 13.5088 41.5823 13.4088 41.548 13.3141L36.8594 0.529474C36.7976 0.368967 36.6897 0.230458 36.5493 0.131498C36.4089 0.0325381 36.2423 -0.0224012 36.0707 -0.0263672H30.2553C30.0255 -0.0263672 29.8051 0.0651238 29.6425 0.228004C29.48 0.390883 29.3887 0.611809 29.3887 0.842156C29.396 0.94739 29.4225 1.05041 29.4667 1.14614Z" fill="#0073FF"/>
<path d="M5.55531 58.0001H11.362C11.5918 58.0001 11.8123 57.9086 11.9748 57.7457C12.1373 57.5828 12.2287 57.3619 12.2287 57.1316C12.2285 57.0309 12.2109 56.9309 12.1767 56.8363L7.46199 44.0255C7.39968 43.8637 7.29047 43.7243 7.14836 43.6252C7.00625 43.5261 6.83777 43.472 6.66467 43.4697H0.866667C0.636812 43.4697 0.416385 43.5612 0.253853 43.7241C0.0913218 43.887 0 44.1079 0 44.3383C0.000317133 44.4418 0.0178903 44.5445 0.0519979 44.6422L4.74064 57.4529C4.8054 57.6159 4.91795 57.7554 5.06337 57.8531C5.20879 57.9508 5.38026 58.002 5.55531 58.0001Z" fill="#0073FF"/>
</g>
<defs>
<clipPath id="clip0">
<rect width="208" height="58" fill="white"/>
</clipPath>
</defs>
</svg>
