<svg width="80" height="80" viewBox="0 0 80 80" fill="none" xmlns="http://www.w3.org/2000/svg">
<path d="M40 80C62.0914 80 80 62.0914 80 40C80 17.9086 62.0914 0 40 0C17.9086 0 0 17.9086 0 40C0 62.0914 17.9086 80 40 80Z" fill="#EFF3FB"/>
<g clip-path="url(#clip0)">
<path d="M41.5001 22.1903V54.2322L39.4905 57.1305L34.7743 58.0487L31.9041 57.1305L30.0969 54.2322L28.8163 52.0871L25.6939 50.6097C25.2601 49.9473 24.9636 49.2045 24.8219 48.4254C24.6802 47.6463 24.696 46.8467 24.8688 46.0739C25.5793 43.8065 25.8394 44.0598 25.8394 44.0598L23.0441 42.4097L21.491 39.194L22.4043 37.1391L23.2237 35.2813L22.6848 33.1372L23.4005 30.1146L25.8271 28.9139L26.2665 27.6113L27.2741 24.2684C27.2741 24.2684 29.5492 23.2191 30.4908 23.3948C31.4323 23.5705 31.5586 21.4099 31.5586 21.4099L34.1103 19.0949L38.381 18.8173L40.409 20.3247L41.5001 22.1903Z" fill="#21D885"/>
<path d="M55.2141 51.2639C54.5537 51.6077 53.8333 51.8209 53.0922 51.8919C53.0121 51.9 52.9344 51.9242 52.8639 51.9631C52.7934 52.0021 52.7315 52.0549 52.682 52.1184C52.6325 52.1819 52.5963 52.2548 52.5757 52.3326C52.5552 52.4105 52.5506 52.4917 52.5623 52.5714C52.5939 52.764 52.6107 52.9586 52.6127 53.1538C52.6127 55.6367 50.2541 57.6566 47.3547 57.6566C46.3736 57.6885 45.4027 57.4492 44.5487 56.9651C43.6947 56.481 42.9907 55.7708 42.5141 54.9126C42.4212 54.726 42.2763 54.5702 42.0968 54.4641V46.929H42.2336C43.3984 46.8873 44.8485 46.832 45.6561 47.6153C46.1172 48.1267 46.3748 48.7894 46.3802 49.4779C45.9835 49.6231 45.6509 49.9037 45.4411 50.2704C45.2313 50.637 45.1579 51.066 45.2338 51.4815C45.3097 51.897 45.53 52.2724 45.8558 52.5412C46.1817 52.81 46.592 52.955 47.0144 52.9505C47.4368 52.9461 47.844 52.7924 48.1641 52.5168C48.4841 52.2412 48.6965 51.8613 48.7636 51.4442C48.8307 51.0272 48.7482 50.5999 48.5307 50.2377C48.3132 49.8756 47.9748 49.602 47.5751 49.4653C47.5661 48.457 47.1764 47.4894 46.4841 46.7563C45.3125 45.6255 43.5081 45.6886 42.1909 45.7371H42.0939V41.9885C48.1769 42.0011 51.247 42.2505 51.5091 45.5274C51.1121 45.6726 50.7793 45.9533 50.5693 46.3202C50.3593 46.687 50.2858 47.1162 50.3617 47.532C50.4376 47.9478 50.658 48.3234 50.984 48.5924C51.31 48.8614 51.7207 49.0065 52.1433 49.002C52.5659 48.9975 52.9734 48.8438 53.2937 48.568C53.6139 48.2922 53.8264 47.912 53.8935 47.4947C53.9606 47.0774 53.878 46.6498 53.6603 46.2875C53.4426 45.9252 53.1039 45.6515 52.704 45.5148C52.6841 44.5507 52.3413 43.6212 51.7304 42.875C51.1196 42.1288 50.276 41.6092 49.3349 41.3993C46.9583 40.8713 44.5211 40.6682 42.09 40.7955V37.0741C44.5211 37.2014 46.9583 36.9983 49.3349 36.4703C50.276 36.2604 51.1196 35.7408 51.7304 34.9946C52.3413 34.2485 52.6841 33.3189 52.704 32.3548C53.1034 32.2181 53.4416 31.9446 53.6589 31.5827C53.8762 31.2208 53.9586 30.7937 53.8915 30.3769C53.8244 29.9601 53.6121 29.5805 53.2922 29.305C52.9723 29.0296 52.5654 28.8761 52.1433 28.8716C51.7211 28.8672 51.311 29.0121 50.9854 29.2807C50.6597 29.5493 50.4395 29.9244 50.3636 30.3397C50.2878 30.7549 50.3611 31.1837 50.5707 31.5501C50.7803 31.9165 51.1127 32.1971 51.5091 32.3422C51.2431 35.6201 48.173 35.8685 42.0939 35.8812V32.2519H42.1909C42.4705 32.2616 42.7733 32.2723 43.0829 32.2723C44.3074 32.3784 45.5252 32.0054 46.4802 31.2318C47.1726 30.4987 47.5623 29.531 47.5712 28.5227C47.9706 28.386 48.3088 28.1125 48.5261 27.7506C48.7434 27.3887 48.8258 26.9616 48.7587 26.5448C48.6916 26.128 48.4794 25.7484 48.1595 25.4729C47.8396 25.1975 47.4326 25.044 47.0105 25.0395C46.5884 25.0351 46.1783 25.18 45.8526 25.4486C45.527 25.7172 45.3068 26.0923 45.2309 26.5076C45.155 26.9228 45.2283 27.3516 45.4379 27.718C45.6475 28.0844 45.9799 28.365 46.3763 28.5101C46.3709 29.1987 46.1133 29.8613 45.6522 30.3728C44.8447 31.1493 43.3945 31.0998 42.2298 31.059H42.0929V28.4732C42.0929 28.315 42.03 28.1633 41.9182 28.0514C41.8063 27.9396 41.6546 27.8767 41.4964 27.8767C41.3382 27.8767 41.1865 27.9396 41.0747 28.0514C40.9628 28.1633 40.9 28.315 40.9 28.4732V54.47C40.7205 54.576 40.5755 54.7318 40.4826 54.9184C40.0059 55.7764 39.3019 56.4864 38.4479 56.9704C37.5939 57.4543 36.623 57.6934 35.642 57.6614C32.7427 57.6614 30.384 55.6415 30.384 53.1586C30.386 52.9635 30.4029 52.7688 30.4345 52.5762C30.542 51.9571 30.8293 51.3832 31.2605 50.9261C31.3743 50.8164 31.4398 50.6658 31.4426 50.5078C31.4454 50.3497 31.3853 50.1969 31.2755 50.0831C31.1658 49.9694 31.0153 49.9039 30.8572 49.901C30.6991 49.8982 30.5463 49.9583 30.4325 50.0681C29.9459 50.5575 29.5887 51.1602 29.393 51.822C28.0475 51.5894 26.8418 50.8511 26.0229 49.7585C25.9287 49.6367 25.7911 49.5562 25.6389 49.5336C25.4867 49.5111 25.3316 49.5483 25.2062 49.6374C25.0808 49.7266 24.9947 49.8608 24.966 50.012C24.9373 50.1632 24.9682 50.3197 25.0523 50.4486C26.0487 51.8072 27.5361 52.7232 29.1979 53.0014C29.1979 53.0567 29.1979 53.1111 29.1979 53.1654C29.1979 56.3055 32.0914 58.8602 35.6488 58.8602C36.8315 58.8893 38 58.5979 39.0306 58.0169C40.0612 57.436 40.9154 56.587 41.5027 55.56C42.0901 56.587 42.9443 57.436 43.9748 58.0169C45.0054 58.5979 46.174 58.8893 47.3567 58.8602C50.9131 58.8602 53.8076 56.3055 53.8076 53.1654C53.8076 53.1111 53.8076 53.0567 53.8076 53.0014C54.4936 52.8755 55.1567 52.6464 55.7741 52.3219C55.9142 52.2486 56.0193 52.1226 56.0665 51.9717C56.1136 51.8208 56.0989 51.6573 56.0255 51.5173C55.9521 51.3772 55.8262 51.2721 55.6752 51.2249C55.5243 51.1778 55.3609 51.1925 55.2209 51.2659L55.2141 51.2639ZM46.9946 50.5622C47.1124 50.5625 47.2275 50.5978 47.3252 50.6635C47.423 50.7293 47.4991 50.8225 47.5439 50.9314C47.5887 51.0403 47.6002 51.1601 47.577 51.2756C47.5538 51.3911 47.4969 51.4971 47.4134 51.5802C47.33 51.6634 47.2238 51.7199 47.1083 51.7428C46.9927 51.7656 46.873 51.7537 46.7642 51.7086C46.6554 51.6634 46.5624 51.587 46.497 51.489C46.4316 51.3911 46.3967 51.2759 46.3967 51.1581C46.3972 51.0001 46.4603 50.8486 46.5722 50.7369C46.6841 50.6252 46.8356 50.5624 46.9937 50.5622H46.9946ZM52.1303 46.6175C52.2481 46.6178 52.3631 46.6531 52.4609 46.7188C52.5586 46.7846 52.6347 46.8778 52.6795 46.9867C52.7243 47.0956 52.7359 47.2154 52.7127 47.3309C52.6894 47.4464 52.6325 47.5524 52.5491 47.6355C52.4657 47.7187 52.3595 47.7753 52.2439 47.7981C52.1284 47.8209 52.0086 47.809 51.8999 47.7639C51.7911 47.7187 51.6981 47.6423 51.6327 47.5443C51.5673 47.4464 51.5324 47.3312 51.5324 47.2134C51.5329 47.0552 51.5961 46.9036 51.7082 46.7919C51.8203 46.6802 51.9721 46.6175 52.1303 46.6175ZM52.1303 30.068C52.2481 30.0684 52.3631 30.1036 52.4609 30.1694C52.5586 30.2351 52.6347 30.3283 52.6795 30.4372C52.7243 30.5462 52.7359 30.6659 52.7127 30.7814C52.6894 30.8969 52.6325 31.0029 52.5491 31.0861C52.4657 31.1692 52.3595 31.2258 52.2439 31.2486C52.1284 31.2715 52.0086 31.2595 51.8999 31.2144C51.7911 31.1692 51.6981 31.0928 51.6327 30.9949C51.5673 30.8969 51.5324 30.7817 51.5324 30.664C51.5324 30.5054 51.5954 30.3533 51.7075 30.2412C51.8197 30.129 51.9717 30.066 52.1303 30.066V30.068ZM46.9937 26.2339C47.1115 26.2343 47.2265 26.2696 47.3242 26.3353C47.422 26.401 47.4981 26.4943 47.5429 26.6032C47.5877 26.7121 47.5992 26.8319 47.576 26.9474C47.5528 27.0628 47.4959 27.1689 47.4125 27.252C47.329 27.3352 47.2228 27.3917 47.1073 27.4146C46.9917 27.4374 46.872 27.4255 46.7632 27.3803C46.6544 27.3352 46.5615 27.2588 46.4961 27.1608C46.4307 27.0628 46.3958 26.9477 46.3958 26.8299C46.3963 26.6717 46.4595 26.5201 46.5716 26.4084C46.6836 26.2967 46.8354 26.2339 46.9937 26.2339Z" fill="black" stroke="black" stroke-width="0.3"/>
<path d="M25.2649 47.4221C25.2771 46.3145 25.7236 45.2559 26.5083 44.4742C26.5834 44.3987 26.6369 44.3045 26.6633 44.2013C26.6896 44.0981 26.6879 43.9898 26.6581 43.8875C26.6284 43.7852 26.5718 43.6928 26.4943 43.6198C26.4167 43.5468 26.321 43.496 26.2171 43.4725C25.1755 43.2939 24.225 42.7681 23.5201 41.9807C22.8151 41.1933 22.3973 40.1906 22.3345 39.1357C22.347 38.4881 22.5013 37.8512 22.7863 37.2696C23.0714 36.6881 23.4804 36.176 23.9846 35.7695C24.0477 35.7156 24.0989 35.649 24.1348 35.5742C24.1707 35.4993 24.1905 35.4178 24.1931 35.3348C24.1957 35.2518 24.1809 35.1693 24.1496 35.0923C24.1184 35.0154 24.0715 34.9459 24.0118 34.8881C23.719 34.6157 23.4844 34.2869 23.3221 33.9214C23.1598 33.5559 23.0732 33.1613 23.0674 32.7615C23.1404 31.8519 23.5651 31.0067 24.2513 30.4052C24.9374 29.8037 25.831 29.4933 26.7422 29.5399C27.3103 29.5634 27.856 29.7674 28.3001 30.1223C28.3588 30.1742 28.427 30.214 28.5011 30.2395C28.5751 30.265 28.6534 30.2756 28.7316 30.2709C28.8097 30.2661 28.8861 30.2459 28.9565 30.2116C29.0269 30.1773 29.0898 30.1295 29.1417 30.0708C29.1936 30.0122 29.2334 29.9439 29.2589 29.8699C29.2844 29.7959 29.295 29.7175 29.2902 29.6394C29.2855 29.5613 29.2653 29.4848 29.231 29.4145C29.1967 29.3441 29.1489 29.2812 29.0902 29.2293C28.5185 28.7531 27.8188 28.4563 27.0791 28.3761C26.8508 27.9626 26.7303 27.4983 26.7287 27.0259C26.74 26.5199 26.8765 26.0246 27.126 25.5842C27.3755 25.1438 27.7302 24.7721 28.1584 24.5023C28.2232 24.4582 28.2786 24.4018 28.3216 24.3364C28.3645 24.2709 28.3942 24.1976 28.4089 24.1207C28.4235 24.0438 28.4228 23.9647 28.4069 23.888C28.391 23.8114 28.3602 23.7386 28.3161 23.6738C28.2721 23.6091 28.2157 23.5536 28.1503 23.5106C28.0848 23.4677 28.0115 23.438 27.9346 23.4234C27.8577 23.4087 27.7786 23.4094 27.7019 23.4253C27.6252 23.4412 27.5524 23.472 27.4877 23.5161C26.8975 23.8941 26.4102 24.4126 26.0695 25.0251C25.7289 25.6376 25.5455 26.3251 25.5357 27.0259C25.5373 27.5118 25.6285 27.9932 25.8046 28.446C24.748 28.5919 23.7762 29.1039 23.0585 29.8929C22.3408 30.6819 21.9228 31.6978 21.8774 32.7634C21.8808 33.6808 22.1942 34.5701 22.7665 35.2871C21.7413 36.3074 21.159 37.6903 21.1455 39.1366C21.1874 40.302 21.584 41.4268 22.2823 42.3607C22.9806 43.2945 23.9474 43.993 25.0533 44.3626C24.4218 45.2585 24.0794 46.326 24.072 47.4221C24.072 47.5803 24.1348 47.732 24.2467 47.8438C24.3586 47.9557 24.5103 48.0185 24.6685 48.0185C24.8267 48.0185 24.9784 47.9557 25.0902 47.8438C25.2021 47.732 25.2649 47.5803 25.2649 47.4221Z" fill="black" stroke="black" stroke-width="0.3"/>
<path d="M61.8544 39.1367C61.8418 37.6888 61.259 36.3043 60.2324 35.2832C60.8048 34.5663 61.1181 33.677 61.1215 32.7596C61.0762 31.6944 60.6586 30.6789 59.9415 29.8899C59.2244 29.101 58.2533 28.5886 57.1972 28.4421C57.3723 27.9895 57.4624 27.5084 57.4632 27.0231C57.4632 24.5858 55.2307 22.6028 52.476 22.6028C52.4207 22.6028 52.3625 22.6028 52.3003 22.6028C52.123 21.4308 51.5229 20.3643 50.6134 19.6044C49.5236 18.6712 48.1383 18.1544 46.7036 18.1456H46.624C45.599 18.1233 44.5862 18.3707 43.6869 18.8631C42.7877 19.3554 42.0335 20.0753 41.5 20.9507C40.9665 20.0752 40.2124 19.3552 39.3131 18.8629C38.4138 18.3706 37.4009 18.1232 36.376 18.1456H36.2964C34.8603 18.1563 33.4746 18.676 32.3856 19.6122C31.476 20.3721 30.876 21.4386 30.6987 22.6105C30.6375 22.6105 30.5783 22.6105 30.523 22.6105C30.3648 22.6105 30.2131 22.6734 30.1012 22.7852C29.9893 22.8971 29.9265 23.0488 29.9265 23.207C29.9265 23.3652 29.9893 23.5169 30.1012 23.6287C30.2131 23.7406 30.3648 23.8034 30.523 23.8034C30.7447 23.8063 30.9661 23.8225 31.1859 23.852C31.274 23.8637 31.3636 23.8555 31.4481 23.8282C31.5327 23.8008 31.61 23.7548 31.6745 23.6937C31.739 23.6326 31.789 23.5578 31.8208 23.4748C31.8527 23.3919 31.8656 23.3028 31.8586 23.2143V23.1735C31.8586 23.1628 31.8586 23.1521 31.8586 23.1473C31.8945 21.1148 33.9367 19.3724 36.3177 19.3433C37.1557 19.3083 37.9875 19.5007 38.7251 19.9C39.4626 20.2994 40.0783 20.8909 40.507 21.6117C40.6006 21.7864 40.7402 21.9321 40.9108 22.033V25.7166C40.9108 25.8748 40.9736 26.0265 41.0855 26.1383C41.1974 26.2502 41.3491 26.313 41.5073 26.313C41.6655 26.313 41.8172 26.2502 41.929 26.1383C42.0409 26.0265 42.1037 25.8748 42.1037 25.7166V22.0281C42.2743 21.9273 42.414 21.7816 42.5075 21.6069C42.9294 20.8948 43.5344 20.3088 44.2595 19.9099C44.9847 19.5109 45.8035 19.3136 46.6308 19.3385H46.6958C49.0768 19.3676 51.1191 21.1099 51.155 23.1366C51.1286 23.8401 50.9001 24.5212 50.4969 25.0983C50.4467 25.1583 50.4088 25.2277 50.3853 25.3023C50.3619 25.377 50.3534 25.4556 50.3604 25.5336C50.3673 25.6115 50.3895 25.6874 50.4258 25.7567C50.462 25.8261 50.5116 25.8877 50.5716 25.9379C50.6317 25.9881 50.701 26.026 50.7757 26.0494C50.8504 26.0729 50.9289 26.0813 51.0069 26.0744C51.0849 26.0675 51.1607 26.0452 51.2301 26.009C51.2994 25.9727 51.361 25.9232 51.4112 25.8631C51.8783 25.2656 52.1796 24.5555 52.2848 23.8044C52.3566 23.8044 52.4246 23.7986 52.4838 23.7986C53.4133 23.7307 54.3322 24.0312 55.0421 24.635C55.752 25.2388 56.1959 26.0976 56.278 27.026C56.2737 27.5924 56.101 28.1448 55.782 28.613C55.7228 28.7017 55.6884 28.8046 55.6825 28.9111C55.6765 29.0176 55.6993 29.1237 55.7484 29.2184C55.7975 29.3131 55.8711 29.3929 55.9615 29.4494C56.0519 29.506 56.1559 29.5373 56.2625 29.5399C57.1738 29.4933 58.0673 29.8037 58.7535 30.4052C59.4396 31.0067 59.8643 31.852 59.9374 32.7615C59.9316 33.1614 59.8449 33.5559 59.6826 33.9214C59.5203 34.2869 59.2857 34.6158 58.9929 34.8882C58.588 35.2736 58.0716 35.5213 57.5175 35.5958C57.3607 35.6035 57.2132 35.6728 57.1072 35.7886C57.0012 35.9044 56.9451 36.0574 56.9513 36.2143C56.9574 36.3713 57.0252 36.5194 57.14 36.6266C57.2548 36.7338 57.4072 36.7913 57.5641 36.7868H57.6117C58.2511 36.7215 58.8616 36.4869 59.3802 36.1073C60.1911 36.9074 60.6542 37.9947 60.6692 39.1338C60.6065 40.1887 60.1886 41.1914 59.4837 41.9788C58.7788 42.7662 57.8283 43.292 56.7867 43.4706C56.6828 43.4941 56.5871 43.5449 56.5095 43.6179C56.432 43.6909 56.3754 43.7833 56.3456 43.8856C56.3159 43.9879 56.3141 44.0962 56.3405 44.1994C56.3668 44.3026 56.4203 44.3968 56.4955 44.4723C57.2801 45.2541 57.7266 46.3126 57.7389 47.4202C57.7353 48.1866 57.5116 48.9359 57.0944 49.5789C57.0521 49.6448 57.0232 49.7184 57.0094 49.7954C56.9956 49.8725 56.9971 49.9515 57.0138 50.028C57.0305 50.1045 57.0621 50.1769 57.1069 50.2411C57.1516 50.3054 57.2085 50.3602 57.2744 50.4025C57.3403 50.4447 57.4139 50.4736 57.4909 50.4874C57.568 50.5012 57.647 50.4997 57.7235 50.483C57.8 50.4663 57.8724 50.4347 57.9367 50.39C58.0009 50.3453 58.0557 50.2883 58.098 50.2224C58.6385 49.3875 58.9276 48.4148 58.9308 47.4202C58.9233 46.3241 58.5809 45.2566 57.9495 44.3607C59.0554 43.9911 60.0222 43.2926 60.7205 42.3588C61.4188 41.4249 61.8155 40.3001 61.8573 39.1348L61.8544 39.1367Z" fill="black" stroke="black" stroke-width="0.3"/>
<path d="M47.1136 29.4002C48.4538 29.4002 49.5402 28.3138 49.5402 26.9736C49.5402 25.6334 48.4538 24.547 47.1136 24.547C45.7734 24.547 44.687 25.6334 44.687 26.9736C44.687 28.3138 45.7734 29.4002 47.1136 29.4002Z" fill="#FBBC05"/>
<path d="M51.9666 33.2828C53.3068 33.2828 54.3933 32.1964 54.3933 30.8562C54.3933 29.516 53.3068 28.4296 51.9666 28.4296C50.6265 28.4296 49.54 29.516 49.54 30.8562C49.54 32.1964 50.6265 33.2828 51.9666 33.2828Z" fill="#01C3FF"/>
<path d="M51.9666 49.7836C53.3068 49.7836 54.3933 48.6972 54.3933 47.357C54.3933 46.0169 53.3068 44.9304 51.9666 44.9304C50.6265 44.9304 49.54 46.0169 49.54 47.357C49.54 48.6972 50.6265 49.7836 51.9666 49.7836Z" fill="#21D885"/>
<path d="M47.1136 53.6663C48.4538 53.6663 49.5402 52.5799 49.5402 51.2397C49.5402 49.8995 48.4538 48.8131 47.1136 48.8131C45.7734 48.8131 44.687 49.8995 44.687 51.2397C44.687 52.5799 45.7734 53.6663 47.1136 53.6663Z" fill="#F87306"/>
</g>
<defs>
<clipPath id="clip0">
<rect width="41" height="41" fill="white" transform="translate(21 18)"/>
</clipPath>
</defs>
</svg>
