<svg width="80" height="80" viewBox="0 0 80 80" fill="none" xmlns="http://www.w3.org/2000/svg">
<path d="M40 80C62.0914 80 80 62.0914 80 40C80 17.9086 62.0914 0 40 0C17.9086 0 0 17.9086 0 40C0 62.0914 17.9086 80 40 80Z" fill="#EFF3FB"/>
<g clip-path="url(#clip0)">
<path d="M54.691 53.613H22.665L22.706 37.723L26.628 34.075L34.666 26.6C34.8322 26.4455 35.0499 26.3587 35.2767 26.3565C35.5035 26.3543 35.7229 26.4368 35.892 26.588L38.186 28.636C38.3529 28.7851 38.5688 28.8675 38.7925 28.8675C39.0163 28.8675 39.2322 28.7851 39.399 28.636L47.946 20.995C48.0395 20.9113 48.1493 20.8479 48.2685 20.8087C48.3877 20.7695 48.5137 20.7554 48.6386 20.7672C48.7635 20.7791 48.8846 20.8166 48.9943 20.8775C49.104 20.9383 49.1999 21.0212 49.276 21.121L54.628 28.131L54.691 53.613Z" fill="#21D885"/>
<path d="M54.6909 42.2039V53.5989H22.7059L22.6749 49.7069L22.6519 46.7879L22.6829 46.7559L25.1289 44.2429L26.6289 42.7039L28.2229 41.0659C28.3064 40.9803 28.406 40.9119 28.516 40.8648C28.6259 40.8177 28.7441 40.7927 28.8637 40.7913C28.9834 40.7899 29.1021 40.8121 29.2132 40.8567C29.3242 40.9012 29.4254 40.9672 29.5109 41.0509L32.2189 43.7049C32.3093 43.7938 32.4173 43.8627 32.536 43.9073C32.6546 43.952 32.7813 43.9713 32.9079 43.964C33.0345 43.9568 33.1581 43.9231 33.2709 43.8652C33.3837 43.8074 33.4832 43.7265 33.5629 43.6279L37.8629 38.3179C37.9413 38.2208 38.0388 38.1409 38.1494 38.0831C38.2601 38.0254 38.3814 37.991 38.5059 37.9822C38.6304 37.9734 38.7554 37.9903 38.873 38.0319C38.9907 38.0735 39.0986 38.1388 39.1899 38.2239L41.2329 40.1239C41.3269 40.2112 41.4383 40.2776 41.5598 40.3189C41.6812 40.3601 41.8101 40.3752 41.9378 40.3633C42.0655 40.3513 42.1893 40.3124 42.3009 40.2493C42.4126 40.1862 42.5097 40.1002 42.5859 39.9969L46.9679 34.0509C47.0515 33.9374 47.1604 33.8449 47.2859 33.7806C47.4114 33.7164 47.5501 33.6822 47.6911 33.6807C47.8321 33.6793 47.9715 33.7106 48.0983 33.7722C48.2251 33.8339 48.3359 33.9241 48.4219 34.0359L54.6909 42.2039Z" fill="#01C3FF"/>
<path d="M60.0389 52.988H23.2629V47.037L28.6629 41.493C28.7185 41.4362 28.7944 41.4039 28.8739 41.403C28.953 41.4023 29.0292 41.4328 29.0859 41.488L31.7939 44.142C31.9452 44.2903 32.1258 44.4054 32.3242 44.4799C32.5226 44.5544 32.7344 44.5866 32.9459 44.5744C33.1575 44.5623 33.3642 44.5061 33.5527 44.4094C33.7413 44.3127 33.9076 44.1777 34.0409 44.013L38.3409 38.702C38.3668 38.6705 38.3989 38.6446 38.4352 38.6259C38.4715 38.6072 38.5112 38.5961 38.5519 38.5933C38.5927 38.5905 38.6335 38.596 38.672 38.6095C38.7105 38.6231 38.7459 38.6443 38.7759 38.672L40.8189 40.572C40.9758 40.7181 41.1619 40.8294 41.3649 40.8985C41.5679 40.9677 41.7832 40.9931 41.9967 40.9732C42.2102 40.9533 42.4171 40.8884 42.6038 40.7829C42.7904 40.6774 42.9527 40.5336 43.0799 40.361L44.9009 37.889C44.9485 37.8244 44.9829 37.751 45.0022 37.6731C45.0214 37.5952 45.0252 37.5143 45.0131 37.4349C45.0011 37.3556 44.9736 37.2794 44.9321 37.2107C44.8906 37.142 44.836 37.0821 44.7714 37.0345C44.7068 36.9869 44.6334 36.9525 44.5555 36.9332C44.4776 36.914 44.3967 36.9102 44.3173 36.9223C44.238 36.9343 44.1618 36.9618 44.0931 37.0033C44.0244 37.0448 43.9645 37.0994 43.9169 37.164L42.0959 39.636C42.0708 39.6698 42.0388 39.698 42.002 39.7187C41.9653 39.7393 41.9246 39.752 41.8826 39.7559C41.8406 39.7598 41.7982 39.7547 41.7583 39.7411C41.7184 39.7275 41.6818 39.7057 41.6509 39.677L39.6079 37.777C39.4553 37.6349 39.275 37.5257 39.0783 37.4562C38.8817 37.3867 38.6728 37.3585 38.4648 37.3732C38.2567 37.3879 38.0539 37.4453 37.869 37.5418C37.6841 37.6383 37.521 37.7718 37.3899 37.934L33.0899 43.244C33.0636 43.2761 33.0309 43.3024 32.9939 43.3212C32.9569 43.34 32.9163 43.3509 32.8749 43.3533C32.8334 43.3556 32.7919 43.3494 32.753 43.3349C32.7142 43.3203 32.6787 43.2979 32.6489 43.269L29.9409 40.615C29.798 40.4748 29.6289 40.3642 29.4432 40.2896C29.2575 40.2149 29.0588 40.1777 28.8587 40.18C28.6586 40.1824 28.4609 40.2242 28.2769 40.3031C28.093 40.3821 27.9265 40.4965 27.7869 40.64L23.2629 45.284V38.039L31.0629 30.785C31.1823 30.6747 31.2529 30.5214 31.2593 30.359C31.2656 30.1966 31.2072 30.0383 31.0969 29.919C30.9866 29.7996 30.8334 29.729 30.6709 29.7226C30.5085 29.7163 30.3503 29.7747 30.2309 29.885L23.2629 36.365V20.799C23.2629 20.6369 23.1985 20.4815 23.0839 20.3669C22.9694 20.2524 22.8139 20.188 22.6519 20.188C22.4899 20.188 22.3344 20.2524 22.2199 20.3669C22.1053 20.4815 22.0409 20.6369 22.0409 20.799V52.988H19.7609C19.5989 52.988 19.4434 53.0524 19.3289 53.1669C19.2143 53.2815 19.1499 53.4369 19.1499 53.599C19.1499 53.761 19.2143 53.9164 19.3289 54.031C19.4434 54.1456 19.5989 54.21 19.7609 54.21H22.0409V57.31C22.0409 57.472 22.1053 57.6274 22.2199 57.742C22.3344 57.8566 22.4899 57.921 22.6519 57.921C22.8139 57.921 22.9694 57.8566 23.0839 57.742C23.1985 57.6274 23.2629 57.472 23.2629 57.31V54.21H60.0389C60.201 54.21 60.3564 54.1456 60.4709 54.031C60.5855 53.9164 60.6499 53.761 60.6499 53.599C60.6499 53.4369 60.5855 53.2815 60.4709 53.1669C60.3564 53.0524 60.201 52.988 60.0389 52.988Z" fill="black" stroke="black" stroke-width="0.3"/>
<path d="M44.1348 25.22L48.3518 21.449C48.3827 21.4217 48.4188 21.401 48.4579 21.3883C48.4971 21.3755 48.5385 21.371 48.5795 21.3749C48.6205 21.3789 48.6602 21.3912 48.6962 21.4112C48.7322 21.4311 48.7638 21.4583 48.7888 21.491L54.1408 28.501C54.2392 28.6299 54.3848 28.7144 54.5455 28.736C54.7062 28.7575 54.8689 28.7144 54.9978 28.616C55.1267 28.5176 55.2113 28.372 55.2328 28.2113C55.2544 28.0506 55.2112 27.8879 55.1128 27.759L49.7618 20.749C49.6346 20.5823 49.4743 20.4437 49.291 20.3419C49.1076 20.2401 48.9052 20.1774 48.6964 20.1576C48.4877 20.1377 48.2771 20.1613 48.0779 20.2268C47.8787 20.2922 47.6951 20.3982 47.5388 20.538L43.3218 24.309C43.201 24.4171 43.1281 24.5687 43.1191 24.7305C43.1101 24.8924 43.1658 25.0512 43.2738 25.172C43.3819 25.2928 43.5336 25.3657 43.6954 25.3747C43.8572 25.3837 44.016 25.3281 44.1368 25.22H44.1348Z" fill="black" stroke="black" stroke-width="0.3"/>
<path d="M33.0959 28.8989L35.0859 27.0479C35.1409 26.9987 35.2121 26.9715 35.2859 26.9715C35.3597 26.9715 35.4309 26.9987 35.4859 27.0479L37.7799 29.0969C38.0587 29.3461 38.4195 29.4838 38.7934 29.4838C39.1673 29.4838 39.5281 29.3461 39.8069 29.0969L42.0719 27.0729C42.1317 27.0194 42.1804 26.9547 42.2152 26.8823C42.25 26.81 42.2702 26.7315 42.2746 26.6514C42.2791 26.5712 42.2677 26.491 42.2411 26.4153C42.2146 26.3395 42.1734 26.2698 42.1199 26.2099C42.0664 26.1501 42.0016 26.1014 41.9293 26.0666C41.8569 26.0319 41.7785 26.0117 41.6983 26.0072C41.6182 26.0027 41.538 26.0141 41.4622 26.0407C41.3865 26.0672 41.3167 26.1084 41.2569 26.1619L38.9919 28.1859C38.9369 28.2351 38.8657 28.2623 38.7919 28.2623C38.7181 28.2623 38.6469 28.2351 38.5919 28.1859L36.2959 26.1319C36.0139 25.878 35.6468 25.7392 35.2673 25.7431C34.8878 25.747 34.5236 25.8933 34.2469 26.1529L32.2569 28.0039C32.1375 28.1143 32.0669 28.2675 32.0605 28.4299C32.0542 28.5923 32.1126 28.7506 32.2229 28.8699C32.3332 28.9893 32.4864 29.0599 32.6488 29.0663C32.8113 29.0727 32.9695 29.0143 33.0889 28.9039L33.0959 28.8989Z" fill="black" stroke="black" stroke-width="0.3"/>
<path d="M48.9031 33.6639C48.7594 33.4772 48.5743 33.3263 48.3624 33.2233C48.1505 33.1203 47.9175 33.068 47.6819 33.0704C47.4462 33.0728 47.2144 33.1299 47.0046 33.2373C46.7948 33.3446 46.6129 33.4992 46.4731 33.6889L45.5581 34.9309C45.5105 34.9956 45.4761 35.0689 45.4568 35.1468C45.4376 35.2247 45.4338 35.3057 45.4459 35.385C45.4579 35.4644 45.4854 35.5406 45.5269 35.6093C45.5684 35.678 45.623 35.7378 45.6876 35.7855C45.7522 35.8331 45.8256 35.8675 45.9035 35.8867C45.9814 35.906 46.0623 35.9097 46.1417 35.8977C46.221 35.8856 46.2972 35.8581 46.3659 35.8166C46.4346 35.7752 46.4945 35.7206 46.5421 35.6559L47.4571 34.4139C47.4842 34.3764 47.5198 34.3459 47.561 34.3249C47.6022 34.3038 47.6478 34.2929 47.6941 34.2929C47.7403 34.2925 47.7861 34.3027 47.8277 34.3228C47.8693 34.3429 47.9057 34.3724 47.9341 34.4089L54.2061 42.5769C54.2542 42.6426 54.3149 42.6981 54.3847 42.74C54.4545 42.7819 54.532 42.8094 54.6126 42.8209C54.6932 42.8324 54.7753 42.8277 54.8541 42.8071C54.9328 42.7865 55.0066 42.7503 55.0712 42.7007C55.1358 42.6511 55.1898 42.5891 55.2301 42.5184C55.2704 42.4476 55.2961 42.3695 55.3058 42.2887C55.3155 42.2078 55.3089 42.1259 55.2865 42.0476C55.264 41.9693 55.2262 41.8964 55.1751 41.833L48.9031 33.6639Z" fill="black" stroke="black" stroke-width="0.3"/>
</g>
<defs>
<clipPath id="clip0">
<rect width="41.8" height="38.068" fill="white" transform="translate(19 20)"/>
</clipPath>
</defs>
</svg>
