<svg width="100" height="100" viewBox="0 0 100 100" fill="none" xmlns="http://www.w3.org/2000/svg">
<path d="M50 100C77.6142 100 100 77.6142 100 50C100 22.3858 77.6142 0 50 0C22.3858 0 0 22.3858 0 50C0 77.6142 22.3858 100 50 100Z" fill="#EFF3FC"/>
<path d="M42.4409 46.4258H45.3684V61.2462H42.4409V46.4258Z" fill="#01C3FF" stroke="black" stroke-width="0.5"/>
<path d="M48.0374 46.4258H50.9649V61.2462H48.0374V46.4258Z" stroke="black" stroke-width="0.5"/>
<path d="M53.6312 46.4258H56.5587V61.2462H53.6312V46.4258Z" fill="#01C3FF" stroke="black" stroke-width="0.5"/>
<path d="M36.8459 46.4258H39.7734V61.2462H36.8459V46.4258Z" stroke="black" stroke-width="0.5"/>
<path d="M59.2272 46.4258H62.1546V61.2462H59.2272V46.4258Z" stroke="black" stroke-width="0.5"/>
<path d="M31.15 41.9898H67.8504V43.8578H31.15V41.9898Z" fill="#FBBC05" stroke="black" stroke-width="0.3"/>
<path d="M67.1677 40.0209L67.3219 39.3567L49.654 30.6858L49.4998 30.6101L49.3456 30.6858L31.6777 39.3567L31.8319 40.0209H67.1677Z" fill="#21D885" stroke="black" stroke-width="0.7"/>
<path d="M64.8226 46.4258H67.7502V61.2462H64.8226V46.4258Z" fill="#01C3FF" stroke="black" stroke-width="0.5"/>
<path d="M31 63.3641H30.7V63.6641V68V68.3H31H68.0004H68.3004V68V63.6641V63.3641H68.0004H31Z" fill="#01C3FF" stroke="black" stroke-width="0.6"/>
<path d="M31.25 46.4258H34.1775V61.2462H31.25V46.4258Z" fill="#01C3FF" stroke="black" stroke-width="0.5"/>
</svg>
