<svg width="100" height="100" viewBox="0 0 100 100" fill="none" xmlns="http://www.w3.org/2000/svg">
<path d="M50 100C77.6142 100 100 77.6142 100 50C100 22.3858 77.6142 0 50 0C22.3858 0 0 22.3858 0 50C0 77.6142 22.3858 100 50 100Z" fill="#EFF3FC"/>
<path d="M34.8538 67.4258L40.593 61.6866L41.4604 62.554L35.7212 68.2932L34.8538 67.4258Z" stroke="black"/>
<path d="M31.7071 64.2785L37.4463 58.5393L38.3137 59.4067L32.5745 65.1459L31.7071 64.2785Z" stroke="black"/>
<path d="M43.2689 56.8879L43.2167 56.7835L43.1124 56.7313L37.2488 53.7995L39.922 51.1264L44.9867 52.139L45.1855 52.1788L45.3189 52.0262L62.0384 32.8959L62.0384 32.8959L62.041 32.8929C63.3436 31.3677 65.6516 31.1328 67.2594 32.7407C68.8615 34.3429 68.6389 36.6511 67.1073 37.9592L67.1073 37.9592L67.1043 37.9618L47.9741 54.6813L47.8214 54.8147L47.8612 55.0134L48.8738 60.0782L46.2007 62.7514L43.2689 56.8879Z" fill="#01C3FF" stroke="black" stroke-width="0.7"/>
<path d="M68.0134 59.4823L68.0137 59.4828C68.4184 60.2082 68.2898 61.13 67.6998 61.7202C67.6998 61.7202 67.6998 61.7202 67.6998 61.7203L65.9861 63.4338L54.9897 52.4375L61.122 47.0775L68.0134 59.4823Z" fill="#FBBC05" stroke="black" stroke-width="0.7"/>
<path d="M47.5625 45.0103L36.5662 34.014L38.2798 32.3003C38.2798 32.3003 38.2798 32.3002 38.2799 32.3002C38.87 31.7103 39.7917 31.5816 40.518 31.9871L40.5186 31.9875L52.9223 38.8781L47.5625 45.0103Z" fill="#FBBC05" stroke="black" stroke-width="0.7"/>
<path d="M67.5137 52.2475L65.7827 49.1314C66.4563 48.6585 67.3923 48.723 67.9942 49.325L67.9942 49.325C68.6686 49.9995 68.6686 51.0927 67.9942 51.7669L67.9942 51.7669L67.5137 52.2475Z" stroke="black"/>
<path d="M47.7525 32.4866L48.2333 32.0058L48.2333 32.0058C48.9076 31.3315 50.0008 31.3314 50.6752 32.0058C51.2772 32.6079 51.3417 33.5439 50.8687 34.2175L47.7525 32.4866Z" stroke="black"/>
</svg>
