<svg width="138" height="138" viewBox="0 0 138 138" fill="none" xmlns="http://www.w3.org/2000/svg">
<path d="M69 138C107.108 138 138 107.108 138 69C138 30.8924 107.108 0 69 0C30.8924 0 0 30.8924 0 69C0 107.108 30.8924 138 69 138Z" fill="#EFF3FC"/>
<path d="M70.0358 81.8652V81.5698C68.5258 81.5534 67.0815 81.4713 65.6864 81.3564C64.9314 83.3096 63.8646 85.1314 62.5352 86.7562C65.0463 87.1665 67.5903 87.3963 70.1342 87.4292L70.0358 81.8652Z" fill="black"/>
<path d="M47.3547 57.9521C43.2843 57.9686 39.3453 59.4785 36.3417 62.203C29.6618 68.2758 29.1858 78.6322 35.2585 85.3122C41.3312 91.9921 51.6876 92.4681 58.3676 86.3954C61.7815 83.2934 63.7346 78.9112 63.7182 74.2992C63.7182 73.1996 63.6033 72.0835 63.3899 71.0003M47.3547 57.9521V58.5521C47.3551 58.5521 47.3555 58.5521 47.3559 58.5521M47.3547 57.9521C48.996 57.9521 50.6208 58.1983 52.1964 58.6743M47.3547 57.9521L47.3571 58.5521C47.3567 58.5521 47.3563 58.5521 47.3559 58.5521M47.3559 58.5521C43.432 58.5683 39.6368 60.0242 36.7451 62.6473M47.3559 58.5521C48.9353 58.5523 50.5003 58.789 52.0198 59.2477M36.7451 62.6473C36.7452 62.6472 36.7452 62.6471 36.7453 62.647L36.3418 62.2031L36.7449 62.6474C36.7449 62.6474 36.745 62.6473 36.7451 62.6473ZM36.7451 62.6473C30.3114 68.4963 29.852 78.473 35.7025 84.9086C41.5515 91.3425 51.5284 91.802 57.964 85.9514L57.9641 85.9513C61.2538 82.9621 63.134 78.7414 63.1182 74.3014L63.1182 74.2992C63.1182 73.2419 63.0077 72.1659 62.8019 71.1197M62.8019 71.1197C62.8021 71.1208 62.8024 71.1219 62.8026 71.123L63.3899 71.0003M62.8019 71.1197C61.6312 65.5254 57.5058 60.9722 52.0198 59.2477M62.8019 71.1197C62.8017 71.1185 62.8014 71.1174 62.8012 71.1162L63.3899 71.0003M63.3899 71.0003C62.1754 65.1902 57.8916 60.4633 52.1964 58.6743M52.1964 58.6743L52.0229 59.2487C52.0219 59.2484 52.0208 59.248 52.0198 59.2477M52.1964 58.6743L52.0166 59.2467C52.0177 59.2471 52.0187 59.2474 52.0198 59.2477M53.9069 76.4524L53.9064 76.4505C53.078 73.5152 50.3955 71.4999 47.3547 71.4999C46.0742 71.4999 45.0349 70.4692 45.0332 69.1979C45.0479 67.8978 46.0819 66.8734 47.3547 66.8734C48.6318 66.8734 49.6761 67.9178 49.6761 69.1949C49.6761 70.4289 50.6833 71.4361 51.9174 71.4361C53.1515 71.4361 54.1587 70.4289 54.1587 69.1949C54.1587 66.3075 52.3416 63.7431 49.6452 62.7825V62.4821C49.6452 61.248 48.638 60.2408 47.4039 60.2408C46.1698 60.2408 45.1626 61.248 45.1626 62.4821V62.744C41.8146 63.8917 39.8692 67.4718 40.7841 70.9242L40.7843 70.9251C41.5762 73.8948 44.2588 75.966 47.3383 75.966C48.6198 75.966 49.6597 76.9984 49.6597 78.2711C49.6597 79.5526 48.6274 80.5926 47.3547 80.5926C46.0732 80.5926 45.0332 79.5602 45.0332 78.2875C45.0332 77.0534 44.026 76.0462 42.7919 76.0462C41.5579 76.0462 40.5507 77.0534 40.5507 78.2875L40.5507 78.291C40.5678 81.2106 42.4176 83.7757 45.1462 84.7204V85.7061C45.1462 86.9401 46.1534 87.9473 47.3875 87.9473C48.6216 87.9473 49.6288 86.9401 49.6288 85.7061V84.7003C52.9915 83.5082 54.8734 79.9213 53.9069 76.4524Z" fill="#01C3FF" stroke="black" stroke-width="1.2"/>
<path d="M69.9877 78.2707L69.8892 72.4606C68.8716 72.4442 67.8704 72.4114 66.9185 72.3457C66.9677 73.0022 67.0005 73.6423 67.0005 74.2824C67.0005 75.5626 66.8692 76.8592 66.623 78.123C67.7063 78.2215 68.8388 78.2707 69.9877 78.2707Z" fill="black"/>
<path d="M70.8065 54.7096C75.8913 54.7096 80.7785 54.0995 84.5247 52.9676C85.5462 52.6678 86.5466 52.2904 87.5078 51.8348V55.2718C87.342 55.5568 87.3409 55.8323 87.343 56.0127C87.3292 56.0345 87.3065 56.0665 87.2714 56.1081C87.173 56.2244 86.9949 56.3943 86.6982 56.6C86.1053 57.011 85.0643 57.5474 83.3142 58.0798C80.0353 59.0649 75.4694 59.6526 70.8065 59.6526C66.7853 59.6526 62.8574 59.2294 59.7532 58.4388C59.733 58.4326 59.7145 58.4277 59.6985 58.4239C58.2053 57.2568 56.5645 56.3084 54.8034 55.6207L54.7143 52.0315C55.6658 52.4694 56.6512 52.829 57.6705 53.1011C61.2829 54.1492 65.9374 54.7096 70.8065 54.7096ZM87.3613 55.9793C87.3615 55.9792 87.3607 55.9813 87.3585 55.9858C87.36 55.9816 87.3611 55.9794 87.3613 55.9793Z" fill="#21D885" stroke="black" stroke-width="0.9"/>
<path d="M83.2819 45.0702L83.2825 45.0704C85.0304 45.602 86.0672 46.1328 86.6552 46.5367C86.9444 46.7354 87.1178 46.8984 87.2136 47.0091C87.1175 47.1227 86.9417 47.2902 86.6464 47.4936C86.0552 47.9009 85.0153 48.4314 83.2681 48.9548L83.2677 48.9549C79.9956 49.9382 75.4512 50.5094 70.7902 50.5094C66.293 50.5094 62.0424 49.9874 58.8339 49.0522L58.8325 49.0518C57.1001 48.5523 56.0203 48.0363 55.3753 47.6189C55.0528 47.4102 54.846 47.2307 54.7214 47.0964C54.6785 47.0502 54.6484 47.0127 54.6275 46.9841C54.6353 46.9733 54.6443 46.9615 54.6545 46.9487C54.7435 46.8371 54.9078 46.6761 55.191 46.4806C55.7576 46.0891 56.7595 45.5868 58.4616 45.0705L58.4632 45.07C61.7182 44.071 66.0976 43.5 70.7902 43.5C75.4516 43.5 80.0113 44.0713 83.2819 45.0702ZM87.3003 47.1296C87.3001 47.1295 87.2989 47.1271 87.297 47.1226C87.2996 47.1274 87.3005 47.1297 87.3003 47.1296ZM87.2947 46.8958C87.2964 46.8916 87.2975 46.8895 87.2976 46.8895C87.2977 46.8895 87.2969 46.8915 87.2947 46.8958Z" fill="white" stroke="black"/>
<path d="M106.353 89.9736C106.34 89.994 106.321 90.0198 106.297 90.0507C106.203 90.1676 106.032 90.3376 105.746 90.5433C105.175 90.9544 104.168 91.4898 102.467 92.0218L106.353 89.9736ZM106.353 89.9736V85.8026C105.432 86.2349 104.477 86.6094 103.487 86.9078C99.7565 88.0401 94.9013 88.6504 89.7994 88.6504C85.2731 88.6504 80.852 88.1388 77.3607 87.2246C76.1561 86.9164 74.9853 86.514 73.8491 86.0075L73.9185 90.0362C73.9299 90.0575 73.9515 90.0924 73.989 90.14C74.0787 90.2536 74.2436 90.4194 74.5247 90.6206C75.0867 91.0228 76.0846 91.5462 77.7859 92.0703C81.0134 93.0546 85.3975 93.6098 90.1113 93.6098C94.8077 93.6098 99.2076 93.0384 102.467 92.0218L106.353 89.9736ZM106.383 89.92C106.383 89.9199 106.382 89.9216 106.381 89.9251C106.382 89.9218 106.383 89.9201 106.383 89.92ZM73.9083 90.0143C73.9084 90.0144 73.909 90.0157 73.9098 90.0183C73.9087 90.0156 73.9083 90.0143 73.9083 90.0143Z" fill="#FBBC05" stroke="#2C3E50" stroke-width="0.9"/>
<path d="M70.7768 63.8509C75.8779 63.8509 80.7651 63.2408 84.5113 62.1089C85.5343 61.8087 86.5232 61.4312 87.4781 60.9856V64.1303C84.0756 64.2508 80.6413 64.6687 77.7016 65.4101C74.7512 66.1542 72.2262 67.2418 70.7631 68.7446C69.3258 68.7439 67.9291 68.6882 66.6236 68.6027C66.0797 66.7904 65.2932 65.0675 64.2723 63.4884C66.4274 63.7265 68.5956 63.8509 70.7768 63.8509Z" fill="#DFDFDF" stroke="black" stroke-width="0.9"/>
<path d="M106.385 76.7229V79.9057H106.369L106.369 80.3555C106.369 80.3555 106.368 80.3659 106.363 80.3925C106.357 80.4221 106.348 80.4546 106.335 80.5044L106.332 80.5156C106.312 80.5873 106.281 80.7037 106.273 80.8309C106.26 80.8524 106.237 80.8871 106.198 80.9341C106.102 81.0497 105.927 81.2182 105.634 81.4226C105.048 81.8311 104.015 82.3634 102.273 82.8959C98.9626 83.8969 94.5287 84.452 89.8151 84.452C85.301 84.452 81.5347 83.9426 78.748 83.2409C77.3541 82.8899 76.2127 82.4926 75.3487 82.0913C74.5703 81.7297 74.0527 81.381 73.7683 81.0863L73.7539 79.8744L73.7539 79.8744L73.7539 79.8719L73.7009 76.8243C74.6703 77.266 75.6707 77.6299 76.6928 77.9162C80.3056 78.9648 84.9612 79.5255 89.8315 79.5255C94.8484 79.5255 99.6506 78.9323 103.362 77.8349C104.408 77.559 105.416 77.1724 106.385 76.7229ZM106.285 80.8068C106.285 80.8067 106.284 80.8085 106.283 80.8121C106.284 80.8087 106.285 80.8069 106.285 80.8068Z" fill="#01C3FF" stroke="black" stroke-width="0.9"/>
<path d="M102.324 69.9194L102.325 69.9199C104.041 70.4355 105.071 70.9506 105.661 71.3476C105.957 71.5462 106.135 71.71 106.234 71.8226C106.236 71.8257 106.239 71.8287 106.242 71.8317C106.238 71.8366 106.233 71.8416 106.229 71.8467C106.128 71.9639 105.945 72.1343 105.641 72.3405C105.033 72.7528 103.968 73.288 102.179 73.8199L102.179 73.82C98.8734 74.8035 94.4928 75.342 89.8476 75.342C85.3513 75.342 81.1003 74.8202 77.8905 73.901C76.1591 73.3936 75.0831 72.8737 74.4395 72.456C74.1176 72.2471 73.9098 72.0676 73.7828 71.9331C73.736 71.8835 73.7033 71.8433 73.6807 71.8129C73.7118 71.7738 73.7538 71.7268 73.8093 71.6727C73.959 71.5266 74.1923 71.3423 74.5352 71.1345C75.2208 70.7189 76.3167 70.2258 77.9848 69.7584L77.9863 69.758C81.1142 68.8712 85.2184 68.3818 89.5522 68.3818H89.8312C94.4952 68.3818 99.038 68.9209 102.324 69.9194ZM106.323 71.9446C106.323 71.9446 106.322 71.943 106.321 71.9399C106.322 71.9431 106.323 71.9447 106.323 71.9446ZM106.319 71.7221C106.321 71.719 106.321 71.7173 106.322 71.7173C106.322 71.7172 106.321 71.7188 106.319 71.7221Z" fill="white" fill-opacity="0.51" stroke="black"/>
</svg>
