<svg width="138" height="138" viewBox="0 0 138 138" fill="none" xmlns="http://www.w3.org/2000/svg">
<path d="M69 138C107.108 138 138 107.108 138 69C138 30.8924 107.108 0 69 0C30.8924 0 0 30.8924 0 69C0 107.108 30.8924 138 69 138Z" fill="#EFF3FC"/>
<path d="M82.5115 94.6249H47.5228C47.0129 94.6249 46.5238 94.8275 46.1632 95.1881C45.8026 95.5487 45.6 96.0378 45.6 96.5477C45.6 97.0577 45.8026 97.5468 46.1632 97.9074C46.5238 98.268 47.0129 98.4705 47.5228 98.4705H82.5115C83.0214 98.4705 83.5105 98.268 83.8711 97.9074C84.2317 97.5468 84.4343 97.0577 84.4343 96.5477C84.4343 96.0378 84.2317 95.5487 83.8711 95.1881C83.5105 94.8275 83.0214 94.6249 82.5115 94.6249Z" fill="white" stroke="black" stroke-width="0.8"/>
<path d="M49.6484 49.4624V68.8612H80.3818V63.4326C78.6288 63.4239 76.8977 63.0419 75.304 62.3118C73.7102 61.5818 72.2903 60.5205 71.1388 59.1986C69.9874 57.8768 69.1308 56.3248 68.6262 54.6459C68.1216 52.9671 67.9805 51.2 68.2124 49.4624H49.6484Z" fill="#FBBC05" stroke="black" stroke-width="1.2"/>
<path d="M79.8818 93.2854H50.1484V74.8872H79.8818V93.2854ZM55.1076 92.4282C55.3177 92.2181 55.4357 91.9332 55.4357 91.6362V80.6577C55.4357 80.3606 55.3177 80.0757 55.1076 79.8657C54.8976 79.6556 54.6127 79.5376 54.3156 79.5376C54.0185 79.5376 53.7336 79.6556 53.5236 79.8657C53.3135 80.0757 53.1955 80.3606 53.1955 80.6577V91.6362C53.1955 91.9332 53.3135 92.2181 53.5236 92.4282C53.7336 92.6382 54.0185 92.7563 54.3156 92.7563C54.6127 92.7563 54.8976 92.6382 55.1076 92.4282ZM55.1076 79.1039C55.3177 78.8939 55.4357 78.609 55.4357 78.3119V77.5891C55.4357 77.292 55.3177 77.0071 55.1076 76.7971C54.8976 76.587 54.6127 76.469 54.3156 76.469C54.0186 76.469 53.7337 76.587 53.5236 76.7971C53.3135 77.0071 53.1955 77.292 53.1955 77.5891V78.3119C53.1955 78.609 53.3135 78.8939 53.5236 79.1039C53.7336 79.314 54.0185 79.432 54.3156 79.432C54.6127 79.432 54.8976 79.314 55.1076 79.1039Z" fill="#FBBC05" fill-opacity="0.42" stroke="black"/>
<path d="M68.4447 48.6224H68.7602L68.8337 48.3156C69.0801 47.2872 69.4631 46.2963 69.9722 45.3693L70.2977 44.7768H69.6216H47.5228C47.0129 44.7768 46.5238 44.9793 46.1632 45.3399C45.8026 45.7005 45.6 46.1896 45.6 46.6996C45.6 47.2095 45.8026 47.6986 46.1632 48.0592C46.5238 48.4198 47.0129 48.6224 47.5228 48.6224H68.4447Z" fill="white" stroke="black" stroke-width="0.8"/>
<path d="M80.4437 44.4116L76.4306 51.2624C76.0168 51.9689 75.7968 52.7722 75.793 53.5911C75.7892 54.4099 76.0016 55.2152 76.4088 55.9256C76.816 56.636 77.4036 57.2263 78.112 57.6368C78.8205 58.0473 79.6248 58.2635 80.4437 58.2635C81.2625 58.2635 82.0668 58.0473 82.7753 57.6368C83.4837 57.2263 84.0713 56.636 84.4785 55.9256C84.8857 55.2152 85.0981 54.4099 85.0943 53.5911C85.0905 52.7722 84.8705 51.9689 84.4567 51.2624L80.4437 44.4116ZM83.9275 53.6581C83.8047 54.2651 83.5255 54.8295 83.1176 55.2955C82.7097 55.7615 82.1872 56.1129 81.6018 56.315C81.4465 56.3677 81.2767 56.3566 81.1295 56.2844C80.9823 56.2121 80.8697 56.0845 80.8164 55.9295C80.763 55.7744 80.7733 55.6045 80.8449 55.457C80.9165 55.3095 81.0436 55.1963 81.1984 55.1423C81.5793 55.0105 81.9193 54.7816 82.1848 54.4783C82.4502 54.1749 82.6319 53.8076 82.712 53.4125C82.7267 53.3313 82.7575 53.254 82.8025 53.1848C82.8475 53.1157 82.9058 53.0563 82.9741 53.01C83.0423 52.9637 83.1191 52.9315 83.2 52.9152C83.2808 52.899 83.3641 52.899 83.4449 52.9154C83.5258 52.9317 83.6026 52.964 83.6708 53.0104C83.739 53.0567 83.7972 53.1162 83.8422 53.1854C83.8871 53.2545 83.9178 53.332 83.9324 53.4131C83.947 53.4943 83.9453 53.5776 83.9274 53.6581H83.9275Z" fill="#56DCE8"/>
<path d="M80.4437 44.4116L76.4306 51.2624C76.0168 51.9689 75.7968 52.7722 75.793 53.5911C75.7892 54.4099 76.0016 55.2152 76.4088 55.9256C76.816 56.636 77.4036 57.2263 78.112 57.6368C78.8205 58.0473 79.6248 58.2635 80.4437 58.2635C81.2625 58.2635 82.0668 58.0473 82.7753 57.6368C83.4837 57.2263 84.0713 56.636 84.4785 55.9256C84.8857 55.2152 85.0981 54.4099 85.0943 53.5911C85.0905 52.7722 84.8705 51.9689 84.4567 51.2624L80.4437 44.4116ZM83.9275 53.6581C83.8047 54.2651 83.5255 54.8295 83.1176 55.2955C82.7097 55.7615 82.1872 56.1129 81.6018 56.315C81.4465 56.3677 81.2767 56.3566 81.1295 56.2844C80.9823 56.2121 80.8697 56.0845 80.8164 55.9295C80.763 55.7744 80.7733 55.6045 80.8449 55.457C80.9165 55.3095 81.0436 55.1963 81.1984 55.1423C81.5793 55.0105 81.9193 54.7816 82.1848 54.4783C82.4502 54.1749 82.6319 53.8076 82.712 53.4125C82.7267 53.3313 82.7575 53.254 82.8025 53.1848C82.8475 53.1157 82.9058 53.0563 82.9741 53.01C83.0423 52.9637 83.1191 52.9315 83.2 52.9152C83.2808 52.899 83.3641 52.899 83.4449 52.9154C83.5258 52.9317 83.6026 52.964 83.6708 53.0104C83.739 53.0567 83.7972 53.1162 83.8422 53.1854C83.8871 53.2545 83.9178 53.332 83.9324 53.4131C83.947 53.4943 83.9453 53.5776 83.9274 53.6581H83.9275Z" stroke="black"/>
<path d="M82.5115 69.7016H47.5228C47.0129 69.7016 46.5238 69.9041 46.1632 70.2647C45.8026 70.6253 45.6 71.1144 45.6 71.6244C45.6 72.1343 45.8026 72.6234 46.1632 72.984C46.5238 73.3446 47.0129 73.5472 47.5228 73.5472H82.5115C83.0214 73.5472 83.5105 73.3446 83.8711 72.984C84.2317 72.6234 84.4343 72.1343 84.4343 71.6244C84.4343 71.1144 84.2317 70.6253 83.8711 70.2647C83.5105 69.9041 83.0214 69.7016 82.5115 69.7016Z" fill="white" stroke="black" stroke-width="0.8"/>
<path d="M85.9598 50.3835L85.9598 50.3836C86.6739 51.6035 86.9636 53.0257 86.7835 54.4277C86.6034 55.8298 85.9637 57.1326 84.9645 58.1324L85.9598 50.3835ZM85.9598 50.3835L81.4117 42.6193C81.3129 42.4507 81.1717 42.3108 81.0022 42.2136C80.8326 42.1164 80.6406 42.0653 80.4451 42.0653C80.2497 42.0653 80.0577 42.1164 79.8881 42.2136C79.7185 42.3108 79.5774 42.4507 79.4786 42.6193L74.9306 50.3826C74.9306 50.3827 74.9305 50.3828 74.9305 50.3828C74.1443 51.7237 73.8738 53.3051 74.1694 54.8311C74.4652 56.3571 75.3069 57.723 76.5371 58.6732C77.7673 59.6234 79.3016 60.0926 80.8529 59.993C82.4041 59.8935 83.8658 59.232 84.9645 58.1325L85.9598 50.3835ZM74.5576 42.2857C76.3003 41.1214 78.3491 40.5 80.4449 40.5C83.2544 40.5034 85.9478 41.621 87.9344 43.6076C89.9211 45.5944 91.0386 48.288 91.0417 51.0976C91.0416 53.1933 90.4201 55.2419 89.2558 56.9845C88.0913 58.7272 86.4363 60.0854 84.4999 60.8875C82.5635 61.6895 80.4328 61.8993 78.3771 61.4904C76.3215 61.0815 74.4333 60.0722 72.9513 58.5901C71.4693 57.108 70.4601 55.2198 70.0512 53.1641C69.6424 51.1085 69.8523 48.9777 70.6544 47.0414C71.4566 45.105 72.8149 43.4501 74.5576 42.2857Z" fill="white" stroke="black"/>
</svg>
