<svg width="138" height="138" viewBox="0 0 138 138" fill="none" xmlns="http://www.w3.org/2000/svg">
<path d="M69 138C107.108 138 138 107.108 138 69C138 30.8924 107.108 0 69 0C30.8924 0 0 30.8924 0 69C0 107.108 30.8924 138 69 138Z" fill="#EFF3FC"/>
<path d="M83.9722 95.3484L83.9723 95.3487L84.6493 97.2299H53.371L54.0479 95.3493L54.0481 95.349L60.5215 77.3103L60.5223 77.3083L60.6506 76.9576L60.6512 76.956L60.8255 76.4724L60.8257 76.4718L61.2194 75.3733L61.2194 75.3732L63.3043 69.5646L63.3044 69.5644L64.0788 67.4029L64.0789 67.4025L64.2456 66.9391L64.2576 66.9075L64.2576 66.9076L64.2597 66.9016L64.8598 65.224L64.86 65.2233L66.4218 60.8888L66.4221 60.8879L67.0892 59.0211C67.6892 59.1628 68.3232 59.24 68.9756 59.2426L68.6809 60.0597L68.3259 61.044L68.3257 61.0445L67.5254 63.2745L67.5253 63.2747L66.7315 65.4818L66.7314 65.4819L66.5185 66.0735L66.4379 66.2973L66.6163 66.4546L68.7787 68.3605L69.0108 68.5651L69.2423 68.3599L69.3636 68.2524L69.3643 68.2518L71.4033 66.4546L71.5818 66.2973L71.5012 66.0735L71.2882 65.482L71.2882 65.4818L70.495 63.2747L70.4949 63.2746L69.6946 61.0445L69.6944 61.044L69.3394 60.0597L69.0447 59.2426C69.6971 59.24 70.3312 59.1628 70.9316 59.0211L71.5981 60.8878L71.5985 60.8888L72.3795 63.0559L72.3795 63.0559L73.1602 65.2227L73.1605 65.2235L73.7605 66.901L73.7605 66.9011L73.7627 66.907L73.7747 66.9386L73.942 67.4018L73.9423 67.4027L74.7159 69.5637L74.716 69.564L76.8009 75.3726L76.8009 75.3728L77.1946 76.4712L77.1948 76.4718L77.3691 76.9554L77.3697 76.957L77.498 77.3077L77.4988 77.3098L83.9722 95.3484ZM76.0977 78.886L75.9235 78.401L75.5369 78.7418L70.599 83.0941L70.3011 83.3567L70.599 83.6192L80.1134 92.0058L80.6742 91.6249L76.0977 78.886ZM72.3731 68.514L72.1985 68.03L71.8125 68.3702L70.599 69.4398L70.3011 69.7024L70.599 69.9649L72.9421 72.0301L73.5028 71.649L72.8638 69.874L72.8637 69.8737L72.3731 68.514ZM65.1566 69.8737L65.1565 69.874L64.5175 71.649L65.0782 72.0301L66.9114 70.4144L67.4213 69.9649L67.7192 69.7024L67.4213 69.4398L66.2078 68.3702L65.8218 68.03L65.6471 68.514L65.1566 69.8737ZM62.9306 76.1987L63.1534 76.4514L62.9306 76.1987L62.8532 76.2669L62.5553 76.5295L62.8532 76.7921L62.8919 76.8262L68.7787 82.0148L69.0101 82.2188L69.2416 82.0148L75.1671 76.7921L75.465 76.5295L75.1671 76.2669L69.2416 71.0442L69.0101 70.8402L68.7787 71.0442L62.9306 76.1987ZM62.4834 78.7418L62.0968 78.401L61.9225 78.886L57.3461 91.6243L57.9069 92.0052L67.4213 83.6192L67.7192 83.3567L67.4213 83.0941L62.4834 78.7418ZM57.0438 95.0416L56.3488 95.6542H57.2752H80.745H81.6715L80.9765 95.0416L69.2416 84.6985L69.0101 84.4945L68.7787 84.6985L57.0438 95.0416Z" fill="#01C3FF" stroke="black" stroke-width="0.7"/>
<path d="M76.3107 52.6348C76.3107 51.3318 75.8736 50.1217 75.1301 49.1118L76.6836 47.7426C77.8222 49.1218 78.4926 50.8103 78.4926 52.6348C78.4926 54.4593 77.8222 56.1477 76.6836 57.527L75.1301 56.1577C75.8736 55.1479 76.3107 53.9377 76.3107 52.6348ZM61.3371 57.527C60.1986 56.1477 59.5281 54.4593 59.5281 52.6348C59.5281 50.8103 60.1986 49.1218 61.3371 47.7426L62.8906 49.1118C62.1472 50.1217 61.7101 51.3318 61.7101 52.6348C61.7101 53.9377 62.1472 55.1479 62.8906 56.1577L61.3371 57.527Z" fill="#FBBC05" stroke="black" stroke-width="0.4"/>
<path d="M54.3641 52.6344C54.3641 49.5585 55.5982 46.7256 57.6626 44.5035L59.1923 45.8519C57.5396 47.7166 56.546 50.072 56.546 52.6344C56.546 55.1967 57.5396 57.5521 59.1923 59.4168L57.6626 60.7652C55.5982 58.5431 54.3641 55.7102 54.3641 52.6344ZM78.828 59.4168C80.4808 57.5521 81.4744 55.1967 81.4744 52.6344C81.4744 50.072 80.4808 47.7166 78.828 45.8519L80.3578 44.5035C82.4222 46.7256 83.6563 49.5585 83.6563 52.6344C83.6563 55.7102 82.4222 58.5431 80.3578 60.7652L78.828 59.4168Z" fill="#01C3FF" stroke="black" stroke-width="0.4"/>
<path d="M49.4 52.6346C49.4 48.4291 51.129 44.5548 54.0098 41.551L55.239 42.6344C52.7014 45.3504 51.1819 48.8288 51.1819 52.6346C51.1819 56.4404 52.7014 59.9188 55.239 62.6348L54.0098 63.7182C51.129 60.7144 49.4 56.8401 49.4 52.6346ZM82.781 62.6349C85.3186 59.9188 86.8381 56.4404 86.8381 52.6346C86.8381 48.8288 85.3186 45.3504 82.781 42.6344L84.0102 41.551C86.891 44.5548 88.62 48.4291 88.62 52.6346C88.62 56.8401 86.891 60.7144 84.0096 63.7181L82.781 62.6349Z" fill="#21D885" stroke="black" stroke-width="0.8"/>
<mask id="path-6-inside-1" fill="white">
<path d="M73.529 52.6344C73.529 52.7311 73.5225 52.8335 73.5096 52.9302C73.5096 52.953 73.5096 52.9757 73.5031 52.9985V53.0269C73.5031 53.0326 73.5031 53.0326 73.5031 53.0383C73.5031 53.0724 73.4967 53.1066 73.4902 53.1407C73.4767 53.2431 73.4573 53.3398 73.4386 53.4366C73.4128 53.5446 73.3799 53.6527 73.3476 53.7552C73.3347 53.795 73.3218 53.8291 73.3089 53.8689C73.2695 53.977 73.2249 54.0851 73.1733 54.1875C73.1152 54.307 73.0507 54.4208 72.9861 54.5346C72.9209 54.6313 72.857 54.7337 72.7854 54.8247C72.7789 54.8304 72.7725 54.8418 72.7666 54.8475C72.7595 54.8589 72.7531 54.8703 72.7408 54.8816C72.6698 54.9784 72.5859 55.0751 72.4955 55.1661C72.4045 55.2628 72.3084 55.3595 72.2051 55.4506C72.1018 55.5416 71.9921 55.6269 71.8823 55.7066C71.7791 55.7862 71.6693 55.8602 71.5596 55.9228C71.546 55.9342 71.5338 55.9398 71.5202 55.9455C71.5138 55.9512 71.5015 55.9569 71.4944 55.9626C71.3918 56.0252 71.2749 56.0821 71.1652 56.139C70.9135 56.2584 70.6488 56.3552 70.3719 56.4348C70.3525 56.4405 70.3325 56.4462 70.3132 56.4519C70.2034 56.4803 70.0872 56.5031 69.9717 56.5258C69.9581 56.5258 69.9523 56.5315 69.9394 56.5315C69.9201 56.5372 69.9065 56.5429 69.8878 56.5429C69.7522 56.5657 69.6167 56.5827 69.4747 56.5941C69.3269 56.6112 69.1655 56.6169 69.0106 56.6169C68.8557 56.6169 68.6943 56.6112 68.5458 56.5941C68.4038 56.5827 68.2683 56.5657 68.1327 56.5429C68.1134 56.5429 68.1004 56.5372 68.0811 56.5315C68.0682 56.5315 68.0617 56.5258 68.0488 56.5258C67.9326 56.5031 67.8164 56.4803 67.7067 56.4519C67.6873 56.4462 67.668 56.4405 67.6486 56.4348C67.371 56.3552 67.1064 56.2584 66.8547 56.139C66.7449 56.0821 66.6287 56.0252 66.5255 55.9626C66.519 55.9569 66.5061 55.9512 66.4996 55.9455C66.4867 55.9398 66.4738 55.9342 66.4609 55.9228C66.3512 55.8602 66.2414 55.7862 66.1382 55.7066C66.0284 55.6269 65.9187 55.5416 65.8154 55.4506C65.7122 55.3595 65.6153 55.2628 65.525 55.1661C65.4346 55.0751 65.3507 54.9784 65.2797 54.8816C65.2668 54.8703 65.2603 54.8589 65.2539 54.8475C65.2474 54.8418 65.2409 54.8304 65.2345 54.8247C65.1635 54.7337 65.0989 54.6313 65.0344 54.5346C64.9698 54.4208 64.9053 54.307 64.8472 54.1875C64.7956 54.0851 64.7504 53.977 64.7117 53.8689C64.6987 53.8291 64.6858 53.795 64.6729 53.7552C64.6406 53.6527 64.6084 53.5446 64.5826 53.4366C64.5632 53.3398 64.5438 53.2431 64.5309 53.1407C64.5245 53.1066 64.518 53.0724 64.518 53.0383C64.518 53.0326 64.518 53.0326 64.518 53.0269V52.9985C64.5116 52.9757 64.5116 52.953 64.5116 52.9302C64.4986 52.8335 64.4922 52.7311 64.4922 52.6344C64.4922 52.5376 64.4986 52.4352 64.5116 52.3385C64.5116 52.3158 64.5116 52.293 64.518 52.2702V52.2418C64.518 52.2361 64.518 52.2361 64.518 52.2304C64.518 52.1963 64.5245 52.1622 64.5309 52.128C64.5438 52.0256 64.5632 51.9289 64.5826 51.8322C64.6019 51.7411 64.6277 51.6558 64.66 51.5648C64.66 51.5534 64.6665 51.5363 64.6729 51.5249C64.6794 51.4851 64.6923 51.4396 64.7117 51.3998C64.7504 51.2917 64.7956 51.1836 64.8472 51.0812C64.9053 50.9617 64.9698 50.8479 65.0344 50.7341C65.0989 50.6374 65.1635 50.535 65.2345 50.444C65.2409 50.4383 65.2474 50.4269 65.2539 50.4212C65.2603 50.4098 65.2668 50.3985 65.2797 50.3871C65.3507 50.2904 65.4346 50.1937 65.525 50.1026C65.6153 50.0059 65.7122 49.9092 65.8154 49.8182C65.9187 49.7271 66.0284 49.6418 66.1382 49.5621C66.2414 49.4825 66.3512 49.4085 66.4609 49.3459C66.4738 49.3346 66.4867 49.3289 66.4996 49.3232C66.5061 49.3175 66.519 49.3118 66.5255 49.3061C66.6287 49.2435 66.7449 49.1866 66.8547 49.1298C66.9838 49.0729 67.1129 49.016 67.2484 48.9648C67.3646 48.9193 67.4872 48.8794 67.6099 48.8453C67.6551 48.8282 67.7067 48.8168 67.7519 48.8112C67.7648 48.8055 67.7842 48.7998 67.7971 48.7998C67.9003 48.7713 67.9972 48.7486 68.1004 48.7315C68.2102 48.7144 68.3199 48.6974 68.4361 48.686C68.4748 48.6803 68.5136 48.6746 68.5523 48.6746C68.5587 48.6746 68.5587 48.6746 68.5652 48.6746H68.5975C68.6233 48.6689 68.6491 48.6689 68.6749 48.6689C68.7847 48.6575 68.9008 48.6519 69.0106 48.6519C69.1203 48.6519 69.2365 48.6575 69.3462 48.6689C69.372 48.6689 69.3979 48.6689 69.4237 48.6746H69.456C69.4624 48.6746 69.4624 48.6746 69.4689 48.6746C69.5076 48.6746 69.5463 48.6803 69.5851 48.686C69.7012 48.6974 69.811 48.7144 69.9207 48.7315C70.024 48.7486 70.1208 48.7713 70.2241 48.7998C70.2376 48.7998 70.2564 48.8055 70.2693 48.8112C70.3138 48.8168 70.3654 48.8282 70.4113 48.8453C70.5339 48.8794 70.6566 48.9193 70.7734 48.9648C70.9089 49.016 71.0374 49.0729 71.1665 49.1298C71.2762 49.1866 71.3931 49.2435 71.4957 49.3061C71.5028 49.3118 71.5151 49.3175 71.5215 49.3232C71.5351 49.3289 71.5473 49.3346 71.5609 49.3459C71.6706 49.4085 71.7803 49.4825 71.8836 49.5621C71.9934 49.6418 72.1031 49.7271 72.2064 49.8182C72.3096 49.9092 72.4065 50.0059 72.4968 50.1026C72.5872 50.1937 72.6711 50.2904 72.7421 50.3871C72.755 50.3985 72.7608 50.4098 72.7679 50.4212C72.7744 50.4269 72.7808 50.4383 72.7867 50.444C72.8577 50.535 72.9222 50.6374 72.9874 50.7341C73.0519 50.8479 73.1165 50.9617 73.1746 51.0812C73.2262 51.1836 73.2708 51.2917 73.3101 51.3998C73.3295 51.4396 73.3424 51.4851 73.3489 51.5249C73.356 51.5363 73.3624 51.5534 73.3624 51.5648C73.3947 51.6558 73.4205 51.7411 73.4399 51.8322C73.4586 51.9289 73.4786 52.0256 73.4915 52.128C73.498 52.1622 73.5044 52.1963 73.5044 52.2304C73.5044 52.2361 73.5044 52.2361 73.5044 52.2418V52.2702C73.5109 52.293 73.5109 52.3158 73.5109 52.3385C73.5225 52.4352 73.529 52.5376 73.529 52.6344Z"/>
</mask>
<path d="M73.529 52.6344C73.529 52.7311 73.5225 52.8335 73.5096 52.9302C73.5096 52.953 73.5096 52.9757 73.5031 52.9985V53.0269C73.5031 53.0326 73.5031 53.0326 73.5031 53.0383C73.5031 53.0724 73.4967 53.1066 73.4902 53.1407C73.4767 53.2431 73.4573 53.3398 73.4386 53.4366C73.4128 53.5446 73.3799 53.6527 73.3476 53.7552C73.3347 53.795 73.3218 53.8291 73.3089 53.8689C73.2695 53.977 73.2249 54.0851 73.1733 54.1875C73.1152 54.307 73.0507 54.4208 72.9861 54.5346C72.9209 54.6313 72.857 54.7337 72.7854 54.8247C72.7789 54.8304 72.7725 54.8418 72.7666 54.8475C72.7595 54.8589 72.7531 54.8703 72.7408 54.8816C72.6698 54.9784 72.5859 55.0751 72.4955 55.1661C72.4045 55.2628 72.3084 55.3595 72.2051 55.4506C72.1018 55.5416 71.9921 55.6269 71.8823 55.7066C71.7791 55.7862 71.6693 55.8602 71.5596 55.9228C71.546 55.9342 71.5338 55.9398 71.5202 55.9455C71.5138 55.9512 71.5015 55.9569 71.4944 55.9626C71.3918 56.0252 71.2749 56.0821 71.1652 56.139C70.9135 56.2584 70.6488 56.3552 70.3719 56.4348C70.3525 56.4405 70.3325 56.4462 70.3132 56.4519C70.2034 56.4803 70.0872 56.5031 69.9717 56.5258C69.9581 56.5258 69.9523 56.5315 69.9394 56.5315C69.9201 56.5372 69.9065 56.5429 69.8878 56.5429C69.7522 56.5657 69.6167 56.5827 69.4747 56.5941C69.3269 56.6112 69.1655 56.6169 69.0106 56.6169C68.8557 56.6169 68.6943 56.6112 68.5458 56.5941C68.4038 56.5827 68.2683 56.5657 68.1327 56.5429C68.1134 56.5429 68.1004 56.5372 68.0811 56.5315C68.0682 56.5315 68.0617 56.5258 68.0488 56.5258C67.9326 56.5031 67.8164 56.4803 67.7067 56.4519C67.6873 56.4462 67.668 56.4405 67.6486 56.4348C67.371 56.3552 67.1064 56.2584 66.8547 56.139C66.7449 56.0821 66.6287 56.0252 66.5255 55.9626C66.519 55.9569 66.5061 55.9512 66.4996 55.9455C66.4867 55.9398 66.4738 55.9342 66.4609 55.9228C66.3512 55.8602 66.2414 55.7862 66.1382 55.7066C66.0284 55.6269 65.9187 55.5416 65.8154 55.4506C65.7122 55.3595 65.6153 55.2628 65.525 55.1661C65.4346 55.0751 65.3507 54.9784 65.2797 54.8816C65.2668 54.8703 65.2603 54.8589 65.2539 54.8475C65.2474 54.8418 65.2409 54.8304 65.2345 54.8247C65.1635 54.7337 65.0989 54.6313 65.0344 54.5346C64.9698 54.4208 64.9053 54.307 64.8472 54.1875C64.7956 54.0851 64.7504 53.977 64.7117 53.8689C64.6987 53.8291 64.6858 53.795 64.6729 53.7552C64.6406 53.6527 64.6084 53.5446 64.5826 53.4366C64.5632 53.3398 64.5438 53.2431 64.5309 53.1407C64.5245 53.1066 64.518 53.0724 64.518 53.0383C64.518 53.0326 64.518 53.0326 64.518 53.0269V52.9985C64.5116 52.9757 64.5116 52.953 64.5116 52.9302C64.4986 52.8335 64.4922 52.7311 64.4922 52.6344C64.4922 52.5376 64.4986 52.4352 64.5116 52.3385C64.5116 52.3158 64.5116 52.293 64.518 52.2702V52.2418C64.518 52.2361 64.518 52.2361 64.518 52.2304C64.518 52.1963 64.5245 52.1622 64.5309 52.128C64.5438 52.0256 64.5632 51.9289 64.5826 51.8322C64.6019 51.7411 64.6277 51.6558 64.66 51.5648C64.66 51.5534 64.6665 51.5363 64.6729 51.5249C64.6794 51.4851 64.6923 51.4396 64.7117 51.3998C64.7504 51.2917 64.7956 51.1836 64.8472 51.0812C64.9053 50.9617 64.9698 50.8479 65.0344 50.7341C65.0989 50.6374 65.1635 50.535 65.2345 50.444C65.2409 50.4383 65.2474 50.4269 65.2539 50.4212C65.2603 50.4098 65.2668 50.3985 65.2797 50.3871C65.3507 50.2904 65.4346 50.1937 65.525 50.1026C65.6153 50.0059 65.7122 49.9092 65.8154 49.8182C65.9187 49.7271 66.0284 49.6418 66.1382 49.5621C66.2414 49.4825 66.3512 49.4085 66.4609 49.3459C66.4738 49.3346 66.4867 49.3289 66.4996 49.3232C66.5061 49.3175 66.519 49.3118 66.5255 49.3061C66.6287 49.2435 66.7449 49.1866 66.8547 49.1298C66.9838 49.0729 67.1129 49.016 67.2484 48.9648C67.3646 48.9193 67.4872 48.8794 67.6099 48.8453C67.6551 48.8282 67.7067 48.8168 67.7519 48.8112C67.7648 48.8055 67.7842 48.7998 67.7971 48.7998C67.9003 48.7713 67.9972 48.7486 68.1004 48.7315C68.2102 48.7144 68.3199 48.6974 68.4361 48.686C68.4748 48.6803 68.5136 48.6746 68.5523 48.6746C68.5587 48.6746 68.5587 48.6746 68.5652 48.6746H68.5975C68.6233 48.6689 68.6491 48.6689 68.6749 48.6689C68.7847 48.6575 68.9008 48.6519 69.0106 48.6519C69.1203 48.6519 69.2365 48.6575 69.3462 48.6689C69.372 48.6689 69.3979 48.6689 69.4237 48.6746H69.456C69.4624 48.6746 69.4624 48.6746 69.4689 48.6746C69.5076 48.6746 69.5463 48.6803 69.5851 48.686C69.7012 48.6974 69.811 48.7144 69.9207 48.7315C70.024 48.7486 70.1208 48.7713 70.2241 48.7998C70.2376 48.7998 70.2564 48.8055 70.2693 48.8112C70.3138 48.8168 70.3654 48.8282 70.4113 48.8453C70.5339 48.8794 70.6566 48.9193 70.7734 48.9648C70.9089 49.016 71.0374 49.0729 71.1665 49.1298C71.2762 49.1866 71.3931 49.2435 71.4957 49.3061C71.5028 49.3118 71.5151 49.3175 71.5215 49.3232C71.5351 49.3289 71.5473 49.3346 71.5609 49.3459C71.6706 49.4085 71.7803 49.4825 71.8836 49.5621C71.9934 49.6418 72.1031 49.7271 72.2064 49.8182C72.3096 49.9092 72.4065 50.0059 72.4968 50.1026C72.5872 50.1937 72.6711 50.2904 72.7421 50.3871C72.755 50.3985 72.7608 50.4098 72.7679 50.4212C72.7744 50.4269 72.7808 50.4383 72.7867 50.444C72.8577 50.535 72.9222 50.6374 72.9874 50.7341C73.0519 50.8479 73.1165 50.9617 73.1746 51.0812C73.2262 51.1836 73.2708 51.2917 73.3101 51.3998C73.3295 51.4396 73.3424 51.4851 73.3489 51.5249C73.356 51.5363 73.3624 51.5534 73.3624 51.5648C73.3947 51.6558 73.4205 51.7411 73.4399 51.8322C73.4586 51.9289 73.4786 52.0256 73.4915 52.128C73.498 52.1622 73.5044 52.1963 73.5044 52.2304C73.5044 52.2361 73.5044 52.2361 73.5044 52.2418V52.2702C73.5109 52.293 73.5109 52.3158 73.5109 52.3385C73.5225 52.4352 73.529 52.5376 73.529 52.6344Z" fill="#01C3FF" stroke="black" stroke-width="1.2" mask="url(#path-6-inside-1)"/>
</svg>
