<svg width="138" height="138" viewBox="0 0 138 138" fill="none" xmlns="http://www.w3.org/2000/svg">
<path d="M69 138C107.108 138 138 107.108 138 69C138 30.8924 107.108 0 69 0C30.8924 0 0 30.8924 0 69C0 107.108 30.8924 138 69 138Z" fill="#EFF3FC"/>
<path d="M58.8453 64.3429H62.7753V84.6851H58.8453V64.3429Z" fill="#01C3FF" stroke="black" stroke-width="0.8"/>
<path d="M66.566 64.3429H70.496V84.6851H66.566V64.3429Z" fill="#EFF3FC" stroke="black" stroke-width="0.8"/>
<path d="M74.2867 64.3429H78.2167V84.6851H74.2867V64.3429Z" fill="#01C3FF" stroke="black" stroke-width="0.8"/>
<path d="M51.1227 64.3429H55.0525V84.6851H51.1227V64.3429Z" fill="#EFF3FC" stroke="black" stroke-width="0.8"/>
<path d="M82.0074 64.3429H85.9373V84.6851H82.0074V64.3429Z" fill="#EFF3FC" stroke="black" stroke-width="0.8"/>
<path d="M43 57.959H94.0605V60.9508H43V57.959Z" fill="#FBBC05" stroke="black" stroke-width="0.8"/>
<path d="M93 55.7L93.3029 54.3689L68.3029 42.3689L68 42.2235L67.6971 42.3689L42.6971 54.3689L43 55.7H93Z" fill="#21D885" stroke="black" stroke-width="1.4"/>
<path d="M89.7301 64.3429H93.6601V84.6851H89.7301V64.3429Z" fill="#01C3FF" stroke="black" stroke-width="0.8"/>
<path d="M43 87.4767H42.4V88.0767V94.0603V94.6603H43H94.0605H94.6605V94.0603V88.0767V87.4767H94.0605H43Z" fill="#01C3FF" stroke="black" stroke-width="1.2"/>
<path d="M43.4 64.3429H47.33V84.6851H43.4V64.3429Z" fill="#01C3FF" stroke="black" stroke-width="0.8"/>
</svg>
