<svg width="138" height="138" viewBox="0 0 138 138" fill="none" xmlns="http://www.w3.org/2000/svg">
<path d="M69 138C107.108 138 138 107.108 138 69C138 30.8924 107.108 0 69 0C30.8924 0 0 30.8924 0 69C0 107.108 30.8924 138 69 138Z" fill="#EFF3FC"/>
<path d="M93.1772 64.6633L93.1773 64.6634C94.2901 65.8019 94.2902 67.647 93.1773 68.7858C92.0761 69.9124 90.2914 69.9124 89.1904 68.7858L89.1904 68.7857L66.0437 45.1025C64.9358 43.9673 64.9352 42.1139 66.0434 40.9764C67.1374 39.8604 68.9259 39.8477 70.034 40.9785C70.0341 40.9786 70.0342 40.9786 70.0343 40.9787L93.1772 64.6633Z" fill="#21D885" stroke="black" stroke-width="1.3"/>
<path d="M64.2876 50.2735L84.1261 70.5717C78.2116 71.8593 72.6814 74.8386 68.0752 78.735L56.3803 66.7682C60.1931 62.0455 63.032 56.3156 64.2876 50.2735Z" fill="#01C3FF" stroke="black" stroke-width="1.4"/>
<path d="M45.0288 78.771C45.0289 78.771 45.0289 78.771 45.0289 78.771L53.134 70.479L64.4478 82.0557L56.3209 90.3716C54.5543 92.1791 51.7051 92.1721 49.9455 90.3716L45.0289 85.3406C43.2535 83.524 43.2606 80.5805 45.0288 78.771ZM51.4043 83.8037C52.358 84.7796 53.9103 84.7796 54.8639 83.8037L57.3223 81.2882C58.2671 80.3214 58.2671 78.7611 57.3223 77.7942C56.3686 76.8184 54.8163 76.8184 53.8627 77.7942L51.4043 80.3097C50.4595 81.2766 50.4595 82.8369 51.4043 83.8037Z" fill="white" stroke="black" stroke-width="1.4"/>
<path d="M72.2204 91.3521L71.7693 91.8136L72.2276 92.268L74.0794 94.1039C75.1857 95.2398 75.1845 97.0903 74.076 98.2246L74.076 98.2246C72.9726 99.3538 71.1828 99.3466 70.0915 98.227L70.0915 98.2269L70.0837 98.2191L62.6542 90.8526L66.6625 86.7511L69.7304 89.7926L70.1953 90.2535L70.6529 89.7853L73.0568 87.3254L73.058 87.3242C73.985 86.3706 73.9817 84.8455 73.0565 83.9027C73.0562 83.9024 73.0559 83.9022 73.0557 83.9019L71.4478 82.2541C72.0245 81.7775 72.6119 81.3224 73.2147 80.8909L74.5853 82.2944L74.5858 82.2949C76.374 84.1216 76.3801 87.0959 74.5853 88.9321L74.5853 88.9322L72.2204 91.3521Z" fill="#01C3FF" stroke="black" stroke-width="1.3"/>
<path d="M78.2188 40.7789C78.2188 39.9283 78.8898 39.25 79.7072 39.25C80.5247 39.25 81.1957 39.9283 81.1957 40.7789V44.3367C81.1957 45.1874 80.5247 45.8656 79.7072 45.8656C78.8898 45.8656 78.2188 45.1874 78.2188 44.3367V40.7789Z" stroke="black" stroke-width="0.5"/>
<path d="M90.1408 53.481H93.6178C94.4352 53.481 95.1063 54.1592 95.1063 55.0099C95.1063 55.8605 94.4352 56.5388 93.6178 56.5388H90.1408C89.3234 56.5388 88.6523 55.8605 88.6523 55.0099C88.6523 54.1592 89.3234 53.481 90.1408 53.481Z" stroke="black" stroke-width="0.5"/>
<path d="M87.7146 48.9773L87.7146 48.9773C87.1336 49.5719 86.1949 49.5718 85.6139 48.9773C85.0298 48.3796 85.0298 47.409 85.6139 46.8113L89.0908 43.2535C89.6718 42.659 90.6106 42.659 91.1916 43.2535C91.7757 43.8512 91.7757 44.8218 91.1916 45.4195L87.7146 48.9773Z" stroke="black" stroke-width="0.5"/>
</svg>
