<svg width="188" height="57" viewBox="0 0 188 57" fill="none" xmlns="http://www.w3.org/2000/svg">
<path d="M75.8023 25.7751C76.076 26.4214 76.2029 27.1204 76.174 27.8217C76.1717 28.6486 76.0185 29.4682 75.722 30.2401C75.439 30.992 74.9945 31.6725 74.4197 32.2337C73.8218 32.8204 73.1061 33.2733 72.3201 33.5626C71.4198 33.8963 70.465 34.0586 69.5051 34.0411H69.106C67.2294 34.0065 65.371 33.6653 63.6045 33.031V28.0875H65.1196C65.2634 28.0734 65.4071 28.1153 65.5209 28.2044C65.6347 28.2935 65.7098 28.423 65.7306 28.566C65.7858 28.7962 65.8655 29.5316 65.9699 30.7724C67.163 31.0512 68.3884 31.1673 69.6127 31.1177C70.4616 31.1686 71.3007 30.914 71.9781 30.3999C72.2609 30.1378 72.4818 29.8161 72.625 29.4582C72.7682 29.1002 72.83 28.7149 72.806 28.3301C72.8215 27.8843 72.691 27.4456 72.4343 27.0807C72.1699 26.7344 71.8225 26.4602 71.4242 26.2834C70.975 26.0506 70.5035 25.8637 70.0168 25.7254L69.4322 25.5656L68.3957 25.2469C67.8448 25.0622 67.3037 24.8494 66.7746 24.6094C66.2478 24.3582 65.7634 24.0264 65.339 23.6258C64.8986 23.2132 64.5616 22.7027 64.3554 22.1355C64.0808 21.4329 63.9452 20.6835 63.9563 19.9291C63.9519 19.2245 64.0969 18.5269 64.3819 17.8825C64.6508 17.2047 65.0687 16.596 65.6047 16.1016C66.1839 15.5821 66.8497 15.1682 67.5719 14.8788C68.4269 14.546 69.3387 14.3834 70.256 14.4002C72.143 14.4054 74.0111 14.7754 75.7576 15.4898V20.4068H74.2425C74.0962 20.4131 73.9528 20.365 73.84 20.2717C73.7271 20.1784 73.6528 20.0466 73.6315 19.9018C73.5763 19.654 73.4965 18.9364 73.3922 17.7492C72.3924 17.4096 71.3368 17.2652 70.2825 17.3236C69.8519 17.3176 69.4225 17.3714 69.0067 17.4834C68.6659 17.588 68.3495 17.7597 68.0761 17.9885C67.8259 18.1983 67.6261 18.4617 67.4916 18.7593C67.3586 19.0697 67.295 19.4053 67.3053 19.7428C67.2993 20.1508 67.441 20.5472 67.7044 20.8589C67.9749 21.1815 68.3099 21.4441 68.6879 21.6297C69.1523 21.8576 69.632 22.0529 70.1236 22.2142C70.3007 22.2694 70.8411 22.4466 71.7446 22.7457C72.1167 22.8699 72.657 23.0907 73.3657 23.4081C73.8977 23.6386 74.3839 23.9628 74.8013 24.3651C75.2338 24.7565 75.5755 25.2377 75.8023 25.7751ZM91.0825 23.9413C91.3379 24.9035 91.4629 25.8956 91.4542 26.8911C91.4531 27.8549 91.3097 28.8132 91.0286 29.7351C90.7943 30.5591 90.3964 31.3275 89.8588 31.9945C89.3593 32.6149 88.7344 33.1227 88.0249 33.4847C87.2642 33.8547 86.4258 34.037 85.5801 34.0162C84.9162 34.038 84.2551 33.9204 83.6394 33.671C83.0968 33.4338 82.6015 33.1006 82.1773 32.6874V35.6373C82.3545 35.6726 82.5052 35.7002 82.6294 35.7201C82.7712 35.7554 82.8863 35.783 82.9746 35.8029C83.2583 35.8382 83.3913 35.8559 83.3736 35.8559L83.5334 35.8824C83.7309 35.9141 83.909 36.0194 84.0319 36.1772C84.1548 36.335 84.2134 36.5334 84.1958 36.7327V38.2743H76.8869V36.7327C76.8693 36.5334 76.9278 36.335 77.0507 36.1772C77.1736 36.0194 77.3517 35.9141 77.5492 35.8824L77.709 35.8559L78.1081 35.8029L78.9053 35.6431V22.8252L78.1081 22.6919C78.0192 22.6742 77.9394 22.6566 77.8688 22.6389C77.8173 22.6215 77.7634 22.6126 77.709 22.6124L77.5492 22.5859C77.3544 22.5577 77.1775 22.4565 77.0545 22.3028C76.9316 22.149 76.8716 21.9543 76.8869 21.758V20.1899H80.9006C81.0985 20.1858 81.293 20.2415 81.4587 20.3497C81.6121 20.4557 81.7173 20.6183 81.7509 20.8017L82.0167 22.0511C82.5553 21.4429 83.1933 20.9306 83.9035 20.536C84.6731 20.1315 85.5331 19.9304 86.4022 19.9515C87.1108 19.9355 87.8129 20.0905 88.4488 20.4035C89.0762 20.7286 89.6215 21.192 90.0434 21.7588C90.5285 22.4108 90.8814 23.1514 91.0825 23.9387V23.9413ZM87.8395 28.9643C87.9987 28.2941 88.0702 27.6062 88.0522 26.9176C88.0681 26.2306 88.0056 25.5439 87.866 24.871C87.7662 24.3966 87.5768 23.9456 87.308 23.5422C87.0885 23.2127 86.7861 22.9469 86.4312 22.7714C86.073 22.6073 85.6826 22.5256 85.2887 22.5321C84.6757 22.508 84.0681 22.6554 83.5343 22.9577C83.0133 23.2813 82.5543 23.6954 82.179 24.1805V30.2939C82.4996 30.7107 82.9202 31.0399 83.4018 31.251C83.8477 31.4355 84.3268 31.526 84.8093 31.5168C85.2752 31.53 85.7382 31.4392 86.1646 31.251C86.5651 31.0535 86.9118 30.7617 87.1747 30.4007C87.4871 29.9694 87.7129 29.4816 87.8395 28.9643ZM98.1554 16.2068C98.149 16.4826 98.0856 16.754 97.9691 17.0041C97.8623 17.2518 97.7088 17.4766 97.5171 17.6664C97.3304 17.8618 97.1048 18.0158 96.8548 18.1184C96.3261 18.331 95.7358 18.331 95.2072 18.1184C94.9673 18.0107 94.7508 17.8571 94.5697 17.6664C94.378 17.4766 94.2245 17.2518 94.1176 17.0041C94.0104 16.752 93.956 16.4807 93.9578 16.2068C93.9572 15.9231 94.0115 15.6419 94.1176 15.3789C94.2203 15.1288 94.3743 14.9032 94.5697 14.7165C94.7498 14.5313 94.967 14.3863 95.2072 14.291C95.4645 14.1685 95.7459 14.105 96.0309 14.105C96.3159 14.105 96.5974 14.1685 96.8548 14.291C97.1022 14.3863 97.3275 14.5311 97.5171 14.7165C97.7125 14.9032 97.8665 15.1288 97.9691 15.3789C98.085 15.6399 98.1486 15.9212 98.1562 16.2068H98.1554ZM99.0057 31.4364C99.2005 31.4646 99.3774 31.5658 99.5004 31.7196C99.6233 31.8733 99.6833 32.0681 99.668 32.2644V33.8325H92.3591V32.2644C92.3438 32.0681 92.4038 31.8733 92.5268 31.7196C92.6498 31.5658 92.8266 31.4646 93.0215 31.4364L93.1812 31.4099L93.5803 31.3272L94.3776 31.1947V22.8252L93.5803 22.6919C93.492 22.6742 93.4122 22.6566 93.341 22.6389C93.2895 22.6215 93.2356 22.6126 93.1812 22.6124L93.0215 22.5859C92.8266 22.5577 92.6498 22.4565 92.5268 22.3028C92.4038 22.149 92.3438 21.9543 92.3591 21.758V20.1899H97.6479V31.1938L98.4452 31.3263C98.5171 31.3397 98.5881 31.3574 98.658 31.3793C98.7188 31.3956 98.7813 31.4045 98.8442 31.4058L99.0057 31.4364ZM109.652 19.9548C110.244 19.9269 110.829 20.0849 111.327 20.4068L110.901 22.879C110.901 22.9409 110.887 23.002 110.859 23.0574C110.831 23.1127 110.791 23.1608 110.742 23.1978C110.631 23.2699 110.501 23.3068 110.369 23.3037C110.189 23.2949 110.011 23.2672 109.837 23.221C109.532 23.1517 109.22 23.1162 108.907 23.115C108.276 23.0955 107.657 23.2924 107.152 23.673C106.62 24.1283 106.201 24.7015 105.93 25.3471V31.1947L107.258 31.434C107.453 31.4621 107.63 31.5634 107.753 31.7171C107.876 31.8708 107.936 32.0656 107.921 32.2619V33.83H100.635V32.2619C100.62 32.0656 100.68 31.8708 100.803 31.7171C100.926 31.5634 101.103 31.4621 101.297 31.434L102.626 31.1947V22.8252L101.297 22.5859C101.103 22.5577 100.926 22.4565 100.803 22.3028C100.68 22.149 100.62 21.9543 100.635 21.758V20.1899H104.569C104.814 20.1625 105.061 20.229 105.26 20.3762C105.409 20.5578 105.502 20.7796 105.526 21.0137L105.738 22.6613C106.146 21.8754 106.728 21.1934 107.44 20.6676C108.083 20.2 108.858 19.9503 109.653 19.9548H109.652ZM118.651 19.9813C119.457 19.9708 120.258 20.106 121.016 20.3804C121.718 20.6472 122.353 21.0646 122.876 21.6032C123.416 22.157 123.832 22.8183 124.099 23.5438C124.407 24.3774 124.56 25.26 124.551 26.1485C124.551 26.3624 124.534 26.5759 124.498 26.7868C124.483 26.9156 124.447 27.0412 124.392 27.1586C124.369 27.2081 124.335 27.2525 124.294 27.289C124.253 27.3256 124.205 27.3535 124.153 27.3713C124.034 27.4146 123.908 27.4327 123.781 27.4243H115.356C115.357 28.5554 115.762 29.6488 116.498 30.5075C116.843 30.8399 117.251 31.0986 117.699 31.2677C118.147 31.4368 118.624 31.5128 119.103 31.4911C119.562 31.5041 120.02 31.4411 120.458 31.3048C120.808 31.1975 121.147 31.0549 121.468 30.8793C121.588 30.8101 121.712 30.7479 121.84 30.693C121.982 30.6223 122.115 30.5514 122.239 30.4802C122.42 30.3602 122.632 30.2955 122.85 30.2939C122.979 30.292 123.106 30.3204 123.222 30.3767C123.321 30.4216 123.405 30.4959 123.461 30.5895L124.418 31.7858C124.061 32.2019 123.65 32.5683 123.195 32.8754C122.754 33.1587 122.282 33.3906 121.788 33.5667C121.292 33.7204 120.786 33.8358 120.273 33.9119C119.779 33.9864 119.281 34.0219 118.782 34.0179C117.885 34.0313 116.993 33.878 116.151 33.5659C115.351 33.2515 114.627 32.7719 114.025 32.1584C113.391 31.5061 112.902 30.7271 112.589 29.8725C112.231 28.8575 112.06 27.7859 112.084 26.7098C112.085 25.8218 112.238 24.9405 112.536 24.1043C112.821 23.3061 113.264 22.5738 113.839 21.9517C114.411 21.3329 115.109 20.8435 115.885 20.5161C116.761 20.1487 117.702 19.9666 118.651 19.9813H118.651ZM118.704 22.3202C118.294 22.2991 117.885 22.3616 117.501 22.504C117.116 22.6463 116.765 22.8655 116.468 23.1481C115.891 23.7798 115.529 24.5785 115.434 25.429H121.601C121.595 25.0234 121.533 24.6206 121.414 24.2327C121.297 23.8757 121.117 23.5426 120.883 23.2491C120.64 22.9577 120.33 22.7302 119.979 22.5868C119.578 22.4105 119.143 22.3197 118.704 22.3202H118.704ZM149.707 20.3265C150.664 22.8251 150.664 25.589 149.707 28.0875C149.277 29.2395 148.603 30.2849 147.732 31.152C146.86 32.019 145.811 32.6871 144.657 33.1105C143.395 33.6027 142.051 33.8464 140.697 33.8283H131.634V32.2602C131.619 32.0639 131.679 31.8692 131.802 31.7154C131.925 31.5617 132.102 31.4605 132.297 31.4323L132.456 31.4058C132.511 31.4057 132.565 31.3967 132.616 31.3793C132.687 31.3616 132.767 31.344 132.855 31.3263L133.653 31.1938V17.2433L132.855 17.11C132.767 17.0924 132.687 17.0747 132.616 17.0571C132.565 17.0396 132.511 17.0307 132.456 17.0306L132.297 17.0041C132.102 16.9759 131.925 16.8747 131.802 16.7209C131.679 16.5672 131.619 16.3724 131.634 16.1762V14.6081H140.697C142.051 14.5899 143.396 14.8337 144.657 15.3259C145.808 15.7647 146.858 16.4341 147.741 17.293C148.593 18.163 149.262 19.1943 149.71 20.3265H149.707ZM146.331 27.0509C146.628 26.1327 146.772 25.1719 146.757 24.207C146.77 23.2517 146.627 22.3007 146.331 21.3921C146.073 20.613 145.667 19.891 145.135 19.266C144.594 18.6977 143.943 18.2456 143.222 17.9371C142.421 17.6072 141.562 17.4444 140.697 17.4586H137.242V30.9869H140.697C141.562 31.0011 142.421 30.8382 143.222 30.5083C143.943 30.1999 144.594 29.7477 145.135 29.1795C145.673 28.5575 146.08 27.8336 146.332 27.0509H146.331ZM163.537 31.4099C163.731 31.4381 163.908 31.5394 164.031 31.6931C164.154 31.8468 164.214 32.0416 164.199 32.2379V33.8059H161.063C160.807 33.8221 160.552 33.7764 160.318 33.6727C160.211 33.6121 160.12 33.5279 160.05 33.4266C159.981 33.3253 159.936 33.2096 159.919 33.0882L159.626 32.1311C159.314 32.4353 158.976 32.7122 158.616 32.959C158.287 33.1822 157.941 33.3777 157.58 33.5435C157.221 33.6976 156.847 33.8133 156.464 33.8887C156.026 33.9766 155.581 34.021 155.135 34.0212C154.594 34.0279 154.055 33.9471 153.54 33.7819C153.082 33.6362 152.658 33.4012 152.291 33.0906C151.928 32.7701 151.645 32.37 151.463 31.9216C151.263 31.4142 151.163 30.8725 151.171 30.327C151.173 29.7879 151.31 29.2578 151.57 28.7854C151.888 28.2177 152.357 27.7487 152.925 27.4301C153.699 26.9634 154.543 26.6225 155.424 26.42C156.705 26.1287 158.017 25.9947 159.331 26.021V25.2237C159.378 24.4945 159.171 23.7713 158.746 23.1771C158.535 22.9473 158.275 22.7684 157.985 22.6537C157.695 22.539 157.383 22.4914 157.072 22.5147C156.622 22.4972 156.172 22.5603 155.743 22.701C155.423 22.82 155.112 22.9623 154.813 23.1266L154.095 23.5256C153.879 23.6555 153.629 23.7202 153.377 23.7119C153.171 23.7184 152.967 23.6627 152.793 23.5521C152.644 23.434 152.518 23.2898 152.421 23.1266L151.81 22.09C153.345 20.6601 155.374 19.8793 157.471 19.9109C158.208 19.8996 158.94 20.0353 159.624 20.31C160.218 20.5576 160.753 20.9291 161.192 21.3995C161.634 21.8874 161.977 22.4561 162.202 23.0744C162.422 23.7613 162.53 24.4793 162.521 25.2005V31.2245L163.239 31.3578L163.537 31.4099ZM159.337 28.008C158.536 27.9922 157.735 28.0546 156.945 28.1943C156.408 28.2994 155.882 28.4598 155.377 28.6728C155.046 28.8017 154.759 29.0229 154.549 29.3103C154.356 29.6353 154.276 30.0159 154.325 30.3912C154.373 30.7664 154.546 31.1147 154.815 31.3801C155.209 31.6394 155.673 31.7694 156.144 31.7519C156.456 31.753 156.768 31.7253 157.075 31.6691C157.365 31.6206 157.646 31.5217 157.903 31.3768C158.152 31.2436 158.392 31.0925 158.62 30.9248C158.872 30.7268 159.112 30.5139 159.338 30.2873L159.337 28.008ZM170.749 34.0394C170.248 34.0721 169.745 33.9991 169.273 33.8251C168.802 33.6511 168.372 33.38 168.012 33.0294C167.342 32.2694 166.998 31.2764 167.054 30.2649V22.6638H165.673C165.505 22.6538 165.346 22.5883 165.221 22.4775C165.147 22.4168 165.089 22.3391 165.052 22.2511C165.015 22.1632 165 22.0675 165.008 21.9724V20.6436L167.214 20.2984L167.905 16.5777C167.915 16.498 167.941 16.4212 167.982 16.3523C168.023 16.2835 168.079 16.2243 168.145 16.1786C168.291 16.0708 168.468 16.0146 168.65 16.0188H170.351V20.324H173.939V22.6629H170.351V30.0521C170.334 30.4079 170.447 30.7578 170.67 31.0357C170.779 31.151 170.911 31.2415 171.057 31.3011C171.204 31.3607 171.362 31.3879 171.52 31.381C171.69 31.3907 171.861 31.3728 172.025 31.328L172.37 31.1682L172.663 31.0084C172.727 30.9701 172.801 30.9517 172.876 30.9554C172.968 30.9433 173.061 30.9619 173.141 31.0084L173.328 31.2212L174.311 32.8158C173.297 33.6146 172.042 34.0457 170.751 34.0386L170.749 34.0394ZM187.335 31.4083C187.53 31.4365 187.707 31.5377 187.83 31.6914C187.953 31.8452 188.013 32.0399 187.998 32.2362V33.8043H184.864C184.608 33.8204 184.353 33.7747 184.119 33.671C184.012 33.6103 183.921 33.5262 183.852 33.4249C183.783 33.3236 183.738 33.2078 183.721 33.0865L183.428 32.1294C183.116 32.4336 182.778 32.7106 182.418 32.9573C182.089 33.1805 181.743 33.376 181.382 33.5418C181.023 33.696 180.649 33.8117 180.266 33.8871C179.828 33.975 179.383 34.0194 178.937 34.0196C178.396 34.0262 177.857 33.9454 177.342 33.7803C176.884 33.6344 176.46 33.3995 176.093 33.089C175.73 32.7685 175.447 32.3683 175.265 31.9199C175.065 31.4125 174.965 30.8709 174.973 30.3254C174.975 29.7862 175.112 29.2562 175.372 28.7838C175.69 28.216 176.159 27.7471 176.727 27.4285C177.501 26.9618 178.345 26.6209 179.226 26.4184C180.507 26.1271 181.819 25.993 183.133 26.0193V25.222C183.18 24.4928 182.973 23.7697 182.548 23.1754C182.337 22.9456 182.077 22.7666 181.787 22.6518C181.497 22.5371 181.184 22.4897 180.873 22.5131C180.423 22.4955 179.973 22.5586 179.544 22.6994C179.224 22.8184 178.913 22.9606 178.614 23.1249L177.896 23.524C177.68 23.6539 177.43 23.7185 177.178 23.7102C176.972 23.7168 176.768 23.6611 176.594 23.5505C176.445 23.4324 176.319 23.2882 176.222 23.1249L175.611 22.0884C177.146 20.6586 179.174 19.8778 181.272 19.9093C182.008 19.898 182.74 20.0336 183.424 20.3083C184.018 20.556 184.553 20.9274 184.992 21.3979C185.434 21.8857 185.777 22.4545 186.002 23.0727C186.222 23.7597 186.33 24.4776 186.321 25.1989V31.2245L187.039 31.3578L187.335 31.4083ZM183.136 28.0064C182.335 27.9905 181.533 28.0529 180.744 28.1926C180.206 28.2977 179.681 28.4581 179.176 28.6712C178.845 28.8 178.557 29.0213 178.348 29.3087C178.154 29.6336 178.075 30.0142 178.123 30.3895C178.171 30.7648 178.344 31.1131 178.614 31.3785C179.007 31.6378 179.472 31.7677 179.943 31.7502C180.255 31.7514 180.566 31.7237 180.873 31.6674C181.164 31.6189 181.444 31.52 181.701 31.3752C181.951 31.242 182.191 31.0909 182.419 30.9231C182.671 30.7251 182.91 30.5122 183.137 30.2856L183.136 28.0064Z" fill="#2C3E50"/>
<path d="M67.3071 45.8692L66.3136 43.2869C66.2838 43.2101 66.2529 43.1216 66.2209 43.0211C66.1889 42.9207 66.158 42.8103 66.1281 42.69C66.0777 42.8931 66.0141 43.0928 65.9377 43.2877L64.9442 45.8659L67.3071 45.8692ZM69.0971 48.2254H68.4348C68.3678 48.2286 68.3018 48.2081 68.2485 48.1675C68.2011 48.1286 68.1646 48.0781 68.1425 48.0209L67.5489 46.4885H64.7008L64.1072 48.0209C64.0874 48.0769 64.0521 48.126 64.0054 48.1625C63.9527 48.2048 63.8866 48.2268 63.8191 48.2246H63.1567L65.6952 41.8769H66.5636L69.0971 48.2254ZM74.8743 44.5354C74.8544 44.5639 74.8305 44.5893 74.8031 44.6107C74.7743 44.63 74.74 44.6393 74.7055 44.6372C74.6525 44.6343 74.6015 44.6159 74.5589 44.5842C74.4949 44.539 74.4282 44.4976 74.3594 44.4601C74.268 44.4098 74.1714 44.3698 74.0712 44.3408C73.9373 44.2993 73.7975 44.2797 73.6573 44.2829C73.456 44.2786 73.2563 44.3193 73.0728 44.4021C72.9055 44.4779 72.7594 44.5936 72.6472 44.739C72.5287 44.8999 72.4416 45.0816 72.3906 45.2747C72.3324 45.505 72.3046 45.7418 72.3078 45.9793C72.3043 46.2245 72.3355 46.4689 72.4005 46.7054C72.4538 46.8973 72.5425 47.0776 72.6621 47.2369C72.7735 47.3769 72.915 47.4901 73.0761 47.5681C73.2476 47.6439 73.4334 47.6817 73.6209 47.679C73.7816 47.6838 73.942 47.6614 74.0953 47.6128C74.2031 47.5739 74.3057 47.5219 74.4008 47.458C74.4836 47.4028 74.5515 47.3525 74.6044 47.3073C74.6493 47.2644 74.7081 47.2392 74.77 47.2361C74.7995 47.2348 74.8288 47.241 74.8552 47.2542C74.8815 47.2674 74.9041 47.2871 74.9207 47.3114L75.1426 47.5995C75.0478 47.7185 74.9362 47.8231 74.8114 47.91C74.6853 47.9967 74.5501 48.0695 74.4082 48.1269C74.2639 48.1838 74.1141 48.2254 73.9611 48.2511C73.803 48.2778 73.6429 48.2911 73.4826 48.2908C73.2134 48.2932 72.9466 48.2405 72.6986 48.136C72.4608 48.0336 72.2478 47.8811 72.0743 47.689C71.8897 47.4766 71.749 47.2298 71.6603 46.9628C71.5554 46.6475 71.5044 46.3166 71.5097 45.9842C71.5067 45.6704 71.5531 45.3581 71.6471 45.0586C71.733 44.7903 71.8715 44.5418 72.0544 44.3276C72.2367 44.1196 72.463 43.9547 72.7168 43.8449C73.0029 43.7251 73.3108 43.6662 73.6209 43.6718C73.9062 43.6659 74.1896 43.7186 74.4537 43.8267C74.6943 43.9259 74.9126 44.072 75.0962 44.2564L74.8743 44.5354ZM81.1533 44.5354C81.1335 44.5639 81.1095 44.5893 81.0821 44.6107C81.0533 44.63 81.019 44.6393 80.9844 44.6372C80.9314 44.6343 80.8804 44.6159 80.8379 44.5842C80.7738 44.539 80.7072 44.4976 80.6383 44.4601C80.547 44.4098 80.4504 44.3698 80.3502 44.3408C80.2163 44.2993 80.0765 44.2797 79.9363 44.2829C79.735 44.2786 79.5353 44.3193 79.3518 44.4021C79.1845 44.4779 79.0384 44.5936 78.9262 44.739C78.8077 44.8999 78.7206 45.0816 78.6695 45.2747C78.6114 45.505 78.5835 45.7418 78.5867 45.9793C78.5832 46.2245 78.6145 46.4689 78.6795 46.7054C78.7328 46.8973 78.8215 47.0776 78.9411 47.2369C79.0525 47.3769 79.194 47.4901 79.3551 47.5681C79.5266 47.6439 79.7124 47.6817 79.8998 47.679C80.0603 47.6837 80.2204 47.6613 80.3734 47.6128C80.4812 47.5739 80.5838 47.5219 80.6789 47.458C80.7617 47.4028 80.8296 47.3525 80.8826 47.3073C80.9274 47.2644 80.9862 47.2392 81.0482 47.2361C81.0776 47.2348 81.1069 47.2411 81.1333 47.2543C81.1596 47.2674 81.1822 47.2871 81.1988 47.3114L81.4207 47.5995C81.3259 47.7185 81.2144 47.8231 81.0896 47.91C80.9634 47.9967 80.8282 48.0695 80.6864 48.1269C80.5421 48.1838 80.3922 48.2254 80.2393 48.2511C80.0812 48.2778 79.9211 48.2911 79.7607 48.2908C79.4916 48.2932 79.2248 48.2405 78.9767 48.136C78.7389 48.0336 78.526 47.8811 78.3525 47.689C78.1679 47.4766 78.0272 47.2298 77.9385 46.9628C77.8335 46.6475 77.7826 46.3166 77.7878 45.9842C77.7849 45.6704 77.8313 45.3581 77.9252 45.0586C78.0111 44.7903 78.1496 44.5418 78.3326 44.3276C78.5149 44.1196 78.7411 43.9547 78.9949 43.8449C79.281 43.7251 79.5889 43.6662 79.899 43.6718C80.1843 43.6659 80.4678 43.7186 80.7319 43.8267C80.9724 43.9259 81.1908 44.072 81.3744 44.2564L81.1533 44.5354ZM87.3131 45.4925C87.3137 45.3234 87.2857 45.1554 87.2303 44.9957C87.1843 44.8496 87.1071 44.7151 87.0042 44.6016C86.9064 44.4892 86.7837 44.4013 86.6458 44.345C86.493 44.2809 86.3287 44.2493 86.1631 44.2522C85.9986 44.2436 85.8341 44.2685 85.6795 44.3254C85.5249 44.3823 85.3835 44.4701 85.264 44.5834C85.031 44.8335 84.8878 45.1538 84.8566 45.4941L87.3131 45.4925ZM87.9506 47.5962C87.8503 47.717 87.7322 47.8217 87.6004 47.9067C87.4623 47.9935 87.3152 48.0648 87.1616 48.1195C87.0064 48.176 86.8461 48.2176 86.683 48.2436C86.5207 48.2728 86.3561 48.2874 86.1912 48.2875C85.8976 48.2906 85.606 48.2381 85.3318 48.1327C85.0757 48.0291 84.8446 47.8722 84.6538 47.6724C84.4562 47.4542 84.3054 47.1978 84.2108 46.919C84.0992 46.5882 84.0452 46.2406 84.0511 45.8915C84.0486 45.5934 84.0964 45.297 84.1926 45.0147C84.2824 44.7547 84.4231 44.5152 84.6066 44.3102C84.7903 44.1071 85.0164 43.9468 85.2689 43.8408C85.5458 43.7221 85.8445 43.6631 86.1457 43.6677C86.4006 43.665 86.6536 43.7117 86.8908 43.8052C87.1151 43.8897 87.3178 44.0229 87.4845 44.1951C87.6594 44.3741 87.7938 44.5888 87.8785 44.8243C87.9771 45.0968 88.0251 45.3849 88.0201 45.6746C88.0276 45.7594 88.014 45.8448 87.9804 45.923C87.9627 45.9455 87.9396 45.963 87.9132 45.9739C87.8868 45.9847 87.858 45.9886 87.8297 45.9851H84.8309C84.8345 46.236 84.8732 46.4851 84.946 46.7252C85.0077 46.9186 85.107 47.0978 85.2383 47.2526C85.3601 47.3899 85.5116 47.4975 85.6812 47.5672C85.8661 47.6379 86.0629 47.6724 86.2608 47.6691C86.4329 47.6726 86.6045 47.6503 86.77 47.6028C86.8976 47.5625 87.0219 47.5121 87.1417 47.4522C87.2296 47.4076 87.3153 47.3587 87.3983 47.3056C87.4508 47.2651 87.5137 47.2404 87.5797 47.2344C87.6091 47.2332 87.6384 47.2394 87.6647 47.2526C87.6911 47.2658 87.7137 47.2855 87.7303 47.3098L87.9506 47.5962ZM91.9312 41.7006V48.2254H91.1431V41.7006H91.9312ZM98.3394 45.4925C98.3401 45.3234 98.3121 45.1554 98.2566 44.9957C98.2106 44.8496 98.1335 44.7151 98.0306 44.6016C97.9327 44.4892 97.81 44.4013 97.6721 44.345C97.5193 44.2809 97.3549 44.2493 97.1894 44.2522C97.0249 44.2436 96.8603 44.2685 96.7058 44.3254C96.5512 44.3823 96.4098 44.4701 96.2902 44.5834C96.0573 44.8335 95.914 45.1538 95.8829 45.4941L98.3394 45.4925ZM98.9777 47.5962C98.8774 47.717 98.7593 47.8217 98.6275 47.9067C98.4894 47.9934 98.3423 48.0648 98.1887 48.1195C98.0335 48.176 97.8732 48.2176 97.7101 48.2436C97.5478 48.2728 97.3832 48.2874 97.2183 48.2875C96.9247 48.2906 96.6331 48.2381 96.359 48.1327C96.1028 48.0291 95.8717 47.8722 95.6809 47.6724C95.4833 47.4542 95.3325 47.1978 95.238 46.919C95.1263 46.5882 95.0723 46.2406 95.0782 45.8915C95.0757 45.5934 95.1235 45.297 95.2197 45.0147C95.3095 44.7547 95.4503 44.5152 95.6337 44.3102C95.8174 44.1071 96.0436 43.9468 96.2961 43.8408C96.5729 43.7221 96.8716 43.6631 97.1728 43.6677C97.4277 43.665 97.6808 43.7117 97.9179 43.8052C98.1422 43.8898 98.3449 44.0229 98.5116 44.1951C98.6866 44.3741 98.821 44.5888 98.9057 44.8243C99.0042 45.0968 99.0522 45.3849 99.0472 45.6746C99.0548 45.7594 99.0411 45.8448 99.0075 45.923C98.9899 45.9455 98.9667 45.963 98.9403 45.9739C98.9139 45.9847 98.8851 45.9886 98.8568 45.9851H95.8581C95.8616 46.236 95.9004 46.4851 95.9731 46.7252C96.0348 46.9186 96.1341 47.0979 96.2654 47.2526C96.3871 47.3899 96.5387 47.4975 96.7083 47.5672C96.8933 47.6379 97.09 47.6724 97.2879 47.6691C97.46 47.6726 97.6316 47.6503 97.7971 47.6028C97.9247 47.5625 98.049 47.5121 98.1688 47.4522C98.2568 47.4077 98.3424 47.3587 98.4255 47.3056C98.4779 47.2651 98.5408 47.2404 98.6068 47.2344C98.6362 47.2331 98.6655 47.2393 98.6919 47.2525C98.7183 47.2657 98.7408 47.2854 98.7575 47.3098L98.9777 47.5962ZM102.892 44.6372C103.01 44.3619 103.189 44.1165 103.415 43.9194C103.627 43.7431 103.896 43.65 104.172 43.6578C104.263 43.6573 104.354 43.6676 104.442 43.6884C104.525 43.7069 104.605 43.74 104.677 43.7861L104.619 44.3756C104.615 44.4076 104.599 44.4368 104.574 44.4574C104.55 44.4781 104.518 44.4885 104.486 44.4865C104.425 44.4838 104.364 44.475 104.305 44.4601C104.216 44.4415 104.125 44.4326 104.035 44.4335C103.905 44.4316 103.776 44.4526 103.654 44.4957C103.544 44.5377 103.443 44.601 103.357 44.6819C103.265 44.7704 103.186 44.8719 103.122 44.9833C103.049 45.1135 102.986 45.2498 102.936 45.3906V48.2254H102.143V43.7381H102.595C102.658 43.7311 102.721 43.7486 102.772 43.7869C102.81 43.8341 102.834 43.8919 102.838 43.9525L102.892 44.6372ZM109.86 46.2053C109.548 46.2121 109.237 46.2417 108.929 46.2939C108.715 46.3268 108.505 46.3864 108.305 46.4711C108.168 46.5276 108.048 46.6175 107.955 46.7327C107.885 46.831 107.848 46.9489 107.849 47.0696C107.846 47.1744 107.866 47.2785 107.906 47.3752C107.941 47.4567 107.994 47.5293 108.061 47.5879C108.131 47.6424 108.211 47.6831 108.296 47.708C108.391 47.7321 108.49 47.7441 108.588 47.7436C108.716 47.7448 108.844 47.7314 108.969 47.7039C109.082 47.6754 109.19 47.6337 109.293 47.5796C109.396 47.5263 109.494 47.4625 109.585 47.3892C109.683 47.3136 109.775 47.2305 109.86 47.1408V46.2053ZM107.313 44.3714C107.544 44.1439 107.816 43.9621 108.115 43.8358C108.417 43.7146 108.741 43.6544 109.067 43.6586C109.296 43.6545 109.523 43.6967 109.736 43.7828C109.923 43.8601 110.091 43.978 110.228 44.1281C110.365 44.2832 110.468 44.4658 110.529 44.6637C110.599 44.8874 110.633 45.1207 110.631 45.355V48.2254H110.284C110.223 48.2288 110.162 48.2165 110.107 48.1898C110.058 48.1523 110.023 48.0991 110.009 48.0392L109.92 47.6136C109.802 47.724 109.687 47.8214 109.575 47.9059C109.464 47.9879 109.345 48.0592 109.221 48.1186C109.093 48.1759 108.959 48.2189 108.822 48.247C108.669 48.281 108.513 48.2974 108.356 48.2958C108.19 48.2968 108.024 48.2728 107.865 48.2246C107.717 48.1776 107.58 48.1022 107.461 48.0027C107.346 47.9009 107.254 47.7755 107.192 47.6351C107.123 47.4665 107.09 47.2856 107.094 47.1036C107.095 46.9236 107.145 46.7474 107.24 46.5944C107.358 46.4098 107.521 46.2586 107.715 46.1556C107.983 46.0101 108.271 45.9055 108.57 45.8451C108.995 45.7541 109.428 45.7067 109.863 45.7036V45.3534C109.884 45.0722 109.804 44.7928 109.637 44.5652C109.555 44.4726 109.452 44.4001 109.337 44.3533C109.223 44.3065 109.099 44.2867 108.975 44.2953C108.808 44.2909 108.641 44.3164 108.483 44.3706C108.364 44.4133 108.249 44.4688 108.142 44.5362C108.048 44.5953 107.965 44.6505 107.894 44.7018C107.835 44.7461 107.764 44.771 107.69 44.773C107.641 44.7743 107.593 44.7605 107.552 44.7333C107.514 44.7039 107.481 44.668 107.455 44.6273L107.313 44.3714ZM115.275 48.2967C115.126 48.3063 114.976 48.285 114.835 48.234C114.694 48.183 114.565 48.1034 114.456 48.0003C114.253 47.7633 114.151 47.4562 114.173 47.145V44.3988H113.632C113.589 44.4001 113.547 44.386 113.513 44.359C113.496 44.3417 113.482 44.3209 113.474 44.2981C113.466 44.2752 113.462 44.2509 113.464 44.2266V43.912L114.199 43.8192L114.38 42.4325C114.388 42.3917 114.408 42.3545 114.438 42.3265C114.472 42.2961 114.517 42.2801 114.563 42.2818H114.962V43.8275H116.26V44.3988H114.962V47.092C114.955 47.1677 114.964 47.2439 114.988 47.3161C115.012 47.3883 115.049 47.4551 115.099 47.5126C115.146 47.5584 115.201 47.5943 115.262 47.6179C115.323 47.6416 115.388 47.6525 115.453 47.65C115.526 47.6515 115.597 47.6409 115.666 47.6186C115.721 47.5982 115.775 47.5729 115.826 47.5432C115.87 47.5167 115.907 47.493 115.937 47.472C115.96 47.4521 115.989 47.4397 116.02 47.4364C116.043 47.4383 116.066 47.4463 116.085 47.4595C116.105 47.4727 116.12 47.4907 116.131 47.5118L116.361 47.8885C116.218 48.0198 116.051 48.1222 115.869 48.1898C115.679 48.2606 115.477 48.2968 115.275 48.2967H115.275ZM122.177 45.4925C122.178 45.3234 122.15 45.1554 122.094 44.9957C122.048 44.8496 121.971 44.7151 121.868 44.6016C121.77 44.4893 121.648 44.4014 121.51 44.345C121.357 44.2809 121.193 44.2494 121.027 44.2522C120.862 44.2436 120.698 44.2685 120.543 44.3254C120.389 44.3823 120.247 44.4701 120.128 44.5834C119.895 44.8335 119.752 45.1538 119.721 45.4941L122.177 45.4925ZM122.814 47.5962C122.714 47.717 122.596 47.8217 122.464 47.9067C122.326 47.9934 122.179 48.0648 122.025 48.1195C121.87 48.176 121.71 48.2176 121.547 48.2436C121.385 48.2728 121.22 48.2874 121.055 48.2875C120.761 48.2906 120.47 48.2381 120.196 48.1327C119.94 48.0291 119.708 47.8722 119.518 47.6724C119.32 47.4542 119.169 47.1978 119.075 46.919C118.963 46.5882 118.909 46.2406 118.915 45.8915C118.912 45.5934 118.96 45.297 119.057 45.0147C119.146 44.7547 119.287 44.5152 119.47 44.3102C119.654 44.1071 119.88 43.9468 120.133 43.8408C120.41 43.7221 120.708 43.6631 121.01 43.6677C121.265 43.665 121.518 43.7117 121.755 43.8052C121.979 43.8897 122.182 44.0229 122.348 44.1951C122.523 44.374 122.658 44.5887 122.742 44.8243C122.841 45.0968 122.889 45.3849 122.884 45.6746C122.892 45.7594 122.878 45.8448 122.844 45.923C122.827 45.9455 122.803 45.963 122.777 45.9739C122.751 45.9847 122.722 45.9886 122.694 45.9851H119.695C119.698 46.236 119.737 46.4851 119.81 46.7252C119.872 46.9186 119.971 47.0978 120.102 47.2526C120.224 47.3899 120.375 47.4975 120.545 47.5672C120.73 47.6379 120.927 47.6724 121.125 47.6691C121.297 47.6726 121.468 47.6503 121.634 47.6028C121.761 47.5625 121.886 47.5121 122.006 47.4522C122.094 47.4077 122.179 47.3588 122.262 47.3056C122.315 47.2651 122.378 47.2404 122.444 47.2344C122.473 47.2332 122.502 47.2394 122.529 47.2526C122.555 47.2658 122.578 47.2855 122.594 47.3098L122.814 47.5962ZM128.904 44.8053C128.782 44.6287 128.618 44.4861 128.425 44.3913C128.243 44.3092 128.045 44.2684 127.846 44.2721C127.661 44.2624 127.477 44.2981 127.31 44.376C127.142 44.454 126.996 44.5718 126.885 44.7192C126.637 45.0969 126.519 45.5445 126.548 45.995C126.543 46.2482 126.569 46.501 126.623 46.7484C126.663 46.9324 126.739 47.107 126.845 47.2626C126.936 47.3903 127.06 47.4913 127.203 47.5548C127.356 47.6189 127.52 47.6504 127.686 47.6475C127.924 47.6534 128.159 47.592 128.364 47.4704C128.573 47.3403 128.754 47.1717 128.9 46.9736L128.904 44.8053ZM129.692 41.6997V48.2246H129.223C129.173 48.2283 129.124 48.2133 129.084 48.1827C129.045 48.1521 129.018 48.1081 129.01 48.059L128.939 47.5143C128.755 47.7376 128.533 47.9265 128.283 48.0723C128.023 48.2177 127.73 48.2912 127.433 48.2851C127.191 48.2882 126.953 48.2382 126.733 48.1385C126.522 48.037 126.338 47.8866 126.196 47.6997C126.038 47.4846 125.922 47.2409 125.855 46.9819C125.771 46.6595 125.731 46.3273 125.736 45.9942C125.733 45.6821 125.778 45.3714 125.869 45.0727C125.948 44.8029 126.078 44.5502 126.249 44.3276C126.412 44.12 126.62 43.9519 126.856 43.8358C127.11 43.7123 127.389 43.6501 127.671 43.6545C127.914 43.6477 128.154 43.6961 128.376 43.7961C128.575 43.8885 128.754 44.0193 128.903 44.181V41.6973L129.692 41.6997ZM140.72 45.8683L139.726 43.2861C139.697 43.2093 139.666 43.1207 139.634 43.0203C139.601 42.9198 139.57 42.8094 139.541 42.6891C139.491 42.8923 139.427 43.0919 139.351 43.2869L138.357 45.865L140.72 45.8683ZM142.51 48.2246H141.848C141.781 48.2278 141.715 48.2072 141.661 48.1667C141.614 48.1279 141.577 48.0774 141.555 48.0201L140.961 46.4876H138.113L137.519 48.0201C137.499 48.0761 137.464 48.1252 137.417 48.1617C137.365 48.2039 137.299 48.226 137.231 48.2238H136.569L139.107 41.8761H139.976L142.51 48.2246ZM146.012 44.388C146.107 44.281 146.211 44.1819 146.323 44.0916C146.429 44.0045 146.545 43.9287 146.668 43.8656C146.791 43.8007 146.922 43.7515 147.058 43.719C147.204 43.6828 147.354 43.665 147.505 43.6661C147.727 43.6616 147.947 43.7039 148.151 43.7902C148.334 43.8651 148.495 43.9837 148.621 44.1355C148.753 44.2922 148.851 44.4746 148.909 44.6712C148.976 44.8967 149.009 45.1312 149.007 45.3666V48.2238H148.213V45.3658C148.231 45.0835 148.148 44.8041 147.978 44.5776C147.891 44.4793 147.782 44.4025 147.659 44.3534C147.537 44.3043 147.405 44.2841 147.274 44.2945C147.045 44.2926 146.819 44.3496 146.618 44.4601C146.408 44.5799 146.219 44.7341 146.06 44.9162V48.2205H145.267V43.7331H145.741C145.791 43.7292 145.839 43.7442 145.878 43.7749C145.916 43.8056 145.942 43.8499 145.949 43.8987L146.012 44.388ZM154.767 46.2045C154.455 46.2112 154.144 46.2408 153.836 46.2931C153.621 46.326 153.412 46.3855 153.212 46.4702C153.075 46.5267 152.954 46.6167 152.861 46.7319C152.791 46.8301 152.754 46.9481 152.755 47.0688C152.753 47.1736 152.773 47.2777 152.813 47.3743C152.849 47.4558 152.902 47.5285 152.968 47.5871C153.038 47.6416 153.118 47.6823 153.203 47.7072C153.299 47.7313 153.397 47.7433 153.496 47.7428C153.624 47.7439 153.751 47.7306 153.877 47.703C153.989 47.6746 154.098 47.6329 154.2 47.5788C154.304 47.5255 154.402 47.4617 154.492 47.3884C154.59 47.3128 154.682 47.2298 154.767 47.14L154.767 46.2045ZM152.219 44.3706C152.45 44.143 152.722 43.9612 153.021 43.835C153.324 43.7138 153.647 43.6535 153.973 43.6578C154.202 43.6537 154.43 43.6959 154.642 43.782C154.83 43.8593 154.998 43.9772 155.134 44.1272C155.271 44.2824 155.374 44.465 155.435 44.6629C155.505 44.8866 155.54 45.1198 155.537 45.3542V48.2246H155.187C155.126 48.2279 155.065 48.2157 155.01 48.189C154.961 48.1515 154.926 48.0983 154.912 48.0383L154.824 47.6128C154.706 47.7232 154.59 47.8206 154.478 47.905C154.367 47.9871 154.249 48.0583 154.124 48.1178C153.996 48.1751 153.862 48.2181 153.725 48.2461C153.572 48.2802 153.416 48.2966 153.26 48.295C153.093 48.296 152.927 48.272 152.768 48.2238C152.62 48.1768 152.483 48.1014 152.365 48.0019C152.25 47.9001 152.157 47.7747 152.095 47.6343C152.026 47.4656 151.993 47.2848 151.997 47.1028C151.998 46.9228 152.049 46.7466 152.144 46.5936C152.261 46.409 152.425 46.2579 152.618 46.1548C152.886 46.0093 153.174 45.9047 153.473 45.8443C153.898 45.7533 154.332 45.7059 154.767 45.7027V45.3526C154.787 45.0714 154.707 44.792 154.54 44.5644C154.458 44.4717 154.355 44.3993 154.241 44.3525C154.126 44.3057 154.002 44.2858 153.878 44.2945C153.711 44.29 153.544 44.3155 153.386 44.3698C153.267 44.4125 153.153 44.468 153.045 44.5354C152.951 44.5944 152.868 44.6496 152.797 44.701C152.738 44.7452 152.667 44.7701 152.593 44.7722C152.544 44.7735 152.496 44.7596 152.456 44.7324C152.417 44.703 152.384 44.6671 152.358 44.6265L152.219 44.3706ZM159.679 41.6997V48.2246H158.891V41.6997H159.679ZM166.956 43.7373L164.453 49.5493C164.43 49.6035 164.395 49.6518 164.351 49.6909C164.3 49.7305 164.235 49.7494 164.17 49.7439H163.586L164.405 47.963L162.553 43.7406H163.235C163.293 43.737 163.351 43.756 163.395 43.7936C163.433 43.8219 163.461 43.8604 163.478 43.9045L164.678 46.731C164.727 46.8583 164.766 46.9886 164.798 47.121C164.839 46.9825 164.883 46.8511 164.931 46.7269L166.096 43.9053C166.113 43.859 166.144 43.8189 166.184 43.7902C166.227 43.7584 166.278 43.7412 166.331 43.7414L166.956 43.7373ZM173.943 48.2246H173.155V44.3971H170.842V47.0904C170.836 47.1661 170.845 47.2422 170.869 47.3145C170.892 47.3867 170.93 47.4535 170.98 47.5109C171.026 47.5568 171.082 47.5926 171.143 47.6163C171.204 47.6399 171.269 47.6508 171.334 47.6484C171.406 47.6499 171.478 47.6392 171.547 47.6169C171.602 47.5965 171.656 47.5713 171.707 47.5416C171.751 47.5151 171.788 47.4913 171.818 47.4704C171.841 47.4504 171.87 47.438 171.9 47.4348C171.924 47.4367 171.946 47.4446 171.966 47.4578C171.985 47.471 172.001 47.489 172.011 47.5101L172.242 47.8868C172.099 48.0182 171.932 48.1206 171.75 48.1882C171.56 48.2586 171.359 48.2945 171.156 48.2942C171.006 48.3039 170.856 48.2826 170.715 48.2316C170.574 48.1806 170.445 48.101 170.336 47.9978C170.134 47.7608 170.032 47.4537 170.053 47.1425V44.3963H169.513C169.469 44.3976 169.427 44.3835 169.393 44.3566C169.376 44.3392 169.363 44.3185 169.355 44.2956C169.346 44.2728 169.343 44.2484 169.345 44.2241V43.9095L170.08 43.8118L170.261 42.43C170.268 42.3892 170.289 42.352 170.319 42.324C170.353 42.2937 170.398 42.2776 170.443 42.2793H170.842V43.825H173.943V48.2246ZM174.137 42.2975C174.138 42.3726 174.121 42.4467 174.089 42.5144C174.059 42.5797 174.017 42.6385 173.964 42.6874C173.913 42.738 173.853 42.7784 173.787 42.8067C173.719 42.8359 173.645 42.8509 173.57 42.8509C173.496 42.8509 173.422 42.8359 173.353 42.8067C173.224 42.7479 173.12 42.6441 173.061 42.5144C173.032 42.4458 173.017 42.3721 173.017 42.2975C173.017 42.223 173.032 42.1492 173.061 42.0806C173.089 42.0129 173.129 41.9513 173.18 41.8993C173.229 41.8469 173.288 41.8047 173.353 41.7751C173.456 41.7307 173.569 41.7187 173.678 41.741C173.788 41.7632 173.888 41.8184 173.964 41.8993C174.018 41.9502 174.06 42.012 174.089 42.0806C174.122 42.1498 174.139 42.2257 174.137 42.3025V42.2975ZM180.487 44.5329C180.467 44.5614 180.443 44.5868 180.416 44.6082C180.387 44.6274 180.352 44.6367 180.318 44.6347C180.265 44.6319 180.214 44.6134 180.171 44.5818C180.107 44.5365 180.041 44.495 179.972 44.4576C179.88 44.4073 179.784 44.3673 179.684 44.3383C179.55 44.2968 179.41 44.2772 179.27 44.2804C179.068 44.2761 178.869 44.3168 178.685 44.3996C178.518 44.4755 178.372 44.5912 178.26 44.7366C178.141 44.8974 178.054 45.0791 178.003 45.2722C177.945 45.5025 177.917 45.7394 177.92 45.9768C177.917 46.222 177.948 46.4664 178.013 46.7029C178.066 46.8948 178.155 47.0751 178.275 47.2344C178.386 47.3744 178.527 47.4876 178.689 47.5656C178.86 47.6413 179.046 47.6792 179.233 47.6765C179.394 47.6813 179.554 47.6589 179.708 47.6103C179.816 47.5714 179.918 47.5194 180.013 47.4555C180.096 47.4003 180.164 47.35 180.217 47.3048C180.262 47.2619 180.321 47.2367 180.382 47.2336C180.412 47.2323 180.441 47.2386 180.468 47.2518C180.494 47.265 180.516 47.2846 180.533 47.3089L180.755 47.5971C180.66 47.716 180.549 47.8206 180.424 47.9075C180.298 47.9942 180.163 48.067 180.021 48.1244C179.876 48.1813 179.727 48.2229 179.574 48.2486C179.415 48.2753 179.255 48.2886 179.095 48.2884C178.826 48.2907 178.559 48.238 178.311 48.1335C178.073 48.0311 177.86 47.8786 177.687 47.6865C177.502 47.4742 177.361 47.2274 177.273 46.9604C177.168 46.645 177.117 46.3141 177.122 45.9818C177.119 45.6679 177.166 45.3556 177.26 45.0562C177.345 44.7878 177.484 44.5393 177.667 44.3251C177.849 44.1171 178.075 43.9522 178.329 43.8424C178.615 43.7226 178.923 43.6637 179.233 43.6694C179.519 43.6634 179.802 43.7161 180.066 43.8242C180.307 43.9235 180.525 44.0695 180.709 44.2539L180.487 44.5329ZM186.334 44.4749C186.319 44.5056 186.296 44.5312 186.266 44.5486C186.237 44.566 186.203 44.5743 186.169 44.5726C186.115 44.5698 186.063 44.5529 186.018 44.5238C185.963 44.4912 185.894 44.4559 185.81 44.4178C185.718 44.3716 185.622 44.3344 185.522 44.3069C185.393 44.2691 185.258 44.2512 185.123 44.2539C185.002 44.2522 184.881 44.2701 184.765 44.3069C184.666 44.3357 184.572 44.3823 184.49 44.4443C184.418 44.5006 184.359 44.5714 184.317 44.6521C184.278 44.7293 184.259 44.8143 184.259 44.9005C184.255 45.0052 184.29 45.1077 184.357 45.1886C184.432 45.2711 184.522 45.3388 184.622 45.3882C184.742 45.4485 184.866 45.4989 184.994 45.5388C185.133 45.5802 185.274 45.626 185.42 45.6763C185.565 45.7265 185.708 45.7798 185.849 45.8361C185.983 45.8923 186.108 45.967 186.221 46.0579C186.331 46.148 186.42 46.261 186.483 46.3891C186.554 46.5318 186.589 46.6899 186.584 46.8494C186.587 47.0481 186.549 47.2452 186.474 47.429C186.398 47.6038 186.285 47.7597 186.142 47.8852C185.986 48.0188 185.806 48.1211 185.611 48.1865C185.376 48.2643 185.131 48.3018 184.884 48.2975C184.593 48.3015 184.305 48.2504 184.034 48.1468C183.797 48.054 183.578 47.9206 183.387 47.7527L183.573 47.4513C183.594 47.4159 183.622 47.3856 183.656 47.3627C183.694 47.3408 183.737 47.3302 183.78 47.3321C183.84 47.3355 183.898 47.3572 183.946 47.3942C184.005 47.4356 184.076 47.4814 184.159 47.5316C184.257 47.5876 184.361 47.6337 184.469 47.6691C184.615 47.7141 184.768 47.7351 184.921 47.7312C185.058 47.7336 185.194 47.714 185.324 47.6732C185.43 47.6369 185.528 47.5807 185.612 47.5076C185.685 47.4434 185.742 47.3628 185.778 47.2725C185.817 47.1831 185.836 47.0867 185.836 46.9894C185.84 46.8785 185.804 46.7699 185.734 46.6838C185.663 46.5964 185.574 46.5255 185.473 46.476C185.353 46.4127 185.226 46.3622 185.096 46.3254L184.666 46.1879C184.522 46.1404 184.378 46.0872 184.236 46.0281C184.102 45.9691 183.977 45.8916 183.864 45.798C183.753 45.7048 183.663 45.5902 183.598 45.461C183.529 45.3064 183.496 45.1384 183.5 44.9692C183.5 44.7966 183.537 44.626 183.608 44.4689C183.68 44.3118 183.784 44.1718 183.914 44.0585C184.06 43.9315 184.229 43.8337 184.411 43.7704C184.629 43.6963 184.859 43.6605 185.089 43.6644C185.36 43.6599 185.63 43.708 185.882 43.806C186.109 43.8916 186.317 44.021 186.493 44.1868L186.334 44.4749Z" fill="#86888F"/>
<path fill-rule="evenodd" clip-rule="evenodd" d="M17.6495 55.4929L40.7908 32.3516H12.9204L38.8402 6.43174C35.5817 4.78551 32.0209 3.82319 28.3767 3.60397C24.7325 3.38475 21.082 3.91325 17.6496 5.15698C14.2172 6.40071 11.0755 8.3334 8.41767 10.8362C5.75981 13.339 3.64197 16.3589 2.19437 19.7104C0.746775 23.0619 6.778e-06 26.6741 0 30.3249C-6.77791e-06 33.9756 0.746737 37.5878 2.19432 40.9394C3.64191 44.2909 5.75974 47.3108 8.4176 49.8136C11.0754 52.3164 14.2171 54.2491 17.6495 55.4929Z" fill="#56DCE8"/>
<path fill-rule="evenodd" clip-rule="evenodd" d="M34.9538 5.03516L11.8125 28.1764H39.6829L13.7631 54.0963C17.0216 55.7425 20.5825 56.7048 24.2266 56.924C27.8708 57.1433 31.5213 56.6148 34.9537 55.371C38.3861 54.1273 41.5278 52.1946 44.1857 49.6918C46.8435 47.1891 48.9614 44.1691 50.409 40.8176C51.8566 37.4661 52.6033 33.8539 52.6033 30.2031C52.6033 26.5524 51.8566 22.9402 50.409 19.5887C48.9614 16.2371 46.8436 13.2172 44.1857 10.7144C41.5279 8.21159 38.3862 6.2789 34.9538 5.03516Z" fill="#2C3E50"/>
<path d="M16.6111 52.2844L38.7597 30.1357" stroke="white" stroke-width="8" stroke-linecap="round"/>
<path d="M14.9502 30.1367H38.9451" stroke="white" stroke-width="8" stroke-linecap="round"/>
<path d="M14.7661 30.1359L36.9147 7.9873" stroke="white" stroke-width="8" stroke-linecap="round"/>
<path d="M36.9144 11.1258C38.6474 11.1258 40.0523 9.72091 40.0523 7.98793C40.0523 6.25495 38.6474 4.8501 36.9144 4.8501C35.1815 4.8501 33.7766 6.25495 33.7766 7.98793C33.7766 9.72091 35.1815 11.1258 36.9144 11.1258Z" fill="#34A853" stroke="white" stroke-width="3"/>
<path d="M41.3133 2.03127C41.4697 1.98948 41.6344 1.98958 41.7908 2.03155C41.9472 2.07352 42.0898 2.15587 42.2043 2.27037C42.3188 2.38487 42.4012 2.52748 42.4431 2.68387C42.4851 2.84027 42.4852 3.00494 42.4434 3.16138L39.7941 13.0435C39.7521 13.1999 39.6697 13.3426 39.5552 13.4572C39.4406 13.5717 39.2979 13.6541 39.1415 13.696C38.985 13.738 38.8203 13.738 38.6638 13.6961C38.5073 13.6543 38.3646 13.5719 38.25 13.4574L31.0164 6.22387C30.9019 6.10927 30.8196 5.96657 30.7777 5.81009C30.7358 5.6536 30.7359 5.48885 30.7778 5.33238C30.8198 5.17591 30.9021 5.03325 31.0167 4.9187C31.1312 4.80415 31.2739 4.72176 31.4304 4.6798L41.3133 2.03127Z" fill="#21D885" stroke="white" stroke-width="3"/>
<path d="M40.6066 33.6443C42.7474 33.6443 44.4829 31.9088 44.4829 29.7679C44.4829 27.6271 42.7474 25.8916 40.6066 25.8916C38.4657 25.8916 36.7302 27.6271 36.7302 29.7679C36.7302 31.9088 38.4657 33.6443 40.6066 33.6443Z" fill="#01C3FF" stroke="white" stroke-width="3"/>
<path d="M14.7655 33.6443C16.9063 33.6443 18.6418 31.9088 18.6418 29.7679C18.6418 27.6271 16.9063 25.8916 14.7655 25.8916C12.6247 25.8916 10.8892 27.6271 10.8892 29.7679C10.8892 31.9088 12.6247 33.6443 14.7655 33.6443Z" fill="#FBBC05" stroke="white" stroke-width="3"/>
<path d="M16.6122 55.425C18.753 55.425 20.4885 53.6895 20.4885 51.5487C20.4885 49.4079 18.753 47.6724 16.6122 47.6724C14.4713 47.6724 12.7358 49.4079 12.7358 51.5487C12.7358 53.6895 14.4713 55.425 16.6122 55.425Z" fill="#F87306" stroke="white" stroke-width="3"/>
</svg>
