<svg width="216" height="65" viewBox="0 0 216 65" fill="none" xmlns="http://www.w3.org/2000/svg">
<path d="M87.1952 29.248C87.5089 29.9887 87.6544 30.7898 87.6213 31.5935C87.6187 32.5411 87.4431 33.4804 87.1032 34.365C86.7789 35.2267 86.2694 36.0067 85.6107 36.6498C84.9255 37.3221 84.1053 37.8412 83.2045 38.1727C82.1727 38.5552 81.0785 38.7412 79.9784 38.7211H79.5211C77.3704 38.6815 75.2406 38.2904 73.2161 37.5636V31.8981H74.9524C75.1173 31.8819 75.282 31.9299 75.4124 32.032C75.5428 32.1342 75.6288 32.2826 75.6527 32.4465C75.7159 32.7103 75.8073 33.5531 75.9269 34.9751C77.2943 35.2946 78.6987 35.4277 80.1017 35.3708C81.0746 35.4292 82.0362 35.1373 82.8126 34.5482C83.1366 34.2478 83.3899 33.8792 83.554 33.4689C83.7181 33.0587 83.7889 32.6171 83.7614 32.1761C83.7791 31.6651 83.6295 31.1624 83.3354 30.7443C83.0323 30.3474 82.6342 30.0332 82.1778 29.8305C81.663 29.5637 81.1226 29.3495 80.5648 29.191L79.8949 29.0079L78.707 28.6426C78.0756 28.4309 77.4556 28.1871 76.8492 27.912C76.2454 27.6241 75.6903 27.2438 75.2039 26.7848C74.6992 26.312 74.313 25.7269 74.0766 25.0769C73.7619 24.2716 73.6066 23.4128 73.6193 22.5482C73.6142 21.7407 73.7804 20.9413 74.107 20.2027C74.4152 19.4259 74.8941 18.7284 75.5084 18.1618C76.1722 17.5664 76.9352 17.0921 77.7629 16.7603C78.7428 16.379 79.7877 16.1927 80.839 16.2119C83.0015 16.2178 85.1425 16.6418 87.144 17.4606V23.0957H85.4076C85.24 23.1029 85.0757 23.0477 84.9463 22.9408C84.817 22.8339 84.7319 22.6829 84.7074 22.5169C84.6441 22.2329 84.5527 21.4106 84.4332 20.05C83.2874 19.6608 82.0776 19.4952 80.8694 19.5623C80.3759 19.5553 79.8838 19.6169 79.4072 19.7454C79.0166 19.8652 78.654 20.062 78.3407 20.3242C78.054 20.5646 77.825 20.8666 77.6709 21.2075C77.5184 21.5633 77.4456 21.9479 77.4574 22.3347C77.4505 22.8023 77.6129 23.2566 77.9147 23.6138C78.2248 23.9836 78.6087 24.2845 79.0419 24.4971C79.5741 24.7583 80.1239 24.9822 80.6872 25.167C80.8902 25.2303 81.5095 25.4333 82.545 25.7762C82.9714 25.9185 83.5906 26.1715 84.4028 26.5352C85.0125 26.7994 85.5697 27.171 86.0481 27.6321C86.5438 28.0806 86.9353 28.6321 87.1952 29.248ZM104.707 27.1463C105 28.249 105.143 29.3861 105.133 30.527C105.132 31.6315 104.967 32.7297 104.645 33.7862C104.377 34.7306 103.921 35.6112 103.305 36.3756C102.732 37.0866 102.016 37.6687 101.203 38.0835C100.331 38.5075 99.3702 38.7164 98.401 38.6926C97.6401 38.7176 96.8825 38.5828 96.1769 38.297C95.5551 38.0252 94.9874 37.6433 94.5013 37.1698V40.5505C94.7043 40.591 94.877 40.6226 95.0193 40.6454C95.1819 40.6858 95.3138 40.7175 95.415 40.7403C95.7401 40.7807 95.8926 40.801 95.8723 40.801L96.0555 40.8314C96.2818 40.8677 96.4859 40.9884 96.6268 41.1692C96.7676 41.35 96.8347 41.5775 96.8145 41.8058V43.5725H88.4382V41.8058C88.418 41.5775 88.4851 41.35 88.626 41.1692C88.7668 40.9884 88.971 40.8677 89.1973 40.8314L89.3804 40.801L89.8378 40.7403L90.7515 40.5571V25.8673L89.8378 25.7145C89.7359 25.6943 89.6445 25.674 89.5635 25.6538C89.5045 25.6338 89.4427 25.6236 89.3804 25.6234L89.1973 25.593C88.974 25.5607 88.7713 25.4447 88.6304 25.2686C88.4894 25.0924 88.4207 24.8692 88.4382 24.6442V22.8471H93.0382C93.2649 22.8424 93.4878 22.9062 93.6777 23.0302C93.8536 23.1517 93.974 23.338 94.0126 23.5483L94.3172 24.9801C94.9345 24.2831 95.6657 23.6959 96.4796 23.2437C97.3615 22.7802 98.3472 22.5497 99.3432 22.5739C100.155 22.5555 100.96 22.7332 101.689 23.0919C102.408 23.4644 103.033 23.9956 103.516 24.6452C104.072 25.3924 104.477 26.241 104.707 27.1434V27.1463ZM100.99 32.9029C101.173 32.1349 101.255 31.3465 101.234 30.5574C101.252 29.77 101.181 28.983 101.021 28.2118C100.906 27.6681 100.689 27.1513 100.381 26.689C100.13 26.3114 99.7831 26.0067 99.3764 25.8056C98.9659 25.6176 98.5185 25.5239 98.067 25.5314C97.3645 25.5038 96.6682 25.6727 96.0564 26.0191C95.4593 26.39 94.9333 26.8646 94.5032 27.4205V34.4267C94.8706 34.9044 95.3526 35.2816 95.9046 35.5235C96.4156 35.735 96.9647 35.8387 97.5176 35.8281C98.0516 35.8434 98.5822 35.7393 99.0709 35.5235C99.5299 35.2972 99.9271 34.9628 100.228 34.5491C100.587 34.0548 100.845 33.4957 100.99 32.9029ZM112.813 18.2823C112.806 18.5983 112.733 18.9095 112.599 19.196C112.477 19.4799 112.301 19.7376 112.081 19.9551C111.867 20.179 111.609 20.3555 111.322 20.4731C110.716 20.7167 110.04 20.7167 109.434 20.4731C109.159 20.3496 108.911 20.1736 108.703 19.9551C108.484 19.7376 108.308 19.4799 108.185 19.196C108.062 18.9072 108 18.5962 108.002 18.2823C108.002 17.9572 108.064 17.635 108.185 17.3334C108.303 17.0469 108.479 16.7883 108.703 16.5744C108.91 16.3621 109.159 16.1959 109.434 16.0867C109.729 15.9464 110.051 15.8735 110.378 15.8735C110.705 15.8735 111.027 15.9464 111.322 16.0867C111.606 16.1959 111.864 16.3619 112.081 16.5744C112.305 16.7883 112.482 17.0469 112.599 17.3334C112.732 17.6327 112.805 17.955 112.814 18.2823H112.813ZM113.787 35.7361C114.011 35.7684 114.213 35.8844 114.354 36.0606C114.495 36.2368 114.564 36.46 114.546 36.6849V38.482H106.17V36.6849C106.153 36.46 106.221 36.2368 106.362 36.0606C106.503 35.8844 106.706 35.7684 106.929 35.7361L107.112 35.7057L107.57 35.6108L108.483 35.459V25.8673L107.57 25.7145C107.468 25.6943 107.377 25.674 107.295 25.6538C107.236 25.6338 107.175 25.6236 107.112 25.6234L106.929 25.593C106.706 25.5607 106.503 25.4447 106.362 25.2686C106.221 25.0924 106.153 24.8692 106.17 24.6442V22.8471H112.231V35.4581L113.145 35.6099C113.227 35.6253 113.309 35.6456 113.389 35.6706C113.458 35.6893 113.53 35.6995 113.602 35.701L113.787 35.7361ZM125.988 22.5777C126.667 22.5456 127.338 22.7268 127.908 23.0957L127.42 25.9289C127.42 25.9999 127.404 26.0699 127.372 26.1333C127.34 26.1968 127.294 26.2519 127.237 26.2942C127.11 26.3769 126.961 26.4192 126.81 26.4157C126.604 26.4055 126.4 26.3738 126.201 26.3208C125.851 26.2415 125.493 26.2007 125.134 26.1994C124.411 26.1771 123.701 26.4027 123.124 26.8389C122.514 27.3606 122.034 28.0176 121.722 28.7574V35.459L123.245 35.7332C123.469 35.7656 123.671 35.8816 123.812 36.0578C123.953 36.2339 124.022 36.4571 124.004 36.6821V38.4792H115.655V36.6821C115.637 36.4571 115.706 36.2339 115.847 36.0578C115.988 35.8816 116.19 35.7656 116.414 35.7332L117.937 35.459V25.8673L116.414 25.593C116.19 25.5607 115.988 25.4447 115.847 25.2686C115.706 25.0924 115.637 24.8692 115.655 24.6442V22.8471H120.163C120.444 22.8157 120.727 22.8919 120.955 23.0606C121.126 23.2688 121.232 23.523 121.259 23.7912L121.503 25.6794C121.97 24.7788 122.637 23.9971 123.453 23.3946C124.19 22.8587 125.078 22.5725 125.989 22.5777H125.988ZM136.301 22.608C137.225 22.596 138.143 22.7509 139.012 23.0654C139.817 23.3712 140.544 23.8495 141.144 24.4668C141.762 25.1015 142.24 25.8593 142.546 26.6909C142.898 27.6461 143.074 28.6577 143.064 29.6759C143.064 29.921 143.043 30.1657 143.003 30.4074C142.986 30.5551 142.945 30.6989 142.881 30.8335C142.854 30.8903 142.816 30.9411 142.769 30.983C142.722 31.0249 142.667 31.0569 142.607 31.0773C142.471 31.1269 142.326 31.1476 142.181 31.1381H132.525C132.526 32.4343 132.991 33.6874 133.834 34.6715C134.229 35.0524 134.697 35.3489 135.211 35.5427C135.724 35.7365 136.271 35.8236 136.819 35.7987C137.345 35.8136 137.87 35.7415 138.373 35.5852C138.774 35.4623 139.162 35.2989 139.53 35.0975C139.668 35.0183 139.81 34.947 139.956 34.884C140.119 34.8031 140.271 34.7218 140.413 34.6402C140.621 34.5027 140.865 34.4285 141.114 34.4267C141.261 34.4246 141.407 34.457 141.54 34.5216C141.654 34.5731 141.749 34.6581 141.814 34.7654L142.911 36.1365C142.501 36.6134 142.03 37.0333 141.509 37.3852C141.004 37.7098 140.462 37.9756 139.896 38.1774C139.329 38.3536 138.748 38.4859 138.16 38.5731C137.595 38.6585 137.024 38.6991 136.452 38.6946C135.424 38.7099 134.401 38.5343 133.437 38.1765C132.52 37.8163 131.69 37.2666 131 36.5635C130.273 35.8159 129.713 34.9231 129.355 33.9438C128.944 32.7805 128.748 31.5524 128.776 30.3192C128.776 29.3015 128.952 28.2915 129.294 27.3332C129.62 26.4184 130.127 25.5792 130.787 24.8662C131.442 24.1571 132.242 23.5961 133.132 23.221C134.135 22.7999 135.215 22.5912 136.302 22.608H136.301ZM136.362 25.2885C135.893 25.2643 135.424 25.336 134.983 25.4991C134.543 25.6623 134.14 25.9134 133.8 26.2373C133.138 26.9613 132.724 27.8766 132.615 28.8514H139.682C139.676 28.3865 139.604 27.9249 139.468 27.4803C139.334 27.0712 139.128 26.6894 138.859 26.3531C138.582 26.0191 138.226 25.7584 137.824 25.594C137.363 25.392 136.866 25.288 136.363 25.2885H136.362ZM171.893 23.0037C172.99 25.8671 172.99 29.0347 171.893 31.8981C171.401 33.2183 170.628 34.4164 169.629 35.4101C168.63 36.4037 167.428 37.1694 166.105 37.6546C164.659 38.2187 163.118 38.498 161.567 38.4773H151.181V36.6802C151.163 36.4552 151.232 36.232 151.373 36.0558C151.514 35.8797 151.717 35.7637 151.94 35.7314L152.123 35.701C152.185 35.7009 152.247 35.6906 152.306 35.6706C152.387 35.6504 152.479 35.6301 152.58 35.6099L153.494 35.4581V19.4702L152.58 19.3175C152.479 19.2972 152.388 19.277 152.306 19.2567C152.247 19.2368 152.185 19.2265 152.123 19.2264L151.94 19.196C151.717 19.1637 151.514 19.0477 151.373 18.8715C151.232 18.6953 151.163 18.4721 151.181 18.2472V16.4501H161.568C163.119 16.4293 164.66 16.7087 166.106 17.2727C167.425 17.7756 168.628 18.5428 169.64 19.5272C170.616 20.5242 171.383 21.7062 171.897 23.0037H171.893ZM168.025 30.7101C168.365 29.6578 168.529 28.5567 168.512 27.4509C168.528 26.3561 168.363 25.2662 168.025 24.2248C167.729 23.3319 167.263 22.5046 166.653 21.7882C166.034 21.137 165.287 20.6188 164.461 20.2653C163.544 19.8872 162.559 19.7006 161.567 19.7169H157.607V35.2209H161.567C162.559 35.2372 163.544 35.0505 164.461 34.6724C165.287 34.3189 166.034 33.8008 166.653 33.1496C167.27 32.4367 167.737 31.6071 168.025 30.7101H168.025ZM187.742 35.7057C187.966 35.738 188.168 35.8541 188.309 36.0302C188.45 36.2064 188.519 36.4296 188.501 36.6546V38.4516H184.907C184.614 38.4701 184.321 38.4177 184.053 38.2989C183.931 38.2295 183.826 38.133 183.747 38.0169C183.668 37.9008 183.616 37.7682 183.596 37.629L183.261 36.5322C182.903 36.8808 182.516 37.1982 182.103 37.481C181.727 37.7368 181.329 37.9608 180.915 38.1509C180.504 38.3275 180.075 38.4601 179.636 38.5465C179.135 38.6473 178.625 38.6981 178.114 38.6984C177.494 38.706 176.877 38.6134 176.286 38.4241C175.761 38.2571 175.275 37.9878 174.854 37.6319C174.439 37.2646 174.114 36.806 173.905 36.2921C173.676 35.7106 173.562 35.0898 173.571 34.4646C173.573 33.8468 173.73 33.2393 174.028 32.6979C174.393 32.0473 174.93 31.5098 175.581 31.1447C176.468 30.6098 177.435 30.2191 178.445 29.9871C179.913 29.6532 181.417 29.4996 182.922 29.5298V28.616C182.976 27.7803 182.74 26.9516 182.252 26.2705C182.011 26.0072 181.713 25.8022 181.38 25.6707C181.048 25.5392 180.69 25.4848 180.334 25.5114C179.818 25.4914 179.302 25.5637 178.811 25.7249C178.444 25.8613 178.088 26.0243 177.744 26.2126L176.922 26.67C176.674 26.8189 176.388 26.893 176.099 26.8835C175.863 26.8909 175.629 26.8271 175.429 26.7003C175.259 26.565 175.114 26.3997 175.003 26.2126L174.303 25.0247C176.062 23.386 178.387 22.4912 180.791 22.5274C181.636 22.5144 182.474 22.6699 183.258 22.9847C183.939 23.2685 184.552 23.6942 185.055 24.2334C185.561 24.7925 185.954 25.4443 186.213 26.1529C186.465 26.9401 186.588 27.7629 186.578 28.5895V35.4932L187.401 35.6459L187.742 35.7057ZM182.93 31.807C182.011 31.7888 181.093 31.8603 180.189 32.0205C179.572 32.1409 178.97 32.3247 178.392 32.5689C178.012 32.7165 177.683 32.9701 177.443 33.2995C177.221 33.6719 177.13 34.1081 177.185 34.5382C177.24 34.9683 177.438 35.3674 177.747 35.6716C178.198 35.9687 178.731 36.1177 179.27 36.0976C179.628 36.0989 179.985 36.0672 180.337 36.0027C180.67 35.9471 180.991 35.8338 181.285 35.6678C181.572 35.5151 181.847 35.342 182.108 35.1497C182.397 34.9228 182.671 34.6788 182.931 34.4191L182.93 31.807ZM196.009 38.7192C195.434 38.7567 194.857 38.673 194.317 38.4736C193.776 38.2742 193.284 37.9635 192.871 37.5617C192.103 36.6907 191.709 35.5526 191.774 34.3935V25.6823H190.19C189.999 25.6709 189.816 25.5957 189.672 25.4688C189.588 25.3992 189.522 25.3102 189.479 25.2094C189.437 25.1086 189.419 24.999 189.428 24.89V23.3671L191.957 22.9714L192.749 18.7074C192.76 18.616 192.79 18.528 192.837 18.4491C192.884 18.3702 192.948 18.3024 193.024 18.25C193.191 18.1265 193.394 18.0621 193.602 18.0669H195.552V23.0008H199.664V25.6813H195.552V34.1496C195.532 34.5574 195.662 34.9583 195.917 35.2769C196.042 35.409 196.193 35.5127 196.362 35.581C196.53 35.6492 196.711 35.6805 196.892 35.6725C197.087 35.6837 197.282 35.6632 197.471 35.6118L197.866 35.4287L198.201 35.2455C198.275 35.2017 198.36 35.1805 198.445 35.1848C198.551 35.1709 198.658 35.1922 198.75 35.2455L198.963 35.4894L200.09 37.3169C198.928 38.2323 197.49 38.7264 196.01 38.7183L196.009 38.7192ZM215.017 35.7038C215.24 35.7361 215.443 35.8521 215.583 36.0283C215.724 36.2045 215.793 36.4277 215.776 36.6527V38.4498H212.184C211.892 38.4682 211.599 38.4158 211.33 38.297C211.208 38.2275 211.104 38.131 211.025 38.0149C210.946 37.8988 210.894 37.7662 210.874 37.6271L210.539 36.5303C210.181 36.8789 209.794 37.1963 209.381 37.4791C209.005 37.7349 208.607 37.9589 208.194 38.149C207.782 38.3256 207.354 38.4583 206.914 38.5447C206.413 38.6454 205.903 38.6962 205.392 38.6965C204.772 38.7041 204.155 38.6115 203.564 38.4223C203.039 38.2551 202.553 37.9858 202.132 37.63C201.717 37.2626 201.392 36.8041 201.184 36.2902C200.954 35.7087 200.84 35.0879 200.849 34.4628C200.851 33.8449 201.008 33.2374 201.306 32.696C201.671 32.0454 202.208 31.508 202.859 31.1428C203.746 30.608 204.713 30.2172 205.723 29.9852C207.191 29.6513 208.695 29.4977 210.2 29.5279V28.6141C210.255 27.7784 210.018 26.9496 209.53 26.2686C209.289 26.0052 208.99 25.8001 208.658 25.6686C208.325 25.5371 207.967 25.4827 207.611 25.5096C207.095 25.4895 206.579 25.5618 206.088 25.7231C205.721 25.8594 205.365 26.0224 205.022 26.2107L204.199 26.6681C203.951 26.817 203.665 26.8911 203.376 26.8816C203.14 26.8891 202.906 26.8253 202.706 26.6984C202.536 26.5631 202.392 26.3979 202.28 26.2107L201.58 25.0228C203.339 23.3843 205.664 22.4895 208.067 22.5255C208.912 22.5125 209.75 22.668 210.534 22.9828C211.215 23.2666 211.828 23.6923 212.331 24.2315C212.838 24.7905 213.231 25.4424 213.489 26.151C213.741 26.9382 213.865 27.761 213.854 28.5876V35.4932L214.677 35.6459L215.017 35.7038ZM210.204 31.8051C209.286 31.7869 208.367 31.8584 207.463 32.0185C206.847 32.139 206.244 32.3228 205.666 32.567C205.286 32.7146 204.957 32.9682 204.717 33.2976C204.495 33.67 204.404 34.1062 204.459 34.5363C204.515 34.9663 204.713 35.3655 205.022 35.6697C205.472 35.9668 206.005 36.1158 206.544 36.0957C206.902 36.097 207.259 36.0653 207.611 36.0008C207.944 35.9452 208.265 35.8319 208.56 35.6659C208.846 35.5132 209.121 35.3401 209.382 35.1478C209.671 34.9208 209.946 34.6769 210.205 34.4172L210.204 31.8051Z" fill="#2C3E50"/>
<path d="M77.4569 52.2765L76.3183 49.3171C76.2842 49.2292 76.2488 49.1277 76.2121 49.0125C76.1754 48.8974 76.14 48.7709 76.1058 48.633C76.048 48.8659 75.9751 49.0947 75.8876 49.3181L74.749 52.2727L77.4569 52.2765ZM79.5083 54.9769H78.7493C78.6725 54.9805 78.5969 54.957 78.5358 54.9105C78.4814 54.866 78.4396 54.8081 78.4143 54.7426L77.734 52.9863H74.47L73.7897 54.7426C73.7671 54.8067 73.7266 54.8629 73.673 54.9048C73.6126 54.9532 73.5369 54.9785 73.4595 54.976H72.7004L75.6096 47.7012H76.6049L79.5083 54.9769ZM86.1293 50.7479C86.1065 50.7806 86.079 50.8097 86.0477 50.8343C86.0147 50.8563 85.9754 50.867 85.9357 50.8647C85.875 50.8614 85.8166 50.8403 85.7678 50.8039C85.6944 50.7521 85.618 50.7046 85.5391 50.6616C85.4344 50.604 85.3237 50.5582 85.2089 50.525C85.0554 50.4774 84.8952 50.455 84.7345 50.4586C84.5038 50.4536 84.2749 50.5003 84.0646 50.5952C83.8729 50.6821 83.7055 50.8147 83.5769 50.9814C83.4411 51.1657 83.3413 51.3739 83.2828 51.5953C83.2161 51.8591 83.1842 52.1306 83.1879 52.4027C83.1839 52.6837 83.2196 52.9639 83.2942 53.2348C83.3553 53.4548 83.4569 53.6614 83.594 53.844C83.7217 54.0045 83.8838 54.1342 84.0684 54.2236C84.2649 54.3104 84.4779 54.3538 84.6928 54.3507C84.877 54.3562 85.0608 54.3305 85.2364 54.2748C85.36 54.2302 85.4776 54.1706 85.5866 54.0974C85.6814 54.0341 85.7592 53.9765 85.82 53.9247C85.8714 53.8756 85.9387 53.8466 86.0098 53.8431C86.0435 53.8416 86.0771 53.8487 86.1073 53.8638C86.1375 53.8789 86.1634 53.9015 86.1824 53.9294L86.4367 54.2596C86.3281 54.3959 86.2002 54.5158 86.0572 54.6154C85.9126 54.7148 85.7577 54.7982 85.5951 54.864C85.4297 54.9292 85.258 54.9769 85.0827 55.0063C84.9015 55.0369 84.7181 55.0521 84.5343 55.0519C84.2258 55.0545 83.9201 54.9942 83.6358 54.8745C83.3632 54.7571 83.1192 54.5823 82.9203 54.3621C82.7088 54.1188 82.5476 53.8359 82.4459 53.5299C82.3256 53.1685 82.2672 52.7893 82.2732 52.4084C82.2699 52.0487 82.3231 51.6908 82.4307 51.3476C82.5292 51.0401 82.6879 50.7553 82.8976 50.5098C83.1065 50.2715 83.3657 50.0825 83.6566 49.9566C83.9845 49.8194 84.3374 49.7518 84.6928 49.7583C85.0197 49.7515 85.3446 49.8119 85.6473 49.9358C85.9229 50.0495 86.1732 50.2169 86.3836 50.4282L86.1293 50.7479ZM93.3253 50.7479C93.3025 50.7806 93.275 50.8097 93.2437 50.8343C93.2106 50.8563 93.1713 50.867 93.1317 50.8647C93.071 50.8614 93.0125 50.8403 92.9637 50.8039C92.8903 50.7521 92.814 50.7046 92.7351 50.6616C92.6304 50.604 92.5197 50.5582 92.4049 50.525C92.2514 50.4774 92.0912 50.455 91.9305 50.4586C91.6998 50.4536 91.4709 50.5003 91.2606 50.5952C91.0689 50.6821 90.9014 50.8147 90.7729 50.9814C90.6371 51.1657 90.5373 51.3739 90.4788 51.5953C90.4121 51.8591 90.3802 52.1306 90.3839 52.4027C90.3798 52.6837 90.4156 52.9639 90.4901 53.2348C90.5512 53.4548 90.6529 53.6614 90.79 53.844C90.9176 54.0045 91.0798 54.1342 91.2644 54.2236C91.4609 54.3104 91.6739 54.3538 91.8887 54.3507C92.0726 54.3561 92.2561 54.3304 92.4314 54.2748C92.555 54.2302 92.6726 54.1706 92.7816 54.0974C92.8765 54.0341 92.9543 53.9765 93.015 53.9247C93.0664 53.8756 93.1337 53.8466 93.2047 53.8431C93.2385 53.8416 93.2721 53.8488 93.3023 53.8639C93.3325 53.879 93.3583 53.9016 93.3774 53.9294L93.6317 54.2596C93.5231 54.3959 93.3953 54.5158 93.2522 54.6154C93.1077 54.7148 92.9527 54.7982 92.7901 54.864C92.6248 54.9292 92.453 54.9769 92.2777 55.0063C92.0965 55.0369 91.9131 55.0521 91.7293 55.0519C91.4208 55.0545 91.1151 54.9942 90.8308 54.8745C90.5583 54.7571 90.3142 54.5823 90.1154 54.3621C89.9038 54.1188 89.7426 53.8359 89.6409 53.5299C89.5206 53.1685 89.4622 52.7893 89.4682 52.4084C89.4649 52.0487 89.518 51.6908 89.6257 51.3476C89.7242 51.0401 89.8829 50.7553 90.0926 50.5098C90.3015 50.2715 90.5608 50.0825 90.8517 49.9566C91.1795 49.8194 91.5324 49.7518 91.8878 49.7583C92.2147 49.7515 92.5396 49.8119 92.8423 49.9358C93.1179 50.0495 93.3682 50.2169 93.5786 50.4282L93.3253 50.7479ZM100.385 51.8448C100.385 51.651 100.353 51.4586 100.29 51.2755C100.237 51.108 100.149 50.954 100.031 50.8239C99.9186 50.6951 99.7779 50.5943 99.6198 50.5297C99.4448 50.4563 99.2564 50.4201 99.0667 50.4235C98.8781 50.4135 98.6896 50.4421 98.5124 50.5073C98.3353 50.5726 98.1733 50.6732 98.0362 50.803C97.7693 51.0896 97.6051 51.4567 97.5694 51.8467L100.385 51.8448ZM101.115 54.2558C101 54.3942 100.865 54.5142 100.714 54.6116C100.556 54.7111 100.387 54.7928 100.211 54.8555C100.033 54.9203 99.8494 54.9679 99.6625 54.9978C99.4765 55.0311 99.2879 55.048 99.0989 55.0481C98.7624 55.0516 98.4282 54.9914 98.114 54.8706C97.8205 54.752 97.5556 54.5721 97.3369 54.3431C97.1105 54.093 96.9377 53.7992 96.8293 53.4797C96.7014 53.1005 96.6394 52.7022 96.6462 52.3021C96.6433 51.9605 96.6982 51.6208 96.8084 51.2973C96.9113 50.9993 97.0726 50.7248 97.2828 50.4899C97.4934 50.2571 97.7525 50.0734 98.0419 49.9519C98.3592 49.8159 98.7016 49.7483 99.0467 49.7536C99.3389 49.7505 99.6289 49.8039 99.9007 49.9111C100.158 50.008 100.39 50.1606 100.581 50.358C100.782 50.5632 100.936 50.8091 101.033 51.0791C101.146 51.3913 101.201 51.7216 101.195 52.0535C101.204 52.1507 101.188 52.2486 101.149 52.3382C101.129 52.364 101.103 52.384 101.072 52.3965C101.042 52.409 101.009 52.4134 100.977 52.4094H97.54C97.544 52.6969 97.5884 52.9824 97.6719 53.2576C97.7425 53.4792 97.8564 53.6846 98.0068 53.862C98.1463 54.0193 98.32 54.1426 98.5144 54.2226C98.7263 54.3035 98.9518 54.3431 99.1786 54.3393C99.3758 54.3433 99.5725 54.3178 99.7621 54.2634C99.9085 54.2171 100.051 54.1594 100.188 54.0907C100.289 54.0397 100.387 53.9836 100.482 53.9228C100.542 53.8763 100.614 53.848 100.69 53.8412C100.724 53.8397 100.757 53.8469 100.788 53.862C100.818 53.8771 100.844 53.8997 100.863 53.9275L101.115 54.2558ZM105.677 47.4992V54.9769H104.774V47.4992H105.677ZM113.021 51.8448C113.022 51.651 112.99 51.4586 112.926 51.2755C112.874 51.108 112.785 50.9539 112.667 50.8239C112.555 50.6951 112.414 50.5943 112.256 50.5297C112.081 50.4563 111.893 50.4201 111.703 50.4235C111.515 50.4135 111.326 50.4421 111.149 50.5073C110.972 50.5726 110.81 50.6732 110.673 50.803C110.406 51.0896 110.242 51.4567 110.206 51.8467L113.021 51.8448ZM113.753 54.2558C113.638 54.3942 113.502 54.5142 113.351 54.6116C113.193 54.711 113.024 54.7928 112.848 54.8555C112.671 54.9203 112.487 54.9679 112.3 54.9978C112.114 55.0311 111.925 55.048 111.736 55.0481C111.4 55.0516 111.066 54.9914 110.752 54.8706C110.458 54.752 110.193 54.5721 109.974 54.3431C109.748 54.093 109.575 53.7992 109.467 53.4797C109.339 53.1005 109.277 52.7022 109.284 52.3021C109.281 51.9605 109.336 51.6208 109.446 51.2973C109.549 50.9993 109.71 50.7248 109.92 50.4899C110.131 50.2571 110.39 50.0734 110.679 49.9519C110.997 49.8159 111.339 49.7483 111.684 49.7536C111.976 49.7505 112.266 49.8039 112.538 49.9111C112.795 50.008 113.028 50.1607 113.219 50.358C113.419 50.5632 113.573 50.8091 113.67 51.0791C113.783 51.3913 113.838 51.7216 113.832 52.0535C113.841 52.1507 113.825 52.2486 113.787 52.3382C113.767 52.364 113.74 52.384 113.71 52.3965C113.68 52.409 113.647 52.4134 113.614 52.4094H110.177C110.182 52.6969 110.226 52.9824 110.309 53.2576C110.38 53.4792 110.494 53.6847 110.644 53.862C110.784 54.0193 110.957 54.1427 111.152 54.2226C111.364 54.3035 111.589 54.3431 111.816 54.3393C112.013 54.3433 112.21 54.3178 112.4 54.2634C112.546 54.2171 112.688 54.1594 112.826 54.0907C112.927 54.0397 113.025 53.9836 113.12 53.9228C113.18 53.8763 113.252 53.848 113.328 53.8412C113.361 53.8396 113.395 53.8468 113.425 53.8619C113.455 53.877 113.481 53.8996 113.5 53.9275L113.753 54.2558ZM118.239 50.8647C118.374 50.5491 118.579 50.268 118.838 50.042C119.081 49.8399 119.389 49.7333 119.706 49.7422C119.81 49.7416 119.914 49.7534 120.015 49.7773C120.111 49.7985 120.202 49.8364 120.285 49.8893L120.218 50.5648C120.214 50.6015 120.195 50.635 120.167 50.6586C120.138 50.6823 120.102 50.6942 120.065 50.692C119.995 50.6889 119.926 50.6787 119.858 50.6616C119.756 50.6403 119.652 50.6301 119.548 50.6313C119.4 50.629 119.252 50.6531 119.112 50.7024C118.986 50.7506 118.87 50.8231 118.772 50.9159C118.666 51.0173 118.575 51.1337 118.503 51.2613C118.418 51.4105 118.347 51.5667 118.289 51.7281V54.9769H117.38V49.8342H117.898C117.971 49.8262 118.043 49.8463 118.101 49.8902C118.145 49.9443 118.172 50.0105 118.177 50.08L118.239 50.8647ZM126.224 52.6618C125.867 52.6695 125.51 52.7034 125.158 52.7633C124.912 52.8011 124.671 52.8693 124.442 52.9663C124.285 53.0311 124.147 53.1342 124.041 53.2662C123.961 53.3788 123.918 53.514 123.919 53.6523C123.916 53.7723 123.939 53.8917 123.985 54.0025C124.025 54.0959 124.086 54.1791 124.162 54.2463C124.243 54.3087 124.334 54.3554 124.432 54.3839C124.541 54.4116 124.654 54.4253 124.767 54.4247C124.914 54.426 125.06 54.4108 125.203 54.3792C125.332 54.3466 125.457 54.2988 125.574 54.2368C125.693 54.1757 125.805 54.1026 125.909 54.0186C126.021 53.9319 126.127 53.8367 126.224 53.7339V52.6618ZM123.306 50.5601C123.57 50.2993 123.882 50.091 124.224 49.9462C124.571 49.8073 124.942 49.7383 125.315 49.7431C125.578 49.7384 125.839 49.7868 126.082 49.8855C126.297 49.9741 126.489 50.1092 126.645 50.2811C126.803 50.459 126.921 50.6683 126.991 50.895C127.071 51.1514 127.11 51.4187 127.108 51.6873V54.9769H126.71C126.64 54.9807 126.57 54.9667 126.507 54.9361C126.451 54.8931 126.411 54.8322 126.395 54.7634L126.293 54.2757C126.158 54.4022 126.026 54.5139 125.898 54.6107C125.77 54.7047 125.635 54.7863 125.492 54.8545C125.345 54.9201 125.192 54.9695 125.034 55.0016C124.859 55.0406 124.68 55.0594 124.501 55.0576C124.31 55.0587 124.12 55.0312 123.938 54.976C123.768 54.9221 123.611 54.8357 123.475 54.7217C123.343 54.605 123.238 54.4613 123.166 54.3004C123.088 54.1071 123.05 53.8998 123.054 53.6913C123.055 53.485 123.113 53.283 123.222 53.1077C123.357 52.8961 123.544 52.7229 123.766 52.6048C124.073 52.4381 124.403 52.3182 124.746 52.249C125.233 52.1447 125.73 52.0903 126.228 52.0868V51.6854C126.251 51.3631 126.16 51.043 125.969 50.7821C125.874 50.676 125.757 50.5929 125.625 50.5393C125.494 50.4857 125.352 50.4629 125.21 50.4728C125.018 50.4677 124.828 50.497 124.646 50.5592C124.509 50.608 124.378 50.6717 124.255 50.7489C124.147 50.8166 124.052 50.8799 123.971 50.9387C123.903 50.9894 123.822 51.0179 123.737 51.0203C123.681 51.0218 123.626 51.0059 123.58 50.9747C123.536 50.941 123.498 50.8999 123.468 50.8533L123.306 50.5601ZM132.431 55.0585C132.259 55.0696 132.087 55.0451 131.925 54.9867C131.764 54.9282 131.616 54.8371 131.491 54.7188C131.259 54.4472 131.142 54.0953 131.167 53.7387V50.5914H130.547C130.498 50.5929 130.449 50.5768 130.41 50.5459C130.391 50.526 130.376 50.5022 130.366 50.476C130.356 50.4498 130.352 50.4219 130.354 50.394V50.0335L131.197 49.9272L131.405 48.3379C131.413 48.2912 131.436 48.2485 131.471 48.2165C131.51 48.1817 131.561 48.1633 131.614 48.1652H132.071V49.9367H133.559V50.5914H132.071V53.678C132.064 53.7647 132.074 53.852 132.101 53.9348C132.128 54.0175 132.172 54.0941 132.228 54.16C132.282 54.2125 132.345 54.2536 132.415 54.2807C132.485 54.3078 132.56 54.3203 132.635 54.3175C132.717 54.3192 132.8 54.307 132.878 54.2814C132.942 54.258 133.003 54.2291 133.061 54.1951C133.112 54.1647 133.154 54.1375 133.189 54.1135C133.215 54.0906 133.248 54.0764 133.284 54.0727C133.31 54.0748 133.336 54.0839 133.359 54.0991C133.381 54.1142 133.399 54.1348 133.411 54.159L133.674 54.5907C133.511 54.7413 133.319 54.8586 133.111 54.9361C132.893 55.0172 132.662 55.0587 132.43 55.0585H132.431ZM140.34 51.8448C140.341 51.651 140.309 51.4586 140.245 51.2755C140.192 51.108 140.104 50.954 139.986 50.8239C139.874 50.6951 139.733 50.5944 139.575 50.5297C139.4 50.4564 139.212 50.4202 139.022 50.4235C138.834 50.4135 138.645 50.4421 138.468 50.5073C138.291 50.5726 138.129 50.6732 137.992 50.803C137.725 51.0896 137.561 51.4567 137.525 51.8467L140.34 51.8448ZM141.071 54.2558C140.956 54.3942 140.82 54.5142 140.669 54.6116C140.511 54.711 140.342 54.7928 140.166 54.8555C139.989 54.9203 139.805 54.9679 139.618 54.9978C139.432 55.0311 139.243 55.048 139.054 55.0481C138.718 55.0516 138.384 54.9914 138.069 54.8706C137.776 54.7519 137.511 54.5721 137.292 54.3431C137.066 54.093 136.893 53.7992 136.785 53.4797C136.657 53.1005 136.595 52.7022 136.602 52.3021C136.599 51.9605 136.654 51.6208 136.764 51.2973C136.867 50.9993 137.028 50.7248 137.238 50.4899C137.449 50.2571 137.708 50.0734 137.997 49.9519C138.315 49.8159 138.657 49.7483 139.002 49.7536C139.294 49.7505 139.584 49.8039 139.856 49.9111C140.113 50.008 140.345 50.1606 140.536 50.358C140.737 50.563 140.891 50.809 140.988 51.0791C141.101 51.3913 141.156 51.7216 141.15 52.0535C141.159 52.1507 141.143 52.2486 141.105 52.3382C141.085 52.364 141.058 52.384 141.028 52.3965C140.998 52.409 140.965 52.4134 140.932 52.4094H137.495C137.5 52.6969 137.544 52.9824 137.627 53.2576C137.698 53.4792 137.812 53.6846 137.962 53.862C138.102 54.0193 138.275 54.1426 138.47 54.2226C138.682 54.3035 138.907 54.3431 139.134 54.3393C139.331 54.3433 139.528 54.3178 139.718 54.2634C139.864 54.2171 140.006 54.1594 140.144 54.0907C140.244 54.0397 140.343 53.9837 140.438 53.9228C140.498 53.8763 140.57 53.848 140.646 53.8412C140.679 53.8397 140.713 53.8469 140.743 53.862C140.773 53.8771 140.799 53.8997 140.818 53.9275L141.071 54.2558ZM148.049 51.0573C147.91 50.8548 147.721 50.6915 147.501 50.5829C147.292 50.4887 147.065 50.442 146.837 50.4462C146.625 50.4351 146.414 50.476 146.222 50.5653C146.03 50.6547 145.863 50.7897 145.735 50.9586C145.452 51.3915 145.316 51.9044 145.349 52.4207C145.344 52.7109 145.373 53.0007 145.435 53.2842C145.481 53.4951 145.568 53.6951 145.69 53.8734C145.794 54.0199 145.936 54.1355 146.1 54.2083C146.275 54.2818 146.464 54.3179 146.654 54.3146C146.927 54.3213 147.196 54.2509 147.431 54.1116C147.67 53.9625 147.878 53.7693 148.045 53.5423L148.049 51.0573ZM148.953 47.4982V54.976H148.415C148.358 54.9801 148.301 54.963 148.256 54.928C148.211 54.8929 148.181 54.8424 148.171 54.7862L148.089 54.1619C147.878 54.4178 147.624 54.6343 147.338 54.8014C147.04 54.9681 146.704 55.0523 146.363 55.0452C146.087 55.0489 145.813 54.9915 145.561 54.8773C145.319 54.761 145.109 54.5886 144.947 54.3744C144.765 54.1279 144.632 53.8486 144.556 53.5518C144.459 53.1823 144.413 52.8016 144.419 52.4198C144.416 52.0621 144.467 51.706 144.571 51.3638C144.662 51.0545 144.81 50.765 145.007 50.5098C145.194 50.272 145.432 50.0793 145.703 49.9462C145.993 49.8046 146.313 49.7334 146.636 49.7384C146.914 49.7306 147.191 49.7861 147.444 49.9007C147.672 50.0066 147.878 50.1566 148.048 50.3419V47.4954L148.953 47.4982ZM161.591 52.2756L160.452 49.3162C160.419 49.2283 160.384 49.1267 160.346 49.0116C160.309 48.8965 160.273 48.77 160.24 48.6321C160.182 48.8649 160.109 49.0937 160.022 49.3171L158.883 52.2718L161.591 52.2756ZM163.642 54.976H162.883C162.807 54.9796 162.731 54.9561 162.67 54.9096C162.615 54.8651 162.573 54.8073 162.548 54.7416L161.867 52.9853H158.603L157.923 54.7416C157.9 54.8057 157.86 54.862 157.806 54.9038C157.746 54.9523 157.67 54.9775 157.593 54.975H156.834L159.743 47.7003H160.738L163.642 54.976ZM167.656 50.5791C167.765 50.4564 167.884 50.3428 168.012 50.2394C168.134 50.1395 168.267 50.0527 168.407 49.9803C168.549 49.906 168.699 49.8496 168.854 49.8124C169.022 49.7709 169.194 49.7505 169.367 49.7517C169.621 49.7465 169.874 49.795 170.108 49.894C170.317 49.9798 170.502 50.1157 170.646 50.2897C170.797 50.4693 170.91 50.6783 170.976 50.9036C171.053 51.1621 171.091 51.4308 171.088 51.7006V54.975H170.179V51.6996C170.199 51.3761 170.104 51.0559 169.909 50.7964C169.809 50.6836 169.684 50.5957 169.544 50.5394C169.404 50.4831 169.253 50.46 169.102 50.4718C168.839 50.4697 168.581 50.5351 168.351 50.6616C168.11 50.799 167.894 50.9757 167.711 51.1844V54.9712H166.802V49.8285H167.346C167.402 49.8241 167.458 49.8412 167.502 49.8764C167.546 49.9117 167.576 49.9624 167.584 50.0183L167.656 50.5791ZM177.689 52.6608C177.332 52.6685 176.975 52.7025 176.623 52.7623C176.377 52.8001 176.136 52.8683 175.907 52.9654C175.75 53.0301 175.612 53.1332 175.506 53.2652C175.425 53.3779 175.383 53.5131 175.384 53.6514C175.382 53.7715 175.404 53.8908 175.451 54.0015C175.491 54.0949 175.552 54.1782 175.628 54.2454C175.709 54.3078 175.8 54.3545 175.898 54.383C176.007 54.4106 176.12 54.4243 176.233 54.4238C176.379 54.4251 176.526 54.4098 176.669 54.3782C176.798 54.3456 176.922 54.2978 177.04 54.2359C177.159 54.1748 177.271 54.1016 177.375 54.0176C177.487 53.931 177.592 53.8358 177.69 53.733L177.689 52.6608ZM174.769 50.5592C175.034 50.2982 175.346 50.0899 175.689 49.9453C176.036 49.8064 176.406 49.7373 176.78 49.7422C177.043 49.7375 177.303 49.7859 177.547 49.8845C177.761 49.9732 177.954 50.1083 178.11 50.2802C178.268 50.458 178.385 50.6673 178.456 50.8941C178.536 51.1504 178.575 51.4178 178.572 51.6864V54.976H178.171C178.101 54.9798 178.031 54.9657 177.968 54.9352C177.912 54.8922 177.872 54.8312 177.856 54.7625L177.754 54.2748C177.619 54.4013 177.487 54.5129 177.359 54.6097C177.232 54.7037 177.096 54.7854 176.953 54.8536C176.806 54.9192 176.653 54.9685 176.495 55.0006C176.32 55.0396 176.141 55.0584 175.962 55.0566C175.771 55.0578 175.581 55.0303 175.399 54.975C175.229 54.9212 175.072 54.8348 174.936 54.7207C174.804 54.604 174.699 54.4604 174.627 54.2994C174.549 54.1062 174.51 53.8989 174.515 53.6903C174.516 53.484 174.574 53.2821 174.683 53.1068C174.818 52.8952 175.005 52.722 175.227 52.6039C175.534 52.4372 175.864 52.3172 176.207 52.2481C176.694 52.1438 177.191 52.0894 177.689 52.0858V51.6845C177.712 51.3622 177.621 51.0421 177.43 50.7812C177.335 50.675 177.218 50.592 177.086 50.5384C176.955 50.4847 176.813 50.462 176.671 50.4718C176.479 50.4668 176.288 50.496 176.107 50.5582C175.97 50.6071 175.839 50.6707 175.716 50.7479C175.608 50.8156 175.513 50.8789 175.432 50.9377C175.364 50.9885 175.283 51.017 175.198 51.0193C175.142 51.0209 175.087 51.0049 175.041 50.9738C174.997 50.94 174.959 50.899 174.929 50.8523L174.769 50.5592ZM183.319 47.4982V54.976H182.416V47.4982H183.319ZM191.659 49.8333L188.79 56.4941C188.764 56.5562 188.724 56.6116 188.674 56.6564C188.614 56.7018 188.54 56.7234 188.466 56.7171H187.796L188.735 54.6761L186.613 49.8371H187.395C187.461 49.833 187.527 49.8547 187.578 49.8978C187.621 49.9303 187.654 49.9744 187.673 50.0249L189.048 53.2643C189.104 53.4101 189.149 53.5594 189.185 53.7112C189.233 53.5524 189.283 53.4018 189.338 53.2595L190.673 50.0259C190.693 49.9728 190.728 49.9269 190.774 49.894C190.823 49.8575 190.882 49.8378 190.942 49.838L191.659 49.8333ZM199.666 54.976H198.763V50.5895H196.113V53.6761C196.106 53.7629 196.116 53.8501 196.143 53.9329C196.17 54.0156 196.213 54.0922 196.27 54.1581C196.323 54.2106 196.387 54.2517 196.457 54.2788C196.527 54.3059 196.601 54.3184 196.676 54.3156C196.759 54.3173 196.841 54.3051 196.92 54.2795C196.983 54.2561 197.045 54.2273 197.103 54.1932C197.154 54.1628 197.196 54.1356 197.23 54.1116C197.257 54.0887 197.29 54.0745 197.325 54.0708C197.352 54.0729 197.378 54.082 197.4 54.0972C197.422 54.1123 197.44 54.133 197.452 54.1571L197.716 54.5888C197.552 54.7394 197.361 54.8567 197.152 54.9342C196.935 55.0149 196.704 55.0561 196.472 55.0557C196.301 55.0668 196.129 55.0424 195.967 54.9839C195.805 54.9255 195.658 54.8342 195.533 54.716C195.3 54.4444 195.184 54.0925 195.208 53.7358V50.5885H194.589C194.539 50.5901 194.491 50.5739 194.452 50.543C194.432 50.5232 194.417 50.4994 194.408 50.4732C194.398 50.447 194.394 50.419 194.396 50.3912V50.0306L195.239 49.9187L195.446 48.3351C195.455 48.2884 195.478 48.2457 195.513 48.2136C195.552 48.1788 195.603 48.1605 195.655 48.1624H196.113V49.9339H199.666V54.976ZM199.889 48.1833C199.889 48.2693 199.87 48.3543 199.833 48.4319C199.799 48.5066 199.751 48.574 199.691 48.6302C199.632 48.6881 199.563 48.7344 199.488 48.7668C199.409 48.8003 199.324 48.8175 199.239 48.8175C199.153 48.8175 199.069 48.8003 198.99 48.7668C198.842 48.6994 198.723 48.5804 198.655 48.4319C198.622 48.3533 198.605 48.2687 198.605 48.1833C198.605 48.0978 198.622 48.0132 198.655 47.9347C198.687 47.8571 198.733 47.7865 198.792 47.7269C198.848 47.6669 198.916 47.6185 198.99 47.5845C199.108 47.5336 199.238 47.52 199.363 47.5454C199.488 47.5709 199.603 47.6342 199.691 47.7269C199.752 47.7853 199.801 47.8561 199.833 47.9347C199.871 48.014 199.89 48.101 199.889 48.1889V48.1833ZM207.165 50.7451C207.143 50.7777 207.115 50.8068 207.084 50.8315C207.051 50.8534 207.012 50.8641 206.972 50.8618C206.911 50.8585 206.853 50.8374 206.804 50.8011C206.731 50.7493 206.654 50.7017 206.575 50.6588C206.471 50.6012 206.36 50.5554 206.245 50.5221C206.092 50.4746 205.931 50.4521 205.771 50.4557C205.54 50.4508 205.311 50.4975 205.101 50.5924C204.909 50.6793 204.742 50.8119 204.613 50.9785C204.477 51.1628 204.378 51.3711 204.319 51.5924C204.252 51.8563 204.22 52.1278 204.224 52.3999C204.22 52.6809 204.256 52.961 204.33 53.232C204.391 53.452 204.493 53.6586 204.63 53.8412C204.758 54.0016 204.92 54.1314 205.105 54.2207C205.301 54.3075 205.514 54.3509 205.729 54.3478C205.913 54.3533 206.097 54.3276 206.273 54.2719C206.396 54.2274 206.514 54.1678 206.623 54.0945C206.718 54.0312 206.795 53.9737 206.856 53.9218C206.908 53.8727 206.975 53.8437 207.046 53.8402C207.08 53.8388 207.113 53.846 207.143 53.8611C207.174 53.8762 207.199 53.8987 207.219 53.9265L207.473 54.2568C207.364 54.3931 207.236 54.5129 207.093 54.6126C206.949 54.7119 206.794 54.7953 206.631 54.8612C206.466 54.9263 206.294 54.974 206.119 55.0035C205.938 55.034 205.754 55.0493 205.57 55.049C205.262 55.0517 204.956 54.9913 204.672 54.8716C204.399 54.7542 204.155 54.5795 203.957 54.3592C203.745 54.1159 203.584 53.8331 203.482 53.5271C203.362 53.1656 203.303 52.7865 203.309 52.4056C203.306 52.0459 203.359 51.688 203.467 51.3448C203.565 51.0373 203.724 50.7524 203.934 50.5069C204.143 50.2685 204.402 50.0796 204.693 49.9538C205.021 49.8165 205.374 49.749 205.729 49.7555C206.056 49.7487 206.381 49.8091 206.683 49.9329C206.959 50.0467 207.209 50.214 207.42 50.4253L207.165 50.7451ZM213.867 50.6787C213.85 50.7139 213.823 50.7432 213.789 50.7631C213.755 50.783 213.716 50.7926 213.677 50.7907C213.616 50.7874 213.556 50.7681 213.505 50.7347C213.441 50.6974 213.362 50.6569 213.266 50.6132C213.161 50.5602 213.05 50.5177 212.936 50.4861C212.788 50.4428 212.634 50.4223 212.479 50.4253C212.34 50.4234 212.201 50.4439 212.068 50.4861C211.954 50.5192 211.848 50.5725 211.753 50.6436C211.671 50.7081 211.603 50.7893 211.555 50.8818C211.511 50.9702 211.488 51.0676 211.488 51.1664C211.484 51.2864 211.524 51.4038 211.6 51.4966C211.687 51.5911 211.79 51.6687 211.905 51.7253C212.042 51.7945 212.184 51.8522 212.331 51.8979C212.49 51.9454 212.652 51.9979 212.819 52.0555C212.985 52.113 213.149 52.1741 213.311 52.2386C213.464 52.303 213.608 52.3886 213.737 52.4929C213.863 52.5961 213.966 52.7256 214.037 52.8724C214.119 53.0359 214.159 53.2172 214.154 53.4C214.156 53.6276 214.113 53.8535 214.027 54.0641C213.941 54.2645 213.811 54.4431 213.647 54.587C213.468 54.7401 213.261 54.8573 213.038 54.9323C212.769 55.0215 212.488 55.0645 212.205 55.0595C211.872 55.064 211.541 55.0055 211.23 54.8868C210.959 54.7804 210.708 54.6276 210.489 54.4351L210.703 54.0897C210.726 54.0491 210.759 54.0144 210.798 53.9882C210.841 53.9631 210.89 53.9509 210.94 53.9531C211.009 53.957 211.075 53.9819 211.13 54.0243C211.197 54.0717 211.279 54.1242 211.374 54.1818C211.487 54.246 211.606 54.2987 211.729 54.3393C211.897 54.3909 212.072 54.4149 212.247 54.4105C212.404 54.4132 212.56 54.3908 212.71 54.344C212.831 54.3024 212.943 54.238 213.04 54.1543C213.123 54.0806 213.188 53.9883 213.229 53.8848C213.274 53.7824 213.296 53.6719 213.296 53.5603C213.301 53.4333 213.259 53.3088 213.179 53.2102C213.098 53.11 212.995 53.0287 212.879 52.972C212.742 52.8994 212.597 52.8415 212.448 52.7993L211.955 52.6418C211.789 52.5874 211.625 52.5264 211.463 52.4587C211.309 52.3911 211.165 52.3023 211.036 52.1949C210.909 52.0882 210.806 51.9568 210.731 51.8088C210.652 51.6316 210.614 51.439 210.619 51.2452C210.619 51.0474 210.661 50.8518 210.743 50.6718C210.825 50.4917 210.945 50.3313 211.094 50.2014C211.26 50.0558 211.454 49.9438 211.663 49.8712C211.913 49.7864 212.176 49.7453 212.44 49.7498C212.751 49.7446 213.059 49.7997 213.349 49.912C213.609 50.0102 213.847 50.1585 214.049 50.3485L213.867 50.6787Z" fill="#86888F"/>
<path fill-rule="evenodd" clip-rule="evenodd" d="M20.5474 63.3054L47.0683 36.7845H15.1276L44.8328 7.07931C41.0984 5.19266 37.0176 4.0898 32.8412 3.83856C28.6648 3.58733 24.4812 4.19302 20.5475 5.61838C16.6139 7.04375 13.0133 9.25869 9.96731 12.127C6.92129 14.9953 4.49416 18.4563 2.83515 22.2972C1.17615 26.1382 0.32032 30.2779 0.320313 34.4618C0.320305 38.6458 1.1761 42.7855 2.8351 46.6264C4.49409 50.4674 6.92122 53.9284 9.96722 56.7967C13.0132 59.665 16.6137 61.88 20.5474 63.3054Z" fill="#56DCE8"/>
<path fill-rule="evenodd" clip-rule="evenodd" d="M40.3783 5.47778L13.8574 31.9987H45.798L16.0929 61.7038C19.8273 63.5905 23.9081 64.6933 28.0845 64.9446C32.2609 65.1958 36.4446 64.5901 40.3782 63.1648C44.3119 61.7394 47.9124 59.5245 50.9584 56.6562C54.0044 53.7879 56.4315 50.3269 58.0906 46.4859C59.7496 42.6449 60.6054 38.5052 60.6054 34.3213C60.6054 30.1374 59.7496 25.9977 58.0906 22.1567C56.4316 18.3157 54.0045 14.8547 50.9585 11.9864C47.9125 9.1181 44.3119 6.90316 40.3783 5.47778Z" fill="#2C3E50"/>
<path d="M19.3586 59.6269L44.7419 34.2437" stroke="white" stroke-width="8" stroke-linecap="round"/>
<path d="M17.4543 34.2471H44.9535" stroke="white" stroke-width="8" stroke-linecap="round"/>
<path d="M16.3809 34.2443L41.7641 8.86108" stroke="white" stroke-width="9" stroke-linecap="round"/>
<path d="M42.6247 12.4568C44.6106 12.4568 46.2204 10.8469 46.2204 8.86107C46.2204 6.87523 44.6106 5.26538 42.6247 5.26538C40.6389 5.26538 39.0291 6.87523 39.0291 8.86107C39.0291 10.8469 40.6389 12.4568 42.6247 12.4568Z" fill="#34A853" stroke="white" stroke-width="3"/>
<path d="M47.6658 2.03584C47.8451 1.98794 48.0339 1.98806 48.2131 2.03616C48.3923 2.08425 48.5557 2.17863 48.687 2.30985C48.8182 2.44107 48.9126 2.60451 48.9607 2.78375C49.0088 2.96298 49.0089 3.1517 48.961 3.33099L45.9247 14.6563C45.8766 14.8356 45.7822 14.9991 45.6509 15.1304C45.5197 15.2617 45.3562 15.3561 45.1768 15.4041C44.9975 15.4522 44.8087 15.4522 44.6294 15.4042C44.45 15.3563 44.2865 15.2619 44.1551 15.1307L35.8652 6.84073C35.734 6.7094 35.6396 6.54586 35.5916 6.36652C35.5436 6.18718 35.5437 5.99836 35.5917 5.81904C35.6398 5.63973 35.7342 5.47622 35.8655 5.34495C35.9968 5.21367 36.1603 5.11925 36.3396 5.07117L47.6658 2.03584Z" fill="#21D885" stroke="white" stroke-width="3"/>
<path d="M46.856 38.2662C49.3095 38.2662 51.2985 36.2773 51.2985 33.8238C51.2985 31.3703 49.3095 29.3813 46.856 29.3813C44.4025 29.3813 42.4136 31.3703 42.4136 33.8238C42.4136 36.2773 44.4025 38.2662 46.856 38.2662Z" fill="#01C3FF" stroke="white" stroke-width="3"/>
<path d="M17.2432 38.2662C19.6967 38.2662 21.6857 36.2773 21.6857 33.8238C21.6857 31.3703 19.6967 29.3813 17.2432 29.3813C14.7897 29.3813 12.8008 31.3703 12.8008 33.8238C12.8008 36.2773 14.7897 38.2662 17.2432 38.2662Z" fill="#FBBC05" stroke="white" stroke-width="3"/>
<path d="M19.3585 63.2272C21.812 63.2272 23.8009 61.2382 23.8009 58.7847C23.8009 56.3312 21.812 54.3423 19.3585 54.3423C16.905 54.3423 14.916 56.3312 14.916 58.7847C14.916 61.2382 16.905 63.2272 19.3585 63.2272Z" fill="#F87306" stroke="white" stroke-width="3"/>
</svg>
