<svg width="128" height="140" viewBox="0 0 128 140" fill="none" xmlns="http://www.w3.org/2000/svg">
<path d="M3.66187 75.7672C4.83241 65.2325 12.4408 56.8925 22.3903 54.2588C26.9261 56.5998 32.0471 57.9167 37.4608 57.9167C42.8745 57.9167 47.9956 56.5998 52.6777 54.2588C59.1156 56.0146 64.5293 60.1114 67.8945 65.6714C66.1387 66.1104 64.5293 66.9883 63.3587 68.1588L55.7503 75.7672C52.3851 79.1325 51.9461 84.2535 54.2872 88.0577C49.8977 89.082 46.5324 93.0325 46.5324 97.7146V105.03C43.4598 105.323 40.3871 105.323 37.4608 105.323C26.1945 105.323 15.3671 104.152 5.12503 102.104C2.49135 101.519 0.735565 99.0314 1.0282 96.3977L3.66187 75.7672Z" fill="#61DEEA" stroke="black"/>
<path d="M37.6076 48.699C24.4359 48.699 13.7581 38.0212 13.7581 24.8495C13.7581 11.6778 24.4359 1 37.6076 1C50.7793 1 61.457 11.6778 61.457 24.8495C61.457 38.0212 50.7793 48.699 37.6076 48.699Z" fill="#61DEEA" stroke="black"/>
<path d="M62.6655 95.5229L62.5559 95.8738H62.1883H56.482C55.4413 95.8738 54.4946 96.8204 54.4946 97.8611V108.689C54.4946 109.729 55.4413 110.676 56.482 110.676H62.1883H62.5654L62.669 111.039C62.7574 111.348 62.8305 111.632 62.8992 111.9C63.0083 112.324 63.1065 112.706 63.2374 113.078L69.998 106.317C69.8643 105.375 69.7357 104.401 69.7357 103.421C69.7357 91.8787 79.0311 82.5832 90.5736 82.5832C102.116 82.5832 111.411 91.8787 111.411 103.421C111.411 114.964 102.116 124.259 90.5736 124.259C89.5939 124.259 88.6195 124.13 87.6778 123.997L80.9644 130.71L82.8306 131.332L83.1725 131.446V131.806V137.513C83.1725 138.553 84.1192 139.5 85.1599 139.5H95.9872C97.0279 139.5 97.9746 138.553 97.9746 137.513V131.806V131.41L98.3601 131.32C100.784 130.749 102.933 129.749 104.957 128.592L105.295 128.399L105.565 128.679L109.509 132.77C109.51 132.771 109.511 132.772 109.512 132.773C110.358 133.615 111.624 133.572 112.288 132.798L112.3 132.783L112.314 132.77L119.922 125.161C120.767 124.316 120.725 123.047 119.95 122.383L119.936 122.37L119.922 122.357L115.972 118.406L115.702 118.136L115.891 117.805C117.036 115.802 117.901 113.5 118.628 111.173L118.738 110.822H119.105H124.811C125.852 110.822 126.799 109.876 126.799 108.835V98.0075C126.799 96.9668 125.852 96.0201 124.811 96.0201H119.398H119.007L118.913 95.6414C118.341 93.354 117.337 91.0556 116.184 89.0376L115.998 88.7123L116.258 88.4425L120.208 84.3457L120.208 84.3456L120.215 84.3392C121.06 83.4938 121.018 82.2251 120.243 81.5608L120.228 81.5483L120.215 81.5347L112.606 73.9263C111.761 73.0809 110.492 73.1231 109.828 73.8981L109.815 73.9127L109.802 73.9263L105.851 77.8768L105.581 78.1468L105.25 77.9574C103.247 76.8128 100.945 75.9476 98.6181 75.2205L98.2672 75.1108V74.7432V69.0369C98.2672 67.9962 97.3206 67.0496 96.2799 67.0496H85.4525C84.4118 67.0496 83.4651 67.9962 83.4651 69.0369V74.7432V75.1108L83.1143 75.2205C80.7876 75.9476 78.4857 76.8128 76.4827 77.9574L76.1573 78.1433L75.8875 77.8832L71.7907 73.9326L71.7906 73.9327L71.7842 73.9263C70.9388 73.0809 69.6701 73.1231 69.0058 73.8981L68.9933 73.9127L68.9797 73.9263L61.3713 81.5347C60.5424 82.3636 60.5424 83.5102 61.3713 84.3392L65.3218 88.2897L65.5838 88.5517L65.4095 88.8785C64.2559 91.0415 63.3893 93.2067 62.6655 95.5229Z" fill="#FEC55E" stroke="black"/>
<path d="M78.1375 107.518C77.4059 105.469 77.2596 103.275 77.6986 100.934C78.5765 96.1051 82.2344 91.862 87.0628 90.5451C89.6965 89.8136 92.0375 89.8136 94.3786 90.5451C95.2565 90.8378 95.5491 91.862 94.9638 92.4472L89.8428 97.5683C87.9407 99.4704 87.9407 102.397 89.8428 104.299C91.7449 106.201 94.6712 106.201 96.5733 104.299L101.694 99.1778C102.28 98.5925 103.45 98.8851 103.596 99.763C104.182 101.958 104.328 104.445 103.596 107.079C102.28 111.907 98.1828 115.565 93.208 116.443C90.867 116.882 88.6723 116.589 86.6238 116.004L68.0417 134.586C67.1638 135.464 65.7007 135.464 64.8228 134.586L59.5554 129.319C58.6775 128.441 58.6775 126.978 59.5554 126.1L78.1375 107.518Z" stroke="black"/>
</svg>
