<svg width="24" height="24" viewBox="0 0 24 24" fill="none" xmlns="http://www.w3.org/2000/svg">
<path d="M12 24C18.6162 24 24 18.6162 24 12C24 5.38378 18.6162 0 12 0C5.38378 0 0 5.38378 0 12C0 18.6162 5.38378 24 12 24ZM6.84324 11.9157C7.22919 11.5297 7.85189 11.5297 8.23784 11.9157L10.5438 14.2216L16.4205 8.34486C16.8065 7.95892 17.4292 7.95892 17.8151 8.34486C18.2011 8.73081 18.2011 9.35351 17.8151 9.73946L11.2378 16.3135C11.0465 16.5049 10.7935 16.6022 10.5405 16.6022C10.2876 16.6022 10.0346 16.5049 9.84324 16.3135L6.84 13.3103C6.4573 12.9276 6.4573 12.3016 6.84324 11.9157Z" fill="#2C3E50" fill-opacity="0.81"/>
</svg>
