<svg width="88" height="88" viewBox="0 0 88 88" fill="none" xmlns="http://www.w3.org/2000/svg">
<circle cx="44" cy="44" r="44" fill="#FAFAFA"/>
<path d="M53.2335 31.4344H45.4375V60.668H53.2335V31.4344Z" fill="#01C3FF"/>
<path d="M62.9786 42.153H55.1826V60.6673H62.9786V42.153Z" fill="#21D885"/>
<path d="M32.7696 54.821H24.9736V60.6674H32.7696V54.821Z" fill="#FBBC05"/>
<path d="M63.4096 62.8285H24.586C24.4306 62.8285 24.2815 62.8902 24.1716 63.0001C24.0617 63.11 24 63.2591 24 63.4145C24 63.5699 24.0617 63.719 24.1716 63.8289C24.2815 63.9388 24.4306 64.0005 24.586 64.0005H63.4096C63.565 64.0005 63.714 63.9388 63.8239 63.8289C63.9338 63.719 63.9956 63.5699 63.9956 63.4145C63.9956 63.2591 63.9338 63.11 63.8239 63.0001C63.714 62.8902 63.565 62.8285 63.4096 62.8285Z" fill="black"/>
<path d="M24.586 61.6558H32.5344C32.6114 61.6558 32.6876 61.6407 32.7587 61.6112C32.8298 61.5818 32.8944 61.5386 32.9488 61.4842C33.0032 61.4298 33.0464 61.3652 33.0758 61.2941C33.1053 61.223 33.1204 61.1468 33.1204 61.0698V54.5991C33.1204 54.4437 33.0587 54.2946 32.9488 54.1847C32.8389 54.0748 32.6898 54.0131 32.5344 54.0131H24.586C24.4306 54.0131 24.2815 54.0748 24.1716 54.1847C24.0617 54.2946 24 54.4437 24 54.5991V61.0698C24 61.2252 24.0617 61.3743 24.1716 61.4842C24.2815 61.5941 24.4306 61.6558 24.586 61.6558ZM25.172 55.1882H31.9484V60.4869H25.172V55.1882Z" fill="black"/>
<path d="M42.8254 42.2446C42.9809 42.2446 43.1299 42.1828 43.2398 42.0729C43.3497 41.963 43.4115 41.814 43.4115 41.6585V35.1878C43.4115 35.0324 43.3497 34.8833 43.2398 34.7734C43.1299 34.6635 42.9809 34.6018 42.8254 34.6018H34.877C34.7216 34.6018 34.5726 34.6635 34.4627 34.7734C34.3528 34.8833 34.291 35.0324 34.291 35.1878V61.0707C34.291 61.2261 34.3528 61.3752 34.4627 61.4851C34.5726 61.595 34.7216 61.6567 34.877 61.6567H42.8254C42.9809 61.6567 43.1299 61.595 43.2398 61.4851C43.3497 61.3752 43.4115 61.2261 43.4115 61.0707V44.0026C43.4115 43.8472 43.3497 43.6981 43.2398 43.5882C43.1299 43.4783 42.9809 43.4166 42.8254 43.4166C42.67 43.4166 42.521 43.4783 42.4111 43.5882C42.3012 43.6981 42.2394 43.8472 42.2394 44.0026V60.4854H35.4631V35.7769H42.2394V41.6616C42.2402 41.8165 42.3023 41.9648 42.4121 42.074C42.522 42.1832 42.6706 42.2446 42.8254 42.2446Z" fill="black"/>
<path d="M63.4094 41.0728H55.461C55.3056 41.0728 55.1565 41.1345 55.0466 41.2444C54.9367 41.3543 54.875 41.5034 54.875 41.6588V61.0709C54.875 61.2264 54.9367 61.3754 55.0466 61.4853C55.1565 61.5952 55.3056 61.6569 55.461 61.6569H63.4094C63.5648 61.6569 63.7139 61.5952 63.8238 61.4853C63.9337 61.3754 63.9954 61.2264 63.9954 61.0709V41.6588C63.9954 41.5034 63.9337 41.3543 63.8238 41.2444C63.7139 41.1345 63.5648 41.0728 63.4094 41.0728ZM62.8234 60.4849H56.047V42.2448H62.8234V60.4849Z" fill="black"/>
<path d="M45.17 31.3671C45.0146 31.3671 44.8655 31.4288 44.7556 31.5387C44.6457 31.6486 44.584 31.7977 44.584 31.9531V61.0709C44.584 61.2264 44.6457 61.3754 44.7556 61.4853C44.8655 61.5952 45.0146 61.657 45.17 61.657H53.1184C53.2738 61.657 53.4229 61.5952 53.5328 61.4853C53.6427 61.3754 53.7044 61.2264 53.7044 61.0709V31.9531C53.7044 31.7977 53.6427 31.6486 53.5328 31.5387C53.4229 31.4288 53.2738 31.3671 53.1184 31.3671H45.17ZM52.5324 60.4849H45.756V32.5391H52.5324V60.4849Z" fill="black"/>
<path d="M28.5603 33.4266C29.0164 33.4261 29.46 33.2777 29.8246 33.0036C30.1892 32.7296 30.4552 32.3448 30.5826 31.9068H36.8296C36.9822 32.4237 37.3271 32.8623 37.7934 33.1325C38.2597 33.4026 38.8119 33.4836 39.3361 33.3588C39.8604 33.234 40.3168 32.9129 40.6113 32.4616C40.9059 32.0104 41.0162 31.4633 40.9195 30.9332L47.6039 27.5465C47.8006 27.7578 48.0387 27.9264 48.3033 28.0416C48.568 28.1568 48.8535 28.2163 49.1421 28.2163C49.4308 28.2163 49.7163 28.1568 49.981 28.0416C50.2456 27.9264 50.4837 27.7578 50.6804 27.5465L57.3648 30.9332C57.2694 31.4326 57.3575 31.9497 57.613 32.3893C57.8684 32.829 58.274 33.1616 58.7551 33.3261C59.2362 33.4905 59.7605 33.4758 60.2316 33.2845C60.7028 33.0933 61.089 32.7383 61.3193 32.285C61.5496 31.8317 61.6085 31.3105 61.4852 30.8172C61.3619 30.324 61.0646 29.8918 60.6481 29.6002C60.2315 29.3086 59.7237 29.1772 59.2181 29.2301C58.7124 29.2831 58.2428 29.5168 57.8957 29.8883L51.2127 26.5017C51.271 26.1971 51.2613 25.8834 51.1844 25.583C51.1074 25.2827 50.965 25.003 50.7674 24.764C50.5698 24.525 50.3219 24.3326 50.0414 24.2006C49.7608 24.0685 49.4545 24 49.1444 24C48.8344 24 48.5281 24.0685 48.2475 24.2006C47.967 24.3326 47.7191 24.525 47.5215 24.764C47.3239 25.003 47.1815 25.2827 47.1045 25.583C47.0276 25.8834 47.0179 26.1971 47.0761 26.5017L40.3902 29.8883C40.1365 29.6159 39.8152 29.4157 39.4589 29.3081C39.1026 29.2005 38.7241 29.1894 38.3621 29.2758C38.0001 29.3623 37.6675 29.5432 37.3983 29.8002C37.129 30.0572 36.9328 30.381 36.8296 30.7386H30.5826C30.4737 30.3628 30.2623 30.0248 29.972 29.7624C29.6818 29.5001 29.3242 29.3238 28.9393 29.2533C28.5545 29.1828 28.1576 29.2209 27.7932 29.3633C27.4288 29.5058 27.1113 29.7469 26.8763 30.0598C26.6413 30.3726 26.4981 30.7447 26.4627 31.1343C26.4274 31.524 26.5012 31.9158 26.6761 32.2658C26.851 32.6158 27.1199 32.9101 27.4527 33.1159C27.7855 33.3216 28.169 33.4305 28.5603 33.4305V33.4266ZM59.4362 30.3901C59.6208 30.3901 59.8014 30.4448 59.955 30.5474C60.1085 30.6501 60.2282 30.7959 60.2989 30.9665C60.3696 31.1372 60.3881 31.3249 60.352 31.506C60.316 31.6872 60.2271 31.8536 60.0965 31.9842C59.9659 32.1148 59.7995 32.2037 59.6183 32.2397C59.4372 32.2758 59.2494 32.2573 59.0788 32.1866C58.9082 32.1159 58.7623 31.9962 58.6597 31.8427C58.5571 31.6891 58.5024 31.5086 58.5024 31.3239C58.5028 31.0763 58.6013 30.8391 58.7763 30.664C58.9513 30.489 59.1886 30.3905 59.4362 30.3901ZM49.1437 25.1764C49.3284 25.1764 49.5089 25.2312 49.6625 25.3338C49.816 25.4364 49.9357 25.5822 50.0064 25.7529C50.0771 25.9235 50.0956 26.1113 50.0595 26.2924C50.0235 26.4735 49.9346 26.6399 49.804 26.7705C49.6734 26.9011 49.507 26.99 49.3259 27.0261C49.1447 27.0621 48.957 27.0436 48.7863 26.9729C48.6157 26.9023 48.4699 26.7826 48.3673 26.629C48.2646 26.4754 48.2099 26.2949 48.2099 26.1102C48.2103 25.8627 48.3088 25.6254 48.4838 25.4504C48.6589 25.2753 48.8961 25.1768 49.1437 25.1764ZM38.8512 30.3901C39.0359 30.3901 39.2164 30.4448 39.37 30.5474C39.5236 30.6501 39.6432 30.7959 39.7139 30.9665C39.7846 31.1372 39.8031 31.3249 39.7671 31.506C39.731 31.6872 39.6421 31.8536 39.5115 31.9842C39.3809 32.1148 39.2145 32.2037 39.0334 32.2397C38.8522 32.2758 38.6645 32.2573 38.4939 32.1866C38.3232 32.1159 38.1774 31.9962 38.0748 31.8427C37.9722 31.6891 37.9174 31.5086 37.9174 31.3239C37.9178 31.0763 38.0163 30.8391 38.1914 30.664C38.3664 30.489 38.6037 30.3905 38.8512 30.3901ZM28.5595 30.3901C28.7442 30.3901 28.9247 30.4448 29.0783 30.5474C29.2318 30.6501 29.3515 30.7959 29.4222 30.9665C29.4929 31.1372 29.5114 31.3249 29.4753 31.506C29.4393 31.6872 29.3504 31.8536 29.2198 31.9842C29.0892 32.1148 28.9228 32.2037 28.7417 32.2397C28.5605 32.2758 28.3728 32.2573 28.2021 32.1866C28.0315 32.1159 27.8857 31.9962 27.7831 31.8427C27.6805 31.6891 27.6257 31.5086 27.6257 31.3239C27.6261 31.0762 27.7247 30.8388 27.8999 30.6638C28.0751 30.4887 28.3126 30.3903 28.5603 30.3901H28.5595Z" fill="black"/>
</svg>
