<svg width="100" height="100" viewBox="0 0 100 100" fill="none" xmlns="http://www.w3.org/2000/svg">
<path d="M50 100C77.6142 100 100 77.6142 100 50C100 22.3858 77.6142 0 50 0C22.3858 0 0 22.3858 0 50C0 77.6142 22.3858 100 50 100Z" fill="#EFF3FC"/>
<path d="M63.67 47.4714C63.5036 47.4777 63.3461 47.5482 63.2306 47.6681C63.1151 47.7881 63.0505 47.9481 63.0505 48.1146C63.0505 48.2811 63.1151 48.4412 63.2306 48.5611C63.3461 48.6811 63.5036 48.7516 63.67 48.7579H68.7702C68.8567 48.7611 68.943 48.7469 69.0239 48.716C69.1047 48.6852 69.1786 48.6383 69.2409 48.5783C69.3033 48.5182 69.3529 48.4462 69.3868 48.3665C69.4206 48.2869 69.4381 48.2012 69.4381 48.1146C69.4381 48.0281 69.4206 47.9424 69.3868 47.8627C69.3529 47.7831 69.3033 47.711 69.2409 47.651C69.1786 47.5909 69.1047 47.5441 69.0239 47.5132C68.943 47.4824 68.8567 47.4681 68.7702 47.4714H63.67Z" fill="#607880"/>
<path d="M35.4567 47.4714H30.3565C30.1901 47.4777 30.0326 47.5482 29.9171 47.6681C29.8016 47.7881 29.7371 47.9481 29.7371 48.1146C29.7371 48.2811 29.8016 48.4412 29.9171 48.5611C30.0326 48.6811 30.1901 48.7516 30.3565 48.7579H35.4567C35.5432 48.7611 35.6295 48.7469 35.7104 48.716C35.7913 48.6852 35.8651 48.6383 35.9274 48.5783C35.9898 48.5182 36.0394 48.4462 36.0733 48.3665C36.1072 48.2869 36.1246 48.2012 36.1246 48.1146C36.1246 48.0281 36.1072 47.9424 36.0733 47.8627C36.0394 47.7831 35.9898 47.711 35.9274 47.651C35.8651 47.5909 35.7913 47.5441 35.7104 47.5132C35.6295 47.4824 35.5432 47.4681 35.4567 47.4714Z" fill="#607880"/>
<path d="M63.0265 43.7115C63.0265 43.796 63.0431 43.8797 63.0755 43.9578C63.1078 44.0359 63.1552 44.1069 63.215 44.1666C63.2748 44.2264 63.3458 44.2738 63.4238 44.3062C63.5019 44.3385 63.5856 44.3552 63.6702 44.3552H67.2086C67.3109 44.3552 67.4118 44.3307 67.5028 44.284C67.5938 44.2372 67.6723 44.1694 67.7319 44.0862L70.0623 40.8304C70.1145 40.7619 70.1524 40.6836 70.1738 40.6001C70.1951 40.5166 70.1995 40.4297 70.1867 40.3445C70.1739 40.2593 70.144 40.1776 70.099 40.1041C70.054 40.0307 69.9947 39.967 69.9246 39.9169C69.8546 39.8667 69.7751 39.8312 69.6911 39.8124C69.607 39.7935 69.52 39.7917 69.4352 39.8071C69.3504 39.8225 69.2696 39.8547 69.1976 39.9019C69.1255 39.9492 69.0636 40.0103 69.0156 40.0819L66.8776 43.0696H63.6693C63.4996 43.0699 63.337 43.137 63.2166 43.2565C63.0963 43.376 63.0279 43.5382 63.0265 43.7078V43.7115Z" fill="#607880"/>
<path d="M70.3595 57.8058L68.0583 53.2207C68.0047 53.1141 67.9225 53.0244 67.8209 52.9618C67.7193 52.8992 67.6023 52.866 67.483 52.8661H63.6246C63.5381 52.8628 63.4518 52.877 63.3709 52.9079C63.29 52.9387 63.2162 52.9856 63.1538 53.0456C63.0915 53.1057 63.0419 53.1777 63.008 53.2574C62.9741 53.337 62.9567 53.4227 62.9567 53.5093C62.9567 53.5958 62.9741 53.6815 63.008 53.7612C63.0419 53.8408 63.0915 53.9129 63.1538 53.9729C63.2162 54.033 63.29 54.0798 63.3709 54.1107C63.4518 54.1415 63.5381 54.1558 63.6246 54.1525H67.0891L69.2116 58.3829C69.2475 58.4618 69.2989 58.5325 69.3627 58.591C69.4266 58.6495 69.5016 58.6946 69.5833 58.7234C69.6649 58.7522 69.7516 58.7643 69.838 58.7588C69.9245 58.7534 70.0089 58.7305 70.0863 58.6917C70.1637 58.6528 70.2325 58.5988 70.2885 58.5327C70.3445 58.4666 70.3866 58.39 70.4123 58.3072C70.438 58.2245 70.4467 58.1375 70.4379 58.0513C70.4292 57.9652 70.4031 57.8816 70.3613 57.8058H70.3595Z" fill="#607880"/>
<path d="M59.8554 61.4164C59.7917 61.3583 59.717 61.3137 59.6357 61.2851C59.5544 61.2565 59.4682 61.2446 59.3822 61.2499C59.2962 61.2552 59.2121 61.2778 59.135 61.3162C59.0579 61.3547 58.9893 61.4082 58.9332 61.4737C58.8772 61.5391 58.8348 61.6152 58.8087 61.6973C58.7826 61.7794 58.7732 61.8659 58.7812 61.9517C58.7891 62.0375 58.8142 62.1209 58.855 62.1968C58.8958 62.2727 58.9514 62.3397 59.0185 62.3937L64.1542 66.7873C64.2177 66.8466 64.2926 66.8923 64.3743 66.9219C64.4559 66.9514 64.5428 66.9641 64.6295 66.9593C64.7162 66.9544 64.801 66.932 64.8789 66.8935C64.9567 66.8549 65.0259 66.801 65.0824 66.735C65.1388 66.669 65.1814 66.5923 65.2074 66.5094C65.2334 66.4265 65.2424 66.3393 65.2338 66.2528C65.2252 66.1664 65.1991 66.0826 65.1573 66.0065C65.1155 65.9304 65.0586 65.8635 64.9903 65.81L59.8554 61.4164Z" fill="#607880"/>
<path d="M59.5882 39.7363C59.7204 39.8442 59.89 39.8952 60.0597 39.8781C60.2295 39.861 60.3855 39.7772 60.4935 39.6451L64.7978 34.3343C64.8509 34.2684 64.8905 34.1928 64.9144 34.1116C64.9382 34.0304 64.9458 33.9454 64.9368 33.8613C64.9278 33.7772 64.9023 33.6957 64.8618 33.6214C64.8213 33.5471 64.7665 33.4816 64.7007 33.4285C64.6348 33.3754 64.5592 33.3358 64.478 33.3119C64.3969 33.2881 64.3118 33.2804 64.2277 33.2894C64.1436 33.2985 64.0621 33.3239 63.9878 33.3645C63.9135 33.405 63.848 33.4597 63.7949 33.5256L59.4888 38.8309C59.3809 38.9631 59.3299 39.1327 59.347 39.3025C59.3641 39.4722 59.4479 39.6283 59.58 39.7363H59.5882Z" fill="#607880"/>
<path d="M31.3959 44.0871C31.4555 44.1703 31.534 44.2381 31.6251 44.2849C31.7161 44.3317 31.8169 44.3561 31.9193 44.3561H35.4577C35.5442 44.3593 35.6304 44.3451 35.7113 44.3142C35.7922 44.2834 35.866 44.2365 35.9284 44.1765C35.9907 44.1164 36.0403 44.0444 36.0742 43.9648C36.1081 43.8851 36.1256 43.7994 36.1256 43.7128C36.1256 43.6263 36.1081 43.5406 36.0742 43.4609C36.0403 43.3813 35.9907 43.3093 35.9284 43.2492C35.866 43.1892 35.7922 43.1423 35.7113 43.1114C35.6304 43.0806 35.5442 43.0664 35.4577 43.0696H32.2484L30.1104 40.0819C30.0624 40.0103 30.0005 39.9492 29.9285 39.9019C29.8564 39.8547 29.7756 39.8225 29.6908 39.8071C29.606 39.7917 29.519 39.7935 29.435 39.8124C29.3509 39.8312 29.2715 39.8667 29.2014 39.9169C29.1313 39.967 29.072 40.0307 29.027 40.1041C28.982 40.1776 28.9522 40.2593 28.9393 40.3445C28.9265 40.4297 28.9309 40.5166 28.9522 40.6001C28.9736 40.6836 29.0115 40.7619 29.0637 40.8304L31.3959 44.0871Z" fill="#607880"/>
<path d="M36.1487 53.5098C36.1487 53.3391 36.0809 53.1753 35.9602 53.0546C35.8394 52.9339 35.6757 52.8661 35.505 52.8661H31.642C31.5227 52.8661 31.4057 52.8992 31.3041 52.9618C31.2025 53.0245 31.1203 53.1141 31.0667 53.2208L28.7664 57.8058C28.7246 57.8817 28.6986 57.9652 28.6898 58.0514C28.6811 58.1375 28.6898 58.2246 28.7155 58.3073C28.7411 58.39 28.7832 58.4667 28.8392 58.5327C28.8953 58.5988 28.964 58.6529 29.0414 58.6917C29.1188 58.7306 29.2033 58.7534 29.2897 58.7589C29.3762 58.7643 29.4628 58.7522 29.5445 58.7234C29.6261 58.6946 29.7011 58.6496 29.765 58.5911C29.8289 58.5326 29.8803 58.4618 29.9161 58.3829L32.0386 54.1507H35.5032C35.673 54.151 35.8361 54.084 35.9567 53.9644C36.0773 53.8448 36.1457 53.6823 36.1469 53.5125L36.1487 53.5098Z" fill="#607880"/>
<path d="M39.273 61.4164L34.1373 65.81C34.0689 65.8635 34.0121 65.9304 33.9702 66.0065C33.9284 66.0826 33.9024 66.1664 33.8938 66.2528C33.8852 66.3393 33.8942 66.4265 33.9202 66.5094C33.9462 66.5923 33.9887 66.669 34.0452 66.735C34.1016 66.801 34.1709 66.8549 34.2487 66.8935C34.3265 66.932 34.4114 66.9544 34.4981 66.9593C34.5848 66.9641 34.6716 66.9514 34.7533 66.9219C34.835 66.8923 34.9098 66.8466 34.9733 66.7873L40.11 62.3937C40.1771 62.3397 40.2327 62.2727 40.2735 62.1968C40.3142 62.1209 40.3393 62.0375 40.3473 61.9517C40.3552 61.8659 40.3459 61.7794 40.3198 61.6973C40.2936 61.6152 40.2513 61.5391 40.1953 61.4737C40.1392 61.4082 40.0706 61.3547 39.9935 61.3162C39.9163 61.2778 39.8323 61.2552 39.7463 61.2499C39.6603 61.2446 39.574 61.2565 39.4928 61.2851C39.4115 61.3137 39.3367 61.3583 39.273 61.4164Z" fill="#607880"/>
<path d="M38.6329 39.6424C38.7404 39.7754 38.8963 39.8603 39.0663 39.8783C39.2364 39.8963 39.4066 39.8461 39.5396 39.7386C39.6726 39.6311 39.7574 39.4752 39.7755 39.3052C39.7935 39.1351 39.7433 38.9649 39.6358 38.8319L35.3297 33.5247C35.2766 33.4589 35.211 33.4041 35.1368 33.3636C35.0625 33.3231 34.981 33.2976 34.8969 33.2886C34.8128 33.2796 34.7277 33.2872 34.6466 33.3111C34.5654 33.3349 34.4897 33.3745 34.4239 33.4276C34.358 33.4807 34.3033 33.5463 34.2628 33.6205C34.2223 33.6948 34.1968 33.7763 34.1878 33.8604C34.1787 33.9445 34.1864 34.0296 34.2102 34.1108C34.2341 34.1919 34.2737 34.2676 34.3268 34.3334L38.6329 39.6424Z" fill="#607880"/>
<path d="M58.2724 35.2861H40.853C40.8531 35.9949 40.7136 36.6968 40.4424 37.3517C40.1712 38.0066 39.7736 38.6017 39.2724 39.1029C38.7712 39.6041 38.1761 40.0017 37.5212 40.2729C36.8663 40.5441 36.1644 40.6836 35.4556 40.6835V52.3837C35.4556 54.4716 35.9653 56.5279 36.9406 58.374C37.9158 60.2201 39.3271 61.8002 41.0517 62.977L49.5627 68.7847L58.0737 62.977C59.7983 61.8002 61.2095 60.2201 62.1847 58.374C63.16 56.5278 63.6698 54.4716 63.6699 52.3837V40.6826C62.9611 40.6826 62.2593 40.543 61.6045 40.2717C60.9497 40.0004 60.3547 39.6029 59.8536 39.1017C59.3525 38.6004 58.955 38.0054 58.6839 37.3506C58.4127 36.6958 58.2732 35.9939 58.2733 35.2852L58.2724 35.2861Z" fill="#56DCE8"/>
<path d="M43.1204 59.9411C41.89 59.1014 40.8835 57.9738 40.1883 56.6563C39.4931 55.3389 39.1304 53.8716 39.1316 52.382V43.5811C41.1881 42.6638 42.8331 41.0188 43.7504 38.9623H55.3749C56.2922 41.0188 57.9372 42.6638 59.9937 43.5811V52.382C59.9942 53.8714 59.6308 55.3383 58.9352 56.6552C58.2395 57.9722 57.2327 59.0992 56.0022 59.9384L49.5636 64.3311L43.1204 59.9411Z" fill="white"/>
<path d="M70.6083 49.9531C71.6234 49.9531 72.4463 49.1301 72.4463 48.115C72.4463 47.0999 71.6234 46.277 70.6083 46.277C69.5932 46.277 68.7703 47.0999 68.7703 48.115C68.7703 49.1301 69.5932 49.9531 70.6083 49.9531Z" fill="#56DCE8"/>
<path d="M70.6083 57.8979C70.9718 57.8979 71.3272 58.0057 71.6295 58.2077C71.9317 58.4097 72.1673 58.6967 72.3064 59.0326C72.4455 59.3685 72.4819 59.738 72.411 60.0946C72.3401 60.4511 72.165 60.7786 71.908 61.0357C71.6509 61.2927 71.3234 61.4678 70.9669 61.5387C70.6103 61.6096 70.2408 61.5732 69.9049 61.4341C69.5691 61.295 69.282 61.0594 69.08 60.7572C68.8781 60.4549 68.7703 60.0995 68.7703 59.736C68.7703 59.2485 68.9639 58.781 69.3086 58.4363C69.6533 58.0916 70.1208 57.8979 70.6083 57.8979V57.8979Z" fill="white"/>
<path d="M65.9673 69.331C66.9824 69.331 67.8054 68.5081 67.8054 67.4929C67.8054 66.4778 66.9824 65.6549 65.9673 65.6549C64.9522 65.6549 64.1293 66.4778 64.1293 67.4929C64.1293 68.5081 64.9522 69.331 65.9673 69.331Z" fill="#21D885"/>
<path d="M70.6083 37.1243C70.9718 37.1243 71.3272 37.2321 71.6295 37.434C71.9317 37.636 72.1673 37.9231 72.3064 38.2589C72.4455 38.5948 72.4819 38.9643 72.411 39.3209C72.3401 39.6774 72.165 40.0049 71.908 40.262C71.6509 40.5191 71.3234 40.6941 70.9669 40.765C70.6103 40.836 70.2408 40.7996 69.9049 40.6604C69.5691 40.5213 69.282 40.2857 69.08 39.9835C68.8781 39.6812 68.7703 39.3258 68.7703 38.9623C68.7703 38.4748 68.9639 38.0073 69.3086 37.6626C69.6533 37.3179 70.1208 37.1243 70.6083 37.1243V37.1243Z" fill="#FABC05"/>
<path d="M65.4577 34.3406C66.4728 34.3406 67.2957 33.5177 67.2957 32.5026C67.2957 31.4875 66.4728 30.6646 65.4577 30.6646C64.4425 30.6646 63.6196 31.4875 63.6196 32.5026C63.6196 33.5177 64.4425 34.3406 65.4577 34.3406Z" fill="white"/>
<path d="M28.5172 46.277C28.8808 46.277 29.2361 46.3848 29.5384 46.5867C29.8407 46.7887 30.0763 47.0758 30.2154 47.4116C30.3545 47.7475 30.3909 48.1171 30.32 48.4736C30.249 48.8301 30.074 49.1577 29.8169 49.4147C29.5599 49.6718 29.2324 49.8468 28.8758 49.9177C28.5193 49.9887 28.1497 49.9523 27.8139 49.8131C27.478 49.674 27.1909 49.4384 26.989 49.1362C26.787 48.8339 26.6792 48.4785 26.6792 48.115C26.6792 47.6275 26.8728 47.16 27.2175 46.8153C27.5622 46.4706 28.0298 46.277 28.5172 46.277V46.277Z" fill="#56DCE8"/>
<path d="M28.5172 57.8979C28.8808 57.8979 29.2361 58.0057 29.5384 58.2077C29.8407 58.4097 30.0763 58.6967 30.2154 59.0326C30.3545 59.3685 30.3909 59.738 30.32 60.0946C30.249 60.4511 30.074 60.7786 29.8169 61.0357C29.5599 61.2927 29.2324 61.4678 28.8758 61.5387C28.5193 61.6096 28.1497 61.5732 27.8139 61.4341C27.478 61.295 27.1909 61.0594 26.989 60.7572C26.787 60.4549 26.6792 60.0995 26.6792 59.736C26.6792 59.2485 26.8728 58.781 27.2175 58.4363C27.5622 58.0916 28.0298 57.8979 28.5172 57.8979V57.8979Z" fill="#21D885"/>
<path d="M33.1584 65.6549C33.5219 65.6549 33.8772 65.7627 34.1795 65.9647C34.4818 66.1666 34.7174 66.4537 34.8565 66.7896C34.9956 67.1254 35.032 67.495 34.9611 67.8515C34.8902 68.2081 34.7151 68.5356 34.458 68.7926C34.201 69.0497 33.8735 69.2247 33.5169 69.2957C33.1604 69.3666 32.7908 69.3302 32.455 69.1911C32.1191 69.052 31.832 68.8164 31.6301 68.5141C31.4281 68.2118 31.3203 67.8565 31.3203 67.4929C31.3203 67.0055 31.514 66.538 31.8587 66.1933C32.2034 65.8486 32.6709 65.6549 33.1584 65.6549V65.6549Z" fill="#FABC05"/>
<path d="M28.5172 40.8003C29.5324 40.8003 30.3553 39.9774 30.3553 38.9623C30.3553 37.9472 29.5324 37.1243 28.5172 37.1243C27.5021 37.1243 26.6792 37.9472 26.6792 38.9623C26.6792 39.9774 27.5021 40.8003 28.5172 40.8003Z" fill="white"/>
<path d="M33.6676 30.6646C34.0312 30.6646 34.3865 30.7723 34.6888 30.9743C34.9911 31.1763 35.2266 31.4633 35.3658 31.7992C35.5049 32.1351 35.5413 32.5046 35.4704 32.8612C35.3994 33.2177 35.2244 33.5452 34.9673 33.8023C34.7103 34.0593 34.3828 34.2344 34.0262 34.3053C33.6697 34.3762 33.3001 34.3398 32.9642 34.2007C32.6284 34.0616 32.3413 33.826 32.1394 33.5238C31.9374 33.2215 31.8296 32.8661 31.8296 32.5026C31.8296 32.0151 32.0232 31.5476 32.3679 31.2029C32.7126 30.8582 33.1802 30.6646 33.6676 30.6646V30.6646Z" fill="#FABC05"/>
<path d="M64.3127 48.7578H68.2094C68.3654 49.3392 68.7275 49.8441 69.2281 50.1784C69.7288 50.5128 70.3339 50.6537 70.9307 50.575C71.5275 50.4963 72.0754 50.2034 72.4723 49.7507C72.8692 49.2981 73.088 48.7166 73.088 48.1146C73.088 47.5126 72.8692 46.9311 72.4723 46.4784C72.0754 46.0258 71.5275 45.7328 70.9307 45.6542C70.3339 45.5755 69.7288 45.7164 69.2281 46.0507C68.7275 46.385 68.3654 46.8899 68.2094 47.4714H64.3127V44.356H67.2065C67.3088 44.356 67.4097 44.3316 67.5007 44.2848C67.5917 44.238 67.6703 44.1702 67.7298 44.087L69.7356 41.2835C70.2986 41.4939 70.9189 41.4926 71.481 41.2797C72.0431 41.0668 72.5086 40.6569 72.791 40.1263C73.0733 39.5957 73.1532 38.9805 73.0157 38.3954C72.8782 37.8103 72.5327 37.2951 72.0436 36.9458C71.5546 36.5964 70.9552 36.4367 70.3571 36.4965C69.759 36.5562 69.203 36.8312 68.7927 37.2704C68.3823 37.7095 68.1456 38.2829 68.1265 38.8836C68.1074 39.4843 68.3073 40.0715 68.689 40.5359L66.8746 43.0686H64.3118V40.6836C64.3118 40.5128 64.2439 40.3491 64.1232 40.2284C64.0025 40.1077 63.8388 40.0399 63.6681 40.0399C62.6733 40.0398 61.7039 39.7255 60.8983 39.1418L64.4467 34.7655C64.9985 35.0129 65.6214 35.0511 66.1992 34.8731C66.7771 34.6952 67.2706 34.3131 67.5876 33.7983C67.9047 33.2834 68.0237 32.6708 67.9225 32.0746C67.8212 31.4785 67.5067 30.9395 67.0375 30.5581C66.5683 30.1768 65.9764 29.979 65.3721 30.0018C64.7679 30.0245 64.1925 30.2662 63.7533 30.6818C63.3141 31.0974 63.041 31.6585 62.9849 32.2605C62.9288 32.8626 63.0935 33.4645 63.4484 33.9541L59.961 38.2565C59.2829 37.4145 58.9138 36.3655 58.9153 35.2843C58.9185 35.1978 58.9043 35.1115 58.8734 35.0306C58.8426 34.9498 58.7957 34.8759 58.7357 34.8136C58.6756 34.7512 58.6036 34.7016 58.5239 34.6677C58.4443 34.6339 58.3586 34.6164 58.272 34.6164C58.1855 34.6164 58.0998 34.6339 58.0201 34.6677C57.9405 34.7016 57.8685 34.7512 57.8084 34.8136C57.7484 34.8759 57.7015 34.9498 57.6706 35.0306C57.6398 35.1115 57.6256 35.1978 57.6288 35.2843C57.6288 36.0983 57.794 36.9038 58.1143 37.6521C58.4347 38.4004 58.9035 39.0759 59.4924 39.6378C59.5194 39.673 59.55 39.7054 59.5836 39.7344C59.5863 39.7339 59.5891 39.7339 59.5918 39.7344C60.5399 40.6046 61.742 41.1478 63.0217 41.2844V52.3846C63.0224 54.3678 62.5387 56.3211 61.6125 58.0747C60.6862 59.8283 59.3456 61.3291 57.7072 62.4465L49.5591 68.008L41.411 62.4465C39.7724 61.3292 38.4317 59.8285 37.5053 58.0749C36.5789 56.3213 36.095 54.3679 36.0957 52.3846V41.2926C37.37 41.1561 38.5675 40.6163 39.5137 39.7518C39.521 39.7463 39.5292 39.7445 39.5365 39.739C39.5701 39.7103 39.6006 39.6782 39.6277 39.6433C40.6565 38.6611 41.3047 37.3467 41.4575 35.9325H54.3676C54.4541 35.9358 54.5403 35.9216 54.6212 35.8907C54.7021 35.8599 54.7759 35.813 54.8383 35.753C54.9006 35.6929 54.9502 35.6209 54.9841 35.5412C55.018 35.4616 55.0355 35.3759 55.0355 35.2893C55.0355 35.2028 55.018 35.1171 54.9841 35.0374C54.9502 34.9577 54.9006 34.8857 54.8383 34.8257C54.7759 34.7656 54.7021 34.7188 54.6212 34.6879C54.5403 34.6571 54.4541 34.6428 54.3676 34.6461H40.8521C40.6814 34.6461 40.5177 34.7139 40.397 34.8346C40.2763 34.9553 40.2085 35.1191 40.2085 35.2898C40.2088 36.3694 39.8398 37.4166 39.1627 38.2574L35.6744 33.9587C36.0278 33.4704 36.1916 32.8703 36.1353 32.2702C36.079 31.6701 35.8065 31.1109 35.3685 30.6968C34.9306 30.2828 34.357 30.042 33.7547 30.0195C33.1524 29.9969 32.5624 30.1941 32.0947 30.5742C31.627 30.9544 31.3134 31.4916 31.2124 32.0858C31.1114 32.68 31.2298 33.2907 31.5456 33.804C31.8615 34.3174 32.3532 34.6984 32.9291 34.8761C33.505 35.0539 34.1259 35.0162 34.6761 34.7701L38.2255 39.1464C37.4198 39.73 36.4504 40.0443 35.4556 40.0444C35.2849 40.0444 35.1212 40.1122 35.0005 40.233C34.8798 40.3537 34.812 40.5174 34.812 40.6881V43.0732H32.2482L30.4348 40.5359C30.8222 40.0672 31.0259 39.4736 31.0079 38.8658C30.9899 38.258 30.7514 37.6775 30.3369 37.2326C29.9223 36.7878 29.3601 36.5089 28.7551 36.448C28.1501 36.3872 27.5436 36.5486 27.0488 36.902C26.554 37.2554 26.2047 37.7768 26.066 38.3688C25.9273 38.9609 26.0088 39.5832 26.2952 40.1196C26.5816 40.656 27.0533 41.0699 27.6224 41.284C28.1915 41.4982 28.8191 41.498 29.3881 41.2835L31.3939 44.087C31.4529 44.1709 31.5311 44.2396 31.6219 44.2871C31.7128 44.3347 31.8137 44.3599 31.9163 44.3605H34.812V47.4759H30.9107C30.7546 46.8945 30.3926 46.3896 29.8919 46.0553C29.3913 45.721 28.7862 45.58 28.1894 45.6587C27.5925 45.7374 27.0446 46.0304 26.6478 46.483C26.2509 46.9357 26.032 47.5171 26.032 48.1191C26.032 48.7211 26.2509 49.3026 26.6478 49.7553C27.0446 50.2079 27.5925 50.5009 28.1894 50.5796C28.7862 50.6583 29.3913 50.5173 29.8919 50.183C30.3926 49.8487 30.7546 49.3438 30.9107 48.7624H34.812V52.3892C34.812 52.5506 34.8211 52.7101 34.8265 52.8715H31.6419C31.5225 52.8715 31.4055 52.9046 31.3039 52.9673C31.2023 53.0299 31.1202 53.1195 31.0666 53.2262L29.017 57.3107C28.4242 57.1857 27.8061 57.2806 27.278 57.5777C26.75 57.8747 26.348 58.3537 26.147 58.9253C25.9461 59.4969 25.9598 60.122 26.1858 60.6842C26.4117 61.2464 26.8344 61.7072 27.375 61.9807C27.9157 62.2543 28.5373 62.3219 29.1241 62.1709C29.7108 62.0199 30.2227 61.6607 30.5641 61.1602C30.9056 60.6597 31.0534 60.0521 30.9799 59.4507C30.9065 58.8492 30.6168 58.2951 30.1649 57.8915L32.0385 54.1534H34.9314C35.3167 57.0754 36.6508 59.7901 38.7287 61.8803L34.5585 65.447C34.0595 65.1029 33.4524 64.952 32.8504 65.0225C32.2484 65.093 31.6925 65.3801 31.2866 65.8302C30.8806 66.2802 30.6521 66.8626 30.6439 67.4687C30.6356 68.0748 30.848 68.6632 31.2416 69.1241C31.6351 69.5851 32.1829 69.8873 32.7828 69.9742C33.3826 70.0611 33.9936 69.9269 34.5018 69.5965C35.01 69.2662 35.3807 68.7623 35.5448 68.1788C35.7089 67.5953 35.6552 66.972 35.3936 66.4252L39.6897 62.7492C40.0106 63.0154 40.3407 63.2716 40.6926 63.5086L49.2036 69.3163C49.3106 69.3908 49.4378 69.4308 49.5682 69.4308C49.6986 69.4308 49.8259 69.3908 49.9329 69.3163L58.4439 63.5086C58.7913 63.2716 59.1213 63.0154 59.4468 62.7492L63.7429 66.4252C63.4841 66.9686 63.4318 67.5874 63.5954 68.1665C63.7591 68.7456 64.1277 69.2454 64.6325 69.5729C65.1373 69.9005 65.744 70.0333 66.3395 69.9468C66.935 69.8602 67.4788 69.5601 67.8695 69.1025C68.2602 68.6448 68.4713 68.0607 68.4633 67.459C68.4554 66.8573 68.229 66.2789 67.8263 65.8317C67.4236 65.3845 66.8721 65.099 66.2745 65.0282C65.6769 64.9574 65.074 65.1062 64.578 65.447L60.4068 61.8785C62.4848 59.7883 63.8189 57.0736 64.2042 54.1516H67.0971L68.9716 57.8851C68.5281 58.2842 68.2446 58.8309 68.1739 59.4233C68.1033 60.0158 68.2502 60.6138 68.5874 61.1061C68.9246 61.5983 69.4291 61.9514 70.0071 62.0995C70.5851 62.2476 71.1972 62.1808 71.7296 61.9114C72.262 61.6421 72.6785 61.1885 72.9015 60.635C73.1245 60.0816 73.139 59.466 72.9421 58.9028C72.7452 58.3395 72.3505 57.8669 71.8313 57.5729C71.3121 57.2789 70.7038 57.1834 70.1195 57.3043L68.0699 53.2198C68.0163 53.1132 67.9341 53.0235 67.8325 52.9609C67.731 52.8983 67.614 52.8651 67.4946 52.8651H64.2981C64.3036 52.7047 64.3127 52.5442 64.3127 52.3828V48.7578ZM70.6036 46.9198C70.8398 46.9198 71.0707 46.9898 71.2671 47.121C71.4636 47.2523 71.6166 47.4388 71.707 47.6571C71.7974 47.8753 71.8211 48.1154 71.775 48.3471C71.7289 48.5788 71.6152 48.7916 71.4481 48.9587C71.2811 49.1257 71.0683 49.2395 70.8366 49.2855C70.6049 49.3316 70.3648 49.308 70.1465 49.2176C69.9283 49.1272 69.7418 48.9741 69.6105 48.7777C69.4793 48.5813 69.4092 48.3503 69.4092 48.1141C69.4092 47.957 69.4402 47.8014 69.5005 47.6562C69.5607 47.5111 69.649 47.3792 69.7603 47.2683C69.8716 47.1573 70.0037 47.0694 70.1491 47.0096C70.2944 46.9498 70.4501 46.9193 70.6072 46.9198H70.6036ZM70.6036 37.766C70.8398 37.766 71.0707 37.8361 71.2671 37.9673C71.4636 38.0986 71.6166 38.2851 71.707 38.5033C71.7974 38.7216 71.8211 38.9617 71.775 39.1934C71.7289 39.4251 71.6152 39.6379 71.4481 39.8049C71.2811 39.972 71.0683 40.0857 70.8366 40.1318C70.6049 40.1779 70.3648 40.1542 70.1465 40.0638C69.9283 39.9734 69.7418 39.8204 69.6105 39.6239C69.4793 39.4275 69.4092 39.1966 69.4092 38.9604C69.4092 38.6436 69.5351 38.3398 69.759 38.1158C69.983 37.8919 70.2868 37.766 70.6036 37.766ZM65.4532 31.3074C65.6895 31.3074 65.9204 31.3774 66.1168 31.5086C66.3132 31.6399 66.4663 31.8264 66.5567 32.0447C66.6471 32.2629 66.6707 32.503 66.6247 32.7347C66.5786 32.9664 66.4648 33.1792 66.2978 33.3463C66.1308 33.5133 65.9179 33.627 65.6863 33.6731C65.4546 33.7192 65.2144 33.6956 64.9962 33.6052C64.7779 33.5148 64.5914 33.3617 64.4602 33.1653C64.3289 32.9689 64.2589 32.7379 64.2589 32.5017C64.259 32.3446 64.2901 32.1891 64.3504 32.0441C64.4107 31.8991 64.499 31.7673 64.6103 31.6565C64.7216 31.5456 64.8537 31.4578 64.9989 31.398C65.1442 31.3383 65.2998 31.3078 65.4569 31.3083L65.4532 31.3074ZM32.4697 32.5026C32.4697 32.2664 32.5398 32.0355 32.671 31.8391C32.8023 31.6427 32.9888 31.4896 33.207 31.3992C33.4253 31.3088 33.6654 31.2851 33.8971 31.3312C34.1288 31.3773 34.3416 31.4911 34.5086 31.6581C34.6757 31.8251 34.7894 32.0379 34.8355 32.2696C34.8816 32.5013 34.8579 32.7415 34.7675 32.9597C34.6771 33.1779 34.5241 33.3645 34.3276 33.4957C34.1312 33.6269 33.9003 33.697 33.6641 33.697C33.3473 33.697 33.0435 33.5712 32.8195 33.3472C32.5956 33.1232 32.4697 32.8194 32.4697 32.5026ZM27.3221 38.9622C27.3221 38.726 27.3922 38.4951 27.5234 38.2987C27.6546 38.1022 27.8412 37.9492 28.0594 37.8588C28.2777 37.7684 28.5178 37.7447 28.7495 37.7908C28.9812 37.8369 29.194 37.9506 29.361 38.1177C29.5281 38.2847 29.6418 38.4975 29.6879 38.7292C29.734 38.9609 29.7103 39.201 29.6199 39.4193C29.5295 39.6375 29.3764 39.824 29.18 39.9553C28.9836 40.0865 28.7527 40.1566 28.5165 40.1566C28.1997 40.1566 27.8959 40.0307 27.6719 39.8068C27.448 39.5828 27.3221 39.279 27.3221 38.9622ZM28.5165 49.3094C28.2803 49.3094 28.0493 49.2393 27.8529 49.1081C27.6565 48.9769 27.5034 48.7903 27.413 48.5721C27.3226 48.3539 27.299 48.1137 27.3451 47.882C27.3912 47.6503 27.5049 47.4375 27.6719 47.2705C27.839 47.1035 28.0518 46.9897 28.2835 46.9436C28.5152 46.8975 28.7553 46.9212 28.9735 47.0116C29.1918 47.102 29.3783 47.2551 29.5096 47.4515C29.6408 47.6479 29.7108 47.8788 29.7108 48.115C29.7108 48.4318 29.585 48.7356 29.361 48.9596C29.137 49.1836 28.8332 49.3094 28.5165 49.3094ZM28.5165 60.9312C28.2803 60.9312 28.0493 60.8611 27.8529 60.7299C27.6565 60.5986 27.5034 60.4121 27.413 60.1939C27.3226 59.9756 27.299 59.7355 27.3451 59.5038C27.3912 59.2721 27.5049 59.0593 27.6719 58.8923C27.839 58.7252 28.0518 58.6115 28.2835 58.5654C28.5152 58.5193 28.7553 58.543 28.9735 58.6334C29.1918 58.7238 29.3783 58.8768 29.5096 59.0733C29.6408 59.2697 29.7108 59.5006 29.7108 59.7368C29.7108 60.0534 29.5851 60.3571 29.3613 60.581C29.1376 60.805 28.834 60.9309 28.5174 60.9312H28.5165ZM33.1572 68.6872C32.9209 68.6872 32.69 68.6172 32.4936 68.4859C32.2972 68.3547 32.1441 68.1682 32.0537 67.9499C31.9633 67.7317 31.9397 67.4915 31.9858 67.2599C32.0318 67.0282 32.1456 66.8154 32.3126 66.6483C32.4797 66.4813 32.6925 66.3675 32.9242 66.3215C33.1558 66.2754 33.396 66.299 33.6142 66.3894C33.8325 66.4798 34.019 66.6329 34.1502 66.8293C34.2815 67.0257 34.3515 67.2566 34.3515 67.4929C34.3515 67.8096 34.2257 68.1134 34.0017 68.3374C33.7777 68.5614 33.4739 68.6872 33.1572 68.6872ZM71.8025 59.7359C71.8025 59.9721 71.7325 60.203 71.6012 60.3994C71.47 60.5959 71.2835 60.7489 71.0652 60.8393C70.847 60.9297 70.6068 60.9534 70.3751 60.9073C70.1435 60.8612 69.9306 60.7475 69.7636 60.5804C69.5966 60.4134 69.4828 60.2006 69.4367 59.9689C69.3907 59.7372 69.4143 59.4971 69.5047 59.2788C69.5951 59.0606 69.7482 58.8741 69.9446 58.7428C70.141 58.6116 70.3719 58.5415 70.6082 58.5415C70.9249 58.5415 71.2287 58.6674 71.4527 58.8914C71.6767 59.1153 71.8025 59.4191 71.8025 59.7359ZM67.1618 67.492C67.1618 67.7282 67.0918 67.9591 66.9605 68.1555C66.8293 68.3519 66.6428 68.505 66.4245 68.5954C66.2063 68.6858 65.9661 68.7095 65.7345 68.6634C65.5028 68.6173 65.29 68.5035 65.1229 68.3365C64.9559 68.1695 64.8421 67.9566 64.7961 67.725C64.75 67.4933 64.7736 67.2531 64.864 67.0349C64.9544 66.8167 65.1075 66.6301 65.3039 66.4989C65.5003 66.3676 65.7312 66.2976 65.9675 66.2976C66.1243 66.2976 66.2796 66.3285 66.4245 66.3885C66.5694 66.4485 66.7011 66.5365 66.812 66.6474C66.9229 66.7583 67.0109 66.89 67.0709 67.0349C67.1309 67.1798 67.1618 67.3351 67.1618 67.492Z" fill="black"/>
<path d="M46.1801 61.2493C46.1105 61.1974 46.031 61.16 45.9466 61.1396C45.8622 61.1191 45.7745 61.1159 45.6888 61.1303C45.6031 61.1446 45.5212 61.1762 45.448 61.223C45.3748 61.2699 45.3119 61.331 45.263 61.4028C45.2141 61.4747 45.1803 61.5556 45.1635 61.6409C45.1467 61.7261 45.1474 61.8139 45.1654 61.8989C45.1835 61.9838 45.2185 62.0643 45.2685 62.1354C45.3185 62.2064 45.3823 62.2667 45.4562 62.3124L46.5047 63.0281C46.6456 63.1248 46.8193 63.1616 46.9873 63.1303C47.1554 63.099 47.3042 63.0022 47.4009 62.8613C47.4976 62.7203 47.5344 62.5467 47.5031 62.3786C47.4718 62.2105 47.375 62.0617 47.234 61.965L46.1801 61.2493Z" fill="black"/>
<path d="M43.1605 38.7015C42.3109 40.6146 40.7812 42.1442 38.8681 42.9939C38.7544 43.0445 38.6578 43.1269 38.59 43.2313C38.5222 43.3357 38.4861 43.4575 38.4861 43.5819V52.3847C38.4853 53.9792 38.8742 55.5498 39.619 56.9597C40.3637 58.3697 41.4418 59.5762 42.7593 60.4744C42.9007 60.5634 43.0712 60.5941 43.2347 60.5599C43.3983 60.5257 43.5422 60.4293 43.6361 60.2911C43.7299 60.1529 43.7665 59.9836 43.738 59.819C43.7095 59.6543 43.6181 59.5072 43.4833 59.4086C42.3399 58.6289 41.4043 57.5819 40.7576 56.3584C40.1109 55.135 39.7728 53.7721 39.7725 52.3883V43.9895C41.6726 43.0453 43.2119 41.5059 44.1561 39.6059H54.9655C55.9097 41.5059 57.4491 43.0453 59.3491 43.9895V52.3847C59.3487 53.7687 59.0102 55.1316 58.3632 56.3551C57.7162 57.5785 56.7802 58.6255 55.6366 59.4049L49.1998 63.7986C49.13 63.8464 49.0703 63.9076 49.0241 63.9786C48.978 64.0495 48.9462 64.1289 48.9307 64.2121C48.9153 64.2953 48.9163 64.3808 48.9338 64.4636C48.9514 64.5464 48.985 64.625 49.0329 64.6948C49.0808 64.7646 49.142 64.8243 49.213 64.8704C49.2839 64.9166 49.3633 64.9483 49.4465 64.9638C49.5297 64.9793 49.6152 64.9783 49.698 64.9607C49.7808 64.9432 49.8594 64.9095 49.9292 64.8616L56.3669 60.4698C57.6839 59.5718 58.7615 58.3657 59.5061 56.9563C60.2507 55.5468 60.6397 53.9768 60.6392 52.3828V43.5792C60.6392 43.4547 60.6031 43.333 60.5353 43.2286C60.4675 43.1242 60.3709 43.0417 60.2572 42.9911C58.3446 42.1415 56.8153 40.6123 55.9657 38.6996C55.9151 38.5859 55.8326 38.4893 55.7283 38.4215C55.6239 38.3537 55.5021 38.3176 55.3776 38.3176H43.7495C43.6247 38.3176 43.5025 38.3539 43.398 38.422C43.2934 38.4902 43.2109 38.5873 43.1605 38.7015Z" fill="black"/>
</svg>
