<svg width="100" height="100" viewBox="0 0 100 100" fill="none" xmlns="http://www.w3.org/2000/svg">
<path d="M50 100C77.6142 100 100 77.6142 100 50C100 22.3858 77.6142 0 50 0C22.3858 0 0 22.3858 0 50C0 77.6142 22.3858 100 50 100Z" fill="#EFF3FC"/>
<path d="M62.2497 33.3121H46.3112V31.5614C46.3133 31.4378 46.2906 31.3149 46.2442 31.2003C46.1979 31.0856 46.1289 30.9814 46.0414 30.894C45.9539 30.8066 45.8497 30.7377 45.735 30.6915C45.6203 30.6452 45.4974 30.6225 45.3738 30.6248H37.8736C37.7499 30.6225 37.627 30.6452 37.5122 30.6915C37.3975 30.7378 37.2932 30.8068 37.2057 30.8943C37.1182 30.9818 37.0492 31.0861 37.0029 31.2008C36.9566 31.3156 36.9339 31.4385 36.9362 31.5622V48.875C36.9422 49.1217 37.043 49.3567 37.2175 49.5312C37.392 49.7057 37.6269 49.8064 37.8736 49.8124H62.2497C62.4964 49.8064 62.7314 49.7057 62.9059 49.5312C63.0804 49.3567 63.1811 49.1217 63.1871 48.875V34.2495C63.1894 34.1258 63.1667 34.0029 63.1204 33.8881C63.0741 33.7734 63.0051 33.6691 62.9176 33.5816C62.8301 33.4941 62.7259 33.4252 62.6111 33.3788C62.4963 33.3325 62.3734 33.3098 62.2497 33.3121Z" fill="white"/>
<path d="M64.2489 38.3749H45.7488V36.3751C45.7494 36.2272 45.7208 36.0807 45.6645 35.9439C45.6082 35.8072 45.5254 35.6829 45.4209 35.5783C45.3164 35.4737 45.1922 35.3909 45.0554 35.3345C44.9187 35.2781 44.7722 35.2494 44.6243 35.2499H35.8708C35.7229 35.2493 35.5763 35.2779 35.4395 35.3343C35.3027 35.3906 35.1784 35.4734 35.0738 35.5781C34.9692 35.6827 34.8863 35.807 34.83 35.9438C34.7737 36.0806 34.745 36.2272 34.7456 36.3751V54.8124C34.7447 54.9605 34.7731 55.1074 34.8293 55.2444C34.8855 55.3815 34.9683 55.5061 35.0729 55.611C35.1776 55.7158 35.302 55.7989 35.4389 55.8554C35.5759 55.9119 35.7227 55.9406 35.8708 55.94H64.2489C64.3968 55.9406 64.5434 55.9119 64.6802 55.8556C64.817 55.7993 64.9413 55.7164 65.0459 55.6118C65.1506 55.5072 65.2334 55.3829 65.2897 55.2461C65.3461 55.1093 65.3747 54.9627 65.3741 54.8147V39.5001C65.3747 39.3522 65.3461 39.2056 65.2897 39.0688C65.2334 38.932 65.1506 38.8077 65.0459 38.7031C64.9413 38.5984 64.817 38.5156 64.6802 38.4593C64.5434 38.4029 64.3968 38.3743 64.2489 38.3749Z" fill="white"/>
<path d="M36.9978 41H63.1851V53.7499H36.9978V41Z" fill="#56DCE8"/>
<path d="M60.8727 43.4375H59.6226V44.6877H60.8727V43.4375Z" fill="#193651"/>
<path d="M60.8726 46.6874H59.6224V47.9375H60.8726V46.6874Z" fill="#193651"/>
<path d="M60.8726 49.9374H59.6224V51.1875H60.8726V49.9374Z" fill="#193651"/>
<path d="M50.8721 44.313H39.2474V46.3756H50.8721V44.313Z" fill="white"/>
<path d="M50.8722 48.5631H39.2476V50.6258H50.8722V48.5631Z" fill="white"/>
<path d="M65.8733 69.3757C66.3412 69.3759 66.8046 69.2839 67.237 69.105C67.6693 68.926 68.0621 68.6636 68.393 68.3327C68.7239 68.0018 68.9863 67.609 69.1652 67.1767C69.3442 66.7443 69.4362 66.281 69.436 65.8131C69.4362 65.3451 69.3442 64.8818 69.1652 64.4494C68.9863 64.0171 68.7239 63.6243 68.393 63.2934C68.0621 62.9625 67.6693 62.7001 67.237 62.5211C66.8046 62.3422 66.3412 62.2502 65.8733 62.2504C65.4054 62.2502 64.9421 62.3422 64.5097 62.5211C64.0774 62.7001 63.6846 62.9625 63.3537 63.2934C63.0228 63.6243 62.7604 64.0171 62.5814 64.4494C62.4025 64.8818 62.3105 65.3451 62.3107 65.8131C62.3105 66.281 62.4025 66.7443 62.5814 67.1767C62.7604 67.609 63.0228 68.0018 63.3537 68.3327C63.6846 68.6636 64.0774 68.926 64.5097 69.105C64.9421 69.2839 65.4054 69.3759 65.8733 69.3757Z" fill="#21D885"/>
<path d="M50.0606 69.3757C50.5285 69.3759 50.9919 69.2839 51.4242 69.105C51.8566 68.926 52.2494 68.6636 52.5803 68.3327C52.9111 68.0018 53.1735 67.609 53.3525 67.1767C53.5315 66.7443 53.6235 66.281 53.6233 65.8131C53.6235 65.3451 53.5315 64.8818 53.3525 64.4494C53.1735 64.0171 52.9111 63.6243 52.5803 63.2934C52.2494 62.9625 51.8566 62.7001 51.4242 62.5211C50.9919 62.3422 50.5285 62.2502 50.0606 62.2504C49.5927 62.2502 49.1293 62.3422 48.697 62.5211C48.2646 62.7001 47.8718 62.9625 47.5409 63.2934C47.2101 63.6243 46.9477 64.0171 46.7687 64.4494C46.5897 64.8818 46.4977 65.3451 46.4979 65.8131C46.4977 66.281 46.5897 66.7443 46.7687 67.1767C46.9477 67.609 47.2101 68.0018 47.5409 68.3327C47.8718 68.6636 48.2646 68.926 48.697 69.105C49.1293 69.2839 49.5927 69.3759 50.0606 69.3757Z" fill="#FBBC05"/>
<path d="M34.2477 69.3757C34.7156 69.3759 35.179 69.2839 35.6114 69.105C36.0437 68.926 36.4365 68.6636 36.7674 68.3327C37.0983 68.0018 37.3607 67.609 37.5396 67.1767C37.7186 66.7443 37.8106 66.281 37.8104 65.8131C37.8106 65.3451 37.7186 64.8818 37.5396 64.4494C37.3607 64.0171 37.0983 63.6243 36.7674 63.2934C36.4365 62.9625 36.0437 62.7001 35.6114 62.5211C35.179 62.3422 34.7156 62.2502 34.2477 62.2504C33.7798 62.2502 33.3164 62.3422 32.8841 62.5211C32.4518 62.7001 32.0589 62.9625 31.7281 63.2934C31.3972 63.6243 31.1348 64.0171 30.9558 64.4494C30.7769 64.8818 30.6848 65.3451 30.6851 65.8131C30.6952 66.7548 31.0738 67.6551 31.7398 68.321C32.4057 68.987 33.306 69.3656 34.2477 69.3757Z" fill="#01C3FF"/>
<path d="M65.8725 61.6249C65.263 61.622 64.6606 61.7552 64.1091 62.0147C63.5576 62.2742 63.071 62.6535 62.6846 63.1249L52.2481 56.563H64.2483C64.7127 56.563 65.158 56.3785 65.4863 56.0502C65.8146 55.7219 65.999 55.2766 65.999 54.8123V39.5C65.999 39.2701 65.9538 39.0425 65.8658 38.8301C65.7778 38.6177 65.6488 38.4247 65.4863 38.2621C65.3237 38.0995 65.1307 37.9706 64.9183 37.8826C64.7059 37.7946 64.4782 37.7493 64.2483 37.7493H63.8091V34.248C63.8112 34.0421 63.7722 33.8379 63.6944 33.6473C63.6166 33.4568 63.5016 33.2836 63.3561 33.1381C63.2105 32.9925 63.0374 32.8775 62.8468 32.7997C62.6562 32.7219 62.452 32.6829 62.2462 32.6851H46.9387V31.563C46.9408 31.3569 46.9018 31.1525 46.8238 30.9617C46.7458 30.7709 46.6305 30.5976 46.4846 30.452C46.3387 30.3064 46.1652 30.1914 45.9742 30.1138C45.7833 30.0362 45.5787 29.9976 45.3726 30.0001H37.8733C37.6674 29.998 37.4632 30.037 37.2727 30.1148C37.0821 30.1925 36.9089 30.3076 36.7634 30.4531C36.6178 30.5987 36.5028 30.7718 36.425 30.9624C36.3472 31.153 36.3082 31.3572 36.3104 31.563V34.6251H35.8727C35.4084 34.6251 34.9631 34.8096 34.6348 35.1379C34.3064 35.4662 34.122 35.9115 34.122 36.3758V54.8123C34.122 55.2766 34.3064 55.7219 34.6348 56.0502C34.9631 56.3785 35.4084 56.563 35.8727 56.563H47.8729L37.4356 63.0629C37.0401 62.6022 36.5515 62.2303 36.0021 61.9718C35.4527 61.7133 34.8548 61.5739 34.2477 61.5628C33.4136 61.5569 32.5964 61.7984 31.8995 62.2569C31.2026 62.7154 30.6573 63.3702 30.3326 64.1386C30.0079 64.907 29.9184 65.7545 30.0753 66.5738C30.2322 67.3931 30.6286 68.1474 31.2143 68.7414C31.7999 69.3354 32.5486 69.7424 33.3656 69.911C34.1826 70.0795 35.0312 70.0019 35.8041 69.6881C36.577 69.3743 37.2395 68.8384 37.7078 68.1481C38.1762 67.4577 38.4292 66.644 38.4351 65.8099C38.4444 65.2256 38.316 64.6474 38.0603 64.122L49.435 57.0596V61.6878C48.6441 61.8089 47.9045 62.1544 47.3042 62.6834C46.7038 63.2124 46.2679 63.9026 46.0482 64.672C45.8285 65.4414 45.8342 66.2577 46.0647 67.0239C46.2952 67.7902 46.7407 68.4742 47.3485 68.9947C47.9562 69.5152 48.7005 69.8503 49.4931 69.9603C50.2857 70.0703 51.0932 69.9505 51.8197 69.6151C52.5461 69.2798 53.1611 68.743 53.5916 68.0684C54.022 67.3939 54.2498 66.61 54.2479 65.8099C54.2567 64.8068 53.9 63.8347 53.2443 63.0755C52.5886 62.3163 51.6789 61.8219 50.6852 61.6846V57.0627L61.9979 64.1252C61.7427 64.6496 61.6143 65.2267 61.6231 65.8099C61.6231 66.3598 61.7314 66.9043 61.9418 67.4123C62.1523 67.9203 62.4607 68.3819 62.8495 68.7708C63.2384 69.1596 63.7 69.468 64.208 69.6785C64.716 69.8889 65.2605 69.9972 65.8104 69.9972C66.3603 69.9972 66.9048 69.8889 67.4129 69.6785C67.9209 69.468 68.3825 69.1596 68.7713 68.7708C69.1602 68.3819 69.4686 67.9203 69.679 67.4123C69.8895 66.9043 69.9978 66.3598 69.9978 65.8099C70.0097 65.2621 69.9116 64.7174 69.7093 64.2082C69.507 63.699 69.2045 63.2355 68.8198 62.8453C68.4352 62.4551 67.9761 62.146 67.4699 61.9364C66.9636 61.7267 66.4204 61.6208 65.8725 61.6249ZM34.2477 68.7502C33.667 68.7501 33.0993 68.5778 32.6165 68.2551C32.1336 67.9324 31.7573 67.4738 31.535 66.9372C31.3127 66.4007 31.2545 65.8103 31.3676 65.2407C31.4808 64.6711 31.7603 64.1478 32.1708 63.737C32.5813 63.3262 33.1043 63.0462 33.6739 62.9326C34.2434 62.819 34.8338 62.8768 35.3705 63.0986C35.9072 63.3204 36.3661 63.6964 36.6892 64.179C37.0123 64.6616 37.1851 65.2291 37.1857 65.8099C37.1866 66.196 37.1112 66.5786 36.9638 66.9355C36.8165 67.2925 36.6002 67.6169 36.3272 67.8901C36.0543 68.1632 35.7301 68.3798 35.3732 68.5274C35.0164 68.6751 34.6339 68.7508 34.2477 68.7502ZM37.5605 31.563C37.558 31.5213 37.5643 31.4795 37.5791 31.4404C37.5939 31.4013 37.6169 31.3658 37.6464 31.3362C37.676 31.3066 37.7115 31.2837 37.7506 31.2689C37.7897 31.2541 37.8315 31.2477 37.8733 31.2503H45.3734C45.4152 31.2477 45.457 31.2541 45.4961 31.2689C45.5352 31.2837 45.5707 31.3066 45.6002 31.3362C45.6298 31.3658 45.6528 31.4013 45.6676 31.4404C45.6824 31.4795 45.6887 31.5213 45.6862 31.563V33.9376H62.2478C62.2895 33.935 62.3313 33.9414 62.3704 33.9562C62.4095 33.971 62.445 33.994 62.4746 34.0235C62.5042 34.0531 62.5271 34.0886 62.5419 34.1277C62.5567 34.1668 62.5631 34.2086 62.5605 34.2503V37.7517H46.31V36.375C46.31 35.9107 46.1256 35.4654 45.7973 35.1371C45.469 34.8088 45.0237 34.6244 44.5593 34.6244H37.5566V31.563H37.5605ZM52.9977 65.8099C52.9977 66.3908 52.8255 66.9587 52.5027 67.4417C52.18 67.9247 51.7212 68.3012 51.1845 68.5235C50.6478 68.7458 50.0573 68.804 49.4875 68.6906C48.9177 68.5773 48.3944 68.2976 47.9836 67.8868C47.5728 67.476 47.2931 66.9526 47.1798 66.3829C47.0664 65.8131 47.1246 65.2226 47.3469 64.6858C47.5692 64.1491 47.9457 63.6904 48.4287 63.3677C48.9117 63.0449 49.4796 62.8727 50.0605 62.8727C50.4464 62.8722 50.8285 62.9479 51.185 63.0954C51.5416 63.2429 51.8655 63.4592 52.1384 63.732C52.4112 64.0048 52.6275 64.3288 52.775 64.6854C52.9224 65.0419 52.9981 65.424 52.9977 65.8099ZM35.8727 55.3128C35.8068 55.3138 35.7414 55.3015 35.6803 55.2768C35.6192 55.252 35.5638 55.2152 35.5172 55.1686C35.4706 55.122 35.4338 55.0665 35.409 55.0055C35.3843 54.9444 35.372 54.879 35.373 54.8131V36.375C35.372 36.3092 35.3843 36.2437 35.409 36.1827C35.4338 36.1216 35.4706 36.0661 35.5172 36.0195C35.5638 35.9729 35.6192 35.9362 35.6803 35.9114C35.7414 35.8866 35.8068 35.8743 35.8727 35.8753H44.6262C44.6921 35.8743 44.7575 35.8866 44.8186 35.9114C44.8796 35.9362 44.9351 35.9729 44.9817 36.0195C45.0283 36.0661 45.0651 36.1216 45.0899 36.1827C45.1146 36.2437 45.1269 36.3092 45.1259 36.375V39.0011H64.2475C64.3134 39.0001 64.3789 39.0124 64.4399 39.0372C64.501 39.0619 64.5565 39.0987 64.6031 39.1453C64.6497 39.1919 64.6864 39.2474 64.7112 39.3085C64.736 39.3695 64.7483 39.4349 64.7473 39.5008V54.8123C64.7483 54.8782 64.736 54.9436 64.7112 55.0047C64.6864 55.0657 64.6497 55.1212 64.6031 55.1678C64.5565 55.2144 64.501 55.2512 64.4399 55.276C64.3789 55.3007 64.3134 55.313 64.2475 55.312L35.8727 55.3128ZM65.8733 68.7502C65.2925 68.7502 64.7248 68.5781 64.2418 68.2555C63.7589 67.9329 63.3824 67.4743 63.16 66.9378C62.9376 66.4013 62.8792 65.8109 62.9923 65.2412C63.1054 64.6715 63.3848 64.1482 63.7953 63.7373C64.2057 63.3264 64.7288 63.0464 65.2983 62.9327C65.8679 62.819 66.4584 62.8767 66.9951 63.0985C67.5319 63.3203 67.9908 63.6963 68.3139 64.1789C68.6371 64.6615 68.8099 65.2291 68.8105 65.8099C68.8113 66.196 68.7359 66.5786 68.5886 66.9355C68.4413 67.2925 68.2249 67.6169 67.952 67.8901C67.679 68.1632 67.3548 68.3798 66.998 68.5274C66.6412 68.6751 66.2587 68.7508 65.8725 68.7502H65.8733Z" fill="#2C3E50"/>
</svg>
