<svg width="100" height="100" viewBox="0 0 100 100" fill="none" xmlns="http://www.w3.org/2000/svg">
<path d="M50 100C77.6142 100 100 77.6142 100 50C100 22.3858 77.6142 0 50 0C22.3858 0 0 22.3858 0 50C0 77.6142 22.3858 100 50 100Z" fill="#EFF3FC"/>
<g clip-path="url(#clip0)">
<path d="M58.5032 62.609V66.3851L62.442 68.7558H71.9043L74.1603 66.3851L73.4031 63.2165L70.7709 64.327H66.049L60.294 63.2165L58.5032 62.609Z" fill="#01C3FF"/>
<path d="M27.2776 62.609V66.3851L31.2164 68.7558H40.6787L42.9347 66.3851L42.1775 63.2165L39.5453 64.327H34.8234L29.0684 63.2165L27.2776 62.609Z" fill="#FBBC05"/>
<path d="M42.6143 40.0038V43.7798L46.553 46.1505H56.0153L58.2714 43.7798L57.5142 40.6113L54.882 41.7218H50.1601L44.4051 40.6113L42.6143 40.0038Z" fill="#21D885"/>
<path d="M72.0058 53.5717C70.1528 52.9339 68.2017 52.625 66.2414 52.659C66.0616 52.659 65.8837 52.659 65.7058 52.6665C65.7446 52.2229 65.7664 51.7774 65.7664 51.3328C65.7728 48.8225 65.1539 46.3498 63.965 44.1361C62.776 41.9223 61.0541 40.0365 58.9535 38.6475V33.76C58.9548 33.7356 58.9548 33.7111 58.9535 33.6866C58.874 31.5607 55.3512 30.3749 51.8568 30.1423C51.6719 30.1355 51.4916 30.2007 51.3542 30.3241C51.2167 30.4474 51.133 30.6192 51.1207 30.803C51.1084 30.9868 51.1685 31.1681 51.2882 31.3085C51.408 31.4489 51.578 31.5374 51.7622 31.5551C55.478 31.8028 57.5342 33.015 57.5342 33.7582C57.5342 34.0982 57.0611 34.6756 55.7098 35.1861C54.0189 35.7625 52.2396 36.0399 50.4526 36.0055C48.6655 36.0399 46.8863 35.7625 45.1953 35.1861C43.8365 34.6774 43.3634 34.1001 43.3634 33.76C43.3634 33.0207 45.3051 31.848 48.9519 31.5692C49.1401 31.5549 49.3149 31.4667 49.4377 31.324C49.5606 31.1814 49.6216 30.996 49.6071 30.8086C49.5927 30.6213 49.5041 30.4473 49.3608 30.325C49.2175 30.2027 49.0313 30.142 48.843 30.1564C45.447 30.4164 42.0226 31.6078 41.9441 33.6875C41.9428 33.7117 41.9428 33.7359 41.9441 33.76V38.6475C39.8457 40.0388 38.1256 41.9251 36.9369 44.1383C35.7483 46.3516 35.1279 48.8231 35.1312 51.3328C35.1312 51.7774 35.153 52.2238 35.1918 52.6665C35.0139 52.6665 34.836 52.659 34.6562 52.659C32.6959 52.625 30.7448 52.9339 28.8918 53.5717C27.1242 54.2423 26.1477 55.22 26.1477 56.3239V66.1939C26.1477 67.2987 27.1214 68.2764 28.8918 68.9461C30.7448 69.5838 32.6959 69.8927 34.6562 69.8588C36.6165 69.8927 38.5676 69.5838 40.4206 68.9461C42.1882 68.2754 43.1647 67.2978 43.1647 66.1939V64.7481C44.8405 65.6559 46.6738 66.2398 48.5677 66.4689C48.5969 66.4726 48.6263 66.4745 48.6557 66.4746C48.8366 66.4737 49.0103 66.4043 49.1417 66.2806C49.2731 66.1568 49.3524 65.988 49.3633 65.8083C49.3743 65.6286 49.3161 65.4514 49.2007 65.3128C49.0853 65.1742 48.9212 65.0844 48.7418 65.0617C46.7624 64.8223 44.8592 64.1563 43.1647 63.1101V56.3286C43.1647 55.2237 42.191 54.247 40.4206 53.5764C39.1982 53.1383 37.923 52.8625 36.6282 52.756C36.5782 52.2832 36.5523 51.8082 36.5506 51.3328C36.5482 49.2201 37.0333 47.1351 37.9684 45.2385C38.9035 43.3419 40.2637 41.6844 41.9441 40.3937V43.6301C41.9441 44.7349 42.9177 45.7116 44.6881 46.3823C46.5411 47.02 48.4922 47.3289 50.4526 47.2949C52.4129 47.3289 54.364 47.02 56.217 46.3823C57.9846 45.7116 58.9611 44.734 58.9611 43.6301V40.3909C60.6438 41.6802 62.0057 43.338 62.941 45.2357C63.8763 47.1334 64.36 49.22 64.3546 51.3337C64.3543 51.8075 64.33 52.2809 64.2817 52.7522C62.9869 52.8588 61.7117 53.1346 60.4893 53.5726C58.7217 54.2432 57.7452 55.2209 57.7452 56.3248V63.1064C55.8559 64.2669 53.7147 64.9597 51.501 65.1267C51.321 65.1447 51.1545 65.2302 51.0356 65.366C50.9167 65.5017 50.8541 65.6775 50.8608 65.8575C50.8674 66.0375 50.9427 66.2082 51.0713 66.3349C51.1999 66.4616 51.3722 66.5348 51.553 66.5396H51.607C53.7548 66.3785 55.8443 65.7687 57.7395 64.75V66.1958C57.7395 67.3006 58.7132 68.2783 60.4836 68.948C62.3366 69.5857 64.2877 69.8946 66.248 69.8606C68.2083 69.8946 70.1594 69.5857 72.0124 68.948C73.78 68.2773 74.7565 67.2997 74.7565 66.1958V56.3239C74.7471 55.22 73.7734 54.2423 72.0058 53.5717ZM41.7264 66.1929C41.7264 66.533 41.2533 67.1103 39.9021 67.6208C38.2112 68.1973 36.4319 68.4746 34.6449 68.4403C32.8578 68.4746 31.0785 68.1973 29.3876 67.6208C28.044 67.1122 27.5614 66.533 27.5614 66.1939V63.7092C27.9769 63.9691 28.4183 64.1856 28.8785 64.3553C30.7315 64.9931 32.6826 65.302 34.643 65.268C36.6033 65.302 38.5544 64.9931 40.4074 64.3553C40.8676 64.1856 41.309 63.9691 41.7246 63.7092V66.1929H41.7264ZM39.905 54.896C41.2505 55.4065 41.7283 55.9838 41.7293 56.3229C41.7293 56.6629 41.2505 57.2394 39.905 57.7499C38.214 58.3263 36.4347 58.6037 34.6477 58.5693C33.9358 58.5699 33.2243 58.5309 32.5168 58.4525C32.3286 58.4315 32.1397 58.4858 31.9917 58.6035C31.8437 58.7211 31.7487 58.8925 31.7276 59.0798C31.7065 59.2672 31.7611 59.4552 31.8793 59.6025C31.9975 59.7498 32.1696 59.8444 32.3578 59.8653C33.1185 59.9498 33.8833 59.9919 34.6486 59.9916C36.609 60.0255 38.5601 59.7166 40.4131 59.0789C40.8733 58.9092 41.3147 58.6926 41.7302 58.4327V61.606C41.7302 61.946 41.2571 62.5233 39.9059 63.0339C38.215 63.6103 36.4357 63.8877 34.6486 63.8533C32.8616 63.8876 31.0823 63.6103 29.3914 63.0339C28.044 62.5205 27.5614 61.9431 27.5614 61.6031V58.4309C28.1063 58.7661 28.6908 59.0331 29.3015 59.2258C29.4805 59.2856 29.6761 59.2722 29.8453 59.1885C30.0144 59.1048 30.1431 58.9576 30.2032 58.7794C30.2634 58.6011 30.2499 58.4064 30.1658 58.2381C30.0816 58.0697 29.9338 57.9416 29.7547 57.8817C28.2427 57.3807 27.5614 56.7383 27.5614 56.3239C27.5614 55.9848 28.0345 55.4065 29.3857 54.896C31.0767 54.3195 32.8559 54.0422 34.643 54.0765C36.4316 54.0416 38.2125 54.319 39.905 54.896ZM57.5266 43.6301C57.5266 43.9691 57.0488 44.5475 55.7023 45.058C54.0113 45.6345 52.232 45.9118 50.445 45.8774C48.658 45.9118 46.8787 45.6344 45.1878 45.058C43.8365 44.5475 43.3634 43.9691 43.3634 43.6301V41.1454C43.779 41.4053 44.2204 41.6218 44.6806 41.7915C46.5336 42.4292 48.4847 42.7382 50.445 42.7042C52.4053 42.7382 54.3564 42.4292 56.2094 41.7915C56.6697 41.6218 57.111 41.4053 57.5266 41.1454V43.6291V43.6301ZM57.5266 39.0393C57.5266 39.3793 57.0535 39.9567 55.7023 40.4672C54.0113 41.0437 52.232 41.321 50.445 41.2867C48.658 41.321 46.8787 41.0437 45.1878 40.4672C43.8365 39.9567 43.3634 39.3784 43.3634 39.0393V35.8661C43.779 36.126 44.2204 36.3425 44.6806 36.5122C46.5336 37.15 48.4847 37.4589 50.445 37.4249C52.4053 37.4589 54.3564 37.15 56.2094 36.5122C56.6696 36.3425 57.111 36.126 57.5266 35.8661V39.0393ZM73.323 66.1939C73.323 66.5339 72.8499 67.1113 71.4986 67.6218C69.8077 68.1982 68.0284 68.4756 66.2414 68.4412C64.4543 68.4756 62.6751 68.1982 60.9841 67.6218C59.6376 67.1113 59.1598 66.533 59.1598 66.1939V63.7092C59.5753 63.9691 60.0167 64.1856 60.4769 64.3553C62.3299 64.9931 64.281 65.302 66.2414 65.268C68.2017 65.302 70.1528 64.9931 72.0058 64.3553C72.466 64.1856 72.9074 63.9691 73.323 63.7092V66.1939ZM73.323 61.6031C73.323 61.9431 72.8499 62.5205 71.4986 63.031C69.8077 63.6075 68.0284 63.8848 66.2414 63.8505C64.4543 63.8848 62.6751 63.6075 60.9841 63.031C59.6376 62.5205 59.1598 61.9422 59.1598 61.6031V58.4309C59.5753 58.6908 60.0167 58.9073 60.4769 59.077C62.3299 59.7147 64.281 60.0237 66.2414 59.9897C68.2017 60.0237 70.1528 59.7147 72.0058 59.077C72.466 58.9073 72.9074 58.6907 73.323 58.4309V61.6031ZM71.4986 57.7518C69.8077 58.3282 68.0284 58.6056 66.2414 58.5712C64.4543 58.6056 62.6751 58.3282 60.9841 57.7518C59.6376 57.2413 59.1598 56.6629 59.1598 56.3239C59.1598 55.9848 59.6329 55.4065 60.9841 54.896C62.6751 54.3195 64.4543 54.0422 66.2414 54.0765C68.0284 54.0422 69.8077 54.3195 71.4986 54.896C72.8451 55.4065 73.323 55.9848 73.323 56.3239C73.323 56.6629 72.8451 57.2413 71.4986 57.7527V57.7518Z" fill="#2C3E50" stroke="#2B3D50" stroke-width="0.3"/>
</g>
<defs>
<clipPath id="clip0">
<rect width="48.8889" height="40" fill="white" transform="translate(26 30)"/>
</clipPath>
</defs>
</svg>
