<svg width="100" height="100" viewBox="0 0 100 100" fill="none" xmlns="http://www.w3.org/2000/svg">
<path d="M50 100C77.6142 100 100 77.6142 100 50C100 22.3858 77.6142 0 50 0C22.3858 0 0 22.3858 0 50C0 77.6142 22.3858 100 50 100Z" fill="#EFF3FC"/>
<path d="M42.964 41.1782L38.2174 42.8867L34.7888 46.5895L34.2173 50.8753L35.6126 54.8867L40.5107 58.3943H42.9593L42.964 41.1782Z" fill="#56DCE8"/>
<path d="M39.4631 43.0152C40.3796 42.6416 41.36 42.4495 42.3497 42.4495C42.508 42.4407 42.6568 42.3717 42.7658 42.2566C42.8747 42.1414 42.9354 41.989 42.9354 41.8305C42.9354 41.672 42.8747 41.5195 42.7658 41.4044C42.6568 41.2893 42.508 41.2202 42.3497 41.2114C39.9993 41.2357 37.7534 42.1864 36.1 43.8571C34.4465 45.5277 33.519 47.7833 33.519 50.1338C33.519 52.4843 34.4465 54.7399 36.1 56.4105C37.7534 58.0812 39.9993 59.0319 42.3497 59.0562C42.508 59.0474 42.6568 58.9784 42.7658 58.8632C42.8747 58.7481 42.9354 58.5956 42.9354 58.4371C42.9354 58.2787 42.8747 58.1262 42.7658 58.0111C42.6568 57.8959 42.508 57.8269 42.3497 57.8181C40.5681 57.8177 38.8421 57.1979 37.4671 56.065C36.0921 54.9321 35.1538 53.3564 34.8127 51.6078C34.4716 49.8591 34.7489 48.0463 35.5973 46.4796C36.4457 44.913 37.8122 43.69 39.4631 43.02V43.0152Z" fill="#2C3E51" stroke="#2C3E50" stroke-width="0.4"/>
<path d="M25.5039 53.4239L27.7372 54.18C28.1188 55.5183 28.6777 56.7996 29.3991 57.9896L28.4287 60.1629C28.3766 60.2789 28.3615 60.4081 28.3854 60.533C28.4092 60.6578 28.4709 60.7723 28.562 60.861L32.0477 64.2658C32.1396 64.3553 32.257 64.4142 32.3837 64.4343C32.5104 64.4544 32.6402 64.4348 32.7553 64.3781L34.8934 63.322C36.1002 64.0196 37.4045 64.5332 38.7629 64.8458L39.5915 67.0734C39.6357 67.1921 39.7151 67.2944 39.8191 67.3666C39.9232 67.4388 40.0468 67.4774 40.1734 67.4772H40.1839L42.3553 67.4401C42.4394 67.4431 42.5233 67.4289 42.6018 67.3985C42.6803 67.368 42.7517 67.3219 42.8118 67.263C42.8719 67.204 42.9193 67.1335 42.9512 67.0556C42.9832 66.9777 42.9989 66.8941 42.9975 66.81C42.9961 66.7258 42.9775 66.6428 42.943 66.566C42.9084 66.4893 42.8586 66.4204 42.7966 66.3635C42.7345 66.3066 42.6616 66.2629 42.5821 66.2352C42.5026 66.2074 42.4183 66.1961 42.3344 66.202L40.602 66.2315L39.8096 64.0981C39.773 63.9996 39.7119 63.9119 39.6321 63.8434C39.5523 63.775 39.4564 63.7279 39.3534 63.7067C37.901 63.4092 36.5114 62.8613 35.2468 62.0877C35.1574 62.0332 35.0557 62.0022 34.9511 61.9975C34.8466 61.9928 34.7425 62.0147 34.6487 62.061L32.6039 63.0724L29.7353 60.2753L30.6658 58.1981C30.7078 58.1045 30.7259 58.0018 30.7184 57.8994C30.7109 57.797 30.6781 57.6981 30.6229 57.6115C29.8239 56.3553 29.2253 54.9823 28.8487 53.542C28.8226 53.4425 28.7722 53.3511 28.7021 53.2759C28.6319 53.2008 28.5442 53.1443 28.4468 53.1115L26.3153 52.3896L26.2477 48.3896L28.381 47.5962C28.4796 47.5596 28.5673 47.4986 28.6357 47.4187C28.7042 47.3389 28.7513 47.243 28.7725 47.14C29.0699 45.687 29.6178 44.2968 30.3915 43.0315C30.4461 42.9421 30.4772 42.8404 30.4818 42.7359C30.4865 42.6313 30.4646 42.5272 30.4182 42.4334L29.4077 40.3858L32.2068 37.5181L34.2839 38.4486C34.3776 38.4906 34.4802 38.5087 34.5826 38.5012C34.685 38.4937 34.784 38.4609 34.8706 38.4058C36.1269 37.6067 37.4998 37.0078 38.9401 36.6305C39.0394 36.6046 39.1308 36.5543 39.2059 36.4843C39.281 36.4144 39.3376 36.3268 39.3706 36.2296L40.0925 34.0981L42.3601 34.06C42.4442 34.0631 42.5281 34.0489 42.6065 34.0185C42.685 33.988 42.7565 33.9419 42.8166 33.883C42.8766 33.824 42.9241 33.7535 42.956 33.6756C42.9879 33.5977 43.0037 33.5141 43.0022 33.4299C43.0008 33.3458 42.9823 33.2628 42.9477 33.186C42.9132 33.1093 42.8634 33.0403 42.8013 32.9835C42.7393 32.9266 42.6663 32.8829 42.5869 32.8551C42.5074 32.8274 42.4231 32.8161 42.3391 32.8219L39.6344 32.8677C39.5065 32.8699 39.3825 32.9115 39.2792 32.9868C39.1759 33.0622 39.0984 33.1676 39.0572 33.2886L38.301 35.5219C36.9627 35.9034 35.6815 36.4623 34.4915 37.1838L32.3201 36.2105C32.2042 36.1588 32.0752 36.1439 31.9506 36.1678C31.8259 36.1916 31.7116 36.253 31.6229 36.3438L28.2134 39.8343C28.1237 39.9263 28.0647 40.0438 28.0445 40.1707C28.0244 40.2976 28.0442 40.4277 28.101 40.5429L29.1572 42.681C28.4598 43.8882 27.9462 45.1927 27.6334 46.5515L25.4068 47.3791C25.2858 47.4234 25.1817 47.5042 25.1089 47.6104C25.036 47.7165 24.998 47.8427 25.0001 47.9715L25.0829 52.8477C25.0851 52.9756 25.1268 53.0998 25.2023 53.2032C25.2779 53.3065 25.3835 53.3839 25.5048 53.4248L25.5039 53.4239Z" fill="#2C3E51" stroke="#2C3E50" stroke-width="0.4"/>
<path d="M43.5964 49.5115V50.7496H68.3488C68.5028 51.55 68.9497 52.2643 69.6021 52.7529C70.2544 53.2415 71.0655 53.4693 71.8769 53.392C72.6883 53.3146 73.4417 52.9376 73.9901 52.3345C74.5384 51.7314 74.8422 50.9457 74.8422 50.1306C74.8422 49.3155 74.5384 48.5297 73.9901 47.9266C73.4417 47.3236 72.6883 46.9465 71.8769 46.8692C71.0655 46.7918 70.2544 47.0197 69.6021 47.5083C68.9497 47.9969 68.5028 48.7111 68.3488 49.5115H43.5964ZM70.125 48.6953C70.4092 48.411 70.7713 48.2173 71.1656 48.1388C71.5599 48.0602 71.9686 48.1004 72.34 48.2542C72.7115 48.408 73.029 48.6685 73.2523 49.0027C73.4757 49.337 73.595 49.73 73.595 50.132C73.595 50.534 73.4757 50.927 73.2523 51.2613C73.029 51.5955 72.7115 51.856 72.34 52.0098C71.9686 52.1636 71.5599 52.2038 71.1656 52.1252C70.7713 52.0467 70.4092 51.853 70.125 51.5687C69.7441 51.1876 69.5302 50.6708 69.5302 50.132C69.5302 49.5932 69.7441 49.0764 70.125 48.6953Z" fill="#2C3E51" stroke="#2C3E50" stroke-width="0.4"/>
<path d="M63.0793 38.0496C62.3189 38.0497 61.5822 38.3145 60.9957 38.7985C60.4092 39.2824 60.0094 39.9555 59.865 40.702H54.6383C53.7576 40.703 52.9133 41.0533 52.2905 41.6761C51.6678 42.2989 51.3175 43.1432 51.3164 44.0239C51.3159 44.5758 51.0966 45.1049 50.7064 45.4952C50.3163 45.8855 49.7873 46.1051 49.2355 46.1058H43.5964V47.3439H49.2355C50.1162 47.3429 50.9606 46.9926 51.5833 46.3698C52.2061 45.7471 52.5564 44.9027 52.5574 44.022C52.5581 43.4703 52.7776 42.9415 53.1677 42.5514C53.5578 42.1613 54.0867 41.9418 54.6383 41.9411H59.865C59.9826 42.5507 60.2711 43.1143 60.697 43.5661C61.1228 44.0179 61.6683 44.3393 62.2699 44.4928C62.8715 44.6463 63.5043 44.6255 64.0945 44.4329C64.6848 44.2403 65.2081 43.8838 65.6033 43.405C65.9986 42.9263 66.2495 42.345 66.3269 41.7289C66.4043 41.1129 66.3048 40.4876 66.0402 39.926C65.7756 39.3643 65.3568 38.8895 64.8325 38.5569C64.3082 38.2244 63.7002 38.0478 63.0793 38.0477V38.0496ZM64.5164 42.7592C64.2323 43.0431 63.8703 43.2363 63.4763 43.3146C63.0823 43.3928 62.6739 43.3524 62.3029 43.1986C61.9318 43.0448 61.6146 42.7844 61.3915 42.4504C61.1684 42.1164 61.0493 41.7237 61.0493 41.322C61.0493 40.9203 61.1684 40.5276 61.3915 40.1936C61.6146 39.8596 61.9318 39.5992 62.3029 39.4454C62.6739 39.2916 63.0823 39.2513 63.4763 39.3295C63.8703 39.4077 64.2323 39.601 64.5164 39.8849C64.7053 40.0735 64.8551 40.2976 64.9573 40.5442C65.0595 40.7908 65.1121 41.0551 65.1121 41.322C65.1121 41.589 65.0595 41.8533 64.9573 42.0999C64.8551 42.3465 64.7053 42.5705 64.5164 42.7592Z" fill="#2C3E51" stroke="#2C3E50" stroke-width="0.4"/>
<path d="M63.0793 62.2144C63.6999 62.2141 64.3076 62.0374 64.8315 61.7049C65.3555 61.3723 65.7741 60.8976 66.0385 60.3362C66.3029 59.7748 66.4022 59.1497 66.3248 58.534C66.2474 57.9183 65.9965 57.3372 65.6014 56.8586C65.2063 56.3801 64.6833 56.0237 64.0934 55.8312C63.5034 55.6386 62.8709 55.6178 62.2696 55.7711C61.6682 55.9244 61.1228 56.2455 60.6971 56.697C60.2714 57.1485 59.9828 57.7118 59.865 58.3211H54.6383C54.0867 58.3203 53.5578 58.1008 53.1677 57.7107C52.7776 57.3206 52.5581 56.7918 52.5574 56.2401C52.5564 55.3594 52.2061 54.515 51.5833 53.8923C50.9606 53.2695 50.1162 52.9192 49.2355 52.9182H43.5964V54.1563H49.2355C49.7873 54.1571 50.3163 54.3767 50.7064 54.767C51.0966 55.1573 51.3159 55.6864 51.3164 56.2382C51.3175 57.1189 51.6678 57.9633 52.2905 58.586C52.9133 59.2088 53.7576 59.5591 54.6383 59.5601H59.865C60.0091 60.307 60.4087 60.9805 60.9952 61.4649C61.5817 61.9492 62.3186 62.2142 63.0793 62.2144ZM61.6422 57.5049C61.9744 57.1748 62.4109 56.9701 62.8771 56.9255C63.3433 56.881 63.8106 56.9993 64.1994 57.2605C64.5882 57.5217 64.8745 57.9096 65.0095 58.358C65.1445 58.8065 65.12 59.2879 64.94 59.7204C64.76 60.1528 64.4358 60.5095 64.0225 60.7297C63.6091 60.95 63.1322 61.0203 62.6729 60.9285C62.2136 60.8367 61.8003 60.5887 61.5033 60.2265C61.2064 59.8643 61.0441 59.4104 61.0441 58.942C61.0445 58.6748 61.0976 58.4104 61.2004 58.1638C61.3032 57.9172 61.4537 57.6933 61.6431 57.5049H61.6422Z" fill="#2C3E51" stroke="#2C3E50" stroke-width="0.4"/>
<path d="M55.0955 63.7287C54.5568 64.2645 54.2228 64.9722 54.1517 65.7287H53.4488C52.8809 65.7271 52.327 65.5525 51.8609 65.228C51.3948 64.9035 51.0388 64.4446 50.8403 63.9125L49.0831 59.1677C48.7958 58.3985 48.2808 57.7351 47.6068 57.266C46.9328 56.7968 46.1319 56.5443 45.3107 56.542H43.5964V57.7801H45.3107C45.8785 57.7817 46.4323 57.9563 46.8983 58.2806C47.3643 58.6049 47.7205 59.0635 47.9193 59.5953L49.6774 64.3401C49.9647 65.1092 50.4795 65.7725 51.1533 66.2416C51.8271 66.7107 52.6278 66.9633 53.4488 66.9658H54.2698C54.4721 67.6541 54.8948 68.257 55.4731 68.6816C56.0514 69.1063 56.7531 69.3293 57.4704 69.3163C58.1877 69.3033 58.8809 69.0551 59.4435 68.6098C60.006 68.1645 60.4067 67.5468 60.584 66.8516C60.7612 66.1564 60.7053 65.4222 60.4247 64.7619C60.1441 64.1016 59.6544 63.5518 59.0309 63.1969C58.4073 62.842 57.6845 62.7017 56.9735 62.7976C56.2625 62.8935 55.6027 63.2203 55.0955 63.7277V63.7287ZM59.4422 66.0429C59.442 66.5126 59.2789 66.9677 58.9808 67.3307C58.6828 67.6937 58.268 67.9421 57.8074 68.0337C57.3467 68.1252 56.8685 68.0542 56.4543 67.8327C56.0401 67.6112 55.7155 67.253 55.5357 66.8191C55.356 66.3851 55.3323 65.9023 55.4686 65.4528C55.6049 65.0033 55.8928 64.615 56.2833 64.354C56.6738 64.093 57.1427 63.9754 57.6102 64.0213C58.0776 64.0673 58.5147 64.2738 58.8469 64.6058C59.2275 64.9862 59.4416 65.502 59.4422 66.0401V66.0429Z" fill="#2C3E51" stroke="#2C3E50" stroke-width="0.4"/>
<path d="M49.0828 41.0962L50.84 36.3553C51.0385 35.8232 51.3946 35.3643 51.8606 35.0398C52.3267 34.7153 52.8807 34.5406 53.4486 34.5391H54.1514C54.2303 35.347 54.6073 36.0966 55.209 36.6416C55.8107 37.1866 56.5938 37.4879 57.4056 37.4867C58.2174 37.4855 58.9996 37.1819 59.5996 36.6351C60.1997 36.0883 60.5745 35.3376 60.651 34.5294C60.7275 33.7213 60.5001 32.9136 60.0132 32.264C59.5264 31.6144 58.815 31.1694 58.0178 31.016C57.2206 30.8626 56.3949 31.0116 55.7017 31.4341C55.0085 31.8566 54.4976 32.5222 54.2686 33.301H53.4476C52.6266 33.3035 51.8259 33.5561 51.1521 34.0252C50.4783 34.4943 49.9635 35.1576 49.6762 35.9267L47.9181 40.6715C47.7193 41.2033 47.3631 41.6619 46.8971 41.9862C46.4311 42.3105 45.8773 42.4851 45.3095 42.4867H43.5952V43.7248H45.3095C46.1312 43.7225 46.9326 43.4696 47.6068 42.9999C48.281 42.5303 48.7959 41.8662 49.0828 41.0962ZM55.9724 32.7838C56.3047 32.4516 56.742 32.2449 57.2097 32.1989C57.6774 32.1528 58.1466 32.2704 58.5373 32.5315C58.928 32.7927 59.2161 33.1812 59.3525 33.6309C59.4889 34.0806 59.4652 34.5637 59.2854 34.9979C59.1055 35.432 58.7808 35.7904 58.3663 36.012C57.9519 36.2336 57.4734 36.3046 57.0125 36.213C56.5516 36.1213 56.1367 35.8727 55.8385 35.5095C55.5403 35.1463 55.3772 34.6909 55.3771 34.221C55.3771 33.9541 55.4296 33.6898 55.5317 33.4432C55.6339 33.1966 55.7836 32.9725 55.9724 32.7838Z" fill="#2C3E51" stroke="#2C3E50" stroke-width="0.4"/>
<path d="M57.38 37.6191C59.4839 37.6191 61.1895 35.9135 61.1895 33.8095C61.1895 31.7056 59.4839 30 57.38 30C55.276 30 53.5704 31.7056 53.5704 33.8095C53.5704 35.9135 55.276 37.6191 57.38 37.6191Z" fill="#21D885"/>
<path d="M71.666 53.8095C73.7699 53.8095 75.4755 52.1039 75.4755 50C75.4755 47.896 73.7699 46.1904 71.666 46.1904C69.562 46.1904 67.8564 47.896 67.8564 50C67.8564 52.1039 69.562 53.8095 71.666 53.8095Z" fill="#FBBC05"/>
<path d="M57.38 70C59.4839 70 61.1895 68.2945 61.1895 66.1905C61.1895 64.0866 59.4839 62.381 57.38 62.381C55.276 62.381 53.5704 64.0866 53.5704 66.1905C53.5704 68.2945 55.276 70 57.38 70Z" fill="#01C3FF"/>
</svg>
