<svg width="138" height="138" viewBox="0 0 138 138" fill="none" xmlns="http://www.w3.org/2000/svg">
<path d="M69 138C107.108 138 138 107.108 138 69C138 30.8924 107.108 0 69 0C30.8924 0 0 30.8924 0 69C0 107.108 30.8924 138 69 138Z" fill="#EFF3FC"/>
<path d="M93.3918 64.4537L93.3919 64.4537C94.6186 65.7088 94.6187 67.7401 93.3918 68.9954C92.173 70.2425 90.1945 70.2425 88.9758 68.9954L88.7255 69.2401L88.9758 68.9954L65.829 45.312C64.6072 44.0602 64.6069 42.0207 65.8289 40.7667C67.0397 39.5312 69.0218 39.5167 70.2484 40.7686C70.2485 40.7687 70.2485 40.7687 70.2486 40.7688L93.3918 64.4537Z" fill="#21D885" stroke="black" stroke-width="0.7"/>
<path d="M64.0274 49.7931L64.0274 49.793L64.074 49.5542L84.8231 70.7841L84.5776 70.8341L84.5773 70.8342C78.479 72.0831 72.7691 75.1609 68.0534 79.2135L55.9118 66.7895C59.8778 61.9557 62.8088 56.0305 64.0274 49.7931Z" fill="#01C3FF" stroke="black" stroke-width="0.7"/>
<path d="M44.7786 78.5263L53.1341 69.9783L64.9371 82.0557L56.5712 90.6162C54.667 92.5646 51.5917 92.5568 49.6952 90.6162L44.7786 85.5852C42.8699 83.6322 42.8777 80.4715 44.7785 78.5264C44.7786 78.5264 44.7786 78.5264 44.7786 78.5263ZM51.6547 83.5591C52.471 84.3945 53.7973 84.3945 54.6136 83.5591L57.0719 81.0436C57.8839 80.2128 57.8839 78.8697 57.0719 78.0389C56.2556 77.2035 54.9293 77.2035 54.113 78.0389L51.6547 80.5544C50.8427 81.3852 50.8427 82.7283 51.6547 83.5591Z" fill="white" stroke="black" stroke-width="0.7"/>
<path d="M72.4707 91.5967L72.2625 91.8097L72.474 92.0194L74.328 93.8575C75.5689 95.1292 75.5684 97.1983 74.3264 98.4692L74.5409 98.6789L74.3264 98.4692C73.0854 99.7391 71.0693 99.7316 69.8408 98.4713L69.8409 98.4713L69.8372 98.4677L62.161 90.8564L66.6585 86.2543L69.9768 89.544L70.1914 89.7568L70.4025 89.5406L72.8065 87.0808L72.8071 87.0802C73.6022 86.2623 73.5981 84.954 72.8064 84.1475C72.8062 84.1474 72.8061 84.1473 72.806 84.1471L70.9332 82.2279C71.686 81.5926 72.4569 80.9925 73.2563 80.4326L74.8357 82.0498L74.8359 82.0501C76.7571 84.0127 76.7636 87.2044 74.8356 89.1768L74.8356 89.1768L72.4707 91.5967Z" fill="#01C3FF" stroke="black" stroke-width="0.6"/>
<path d="M78.2188 40.7789C78.2188 39.9283 78.8898 39.25 79.7072 39.25C80.5247 39.25 81.1957 39.9283 81.1957 40.7789V44.3367C81.1957 45.1874 80.5247 45.8656 79.7072 45.8656C78.8898 45.8656 78.2188 45.1874 78.2188 44.3367V40.7789Z" stroke="black" stroke-width="0.5"/>
<path d="M90.1408 53.481H93.6178C94.4352 53.481 95.1063 54.1592 95.1063 55.0099C95.1063 55.8605 94.4352 56.5388 93.6178 56.5388H90.1408C89.3234 56.5388 88.6523 55.8605 88.6523 55.0099C88.6523 54.1592 89.3234 53.481 90.1408 53.481Z" stroke="black" stroke-width="0.5"/>
<path d="M87.7146 48.9773L87.7146 48.9773C87.1336 49.5719 86.1949 49.5718 85.6139 48.9773C85.0298 48.3796 85.0298 47.409 85.6139 46.8113L89.0908 43.2535C89.6718 42.659 90.6106 42.659 91.1916 43.2535C91.7757 43.8512 91.7757 44.8218 91.1916 45.4195L87.7146 48.9773Z" stroke="black" stroke-width="0.5"/>
</svg>
