<svg width="138" height="138" viewBox="0 0 138 138" fill="none" xmlns="http://www.w3.org/2000/svg">
<path d="M69 138C107.108 138 138 107.108 138 69C138 30.8924 107.108 0 69 0C30.8924 0 0 30.8924 0 69C0 107.108 30.8924 138 69 138Z" fill="#EFF3FC"/>
<path d="M70.0358 81.8652V81.5698C68.5258 81.5534 67.0815 81.4713 65.6864 81.3564C64.9314 83.3096 63.8646 85.1314 62.5352 86.7562C65.0463 87.1665 67.5903 87.3963 70.1342 87.4292L70.0358 81.8652Z" fill="black"/>
<path d="M58.1995 86.2104L58.1994 86.2104C51.6213 92.1906 41.423 91.7214 35.4435 85.144C29.4633 78.5658 29.9325 68.3675 36.5099 62.388C39.4669 59.7059 43.3459 58.2184 47.3552 58.2021C48.9707 58.2022 50.5706 58.4445 52.1228 58.9132C57.7309 60.6754 61.9487 65.3299 63.1449 71.05C63.3551 72.1178 63.4682 73.2172 63.4682 74.2992L63.4682 74.3001C63.4843 78.8405 61.5616 83.1554 58.1995 86.2104ZM53.5697 76.5463L53.5695 76.5455C52.784 73.7619 50.2397 71.8499 47.3547 71.8499C45.8829 71.8499 44.6839 70.6641 44.6832 69.1961C44.699 67.7065 45.8861 66.5234 47.3547 66.5234C48.8251 66.5234 50.0261 67.7245 50.0261 69.1949C50.0261 70.2356 50.8766 71.0861 51.9174 71.0861C52.9582 71.0861 53.8087 70.2356 53.8087 69.1949C53.8087 66.3732 51.9798 63.8775 49.2952 63.0343V62.4821C49.2952 61.4413 48.4447 60.5908 47.4039 60.5908C46.3631 60.5908 45.5126 61.4413 45.5126 62.4821V62.999C42.1927 63.9969 40.2336 67.4806 41.1224 70.8345L41.1225 70.8349C41.8737 73.652 44.418 75.616 47.3383 75.616C48.8105 75.616 50.0097 76.8026 50.0097 78.2711C50.0097 79.7433 48.8232 80.9426 47.3547 80.9426C45.8825 80.9426 44.6832 79.7561 44.6832 78.2875C44.6832 77.2467 43.8327 76.3962 42.7919 76.3962C41.7512 76.3962 40.9007 77.2467 40.9007 78.2875L40.9007 78.289C40.9174 81.1432 42.7791 83.6393 45.4962 84.4662V85.7061C45.4962 86.7468 46.3467 87.5973 47.3875 87.5973C48.4283 87.5973 49.2788 86.7468 49.2788 85.7061V84.4481C52.6144 83.4033 54.5088 79.9167 53.5697 76.5463Z" fill="#01C3FF" stroke="black" stroke-width="0.5"/>
<path d="M69.9877 78.2707L69.8892 72.4606C68.8716 72.4442 67.8704 72.4114 66.9185 72.3457C66.9677 73.0022 67.0005 73.6423 67.0005 74.2824C67.0005 75.5626 66.8692 76.8592 66.623 78.123C67.7063 78.2215 68.8388 78.2707 69.9877 78.2707Z" fill="black"/>
<path d="M70.8065 54.5596C75.8814 54.5596 80.7534 53.9505 84.4818 52.8238C85.5726 52.5038 86.6386 52.0947 87.6578 51.5961V55.3137C87.4887 55.5802 87.4914 55.8393 87.4933 56.0267C87.4934 56.0349 87.4935 56.043 87.4935 56.0509C87.4921 56.054 87.4903 56.0575 87.4881 56.0616C87.4719 56.092 87.4405 56.1404 87.3859 56.2049C87.2771 56.3335 87.0885 56.5119 86.7837 56.7232C86.1743 57.1457 85.1179 57.6879 83.3576 58.2234C80.0611 59.2139 75.4798 59.8026 70.8065 59.8026C66.7746 59.8026 62.8323 59.3783 59.7125 58.5832C59.68 58.573 59.6521 58.567 59.6329 58.5631C58.1173 57.3744 56.4486 56.4133 54.6559 55.7245L54.5583 51.793C55.5704 52.2742 56.6213 52.6659 57.7108 52.9566C61.3062 54 65.9465 54.5596 70.8065 54.5596ZM87.4993 56.0376C87.4993 56.0376 87.4991 56.0382 87.4986 56.0394L87.4993 56.0376Z" fill="#21D885" stroke="black" stroke-width="0.6"/>
<path d="M83.3404 44.879L83.3407 44.8791C85.1018 45.4147 86.1588 45.9531 86.7684 46.3719C87.0734 46.5813 87.2619 46.7578 87.3705 46.8849C87.4148 46.9367 87.4437 46.9779 87.4616 47.0075C87.4434 47.0386 87.4135 47.0824 87.3669 47.1376C87.2569 47.2678 87.0666 47.447 86.7599 47.6583C86.1466 48.0807 85.0861 48.619 83.3255 49.1464L83.3252 49.1465C80.0292 50.1369 75.4644 50.7094 70.7902 50.7094C66.2799 50.7094 62.0095 50.1861 58.778 49.2442L58.7771 49.244C57.0319 48.7407 55.9327 48.2178 55.2667 47.7868C54.9337 47.5714 54.7132 47.3816 54.5748 47.2325C54.5056 47.158 54.4591 47.096 54.4295 47.0483C54.4148 47.0246 54.4051 47.0058 54.3989 46.9918C54.3975 46.9887 54.3963 46.986 54.3954 46.9836C54.4098 46.9513 54.4392 46.898 54.4982 46.824C54.6024 46.6932 54.7827 46.5195 55.0773 46.316C55.6667 45.9088 56.6897 45.399 58.4036 44.8791L58.4045 44.8788C61.6837 43.8724 66.0839 43.3 70.7902 43.3C75.4647 43.3 80.0453 43.8726 83.3404 44.879ZM87.4831 47.0494C87.4831 47.0494 87.4828 47.0487 87.4825 47.0475L87.4831 47.0494Z" fill="white" stroke="black" stroke-width="0.6"/>
<path d="M73.7688 90.0551H73.7688L73.7687 90.0499L73.695 85.7732C74.8906 86.3222 76.1251 86.7536 77.3983 87.0794C80.8747 87.9898 85.2829 88.5004 89.7994 88.5004C94.8912 88.5004 99.7309 87.8912 103.443 86.7643C104.502 86.445 105.522 86.0378 106.503 85.5651V90.0058H106.508C106.492 90.0375 106.462 90.0842 106.414 90.1446C106.309 90.2744 106.128 90.4534 105.834 90.665C105.246 91.0882 104.223 91.6299 102.512 92.165C99.2336 93.1874 94.8177 93.7598 90.1113 93.7598C85.3877 93.7598 80.9878 93.2037 77.742 92.2138C76.0306 91.6865 75.0165 91.1571 74.4374 90.7426C74.1477 90.5353 73.9716 90.3601 73.8712 90.2329C73.821 90.1692 73.7923 90.1208 73.7775 90.0896C73.7731 90.0805 73.7704 90.0738 73.7688 90.0694V90.0694V90.0693V90.0693V90.0692V90.0692V90.0691V90.0691V90.069V90.069V90.0689V90.0689V90.0688V90.0688V90.0687V90.0687V90.0686V90.0686V90.0685V90.0685V90.0684V90.0684V90.0683V90.0683V90.0682V90.0682V90.0681V90.0681V90.068V90.0679V90.0679V90.0678V90.0678V90.0677V90.0677V90.0676V90.0676V90.0675V90.0675V90.0674V90.0674V90.0673V90.0673V90.0672V90.0672V90.0671V90.067V90.067V90.0669V90.0669V90.0668V90.0668V90.0667V90.0667V90.0666V90.0666V90.0665V90.0664V90.0664V90.0663V90.0663V90.0662V90.0662V90.0661V90.0661V90.066V90.0659V90.0659V90.0658V90.0658V90.0657V90.0657V90.0656V90.0655V90.0655V90.0654V90.0654V90.0653V90.0652V90.0652V90.0651V90.0651V90.065V90.065V90.0649V90.0648V90.0648V90.0647V90.0647V90.0646V90.0645V90.0645V90.0644V90.0643V90.0643V90.0642V90.0642V90.0641V90.064V90.064V90.0639V90.0638V90.0638V90.0637V90.0637V90.0636V90.0635V90.0635V90.0634V90.0633V90.0633V90.0632V90.0631V90.0631V90.063V90.0629V90.0629V90.0628V90.0627V90.0627V90.0626V90.0625V90.0625V90.0624V90.0623V90.0623V90.0622V90.0621V90.0621V90.062V90.0619V90.0618V90.0618V90.0617V90.0616V90.0616V90.0615V90.0614V90.0613V90.0613V90.0612V90.0611V90.0611V90.061V90.0609V90.0608V90.0608V90.0607V90.0606V90.0605V90.0605V90.0604V90.0603V90.0602V90.0602V90.0601V90.06V90.0599V90.0599V90.0598V90.0597V90.0596V90.0595V90.0595V90.0594V90.0593V90.0592V90.0591V90.0591V90.059V90.0589V90.0588V90.0587V90.0587V90.0586V90.0585V90.0584V90.0583V90.0582V90.0582V90.0581V90.058V90.0579V90.0578V90.0577V90.0576V90.0576V90.0575V90.0574V90.0573V90.0572V90.0571V90.057V90.0569V90.0569V90.0568V90.0567V90.0566V90.0565V90.0564V90.0563V90.0562V90.0561V90.056V90.0559V90.0558V90.0558V90.0557V90.0556V90.0555V90.0554V90.0553V90.0552V90.0551Z" fill="#FBBC05" stroke="#2C3E50" stroke-width="0.6"/>
<path d="M70.7768 63.7009C75.868 63.7009 80.7401 63.0918 84.4685 61.9651C85.5605 61.6447 86.6137 61.2355 87.6281 60.7487V64.2752C84.1862 64.3887 80.7069 64.8069 77.7383 65.5555C74.7637 66.3057 72.2522 67.3997 70.8269 68.8946H70.8265H70.8262H70.8259H70.8256H70.8253H70.8249H70.8246H70.8243H70.824H70.8237H70.8233H70.823H70.8227H70.8224H70.8221H70.8217H70.8214H70.8211H70.8208H70.8205H70.8202H70.8198H70.8195H70.8192H70.8189H70.8186H70.8183H70.818H70.8176H70.8173H70.817H70.8167H70.8164H70.8161H70.8158H70.8155H70.8151H70.8148H70.8145H70.8142H70.8139H70.8136H70.8133H70.813H70.8127H70.8123H70.812H70.8117H70.8114H70.8111H70.8108H70.8105H70.8102H70.8099H70.8096H70.8093H70.809H70.8086H70.8083H70.808H70.8077H70.8074H70.8071H70.8068H70.8065H70.8062H70.8059H70.8056H70.8053H70.805H70.8047H70.8044H70.8041H70.8038H70.8035H70.8032H70.8029H70.8026H70.8023H70.802H70.8017H70.8014H70.8011H70.8008H70.8005H70.8002H70.7999H70.7996H70.7993H70.799H70.7987H70.7984H70.7981H70.7978H70.7975H70.7972H70.797H70.7967H70.7964H70.7961H70.7958H70.7955H70.7952H70.7949H70.7946H70.7943H70.794H70.7937H70.7935H70.7932C69.3031 68.8946 67.8565 68.8356 66.5096 68.7455C65.9384 66.807 65.0887 64.9707 63.9709 63.3034C66.2254 63.5642 68.494 63.7009 70.7768 63.7009Z" fill="#DFDFDF" stroke="black" stroke-width="0.6"/>
<path d="M106.535 76.4866V80.0557H106.519V80.3557C106.519 80.3901 106.507 80.4385 106.48 80.5431L106.477 80.5512C106.456 80.631 106.425 80.7482 106.421 80.8707C106.419 80.8746 106.417 80.8798 106.413 80.8863C106.397 80.9171 106.367 80.9655 106.313 81.0299C106.207 81.1583 106.021 81.3356 105.72 81.5457C105.117 81.9657 104.069 82.5038 102.316 83.0394C98.9881 84.046 94.5386 84.602 89.8151 84.602C85.2902 84.602 81.5115 84.0914 78.7113 83.3863C77.3109 83.0337 76.1602 82.6336 75.2855 82.2273C74.4661 81.8467 73.915 81.4724 73.619 81.1462L73.6039 79.8762L73.6039 79.8745L73.5467 76.5877C74.5765 77.0716 75.6427 77.4663 76.734 77.772C80.3297 78.8157 84.9707 79.3755 89.8315 79.3755C94.8393 79.3755 99.6273 78.7831 103.322 77.6904C104.435 77.397 105.506 76.9764 106.535 76.4866ZM73.304 79.8798L73.3039 79.8798L73.304 79.8798Z" fill="#01C3FF" stroke="black" stroke-width="0.6"/>
<path d="M102.382 69.7281L102.383 69.7284C104.111 70.2478 105.161 70.7702 105.773 71.1816C106.079 71.3873 106.271 71.5621 106.384 71.6907C106.437 71.7506 106.469 71.7975 106.488 71.83C106.469 71.8642 106.435 71.9139 106.38 71.9774C106.265 72.1108 106.068 72.2925 105.753 72.5061C105.124 72.9331 104.038 73.4758 102.236 74.0117L102.236 74.0117C98.9067 75.0022 94.5058 75.542 89.8476 75.542C85.3379 75.542 81.0672 75.0188 77.8349 74.0931C76.0903 73.5818 74.995 73.0549 74.3306 72.6238C73.9984 72.4082 73.7775 72.2188 73.6374 72.0704C73.4934 71.9178 73.451 71.8257 73.4446 71.805C73.4761 71.7471 73.5426 71.6536 73.6696 71.5296C73.8326 71.3704 74.0789 71.1772 74.4315 70.9634C75.1367 70.536 76.2505 70.0366 77.9309 69.5658L77.9317 69.5655C81.0821 68.6724 85.2056 68.1818 89.5522 68.1818H89.8312C94.5072 68.1818 99.0711 68.7219 102.382 69.7281Z" fill="white" fill-opacity="0.51" stroke="black" stroke-width="0.6"/>
</svg>
