<svg width="138" height="138" viewBox="0 0 138 138" fill="none" xmlns="http://www.w3.org/2000/svg">
<path d="M69 138C107.108 138 138 107.108 138 69C138 30.8924 107.108 0 69 0C30.8924 0 0 30.8924 0 69C0 107.108 30.8924 138 69 138Z" fill="#EFF3FC"/>
<path d="M84.2075 95.264L84.2076 95.2641L85.005 97.4799H53.0153L53.8127 95.2647L53.8128 95.2646L60.2867 77.2244L60.287 77.2238L60.4158 76.8717L60.416 76.8712L60.5903 76.3876L60.5903 76.3874L60.9841 75.2889L60.9841 75.2888L63.069 69.4801L63.069 69.4801L63.8435 67.3183L63.8436 67.3181L64.0108 66.8533L64.0114 66.8517L64.0237 66.8191L64.0237 66.8191L64.0243 66.8174L64.6246 65.1393L64.6246 65.1391L66.1866 60.8041L66.1867 60.8038L66.9301 58.7234C67.5847 58.898 68.2856 58.9927 69.0101 58.9927C69.7347 58.9927 70.4357 58.8979 71.0908 58.7234L71.8336 60.8038L71.8337 60.8041L72.6147 62.9711L73.3956 65.1385L73.3957 65.1387L73.9959 66.8169L73.9959 66.8169L73.9966 66.8185L74.009 66.8513L74.0095 66.8527L74.1773 67.3175L74.1774 67.3178L74.9513 69.4795L74.9513 69.4795L77.0362 75.2883L77.0362 75.2883L77.4299 76.3869L77.43 76.387L77.6043 76.8706L77.6044 76.8711L77.7333 77.2232L77.7335 77.2238L84.2075 95.264ZM75.8625 78.9705L75.8127 78.832L75.7022 78.9293L70.7643 83.2816L70.6792 83.3567L70.7643 83.4317L80.2787 91.8183L80.4389 91.7094L75.8625 78.9705ZM72.138 68.5988L72.0881 68.4605L71.9778 68.5577L70.7643 69.6273L70.6792 69.7024L70.7643 69.7774L73.1074 71.8426L73.2676 71.7337L72.6286 69.9586L72.6285 69.9586L72.138 68.5988ZM68.5611 61.1288L68.561 61.1289L67.7606 63.3591L67.7606 63.3591L66.9667 65.5665L66.9667 65.5665L66.7537 66.1582L66.7307 66.2221L66.7817 66.2671L68.944 68.173L69.0103 68.2314L69.0765 68.1728L69.1983 68.0649L69.1985 68.0647L71.238 66.2671L71.289 66.2221L71.266 66.1582L71.053 65.5666L71.0529 65.5665L70.2597 63.3591L70.2597 63.3591L69.4593 61.1289L69.4592 61.1288L69.1042 60.1445L69.0101 59.8837L68.9161 60.1445L68.5611 61.1288ZM65.3917 69.9586L65.3917 69.9586L64.7527 71.7337L64.9129 71.8426L66.7461 70.2268L67.256 69.7774L67.3411 69.7024L67.256 69.6273L66.0425 68.5577L65.9322 68.4605L65.8823 68.5988L65.3917 69.9586ZM69.0763 71.2317L69.0101 71.1734L68.944 71.2317L63.0959 76.3862L63.0185 76.4545L62.9334 76.5295L63.0185 76.6045L63.0572 76.6387L68.944 81.8273L69.0101 81.8856L69.0763 81.8273L75.0018 76.6045L75.0869 76.5295L75.0018 76.4545L69.0763 71.2317ZM62.318 78.9293L62.2076 78.832L62.1578 78.9705L57.5813 91.7089L57.7416 91.8177L67.256 83.4317L67.3411 83.3567L67.256 83.2816L62.318 78.9293ZM57.2091 95.2292L57.0106 95.4042H57.2752H80.745H81.0097L80.8112 95.2292L69.0763 84.886L69.0101 84.8277L68.944 84.886L57.2091 95.2292Z" fill="#01C3FF" stroke="black" stroke-width="0.2"/>
<path d="M76.3107 52.6348C76.3107 51.3318 75.8736 50.1217 75.1301 49.1118L76.6836 47.7426C77.8222 49.1218 78.4926 50.8103 78.4926 52.6348C78.4926 54.4593 77.8222 56.1477 76.6836 57.527L75.1301 56.1577C75.8736 55.1479 76.3107 53.9377 76.3107 52.6348ZM61.3371 57.527C60.1986 56.1477 59.5281 54.4593 59.5281 52.6348C59.5281 50.8103 60.1986 49.1218 61.3371 47.7426L62.8906 49.1118C62.1472 50.1217 61.7101 51.3318 61.7101 52.6348C61.7101 53.9377 62.1472 55.1479 62.8906 56.1577L61.3371 57.527Z" fill="#FBBC05" stroke="black" stroke-width="0.4"/>
<path d="M54.3641 52.6344C54.3641 49.5585 55.5982 46.7256 57.6626 44.5035L59.1923 45.8519C57.5396 47.7166 56.546 50.072 56.546 52.6344C56.546 55.1967 57.5396 57.5521 59.1923 59.4168L57.6626 60.7652C55.5982 58.5431 54.3641 55.7102 54.3641 52.6344ZM80.3578 60.7652L78.828 59.4168C80.4808 57.5521 81.4744 55.1967 81.4744 52.6344C81.4744 50.072 80.4808 47.7166 78.828 45.8519L80.3578 44.5035C82.4222 46.7256 83.6563 49.5585 83.6563 52.6344C83.6563 55.7102 82.4222 58.5431 80.3578 60.7652Z" fill="#01C3FF" stroke="black" stroke-width="0.4"/>
<path d="M49.15 52.6346C49.15 48.277 50.9759 44.2746 53.9965 41.206L55.5989 42.6184C52.9938 45.3193 51.4319 48.8106 51.4319 52.6346C51.4319 56.4586 52.9938 59.9499 55.5989 62.6509L53.9965 64.0632C50.9759 60.9946 49.15 56.9922 49.15 52.6346ZM82.4211 62.6509C85.0261 59.95 86.5881 56.4586 86.5881 52.6346C86.5881 48.8106 85.0262 45.3193 82.4211 42.6184L84.0235 41.206C87.0441 44.2746 88.87 48.277 88.87 52.6346C88.87 56.9922 87.0441 60.9946 84.0229 64.0632L82.4211 62.6509Z" fill="#21D885" stroke="black" stroke-width="0.3"/>
<mask id="path-6-inside-1" fill="white">
<path d="M73.529 52.6344C73.529 52.7311 73.5225 52.8335 73.5096 52.9302C73.5096 52.953 73.5096 52.9757 73.5031 52.9985V53.0269C73.5031 53.0326 73.5031 53.0326 73.5031 53.0383C73.5031 53.0724 73.4967 53.1066 73.4902 53.1407C73.4767 53.2431 73.4573 53.3398 73.4386 53.4366C73.4128 53.5446 73.3799 53.6527 73.3476 53.7552C73.3347 53.795 73.3218 53.8291 73.3089 53.8689C73.2695 53.977 73.2249 54.0851 73.1733 54.1875C73.1152 54.307 73.0507 54.4208 72.9861 54.5346C72.9209 54.6313 72.857 54.7337 72.7854 54.8247C72.7789 54.8304 72.7725 54.8418 72.7666 54.8475C72.7595 54.8589 72.7531 54.8703 72.7408 54.8816C72.6698 54.9784 72.5859 55.0751 72.4955 55.1661C72.4045 55.2628 72.3084 55.3595 72.2051 55.4506C72.1018 55.5416 71.9921 55.6269 71.8823 55.7066C71.7791 55.7862 71.6693 55.8602 71.5596 55.9228C71.546 55.9342 71.5338 55.9398 71.5202 55.9455C71.5138 55.9512 71.5015 55.9569 71.4944 55.9626C71.3918 56.0252 71.2749 56.0821 71.1652 56.139C70.9135 56.2584 70.6488 56.3552 70.3719 56.4348C70.3525 56.4405 70.3325 56.4462 70.3132 56.4519C70.2034 56.4803 70.0872 56.5031 69.9717 56.5258C69.9581 56.5258 69.9523 56.5315 69.9394 56.5315C69.9201 56.5372 69.9065 56.5429 69.8878 56.5429C69.7522 56.5657 69.6167 56.5827 69.4747 56.5941C69.3269 56.6112 69.1655 56.6169 69.0106 56.6169C68.8557 56.6169 68.6943 56.6112 68.5458 56.5941C68.4038 56.5827 68.2683 56.5657 68.1327 56.5429C68.1134 56.5429 68.1004 56.5372 68.0811 56.5315C68.0682 56.5315 68.0617 56.5258 68.0488 56.5258C67.9326 56.5031 67.8164 56.4803 67.7067 56.4519C67.6873 56.4462 67.668 56.4405 67.6486 56.4348C67.371 56.3552 67.1064 56.2584 66.8547 56.139C66.7449 56.0821 66.6287 56.0252 66.5255 55.9626C66.519 55.9569 66.5061 55.9512 66.4996 55.9455C66.4867 55.9398 66.4738 55.9342 66.4609 55.9228C66.3512 55.8602 66.2414 55.7862 66.1382 55.7066C66.0284 55.6269 65.9187 55.5416 65.8154 55.4506C65.7122 55.3595 65.6153 55.2628 65.525 55.1661C65.4346 55.0751 65.3507 54.9784 65.2797 54.8816C65.2668 54.8703 65.2603 54.8589 65.2539 54.8475C65.2474 54.8418 65.2409 54.8304 65.2345 54.8247C65.1635 54.7337 65.0989 54.6313 65.0344 54.5346C64.9698 54.4208 64.9053 54.307 64.8472 54.1875C64.7956 54.0851 64.7504 53.977 64.7117 53.8689C64.6987 53.8291 64.6858 53.795 64.6729 53.7552C64.6406 53.6527 64.6084 53.5446 64.5826 53.4366C64.5632 53.3398 64.5438 53.2431 64.5309 53.1407C64.5245 53.1066 64.518 53.0724 64.518 53.0383C64.518 53.0326 64.518 53.0326 64.518 53.0269V52.9985C64.5116 52.9757 64.5116 52.953 64.5116 52.9302C64.4986 52.8335 64.4922 52.7311 64.4922 52.6344C64.4922 52.5376 64.4986 52.4352 64.5116 52.3385C64.5116 52.3158 64.5116 52.293 64.518 52.2702V52.2418C64.518 52.2361 64.518 52.2361 64.518 52.2304C64.518 52.1963 64.5245 52.1622 64.5309 52.128C64.5438 52.0256 64.5632 51.9289 64.5826 51.8322C64.6019 51.7411 64.6277 51.6558 64.66 51.5648C64.66 51.5534 64.6665 51.5363 64.6729 51.5249C64.6794 51.4851 64.6923 51.4396 64.7117 51.3998C64.7504 51.2917 64.7956 51.1836 64.8472 51.0812C64.9053 50.9617 64.9698 50.8479 65.0344 50.7341C65.0989 50.6374 65.1635 50.535 65.2345 50.444C65.2409 50.4383 65.2474 50.4269 65.2539 50.4212C65.2603 50.4098 65.2668 50.3985 65.2797 50.3871C65.3507 50.2904 65.4346 50.1937 65.525 50.1026C65.6153 50.0059 65.7122 49.9092 65.8154 49.8182C65.9187 49.7271 66.0284 49.6418 66.1382 49.5621C66.2414 49.4825 66.3512 49.4085 66.4609 49.3459C66.4738 49.3346 66.4867 49.3289 66.4996 49.3232C66.5061 49.3175 66.519 49.3118 66.5255 49.3061C66.6287 49.2435 66.7449 49.1866 66.8547 49.1298C66.9838 49.0729 67.1129 49.016 67.2484 48.9648C67.3646 48.9193 67.4872 48.8794 67.6099 48.8453C67.6551 48.8282 67.7067 48.8168 67.7519 48.8112C67.7648 48.8055 67.7842 48.7998 67.7971 48.7998C67.9003 48.7713 67.9972 48.7486 68.1004 48.7315C68.2102 48.7144 68.3199 48.6974 68.4361 48.686C68.4748 48.6803 68.5136 48.6746 68.5523 48.6746C68.5587 48.6746 68.5587 48.6746 68.5652 48.6746H68.5975C68.6233 48.6689 68.6491 48.6689 68.6749 48.6689C68.7847 48.6575 68.9008 48.6519 69.0106 48.6519C69.1203 48.6519 69.2365 48.6575 69.3462 48.6689C69.372 48.6689 69.3979 48.6689 69.4237 48.6746H69.456C69.4624 48.6746 69.4624 48.6746 69.4689 48.6746C69.5076 48.6746 69.5463 48.6803 69.5851 48.686C69.7012 48.6974 69.811 48.7144 69.9207 48.7315C70.024 48.7486 70.1208 48.7713 70.2241 48.7998C70.2376 48.7998 70.2564 48.8055 70.2693 48.8112C70.3138 48.8168 70.3654 48.8282 70.4113 48.8453C70.5339 48.8794 70.6566 48.9193 70.7734 48.9648C70.9089 49.016 71.0374 49.0729 71.1665 49.1298C71.2762 49.1866 71.3931 49.2435 71.4957 49.3061C71.5028 49.3118 71.5151 49.3175 71.5215 49.3232C71.5351 49.3289 71.5473 49.3346 71.5609 49.3459C71.6706 49.4085 71.7803 49.4825 71.8836 49.5621C71.9934 49.6418 72.1031 49.7271 72.2064 49.8182C72.3096 49.9092 72.4065 50.0059 72.4968 50.1026C72.5872 50.1937 72.6711 50.2904 72.7421 50.3871C72.755 50.3985 72.7608 50.4098 72.7679 50.4212C72.7744 50.4269 72.7808 50.4383 72.7867 50.444C72.8577 50.535 72.9222 50.6374 72.9874 50.7341C73.0519 50.8479 73.1165 50.9617 73.1746 51.0812C73.2262 51.1836 73.2708 51.2917 73.3101 51.3998C73.3295 51.4396 73.3424 51.4851 73.3489 51.5249C73.356 51.5363 73.3624 51.5534 73.3624 51.5648C73.3947 51.6558 73.4205 51.7411 73.4399 51.8322C73.4586 51.9289 73.4786 52.0256 73.4915 52.128C73.498 52.1622 73.5044 52.1963 73.5044 52.2304C73.5044 52.2361 73.5044 52.2361 73.5044 52.2418V52.2702C73.5109 52.293 73.5109 52.3158 73.5109 52.3385C73.5225 52.4352 73.529 52.5376 73.529 52.6344Z"/>
</mask>
<path d="M73.529 52.6344C73.529 52.7311 73.5225 52.8335 73.5096 52.9302C73.5096 52.953 73.5096 52.9757 73.5031 52.9985V53.0269C73.5031 53.0326 73.5031 53.0326 73.5031 53.0383C73.5031 53.0724 73.4967 53.1066 73.4902 53.1407C73.4767 53.2431 73.4573 53.3398 73.4386 53.4366C73.4128 53.5446 73.3799 53.6527 73.3476 53.7552C73.3347 53.795 73.3218 53.8291 73.3089 53.8689C73.2695 53.977 73.2249 54.0851 73.1733 54.1875C73.1152 54.307 73.0507 54.4208 72.9861 54.5346C72.9209 54.6313 72.857 54.7337 72.7854 54.8247C72.7789 54.8304 72.7725 54.8418 72.7666 54.8475C72.7595 54.8589 72.7531 54.8703 72.7408 54.8816C72.6698 54.9784 72.5859 55.0751 72.4955 55.1661C72.4045 55.2628 72.3084 55.3595 72.2051 55.4506C72.1018 55.5416 71.9921 55.6269 71.8823 55.7066C71.7791 55.7862 71.6693 55.8602 71.5596 55.9228C71.546 55.9342 71.5338 55.9398 71.5202 55.9455C71.5138 55.9512 71.5015 55.9569 71.4944 55.9626C71.3918 56.0252 71.2749 56.0821 71.1652 56.139C70.9135 56.2584 70.6488 56.3552 70.3719 56.4348C70.3525 56.4405 70.3325 56.4462 70.3132 56.4519C70.2034 56.4803 70.0872 56.5031 69.9717 56.5258C69.9581 56.5258 69.9523 56.5315 69.9394 56.5315C69.9201 56.5372 69.9065 56.5429 69.8878 56.5429C69.7522 56.5657 69.6167 56.5827 69.4747 56.5941C69.3269 56.6112 69.1655 56.6169 69.0106 56.6169C68.8557 56.6169 68.6943 56.6112 68.5458 56.5941C68.4038 56.5827 68.2683 56.5657 68.1327 56.5429C68.1134 56.5429 68.1004 56.5372 68.0811 56.5315C68.0682 56.5315 68.0617 56.5258 68.0488 56.5258C67.9326 56.5031 67.8164 56.4803 67.7067 56.4519C67.6873 56.4462 67.668 56.4405 67.6486 56.4348C67.371 56.3552 67.1064 56.2584 66.8547 56.139C66.7449 56.0821 66.6287 56.0252 66.5255 55.9626C66.519 55.9569 66.5061 55.9512 66.4996 55.9455C66.4867 55.9398 66.4738 55.9342 66.4609 55.9228C66.3512 55.8602 66.2414 55.7862 66.1382 55.7066C66.0284 55.6269 65.9187 55.5416 65.8154 55.4506C65.7122 55.3595 65.6153 55.2628 65.525 55.1661C65.4346 55.0751 65.3507 54.9784 65.2797 54.8816C65.2668 54.8703 65.2603 54.8589 65.2539 54.8475C65.2474 54.8418 65.2409 54.8304 65.2345 54.8247C65.1635 54.7337 65.0989 54.6313 65.0344 54.5346C64.9698 54.4208 64.9053 54.307 64.8472 54.1875C64.7956 54.0851 64.7504 53.977 64.7117 53.8689C64.6987 53.8291 64.6858 53.795 64.6729 53.7552C64.6406 53.6527 64.6084 53.5446 64.5826 53.4366C64.5632 53.3398 64.5438 53.2431 64.5309 53.1407C64.5245 53.1066 64.518 53.0724 64.518 53.0383C64.518 53.0326 64.518 53.0326 64.518 53.0269V52.9985C64.5116 52.9757 64.5116 52.953 64.5116 52.9302C64.4986 52.8335 64.4922 52.7311 64.4922 52.6344C64.4922 52.5376 64.4986 52.4352 64.5116 52.3385C64.5116 52.3158 64.5116 52.293 64.518 52.2702V52.2418C64.518 52.2361 64.518 52.2361 64.518 52.2304C64.518 52.1963 64.5245 52.1622 64.5309 52.128C64.5438 52.0256 64.5632 51.9289 64.5826 51.8322C64.6019 51.7411 64.6277 51.6558 64.66 51.5648C64.66 51.5534 64.6665 51.5363 64.6729 51.5249C64.6794 51.4851 64.6923 51.4396 64.7117 51.3998C64.7504 51.2917 64.7956 51.1836 64.8472 51.0812C64.9053 50.9617 64.9698 50.8479 65.0344 50.7341C65.0989 50.6374 65.1635 50.535 65.2345 50.444C65.2409 50.4383 65.2474 50.4269 65.2539 50.4212C65.2603 50.4098 65.2668 50.3985 65.2797 50.3871C65.3507 50.2904 65.4346 50.1937 65.525 50.1026C65.6153 50.0059 65.7122 49.9092 65.8154 49.8182C65.9187 49.7271 66.0284 49.6418 66.1382 49.5621C66.2414 49.4825 66.3512 49.4085 66.4609 49.3459C66.4738 49.3346 66.4867 49.3289 66.4996 49.3232C66.5061 49.3175 66.519 49.3118 66.5255 49.3061C66.6287 49.2435 66.7449 49.1866 66.8547 49.1298C66.9838 49.0729 67.1129 49.016 67.2484 48.9648C67.3646 48.9193 67.4872 48.8794 67.6099 48.8453C67.6551 48.8282 67.7067 48.8168 67.7519 48.8112C67.7648 48.8055 67.7842 48.7998 67.7971 48.7998C67.9003 48.7713 67.9972 48.7486 68.1004 48.7315C68.2102 48.7144 68.3199 48.6974 68.4361 48.686C68.4748 48.6803 68.5136 48.6746 68.5523 48.6746C68.5587 48.6746 68.5587 48.6746 68.5652 48.6746H68.5975C68.6233 48.6689 68.6491 48.6689 68.6749 48.6689C68.7847 48.6575 68.9008 48.6519 69.0106 48.6519C69.1203 48.6519 69.2365 48.6575 69.3462 48.6689C69.372 48.6689 69.3979 48.6689 69.4237 48.6746H69.456C69.4624 48.6746 69.4624 48.6746 69.4689 48.6746C69.5076 48.6746 69.5463 48.6803 69.5851 48.686C69.7012 48.6974 69.811 48.7144 69.9207 48.7315C70.024 48.7486 70.1208 48.7713 70.2241 48.7998C70.2376 48.7998 70.2564 48.8055 70.2693 48.8112C70.3138 48.8168 70.3654 48.8282 70.4113 48.8453C70.5339 48.8794 70.6566 48.9193 70.7734 48.9648C70.9089 49.016 71.0374 49.0729 71.1665 49.1298C71.2762 49.1866 71.3931 49.2435 71.4957 49.3061C71.5028 49.3118 71.5151 49.3175 71.5215 49.3232C71.5351 49.3289 71.5473 49.3346 71.5609 49.3459C71.6706 49.4085 71.7803 49.4825 71.8836 49.5621C71.9934 49.6418 72.1031 49.7271 72.2064 49.8182C72.3096 49.9092 72.4065 50.0059 72.4968 50.1026C72.5872 50.1937 72.6711 50.2904 72.7421 50.3871C72.755 50.3985 72.7608 50.4098 72.7679 50.4212C72.7744 50.4269 72.7808 50.4383 72.7867 50.444C72.8577 50.535 72.9222 50.6374 72.9874 50.7341C73.0519 50.8479 73.1165 50.9617 73.1746 51.0812C73.2262 51.1836 73.2708 51.2917 73.3101 51.3998C73.3295 51.4396 73.3424 51.4851 73.3489 51.5249C73.356 51.5363 73.3624 51.5534 73.3624 51.5648C73.3947 51.6558 73.4205 51.7411 73.4399 51.8322C73.4586 51.9289 73.4786 52.0256 73.4915 52.128C73.498 52.1622 73.5044 52.1963 73.5044 52.2304C73.5044 52.2361 73.5044 52.2361 73.5044 52.2418V52.2702C73.5109 52.293 73.5109 52.3158 73.5109 52.3385C73.5225 52.4352 73.529 52.5376 73.529 52.6344Z" fill="#01C3FF" stroke="black" stroke-width="1.2" mask="url(#path-6-inside-1)"/>
</svg>
