<svg width="138" height="138" viewBox="0 0 138 138" fill="none" xmlns="http://www.w3.org/2000/svg">
<path d="M69 138C107.108 138 138 107.108 138 69C138 30.8924 107.108 0 69 0C30.8924 0 0 30.8924 0 69C0 107.108 30.8924 138 69 138Z" fill="#EFF3FC"/>
<path d="M82.5115 94.7249H47.5228C47.0394 94.7249 46.5757 94.9169 46.2339 95.2588C45.892 95.6006 45.7 96.0643 45.7 96.5477C45.7 97.0312 45.892 97.4948 46.2339 97.8367C46.5757 98.1785 47.0394 98.3705 47.5228 98.3705H82.5115C82.9949 98.3705 83.4586 98.1785 83.8004 97.8367C84.1423 97.4948 84.3343 97.0312 84.3343 96.5477C84.3343 96.0643 84.1423 95.6006 83.8004 95.2588C83.4586 94.9169 82.9949 94.7249 82.5115 94.7249Z" fill="white" stroke="black" stroke-width="0.6"/>
<path d="M49.6484 49.4624V68.8612H80.3818V63.4326C78.6288 63.4239 76.8977 63.0419 75.304 62.3118C73.7102 61.5818 72.2903 60.5205 71.1388 59.1986C69.9874 57.8768 69.1308 56.3248 68.6262 54.6459C68.1216 52.9671 67.9805 51.2 68.2124 49.4624H49.6484Z" fill="#FBBC05" stroke="black" stroke-width="0.7"/>
<path d="M80.0818 93.4854H49.9484V74.6872H80.0818V93.4854ZM54.9662 92.2868C55.1388 92.1142 55.2357 91.8802 55.2357 91.6362V80.6577C55.2357 80.4137 55.1388 80.1796 54.9662 80.0071C54.7937 79.8345 54.5596 79.7376 54.3156 79.7376C54.0716 79.7376 53.8376 79.8345 53.665 80.0071C53.4925 80.1796 53.3955 80.4137 53.3955 80.6577V91.6362C53.3955 91.8802 53.4925 92.1142 53.665 92.2868C53.8376 92.4593 54.0716 92.5563 54.3156 92.5563C54.5596 92.5563 54.7937 92.4593 54.9662 92.2868ZM54.9662 78.9625C55.1388 78.7899 55.2357 78.5559 55.2357 78.3119V77.5891C55.2357 77.3451 55.1388 77.1111 54.9662 76.9385C54.7937 76.766 54.5596 76.669 54.3156 76.669C54.0716 76.669 53.8376 76.766 53.665 76.9385C53.4925 77.1111 53.3955 77.3451 53.3955 77.5891V78.3119C53.3955 78.5559 53.4925 78.7899 53.665 78.9625C53.8376 79.135 54.0716 79.232 54.3156 79.232C54.5596 79.232 54.7937 79.135 54.9662 78.9625Z" fill="#FBBC05" fill-opacity="0.42" stroke="black" stroke-width="0.6"/>
<path d="M68.4447 48.4224H68.6024L68.6392 48.269C68.8898 47.2232 69.2792 46.2156 69.7969 45.273L69.9597 44.9768H69.6216H47.5228C47.0659 44.9768 46.6277 45.1583 46.3046 45.4814C45.9815 45.8045 45.8 46.2427 45.8 46.6996C45.8 47.1565 45.9815 47.5947 46.3046 47.9178C46.6277 48.2409 47.0659 48.4224 47.5228 48.4224H68.4447Z" fill="white" stroke="black" stroke-width="0.4"/>
<path d="M80.4437 44.4116L76.4306 51.2624C76.0168 51.9689 75.7968 52.7722 75.793 53.5911C75.7892 54.4099 76.0016 55.2152 76.4088 55.9256C76.816 56.636 77.4036 57.2263 78.112 57.6368C78.8205 58.0473 79.6248 58.2635 80.4437 58.2635C81.2625 58.2635 82.0668 58.0473 82.7753 57.6368C83.4837 57.2263 84.0713 56.636 84.4785 55.9256C84.8857 55.2152 85.0981 54.4099 85.0943 53.5911C85.0905 52.7722 84.8705 51.9689 84.4567 51.2624L80.4437 44.4116ZM83.9275 53.6581C83.8047 54.2651 83.5255 54.8295 83.1176 55.2955C82.7097 55.7615 82.1872 56.1129 81.6018 56.315C81.4465 56.3677 81.2767 56.3566 81.1295 56.2844C80.9823 56.2121 80.8697 56.0845 80.8164 55.9295C80.763 55.7744 80.7733 55.6045 80.8449 55.457C80.9165 55.3095 81.0436 55.1963 81.1984 55.1423C81.5793 55.0105 81.9193 54.7816 82.1848 54.4783C82.4502 54.1749 82.6319 53.8076 82.712 53.4125C82.7267 53.3313 82.7575 53.254 82.8025 53.1848C82.8475 53.1157 82.9058 53.0563 82.9741 53.01C83.0423 52.9637 83.1191 52.9315 83.2 52.9152C83.2808 52.899 83.3641 52.899 83.4449 52.9154C83.5258 52.9317 83.6026 52.964 83.6708 53.0104C83.739 53.0567 83.7972 53.1162 83.8422 53.1854C83.8871 53.2545 83.9178 53.332 83.9324 53.4131C83.947 53.4943 83.9453 53.5776 83.9274 53.6581H83.9275Z" fill="#56DCE8"/>
<path d="M80.4437 44.4116L76.4306 51.2624C76.0168 51.9689 75.7968 52.7722 75.793 53.5911C75.7892 54.4099 76.0016 55.2152 76.4088 55.9256C76.816 56.636 77.4036 57.2263 78.112 57.6368C78.8205 58.0473 79.6248 58.2635 80.4437 58.2635C81.2625 58.2635 82.0668 58.0473 82.7753 57.6368C83.4837 57.2263 84.0713 56.636 84.4785 55.9256C84.8857 55.2152 85.0981 54.4099 85.0943 53.5911C85.0905 52.7722 84.8705 51.9689 84.4567 51.2624L80.4437 44.4116ZM83.9275 53.6581C83.8047 54.2651 83.5255 54.8295 83.1176 55.2955C82.7097 55.7615 82.1872 56.1129 81.6018 56.315C81.4465 56.3677 81.2767 56.3566 81.1295 56.2844C80.9823 56.2121 80.8697 56.0845 80.8164 55.9295C80.763 55.7744 80.7733 55.6045 80.8449 55.457C80.9165 55.3095 81.0436 55.1963 81.1984 55.1423C81.5793 55.0105 81.9193 54.7816 82.1848 54.4783C82.4502 54.1749 82.6319 53.8076 82.712 53.4125C82.7267 53.3313 82.7575 53.254 82.8025 53.1848C82.8475 53.1157 82.9058 53.0563 82.9741 53.01C83.0423 52.9637 83.1191 52.9315 83.2 52.9152C83.2808 52.899 83.3641 52.899 83.4449 52.9154C83.5258 52.9317 83.6026 52.964 83.6708 53.0104C83.739 53.0567 83.7972 53.1162 83.8422 53.1854C83.8871 53.2545 83.9178 53.332 83.9324 53.4131C83.947 53.4943 83.9453 53.5776 83.9274 53.6581H83.9275Z" stroke="black"/>
<path d="M82.5115 69.9016H47.5228C47.0659 69.9016 46.6277 70.0831 46.3046 70.4062C45.9815 70.7293 45.8 71.1675 45.8 71.6244C45.8 72.0813 45.9815 72.5195 46.3046 72.8426C46.6277 73.1657 47.0659 73.3472 47.5228 73.3472H82.5115C82.9684 73.3472 83.4066 73.1657 83.7297 72.8426C84.0528 72.5195 84.2343 72.0813 84.2343 71.6244C84.2343 71.1675 84.0528 70.7293 83.7297 70.4062C83.4066 70.0831 82.9684 69.9016 82.5115 69.9016Z" fill="white" stroke="black" stroke-width="0.4"/>
<path d="M85.7441 50.5099L85.744 50.5098L81.1959 42.7457C81.1959 42.7457 81.1959 42.7457 81.1959 42.7457C81.1192 42.6147 81.0095 42.506 80.8778 42.4305C80.7461 42.355 80.5969 42.3153 80.4451 42.3153C80.2933 42.3153 80.1441 42.355 80.0124 42.4305C79.8807 42.506 79.771 42.6147 79.6943 42.7457L75.1463 50.5091C74.3908 51.7975 74.1307 53.3172 74.4149 54.7835C74.699 56.2498 75.5078 57.5624 76.6899 58.4753C77.872 59.3883 79.3463 59.8392 80.8369 59.7436C82.3274 59.6479 83.732 59.0123 84.7877 57.9557C85.7478 56.995 86.3625 55.7431 86.5355 54.3959C86.7085 53.0487 86.4302 51.6821 85.7441 50.5099ZM74.4188 42.0778C76.2026 40.886 78.2997 40.2499 80.445 40.25C83.3208 40.2534 86.0778 41.3973 88.1112 43.4309C90.1447 45.4644 91.2885 48.2215 91.2917 51.0973C91.2917 53.2426 90.6555 55.3397 89.4636 57.1234C88.2717 58.9072 86.5776 60.2975 84.5956 61.1184C82.6135 61.9394 80.4325 62.1542 78.3284 61.7356C76.2242 61.317 74.2915 60.2839 72.7745 58.7669C71.2575 57.2498 70.2245 55.317 69.806 53.2129C69.3875 51.1087 69.6024 48.9277 70.4235 46.9457C71.2445 44.9637 72.6349 43.2696 74.4188 42.0778Z" fill="white" stroke="black" stroke-width="0.5"/>
</svg>
