<svg width="138" height="138" viewBox="0 0 138 138" fill="none" xmlns="http://www.w3.org/2000/svg">
<path d="M69 138C107.108 138 138 107.108 138 69C138 30.8924 107.108 0 69 0C30.8924 0 0 30.8924 0 69C0 107.108 30.8924 138 69 138Z" fill="#EFF3FC"/>
<path d="M58.6953 64.1929H62.9253V84.8351H58.6953V64.1929Z" fill="#01C3FF" stroke="black" stroke-width="0.5"/>
<path d="M66.416 64.1929H70.646V84.8351H66.416V64.1929Z" stroke="black" stroke-width="0.5"/>
<path d="M74.1367 64.1929H78.3667V84.8351H74.1367V64.1929Z" fill="#01C3FF" stroke="black" stroke-width="0.5"/>
<path d="M50.9727 64.1929H55.2025V84.8351H50.9727V64.1929Z" stroke="black" stroke-width="0.5"/>
<path d="M81.8574 64.1929H86.0873V84.8351H81.8574V64.1929Z" stroke="black" stroke-width="0.5"/>
<path d="M43.15 58.109H93.9105V60.8008H43.15V58.109Z" fill="#FBBC05" stroke="black" stroke-width="0.3"/>
<path d="M92.9118 55.3159L93.066 54.6517L68.6843 42.6858L68.5301 42.6101L68.3759 42.6858L43.9942 54.6517L44.1484 55.3159H92.9118Z" fill="#21D885" stroke="black" stroke-width="0.7"/>
<path d="M89.5801 64.1929H93.8101V84.8351H89.5801V64.1929Z" fill="#01C3FF" stroke="black" stroke-width="0.5"/>
<path d="M43 87.7767H42.7V88.0767V94.0603V94.3603H43H94.0605H94.3605V94.0603V88.0767V87.7767H94.0605H43Z" fill="#01C3FF" stroke="black" stroke-width="0.6"/>
<path d="M43.25 64.1929H47.48V84.8351H43.25V64.1929Z" fill="#01C3FF" stroke="black" stroke-width="0.5"/>
</svg>
