<svg width="38" height="38" viewBox="0 0 38 38" fill="none" xmlns="http://www.w3.org/2000/svg">
<g clip-path="url(#clip0)">
<path d="M6.15103 23.0911C6.40463 23.2608 6.69141 23.3419 6.97515 23.3419C7.45386 23.3419 7.92389 23.1107 8.21015 22.683C10.6087 19.0988 14.6182 16.959 18.9356 16.959C23.2402 16.959 27.2431 19.089 29.6433 22.6568C30.101 23.337 31.0234 23.5174 31.7035 23.0598C32.3837 22.6021 32.5641 21.6797 32.1065 20.9996C30.1888 18.1492 27.4393 16.0459 24.2973 14.9207C26.1816 13.3815 27.3867 11.0409 27.3867 8.42383C27.3867 3.79933 23.6245 0.0371094 19 0.0371094C14.3755 0.0371094 10.6133 3.79933 10.6133 8.42383C10.6133 11.0221 11.8009 13.348 13.6619 14.8876C10.4708 16.0086 7.67993 18.1374 5.7429 21.0319C5.28697 21.7132 5.4697 22.6352 6.15103 23.0911ZM19 3.00586C21.9875 3.00586 24.418 5.43638 24.418 8.42383C24.418 11.4113 21.9875 13.8418 19 13.8418C16.0125 13.8418 13.582 11.4113 13.582 8.42383C13.582 5.43638 16.0125 3.00586 19 3.00586ZM24.9195 26.3202L22.7066 27.9166C22.3774 28.1541 22.2396 28.5751 22.3654 28.9594L23.2565 31.5424C23.2941 31.6574 23.3086 31.7698 23.3038 31.877C23.2723 32.5707 22.4028 33.0452 21.7651 32.5852L19.5523 30.9884C19.3876 30.8697 19.1939 30.8103 19.0001 30.8103C18.8063 30.8103 18.6125 30.8697 18.4479 30.9884L16.2351 32.5852C15.5974 33.0452 14.7237 32.5707 14.6961 31.877C14.6919 31.7698 14.7067 31.6573 14.7444 31.5424L15.6347 28.9594C15.7605 28.5751 15.6227 28.1541 15.2934 27.9166L13.0805 26.3202C12.3443 25.7891 12.7227 24.5293 13.6327 24.5293H16.368C16.775 24.5293 17.1357 24.3726 17.2614 23.9883L18.1066 21.3887C18.2473 20.959 18.6236 20.7441 19.0001 20.7441C19.3765 20.7441 19.7529 20.959 19.8935 21.3887L20.7387 23.9883C20.8645 24.3726 21.2252 24.5293 21.6322 24.5293H24.3674C25.2774 24.5293 25.6558 25.7891 24.9195 26.3202ZM37.6109 31.5155L35.398 33.1119C35.0688 33.3494 34.931 33.7704 35.0568 34.1547L35.9479 36.7377C35.9856 36.8527 36 36.9651 35.9952 37.0723C35.9637 37.766 35.0942 38.2405 34.4565 37.7805L32.2437 36.1837C32.0791 36.065 31.8853 36.0056 31.6915 36.0056C31.4977 36.0056 31.3039 36.065 31.1393 36.1837L28.9265 37.7805C28.2888 38.2405 27.4151 37.766 27.3875 37.0723C27.3833 36.9651 27.3981 36.8527 27.4358 36.7377L28.3261 34.1547C28.4519 33.7704 28.3141 33.3494 27.9848 33.1119L25.7719 31.5155C25.0357 30.9844 25.4141 29.7246 26.3241 29.7246H29.0594C29.4664 29.7246 29.8271 29.5679 29.9528 29.1836L30.798 26.584C30.9387 26.1543 31.315 25.9395 31.6915 25.9395C32.0679 25.9395 32.4443 26.1543 32.5849 26.584L33.4301 29.1836C33.5559 29.5679 33.9166 29.7246 34.3236 29.7246H37.0588C37.9688 29.7246 38.3472 30.9844 37.6109 31.5155ZM12.2281 31.5155L10.0152 33.1119C9.68599 33.3494 9.54817 33.7704 9.67397 34.1547L10.5651 36.7377C10.6027 36.8527 10.6172 36.9651 10.6124 37.0723C10.5808 37.766 9.71137 38.2405 9.07369 37.7805L6.86078 36.1837C6.69616 36.065 6.50238 36.0056 6.30859 36.0056C6.11481 36.0056 5.92102 36.065 5.75641 36.1837L3.54357 37.7805C2.90589 38.2405 2.03226 37.766 2.00465 37.0723C2.00042 36.9651 2.01526 36.8527 2.05289 36.7377L2.94322 34.1547C3.06902 33.7704 2.9312 33.3494 2.60196 33.1119L0.389055 31.5155C-0.347195 30.9844 0.0311718 29.7246 0.941242 29.7246H3.6765C4.08352 29.7246 4.44422 29.5679 4.56995 29.1836L5.41515 26.584C5.55579 26.1543 5.93216 25.9395 6.30859 25.9395C6.68503 25.9395 7.06139 26.1543 7.20204 26.584L8.04724 29.1836C8.17304 29.5679 8.53367 29.7246 8.94069 29.7246H11.6759C12.586 29.7246 12.9644 30.9844 12.2281 31.5155Z" fill="white"/>
</g>
<defs>
<clipPath id="clip0">
<rect width="38" height="38" fill="white"/>
</clipPath>
</defs>
</svg>
