<svg width="35" height="35" viewBox="0 0 35 35" fill="none" xmlns="http://www.w3.org/2000/svg">
<g clip-path="url(#clip0)">
<path d="M17.5 14.125C20.7846 14.125 23.4473 11.4623 23.4473 8.17773C23.4473 4.89315 20.7846 2.23047 17.5 2.23047C14.2154 2.23047 11.5527 4.89315 11.5527 8.17773C11.5527 11.4623 14.2154 14.125 17.5 14.125Z" fill="white"/>
<path d="M29.5312 14.1255C31.6077 14.1255 33.291 12.4422 33.291 10.3657C33.291 8.28926 31.6077 6.60596 29.5312 6.60596C27.4548 6.60596 25.7715 8.28926 25.7715 10.3657C25.7715 12.4422 27.4548 14.1255 29.5312 14.1255Z" fill="white"/>
<path d="M5.46875 14.1255C7.54521 14.1255 9.22852 12.4422 9.22852 10.3657C9.22852 8.28926 7.54521 6.60596 5.46875 6.60596C3.39229 6.60596 1.70898 8.28926 1.70898 10.3657C1.70898 12.4422 3.39229 14.1255 5.46875 14.1255Z" fill="white"/>
<path d="M9.17314 17.5015C7.69316 16.2889 6.35284 16.4494 4.6416 16.4494C2.08223 16.4494 0 18.5193 0 21.063V28.5285C0 29.6332 0.90166 30.5314 2.01045 30.5314C6.79738 30.5314 6.2207 30.6181 6.2207 30.325C6.2207 25.0349 5.59412 21.1555 9.17314 17.5015Z" fill="white"/>
<path d="M19.1277 16.4762C16.1388 16.2269 13.5408 16.479 11.2999 18.3287C7.54989 21.3324 8.27156 25.3768 8.27156 30.3244C8.27156 31.6334 9.3366 32.7184 10.6655 32.7184C25.0949 32.7184 25.6692 33.1838 26.5249 31.289C26.8055 30.6482 26.7286 30.8518 26.7286 24.7217C26.7286 19.8527 22.5127 16.4762 19.1277 16.4762Z" fill="white"/>
<path d="M30.3587 16.4492C28.6381 16.4492 27.3051 16.2904 25.8271 17.5013C29.3794 21.1282 28.7796 24.7429 28.7796 30.3248C28.7796 30.6197 28.3009 30.5313 32.9181 30.5313C34.0665 30.5313 35.0003 29.6009 35.0003 28.4572V21.0628C35.0003 18.5192 32.9181 16.4492 30.3587 16.4492Z" fill="white"/>
</g>
<defs>
<clipPath id="clip0">
<rect width="35" height="35" fill="white"/>
</clipPath>
</defs>
</svg>
