<svg width="47" height="39" viewBox="0 0 47 39" fill="none" xmlns="http://www.w3.org/2000/svg">
<path d="M45.8432 14.2875L37.8408 0.651654C37.4739 0.0265049 36.6713 -0.185513 36.0436 0.176966L31.2477 2.94586L26.9279 1.35691C26.7689 1.29844 26.6079 1.24937 26.4456 1.20812C25.2293 0.898935 23.9401 1.07244 22.84 1.70761L15.6992 5.8304C14.1219 6.74099 13.5815 8.75784 14.4921 10.3351C15.4027 11.9123 17.4196 12.4527 18.9968 11.5421L26.8327 7.01799C27.649 6.54674 28.6546 6.54674 29.4708 7.01799C29.4708 7.01799 45.258 16.1358 45.3087 16.1671L45.5439 15.9735C46.0445 15.5614 46.1714 14.8466 45.8432 14.2875Z" fill="white"/>
<path d="M43.8365 18.3572L28.1512 9.30139L20.3153 13.8254C19.4008 14.3535 18.3856 14.6232 17.3571 14.6232C16.8414 14.6232 16.3225 14.5554 15.8112 14.4185C14.2796 14.0081 12.9995 13.0259 12.2069 11.6528C11.4141 10.2798 11.2036 8.68012 11.614 7.14859C11.9527 5.88422 12.6821 4.79212 13.6985 4.00323L10.4644 2.13597C9.81952 1.76364 8.9944 1.99861 8.64239 2.6548L1.15686 16.6107C0.820147 17.2385 1.04272 18.0203 1.65978 18.3765L2.34543 18.7723L3.54886 16.6878C4.54721 14.9585 6.40859 13.8843 8.40654 13.8843C9.38687 13.8843 10.3552 14.1441 11.2068 14.6359C11.6967 14.9187 12.1337 15.2673 12.5089 15.6694C13.1154 15.448 13.7633 15.329 14.4265 15.329C15.4068 15.329 16.3751 15.5889 17.2268 16.0806C18.5235 16.8292 19.4512 18.0382 19.8387 19.4846C19.8814 19.6437 19.9156 19.8035 19.9441 19.9638C20.4835 20.0884 21.0045 20.2926 21.4879 20.5717C22.7847 21.3203 23.7124 22.5292 24.0999 23.9756C24.1426 24.1347 24.1768 24.2946 24.2053 24.4548C24.7447 24.5794 25.2656 24.7835 25.749 25.0626C28.426 26.6083 29.3465 30.0437 27.8011 32.7206L26.1578 35.5668L29.6802 37.6005C31.0997 38.42 32.9148 37.9337 33.7344 36.5142C34.5539 35.0946 34.0676 33.2795 32.6481 32.4599L34.9328 33.7789C36.3523 34.5985 38.1674 34.1121 38.987 32.6927C39.8066 31.2732 39.3202 29.4579 37.9007 28.6384L39.4239 29.5177C40.8433 30.3373 42.6586 29.8509 43.478 28.4314C44.2976 27.0119 43.8112 25.1967 42.3917 24.3772L40.8686 23.4978C42.2881 24.3174 44.1032 23.831 44.9228 22.4114C45.7424 20.9919 45.256 19.1768 43.8365 18.3572V18.3572Z" stroke="white" stroke-width="2"/>
<path d="M24.4303 27.3479C23.0108 26.5284 21.1957 27.0147 20.3761 28.4342L21.2555 26.9112C22.075 25.4917 21.5887 23.6765 20.1692 22.857C18.7497 22.0374 16.9346 22.5238 16.115 23.9433L16.9944 22.4201C17.8139 21.0006 17.3276 19.1855 15.9081 18.3659C14.4886 17.5463 12.6734 18.0327 11.8539 19.4522L10.9745 20.9753C11.794 19.5558 11.3077 17.7407 9.88811 16.9211C8.46862 16.1015 6.6535 16.5879 5.83392 18.0074L2.64617 23.5287C1.82659 24.9482 2.31298 26.7634 3.73247 27.5829C5.15196 28.4025 6.96717 27.9161 7.78666 26.4965C6.96708 27.916 7.45346 29.7312 8.87296 30.5507C10.2924 31.3703 12.1077 30.8839 12.9271 29.4643C12.1076 30.8838 12.594 32.699 14.0135 33.5185C15.433 34.3381 17.2481 33.8517 18.0677 32.4321C17.2481 33.8516 17.7345 35.6668 19.154 36.4863C20.5735 37.3059 22.3887 36.8195 23.2082 35.4L25.5166 31.4018C26.3362 29.9826 25.8499 28.1674 24.4303 27.3479Z" fill="white"/>
</svg>
