<svg width="30" height="36" viewBox="0 0 30 36" fill="none" xmlns="http://www.w3.org/2000/svg">
<path d="M29.0639 33.3652H24.8804C24.7058 26.5713 22.6391 20.5906 19.4577 17.6187C22.6391 14.6472 24.7058 8.6665 24.8804 1.87307H29.0639C29.5813 1.87307 30 1.45361 30 0.936533C30 0.419456 29.5809 0 29.0639 0H0.936533C0.419059 0 0 0.419456 0 0.936533C0 1.45361 0.419059 1.87307 0.936533 1.87307H5.11998C5.29459 8.6665 7.36131 14.6472 10.5427 17.6187C7.36131 20.5902 5.29459 26.5713 5.11998 33.3652H0.936533C0.419059 33.3652 0 33.7842 0 34.3013C0 34.8184 0.419059 35.2378 0.936533 35.2378H29.0639C29.5813 35.2378 30 34.8184 30 34.3013C30 33.7842 29.5809 33.3652 29.0639 33.3652ZM12.1551 18.2171C12.3424 18.0755 12.4527 17.854 12.4527 17.6191C12.4527 17.3846 12.3424 17.1632 12.1551 17.0219C8.98159 14.6222 6.80494 8.60975 6.61883 1.87346H23.3812C23.1951 8.60975 21.0184 14.6218 17.8449 17.0219C17.658 17.1632 17.5477 17.385 17.5477 17.6191C17.5477 17.854 17.658 18.0751 17.8449 18.2171C21.0184 20.6164 23.1951 26.6285 23.3812 33.3656H6.61883C6.80455 26.6285 8.98159 20.616 12.1551 18.2171Z" fill="white"/>
<path d="M20.6222 24.7507C19.717 22.2157 18.4634 20.2485 17.0919 19.2116L15.6177 18.0969C15.3915 17.8294 15.2859 17.3969 16.024 16.8318L17.0915 16.0242C18.463 14.9869 19.7166 13.0202 20.6218 10.4856C20.686 10.3038 20.7483 10.1193 20.8091 9.93359C17.1344 10.4721 13.4597 10.9995 9.79687 11.5574C10.6524 13.5734 11.7366 15.1381 12.9077 16.0238L13.974 16.8302C14.7145 17.3961 14.6085 17.829 14.3819 18.0969L12.9081 19.2112C11.5366 20.2482 10.283 22.2153 9.37781 24.7503C8.57501 26.9999 8.07658 29.5793 7.91309 32.3024H22.0869C21.923 29.5797 21.4253 27.0003 20.6222 24.7507Z" fill="white"/>
</svg>
