<svg width="90" height="90" viewBox="0 0 90 90" fill="none" xmlns="http://www.w3.org/2000/svg">
<path d="M45 90C69.8528 90 90 69.8528 90 45C90 20.1472 69.8528 0 45 0C20.1472 0 0 20.1472 0 45C0 69.8528 20.1472 90 45 90Z" fill="#EFF3FC"/>
<g clip-path="url(#clip0)">
<path d="M51.4246 55.2639V58.45L54.7479 60.4502H62.7317L64.6353 58.45L63.9963 55.7765L61.7755 56.7135H57.7913L52.9356 55.7765L51.4246 55.2639Z" fill="#01C3FF"/>
<path d="M25.0779 55.2639V58.45L28.4012 60.4502H36.385L38.2886 58.45L37.6497 55.7765L35.4288 56.7135H31.4447L26.5889 55.7765L25.0779 55.2639Z" fill="#FBBC05"/>
<path d="M38.0181 36.1907V39.3767L41.3414 41.377H49.3252L51.2288 39.3767L50.5899 36.7033L48.369 37.6402H44.3849L39.5291 36.7033L38.0181 36.1907Z" fill="#21D885"/>
<path d="M62.8173 47.6386C61.2538 47.1005 59.6076 46.8398 57.9536 46.8685C57.8019 46.8685 57.6518 46.8685 57.5017 46.8749C57.5344 46.5006 57.5528 46.1247 57.5528 45.7496C57.5582 43.6315 57.036 41.5452 56.0328 39.6773C55.0296 37.8094 53.5768 36.2183 51.8044 35.0463V30.9225C51.8055 30.9019 51.8055 30.8812 51.8044 30.8605C51.7374 29.0669 48.765 28.0663 45.8166 27.87C45.6605 27.8643 45.5084 27.9193 45.3925 28.0234C45.2765 28.1275 45.2058 28.2724 45.1955 28.4275C45.1851 28.5826 45.2358 28.7356 45.3368 28.854C45.4379 28.9725 45.5813 29.0471 45.7367 29.0621C48.872 29.2711 50.6068 30.2939 50.6068 30.9209C50.6068 31.2078 50.2077 31.695 49.0676 32.1257C47.6408 32.6121 46.1396 32.8461 44.6318 32.8171C43.1239 32.8461 41.6227 32.6121 40.1959 32.1257C39.0495 31.6966 38.6503 31.2094 38.6503 30.9225C38.6503 30.2987 40.2886 29.3093 43.3655 29.074C43.5243 29.0619 43.6718 28.9875 43.7755 28.8671C43.8792 28.7468 43.9306 28.5904 43.9184 28.4323C43.9062 28.2742 43.8315 28.1274 43.7106 28.0242C43.5897 27.921 43.4325 27.8698 43.2737 27.882C40.4083 28.1013 37.519 29.1066 37.4527 30.8613C37.4517 30.8817 37.4517 30.9022 37.4527 30.9225V35.0463C35.6822 36.2202 34.2309 37.8118 33.2279 39.6792C32.225 41.5467 31.7016 43.632 31.7044 45.7496C31.7044 46.1247 31.7227 46.5014 31.7554 46.8749C31.6054 46.8749 31.4553 46.8685 31.3036 46.8685C29.6495 46.8398 28.0033 47.1005 26.4398 47.6386C24.9484 48.2044 24.1245 49.0294 24.1245 49.9608V58.2886C24.1245 59.2208 24.946 60.0457 26.4398 60.6107C28.0033 61.1488 29.6495 61.4095 31.3036 61.3808C32.9576 61.4095 34.6038 61.1488 36.1673 60.6107C37.6587 60.0449 38.4826 59.22 38.4826 58.2886V57.0687C39.8966 57.8346 41.4434 58.3273 43.0414 58.5206C43.066 58.5237 43.0908 58.5253 43.1156 58.5254C43.2682 58.5246 43.4149 58.4661 43.5257 58.3617C43.6366 58.2573 43.7034 58.1149 43.7127 57.9632C43.7219 57.8116 43.6729 57.6621 43.5755 57.5452C43.4781 57.4282 43.3397 57.3525 43.1883 57.3333C41.5182 57.1313 39.9123 56.5694 38.4826 55.6867V49.9647C38.4826 49.0325 37.6611 48.2084 36.1673 47.6426C35.1358 47.273 34.0599 47.0402 32.9674 46.9504C32.9252 46.5515 32.9034 46.1507 32.9019 45.7496C32.8999 43.967 33.3092 42.2077 34.0982 40.6075C34.8872 39.0072 36.0349 37.6087 37.4527 36.5197V39.2504C37.4527 40.1826 38.2742 41.0067 39.768 41.5725C41.3315 42.1106 42.9777 42.3713 44.6318 42.3426C46.2858 42.3713 47.932 42.1106 49.4955 41.5725C50.9869 41.0067 51.8108 40.1818 51.8108 39.2504V36.5173C53.2306 37.6052 54.3797 39.0039 55.1689 40.6051C55.958 42.2063 56.3662 43.9669 56.3616 45.7503C56.3613 46.1501 56.3408 46.5495 56.3001 46.9472C55.2076 47.0371 54.1317 47.2698 53.1002 47.6394C51.6088 48.2052 50.7849 49.0301 50.7849 49.9616V55.6835C49.1908 56.6627 47.3842 57.2472 45.5164 57.3882C45.3644 57.4033 45.224 57.4755 45.1237 57.59C45.0233 57.7046 44.9706 57.8528 44.9762 58.0047C44.9818 58.1566 45.0453 58.3007 45.1538 58.4076C45.2623 58.5145 45.4076 58.5762 45.5603 58.5802H45.6058C47.418 58.4444 49.181 57.9299 50.7801 57.0703V58.2902C50.7801 59.2224 51.6016 60.0473 53.0954 60.6123C54.6589 61.1504 56.3051 61.4111 57.9591 61.3824C59.6132 61.4111 61.2594 61.1504 62.8229 60.6123C64.3143 60.0465 65.1382 59.2216 65.1382 58.2902V49.9608C65.1302 49.0294 64.3087 48.2044 62.8173 47.6386ZM37.2691 58.2878C37.2691 58.5747 36.8699 59.0618 35.7298 59.4926C34.3031 59.979 32.8018 60.213 31.294 60.184C29.7862 60.213 28.2849 59.979 26.8582 59.4926C25.7245 59.0634 25.3173 58.5747 25.3173 58.2886V56.1921C25.6679 56.4114 26.0403 56.5941 26.4286 56.7373C27.9921 57.2754 29.6384 57.536 31.2924 57.5074C32.9464 57.536 34.5927 57.2754 36.1561 56.7373C36.5444 56.5941 36.9169 56.4114 37.2675 56.1921V58.2878H37.2691ZM35.7322 48.756C36.8675 49.1867 37.2707 49.6739 37.2715 49.96C37.2715 50.2469 36.8675 50.7332 35.7322 51.164C34.3055 51.6504 32.8042 51.8843 31.2964 51.8554C30.6957 51.8558 30.0954 51.8229 29.4984 51.7568C29.3396 51.7391 29.1802 51.7849 29.0554 51.8842C28.9305 51.9834 28.8504 52.128 28.8326 52.2861C28.8148 52.4442 28.8608 52.6028 28.9605 52.7271C29.0602 52.8514 29.2055 52.9312 29.3643 52.9489C30.0061 53.0201 30.6514 53.0557 31.2972 53.0554C32.9512 53.084 34.5975 52.8234 36.1609 52.2853C36.5492 52.1421 36.9216 51.9594 37.2723 51.7401V54.4175C37.2723 54.7044 36.8731 55.1916 35.733 55.6223C34.3063 56.1087 32.805 56.3427 31.2972 56.3137C29.7894 56.3427 28.2881 56.1087 26.8614 55.6223C25.7245 55.1892 25.3173 54.702 25.3173 54.4151V51.7385C25.7771 52.0214 26.2703 52.2467 26.7855 52.4093C26.9366 52.4598 27.1016 52.4484 27.2443 52.3778C27.387 52.3071 27.4957 52.183 27.5464 52.0326C27.5971 51.8822 27.5857 51.7179 27.5147 51.5759C27.4438 51.4338 27.319 51.3257 27.1679 51.2752C25.8921 50.8524 25.3173 50.3104 25.3173 49.9608C25.3173 49.6747 25.7165 49.1867 26.8566 48.756C28.2833 48.2696 29.7846 48.0356 31.2924 48.0646C32.8015 48.0351 34.3042 48.2691 35.7322 48.756ZM50.6005 39.2504C50.6005 39.5365 50.1973 40.0244 49.0612 40.4552C47.6344 40.9416 46.1332 41.1756 44.6254 41.1466C43.1176 41.1756 41.6163 40.9416 40.1896 40.4552C39.0495 40.0244 38.6503 39.5365 38.6503 39.2504V37.1539C39.0009 37.3732 39.3733 37.5559 39.7616 37.6991C41.3251 38.2372 42.9713 38.4978 44.6254 38.4692C46.2794 38.4978 47.9256 38.2372 49.4891 37.6991C49.8774 37.5559 50.2498 37.3732 50.6005 37.1539V39.2496V39.2504ZM50.6005 35.3769C50.6005 35.6638 50.2013 36.151 49.0612 36.5817C47.6344 37.0681 46.1332 37.3021 44.6254 37.2731C43.1176 37.3021 41.6163 37.0681 40.1896 36.5817C39.0495 36.151 38.6503 35.663 38.6503 35.3769V32.6995C39.0009 32.9188 39.3733 33.1015 39.7616 33.2447C41.3251 33.7828 42.9713 34.0434 44.6254 34.0148C46.2794 34.0434 47.9256 33.7828 49.4891 33.2447C49.8774 33.1015 50.2498 32.9188 50.6005 32.6995V35.3769ZM63.9286 58.2886C63.9286 58.5755 63.5295 59.0626 62.3894 59.4934C60.9626 59.9798 59.4614 60.2138 57.9536 60.1848C56.4457 60.2138 54.9445 59.9798 53.5177 59.4934C52.3816 59.0626 51.9785 58.5747 51.9785 58.2886V56.1921C52.3291 56.4114 52.7015 56.5941 53.0898 56.7373C54.6533 57.2754 56.2995 57.536 57.9536 57.5074C59.6076 57.536 61.2538 57.2754 62.8173 56.7373C63.2056 56.5941 63.578 56.4114 63.9286 56.1921V58.2886ZM63.9286 54.4151C63.9286 54.702 63.5295 55.1892 62.3894 55.6199C60.9626 56.1063 59.4614 56.3403 57.9536 56.3113C56.4457 56.3403 54.9445 56.1063 53.5177 55.6199C52.3816 55.1892 51.9785 54.7012 51.9785 54.4151V51.7385C52.3291 51.9578 52.7015 52.1405 53.0898 52.2837C54.6533 52.8218 56.2995 53.0825 57.9536 53.0538C59.6076 53.0825 61.2538 52.8218 62.8173 52.2837C63.2056 52.1405 63.578 51.9578 63.9286 51.7385V54.4151ZM62.3894 51.1655C60.9626 51.6519 59.4614 51.8859 57.9536 51.8569C56.4457 51.8859 54.9445 51.6519 53.5177 51.1655C52.3816 50.7348 51.9785 50.2469 51.9785 49.9608C51.9785 49.6747 52.3777 49.1867 53.5177 48.756C54.9445 48.2696 56.4457 48.0356 57.9536 48.0646C59.4614 48.0356 60.9626 48.2696 62.3894 48.756C63.5255 49.1867 63.9286 49.6747 63.9286 49.9608C63.9286 50.2469 63.5255 50.7348 62.3894 51.1663V51.1655Z" fill="#2C3E50" stroke="#2B3D50" stroke-width="0.3"/>
</g>
<defs>
<clipPath id="clip0">
<rect width="41.25" height="33.75" fill="white" transform="translate(24 27.75)"/>
</clipPath>
</defs>
</svg>
