<svg width="90" height="90" viewBox="0 0 90 90" fill="none" xmlns="http://www.w3.org/2000/svg">
<path d="M45 90C69.8528 90 90 69.8528 90 45C90 20.1472 69.8528 0 45 0C20.1472 0 0 20.1472 0 45C0 69.8528 20.1472 90 45 90Z" fill="#EFF3FC"/>
<path d="M56.6443 29.3718H41.6225V27.7218C41.6245 27.6052 41.6031 27.4895 41.5594 27.3814C41.5157 27.2733 41.4507 27.1752 41.3682 27.0928C41.2858 27.0104 41.1876 26.9454 41.0795 26.9018C40.9713 26.8582 40.8556 26.8369 40.739 26.839H33.6703C33.5537 26.8369 33.4378 26.8583 33.3297 26.9019C33.2215 26.9456 33.1232 27.0106 33.0408 27.093C32.9583 27.1755 32.8933 27.2737 32.8497 27.3819C32.806 27.4901 32.7846 27.6059 32.7868 27.7225V44.0395C32.7925 44.272 32.8874 44.4935 33.0519 44.6579C33.2163 44.8224 33.4377 44.9173 33.6703 44.923H56.6443C56.8768 44.9173 57.0982 44.8224 57.2627 44.6579C57.4271 44.4935 57.5221 44.272 57.5278 44.0395V30.2553C57.5299 30.1387 57.5085 30.0228 57.4649 29.9146C57.4212 29.8065 57.3562 29.7082 57.2738 29.6258C57.1913 29.5433 57.093 29.4783 56.9849 29.4347C56.8767 29.391 56.7609 29.3696 56.6443 29.3718Z" fill="white"/>
<path d="M58.5284 34.1435H41.0924V32.2588C41.093 32.1194 41.066 31.9813 41.013 31.8524C40.96 31.7235 40.8819 31.6064 40.7834 31.5078C40.6849 31.4092 40.5678 31.3311 40.439 31.278C40.3101 31.2249 40.1721 31.1978 40.0327 31.1983H31.7827C31.6433 31.1977 31.5051 31.2247 31.3761 31.2778C31.2472 31.3308 31.1301 31.4089 31.0315 31.5075C30.9329 31.6061 30.8548 31.7233 30.8017 31.8522C30.7486 31.9811 30.7216 32.1193 30.7222 32.2588V49.6355C30.7213 49.7751 30.7481 49.9135 30.801 50.0427C30.854 50.1719 30.932 50.2893 31.0307 50.3882C31.1293 50.487 31.2465 50.5653 31.3756 50.6185C31.5047 50.6718 31.6431 50.6988 31.7827 50.6982H58.5284C58.6679 50.6988 58.806 50.6718 58.935 50.6187C59.0639 50.5657 59.1811 50.4876 59.2797 50.389C59.3782 50.2904 59.4563 50.1732 59.5094 50.0443C59.5625 49.9154 59.5895 49.7772 59.5889 49.6378V35.204C59.5895 35.0646 59.5625 34.9264 59.5094 34.7975C59.4563 34.6685 59.3782 34.5514 59.2797 34.4528C59.1811 34.3542 59.0639 34.2761 58.935 34.223C58.806 34.1699 58.6679 34.1429 58.5284 34.1435Z" fill="white"/>
<path d="M32.8452 36.6174H57.5262V48.6339H32.8452V36.6174Z" fill="#F87306"/>
<path d="M55.347 38.9147H54.1687V40.0929H55.347V38.9147Z" fill="#193651"/>
<path d="M55.347 41.9778H54.1687V43.156H55.347V41.9778Z" fill="#193651"/>
<path d="M55.347 45.0408H54.1687V46.219H55.347V45.0408Z" fill="#193651"/>
<path d="M45.9216 39.7397H34.9656V41.6837H45.9216V39.7397Z" fill="white"/>
<path d="M45.9216 43.7454H34.9656V45.6894H45.9216V43.7454Z" fill="white"/>
<path d="M60.0599 63.361C60.5009 63.3612 60.9376 63.2745 61.3451 63.1058C61.7526 62.9372 62.1228 62.6898 62.4346 62.378C62.7465 62.0662 62.9938 61.6959 63.1625 61.2884C63.3311 60.881 63.4179 60.4443 63.4177 60.0033C63.4179 59.5623 63.3311 59.1255 63.1625 58.7181C62.9938 58.3106 62.7465 57.9404 62.4346 57.6285C62.1228 57.3167 61.7526 57.0694 61.3451 56.9007C60.9376 56.732 60.5009 56.6453 60.0599 56.6455C59.6189 56.6453 59.1822 56.732 58.7747 56.9007C58.3672 57.0694 57.997 57.3167 57.6852 57.6285C57.3733 57.9404 57.126 58.3106 56.9573 58.7181C56.7887 59.1255 56.702 59.5623 56.7021 60.0033C56.702 60.4443 56.7887 60.881 56.9573 61.2884C57.126 61.6959 57.3733 62.0662 57.6852 62.378C57.997 62.6898 58.3672 62.9372 58.7747 63.1058C59.1822 63.2745 59.6189 63.3612 60.0599 63.361Z" fill="#21D885"/>
<path d="M45.1566 63.361C45.5976 63.3612 46.0343 63.2745 46.4418 63.1058C46.8492 62.9372 47.2195 62.6898 47.5313 62.378C47.8431 62.0662 48.0905 61.6959 48.2591 61.2884C48.4278 60.881 48.5145 60.4443 48.5143 60.0033C48.5145 59.5623 48.4278 59.1255 48.2591 58.7181C48.0905 58.3106 47.8431 57.9404 47.5313 57.6285C47.2195 57.3167 46.8492 57.0694 46.4418 56.9007C46.0343 56.732 45.5976 56.6453 45.1566 56.6455C44.7156 56.6453 44.2789 56.732 43.8714 56.9007C43.4639 57.0694 43.0937 57.3167 42.7819 57.6285C42.47 57.9404 42.2227 58.3106 42.054 58.7181C41.8853 59.1255 41.7986 59.5623 41.7988 60.0033C41.7986 60.4443 41.8853 60.881 42.054 61.2884C42.2227 61.6959 42.47 62.0662 42.7819 62.378C43.0937 62.6898 43.4639 62.9372 43.8714 63.1058C44.2789 63.2745 44.7156 63.3612 45.1566 63.361Z" fill="#FBBC05"/>
<path d="M30.2533 63.361C30.6943 63.3612 31.131 63.2745 31.5384 63.1058C31.9459 62.9372 32.3162 62.6898 32.628 62.378C32.9398 62.0662 33.1871 61.6959 33.3558 61.2884C33.5245 60.881 33.6112 60.4443 33.611 60.0033C33.6112 59.5623 33.5245 59.1255 33.3558 58.7181C33.1871 58.3106 32.9398 57.9404 32.628 57.6285C32.3162 57.3167 31.9459 57.0694 31.5384 56.9007C31.131 56.732 30.6943 56.6453 30.2533 56.6455C29.8123 56.6453 29.3755 56.732 28.9681 56.9007C28.5606 57.0694 28.1904 57.3167 27.8785 57.6285C27.5667 57.9404 27.3194 58.3106 27.1507 58.7181C26.982 59.1255 26.8953 59.5623 26.8955 60.0033C26.9051 60.8908 27.2619 61.7393 27.8895 62.367C28.5172 62.9946 29.3657 63.3515 30.2533 63.361Z" fill="#01C3FF"/>
<path d="M60.0592 56.0559C59.4847 56.0532 58.9169 56.1787 58.3972 56.4233C57.8774 56.6678 57.4187 57.0253 57.0547 57.4696L47.2184 51.2851H58.5284C58.966 51.2851 59.3857 51.1113 59.6951 50.8018C60.0046 50.4924 60.1784 50.0727 60.1784 49.6351V35.2036C60.1784 34.9869 60.1357 34.7724 60.0528 34.5722C59.9699 34.372 59.8483 34.1901 59.6951 34.0369C59.5419 33.8837 59.36 33.7621 59.1598 33.6792C58.9596 33.5963 58.7451 33.5536 58.5284 33.5536H58.1144V30.2536C58.1164 30.0596 58.0797 29.8672 58.0064 29.6876C57.9331 29.5079 57.8246 29.3448 57.6874 29.2076C57.5503 29.0704 57.3871 28.962 57.2075 28.8887C57.0278 28.8153 56.8354 28.7786 56.6414 28.7806H42.2144V27.7231C42.2164 27.5289 42.1796 27.3362 42.1061 27.1563C42.0326 26.9765 41.9239 26.8132 41.7864 26.676C41.6489 26.5388 41.4854 26.4304 41.3054 26.3573C41.1254 26.2841 40.9327 26.2477 40.7384 26.2501H33.6704C33.4764 26.2481 33.284 26.2848 33.1043 26.3582C32.9247 26.4315 32.7615 26.5399 32.6244 26.6771C32.4872 26.8143 32.3788 26.9774 32.3054 27.1571C32.2321 27.3367 32.1954 27.5291 32.1974 27.7231V30.6091H31.7849C31.3473 30.6091 30.9276 30.783 30.6182 31.0924C30.3087 31.4018 30.1349 31.8215 30.1349 32.2591V49.6351C30.1349 50.0727 30.3087 50.4924 30.6182 50.8018C30.9276 51.1113 31.3473 51.2851 31.7849 51.2851H43.0949L33.2579 57.4111C32.8851 56.9769 32.4247 56.6265 31.9069 56.3828C31.3891 56.1392 30.8256 56.0078 30.2534 55.9974C29.4672 55.9917 28.697 56.2194 28.0402 56.6515C27.3834 57.0836 26.8695 57.7008 26.5635 58.425C26.2575 59.1492 26.1731 59.9479 26.321 60.7201C26.4689 61.4922 26.8425 62.2032 27.3944 62.7631C27.9464 63.3229 28.652 63.7065 29.422 63.8653C30.192 64.0241 30.9918 63.951 31.7203 63.6553C32.4487 63.3596 33.0731 62.8544 33.5145 62.2038C33.9559 61.5532 34.1944 60.7863 34.1999 60.0001C34.2087 59.4495 34.0877 58.9045 33.8467 58.4094L44.5672 51.7531V56.1151C43.8217 56.2292 43.1247 56.5549 42.5588 57.0535C41.993 57.5521 41.5822 58.2025 41.3751 58.9277C41.168 59.6528 41.1734 60.4222 41.3907 61.1443C41.6079 61.8665 42.0278 62.5112 42.6006 63.0017C43.1734 63.4923 43.8749 63.8082 44.6219 63.9118C45.3689 64.0155 46.1299 63.9026 46.8146 63.5865C47.4993 63.2705 48.0789 62.7645 48.4846 62.1288C48.8903 61.493 49.1049 60.7542 49.1032 60.0001C49.1115 59.0547 48.7753 58.1386 48.1573 57.423C47.5394 56.7075 46.682 56.2415 45.7454 56.1121V51.7561L56.4074 58.4124C56.1668 58.9066 56.0458 59.4505 56.0542 60.0001C56.0542 60.5184 56.1562 61.0316 56.3546 61.5104C56.5529 61.9892 56.8436 62.4242 57.2101 62.7907C57.5765 63.1572 58.0116 63.4479 58.4904 63.6462C58.9692 63.8445 59.4824 63.9466 60.0007 63.9466C60.5189 63.9466 61.0321 63.8445 61.5109 63.6462C61.9897 63.4479 62.4248 63.1572 62.7913 62.7907C63.1577 62.4242 63.4484 61.9892 63.6467 61.5104C63.8451 61.0316 63.9472 60.5184 63.9472 60.0001C63.9584 59.4838 63.8659 58.9705 63.6753 58.4906C63.4846 58.0106 63.1995 57.5739 62.837 57.2061C62.4744 56.8383 62.0418 56.547 61.5646 56.3494C61.0875 56.1518 60.5756 56.052 60.0592 56.0559ZM30.2534 62.7714C29.7061 62.7712 29.171 62.6088 28.716 62.3047C28.2609 62.0005 27.9062 61.5683 27.6967 61.0626C27.4872 60.557 27.4323 60.0006 27.539 59.4637C27.6456 58.9268 27.909 58.4337 28.2959 58.0465C28.6828 57.6593 29.1758 57.3955 29.7125 57.2884C30.2493 57.1813 30.8058 57.2357 31.3116 57.4448C31.8175 57.6539 32.25 58.0082 32.5545 58.4631C32.859 58.9179 33.0218 59.4528 33.0224 60.0001C33.0232 60.3641 32.9521 60.7246 32.8133 61.061C32.6744 61.3975 32.4705 61.7032 32.2133 61.9606C31.956 62.2181 31.6505 62.4223 31.3142 62.5614C30.9778 62.7005 30.6174 62.7719 30.2534 62.7714ZM33.3757 27.7231C33.3732 27.6838 33.3792 27.6444 33.3932 27.6075C33.4071 27.5707 33.4288 27.5372 33.4566 27.5093C33.4845 27.4815 33.518 27.4598 33.5548 27.4459C33.5917 27.4319 33.6311 27.426 33.6704 27.4284H40.7392C40.7785 27.426 40.8179 27.4319 40.8547 27.4459C40.8916 27.4598 40.9251 27.4815 40.9529 27.5093C40.9808 27.5372 41.0024 27.5707 41.0164 27.6075C41.0303 27.6444 41.0363 27.6838 41.0339 27.7231V29.9611H56.6429C56.6822 29.9587 56.7216 29.9647 56.7585 29.9786C56.7953 29.9926 56.8288 30.0142 56.8567 30.0421C56.8845 30.07 56.9062 30.1034 56.9201 30.1403C56.9341 30.1771 56.9401 30.2165 56.9377 30.2559V33.5559H41.6219V32.2584C41.6219 31.8208 41.4481 31.4011 41.1386 31.0916C40.8292 30.7822 40.4095 30.6084 39.9719 30.6084H33.3719V27.7231H33.3757ZM47.9249 60.0001C47.9249 60.5476 47.7626 61.0828 47.4584 61.5381C47.1542 61.9933 46.7218 62.3481 46.216 62.5576C45.7102 62.7672 45.1536 62.822 44.6166 62.7152C44.0796 62.6084 43.5864 62.3447 43.1992 61.9576C42.8121 61.5704 42.5484 61.0772 42.4416 60.5402C42.3348 60.0032 42.3896 59.4466 42.5991 58.9408C42.8086 58.4349 43.1635 58.0026 43.6187 57.6984C44.0739 57.3942 44.6091 57.2319 45.1567 57.2319C45.5203 57.2315 45.8804 57.3028 46.2165 57.4418C46.5525 57.5808 46.8578 57.7847 47.115 58.0418C47.3721 58.2989 47.576 58.6042 47.715 58.9403C47.854 59.2763 47.9253 59.6365 47.9249 60.0001ZM31.7849 50.1069C31.7228 50.1078 31.6611 50.0962 31.6036 50.0729C31.546 50.0495 31.4937 50.0149 31.4498 49.9709C31.4059 49.927 31.3713 49.8747 31.3479 49.8172C31.3246 49.7596 31.313 49.698 31.3139 49.6359V32.2584C31.313 32.1963 31.3246 32.1346 31.3479 32.077C31.3713 32.0195 31.4059 31.9672 31.4498 31.9233C31.4937 31.8794 31.546 31.8447 31.6036 31.8214C31.6611 31.798 31.7228 31.7865 31.7849 31.7874H40.0349C40.097 31.7865 40.1587 31.798 40.2162 31.8214C40.2738 31.8447 40.3261 31.8794 40.37 31.9233C40.4139 31.9672 40.4486 32.0195 40.4719 32.077C40.4953 32.1346 40.5068 32.1963 40.5059 32.2584V34.7334H58.5277C58.5898 34.7325 58.6514 34.744 58.709 34.7674C58.7665 34.7907 58.8188 34.8254 58.8627 34.8693C58.9066 34.9132 58.9413 34.9655 58.9647 35.023C58.988 35.0806 58.9996 35.1423 58.9987 35.2044V49.6351C58.9996 49.6972 58.988 49.7589 58.9647 49.8164C58.9413 49.874 58.9066 49.9263 58.8627 49.9702C58.8188 50.0141 58.7665 50.0488 58.709 50.0721C58.6514 50.0955 58.5898 50.107 58.5277 50.1061L31.7849 50.1069ZM60.0599 62.7714C59.5125 62.7714 58.9774 62.6091 58.5223 62.305C58.0671 62.001 57.7123 61.5688 57.5027 61.0632C57.2931 60.5575 57.2381 60.0011 57.3446 59.4642C57.4512 58.9272 57.7146 58.434 58.1014 58.0467C58.4882 57.6595 58.9812 57.3956 59.518 57.2884C60.0548 57.1813 60.6113 57.2357 61.1172 57.4447C61.6231 57.6538 62.0556 58.0081 62.3602 58.463C62.6647 58.9178 62.8276 59.4527 62.8282 60.0001C62.8289 60.3641 62.7579 60.7246 62.619 61.061C62.4802 61.3975 62.2763 61.7032 62.019 61.9606C61.7618 62.2181 61.4562 62.4223 61.1199 62.5614C60.7836 62.7005 60.4231 62.7719 60.0592 62.7714H60.0599Z" fill="#2C3E50"/>
</svg>
