<svg width="100" height="100" viewBox="0 0 100 100" fill="none" xmlns="http://www.w3.org/2000/svg">
<path d="M50 100C77.6142 100 100 77.6142 100 50C100 22.3858 77.6142 0 50 0C22.3858 0 0 22.3858 0 50C0 77.6142 22.3858 100 50 100Z" fill="#EFF3FC"/>
<path d="M56.233 37.4341H48.437V66.6676H56.233V37.4341Z" fill="#01C3FF"/>
<path d="M65.9778 48.1533H58.1819V66.6677H65.9778V48.1533Z" fill="#21D885"/>
<path d="M35.7696 60.8213H27.9736V66.6677H35.7696V60.8213Z" fill="#FBBC05"/>
<path d="M66.4096 68.8281H27.586C27.4306 68.8281 27.2815 68.8899 27.1716 68.9998C27.0617 69.1097 27 69.2587 27 69.4142C27 69.5696 27.0617 69.7186 27.1716 69.8285C27.2815 69.9384 27.4306 70.0002 27.586 70.0002H66.4096C66.565 70.0002 66.714 69.9384 66.8239 69.8285C66.9338 69.7186 66.9956 69.5696 66.9956 69.4142C66.9956 69.2587 66.9338 69.1097 66.8239 68.9998C66.714 68.8899 66.565 68.8281 66.4096 68.8281Z" fill="black"/>
<path d="M27.586 67.656H35.5344C35.6114 67.656 35.6876 67.6408 35.7587 67.6114C35.8298 67.5819 35.8944 67.5387 35.9488 67.4843C36.0032 67.4299 36.0464 67.3653 36.0758 67.2942C36.1053 67.2231 36.1204 67.1469 36.1204 67.0699V60.5992C36.1204 60.4438 36.0587 60.2947 35.9488 60.1848C35.8389 60.0749 35.6898 60.0132 35.5344 60.0132H27.586C27.4306 60.0132 27.2815 60.0749 27.1716 60.1848C27.0617 60.2947 27 60.4438 27 60.5992V67.0699C27 67.2253 27.0617 67.3744 27.1716 67.4843C27.2815 67.5942 27.4306 67.656 27.586 67.656ZM28.172 61.1883H34.9484V66.487H28.172V61.1883Z" fill="black"/>
<path d="M45.8269 48.2443C45.9823 48.2443 46.1314 48.1826 46.2413 48.0727C46.3512 47.9628 46.4129 47.8137 46.4129 47.6583V41.1876C46.4129 41.0322 46.3512 40.8831 46.2413 40.7732C46.1314 40.6633 45.9823 40.6016 45.8269 40.6016H37.8785C37.7231 40.6016 37.574 40.6633 37.4641 40.7732C37.3542 40.8831 37.2925 41.0322 37.2925 41.1876V67.0704C37.2925 67.2259 37.3542 67.3749 37.4641 67.4848C37.574 67.5947 37.7231 67.6565 37.8785 67.6565H45.8269C45.9823 67.6565 46.1314 67.5947 46.2413 67.4848C46.3512 67.3749 46.4129 67.2259 46.4129 67.0704V50.0024C46.4129 49.847 46.3512 49.6979 46.2413 49.588C46.1314 49.4781 45.9823 49.4164 45.8269 49.4164C45.6715 49.4164 45.5224 49.4781 45.4125 49.588C45.3026 49.6979 45.2409 49.847 45.2409 50.0024V66.4852H38.4645V41.7767H45.2409V47.6614C45.2417 47.8163 45.3038 47.9645 45.4136 48.0738C45.5234 48.183 45.672 48.2443 45.8269 48.2443Z" fill="black"/>
<path d="M66.4089 47.0723H58.4605C58.3051 47.0723 58.156 47.134 58.0462 47.2439C57.9363 47.3538 57.8745 47.5029 57.8745 47.6583V67.0704C57.8745 67.2259 57.9363 67.3749 58.0462 67.4848C58.156 67.5947 58.3051 67.6565 58.4605 67.6565H66.4089C66.5644 67.6565 66.7134 67.5947 66.8233 67.4848C66.9332 67.3749 66.995 67.2259 66.995 67.0704V47.6583C66.995 47.5029 66.9332 47.3538 66.8233 47.2439C66.7134 47.134 66.5644 47.0723 66.4089 47.0723ZM65.8229 66.4844H59.0465V48.2443H65.8229V66.4844Z" fill="black"/>
<path d="M48.1698 37.3667C48.0143 37.3667 47.8653 37.4284 47.7554 37.5383C47.6455 37.6482 47.5837 37.7973 47.5837 37.9527V67.0706C47.5837 67.226 47.6455 67.375 47.7554 67.4849C47.8653 67.5948 48.0143 67.6566 48.1698 67.6566H56.1182C56.2736 67.6566 56.4226 67.5948 56.5325 67.4849C56.6424 67.375 56.7042 67.226 56.7042 67.0706V37.9527C56.7042 37.7973 56.6424 37.6482 56.5325 37.5383C56.4226 37.4284 56.2736 37.3667 56.1182 37.3667H48.1698ZM55.5322 66.4846H48.7558V38.5387H55.5322V66.4846Z" fill="black"/>
<path d="M31.5598 39.4266C32.0159 39.4261 32.4595 39.2777 32.8241 39.0036C33.1887 38.7296 33.4547 38.3448 33.5821 37.9068H39.8291C39.9817 38.4237 40.3266 38.8623 40.7929 39.1325C41.2592 39.4026 41.8114 39.4836 42.3356 39.3588C42.8599 39.234 43.3163 38.9129 43.6109 38.4616C43.9054 38.0104 44.0157 37.4633 43.919 36.9332L50.6035 33.5465C50.8001 33.7578 51.0382 33.9264 51.3028 34.0416C51.5675 34.1568 51.853 34.2163 52.1417 34.2163C52.4303 34.2163 52.7159 34.1568 52.9805 34.0416C53.2452 33.9264 53.4832 33.7578 53.6799 33.5465L60.3643 36.9332C60.2689 37.4326 60.3571 37.9497 60.6125 38.3893C60.8679 38.829 61.2735 39.1616 61.7546 39.3261C62.2357 39.4905 62.7601 39.4758 63.2312 39.2845C63.7023 39.0933 64.0885 38.7383 64.3188 38.285C64.5491 37.8317 64.608 37.3105 64.4847 36.8172C64.3614 36.324 64.0641 35.8918 63.6476 35.6002C63.2311 35.3086 62.7233 35.1772 62.2176 35.2301C61.7119 35.2831 61.2423 35.5168 60.8952 35.8883L54.2123 32.5017C54.2705 32.1971 54.2609 31.8834 54.1839 31.583C54.1069 31.2827 53.9645 31.003 53.7669 30.764C53.5693 30.525 53.3214 30.3326 53.0409 30.2006C52.7603 30.0685 52.454 30 52.144 30C51.8339 30 51.5276 30.0685 51.2471 30.2006C50.9665 30.3326 50.7186 30.525 50.521 30.764C50.3234 31.003 50.181 31.2827 50.104 31.583C50.0271 31.8834 50.0174 32.1971 50.0757 32.5017L43.3897 35.8883C43.136 35.6159 42.8147 35.4157 42.4584 35.3081C42.1021 35.2005 41.7236 35.1894 41.3616 35.2758C40.9996 35.3623 40.667 35.5432 40.3978 35.8002C40.1286 36.0572 39.9323 36.381 39.8291 36.7386H33.5821C33.4732 36.3628 33.2618 36.0248 32.9716 35.7624C32.6813 35.5001 32.3237 35.3238 31.9389 35.2533C31.554 35.1828 31.1571 35.2209 30.7927 35.3633C30.4283 35.5058 30.1108 35.7469 29.8758 36.0598C29.6408 36.3726 29.4976 36.7447 29.4622 37.1343C29.4269 37.524 29.5008 37.9158 29.6756 38.2658C29.8505 38.6158 30.1194 38.9101 30.4522 39.1159C30.785 39.3216 31.1685 39.4305 31.5598 39.4305V39.4266ZM62.4357 36.3901C62.6204 36.3901 62.8009 36.4448 62.9545 36.5474C63.108 36.6501 63.2277 36.7959 63.2984 36.9665C63.3691 37.1372 63.3876 37.3249 63.3515 37.506C63.3155 37.6872 63.2266 37.8536 63.096 37.9842C62.9654 38.1148 62.799 38.2037 62.6178 38.2397C62.4367 38.2758 62.249 38.2573 62.0783 38.1866C61.9077 38.1159 61.7619 37.9962 61.6592 37.8427C61.5566 37.6891 61.5019 37.5086 61.5019 37.3239C61.5023 37.0763 61.6008 36.8391 61.7758 36.664C61.9509 36.489 62.1881 36.3905 62.4357 36.3901ZM52.1432 31.1764C52.3279 31.1764 52.5084 31.2312 52.662 31.3338C52.8155 31.4364 52.9352 31.5822 53.0059 31.7529C53.0766 31.9235 53.0951 32.1113 53.0591 32.2924C53.023 32.4735 52.9341 32.6399 52.8035 32.7705C52.6729 32.9011 52.5065 32.99 52.3254 33.0261C52.1442 33.0621 51.9565 33.0436 51.7858 32.9729C51.6152 32.9023 51.4694 32.7826 51.3668 32.629C51.2642 32.4754 51.2094 32.2949 51.2094 32.1102C51.2098 31.8627 51.3083 31.6254 51.4833 31.4504C51.6584 31.2753 51.8957 31.1768 52.1432 31.1764ZM41.8507 36.3901C42.0354 36.3901 42.2159 36.4448 42.3695 36.5474C42.5231 36.6501 42.6428 36.7959 42.7134 36.9665C42.7841 37.1372 42.8026 37.3249 42.7666 37.506C42.7305 37.6872 42.6416 37.8536 42.511 37.9842C42.3804 38.1148 42.214 38.2037 42.0329 38.2397C41.8517 38.2758 41.664 38.2573 41.4934 38.1866C41.3227 38.1159 41.1769 37.9962 41.0743 37.8427C40.9717 37.6891 40.9169 37.5086 40.9169 37.3239C40.9173 37.0763 41.0158 36.8391 41.1909 36.664C41.3659 36.489 41.6032 36.3905 41.8507 36.3901ZM31.559 36.3901C31.7437 36.3901 31.9242 36.4448 32.0778 36.5474C32.2314 36.6501 32.351 36.7959 32.4217 36.9665C32.4924 37.1372 32.5109 37.3249 32.4749 37.506C32.4388 37.6872 32.3499 37.8536 32.2193 37.9842C32.0887 38.1148 31.9223 38.2037 31.7412 38.2397C31.56 38.2758 31.3723 38.2573 31.2017 38.1866C31.031 38.1159 30.8852 37.9962 30.7826 37.8427C30.68 37.6891 30.6252 37.5086 30.6252 37.3239C30.6256 37.0762 30.7242 36.8388 30.8994 36.6638C31.0746 36.4887 31.3121 36.3903 31.5598 36.3901H31.559Z" fill="black"/>
</svg>
