<svg width="80" height="80" viewBox="0 0 80 80" fill="none" xmlns="http://www.w3.org/2000/svg">
<path d="M40 80C62.0914 80 80 62.0914 80 40C80 17.9086 62.0914 0 40 0C17.9086 0 0 17.9086 0 40C0 62.0914 17.9086 80 40 80Z" fill="#EFF3FB"/>
<path d="M19.1001 34.4879V42.088L24.5881 44.0959H31.0491L36.5172 44.5679L41.2021 43.2529L44.3741 42.088V34.4879L42.3221 35.442L39.3291 36.288H35.0421L32.4731 36.9329H27.8001L20.6801 35.442L19.1001 34.4879Z" fill="#21D885"/>
<path d="M19.1001 50.3039V57.9039L24.5001 59.5429L31.0531 59.9129L36.6531 59.5429L41.2101 59.0689L44.3821 57.9039V49.7739L42.4881 50.7069L39.3371 52.1019H35.0501L32.4811 52.7469L27.8062 52.3579L20.6921 51.2579L19.1001 50.3039Z" fill="#01C3FF"/>
<path d="M44.76 43.1929V50.7759L47.16 51.2189L57.015 49.7068L59.917 46.9999L59.317 40.6609L56.482 41.7609L52.4 43.3609H45.362" fill="#FBBC05"/>
<path d="M56.4 21.252C53.6872 20.4663 50.8819 20.0456 48.058 20.001C47.9757 19.9963 47.8934 20.0082 47.8158 20.0359C47.7381 20.0635 47.6668 20.1064 47.606 20.1621C47.5453 20.2177 47.4962 20.2849 47.4618 20.3598C47.4274 20.4346 47.4082 20.5156 47.4056 20.598C47.4029 20.6803 47.4167 20.7624 47.4462 20.8393C47.4758 20.9162 47.5204 20.9865 47.5774 21.0459C47.6345 21.1054 47.7029 21.1528 47.7785 21.1855C47.8542 21.2181 47.9356 21.2353 48.018 21.236C55.038 21.462 58.918 23.226 58.918 24.359C58.918 25.65 54.188 27.505 46.594 27.505C39.539 27.505 34.708 25.879 34.294 24.505C34.2786 24.4561 34.2705 24.4052 34.27 24.354C34.27 23.221 38.153 21.454 45.17 21.231C45.2559 21.2367 45.342 21.2245 45.4229 21.195C45.5038 21.1655 45.5776 21.1195 45.6397 21.0598C45.7017 21.0002 45.7506 20.9282 45.7833 20.8486C45.8159 20.7689 45.8315 20.6833 45.8291 20.5973C45.8268 20.5112 45.8064 20.4266 45.7695 20.3489C45.7325 20.2711 45.6797 20.202 45.6144 20.1459C45.5492 20.0897 45.4729 20.0478 45.3905 20.0229C45.3081 19.9979 45.2214 19.9905 45.136 20.001C42.3108 20.0452 39.504 20.4659 36.79 21.252C34.335 22.044 33.038 23.118 33.038 24.358V28.783C25.967 28.553 18 30.044 18 33.14V56.0219C18 61.8219 45.117 61.8629 45.117 56.0219V51.596C51.511 51.808 57.449 50.651 59.404 48.787C59.63 48.5955 59.8136 48.3591 59.9431 48.0927C60.0726 47.8264 60.1451 47.5359 60.156 47.24V38.631C60.1593 38.5478 60.1459 38.4648 60.1163 38.3869C60.0868 38.3091 60.0419 38.238 59.9842 38.178C59.9265 38.1179 59.8573 38.0702 59.7807 38.0375C59.7041 38.0049 59.6217 37.9881 59.5385 37.9881C59.4553 37.9881 59.3729 38.0049 59.2963 38.0375C59.2197 38.0702 59.1505 38.1179 59.0928 38.178C59.0351 38.238 58.9902 38.3091 58.9607 38.3869C58.9311 38.4648 58.9177 38.5478 58.921 38.631V39.612C58.9059 39.7398 58.8654 39.8634 58.8021 39.9755C58.7387 40.0876 58.6537 40.186 58.552 40.265C57.131 41.62 53.086 42.294 51.123 42.515C49.1292 42.7319 47.1223 42.8048 45.118 42.733V36.342C49.002 36.47 55.888 36.05 58.918 33.924V35.749C58.9146 35.8321 58.9281 35.9151 58.9577 35.993C58.9872 36.0708 59.0321 36.1419 59.0898 36.2019C59.1475 36.262 59.2167 36.3097 59.2933 36.3424C59.3699 36.375 59.4523 36.3918 59.5355 36.3918C59.6187 36.3918 59.7011 36.375 59.7777 36.3424C59.8543 36.3097 59.9235 36.262 59.9812 36.2019C60.0389 36.1419 60.0838 36.0708 60.1133 35.993C60.1429 35.9151 60.1563 35.8321 60.153 35.749V24.358C60.156 23.118 58.859 22.044 56.4 21.252ZM34.274 26.294C38.881 29.549 54.319 29.546 58.921 26.294V31.985C58.906 32.113 58.8656 32.2368 58.8023 32.3491C58.7389 32.4614 58.6538 32.5599 58.552 32.639C57.552 33.596 55.117 34.214 53.759 34.484C50.911 35.0138 48.0126 35.2228 45.118 35.107V33.14C45.118 29.998 37.401 29.031 34.274 28.84V26.294ZM43.883 35.076V40.767C43.883 41.272 43.007 42.117 40.538 42.835C34.6388 44.2734 28.4802 44.2734 22.581 42.835C20.112 42.117 19.236 41.272 19.236 40.767V35.076C23.87 38.351 39.348 38.28 43.882 35.076H43.883ZM19.235 42.701C23.86 45.97 39.309 45.934 43.882 42.701V48.392C43.882 48.897 43.006 49.742 40.537 50.46C34.6378 51.8984 28.4792 51.8984 22.58 50.46C20.111 49.742 19.235 48.897 19.235 48.392V42.701ZM22.58 31.071C28.4793 29.6331 34.6377 29.6331 40.537 31.071C43.006 31.789 43.882 32.634 43.882 33.139C43.882 34.43 39.152 36.285 31.558 36.285C23.917 36.285 19.235 34.415 19.234 33.139C19.235 32.634 20.111 31.79 22.58 31.071ZM43.88 56.021C43.88 56.526 43.004 57.371 40.535 58.089C34.6358 59.5277 28.4772 59.5277 22.578 58.089C20.109 57.371 19.233 56.526 19.233 56.021V50.331C23.748 53.521 39.203 53.636 43.88 50.331V56.021ZM58.919 47.239C58.9039 47.3668 58.8634 47.4904 58.8001 47.6025C58.7367 47.7146 58.6517 47.813 58.55 47.892C57.068 49.306 51.685 50.584 45.115 50.36V43.969C50.986 44.163 56.565 43.199 58.915 41.551L58.919 47.239Z" fill="#2C3E50"/>
</svg>
