<svg width="80" height="80" viewBox="0 0 80 80" fill="none" xmlns="http://www.w3.org/2000/svg">
<path d="M40 80C62.0914 80 80 62.0914 80 40C80 17.9086 62.0914 0 40 0C17.9086 0 0 17.9086 0 40C0 62.0914 17.9086 80 40 80Z" fill="#EFF3FB"/>
<circle cx="33.2851" cy="34.86" r="13.2196" fill="#56DCE8" fill-opacity="0.71"/>
<path d="M34.0926 20.7413C26.1703 20.7413 19.748 27.1636 19.748 35.0859C19.748 43.0082 26.1703 49.4305 34.0926 49.4305C42.0149 49.4305 48.4372 43.0082 48.4372 35.0859C48.4285 27.1672 42.0113 20.75 34.0926 20.7413ZM34.0926 22.1075C38.312 22.1108 42.2658 24.1672 44.6912 27.6199L42.9835 29.3276C42.5679 29.0761 42.0922 28.9416 41.6064 28.9382C40.0974 28.9382 38.8741 30.1615 38.8741 31.6705C38.8765 32.1568 39.0103 32.6333 39.2614 33.0496L34.7887 37.5224C33.9417 37.006 32.8773 37.006 32.0304 37.5224L28.9238 34.4158C29.1749 33.9995 29.3087 33.5229 29.3111 33.0367C29.313 31.5307 28.0937 30.3083 26.5877 30.3064C25.3422 30.3049 24.2539 31.1474 23.9435 32.3536H21.4093C22.7026 26.3812 27.9818 22.1164 34.0926 22.1075ZM42.9726 31.6705C42.9726 32.4251 42.361 33.0367 41.6064 33.0367C40.8519 33.0367 40.2403 32.4251 40.2403 31.6705C40.2403 30.916 40.8519 30.3044 41.6064 30.3044C42.361 30.3044 42.9726 30.916 42.9726 31.6705ZM34.7757 39.8674C34.7757 40.622 34.1641 41.2336 33.4095 41.2336C32.655 41.2336 32.0434 40.622 32.0434 39.8674C32.0434 39.1129 32.655 38.5013 33.4095 38.5013C34.1641 38.5013 34.7757 39.1129 34.7757 39.8674ZM27.9449 33.0367C27.9449 33.7912 27.3333 34.4028 26.5788 34.4028C25.8242 34.4028 25.2126 33.7912 25.2126 33.0367C25.2126 32.2821 25.8242 31.6705 26.5788 31.6705C27.3333 31.6705 27.9449 32.2821 27.9449 33.0367ZM40.3986 46.434C38.4696 47.505 36.2991 48.0662 34.0926 48.0642C26.9297 48.0691 21.1191 42.2665 21.1142 35.1036C21.1139 34.6413 21.1383 34.1793 21.1873 33.7197H23.9435C24.254 34.9223 25.3367 35.7642 26.5788 35.7689C27.0651 35.7665 27.5416 35.6327 27.9579 35.3816L31.0645 38.4882C30.8134 38.9045 30.6796 39.3811 30.6772 39.8673C30.6772 41.3763 31.9005 42.5996 33.4095 42.5996C34.9185 42.5996 36.1418 41.3763 36.1418 39.8673C36.1394 39.3811 36.0056 38.9045 35.7545 38.4882L40.2273 34.0154C40.6436 34.2665 41.1202 34.4003 41.6064 34.4027C43.1154 34.4027 44.3387 33.1794 44.3387 31.6704C44.3363 31.1842 44.2025 30.7076 43.9514 30.2913L45.4405 28.8029C48.9169 35.064 46.6595 42.9576 40.3986 46.434Z" fill="black"/>
<path d="M51.1692 24.8405C52.4113 24.8358 53.494 23.994 53.8045 22.7913H58V21.4251H53.8045C53.494 20.2224 52.4113 19.3806 51.1692 19.3759C49.6602 19.3759 48.4369 20.5992 48.4369 22.1082C48.4393 22.5945 48.5731 23.071 48.8242 23.4873L47.6241 24.6875C41.8815 17.206 31.1614 15.7963 23.6799 21.5389C16.1985 27.2814 14.7888 38.0016 20.5313 45.4831C25.9518 52.545 35.8881 54.258 43.3603 49.4189L45.4218 51.4804L46.3877 52.4463L51.8865 57.945C53.285 59.3435 55.5523 59.3435 56.9508 57.945C58.3493 56.5465 58.3493 54.2792 56.9508 52.8807L51.452 47.382L50.4862 46.4161L48.4246 44.3546C52.0841 38.7178 52.0841 31.4555 48.4246 25.8187L49.7908 24.4525C50.2069 24.7037 50.6832 24.8378 51.1692 24.8405ZM51.1692 20.7421C51.9238 20.7421 52.5354 21.3537 52.5354 22.1082C52.5354 22.8627 51.9238 23.4744 51.1692 23.4744C50.4147 23.4744 49.8031 22.8627 49.8031 22.1082C49.8031 21.3537 50.4148 20.7421 51.1692 20.7421ZM55.9849 53.8466C56.8597 54.7018 56.8757 56.1043 56.0205 56.9792C55.1653 57.854 53.7628 57.87 52.8879 57.0148C52.8759 57.0031 52.8641 56.9912 52.8523 56.9792L47.3536 51.4804L50.4862 48.3478L55.9849 53.8466ZM49.5203 47.382L46.3877 50.5145L44.497 48.6238C44.5933 48.55 44.6834 48.4687 44.7784 48.3929C44.8733 48.3171 44.9833 48.2262 45.0851 48.1409C45.2347 48.0152 45.3822 47.8881 45.527 47.7577C45.6015 47.6893 45.6725 47.621 45.7456 47.5527C46.0257 47.2904 46.2969 47.0192 46.5592 46.7392C46.6275 46.6661 46.6958 46.5951 46.7641 46.5206C46.8945 46.3758 47.0216 46.2282 47.1473 46.0787C47.2329 45.9776 47.3169 45.8754 47.3993 45.772C47.4745 45.6777 47.5558 45.5875 47.6295 45.4912L49.5203 47.382ZM46.8713 44.2091C46.6562 44.5096 46.4342 44.804 46.1999 45.0875C46.1316 45.1702 46.0585 45.2501 45.9881 45.3314C45.7791 45.5745 45.5632 45.8105 45.3406 46.039C45.2436 46.1392 45.1449 46.2378 45.0448 46.3348C44.8171 46.5575 44.5812 46.7733 44.3371 46.9824C44.2558 47.0507 44.1759 47.1251 44.0933 47.1941C43.8098 47.4284 43.5154 47.6504 43.2148 47.8656C36.1436 52.9173 26.316 51.2803 21.2642 44.2091C16.2125 37.1379 17.8495 27.3102 24.9207 22.2585C31.9919 17.2067 41.8196 18.8437 46.8713 25.915C50.7803 31.3866 50.7803 38.7375 46.8713 44.2091Z" fill="black"/>
<ellipse cx="51.0296" cy="22.1001" rx="1.64" ry="1.64" fill="#01C3FF" fill-opacity="0.63"/>
<ellipse cx="41.6002" cy="31.5296" rx="1.64" ry="1.64" fill="#21D885"/>
<circle cx="33.4" cy="39.7297" r="1.64" fill="#FBBC05"/>
<ellipse cx="26.4298" cy="33.1699" rx="1.64" ry="1.64" fill="#FBBC05"/>
</svg>
