<svg width="100" height="100" viewBox="0 0 100 100" fill="none" xmlns="http://www.w3.org/2000/svg">
<path d="M50 100C77.6142 100 100 77.6142 100 50C100 22.3858 77.6142 0 50 0C22.3858 0 0 22.3858 0 50C0 77.6142 22.3858 100 50 100Z" fill="#EFF3FC"/>
<path d="M61.4866 64.3311L61.4867 64.3312L62.0512 65.9H38.9487L39.5132 64.3316L39.5133 64.3315L44.2045 51.2591L44.2047 51.2585L44.298 51.0035L44.2982 51.003L44.4245 50.6526L44.4246 50.6524L44.7099 49.8564L44.7099 49.8563L46.2207 45.6471L46.2207 45.6471L46.7819 44.0806L46.782 44.0805L46.903 43.744L46.9036 43.7425L46.9124 43.7193L46.9124 43.7193L46.913 43.7176L47.3479 42.5016L47.348 42.5014L48.4798 39.3602L48.4799 39.3599L49.0101 37.8762C49.4797 37.9992 49.9816 38.0658 50.4999 38.0658C51.0184 38.0658 51.5202 37.9992 51.9902 37.8762L52.52 39.3599L52.5201 39.3602L53.086 40.9305L53.086 40.9305L53.6519 42.501L53.652 42.5012L54.0869 43.7172L54.0869 43.7172L54.0875 43.7189L54.0964 43.7422L54.0969 43.7436L54.2184 44.08L54.2185 44.0803L54.7792 45.6466L54.7792 45.6467L56.29 49.8559L56.29 49.856L56.5753 50.652L56.5754 50.6522L56.7017 51.0026L56.7018 51.0031L56.7952 51.2581L56.7954 51.2587L61.4866 64.3311ZM55.4913 52.5056L55.4415 52.3671L55.3311 52.4644L51.7529 55.6183L51.6677 55.6933L51.7529 55.7683L58.6474 61.8455L58.8076 61.7367L55.4913 52.5056ZM52.7924 44.9899L52.7425 44.8516L52.6322 44.9488L51.7529 45.7238L51.6677 45.7989L51.7529 45.8739L53.4508 47.3704L53.611 47.2615L53.1479 45.9753L53.1479 45.9752L52.7924 44.9899ZM50.1486 39.5768L50.1486 39.5769L49.5686 41.193L49.5686 41.193L48.9933 42.7925L48.9933 42.7926L48.8389 43.2213L48.8159 43.2853L48.8669 43.3302L50.4338 44.7113L50.5001 44.7697L50.5663 44.7111L50.6545 44.633L50.6547 44.6328L52.1325 43.3302L52.1835 43.2853L52.1605 43.2213L52.0062 42.7926L52.0061 42.7925L51.4313 41.193L51.4313 41.193L50.8513 39.5769L50.8513 39.5768L50.594 38.8636L50.4999 38.6028L50.4059 38.8636L50.1486 39.5768ZM47.852 45.9752L47.852 45.9753L47.3889 47.2615L47.5491 47.3704L48.8775 46.1996L49.247 45.8739L49.3321 45.7989L49.247 45.7238L48.3677 44.9488L48.2574 44.8516L48.2075 44.9899L47.852 45.9752ZM50.5661 46.8864L50.4999 46.8282L50.4338 46.8864L46.1961 50.6216L46.14 50.6711L46.0548 50.7461L46.14 50.8211L46.168 50.8458L50.4338 54.6057L50.4999 54.664L50.5661 54.6057L54.8599 50.8211L54.9451 50.7461L54.8599 50.6711L50.5661 46.8864ZM45.6688 52.4644L45.5584 52.3671L45.5086 52.5056L42.1923 61.7363L42.3525 61.8451L49.247 55.7683L49.3321 55.6933L49.247 55.6183L45.6688 52.4644ZM41.9303 64.2759L41.7317 64.4509H41.9964H59.0035H59.2682L59.0696 64.2759L50.5661 56.7809L50.4999 56.7226L50.4338 56.7809L41.9303 64.2759Z" fill="#01C3FF" stroke="black" stroke-width="0.2"/>
<path d="M55.8452 33.4309C55.8452 32.4915 55.5357 31.6184 55.0087 30.8862L56.0539 29.9649C56.8496 30.9472 57.3161 32.1421 57.3161 33.4309C57.3161 34.7197 56.8496 35.9146 56.0539 36.8969L55.0087 35.9756C55.5357 35.2434 55.8452 34.3703 55.8452 33.4309ZM44.9461 36.8969C44.1504 35.9146 43.6839 34.7197 43.6839 33.4309C43.6839 32.1421 44.1504 30.9472 44.9461 29.9649L45.9914 30.8862C45.4643 31.6184 45.1549 32.4915 45.1549 33.4309C45.1549 34.3703 45.4643 35.2434 45.9914 35.9756L44.9461 36.8969Z" fill="#FBBC05" stroke="black" stroke-width="0.4"/>
<path d="M39.9419 33.4308C39.9419 31.2354 40.8155 29.2109 42.281 27.6158L43.3079 28.5209C42.1241 29.8747 41.4129 31.5783 41.4129 33.4308C41.4129 35.2834 42.1241 36.987 43.3079 38.3408L42.281 39.2459C40.8155 37.6508 39.9419 35.6263 39.9419 33.4308ZM57.6921 38.3408C58.8759 36.987 59.5871 35.2834 59.5871 33.4308C59.5871 31.5783 58.8759 29.8747 57.6921 28.5209L58.719 27.6158C60.1845 29.2109 61.0581 31.2354 61.0581 33.4308C61.0581 35.6263 60.1845 37.6508 58.719 39.2459L57.6921 38.3408Z" fill="#01C3FF" stroke="black" stroke-width="0.4"/>
<path d="M36.15 33.4309C36.15 30.2984 37.457 27.4192 39.6227 25.2062L40.7221 26.1752C38.8457 28.135 37.721 30.6628 37.721 33.4309C37.721 36.1989 38.8457 38.7268 40.7221 40.6866L39.6227 41.6556C37.457 39.4426 36.15 36.5634 36.15 33.4309ZM60.2779 40.6866C62.1543 38.7268 63.279 36.1989 63.279 33.4309C63.279 30.6628 62.1543 28.135 60.2779 26.1752L61.3773 25.2062C63.543 27.4192 64.85 30.2984 64.85 33.4309C64.85 36.5634 63.543 39.4426 61.3769 41.6556L60.2779 40.6866Z" fill="#21D885" stroke="black" stroke-width="0.3"/>
<mask id="path-6-inside-1" fill="white">
<path d="M53.7742 33.4309C53.7742 33.5009 53.7695 33.5752 53.7602 33.6452C53.7602 33.6617 53.7602 33.6782 53.7555 33.6947V33.7153C53.7555 33.7194 53.7555 33.7194 53.7555 33.7236C53.7555 33.7483 53.7508 33.773 53.7462 33.7978C53.7363 33.872 53.7223 33.9421 53.7087 34.0122C53.69 34.0905 53.6662 34.1688 53.6428 34.243C53.6334 34.2719 53.6241 34.2966 53.6147 34.3255C53.5862 34.4038 53.5539 34.4821 53.5165 34.5563C53.4744 34.6429 53.4276 34.7254 53.3808 34.8078C53.3336 34.8779 53.2873 34.9521 53.2354 35.0181C53.2307 35.0222 53.226 35.0305 53.2218 35.0346C53.2167 35.0428 53.212 35.0511 53.2031 35.0593C53.1517 35.1294 53.0908 35.1995 53.0254 35.2654C52.9594 35.3355 52.8897 35.4056 52.8149 35.4716C52.74 35.5375 52.6605 35.5994 52.581 35.6571C52.5062 35.7148 52.4267 35.7684 52.3471 35.8138C52.3373 35.822 52.3284 35.8261 52.3186 35.8303C52.3139 35.8344 52.305 35.8385 52.2999 35.8426C52.2255 35.888 52.1409 35.9292 52.0613 35.9704C51.8789 36.057 51.6872 36.1271 51.4865 36.1848C51.4725 36.1889 51.458 36.1931 51.4439 36.1972C51.3644 36.2178 51.2802 36.2343 51.1965 36.2508C51.1867 36.2508 51.1825 36.2549 51.1731 36.2549C51.1591 36.259 51.1493 36.2631 51.1357 36.2631C51.0375 36.2796 50.9392 36.292 50.8363 36.3002C50.7292 36.3126 50.6123 36.3167 50.5 36.3167C50.3878 36.3167 50.2708 36.3126 50.1632 36.3002C50.0603 36.292 49.9621 36.2796 49.8639 36.2631C49.8499 36.2631 49.8405 36.259 49.8265 36.2549C49.8171 36.2549 49.8124 36.2508 49.8031 36.2508C49.7189 36.2343 49.6347 36.2178 49.5552 36.1972C49.5412 36.1931 49.5271 36.1889 49.5131 36.1848C49.312 36.1271 49.1202 36.057 48.9378 35.9704C48.8582 35.9292 48.7741 35.888 48.6992 35.8426C48.6945 35.8385 48.6852 35.8344 48.6805 35.8303C48.6712 35.8261 48.6618 35.822 48.6524 35.8138C48.5729 35.7684 48.4934 35.7148 48.4186 35.6571C48.3391 35.5994 48.2595 35.5375 48.1847 35.4716C48.1099 35.4056 48.0397 35.3355 47.9742 35.2654C47.9087 35.1995 47.8479 35.1294 47.7965 35.0593C47.7871 35.0511 47.7824 35.0428 47.7778 35.0346C47.7731 35.0305 47.7684 35.0222 47.7637 35.0181C47.7123 34.9521 47.6655 34.8779 47.6187 34.8078C47.572 34.7254 47.5252 34.6429 47.4831 34.5563C47.4457 34.4821 47.4129 34.4038 47.3849 34.3255C47.3755 34.2966 47.3662 34.2719 47.3568 34.243C47.3334 34.1688 47.31 34.0905 47.2913 34.0122C47.2773 33.9421 47.2633 33.872 47.2539 33.7978C47.2492 33.773 47.2445 33.7483 47.2445 33.7236C47.2445 33.7194 47.2445 33.7194 47.2445 33.7153V33.6947C47.2399 33.6782 47.2399 33.6617 47.2399 33.6452C47.2305 33.5752 47.2258 33.5009 47.2258 33.4309C47.2258 33.3608 47.2305 33.2866 47.2399 33.2165C47.2399 33.2 47.2399 33.1835 47.2445 33.167V33.1464C47.2445 33.1423 47.2445 33.1423 47.2445 33.1381C47.2445 33.1134 47.2492 33.0887 47.2539 33.0639C47.2633 32.9897 47.2773 32.9196 47.2913 32.8496C47.3053 32.7836 47.3241 32.7218 47.3474 32.6558C47.3474 32.6475 47.3521 32.6352 47.3568 32.6269C47.3615 32.5981 47.3708 32.5651 47.3849 32.5362C47.4129 32.4579 47.4457 32.3796 47.4831 32.3054C47.5252 32.2188 47.572 32.1363 47.6187 32.0539C47.6655 31.9838 47.7123 31.9096 47.7637 31.8436C47.7684 31.8395 47.7731 31.8313 47.7778 31.8271C47.7824 31.8189 47.7871 31.8106 47.7965 31.8024C47.8479 31.7323 47.9087 31.6622 47.9742 31.5963C48.0397 31.5262 48.1099 31.4561 48.1847 31.3901C48.2595 31.3242 48.3391 31.2623 48.4186 31.2046C48.4934 31.1469 48.5729 31.0933 48.6524 31.0479C48.6618 31.0397 48.6712 31.0356 48.6805 31.0315C48.6852 31.0273 48.6945 31.0232 48.6992 31.0191C48.7741 30.9737 48.8582 30.9325 48.9378 30.8913C49.0313 30.8501 49.1249 30.8088 49.2231 30.7717C49.3073 30.7387 49.3962 30.7099 49.485 30.6852C49.5178 30.6728 49.5552 30.6645 49.5879 30.6604C49.5973 30.6563 49.6113 30.6522 49.6207 30.6522C49.6955 30.6316 49.7657 30.6151 49.8405 30.6027C49.92 30.5903 49.9995 30.578 50.0837 30.5697C50.1118 30.5656 50.1399 30.5615 50.1679 30.5615C50.1726 30.5615 50.1726 30.5615 50.1773 30.5615H50.2007C50.2194 30.5574 50.2381 30.5574 50.2568 30.5574C50.3363 30.5491 50.4205 30.545 50.5 30.545C50.5795 30.545 50.6637 30.5491 50.7432 30.5574C50.762 30.5574 50.7807 30.5574 50.7994 30.5615H50.8228C50.8274 30.5615 50.8274 30.5615 50.8321 30.5615C50.8602 30.5615 50.8882 30.5656 50.9163 30.5697C51.0005 30.578 51.08 30.5903 51.1595 30.6027C51.2344 30.6151 51.3045 30.6316 51.3794 30.6522C51.3892 30.6522 51.4028 30.6563 51.4121 30.6604C51.4444 30.6645 51.4818 30.6728 51.515 30.6852C51.6039 30.7099 51.6928 30.7387 51.7774 30.7717C51.8757 30.8088 51.9687 30.8501 52.0623 30.8913C52.1418 30.9325 52.2265 30.9737 52.3008 31.0191C52.306 31.0232 52.3149 31.0273 52.3195 31.0315C52.3294 31.0356 52.3382 31.0397 52.3481 31.0479C52.4276 31.0933 52.5071 31.1469 52.5819 31.2046C52.6615 31.2623 52.741 31.3242 52.8158 31.3901C52.8907 31.4561 52.9608 31.5262 53.0263 31.5963C53.0918 31.6622 53.1526 31.7323 53.204 31.8024C53.2134 31.8106 53.2176 31.8189 53.2227 31.8271C53.2274 31.8313 53.2321 31.8395 53.2363 31.8436C53.2878 31.9096 53.3345 31.9838 53.3818 32.0539C53.4286 32.1363 53.4753 32.2188 53.5174 32.3054C53.5548 32.3796 53.5871 32.4579 53.6157 32.5362C53.6297 32.5651 53.639 32.5981 53.6437 32.6269C53.6489 32.6352 53.6535 32.6475 53.6535 32.6558C53.6769 32.7218 53.6956 32.7836 53.7097 32.8496C53.7232 32.9196 53.7377 32.9897 53.7471 33.0639C53.7518 33.0887 53.7564 33.1134 53.7564 33.1381C53.7564 33.1423 53.7564 33.1423 53.7564 33.1464V33.167C53.7611 33.1835 53.7611 33.2 53.7611 33.2165C53.7695 33.2866 53.7742 33.3608 53.7742 33.4309Z"/>
</mask>
<path d="M53.7742 33.4309C53.7742 33.5009 53.7695 33.5752 53.7602 33.6452C53.7602 33.6617 53.7602 33.6782 53.7555 33.6947V33.7153C53.7555 33.7194 53.7555 33.7194 53.7555 33.7236C53.7555 33.7483 53.7508 33.773 53.7462 33.7978C53.7363 33.872 53.7223 33.9421 53.7087 34.0122C53.69 34.0905 53.6662 34.1688 53.6428 34.243C53.6334 34.2719 53.6241 34.2966 53.6147 34.3255C53.5862 34.4038 53.5539 34.4821 53.5165 34.5563C53.4744 34.6429 53.4276 34.7254 53.3808 34.8078C53.3336 34.8779 53.2873 34.9521 53.2354 35.0181C53.2307 35.0222 53.226 35.0305 53.2218 35.0346C53.2167 35.0428 53.212 35.0511 53.2031 35.0593C53.1517 35.1294 53.0908 35.1995 53.0254 35.2654C52.9594 35.3355 52.8897 35.4056 52.8149 35.4716C52.74 35.5375 52.6605 35.5994 52.581 35.6571C52.5062 35.7148 52.4267 35.7684 52.3471 35.8138C52.3373 35.822 52.3284 35.8261 52.3186 35.8303C52.3139 35.8344 52.305 35.8385 52.2999 35.8426C52.2255 35.888 52.1409 35.9292 52.0613 35.9704C51.8789 36.057 51.6872 36.1271 51.4865 36.1848C51.4725 36.1889 51.458 36.1931 51.4439 36.1972C51.3644 36.2178 51.2802 36.2343 51.1965 36.2508C51.1867 36.2508 51.1825 36.2549 51.1731 36.2549C51.1591 36.259 51.1493 36.2631 51.1357 36.2631C51.0375 36.2796 50.9392 36.292 50.8363 36.3002C50.7292 36.3126 50.6123 36.3167 50.5 36.3167C50.3878 36.3167 50.2708 36.3126 50.1632 36.3002C50.0603 36.292 49.9621 36.2796 49.8639 36.2631C49.8499 36.2631 49.8405 36.259 49.8265 36.2549C49.8171 36.2549 49.8124 36.2508 49.8031 36.2508C49.7189 36.2343 49.6347 36.2178 49.5552 36.1972C49.5412 36.1931 49.5271 36.1889 49.5131 36.1848C49.312 36.1271 49.1202 36.057 48.9378 35.9704C48.8582 35.9292 48.7741 35.888 48.6992 35.8426C48.6945 35.8385 48.6852 35.8344 48.6805 35.8303C48.6712 35.8261 48.6618 35.822 48.6524 35.8138C48.5729 35.7684 48.4934 35.7148 48.4186 35.6571C48.3391 35.5994 48.2595 35.5375 48.1847 35.4716C48.1099 35.4056 48.0397 35.3355 47.9742 35.2654C47.9087 35.1995 47.8479 35.1294 47.7965 35.0593C47.7871 35.0511 47.7824 35.0428 47.7778 35.0346C47.7731 35.0305 47.7684 35.0222 47.7637 35.0181C47.7123 34.9521 47.6655 34.8779 47.6187 34.8078C47.572 34.7254 47.5252 34.6429 47.4831 34.5563C47.4457 34.4821 47.4129 34.4038 47.3849 34.3255C47.3755 34.2966 47.3662 34.2719 47.3568 34.243C47.3334 34.1688 47.31 34.0905 47.2913 34.0122C47.2773 33.9421 47.2633 33.872 47.2539 33.7978C47.2492 33.773 47.2445 33.7483 47.2445 33.7236C47.2445 33.7194 47.2445 33.7194 47.2445 33.7153V33.6947C47.2399 33.6782 47.2399 33.6617 47.2399 33.6452C47.2305 33.5752 47.2258 33.5009 47.2258 33.4309C47.2258 33.3608 47.2305 33.2866 47.2399 33.2165C47.2399 33.2 47.2399 33.1835 47.2445 33.167V33.1464C47.2445 33.1423 47.2445 33.1423 47.2445 33.1381C47.2445 33.1134 47.2492 33.0887 47.2539 33.0639C47.2633 32.9897 47.2773 32.9196 47.2913 32.8496C47.3053 32.7836 47.3241 32.7218 47.3474 32.6558C47.3474 32.6475 47.3521 32.6352 47.3568 32.6269C47.3615 32.5981 47.3708 32.5651 47.3849 32.5362C47.4129 32.4579 47.4457 32.3796 47.4831 32.3054C47.5252 32.2188 47.572 32.1363 47.6187 32.0539C47.6655 31.9838 47.7123 31.9096 47.7637 31.8436C47.7684 31.8395 47.7731 31.8313 47.7778 31.8271C47.7824 31.8189 47.7871 31.8106 47.7965 31.8024C47.8479 31.7323 47.9087 31.6622 47.9742 31.5963C48.0397 31.5262 48.1099 31.4561 48.1847 31.3901C48.2595 31.3242 48.3391 31.2623 48.4186 31.2046C48.4934 31.1469 48.5729 31.0933 48.6524 31.0479C48.6618 31.0397 48.6712 31.0356 48.6805 31.0315C48.6852 31.0273 48.6945 31.0232 48.6992 31.0191C48.7741 30.9737 48.8582 30.9325 48.9378 30.8913C49.0313 30.8501 49.1249 30.8088 49.2231 30.7717C49.3073 30.7387 49.3962 30.7099 49.485 30.6852C49.5178 30.6728 49.5552 30.6645 49.5879 30.6604C49.5973 30.6563 49.6113 30.6522 49.6207 30.6522C49.6955 30.6316 49.7657 30.6151 49.8405 30.6027C49.92 30.5903 49.9995 30.578 50.0837 30.5697C50.1118 30.5656 50.1399 30.5615 50.1679 30.5615C50.1726 30.5615 50.1726 30.5615 50.1773 30.5615H50.2007C50.2194 30.5574 50.2381 30.5574 50.2568 30.5574C50.3363 30.5491 50.4205 30.545 50.5 30.545C50.5795 30.545 50.6637 30.5491 50.7432 30.5574C50.762 30.5574 50.7807 30.5574 50.7994 30.5615H50.8228C50.8274 30.5615 50.8274 30.5615 50.8321 30.5615C50.8602 30.5615 50.8882 30.5656 50.9163 30.5697C51.0005 30.578 51.08 30.5903 51.1595 30.6027C51.2344 30.6151 51.3045 30.6316 51.3794 30.6522C51.3892 30.6522 51.4028 30.6563 51.4121 30.6604C51.4444 30.6645 51.4818 30.6728 51.515 30.6852C51.6039 30.7099 51.6928 30.7387 51.7774 30.7717C51.8757 30.8088 51.9687 30.8501 52.0623 30.8913C52.1418 30.9325 52.2265 30.9737 52.3008 31.0191C52.306 31.0232 52.3149 31.0273 52.3195 31.0315C52.3294 31.0356 52.3382 31.0397 52.3481 31.0479C52.4276 31.0933 52.5071 31.1469 52.5819 31.2046C52.6615 31.2623 52.741 31.3242 52.8158 31.3901C52.8907 31.4561 52.9608 31.5262 53.0263 31.5963C53.0918 31.6622 53.1526 31.7323 53.204 31.8024C53.2134 31.8106 53.2176 31.8189 53.2227 31.8271C53.2274 31.8313 53.2321 31.8395 53.2363 31.8436C53.2878 31.9096 53.3345 31.9838 53.3818 32.0539C53.4286 32.1363 53.4753 32.2188 53.5174 32.3054C53.5548 32.3796 53.5871 32.4579 53.6157 32.5362C53.6297 32.5651 53.639 32.5981 53.6437 32.6269C53.6489 32.6352 53.6535 32.6475 53.6535 32.6558C53.6769 32.7218 53.6956 32.7836 53.7097 32.8496C53.7232 32.9196 53.7377 32.9897 53.7471 33.0639C53.7518 33.0887 53.7564 33.1134 53.7564 33.1381C53.7564 33.1423 53.7564 33.1423 53.7564 33.1464V33.167C53.7611 33.1835 53.7611 33.2 53.7611 33.2165C53.7695 33.2866 53.7742 33.3608 53.7742 33.4309Z" fill="#01C3FF" stroke="black" stroke-width="1.2" mask="url(#path-6-inside-1)"/>
</svg>
