<svg width="100" height="100" viewBox="0 0 100 100" fill="none" xmlns="http://www.w3.org/2000/svg">
<path d="M50 100C77.6142 100 100 77.6142 100 50C100 22.3858 77.6142 0 50 0C22.3858 0 0 22.3858 0 50C0 77.6142 22.3858 100 50 100Z" fill="#EFF3FC"/>
<path d="M67.445 46.5123L67.4451 46.5123C68.2974 47.3843 68.2975 48.7964 67.4451 49.6687C66.5997 50.5337 65.2282 50.5336 64.3829 49.6687L64.1326 49.9133L64.3829 49.6687L47.6099 32.5068C46.7611 31.6372 46.7608 30.2191 47.6098 29.3478C48.4496 28.4909 49.8237 28.481 50.6745 29.3492C50.6746 29.3493 50.6746 29.3493 50.6747 29.3494L67.445 46.5123Z" fill="#21D885" stroke="black" stroke-width="0.7"/>
<path d="M46.3318 35.8466L61.1154 50.9728L61.1108 50.9737L61.1105 50.9738C56.7025 51.8766 52.5761 54.0917 49.1618 57.0083L40.4869 48.1316C43.3409 44.6315 45.4503 40.3519 46.3318 35.8466Z" fill="#01C3FF" stroke="black" stroke-width="0.7"/>
<path d="M32.3577 56.7104C32.3577 56.7104 32.3577 56.7104 32.3577 56.7104L38.3435 50.5867L46.7617 59.2006L40.7653 65.3365C39.4233 66.7096 37.2571 66.7041 35.9205 65.3365L32.3577 61.6908C31.0114 60.3131 31.0168 58.0826 32.3577 56.7104ZM37.2026 60.3573C37.8319 61.0013 38.8552 61.0013 39.4846 60.3573L41.266 58.5345C41.891 57.895 41.891 56.862 41.266 56.2224C40.6366 55.5784 39.6133 55.5784 38.984 56.2224L37.2026 58.0453C36.5776 58.6848 36.5776 59.7178 37.2026 60.3573Z" fill="white" stroke="black" stroke-width="0.7"/>
<path d="M52.2968 66.0558L52.0886 66.2688L52.3001 66.4786L53.643 67.81C54.5105 68.6994 54.5099 70.1472 53.6415 71.0359L53.6414 71.0359C52.7747 71.9229 51.3671 71.9175 50.5093 71.0375L50.5093 71.0375L50.5057 71.0339L45.0015 65.5762L48.1451 62.3595L50.4905 64.6848L50.7051 64.8975L50.9163 64.6814L52.6583 62.8989L52.6588 62.8983C53.2662 62.2736 53.2634 61.2743 52.658 60.6578C52.6579 60.6577 52.6578 60.6576 52.6577 60.6574L51.3629 59.3306C51.8671 58.9079 52.3825 58.5073 52.9151 58.1316L54.0105 59.2533L54.0107 59.2535C55.3715 60.6436 55.3761 62.9051 54.0105 64.3023L54.0105 64.3023L52.2968 66.0558Z" fill="#01C3FF" stroke="black" stroke-width="0.6"/>
<path d="M56.5906 29.2891C56.5906 28.7092 57.0475 28.25 57.6003 28.25C58.1532 28.25 58.6101 28.7092 58.6101 29.2891V31.8672C58.6101 32.4471 58.1532 32.9063 57.6003 32.9063C57.0475 32.9063 56.5906 32.4471 56.5906 31.8672V29.2891Z" stroke="black" stroke-width="0.5"/>
<path d="M65.1587 38.5625H67.6782C68.2311 38.5625 68.688 39.0217 68.688 39.6016C68.688 40.1815 68.2311 40.6406 67.6782 40.6406H65.1587C64.6058 40.6406 64.1489 40.1815 64.1489 39.6016C64.1489 39.0217 64.6058 38.5625 65.1587 38.5625Z" stroke="black" stroke-width="0.5"/>
<path d="M63.3512 35.182L63.3511 35.182C62.9572 35.5852 62.3214 35.5852 61.9274 35.182C61.5302 34.7756 61.5302 34.115 61.9274 33.7086L64.4469 31.1305C64.8409 30.7273 65.4767 30.7273 65.8707 31.1305C66.2678 31.5369 66.2678 32.1975 65.8707 32.6038L63.3512 35.182Z" stroke="black" stroke-width="0.5"/>
</svg>
