<svg width="100" height="100" viewBox="0 0 100 100" fill="none" xmlns="http://www.w3.org/2000/svg">
<path d="M50 100C77.6142 100 100 77.6142 100 50C100 22.3858 77.6142 0 50 0C22.3858 0 0 22.3858 0 50C0 77.6142 22.3858 100 50 100Z" fill="#EFF3FC"/>
<path d="M61.4576 67.573H36.1035C35.7313 67.573 35.3743 67.7209 35.1111 67.9841C34.8479 68.2473 34.7 68.6043 34.7 68.9765C34.7 69.3488 34.8479 69.7058 35.1111 69.969C35.3743 70.2322 35.7313 70.38 36.1035 70.38H61.4576C61.8298 70.38 62.1868 70.2322 62.45 69.969C62.7132 69.7058 62.8611 69.3488 62.8611 68.9765C62.8611 68.6043 62.7132 68.2473 62.45 67.9841C62.1868 67.7209 61.8298 67.573 61.4576 67.573Z" fill="white" stroke="black" stroke-width="0.6"/>
<path d="M37.6453 34.8564V48.9136H59.9158V44.9798C58.6455 44.9735 57.3911 44.6966 56.2362 44.1676C55.0813 43.6386 54.0524 42.8695 53.218 41.9117C52.3836 40.9538 51.7629 39.8292 51.3973 38.6126C51.0316 37.3961 50.9294 36.1156 51.0974 34.8564H37.6453Z" fill="#FBBC05" stroke="black" stroke-width="0.7"/>
<path d="M59.6158 66.6746H37.9453V53.218H59.6158V66.6746ZM41.5571 65.9471C41.6977 65.8065 41.7766 65.616 41.7766 65.4172V57.4618C41.7766 57.2631 41.6977 57.0725 41.5571 56.9319C41.4166 56.7914 41.226 56.7125 41.0273 56.7125C40.8285 56.7125 40.6379 56.7914 40.4974 56.9319C40.3569 57.0725 40.2779 57.2631 40.2779 57.4618V65.4172C40.2779 65.616 40.3569 65.8065 40.4974 65.9471C40.6379 66.0876 40.8285 66.1666 41.0273 66.1666C41.226 66.1666 41.4166 66.0876 41.5571 65.9471ZM41.5571 56.2918C41.6977 56.1513 41.7766 55.9607 41.7766 55.7619V55.2382C41.7766 55.0395 41.6977 54.8489 41.5571 54.7083C41.4166 54.5678 41.226 54.4888 41.0273 54.4888C40.8285 54.4888 40.6379 54.5678 40.4974 54.7083C40.3569 54.8489 40.2779 55.0395 40.2779 55.2382V55.7619C40.2779 55.9607 40.3569 56.1513 40.4974 56.2918C40.6379 56.4323 40.8285 56.5113 41.0273 56.5113C41.226 56.5113 41.4166 56.4323 41.5571 56.2918Z" fill="#F87306" stroke="black" stroke-width="0.6"/>
<path d="M51.2643 34.158H51.422L51.4588 34.0046C51.6392 33.2515 51.9196 32.526 52.2924 31.8473L52.4552 31.551H52.1171H36.1035C35.7578 31.551 35.4262 31.6883 35.1818 31.9328C34.9373 32.1772 34.8 32.5088 34.8 32.8545C34.8 33.2002 34.9373 33.5317 35.1818 33.7762C35.4262 34.0206 35.7578 34.158 36.1035 34.158H51.2643Z" fill="white" stroke="black" stroke-width="0.4"/>
<path d="M59.959 31.1963L57.0509 36.1606C56.7511 36.6726 56.5917 37.2547 56.5889 37.848C56.5861 38.4414 56.7401 39.025 57.0351 39.5397C57.3302 40.0545 57.756 40.4823 58.2694 40.7797C58.7827 41.0772 59.3656 41.2339 59.9589 41.2339C60.5523 41.2339 61.1351 41.0772 61.6485 40.7797C62.1619 40.4823 62.5876 40.0545 62.8827 39.5397C63.1778 39.025 63.3317 38.4414 63.329 37.848C63.3262 37.2547 63.1668 36.6726 62.8669 36.1606L59.959 31.1963ZM62.4835 37.8966C62.3945 38.3365 62.1922 38.7455 61.8966 39.0831C61.601 39.4208 61.2224 39.6755 60.7982 39.8219C60.6856 39.8601 60.5626 39.8521 60.4559 39.7997C60.3493 39.7474 60.2677 39.6549 60.229 39.5426C60.1904 39.4302 60.1978 39.3071 60.2497 39.2002C60.3015 39.0933 60.3936 39.0113 60.5058 38.9721C60.7819 38.8767 61.0282 38.7108 61.2206 38.491C61.413 38.2711 61.5447 38.0049 61.6027 37.7187C61.6133 37.6599 61.6356 37.6038 61.6682 37.5537C61.7008 37.5036 61.7431 37.4605 61.7926 37.427C61.842 37.3935 61.8977 37.3701 61.9563 37.3583C62.0149 37.3466 62.0752 37.3466 62.1338 37.3584C62.1924 37.3703 62.248 37.3937 62.2974 37.4273C62.3468 37.4609 62.3891 37.504 62.4216 37.5541C62.4542 37.6042 62.4764 37.6603 62.487 37.7191C62.4976 37.7779 62.4964 37.8383 62.4834 37.8966H62.4835Z" fill="#56DCE8"/>
<path d="M59.959 31.1963L57.0509 36.1606C56.7511 36.6726 56.5917 37.2547 56.5889 37.848C56.5861 38.4414 56.7401 39.025 57.0351 39.5397C57.3302 40.0545 57.756 40.4823 58.2694 40.7797C58.7827 41.0772 59.3656 41.2339 59.9589 41.2339C60.5523 41.2339 61.1351 41.0772 61.6485 40.7797C62.1619 40.4823 62.5876 40.0545 62.8827 39.5397C63.1778 39.025 63.3317 38.4414 63.329 37.848C63.3262 37.2547 63.1668 36.6726 62.8669 36.1606L59.959 31.1963ZM62.4835 37.8966C62.3945 38.3365 62.1922 38.7455 61.8966 39.0831C61.601 39.4208 61.2224 39.6755 60.7982 39.8219C60.6856 39.8601 60.5626 39.8521 60.4559 39.7997C60.3493 39.7474 60.2677 39.6549 60.229 39.5426C60.1904 39.4302 60.1978 39.3071 60.2497 39.2002C60.3015 39.0933 60.3936 39.0113 60.5058 38.9721C60.7819 38.8767 61.0282 38.7108 61.2206 38.491C61.413 38.2711 61.5447 38.0049 61.6027 37.7187C61.6133 37.6599 61.6356 37.6038 61.6682 37.5537C61.7008 37.5036 61.7431 37.4605 61.7926 37.427C61.842 37.3935 61.8977 37.3701 61.9563 37.3583C62.0149 37.3466 62.0752 37.3466 62.1338 37.3584C62.1924 37.3703 62.248 37.3937 62.2974 37.4273C62.3468 37.4609 62.3891 37.504 62.4216 37.5541C62.4542 37.6042 62.4764 37.6603 62.487 37.7191C62.4976 37.7779 62.4964 37.8383 62.4834 37.8966H62.4835Z" stroke="black"/>
<path d="M61.4576 49.6125H36.1035C35.7578 49.6125 35.4262 49.7498 35.1818 49.9943C34.9373 50.2387 34.8 50.5703 34.8 50.916C34.8 51.2617 34.9373 51.5932 35.1818 51.8377C35.4262 52.0822 35.7578 52.2195 36.1035 52.2195H61.4576C61.8033 52.2195 62.1349 52.0822 62.3793 51.8377C62.6238 51.5932 62.7611 51.2617 62.7611 50.916C62.7611 50.5703 62.6238 50.2387 62.3793 49.9943C62.1349 49.7498 61.8033 49.6125 61.4576 49.6125Z" fill="white" stroke="black" stroke-width="0.4"/>
<path d="M63.8581 35.5811L63.8581 35.581L60.5623 29.9548C60.5623 29.9548 60.5623 29.9548 60.5623 29.9548C60.5007 29.8495 60.4125 29.7622 60.3067 29.7015C60.2008 29.6408 60.0809 29.6089 59.9589 29.6089C59.8369 29.6089 59.717 29.6408 59.6111 29.7015C59.5052 29.7622 59.4171 29.8495 59.3554 29.9548L56.0597 35.5805C56.0597 35.5805 56.0597 35.5805 56.0597 35.5806C55.5038 36.5286 55.3125 37.6468 55.5216 38.7258C55.7306 39.8048 56.3258 40.7706 57.1956 41.4424C58.0655 42.1142 59.1503 42.446 60.2472 42.3756C61.344 42.3052 62.3775 41.8375 63.1544 41.06C63.8609 40.3531 64.3131 39.4319 64.4405 38.4406C64.5678 37.4492 64.363 36.4437 63.8581 35.5811ZM55.6302 29.5629C56.9115 28.7069 58.4178 28.25 59.9588 28.25C62.0244 28.2525 64.0047 29.0741 65.4653 30.5348C66.926 31.9955 67.7476 33.9759 67.7499 36.0416C67.7498 37.5825 67.2929 39.0888 66.4368 40.37C65.5807 41.6513 64.3638 42.6499 62.9401 43.2396C61.5164 43.8293 59.9498 43.9836 58.4384 43.6829C56.927 43.3823 55.5388 42.6402 54.4491 41.5505C53.3595 40.4608 52.6175 39.0725 52.3169 37.5611C52.0163 36.0497 52.1707 34.4831 52.7604 33.0595C53.3502 31.6358 54.3489 30.419 55.6302 29.5629Z" fill="white" stroke="black" stroke-width="0.5"/>
</svg>
