<svg width="100" height="100" viewBox="0 0 100 100" fill="none" xmlns="http://www.w3.org/2000/svg">
<path d="M50 100C77.6142 100 100 77.6142 100 50C100 22.3858 77.6142 0 50 0C22.3858 0 0 22.3858 0 50C0 77.6142 22.3858 100 50 100Z" fill="#EFF3FC"/>
<path d="M51.2878 60.1632V59.9492C50.1936 59.9373 49.147 59.8778 48.136 59.7946C47.589 61.2099 46.8159 62.53 45.8525 63.7074C47.6722 64.0048 49.5157 64.1713 51.3591 64.1951L51.2878 60.1632Z" fill="black"/>
<path d="M34.8512 42.8348C31.9017 42.8467 29.0473 43.9409 26.8708 45.9151C22.0303 50.3156 21.6854 57.8203 26.0859 62.6609C30.4864 67.5014 37.991 67.8463 42.8316 63.4458C45.3054 61.198 46.7207 58.0225 46.7088 54.6805C46.7088 53.8836 46.6256 53.0749 46.4709 52.2899M34.8512 42.8348V43.0848C34.8514 43.0848 34.8516 43.0848 34.8517 43.0848M34.8512 42.8348C36.0405 42.8348 37.218 43.0132 38.3597 43.3581M34.8512 42.8348L34.8522 43.0848C34.8521 43.0848 34.8519 43.0848 34.8517 43.0848M34.8517 43.0848C31.9632 43.0965 29.1687 44.1682 27.0388 46.1003M34.8517 43.0848C36.0153 43.0848 37.1678 43.2593 38.2861 43.597M27.0388 46.1003C27.0389 46.1002 27.0389 46.1002 27.039 46.1001L26.8709 45.9153L27.0388 46.1003ZM27.0388 46.1003C22.3009 50.4076 21.963 57.754 26.2709 62.4927C30.5782 67.2307 37.9247 67.5688 42.6634 63.2608L42.6635 63.2608C45.0856 61.06 46.4705 57.9518 46.4588 54.6814L46.4588 54.6805C46.4588 53.9013 46.3774 53.1092 46.2259 52.3397M46.2259 52.3397C46.226 52.3402 46.2261 52.3406 46.2262 52.3411L46.4709 52.2899M46.2259 52.3397C45.3641 48.2194 42.3259 44.8665 38.2861 43.597M46.2259 52.3397C46.2259 52.3392 46.2258 52.3387 46.2257 52.3382L46.4709 52.2899M46.4709 52.2899C45.5908 48.0797 42.4867 44.6545 38.3597 43.3581M38.3597 43.3581L38.2874 43.5974C38.287 43.5973 38.2866 43.5971 38.2861 43.597M38.3597 43.3581L38.2848 43.5966C38.2852 43.5967 38.2857 43.5969 38.2861 43.597M39.4212 56.2903L39.421 56.2895C38.8433 54.2426 36.9724 52.8368 34.8512 52.8368C33.8223 52.8368 32.9849 52.008 32.9842 50.983C32.9954 49.9408 33.8255 49.1147 34.8512 49.1147C35.8787 49.1147 36.7182 49.9542 36.7182 50.9817C36.7182 51.7739 37.3653 52.421 38.1575 52.421C38.9497 52.421 39.5969 51.7739 39.5969 50.9817C39.5969 48.9239 38.274 47.1018 36.3262 46.4672V46.1173C36.3262 45.3251 35.6791 44.678 34.8869 44.678C34.0947 44.678 33.4476 45.3251 33.4476 46.1173V46.441C31.0362 47.1941 29.6193 49.7376 30.2685 52.1875L30.2686 52.1878C30.821 54.2592 32.6919 55.7035 34.8393 55.7035C35.8686 55.7035 36.7063 56.533 36.7063 57.5587C36.7063 58.588 35.8769 59.4257 34.8512 59.4257C33.8219 59.4257 32.9842 58.5962 32.9842 57.5705C32.9842 56.7783 32.3371 56.1312 31.5449 56.1312C30.7527 56.1312 30.1056 56.7783 30.1056 57.5705L30.1056 57.572C30.1177 59.6532 31.4644 61.4757 33.4357 62.0986V62.9463C33.4357 63.7385 34.0828 64.3856 34.875 64.3856C35.6672 64.3856 36.3143 63.7385 36.3143 62.9463V62.0851C38.7369 61.2985 40.1071 58.7521 39.4212 56.2903Z" fill="#01C3FF" stroke="black" stroke-width="0.5"/>
<path d="M51.2521 57.5586L51.1807 53.3484C50.4433 53.3365 49.7179 53.3127 49.028 53.2652C49.0637 53.7409 49.0875 54.2047 49.0875 54.6686C49.0875 55.5962 48.9924 56.5358 48.814 57.4516C49.5989 57.523 50.4196 57.5586 51.2521 57.5586Z" fill="black"/>
<path d="M51.8468 40.4588C55.5297 40.4588 59.0685 40.0168 61.78 39.1975C62.5322 38.9768 63.2686 38.6978 63.9752 38.3604V40.8993C63.853 41.1053 63.8543 41.3047 63.8559 41.4363C63.8456 41.4534 63.8274 41.4799 63.7977 41.5151C63.7246 41.6015 63.5937 41.7261 63.3773 41.8761C62.9448 42.176 62.1877 42.5657 60.9177 42.952C58.5387 43.6668 55.2274 44.0928 51.8468 44.0928C48.9309 44.0928 46.0822 43.786 43.8301 43.2123C43.8135 43.2071 43.7984 43.2033 43.7859 43.2005C42.7 42.3511 41.5062 41.6616 40.2246 41.1631L40.1586 38.5029C40.8586 38.8276 41.5841 39.0937 42.3349 39.2942C44.9497 40.0528 48.32 40.4588 51.8468 40.4588ZM63.8667 41.4156C63.8668 41.4156 63.8663 41.4169 63.865 41.4197C63.8659 41.417 63.8666 41.4156 63.8667 41.4156Z" fill="#21D885" stroke="black" stroke-width="0.6"/>
<path d="M60.905 33.4406L60.9053 33.4407C62.176 33.8272 62.9336 34.2142 63.3664 34.5115C63.583 34.6602 63.7138 34.7834 63.7867 34.8688C63.798 34.8821 63.8076 34.894 63.8158 34.9047C63.807 34.9165 63.7964 34.93 63.7837 34.9449C63.7099 35.0324 63.5779 35.1575 63.3601 35.3076C62.9249 35.6074 62.1649 35.9943 60.8946 36.3748L60.8944 36.3749C58.5158 37.0896 55.2164 37.5039 51.8348 37.5039C48.5719 37.5039 45.4856 37.1252 43.1534 36.4455L43.1526 36.4453C41.8932 36.0821 41.1047 35.706 40.6307 35.3994C40.3938 35.246 40.2396 35.1127 40.145 35.0108C40.0923 34.954 40.0632 34.9125 40.0477 34.8872C40.0578 34.8706 40.0724 34.849 40.0935 34.8225C40.1628 34.7357 40.2868 34.6151 40.4956 34.4709C40.9133 34.1823 41.6458 33.816 42.883 33.4407L42.8839 33.4404C45.2501 32.7142 48.4301 32.3 51.8348 32.3C55.2167 32.3 58.5273 32.7144 60.905 33.4406ZM63.8551 34.9663C63.855 34.9663 63.8543 34.9649 63.8533 34.9621C63.8546 34.9649 63.8551 34.9663 63.8551 34.9663ZM63.852 34.8474C63.8528 34.8451 63.8534 34.8438 63.8535 34.8438C63.8536 34.8438 63.8532 34.8449 63.852 34.8474Z" fill="white" stroke="black" stroke-width="0.6"/>
<path d="M77.6287 66.0466C77.6183 66.0632 77.6032 66.0849 77.5821 66.1112C77.5122 66.1981 77.3868 66.3229 77.1782 66.473C76.7612 66.773 76.0287 67.1621 74.7947 67.5481C72.4294 68.2858 69.2382 68.7 65.8332 68.7C62.4158 68.7 59.2361 68.2975 56.8942 67.5833C55.6596 67.203 54.9337 66.8227 54.5234 66.529C54.3182 66.3822 54.1968 66.2604 54.1299 66.1757C54.0987 66.1361 54.0817 66.1075 54.0734 66.0909L54.0222 63.1245C54.856 63.4988 55.7154 63.7953 56.6002 64.0217C59.1275 64.6835 62.329 65.0541 65.6073 65.0541C69.3025 65.0541 72.8181 64.612 75.518 63.7925C76.2474 63.5726 76.951 63.2956 77.6287 62.9754V66.0466ZM77.6482 66.01C77.6483 66.0099 77.648 66.0109 77.647 66.0131C77.6477 66.0112 77.6481 66.0101 77.6482 66.01ZM54.0676 66.0777C54.0677 66.0777 54.068 66.0785 54.0684 66.0801C54.0678 66.0785 54.0676 66.0777 54.0676 66.0777Z" fill="#FBBC05" stroke="#2C3E50" stroke-width="0.6"/>
<path d="M51.823 47.0833C55.5177 47.0833 59.0565 46.6414 61.7681 45.8221C62.5213 45.601 63.2491 45.322 63.9514 44.9921V47.337C61.4791 47.4231 58.9826 47.726 56.8473 48.2645C54.7052 48.8048 52.8778 49.594 51.8241 50.6817C50.7714 50.6814 49.7486 50.6404 48.7936 50.5776C48.3947 49.2425 47.814 47.9744 47.0577 46.8147C48.6365 46.9911 50.2249 47.0833 51.823 47.0833Z" fill="#DFDFDF" stroke="black" stroke-width="0.6"/>
<path d="M53.9545 58.7206H53.9545L53.9545 58.719L53.9153 56.4692C54.6284 56.7964 55.3647 57.0654 56.1174 57.2763C58.7324 58.0353 62.1034 58.4414 65.631 58.4414C69.2649 58.4414 72.7422 58.0117 75.4286 57.2172C76.1985 57.0143 76.94 56.7283 77.6525 56.3957V58.7691H77.6406V59.0691C77.6406 59.069 77.6406 59.0697 77.6405 59.0711L77.6399 59.0773C77.6391 59.083 77.6379 59.0907 77.6357 59.1011C77.6311 59.1234 77.6246 59.1476 77.615 59.1836L77.613 59.1912C77.5987 59.2445 77.576 59.3294 77.5705 59.4211C77.5613 59.4378 77.5431 59.466 77.5109 59.5048C77.4395 59.5908 77.3111 59.7145 77.0971 59.8636C76.6694 60.1616 75.9185 60.5483 74.6541 60.9347C72.2522 61.6611 69.0365 62.0635 65.6191 62.0635C62.3461 62.0635 59.6148 61.6942 57.5931 61.1851C56.5819 60.9304 55.7532 60.6421 55.1252 60.3504C54.5539 60.085 54.1731 59.8279 53.9651 59.6091L53.9545 58.7206ZM77.5777 59.4061C77.5778 59.4061 77.5774 59.4071 77.5764 59.4094C77.5771 59.4073 77.5776 59.4062 77.5777 59.4061Z" fill="#01C3FF" stroke="black" stroke-width="0.6"/>
<path d="M74.7016 51.4471L74.7025 51.4474C75.95 51.8222 76.7022 52.1978 77.137 52.4899C77.3544 52.636 77.4878 52.7582 77.5638 52.8448C77.5794 52.8626 77.5921 52.8783 77.6023 52.8919C77.5914 52.9068 77.5777 52.9242 77.5606 52.9441C77.4829 53.034 77.3463 53.161 77.1226 53.3127C76.6751 53.6161 75.8969 54.0063 74.5963 54.3929L74.5963 54.3929C72.1938 55.1078 69.0131 55.4985 65.6429 55.4985C62.3806 55.4985 59.294 55.1199 56.961 54.4518C55.7023 54.0829 54.9166 53.704 54.4437 53.3971C54.2073 53.2436 54.0525 53.1105 53.9565 53.0087C53.8989 52.9477 53.8675 52.9034 53.8513 52.8772C53.8748 52.8432 53.914 52.7945 53.9774 52.7326C54.0901 52.6227 54.2632 52.4863 54.5147 52.3339C55.0176 52.0291 55.8173 51.6698 57.0299 51.33L57.0308 51.3298C59.3044 50.6852 62.2844 50.3302 65.4289 50.3302H65.631C69.0145 50.3302 72.3129 50.7211 74.7016 51.4471ZM77.638 52.9482C77.638 52.9482 77.6376 52.9474 77.637 52.9458C77.6378 52.9474 77.6381 52.9482 77.638 52.9482ZM77.6365 52.8372C77.637 52.8357 77.6373 52.8349 77.6374 52.835C77.6374 52.835 77.6371 52.8357 77.6365 52.8372Z" fill="white" fill-opacity="0.51" stroke="black" stroke-width="0.6"/>
</svg>
