<svg width="100" height="100" viewBox="0 0 100 100" fill="none" xmlns="http://www.w3.org/2000/svg">
<path d="M50 100C77.6142 100 100 77.6142 100 50C100 22.3858 77.6142 0 50 0C22.3858 0 0 22.3858 0 50C0 77.6142 22.3858 100 50 100Z" fill="#EFF3FC"/>
<path d="M37.9805 39.5562H32.7641V38.0297H37.9805C39.6288 38.0297 40.9703 39.3712 40.9703 41.0195V44.3594V44.7094H41.3203H63.2359V52.6563C63.2359 55.3466 61.1337 57.6313 58.4526 57.8543L58.4526 57.8542L58.4455 57.855L41.2842 59.6362L40.9703 59.6688V59.9844V61.207C40.9703 62.0146 41.6261 62.6703 42.4336 62.6703H63.2359V64.1969H61.1543H60.6579L60.8246 64.6644C60.9391 64.9854 61.0094 65.3164 61.0094 65.6602C61.0094 67.3085 59.6679 68.65 58.0195 68.65C56.3712 68.65 55.0297 67.3085 55.0297 65.6602C55.0297 65.3164 55.1 64.9854 55.2144 64.6644L55.3811 64.1969H54.8848H50.0215H49.5251L49.6918 64.6644C49.8063 64.9854 49.8766 65.3164 49.8766 65.6602C49.8766 67.3085 48.5351 68.65 46.8867 68.65C45.2384 68.65 43.8969 67.3085 43.8969 65.6602C43.8969 65.3164 43.9672 64.9854 44.0816 64.6644L44.2483 64.1969H43.7519H42.4336C40.7852 64.1969 39.4437 62.8554 39.4437 61.207V61.206V61.2039V61.2012V61.1982V61.1947V61.1907V61.1863V61.1815V61.1762V61.1705V61.1644V61.1578V61.1508V61.1434V61.1355V61.1272V61.1185V61.1094V61.0998V61.0899V61.0795V61.0687V61.0575V61.0458V61.0338V61.0214V61.0085V60.9953V60.9816V60.9676V60.9531V60.9383V60.9231V60.9074V60.8914V60.875V60.8582V60.841V60.8234V60.8055V60.7871V60.7684V60.7493V60.7299V60.71V60.6898V60.6692V60.6483V60.627V60.6053V60.5832V60.5608V60.5381V60.5149V60.4915V60.4676V60.4434V60.4189V60.394V60.3688V60.3432V60.3173V60.291V60.2644V60.2375V60.2102V60.1826V60.1547V60.1264V60.0978V60.0689V60.0396V60.01V59.9801V59.9499V59.9194V59.8885V59.8573V59.8259V59.7941V59.762V59.7295V59.6968V59.6638V59.6305V59.5968V59.5629V59.5287V59.4942V59.4594V59.4243V59.3889V59.3532V59.3172V59.281V59.2444V59.2076V59.1705V59.1332V59.0955V59.0576V59.0194V58.9809V58.9422V58.9032V58.8639V58.8244V58.7846V58.7446V58.7043V58.6637V58.6229V58.5818V58.5405V58.4989V58.4571V58.415V58.3727V58.3302V58.2874V58.2443V58.2011V58.1576V58.1138V58.0699V58.0257V57.9813V57.9366V57.8918V57.8467V57.8013V57.7558V57.7101V57.6641V57.6179V57.5715V57.5249V57.4781V57.4311V57.3839V57.3365V57.2888V57.241V57.193V57.1448V57.0964V57.0478V56.999V56.95V56.9008V56.8515V56.8019V56.7522V56.7023V56.6523V56.602V56.5516V56.501V56.4502V56.3993V56.3482V56.2969V56.2455V56.1939V56.1421V56.0902V56.0381V55.9859V55.9335V55.881V55.8283V55.7755V55.7225V55.6694V55.6161V55.5627V55.5092V55.4555V55.4017V55.3478V55.2937V55.2395V55.1851V55.1307V55.0761V55.0214V54.9666V54.9116V54.8566V54.8014V54.7461V54.6907V54.6352V54.5795V54.5238V54.468V54.412V54.356V54.2998V54.2436V54.1873V54.1308V54.0743V54.0177V53.961V53.9042V53.8473V53.7904V53.7333V53.6762V53.619V53.5617V53.5044V53.447V53.3895V53.3319V53.2743V53.2166V53.1588V53.101V53.0431V52.9852V52.9272V52.8691V52.811V52.7529V52.6946V52.6364V52.5781V52.5197V52.4613V52.4029V52.3444V52.2859V52.2274V52.1688V52.1102V52.0516V51.9929V51.9342V51.8755V51.8167V51.758V51.6992V51.6404V51.5816V51.5227V51.4639V51.405V51.3462V51.2873V51.2284V51.1696V51.1107V51.0518V50.9929V50.934V50.8752V50.8163V50.7574V50.6986V50.6398V50.5809V50.5221V50.4634V50.4046V50.3459V50.2871V50.2284V50.1698V50.1111V50.0525V49.9939V49.9354V49.8769V49.8184V49.76V49.7016V49.6433V49.5849V49.5267V49.4685V49.4103V49.3522V49.2942V49.2362V49.1782V49.1203V49.0625V49.0048V48.9471V48.8894V48.8319V48.7744V48.7169V48.6596V48.6023V48.5451V48.488V48.431V48.374V48.3171V48.2603V48.2036V48.147V48.0905V48.0341V47.9777V47.9215V47.8653V47.8093V47.7534V47.6975V47.6418V47.5862V47.5306V47.4752V47.4199V47.3648V47.3097V47.2547V47.1999V47.1452V47.0906V47.0361V46.9818V46.9276V46.8735V46.8196V46.7658V46.7121V46.6586V46.6052V46.5519V46.4988V46.4458V46.393V46.3403V46.2878V46.2354V46.1832V46.1311V46.0792V46.0274V45.9758V45.9244V45.8731V45.822V45.7711V45.7203V45.6697V45.6193V45.569V45.5189V45.469V45.4193V45.3698V45.3204V45.2712V45.2223V45.1735V45.1249V45.0765V45.0282V44.9802V44.9324V44.8848V44.8373V44.7901V44.7431V44.6963V44.6497V44.6033V44.5571V44.5111V44.4654V44.4199V44.3745V44.3294V44.2846V44.2399V44.1955V44.1513V44.1073V44.0636V44.0201V43.9768V43.9338V43.891V43.8485V43.8061V43.7641V43.7223V43.6807V43.6394V43.5983V43.5575V43.5169V43.4766V43.4365V43.3967V43.3572V43.3179V43.2789V43.2402V43.2017V43.1635V43.1256V43.088V43.0506V43.0135V42.9767V42.9401V42.9039V42.8679V42.8322V42.7968V42.7617V42.7269V42.6924V42.6582V42.6242V42.5906V42.5573V42.5243V42.4915V42.4591V42.427V42.3952V42.3637V42.3325V42.3017V42.2711V42.2409V42.211V42.1814V42.1522V42.1232V42.0946V42.0664V42.0384V42.0108V41.9835V41.9566V41.93V41.9037V41.8778V41.8522V41.827V41.8021V41.7776V41.7534V41.7295V41.706V41.6829V41.6601V41.6377V41.6157V41.594V41.5727V41.5517V41.5311V41.5109V41.4911V41.4716V41.4525V41.4338V41.4155V41.3975V41.3799V41.3627V41.3459V41.3295V41.3135V41.2978V41.2826V41.2677V41.2533V41.2392V41.2256V41.2123V41.1995V41.187V41.175V41.1634V41.1522V41.1414V41.131V41.121V41.1115V41.1023V41.0936V41.0853V41.0775V41.07V41.063V41.0564V41.0503V41.0446V41.0393V41.0345V41.0301V41.0261V41.0226V41.0195C39.4437 40.212 38.788 39.5562 37.9805 39.5562ZM46.8867 67.1234C47.6943 67.1234 48.35 66.4677 48.35 65.6602C48.35 64.8526 47.6943 64.1969 46.8867 64.1969C46.0792 64.1969 45.4234 64.8526 45.4234 65.6602C45.4234 66.4677 46.0792 67.1234 46.8867 67.1234ZM58.0195 67.1234C58.8271 67.1234 59.4828 66.4677 59.4828 65.6602C59.4828 64.8526 58.8271 64.1969 58.0195 64.1969C57.212 64.1969 56.5562 64.8526 56.5562 65.6602C56.5562 66.4677 57.212 67.1234 58.0195 67.1234Z" fill="#FBBC05" stroke="black" stroke-width="0.7"/>
<path d="M63.3359 35.4531C63.3359 37.7744 61.4541 39.6562 59.1328 39.6562C56.8115 39.6562 54.9297 37.7744 54.9297 35.4531C54.9297 33.1318 56.8115 31.25 59.1328 31.25C61.4541 31.25 63.3359 33.1318 63.3359 35.4531Z" fill="#21D885" stroke="black" stroke-width="0.5"/>
<path d="M52.2031 37.6797C52.2031 40.001 50.3213 41.8828 48 41.8828C45.6787 41.8828 43.7969 40.001 43.7969 37.6797C43.7969 35.3584 45.6787 33.4766 48 33.4766C50.3213 33.4766 52.2031 35.3584 52.2031 37.6797Z" stroke="black" stroke-width="0.5"/>
</svg>
