<svg width="53" height="57" viewBox="0 0 53 57" fill="none" xmlns="http://www.w3.org/2000/svg">
<path fill-rule="evenodd" clip-rule="evenodd" d="M17.6495 55.4929L40.7908 32.3516H12.9204L38.8402 6.43174C35.5817 4.78551 32.0209 3.82319 28.3767 3.60397C24.7325 3.38475 21.082 3.91325 17.6496 5.15698C14.2172 6.40071 11.0755 8.3334 8.41767 10.8362C5.75981 13.339 3.64197 16.3589 2.19437 19.7104C0.746775 23.0619 6.778e-06 26.6741 0 30.3249C-6.77791e-06 33.9756 0.746737 37.5878 2.19432 40.9394C3.64191 44.2909 5.75974 47.3108 8.4176 49.8136C11.0754 52.3164 14.2171 54.2491 17.6495 55.4929Z" fill="#56DCE8"/>
<path fill-rule="evenodd" clip-rule="evenodd" d="M34.9538 5.03516L11.8125 28.1764H39.6829L13.7631 54.0963C17.0216 55.7425 20.5825 56.7048 24.2266 56.924C27.8708 57.1433 31.5213 56.6148 34.9537 55.371C38.3861 54.1273 41.5278 52.1946 44.1857 49.6918C46.8435 47.1891 48.9614 44.1691 50.409 40.8176C51.8566 37.4661 52.6033 33.8539 52.6033 30.2031C52.6033 26.5524 51.8566 22.9402 50.409 19.5887C48.9614 16.2371 46.8436 13.2172 44.1857 10.7144C41.5279 8.21159 38.3862 6.2789 34.9538 5.03516Z" fill="#2C3E50"/>
<path d="M16.611 52.2844L38.7597 30.1357" stroke="white" stroke-width="8" stroke-linecap="round"/>
<path d="M14.9503 30.1367H38.9452" stroke="white" stroke-width="8" stroke-linecap="round"/>
<path d="M14.766 30.1359L36.9146 7.9873" stroke="white" stroke-width="8" stroke-linecap="round"/>
<path d="M36.9146 11.1258C38.6475 11.1258 40.0524 9.72091 40.0524 7.98793C40.0524 6.25495 38.6475 4.8501 36.9146 4.8501C35.1816 4.8501 33.7767 6.25495 33.7767 7.98793C33.7767 9.72091 35.1816 11.1258 36.9146 11.1258Z" fill="#34A853" stroke="white" stroke-width="3"/>
<path d="M41.3133 2.03127C41.4697 1.98948 41.6344 1.98958 41.7908 2.03155C41.9472 2.07352 42.0898 2.15587 42.2043 2.27037C42.3188 2.38487 42.4012 2.52748 42.4431 2.68387C42.4851 2.84027 42.4852 3.00494 42.4434 3.16138L39.7941 13.0435C39.7521 13.1999 39.6697 13.3426 39.5552 13.4572C39.4406 13.5717 39.2979 13.6541 39.1415 13.696C38.985 13.738 38.8203 13.738 38.6638 13.6961C38.5073 13.6543 38.3646 13.5719 38.25 13.4574L31.0164 6.22387C30.9019 6.10927 30.8196 5.96657 30.7777 5.81009C30.7358 5.6536 30.7359 5.48885 30.7778 5.33238C30.8198 5.17591 30.9021 5.03325 31.0167 4.9187C31.1312 4.80415 31.2739 4.72176 31.4304 4.6798L41.3133 2.03127Z" fill="#21D885" stroke="white" stroke-width="3"/>
<path d="M40.6066 33.6443C42.7474 33.6443 44.4829 31.9088 44.4829 29.7679C44.4829 27.6271 42.7474 25.8916 40.6066 25.8916C38.4657 25.8916 36.7302 27.6271 36.7302 29.7679C36.7302 31.9088 38.4657 33.6443 40.6066 33.6443Z" fill="#01C3FF" stroke="white" stroke-width="3"/>
<path d="M14.7655 33.6443C16.9063 33.6443 18.6418 31.9088 18.6418 29.7679C18.6418 27.6271 16.9063 25.8916 14.7655 25.8916C12.6247 25.8916 10.8892 27.6271 10.8892 29.7679C10.8892 31.9088 12.6247 33.6443 14.7655 33.6443Z" fill="#FBBC05" stroke="white" stroke-width="3"/>
<path d="M16.6122 55.425C18.753 55.425 20.4885 53.6895 20.4885 51.5487C20.4885 49.4079 18.753 47.6724 16.6122 47.6724C14.4713 47.6724 12.7358 49.4079 12.7358 51.5487C12.7358 53.6895 14.4713 55.425 16.6122 55.425Z" fill="#F87306" stroke="white" stroke-width="3"/>
</svg>
