<svg width="27" height="27" viewBox="0 0 27 27" fill="none" xmlns="http://www.w3.org/2000/svg">
<path d="M21.9286 2.25H13.3214C11.7631 2.25 10.5 3.57593 10.5 5.21712V18.7946C10.5 19.3707 11.1281 19.7076 11.5714 19.358L14.2619 17.236H21.9286C23.4869 17.236 24.75 15.91 24.75 14.2689V5.21712C24.75 3.57832 23.4892 2.25 21.9286 2.25V2.25ZM17.6249 13.8415C17.2554 13.8415 16.9553 13.5261 16.9553 13.1373C16.9553 12.7487 17.2554 12.4331 17.6249 12.4331C17.9946 12.4331 18.2946 12.7487 18.2946 13.1373C18.2946 13.5261 17.9946 13.8415 17.6249 13.8415ZM18.2946 10.7272V10.8744C18.2946 11.2634 17.9948 11.5787 17.6249 11.5787C17.2552 11.5787 16.9553 11.2634 16.9553 10.8744V10.1201C16.9553 9.73116 17.2552 9.4159 17.6249 9.4159C18.2445 9.4159 18.7485 8.8859 18.7485 8.2343C18.7485 7.58289 18.2445 7.05288 17.6249 7.05288C17.0022 7.05288 16.5015 7.58252 16.5015 8.23357C16.5015 8.62254 16.2016 8.93835 15.8319 8.93835C15.462 8.93835 15.1622 8.62328 15.1622 8.23448V8.23357C15.1622 6.80127 16.2647 5.64442 17.6242 5.64442C18.983 5.64442 20.0878 6.80622 20.0878 8.23448C20.0878 9.41847 19.3283 10.4196 18.2946 10.7272Z" fill="#21D885"/>
<path d="M8.5155 16.4474C8.5155 18.3744 6.95332 19.9366 5.02631 19.9366C3.09929 19.9366 1.53711 18.3744 1.53711 16.4474C1.53711 14.5202 3.0993 12.958 5.02631 12.958C6.95331 12.958 8.5155 14.5202 8.5155 16.4474Z" fill="#2C3E50" stroke="black" stroke-width="0.5"/>
<path d="M0.3 25.2138C0.3 22.6031 2.41658 20.4865 5.02728 20.4865C7.63819 20.4865 9.75476 22.6031 9.75476 25.2138V26.2085C9.75476 26.4797 9.53481 26.6996 9.26374 26.6996H0.791016C0.519789 26.6996 0.3 26.4798 0.3 26.2085V25.2138Z" fill="#56DCE8" fill-opacity="0.58" stroke="black" stroke-width="0.6"/>
</svg>
